ISO-10303-21;
HEADER;
FILE_DESCRIPTION (( 'STEP AP214' ),
    '1' );
FILE_NAME ('Bracket.STEP',
    '2026-02-11T15:43:55',
    ( '' ),
    ( '' ),
    'SwSTEP 2.0',
    'SolidWorks 2022',
    '' );
FILE_SCHEMA (( 'AUTOMOTIVE_DESIGN' ));
ENDSEC;

DATA;
#1 = DIRECTION ( 'NONE',  ( 3.541727096785979310E-15, -1.000000000000000000, 1.445602896647338424E-16 ) ) ;
#2 = CARTESIAN_POINT ( 'NONE',  ( -3.000000000000000000, 1.999999999999989564, -12.00000000000000000 ) ) ;
#3 = ADVANCED_FACE ( 'NONE', ( #36 ), #26, .F. ) ;
#4 = CARTESIAN_POINT ( 'NONE',  ( 0.000000000000000000, -1.000000000000000000, 12.00000000000000000 ) ) ;
#5 = SURFACE_STYLE_FILL_AREA ( #978 ) ;
#6 = FACE_OUTER_BOUND ( 'NONE', #704, .T. ) ;
#7 = APPLICATION_PROTOCOL_DEFINITION ( 'draft international standard', 'automotive_design', 1998, #977 ) ;
#8 = DIRECTION ( 'NONE',  ( 1.000000000000000000, 0.000000000000000000, 0.000000000000000000 ) ) ;
#9 = CARTESIAN_POINT ( 'NONE',  ( 21.00000000000000000, 0.000000000000000000, 0.000000000000000000 ) ) ;
#10 = AXIS2_PLACEMENT_3D ( 'NONE', #718, #890, #435 ) ;
#11 = EDGE_CURVE ( 'NONE', #916, #1106, #754, .T. ) ;
#12 = LINE ( 'NONE', #273, #936 ) ;
#13 = LINE ( 'NONE', #370, #685 ) ;
#14 = FACE_OUTER_BOUND ( 'NONE', #220, .T. ) ;
#15 = ORIENTED_EDGE ( 'NONE', *, *, #343, .T. ) ;
#16 = DIRECTION ( 'NONE',  ( -1.000000000000000000, 0.000000000000000000, 6.308085367188393199E-16 ) ) ;
#17 = VECTOR ( 'NONE', #846, 1000.000000000000000 ) ;
#18 = ORIENTED_EDGE ( 'NONE', *, *, #68, .F. ) ;
#19 = EDGE_CURVE ( 'NONE', #1052, #226, #307, .T. ) ;
#20 = VECTOR ( 'NONE', #799, 1000.000000000000000 ) ;
#21 = ORIENTED_EDGE ( 'NONE', *, *, #972, .T. ) ;
#22 = AXIS2_PLACEMENT_3D ( 'NONE', #74, #366, #611 ) ;
#23 = DIRECTION ( 'NONE',  ( -0.000000000000000000, -0.000000000000000000, -1.000000000000000000 ) ) ;
#24 = DIRECTION ( 'NONE',  ( -0.000000000000000000, 1.000000000000000000, -0.000000000000000000 ) ) ;
#25 = LINE ( 'NONE', #103, #867 ) ;
#26 = PLANE ( 'NONE',  #71 ) ;
#27 = DIRECTION ( 'NONE',  ( 1.000000000000000000, 3.491481338843133750E-15, -0.000000000000000000 ) ) ;
#28 = ORIENTED_EDGE ( 'NONE', *, *, #596, .T. ) ;
#29 = EDGE_CURVE ( 'NONE', #1143, #916, #919, .T. ) ;
#30 = LINE ( 'NONE', #369, #684 ) ;
#31 = CARTESIAN_POINT ( 'NONE',  ( 0.000000000000000000, 2.000000000000000000, -12.00000000000000000 ) ) ;
#32 = ORIENTED_EDGE ( 'NONE', *, *, #562, .F. ) ;
#33 = DIRECTION ( 'NONE',  ( 1.000000000000000000, 0.000000000000000000, 0.000000000000000000 ) ) ;
#34 = CARTESIAN_POINT ( 'NONE',  ( -2.000000000000000000, 1.999999999999993117, -12.00000000000000000 ) ) ;
#35 = MECHANICAL_DESIGN_GEOMETRIC_PRESENTATION_REPRESENTATION (  '', ( #789 ), #996 ) ;
#36 = FACE_OUTER_BOUND ( 'NONE', #642, .T. ) ;
#37 = CYLINDRICAL_SURFACE ( 'NONE', #63, 2.379999999999999893 ) ;
#38 = CIRCLE ( 'NONE', #499, 2.000000000000000000 ) ;
#39 = DIRECTION ( 'NONE',  ( 1.000000000000000000, 0.000000000000000000, 0.000000000000000000 ) ) ;
#40 = ORIENTED_EDGE ( 'NONE', *, *, #382, .F. ) ;
#41 = CARTESIAN_POINT ( 'NONE',  ( 0.000000000000000000, 0.000000000000000000, -12.00000000000000000 ) ) ;
#42 = ORIENTED_EDGE ( 'NONE', *, *, #647, .F. ) ;
#43 = CARTESIAN_POINT ( 'NONE',  ( -3.000000000000013767, 5.999999999999986677, 4.000000000000001776 ) ) ;
#44 = ORIENTED_EDGE ( 'NONE', *, *, #1041, .F. ) ;
#45 = DIRECTION ( 'NONE',  ( 1.000000000000000000, 3.491481338843133750E-15, -0.000000000000000000 ) ) ;
#46 = AXIS2_PLACEMENT_3D ( 'NONE', #570, #394, #730 ) ;
#47 = AXIS2_PLACEMENT_3D ( 'NONE', #716, #102, #812 ) ;
#48 = EDGE_LOOP ( 'NONE', ( #854, #632, #568, #321 ) ) ;
#49 = LINE ( 'NONE', #772, #416 ) ;
#50 = ORIENTED_EDGE ( 'NONE', *, *, #1000, .T. ) ;
#51 = DIRECTION ( 'NONE',  ( -3.491481338843133750E-15, 1.000000000000000000, -0.000000000000000000 ) ) ;
#52 = VECTOR ( 'NONE', #705, 1000.000000000000000 ) ;
#53 = EDGE_LOOP ( 'NONE', ( #480, #1005, #256, #57 ) ) ;
#54 = DIRECTION ( 'NONE',  ( 3.491481338843133750E-15, -1.000000000000000000, -0.000000000000000000 ) ) ;
#55 = ORIENTED_EDGE ( 'NONE', *, *, #265, .F. ) ;
#56 = DIRECTION ( 'NONE',  ( 0.000000000000000000, 0.000000000000000000, -1.000000000000000000 ) ) ;
#57 = ORIENTED_EDGE ( 'NONE', *, *, #774, .T. ) ;
#58 = DIRECTION ( 'NONE',  ( -3.491481338843133750E-15, 1.000000000000000000, -0.000000000000000000 ) ) ;
#59 = EDGE_CURVE ( 'NONE', #605, #519, #1081, .T. ) ;
#60 = EDGE_CURVE ( 'NONE', #119, #742, #933, .T. ) ;
#61 = AXIS2_PLACEMENT_3D ( 'NONE', #479, #24, #555 ) ;
#62 = VERTEX_POINT ( 'NONE', #196 ) ;
#63 = AXIS2_PLACEMENT_3D ( 'NONE', #843, #658, #1017 ) ;
#64 = DIRECTION ( 'NONE',  ( 0.000000000000000000, 0.000000000000000000, 1.000000000000000000 ) ) ;
#65 = ADVANCED_FACE ( 'NONE', ( #997, #1012 ), #125, .F. ) ;
#66 = CIRCLE ( 'NONE', #717, 1.999999999999998224 ) ;
#67 = FACE_OUTER_BOUND ( 'NONE', #164, .T. ) ;
#68 = EDGE_CURVE ( 'NONE', #403, #522, #274, .T. ) ;
#69 = VERTEX_POINT ( 'NONE', #634 ) ;
#70 = VECTOR ( 'NONE', #598, 1000.000000000000000 ) ;
#71 = AXIS2_PLACEMENT_3D ( 'NONE', #1107, #927, #1100 ) ;
#72 = DIRECTION ( 'NONE',  ( 0.000000000000000000, -1.000000000000000000, 0.000000000000000000 ) ) ;
#73 = ORIENTED_EDGE ( 'NONE', *, *, #935, .F. ) ;
#74 = CARTESIAN_POINT ( 'NONE',  ( -3.000000000000042188, 13.99999999999998934, 6.000000000000000000 ) ) ;
#75 = CYLINDRICAL_SURFACE ( 'NONE', #748, 2.000000000000000000 ) ;
#76 = ORIENTED_EDGE ( 'NONE', *, *, #224, .T. ) ;
#77 = ORIENTED_EDGE ( 'NONE', *, *, #946, .F. ) ;
#78 = LINE ( 'NONE', #688, #191 ) ;
#79 = ORIENTED_EDGE ( 'NONE', *, *, #965, .F. ) ;
#80 = DIRECTION ( 'NONE',  ( 0.000000000000000000, 2.168404344971007882E-16, -1.000000000000000000 ) ) ;
#81 = ORIENTED_EDGE ( 'NONE', *, *, #1126, .F. ) ;
#82 = VECTOR ( 'NONE', #253, 1000.000000000000000 ) ;
#83 = DIRECTION ( 'NONE',  ( 0.000000000000000000, 1.000000000000000000, 0.000000000000000000 ) ) ;
#84 = ORIENTED_EDGE ( 'NONE', *, *, #810, .F. ) ;
#85 = EDGE_CURVE ( 'NONE', #830, #69, #534, .T. ) ;
#86 = DIRECTION ( 'NONE',  ( 0.000000000000000000, 0.000000000000000000, 1.000000000000000000 ) ) ;
#87 = DIRECTION ( 'NONE',  ( -3.469446951953614189E-15, 1.000000000000000000, 0.000000000000000000 ) ) ;
#88 = EDGE_CURVE ( 'NONE', #519, #440, #93, .T. ) ;
#89 = ORIENTED_EDGE ( 'NONE', *, *, #529, .F. ) ;
#90 = AXIS2_PLACEMENT_3D ( 'NONE', #689, #866, #64 ) ;
#91 = DIRECTION ( 'NONE',  ( 0.000000000000000000, 1.000000000000000000, 0.000000000000000000 ) ) ;
#92 = DIRECTION ( 'NONE',  ( -0.000000000000000000, 0.000000000000000000, -1.000000000000000000 ) ) ;
#93 = CIRCLE ( 'NONE', #248, 3.000000000000000000 ) ;
#94 = CARTESIAN_POINT ( 'NONE',  ( -2.999999999999993339, -3.491481338843133355E-15, -12.00000000000000000 ) ) ;
#95 = VECTOR ( 'NONE', #796, 1000.000000000000000 ) ;
#96 = CARTESIAN_POINT ( 'NONE',  ( 0.000000000000000000, -1.000000000000000000, -12.00000000000000000 ) ) ;
#97 = DIRECTION ( 'NONE',  ( 0.000000000000000000, 1.000000000000000000, 0.000000000000000000 ) ) ;
#98 = DIRECTION ( 'NONE',  ( -3.491481338843133750E-15, 1.000000000000000000, 0.000000000000000000 ) ) ;
#99 = DIRECTION ( 'NONE',  ( 3.469446951953614189E-15, -1.000000000000000000, 0.000000000000000000 ) ) ;
#100 = EDGE_CURVE ( 'NONE', #147, #552, #288, .T. ) ;
#101 = DIRECTION ( 'NONE',  ( -3.469446951953617344E-15, 1.000000000000000000, 0.000000000000000000 ) ) ;
#102 = DIRECTION ( 'NONE',  ( 0.000000000000000000, 0.000000000000000000, -1.000000000000000000 ) ) ;
#103 = CARTESIAN_POINT ( 'NONE',  ( -2.000000000000063061, 20.00000000000000355, -12.00000000000000000 ) ) ;
#104 = ORIENTED_EDGE ( 'NONE', *, *, #1098, .F. ) ;
#105 = CARTESIAN_POINT ( 'NONE',  ( -3.000000000000048850, 15.99999999999998934, 4.000000000000000000 ) ) ;
#106 = ADVANCED_FACE ( 'NONE', ( #110 ), #297, .T. ) ;
#107 = CIRCLE ( 'NONE', #769, 0.1249999999999998890 ) ;
#108 = VERTEX_POINT ( 'NONE', #1086 ) ;
#109 = PLANE ( 'NONE',  #46 ) ;
#110 = FACE_OUTER_BOUND ( 'NONE', #342, .T. ) ;
#111 = CARTESIAN_POINT ( 'NONE',  ( -3.000000000000013767, 5.999999999999986677, 4.000000000000001776 ) ) ;
#112 = VERTEX_POINT ( 'NONE', #806 ) ;
#113 = CARTESIAN_POINT ( 'NONE',  ( -2.000000000000063061, 20.00000000000000355, -12.00000000000000000 ) ) ;
#114 = ADVANCED_FACE ( 'NONE', ( #994 ), #1078, .F. ) ;
#115 = ORIENTED_EDGE ( 'NONE', *, *, #810, .T. ) ;
#116 = VECTOR ( 'NONE', #756, 1000.000000000000000 ) ;
#117 = LINE ( 'NONE', #914, #943 ) ;
#118 = DIRECTION ( 'NONE',  ( -1.000000000000000000, 0.000000000000000000, -0.000000000000000000 ) ) ;
#119 = VERTEX_POINT ( 'NONE', #219 ) ;
#120 = DIRECTION ( 'NONE',  ( 0.000000000000000000, 0.000000000000000000, 1.000000000000000000 ) ) ;
#121 = DIRECTION ( 'NONE',  ( -0.000000000000000000, 1.000000000000000000, -0.000000000000000000 ) ) ;
#122 = LINE ( 'NONE', #231, #703 ) ;
#123 = DIRECTION ( 'NONE',  ( 0.000000000000000000, 0.000000000000000000, -1.000000000000000000 ) ) ;
#124 = ORIENTED_EDGE ( 'NONE', *, *, #635, .T. ) ;
#125 = PLANE ( 'NONE',  #848 ) ;
#126 = ORIENTED_EDGE ( 'NONE', *, *, #1053, .T. ) ;
#127 = CARTESIAN_POINT ( 'NONE',  ( -1.750000000000062839, 20.00000000000000355, -12.00000000000000000 ) ) ;
#128 = CARTESIAN_POINT ( 'NONE',  ( 17.74770348837209255, -1.000000000000000000, -1.423048628983896391 ) ) ;
#129 = CARTESIAN_POINT ( 'NONE',  ( -0.7500000000000579536, 18.56250000000000711, 12.00000000000000000 ) ) ;
#130 = EDGE_CURVE ( 'NONE', #827, #108, #532, .T. ) ;
#131 = AXIS2_PLACEMENT_3D ( 'NONE', #43, #283, #465 ) ;
#132 = DIRECTION ( 'NONE',  ( 0.000000000000000000, 0.000000000000000000, -1.000000000000000000 ) ) ;
#133 = EDGE_LOOP ( 'NONE', ( #209, #178, #903, #1115 ) ) ;
#134 = LINE ( 'NONE', #760, #17 ) ;
#135 = ORIENTED_EDGE ( 'NONE', *, *, #747, .F. ) ;
#136 = ADVANCED_FACE ( 'NONE', ( #396 ), #986, .T. ) ;
#137 = CARTESIAN_POINT ( 'NONE',  ( -1.750000000000052847, 17.12500000000000000, 12.00000000000000000 ) ) ;
#138 = AXIS2_PLACEMENT_3D ( 'NONE', #865, #956, #163 ) ;
#139 = UNCERTAINTY_MEASURE_WITH_UNIT (LENGTH_MEASURE( 1.000000000000000082E-05 ), #925, 'distance_accuracy_value', 'NONE');
#140 = AXIS2_PLACEMENT_3D ( 'NONE', #1021, #669, #227 ) ;
#141 = VERTEX_POINT ( 'NONE', #564 ) ;
#142 = CARTESIAN_POINT ( 'NONE',  ( -2.000000000000048850, 15.99999999999999289, -4.000000000000000888 ) ) ;
#143 = ORIENTED_EDGE ( 'NONE', *, *, #251, .F. ) ;
#144 = CARTESIAN_POINT ( 'NONE',  ( 21.00000000000000000, -1.000000000000000000, 3.550000000000001155 ) ) ;
#145 = AXIS2_PLACEMENT_3D ( 'NONE', #609, #83, #692 ) ;
#146 = EDGE_CURVE ( 'NONE', #409, #1130, #829, .T. ) ;
#147 = VERTEX_POINT ( 'NONE', #923 ) ;
#148 = FACE_OUTER_BOUND ( 'NONE', #53, .T. ) ;
#149 = AXIS2_PLACEMENT_3D ( 'NONE', #1129, #91, #443 ) ;
#150 = ADVANCED_FACE ( 'NONE', ( #211, #1066 ), #193, .F. ) ;
#151 = VECTOR ( 'NONE', #16, 1000.000000000000000 ) ;
#152 = VERTEX_POINT ( 'NONE', #41 ) ;
#153 = DIRECTION ( 'NONE',  ( -3.491481338843133750E-15, 1.000000000000000000, 0.000000000000000000 ) ) ;
#154 = EDGE_CURVE ( 'NONE', #206, #579, #201, .T. ) ;
#155 = VECTOR ( 'NONE', #574, 1000.000000000000000 ) ;
#156 = LINE ( 'NONE', #1065, #588 ) ;
#157 = EDGE_CURVE ( 'NONE', #947, #1143, #873, .T. ) ;
#158 = LINE ( 'NONE', #506, #778 ) ;
#159 = CARTESIAN_POINT ( 'NONE',  ( -1.999999999999993117, 0.000000000000000000, -12.00000000000000000 ) ) ;
#160 = EDGE_LOOP ( 'NONE', ( #603, #932, #478, #759 ) ) ;
#161 = DIRECTION ( 'NONE',  ( 0.000000000000000000, 1.000000000000000000, 0.000000000000000000 ) ) ;
#162 = AXIS2_PLACEMENT_3D ( 'NONE', #814, #567, #648 ) ;
#163 = DIRECTION ( 'NONE',  ( 1.000000000000000000, 0.000000000000000000, 0.000000000000000000 ) ) ;
#164 = EDGE_LOOP ( 'NONE', ( #1001, #340, #857, #944 ) ) ;
#165 = ORIENTED_EDGE ( 'NONE', *, *, #157, .F. ) ;
#166 = ORIENTED_EDGE ( 'NONE', *, *, #529, .T. ) ;
#167 = CARTESIAN_POINT ( 'NONE',  ( 21.00000000000000000, 0.000000000000000000, 0.000000000000000000 ) ) ;
#168 = ORIENTED_EDGE ( 'NONE', *, *, #747, .T. ) ;
#169 = LINE ( 'NONE', #880, #278 ) ;
#170 = VECTOR ( 'NONE', #581, 1000.000000000000000 ) ;
#171 = ADVANCED_FACE ( 'NONE', ( #6 ), #901, .F. ) ;
#172 = EDGE_LOOP ( 'NONE', ( #339, #425, #314, #905 ) ) ;
#173 = FACE_OUTER_BOUND ( 'NONE', #1117, .T. ) ;
#174 = ORIENTED_EDGE ( 'NONE', *, *, #1029, .T. ) ;
#175 = CARTESIAN_POINT ( 'NONE',  ( 15.83999999999999986, 0.000000000000000000, 0.000000000000000000 ) ) ;
#176 = EDGE_CURVE ( 'NONE', #69, #212, #13, .T. ) ;
#177 = PRESENTATION_LAYER_ASSIGNMENT (  '', '', ( #789 ) ) ;
#178 = ORIENTED_EDGE ( 'NONE', *, *, #1038, .T. ) ;
#179 = AXIS2_PLACEMENT_3D ( 'NONE', #530, #1069, #277 ) ;
#180 = DIRECTION ( 'NONE',  ( -1.000000000000000000, 0.000000000000000000, 0.000000000000000000 ) ) ;
#181 = LINE ( 'NONE', #971, #323 ) ;
#182 = CYLINDRICAL_SURFACE ( 'NONE', #179, 3.000000000000000000 ) ;
#183 = FILL_AREA_STYLE_COLOUR ( '', #346 ) ;
#184 = DIRECTION ( 'NONE',  ( 1.000000000000000000, 3.491481338843133750E-15, -0.000000000000000000 ) ) ;
#185 = AXIS2_PLACEMENT_3D ( 'NONE', #539, #249, #101 ) ;
#186 = CARTESIAN_POINT ( 'NONE',  ( -0.7500000000000629496, 20.00000000000000355, -12.00000000000000000 ) ) ;
#187 = DIRECTION ( 'NONE',  ( -0.000000000000000000, 1.000000000000000000, -0.000000000000000000 ) ) ;
#188 = ADVANCED_FACE ( 'NONE', ( #858 ), #325, .T. ) ;
#189 = AXIS2_PLACEMENT_3D ( 'NONE', #931, #244, #662 ) ;
#190 = DIRECTION ( 'NONE',  ( 0.000000000000000000, 1.000000000000000000, 0.000000000000000000 ) ) ;
#191 = VECTOR ( 'NONE', #969, 1000.000000000000000 ) ;
#192 = DIRECTION ( 'NONE',  ( 0.000000000000000000, 0.000000000000000000, 1.000000000000000000 ) ) ;
#193 = PLANE ( 'NONE',  #238 ) ;
#194 = CARTESIAN_POINT ( 'NONE',  ( 10.99999999999999467, -1.000000000000000000, -12.00000000000000711 ) ) ;
#195 = EDGE_CURVE ( 'NONE', #552, #738, #1058, .T. ) ;
#196 = CARTESIAN_POINT ( 'NONE',  ( -2.000000000000042188, 13.99999999999999289, 6.000000000000000000 ) ) ;
#197 = CARTESIAN_POINT ( 'NONE',  ( 21.00000000000000000, -1.000000000000000000, 0.000000000000000000 ) ) ;
#198 = ORIENTED_EDGE ( 'NONE', *, *, #638, .F. ) ;
#199 = PRODUCT_DEFINITION_FORMATION_WITH_SPECIFIED_SOURCE ( 'ANY', '', #267, .NOT_KNOWN. ) ;
#200 = CARTESIAN_POINT ( 'NONE',  ( -0.7500000000000629496, 20.00000000000000711, -12.00000000000000000 ) ) ;
#201 = LINE ( 'NONE', #979, #310 ) ;
#202 = ADVANCED_FACE ( 'NONE', ( #313 ), #486, .F. ) ;
#203 = PRODUCT_CONTEXT ( 'NONE', #617, 'mechanical' ) ;
#204 = CARTESIAN_POINT ( 'NONE',  ( 2.987397750308896631E-16, -1.000000000000000000, 12.00000000000000000 ) ) ;
#205 = AXIS2_PLACEMENT_3D ( 'NONE', #560, #891, #87 ) ;
#206 = VERTEX_POINT ( 'NONE', #142 ) ;
#207 = PLANE ( 'NONE',  #561 ) ;
#208 = ORIENTED_EDGE ( 'NONE', *, *, #521, .F. ) ;
#209 = ORIENTED_EDGE ( 'NONE', *, *, #804, .F. ) ;
#210 = LINE ( 'NONE', #1077, #1109 ) ;
#211 = FACE_BOUND ( 'NONE', #239, .T. ) ;
#212 = VERTEX_POINT ( 'NONE', #948 ) ;
#213 = DIRECTION ( 'NONE',  ( -3.469446951953617344E-15, 1.000000000000000000, 0.000000000000000000 ) ) ;
#214 = DIRECTION ( 'NONE',  ( 0.000000000000000000, 1.000000000000000000, 0.000000000000000000 ) ) ;
#215 = FACE_OUTER_BOUND ( 'NONE', #263, .T. ) ;
#216 = VECTOR ( 'NONE', #58, 1000.000000000000000 ) ;
#217 = CIRCLE ( 'NONE', #1122, 2.000000000000000000 ) ;
#218 = DIRECTION ( 'NONE',  ( 1.000000000000000000, 3.491481338843133750E-15, -0.000000000000000000 ) ) ;
#219 = CARTESIAN_POINT ( 'NONE',  ( -3.000000000000063061, 20.00000000000000000, -12.00000000000000000 ) ) ;
#220 = EDGE_LOOP ( 'NONE', ( #18, #608, #839, #510 ) ) ;
#221 = PLANE ( 'NONE',  #776 ) ;
#222 = ORIENTED_EDGE ( 'NONE', *, *, #85, .T. ) ;
#223 = LINE ( 'NONE', #489, #1152 ) ;
#224 = EDGE_CURVE ( 'NONE', #230, #438, #1032, .T. ) ;
#225 = CARTESIAN_POINT ( 'NONE',  ( 23.65563588131098172, -1.000000000000000000, 7.546363234425818689 ) ) ;
#226 = VERTEX_POINT ( 'NONE', #572 ) ;
#227 = DIRECTION ( 'NONE',  ( -1.000000000000000000, -3.469446951953614189E-15, 0.000000000000000000 ) ) ;
#228 = ORIENTED_EDGE ( 'NONE', *, *, #470, .T. ) ;
#229 = APPLICATION_PROTOCOL_DEFINITION ( 'draft international standard', 'automotive_design', 1998, #617 ) ;
#230 = VERTEX_POINT ( 'NONE', #679 ) ;
#231 = CARTESIAN_POINT ( 'NONE',  ( -3.000000000000063061, 20.00000000000000000, 12.00000000000000000 ) ) ;
#232 = VECTOR ( 'NONE', #628, 1000.000000000000000 ) ;
#233 = ORIENTED_EDGE ( 'NONE', *, *, #260, .F. ) ;
#234 = DIRECTION ( 'NONE',  ( 0.000000000000000000, 0.000000000000000000, -1.000000000000000000 ) ) ;
#235 = ORIENTED_EDGE ( 'NONE', *, *, #1000, .F. ) ;
#236 = CARTESIAN_POINT ( 'NONE',  ( -2.999999999999993339, -3.491481338843133355E-15, 12.00000000000000000 ) ) ;
#237 = EDGE_CURVE ( 'NONE', #1062, #526, #1121, .T. ) ;
#238 = AXIS2_PLACEMENT_3D ( 'NONE', #387, #741, #1096 ) ;
#239 = EDGE_LOOP ( 'NONE', ( #752, #293, #879, #42, #258, #970 ) ) ;
#240 = CARTESIAN_POINT ( 'NONE',  ( -2.000000000000020872, 7.999999999999989342, 4.000000000000001776 ) ) ;
#241 = CIRCLE ( 'NONE', #518, 2.379999999999999893 ) ;
#242 = EDGE_CURVE ( 'NONE', #526, #230, #751, .T. ) ;
#243 = ORIENTED_EDGE ( 'NONE', *, *, #562, .T. ) ;
#244 = DIRECTION ( 'NONE',  ( -6.308085367188393199E-16, 0.000000000000000000, -1.000000000000000000 ) ) ;
#245 = EDGE_CURVE ( 'NONE', #514, #1060, #1076, .T. ) ;
#246 =( NAMED_UNIT ( * ) PLANE_ANGLE_UNIT ( ) SI_UNIT ( $, .RADIAN. ) );
#247 = VECTOR ( 'NONE', #1018, 1000.000000000000000 ) ;
#248 = AXIS2_PLACEMENT_3D ( 'NONE', #645, #820, #652 ) ;
#249 = DIRECTION ( 'NONE',  ( 1.000000000000000000, 3.491481338843133750E-15, 0.000000000000000000 ) ) ;
#250 = CIRCLE ( 'NONE', #145, 3.550000000000001155 ) ;
#251 = EDGE_CURVE ( 'NONE', #738, #670, #134, .T. ) ;
#252 = LINE ( 'NONE', #439, #495 ) ;
#253 = DIRECTION ( 'NONE',  ( 3.491481338843133750E-15, -1.000000000000000000, 0.000000000000000000 ) ) ;
#254 = ORIENTED_EDGE ( 'NONE', *, *, #1038, .F. ) ;
#255 = EDGE_LOOP ( 'NONE', ( #1035, #81, #1138, #233, #766, #376 ) ) ;
#256 = ORIENTED_EDGE ( 'NONE', *, *, #860, .T. ) ;
#257 = CARTESIAN_POINT ( 'NONE',  ( -0.7500000000000529576, 17.12500000000000355, 12.00000000000000000 ) ) ;
#258 = ORIENTED_EDGE ( 'NONE', *, *, #130, .F. ) ;
#259 = DIRECTION ( 'NONE',  ( 1.000000000000000000, 3.491481338843133355E-15, -0.000000000000000000 ) ) ;
#260 = EDGE_CURVE ( 'NONE', #1060, #508, #49, .T. ) ;
#261 = ORIENTED_EDGE ( 'NONE', *, *, #60, .F. ) ;
#262 = LINE ( 'NONE', #1067, #687 ) ;
#263 = EDGE_LOOP ( 'NONE', ( #312, #882, #646, #1083 ) ) ;
#264 = CARTESIAN_POINT ( 'NONE',  ( -3.000000000000000000, 1.999999999999989564, -12.00000000000000000 ) ) ;
#265 = EDGE_CURVE ( 'NONE', #438, #1062, #404, .T. ) ;
#266 = AXIS2_PLACEMENT_3D ( 'NONE', #928, #45, #675 ) ;
#267 = PRODUCT ( 'Bracket', 'Bracket', '', ( #203 ) ) ;
#268 = ORIENTED_EDGE ( 'NONE', *, *, #309, .T. ) ;
#269 = CARTESIAN_POINT ( 'NONE',  ( 23.65563588131098172, -1.000000000000000000, 7.546363234425818689 ) ) ;
#270 = CARTESIAN_POINT ( 'NONE',  ( -1.875000000000062839, 20.00000000000000355, 12.00000000000000000 ) ) ;
#271 = DIRECTION ( 'NONE',  ( -3.491481338843133750E-15, 1.000000000000000000, 0.000000000000000000 ) ) ;
#272 = EDGE_CURVE ( 'NONE', #605, #414, #938, .T. ) ;
#273 = CARTESIAN_POINT ( 'NONE',  ( -3.000000000000048850, 15.99999999999998934, 4.000000000000000000 ) ) ;
#274 = LINE ( 'NONE', #731, #1149 ) ;
#275 = PLANE ( 'NONE',  #989 ) ;
#276 = CARTESIAN_POINT ( 'NONE',  ( -3.000000000000020872, 7.999999999999986677, -4.000000000000000888 ) ) ;
#277 = DIRECTION ( 'NONE',  ( -1.000000000000000000, -3.469446951953614189E-15, 0.000000000000000000 ) ) ;
#278 = VECTOR ( 'NONE', #700, 1000.000000000000000 ) ;
#279 = DIRECTION ( 'NONE',  ( 0.000000000000000000, 0.000000000000000000, 1.000000000000000000 ) ) ;
#280 = ADVANCED_FACE ( 'NONE', ( #148 ), #320, .F. ) ;
#281 = CARTESIAN_POINT ( 'NONE',  ( -0.7500000000000629496, 20.00000000000000711, 0.000000000000000000 ) ) ;
#282 = VECTOR ( 'NONE', #546, 1000.000000000000227 ) ;
#283 = DIRECTION ( 'NONE',  ( 3.491481338843133355E-15, -1.000000000000000000, -2.168404344971007882E-16 ) ) ;
#284 = DIRECTION ( 'NONE',  ( 0.000000000000000000, 1.000000000000000000, -1.445602896647337931E-16 ) ) ;
#285 = ORIENTED_EDGE ( 'NONE', *, *, #408, .F. ) ;
#286 = VECTOR ( 'NONE', #1142, 1000.000000000000000 ) ;
#287 = LINE ( 'NONE', #554, #851 ) ;
#288 = LINE ( 'NONE', #723, #655 ) ;
#289 = FILL_AREA_STYLE_COLOUR ( '', #345 ) ;
#290 = FACE_OUTER_BOUND ( 'NONE', #1024, .T. ) ;
#291 = ORIENTED_EDGE ( 'NONE', *, *, #245, .T. ) ;
#292 = DIRECTION ( 'NONE',  ( -0.000000000000000000, -0.000000000000000000, 1.000000000000000000 ) ) ;
#293 = ORIENTED_EDGE ( 'NONE', *, *, #1124, .F. ) ;
#294 = EDGE_LOOP ( 'NONE', ( #326, #285, #40, #586 ) ) ;
#295 =( GEOMETRIC_REPRESENTATION_CONTEXT ( 3 ) GLOBAL_UNCERTAINTY_ASSIGNED_CONTEXT ( ( #864 ) ) GLOBAL_UNIT_ASSIGNED_CONTEXT ( ( #1023, #566, #464 ) ) REPRESENTATION_CONTEXT ( 'NONE', 'WORKASPACE' ) );
#296 = PLANE ( 'NONE',  #844 ) ;
#297 = CYLINDRICAL_SURFACE ( 'NONE', #624, 8.000000000000000000 ) ;
#298 = VERTEX_POINT ( 'NONE', #1027 ) ;
#299 = CYLINDRICAL_SURFACE ( 'NONE', #1014, 2.379999999999999893 ) ;
#300 = ORIENTED_EDGE ( 'NONE', *, *, #11, .T. ) ;
#301 = DIRECTION ( 'NONE',  ( 1.000000000000000000, 3.491481338843133750E-15, -0.000000000000000000 ) ) ;
#302 = EDGE_CURVE ( 'NONE', #1094, #112, #1010, .T. ) ;
#303 = CARTESIAN_POINT ( 'NONE',  ( 21.00000000000000000, -1.000000000000000000, -3.550000000000001155 ) ) ;
#304 = DIRECTION ( 'NONE',  ( 0.000000000000000000, 1.000000000000000000, 0.000000000000000000 ) ) ;
#305 = ORIENTED_EDGE ( 'NONE', *, *, #1139, .F. ) ;
#306 = DIRECTION ( 'NONE',  ( 1.000000000000000000, 0.000000000000000000, 0.000000000000000000 ) ) ;
#307 = LINE ( 'NONE', #316, #155 ) ;
#308 = DIRECTION ( 'NONE',  ( 1.000000000000000000, 0.000000000000000000, 0.000000000000000000 ) ) ;
#309 = EDGE_CURVE ( 'NONE', #947, #706, #1073, .T. ) ;
#310 = VECTOR ( 'NONE', #894, 1000.000000000000000 ) ;
#311 = DIRECTION ( 'NONE',  ( 3.469446951953617344E-15, -1.000000000000000000, 0.000000000000000000 ) ) ;
#312 = ORIENTED_EDGE ( 'NONE', *, *, #195, .T. ) ;
#313 = FACE_OUTER_BOUND ( 'NONE', #160, .T. ) ;
#314 = ORIENTED_EDGE ( 'NONE', *, *, #402, .T. ) ;
#315 = VECTOR ( 'NONE', #962, 1000.000000000000000 ) ;
#316 = CARTESIAN_POINT ( 'NONE',  ( -3.000000000000042188, 13.99999999999999112, -6.000000000000000888 ) ) ;
#317 = LINE ( 'NONE', #412, #170 ) ;
#318 = ORIENTED_EDGE ( 'NONE', *, *, #319, .T. ) ;
#319 = EDGE_CURVE ( 'NONE', #519, #375, #344, .T. ) ;
#320 = PLANE ( 'NONE',  #862 ) ;
#321 = ORIENTED_EDGE ( 'NONE', *, *, #1087, .T. ) ;
#322 = CARTESIAN_POINT ( 'NONE',  ( 10.99999999999999467, 0.000000000000000000, -12.00000000000000711 ) ) ;
#323 = VECTOR ( 'NONE', #80, 1000.000000000000000 ) ;
#324 = ORIENTED_EDGE ( 'NONE', *, *, #19, .F. ) ;
#325 = PLANE ( 'NONE',  #189 ) ;
#326 = ORIENTED_EDGE ( 'NONE', *, *, #251, .T. ) ;
#327 = EDGE_CURVE ( 'NONE', #1106, #827, #241, .T. ) ;
#328 = CARTESIAN_POINT ( 'NONE',  ( -1.875000000000062839, 20.00000000000000355, 12.00000000000000000 ) ) ;
#329 = AXIS2_PLACEMENT_3D ( 'NONE', #105, #452, #713 ) ;
#330 = ADVANCED_FACE ( 'NONE', ( #694 ), #955, .T. ) ;
#331 = EDGE_LOOP ( 'NONE', ( #305, #228, #355, #1026 ) ) ;
#332 = DIRECTION ( 'NONE',  ( 3.469446951953614189E-15, -1.000000000000000000, 0.000000000000000000 ) ) ;
#333 = VECTOR ( 'NONE', #187, 1000.000000000000000 ) ;
#334 = ADVANCED_FACE ( 'NONE', ( #1063 ), #712, .F. ) ;
#335 = DIRECTION ( 'NONE',  ( 1.000000000000000000, 0.000000000000000000, 0.000000000000000000 ) ) ;
#336 = EDGE_CURVE ( 'NONE', #473, #738, #351, .T. ) ;
#337 = CARTESIAN_POINT ( 'NONE',  ( -2.000000000000042188, 13.99999999999999467, -6.000000000000000888 ) ) ;
#338 = AXIS2_PLACEMENT_3D ( 'NONE', #269, #613, #535 ) ;
#339 = ORIENTED_EDGE ( 'NONE', *, *, #319, .F. ) ;
#340 = ORIENTED_EDGE ( 'NONE', *, *, #680, .F. ) ;
#341 = DIRECTION ( 'NONE',  ( 0.000000000000000000, 0.000000000000000000, 1.000000000000000000 ) ) ;
#342 = EDGE_LOOP ( 'NONE', ( #524, #32, #291, #653 ) ) ;
#343 = EDGE_CURVE ( 'NONE', #298, #69, #1068, .T. ) ;
#344 = LINE ( 'NONE', #2, #1034 ) ;
#345 = COLOUR_RGB ( '',0.2000000000000000111, 0.4000000000000000222, 0.6980392156862744724 ) ;
#346 = COLOUR_RGB ( '',0.2000000000000000111, 0.4000000000000000222, 0.6980392156862744724 ) ;
#347 = ADVANCED_FACE ( 'NONE', ( #1051 ), #975, .F. ) ;
#348 = EDGE_LOOP ( 'NONE', ( #791, #44, #960, #15 ) ) ;
#349 = LINE ( 'NONE', #889, #52 ) ;
#350 = ORIENTED_EDGE ( 'NONE', *, *, #224, .F. ) ;
#351 = LINE ( 'NONE', #802, #967 ) ;
#352 = ADVANCED_FACE ( 'NONE', ( #427 ), #528, .F. ) ;
#353 = ORIENTED_EDGE ( 'NONE', *, *, #585, .T. ) ;
#354 = FACE_OUTER_BOUND ( 'NONE', #1016, .T. ) ;
#355 = ORIENTED_EDGE ( 'NONE', *, *, #130, .T. ) ;
#356 = FACE_OUTER_BOUND ( 'NONE', #1133, .T. ) ;
#357 = VECTOR ( 'NONE', #834, 1000.000000000000000 ) ;
#358 = DIRECTION ( 'NONE',  ( 0.000000000000000000, 0.000000000000000000, 1.000000000000000000 ) ) ;
#359 = DIRECTION ( 'NONE',  ( -3.469446951953614189E-15, 1.000000000000000000, 0.000000000000000000 ) ) ;
#360 = DIRECTION ( 'NONE',  ( -0.000000000000000000, 0.000000000000000000, -1.000000000000000000 ) ) ;
#361 = DIRECTION ( 'NONE',  ( 0.000000000000000000, 1.000000000000000000, 0.000000000000000000 ) ) ;
#362 = FACE_OUTER_BOUND ( 'NONE', #1022, .T. ) ;
#363 = CARTESIAN_POINT ( 'NONE',  ( 0.000000000000000000, 0.000000000000000000, -12.00000000000000000 ) ) ;
#364 = DIRECTION ( 'NONE',  ( 0.000000000000000000, 1.000000000000000000, 0.000000000000000000 ) ) ;
#365 = ADVANCED_BREP_SHAPE_REPRESENTATION ( 'Bracket', ( #787, #681 ), #295 ) ;
#366 = DIRECTION ( 'NONE',  ( -5.047295537021761282E-31, 1.445602896647338424E-16, 1.000000000000000000 ) ) ;
#367 = CARTESIAN_POINT ( 'NONE',  ( -0.7500000000000529576, 17.12500000000000355, -12.00000000000000000 ) ) ;
#368 = VECTOR ( 'NONE', #908, 1000.000000000000000 ) ;
#369 = CARTESIAN_POINT ( 'NONE',  ( 17.74770348837209255, -1.000000000000000000, 1.423048628983896391 ) ) ;
#370 = CARTESIAN_POINT ( 'NONE',  ( 23.65563588131098172, 0.000000000000000000, 7.546363234425818689 ) ) ;
#371 = CYLINDRICAL_SURFACE ( 'NONE', #162, 2.379999999999999893 ) ;
#372 = EDGE_LOOP ( 'NONE', ( #968, #780, #930, #166 ) ) ;
#373 = DIRECTION ( 'NONE',  ( 1.000000000000000000, 0.000000000000000000, 0.000000000000000000 ) ) ;
#374 = AXIS2_PLACEMENT_3D ( 'NONE', #197, #190, #1092 ) ;
#375 = VERTEX_POINT ( 'NONE', #264 ) ;
#376 = ORIENTED_EDGE ( 'NONE', *, *, #921, .F. ) ;
#377 = CARTESIAN_POINT ( 'NONE',  ( -2.000000000000000000, 1.999999999999993117, -12.00000000000000000 ) ) ;
#378 = DIRECTION ( 'NONE',  ( 0.000000000000000000, 0.000000000000000000, 1.000000000000000000 ) ) ;
#379 = ORIENTED_EDGE ( 'NONE', *, *, #176, .T. ) ;
#380 = CARTESIAN_POINT ( 'NONE',  ( -3.000000000000048850, 15.99999999999998934, -4.000000000000000888 ) ) ;
#381 = DIRECTION ( 'NONE',  ( 1.000000000000000000, 3.491481338843133355E-15, -0.000000000000000000 ) ) ;
#382 = EDGE_CURVE ( 'NONE', #473, #1094, #181, .T. ) ;
#383 = ORIENTED_EDGE ( 'NONE', *, *, #491, .F. ) ;
#384 = CARTESIAN_POINT ( 'NONE',  ( -2.000000000000020872, 7.999999999999986677, -6.000000000000000000 ) ) ;
#385 = ORIENTED_EDGE ( 'NONE', *, *, #804, .T. ) ;
#386 = DIRECTION ( 'NONE',  ( 1.000000000000000000, 3.491481338843133355E-15, -0.000000000000000000 ) ) ;
#387 = CARTESIAN_POINT ( 'NONE',  ( 21.00000000000000000, 0.000000000000000000, 4.336808689942017736E-16 ) ) ;
#388 = ADVANCED_FACE ( 'NONE', ( #871 ), #597, .T. ) ;
#389 = ORIENTED_EDGE ( 'NONE', *, *, #701, .F. ) ;
#390 = LINE ( 'NONE', #637, #959 ) ;
#391 = AXIS2_PLACEMENT_3D ( 'NONE', #736, #301, #271 ) ;
#392 = ORIENTED_EDGE ( 'NONE', *, *, #302, .F. ) ;
#393 = FACE_OUTER_BOUND ( 'NONE', #732, .T. ) ;
#394 = DIRECTION ( 'NONE',  ( 1.000000000000000000, 3.491481338843133750E-15, -0.000000000000000000 ) ) ;
#395 = ORIENTED_EDGE ( 'NONE', *, *, #157, .T. ) ;
#396 = FACE_OUTER_BOUND ( 'NONE', #516, .T. ) ;
#397 = ORIENTED_EDGE ( 'NONE', *, *, #1041, .T. ) ;
#398 = CIRCLE ( 'NONE', #531, 1.125000000000000000 ) ;
#399 = ORIENTED_EDGE ( 'NONE', *, *, #1110, .T. ) ;
#400 = CARTESIAN_POINT ( 'NONE',  ( -2.000000000000020872, 7.999999999999989342, 6.000000000000000888 ) ) ;
#401 = VECTOR ( 'NONE', #990, 1000.000000000000000 ) ;
#402 = EDGE_CURVE ( 'NONE', #612, #119, #885, .T. ) ;
#403 = VERTEX_POINT ( 'NONE', #606 ) ;
#404 = LINE ( 'NONE', #945, #557 ) ;
#405 = ORIENTED_EDGE ( 'NONE', *, *, #491, .T. ) ;
#406 = AXIS2_PLACEMENT_3D ( 'NONE', #509, #72, #698 ) ;
#407 = CARTESIAN_POINT ( 'NONE',  ( 15.83999999999999986, -1.000000000000000000, 0.000000000000000000 ) ) ;
#408 = EDGE_CURVE ( 'NONE', #1094, #670, #169, .T. ) ;
#409 = VERTEX_POINT ( 'NONE', #896 ) ;
#410 = CARTESIAN_POINT ( 'NONE',  ( -1.750000000000062839, 20.00000000000000355, 0.000000000000000000 ) ) ;
#411 = ORIENTED_EDGE ( 'NONE', *, *, #431, .F. ) ;
#412 = CARTESIAN_POINT ( 'NONE',  ( 23.65563588131098172, -1.000000000000000000, 7.546363234425816024 ) ) ;
#413 = ADVANCED_FACE ( 'NONE', ( #441 ), #1057, .F. ) ;
#414 = VERTEX_POINT ( 'NONE', #1148 ) ;
#415 = DIRECTION ( 'NONE',  ( -3.491481338843133750E-15, 1.000000000000000000, 0.000000000000000000 ) ) ;
#416 = VECTOR ( 'NONE', #584, 999.9999999999998863 ) ;
#417 = PRODUCT_DEFINITION ( 'UNKNOWN', '', #199, #1045 ) ;
#418 = PRESENTATION_STYLE_ASSIGNMENT (( #594 ) ) ;
#419 = DIRECTION ( 'NONE',  ( 0.000000000000000000, 1.000000000000000000, 0.000000000000000000 ) ) ;
#420 = CARTESIAN_POINT ( 'NONE',  ( 0.000000000000000000, -1.000000000000000000, -12.00000000000000000 ) ) ;
#421 = CIRCLE ( 'NONE', #185, 1.999999999999998224 ) ;
#422 = ORIENTED_EDGE ( 'NONE', *, *, #272, .F. ) ;
#423 = ADVANCED_FACE ( 'NONE', ( #356 ), #450, .F. ) ;
#424 = DIRECTION ( 'NONE',  ( 3.469446951953614189E-15, -1.000000000000000000, 0.000000000000000000 ) ) ;
#425 = ORIENTED_EDGE ( 'NONE', *, *, #551, .T. ) ;
#426 = UNCERTAINTY_MEASURE_WITH_UNIT (LENGTH_MEASURE( 1.000000000000000082E-05 ), #985, 'distance_accuracy_value', 'NONE');
#427 = FACE_OUTER_BOUND ( 'NONE', #1007, .T. ) ;
#428 = CARTESIAN_POINT ( 'NONE',  ( -3.000000000000042188, 13.99999999999998934, 4.000000000000000000 ) ) ;
#429 = ORIENTED_EDGE ( 'NONE', *, *, #29, .T. ) ;
#430 = ADVANCED_FACE ( 'NONE', ( #1079 ), #371, .F. ) ;
#431 = EDGE_CURVE ( 'NONE', #508, #522, #390, .T. ) ;
#432 = ORIENTED_EDGE ( 'NONE', *, *, #88, .F. ) ;
#433 = DIRECTION ( 'NONE',  ( -0.000000000000000000, 1.000000000000000000, -0.000000000000000000 ) ) ;
#434 = ORIENTED_EDGE ( 'NONE', *, *, #794, .T. ) ;
#435 = DIRECTION ( 'NONE',  ( 0.000000000000000000, 0.000000000000000000, 1.000000000000000000 ) ) ;
#436 = EDGE_CURVE ( 'NONE', #742, #438, #107, .T. ) ;
#437 = AXIS2_PLACEMENT_3D ( 'NONE', #9, #719, #640 ) ;
#438 = VERTEX_POINT ( 'NONE', #127 ) ;
#439 = CARTESIAN_POINT ( 'NONE',  ( 15.83999999999999986, -1.000000000000000000, -2.379999999999999893 ) ) ;
#440 = VERTEX_POINT ( 'NONE', #204 ) ;
#441 = FACE_OUTER_BOUND ( 'NONE', #870, .T. ) ;
#442 = DIRECTION ( 'NONE',  ( 5.047295537021759530E-31, -1.445602896647337931E-16, -1.000000000000000000 ) ) ;
#443 = DIRECTION ( 'NONE',  ( 0.000000000000000000, 0.000000000000000000, 1.000000000000000000 ) ) ;
#444 = DIRECTION ( 'NONE',  ( 1.000000000000000000, 3.083952846180990478E-15, 0.000000000000000000 ) ) ;
#445 = CARTESIAN_POINT ( 'NONE',  ( 21.00000000000000000, 0.000000000000000000, -3.550000000000001155 ) ) ;
#446 = AXIS2_PLACEMENT_3D ( 'NONE', #167, #517, #711 ) ;
#447 = CARTESIAN_POINT ( 'NONE',  ( 15.83999999999999986, 0.000000000000000000, 2.379999999999999893 ) ) ;
#448 = DIRECTION ( 'NONE',  ( 0.000000000000000000, 0.000000000000000000, 1.000000000000000000 ) ) ;
#449 = CARTESIAN_POINT ( 'NONE',  ( -0.7500000000000629496, 20.00000000000000711, 12.00000000000000000 ) ) ;
#450 = CYLINDRICAL_SURFACE ( 'NONE', #576, 0.1249999999999998890 ) ;
#451 = EDGE_CURVE ( 'NONE', #1052, #1147, #66, .T. ) ;
#452 = DIRECTION ( 'NONE',  ( -3.491481338843133355E-15, 1.000000000000000000, 0.000000000000000000 ) ) ;
#453 = LINE ( 'NONE', #363, #1127 ) ;
#454 = CARTESIAN_POINT ( 'NONE',  ( 15.83999999999999986, 0.000000000000000000, 0.000000000000000000 ) ) ;
#455 = LINE ( 'NONE', #34, #368 ) ;
#456 = EDGE_LOOP ( 'NONE', ( #1002, #874, #104, #727 ) ) ;
#457 = FACE_OUTER_BOUND ( 'NONE', #348, .T. ) ;
#458 = VECTOR ( 'NONE', #621, 1000.000000000000000 ) ;
#459 = ORIENTED_EDGE ( 'NONE', *, *, #850, .T. ) ;
#460 = ORIENTED_EDGE ( 'NONE', *, *, #1110, .F. ) ;
#461 = ADVANCED_FACE ( 'NONE', ( #841 ), #832, .F. ) ;
#462 = FACE_OUTER_BOUND ( 'NONE', #818, .T. ) ;
#463 = CARTESIAN_POINT ( 'NONE',  ( -2.999999999999993339, -3.491481338843133355E-15, 0.000000000000000000 ) ) ;
#464 =( NAMED_UNIT ( * ) SI_UNIT ( $, .STERADIAN. ) SOLID_ANGLE_UNIT ( ) );
#465 = DIRECTION ( 'NONE',  ( 1.000000000000000000, 3.491481338843133355E-15, 0.000000000000000000 ) ) ;
#466 = CARTESIAN_POINT ( 'NONE',  ( 15.83999999999999986, 0.000000000000000000, 0.000000000000000000 ) ) ;
#467 = CARTESIAN_POINT ( 'NONE',  ( -3.000000000000042188, 13.99999999999999112, -6.000000000000000888 ) ) ;
#468 = AXIS2_PLACEMENT_3D ( 'NONE', #407, #1114, #671 ) ;
#469 = ORIENTED_EDGE ( 'NONE', *, *, #302, .T. ) ;
#470 = EDGE_CURVE ( 'NONE', #661, #827, #548, .T. ) ;
#471 = PLANE ( 'NONE',  #590 ) ;
#472 = DIRECTION ( 'NONE',  ( 0.000000000000000000, 0.000000000000000000, 1.000000000000000000 ) ) ;
#473 = VERTEX_POINT ( 'NONE', #111 ) ;
#474 = CARTESIAN_POINT ( 'NONE',  ( 23.65563588131098172, -1.000000000000000000, 7.546363234425816024 ) ) ;
#475 = ORIENTED_EDGE ( 'NONE', *, *, #1020, .F. ) ;
#476 = DIRECTION ( 'NONE',  ( 1.000000000000000000, 3.491481338843133355E-15, 0.000000000000000000 ) ) ;
#477 = CARTESIAN_POINT ( 'NONE',  ( 17.74770348837209255, -1.000000000000000000, 1.423048628983896391 ) ) ;
#478 = ORIENTED_EDGE ( 'NONE', *, *, #484, .T. ) ;
#479 = CARTESIAN_POINT ( 'NONE',  ( 21.00000000000000000, -1.000000000000000000, 0.000000000000000000 ) ) ;
#480 = ORIENTED_EDGE ( 'NONE', *, *, #1123, .F. ) ;
#481 = CARTESIAN_POINT ( 'NONE',  ( -3.000000000000042188, 13.99999999999999112, -4.000000000000000888 ) ) ;
#482 = DIRECTION ( 'NONE',  ( -1.000000000000000000, -3.491481338843133355E-15, -0.000000000000000000 ) ) ;
#483 = CARTESIAN_POINT ( 'NONE',  ( -3.000000000000063061, 20.00000000000000000, 12.00000000000000000 ) ) ;
#484 = EDGE_CURVE ( 'NONE', #924, #605, #455, .T. ) ;
#485 = ORIENTED_EDGE ( 'NONE', *, *, #146, .T. ) ;
#486 = CYLINDRICAL_SURFACE ( 'NONE', #140, 2.000000000000000000 ) ;
#487 = ORIENTED_EDGE ( 'NONE', *, *, #722, .T. ) ;
#488 = AXIS2_PLACEMENT_3D ( 'NONE', #900, #683, #192 ) ;
#489 = CARTESIAN_POINT ( 'NONE',  ( -3.000000000000048850, 15.99999999999998934, 4.000000000000000000 ) ) ;
#490 = VECTOR ( 'NONE', #482, 1000.000000000000000 ) ;
#491 = EDGE_CURVE ( 'NONE', #414, #742, #25, .T. ) ;
#492 = ORIENTED_EDGE ( 'NONE', *, *, #887, .F. ) ;
#493 = CARTESIAN_POINT ( 'NONE',  ( -1.750000000000057954, 18.56250000000000355, 12.00000000000000000 ) ) ;
#494 = ORIENTED_EDGE ( 'NONE', *, *, #701, .T. ) ;
#495 = VECTOR ( 'NONE', #433, 1000.000000000000000 ) ;
#496 = DIRECTION ( 'NONE',  ( 1.000000000000000000, 3.491481338843133355E-15, -0.000000000000000000 ) ) ;
#497 = EDGE_LOOP ( 'NONE', ( #494, #79, #678, #663 ) ) ;
#498 = CARTESIAN_POINT ( 'NONE',  ( -0.7500000000000529576, 17.12500000000000355, 0.000000000000000000 ) ) ;
#499 = AXIS2_PLACEMENT_3D ( 'NONE', #1064, #27, #99 ) ;
#500 = ORIENTED_EDGE ( 'NONE', *, *, #382, .T. ) ;
#501 = DIRECTION ( 'NONE',  ( 0.000000000000000000, 1.000000000000000000, -0.000000000000000000 ) ) ;
#502 = ADVANCED_FACE ( 'NONE', ( #14 ), #221, .T. ) ;
#503 = AXIS2_PLACEMENT_3D ( 'NONE', #466, #214, #559 ) ;
#504 = VECTOR ( 'NONE', #666, 1000.000000000000000 ) ;
#505 = DIRECTION ( 'NONE',  ( -0.000000000000000000, -0.000000000000000000, 1.000000000000000000 ) ) ;
#506 = CARTESIAN_POINT ( 'NONE',  ( -0.7500000000000529576, 17.12500000000000355, -12.00000000000000000 ) ) ;
#507 = ADVANCED_FACE ( 'NONE', ( #290 ), #995, .F. ) ;
#508 = VERTEX_POINT ( 'NONE', #1090 ) ;
#509 = CARTESIAN_POINT ( 'NONE',  ( 21.00000000000000000, -1.000000000000000000, 4.336808689942017736E-16 ) ) ;
#510 = ORIENTED_EDGE ( 'NONE', *, *, #431, .T. ) ;
#511 = DIRECTION ( 'NONE',  ( -1.000000000000000000, 0.000000000000000000, 0.000000000000000000 ) ) ;
#512 =( NAMED_UNIT ( * ) SI_UNIT ( $, .STERADIAN. ) SOLID_ANGLE_UNIT ( ) );
#513 = ADVANCED_FACE ( 'NONE', ( #1015 ), #299, .F. ) ;
#514 = VERTEX_POINT ( 'NONE', #474 ) ;
#515 = AXIS2_PLACEMENT_3D ( 'NONE', #853, #501, #234 ) ;
#516 = EDGE_LOOP ( 'NONE', ( #673, #565, #492, #697 ) ) ;
#517 = DIRECTION ( 'NONE',  ( 0.000000000000000000, 1.000000000000000000, 0.000000000000000000 ) ) ;
#518 = AXIS2_PLACEMENT_3D ( 'NONE', #175, #361, #708 ) ;
#519 = VERTEX_POINT ( 'NONE', #926 ) ;
#520 = CARTESIAN_POINT ( 'NONE',  ( 11.00000000000000000, -1.000000000000000000, 12.00000000000000000 ) ) ;
#521 = EDGE_CURVE ( 'NONE', #1143, #549, #773, .T. ) ;
#522 = VERTEX_POINT ( 'NONE', #322 ) ;
#523 = CARTESIAN_POINT ( 'NONE',  ( -3.000000000000013767, 5.999999999999987566, -4.000000000000000888 ) ) ;
#524 = ORIENTED_EDGE ( 'NONE', *, *, #1009, .F. ) ;
#525 = CARTESIAN_POINT ( 'NONE',  ( -1.875000000000062839, 20.00000000000000355, -12.00000000000000000 ) ) ;
#526 = VERTEX_POINT ( 'NONE', #137 ) ;
#527 = CARTESIAN_POINT ( 'NONE',  ( -1.750000000000052847, 17.12500000000000000, -12.00000000000000000 ) ) ;
#528 = CYLINDRICAL_SURFACE ( 'NONE', #10, 3.550000000000001155 ) ;
#529 = EDGE_CURVE ( 'NONE', #852, #409, #1119, .T. ) ;
#530 = CARTESIAN_POINT ( 'NONE',  ( 0.000000000000000000, 2.000000000000000000, 12.00000000000000000 ) ) ;
#531 = AXIS2_PLACEMENT_3D ( 'NONE', #906, #23, #39 ) ;
#532 = CIRCLE ( 'NONE', #800, 2.379999999999999893 ) ;
#533 = CARTESIAN_POINT ( 'NONE',  ( -0.7500000000000529576, 17.12500000000000355, 12.00000000000000000 ) ) ;
#534 = LINE ( 'NONE', #907, #720 ) ;
#535 = DIRECTION ( 'NONE',  ( 0.9432954043032270031, 0.000000000000000000, -0.3319544851638721594 ) ) ;
#536 = DIRECTION ( 'NONE',  ( 1.000000000000000000, 3.491481338843133355E-15, -0.000000000000000000 ) ) ;
#537 = CYLINDRICAL_SURFACE ( 'NONE', #205, 2.000000000000000000 ) ;
#538 = AXIS2_PLACEMENT_3D ( 'NONE', #777, #341, #1055 ) ;
#539 = CARTESIAN_POINT ( 'NONE',  ( -2.000000000000042188, 13.99999999999999467, -4.000000000000000888 ) ) ;
#540 = CARTESIAN_POINT ( 'NONE',  ( 21.00000000000000000, -1.000000000000000000, 0.000000000000000000 ) ) ;
#541 = DIRECTION ( 'NONE',  ( 0.000000000000000000, 1.000000000000000000, 0.000000000000000000 ) ) ;
#542 = VERTEX_POINT ( 'NONE', #1030 ) ;
#543 = CARTESIAN_POINT ( 'NONE',  ( 21.00000000000000000, -1.000000000000000000, 3.550000000000001155 ) ) ;
#544 = EDGE_CURVE ( 'NONE', #1060, #403, #1101, .T. ) ;
#545 = ORIENTED_EDGE ( 'NONE', *, *, #1050, .T. ) ;
#546 = DIRECTION ( 'NONE',  ( 0.9432954043032270031, -0.000000000000000000, -0.3319544851638721594 ) ) ;
#547 = DIRECTION ( 'NONE',  ( -0.9432954043032270031, -0.000000000000000000, -0.3319544851638727145 ) ) ;
#548 = LINE ( 'NONE', #744, #232 ) ;
#549 = VERTEX_POINT ( 'NONE', #762 ) ;
#550 = CARTESIAN_POINT ( 'NONE',  ( 10.99999999999999467, 0.000000000000000000, -12.00000000000000711 ) ) ;
#551 = EDGE_CURVE ( 'NONE', #519, #612, #855, .T. ) ;
#552 = VERTEX_POINT ( 'NONE', #400 ) ;
#553 = ORIENTED_EDGE ( 'NONE', *, *, #154, .F. ) ;
#554 = CARTESIAN_POINT ( 'NONE',  ( -3.000000000000020872, 7.999999999999986677, -6.000000000000000000 ) ) ;
#555 = DIRECTION ( 'NONE',  ( 0.000000000000000000, 0.000000000000000000, 1.000000000000000000 ) ) ;
#556 = EDGE_LOOP ( 'NONE', ( #222, #379, #668, #1145, #168, #783 ) ) ;
#557 = VECTOR ( 'NONE', #54, 1000.000000000000000 ) ;
#558 = DIRECTION ( 'NONE',  ( -0.9432954043032270031, 0.000000000000000000, -0.3319544851638727145 ) ) ;
#559 = DIRECTION ( 'NONE',  ( 0.000000000000000000, 0.000000000000000000, 1.000000000000000000 ) ) ;
#560 = CARTESIAN_POINT ( 'NONE',  ( -3.000000000000020872, 7.999999999999986677, 4.000000000000001776 ) ) ;
#561 = AXIS2_PLACEMENT_3D ( 'NONE', #467, #442, #284 ) ;
#562 = EDGE_CURVE ( 'NONE', #514, #212, #317, .T. ) ;
#563 = CARTESIAN_POINT ( 'NONE',  ( 21.00000000000000000, 0.000000000000000000, 4.336808689942017736E-16 ) ) ;
#564 = CARTESIAN_POINT ( 'NONE',  ( -3.000000000000042188, 13.99999999999998934, 6.000000000000000000 ) ) ;
#565 = ORIENTED_EDGE ( 'NONE', *, *, #589, .F. ) ;
#566 =( NAMED_UNIT ( * ) PLANE_ANGLE_UNIT ( ) SI_UNIT ( $, .RADIAN. ) );
#567 = DIRECTION ( 'NONE',  ( -0.000000000000000000, 1.000000000000000000, -0.000000000000000000 ) ) ;
#568 = ORIENTED_EDGE ( 'NONE', *, *, #840, .F. ) ;
#569 = CARTESIAN_POINT ( 'NONE',  ( -2.000000000000000000, 1.999999999999993117, 12.00000000000000000 ) ) ;
#570 = CARTESIAN_POINT ( 'NONE',  ( -1.999999999999993117, 4.303583014878226039E-44, 0.000000000000000000 ) ) ;
#571 = ORIENTED_EDGE ( 'NONE', *, *, #860, .F. ) ;
#572 = CARTESIAN_POINT ( 'NONE',  ( -2.000000000000042188, 13.99999999999999467, -6.000000000000000888 ) ) ;
#573 = ORIENTED_EDGE ( 'NONE', *, *, #272, .T. ) ;
#574 = DIRECTION ( 'NONE',  ( 1.000000000000000000, 3.491481338843133355E-15, -0.000000000000000000 ) ) ;
#575 = CARTESIAN_POINT ( 'NONE',  ( 23.65563588131098172, -1.000000000000000000, -7.546363234425816024 ) ) ;
#576 = AXIS2_PLACEMENT_3D ( 'NONE', #270, #808, #8 ) ;
#577 = EDGE_LOOP ( 'NONE', ( #124, #198, #1135, #126 ) ) ;
#578 = DIRECTION ( 'NONE',  ( 0.9432954043032270031, -0.000000000000000000, -0.3319544851638721594 ) ) ;
#579 = VERTEX_POINT ( 'NONE', #941 ) ;
#580 = AXIS2_PLACEMENT_3D ( 'NONE', #805, #279, #335 ) ;
#581 = DIRECTION ( 'NONE',  ( 0.000000000000000000, 1.000000000000000000, 0.000000000000000000 ) ) ;
#582 = AXIS2_PLACEMENT_3D ( 'NONE', #31, #1004, #118 ) ;
#583 = ORIENTED_EDGE ( 'NONE', *, *, #59, .T. ) ;
#584 = DIRECTION ( 'NONE',  ( -0.9432954043032270031, -0.000000000000000000, -0.3319544851638727145 ) ) ;
#585 = EDGE_CURVE ( 'NONE', #542, #141, #677, .T. ) ;
#586 = ORIENTED_EDGE ( 'NONE', *, *, #336, .T. ) ;
#587 = DIRECTION ( 'NONE',  ( 0.000000000000000000, 0.000000000000000000, 1.000000000000000000 ) ) ;
#588 = VECTOR ( 'NONE', #710, 1000.000000000000000 ) ;
#589 = EDGE_CURVE ( 'NONE', #152, #924, #217, .T. ) ;
#590 = AXIS2_PLACEMENT_3D ( 'NONE', #1011, #132, #828 ) ;
#591 = CLOSED_SHELL ( 'NONE', ( #430, #513, #352, #114, #728, #188, #502, #106, #1132, #1043, #150, #881, #616, #136, #171, #770, #202, #957, #3, #65, #951, #913, #280, #1080, #767, #413, #388, #1037, #330, #423, #347, #461, #686, #334, #898, #667, #507, #676 ) ) ;
#592 = EDGE_CURVE ( 'NONE', #612, #414, #122, .T. ) ;
#593 = CIRCLE ( 'NONE', #446, 3.550000000000001155 ) ;
#594 = SURFACE_STYLE_USAGE ( .BOTH. , #893 ) ;
#595 = FACE_BOUND ( 'NONE', #1056, .T. ) ;
#596 = EDGE_CURVE ( 'NONE', #409, #612, #863, .T. ) ;
#597 = PLANE ( 'NONE',  #672 ) ;
#598 = DIRECTION ( 'NONE',  ( 0.000000000000000000, 1.000000000000000000, 0.000000000000000000 ) ) ;
#599 = ORIENTED_EDGE ( 'NONE', *, *, #521, .T. ) ;
#600 = ORIENTED_EDGE ( 'NONE', *, *, #949, .T. ) ;
#601 = AXIS2_PLACEMENT_3D ( 'NONE', #1144, #798, #98 ) ;
#602 = EDGE_CURVE ( 'NONE', #745, #1028, #920, .T. ) ;
#603 = ORIENTED_EDGE ( 'NONE', *, *, #856, .F. ) ;
#604 = LINE ( 'NONE', #159, #286 ) ;
#605 = VERTEX_POINT ( 'NONE', #569 ) ;
#606 = CARTESIAN_POINT ( 'NONE',  ( 23.65563588131098172, 0.000000000000000000, -7.546363234425816024 ) ) ;
#607 = AXIS2_PLACEMENT_3D ( 'NONE', #328, #746, #308 ) ;
#608 = ORIENTED_EDGE ( 'NONE', *, *, #544, .F. ) ;
#609 = CARTESIAN_POINT ( 'NONE',  ( 21.00000000000000000, -1.000000000000000000, 0.000000000000000000 ) ) ;
#610 = ORIENTED_EDGE ( 'NONE', *, *, #402, .F. ) ;
#611 = DIRECTION ( 'NONE',  ( 0.000000000000000000, -1.000000000000000000, 1.445602896647338424E-16 ) ) ;
#612 = VERTEX_POINT ( 'NONE', #483 ) ;
#613 = DIRECTION ( 'NONE',  ( 0.3319544851638722149, -0.000000000000000000, 0.9432954043032271141 ) ) ;
#614 = CARTESIAN_POINT ( 'NONE',  ( 21.00000000000000000, -1.000000000000000000, -3.550000000000001155 ) ) ;
#615 = FACE_OUTER_BOUND ( 'NONE', #877, .T. ) ;
#616 = ADVANCED_FACE ( 'NONE', ( #393 ), #37, .F. ) ;
#617 = APPLICATION_CONTEXT ( 'automotive_design' ) ;
#618 = FACE_OUTER_BOUND ( 'NONE', #372, .T. ) ;
#619 = CARTESIAN_POINT ( 'NONE',  ( 21.00000000000000000, -1.000000000000000000, 4.336808689942017736E-16 ) ) ;
#620 = FACE_OUTER_BOUND ( 'NONE', #255, .T. ) ;
#621 = DIRECTION ( 'NONE',  ( 0.000000000000000000, 0.000000000000000000, -1.000000000000000000 ) ) ;
#622 = LINE ( 'NONE', #982, #695 ) ;
#623 = CIRCLE ( 'NONE', #138, 3.000000000000000000 ) ;
#624 = AXIS2_PLACEMENT_3D ( 'NONE', #619, #304, #378 ) ;
#625 = DIRECTION ( 'NONE',  ( 0.000000000000000000, 0.000000000000000000, 1.000000000000000000 ) ) ;
#626 = DIRECTION ( 'NONE',  ( -3.491481338843133750E-15, 1.000000000000000000, 0.000000000000000000 ) ) ;
#627 = CARTESIAN_POINT ( 'NONE',  ( 17.74770348837209255, -1.000000000000000000, -1.423048628983896391 ) ) ;
#628 = DIRECTION ( 'NONE',  ( -0.000000000000000000, 1.000000000000000000, -0.000000000000000000 ) ) ;
#629 = EDGE_CURVE ( 'NONE', #542, #579, #223, .T. ) ;
#630 = DIRECTION ( 'NONE',  ( 1.000000000000000000, 0.000000000000000000, -0.000000000000000000 ) ) ;
#631 = VECTOR ( 'NONE', #419, 1000.000000000000000 ) ;
#632 = ORIENTED_EDGE ( 'NONE', *, *, #629, .F. ) ;
#633 = LINE ( 'NONE', #225, #282 ) ;
#634 = CARTESIAN_POINT ( 'NONE',  ( 11.00000000000000000, 0.000000000000000000, 12.00000000000000000 ) ) ;
#635 = EDGE_CURVE ( 'NONE', #924, #375, #1025, .T. ) ;
#636 = SURFACE_SIDE_STYLE ('',( #753 ) ) ;
#637 = CARTESIAN_POINT ( 'NONE',  ( 10.99999999999999467, -1.000000000000000000, -12.00000000000000711 ) ) ;
#638 = EDGE_CURVE ( 'NONE', #119, #375, #650, .T. ) ;
#639 = CARTESIAN_POINT ( 'NONE',  ( -3.000000000000063061, 20.00000000000000000, -12.00000000000000000 ) ) ;
#640 = DIRECTION ( 'NONE',  ( 0.000000000000000000, 0.000000000000000000, 1.000000000000000000 ) ) ;
#641 = ORIENTED_EDGE ( 'NONE', *, *, #451, .F. ) ;
#642 = EDGE_LOOP ( 'NONE', ( #786, #573, #825, #833 ) ) ;
#643 = PRESENTATION_LAYER_ASSIGNMENT (  '', '', ( #1141 ) ) ;
#644 = DIRECTION ( 'NONE',  ( -3.541727096785977733E-15, 1.000000000000000000, -1.445602896647337931E-16 ) ) ;
#645 = CARTESIAN_POINT ( 'NONE',  ( 0.000000000000000000, 2.000000000000000000, 12.00000000000000000 ) ) ;
#646 = ORIENTED_EDGE ( 'NONE', *, *, #1050, .F. ) ;
#647 = EDGE_CURVE ( 'NONE', #108, #1028, #821, .T. ) ;
#648 = DIRECTION ( 'NONE',  ( 0.000000000000000000, 0.000000000000000000, 1.000000000000000000 ) ) ;
#649 = VERTEX_POINT ( 'NONE', #367 ) ;
#650 = LINE ( 'NONE', #94, #20 ) ;
#651 = DIRECTION ( 'NONE',  ( 1.000000000000000000, 0.000000000000000000, -0.000000000000000000 ) ) ;
#652 = DIRECTION ( 'NONE',  ( 1.000000000000000000, 0.000000000000000000, 0.000000000000000000 ) ) ;
#653 = ORIENTED_EDGE ( 'NONE', *, *, #544, .T. ) ;
#654 = SURFACE_STYLE_USAGE ( .BOTH. , #636 ) ;
#655 = VECTOR ( 'NONE', #915, 1000.000000000000000 ) ;
#656 = CARTESIAN_POINT ( 'NONE',  ( -3.000000000000042188, 13.99999999999999112, -4.000000000000000888 ) ) ;
#657 = CARTESIAN_POINT ( 'NONE',  ( -2.000000000000000000, 1.999999999999993117, 12.00000000000000000 ) ) ;
#658 = DIRECTION ( 'NONE',  ( -0.000000000000000000, 1.000000000000000000, -0.000000000000000000 ) ) ;
#659 = VECTOR ( 'NONE', #849, 1000.000000000000000 ) ;
#660 = DIRECTION ( 'NONE',  ( 0.000000000000000000, 0.000000000000000000, 1.000000000000000000 ) ) ;
#661 = VERTEX_POINT ( 'NONE', #1008 ) ;
#662 = DIRECTION ( 'NONE',  ( -1.000000000000000000, 0.000000000000000000, 6.308085367188393199E-16 ) ) ;
#663 = ORIENTED_EDGE ( 'NONE', *, *, #629, .T. ) ;
#664 = LINE ( 'NONE', #449, #737 ) ;
#665 = DIRECTION ( 'NONE',  ( 1.000000000000000000, 3.491481338843133750E-15, -0.000000000000000000 ) ) ;
#666 = DIRECTION ( 'NONE',  ( -3.491481338843133750E-15, 1.000000000000000000, 0.000000000000000000 ) ) ;
#667 = ADVANCED_FACE ( 'NONE', ( #1082 ), #976, .F. ) ;
#668 = ORIENTED_EDGE ( 'NONE', *, *, #1009, .T. ) ;
#669 = DIRECTION ( 'NONE',  ( -0.000000000000000000, -0.000000000000000000, 1.000000000000000000 ) ) ;
#670 = VERTEX_POINT ( 'NONE', #826 ) ;
#671 = DIRECTION ( 'NONE',  ( 0.000000000000000000, 0.000000000000000000, 1.000000000000000000 ) ) ;
#672 = AXIS2_PLACEMENT_3D ( 'NONE', #525, #92, #511 ) ;
#673 = ORIENTED_EDGE ( 'NONE', *, *, #635, .F. ) ;
#674 = DIRECTION ( 'NONE',  ( 0.000000000000000000, 0.000000000000000000, 1.000000000000000000 ) ) ;
#675 = DIRECTION ( 'NONE',  ( 3.469446951953614189E-15, -1.000000000000000000, 0.000000000000000000 ) ) ;
#676 = ADVANCED_FACE ( 'NONE', ( #709 ), #207, .F. ) ;
#677 = CIRCLE ( 'NONE', #266, 2.000000000000000000 ) ;
#678 = ORIENTED_EDGE ( 'NONE', *, *, #585, .F. ) ;
#679 = CARTESIAN_POINT ( 'NONE',  ( -1.750000000000062839, 20.00000000000000355, 12.00000000000000000 ) ) ;
#680 = EDGE_CURVE ( 'NONE', #1013, #745, #966, .T. ) ;
#681 = AXIS2_PLACEMENT_3D ( 'NONE', #733, #1089, #33 ) ;
#682 = CIRCLE ( 'NONE', #886, 2.000000000000000000 ) ;
#683 = DIRECTION ( 'NONE',  ( 0.000000000000000000, 1.000000000000000000, 0.000000000000000000 ) ) ;
#684 = VECTOR ( 'NONE', #993, 1000.000000000000000 ) ;
#685 = VECTOR ( 'NONE', #578, 1000.000000000000227 ) ;
#686 = ADVANCED_FACE ( 'NONE', ( #215 ), #537, .F. ) ;
#687 = VECTOR ( 'NONE', #1, 1000.000000000000000 ) ;
#688 = CARTESIAN_POINT ( 'NONE',  ( 0.000000000000000000, -1.000000000000000000, -12.00000000000000000 ) ) ;
#689 = CARTESIAN_POINT ( 'NONE',  ( 21.00000000000000000, -1.000000000000000000, 0.000000000000000000 ) ) ;
#690 = EDGE_LOOP ( 'NONE', ( #845, #939, #28, #725 ) ) ;
#691 = ORIENTED_EDGE ( 'NONE', *, *, #774, .F. ) ;
#692 = DIRECTION ( 'NONE',  ( 0.000000000000000000, 0.000000000000000000, 1.000000000000000000 ) ) ;
#693 = ORIENTED_EDGE ( 'NONE', *, *, #237, .T. ) ;
#694 = FACE_OUTER_BOUND ( 'NONE', #750, .T. ) ;
#695 = VECTOR ( 'NONE', #1040, 1000.000000000000000 ) ;
#696 = ORIENTED_EDGE ( 'NONE', *, *, #1126, .T. ) ;
#697 = ORIENTED_EDGE ( 'NONE', *, *, #876, .T. ) ;
#698 = DIRECTION ( 'NONE',  ( 0.000000000000000000, -0.000000000000000000, -1.000000000000000000 ) ) ;
#699 = ORIENTED_EDGE ( 'NONE', *, *, #1020, .T. ) ;
#700 = DIRECTION ( 'NONE',  ( 1.000000000000000000, 3.491481338843133355E-15, -0.000000000000000000 ) ) ;
#701 = EDGE_CURVE ( 'NONE', #579, #62, #38, .T. ) ;
#702 = AXIS2_PLACEMENT_3D ( 'NONE', #540, #97, #448 ) ;
#703 = VECTOR ( 'NONE', #476, 1000.000000000000000 ) ;
#704 = EDGE_LOOP ( 'NONE', ( #973, #583, #963, #397 ) ) ;
#705 = DIRECTION ( 'NONE',  ( 1.000000000000000000, 3.491481338843133355E-15, -0.000000000000000000 ) ) ;
#706 = VERTEX_POINT ( 'NONE', #445 ) ;
#707 = PRODUCT_DEFINITION_SHAPE ( 'NONE', 'NONE',  #417 ) ;
#708 = DIRECTION ( 'NONE',  ( 0.000000000000000000, 0.000000000000000000, 1.000000000000000000 ) ) ;
#709 = FACE_OUTER_BOUND ( 'NONE', #912, .T. ) ;
#710 = DIRECTION ( 'NONE',  ( -1.000000000000000000, 0.000000000000000000, 6.308085367188393199E-16 ) ) ;
#711 = DIRECTION ( 'NONE',  ( 0.000000000000000000, 0.000000000000000000, 1.000000000000000000 ) ) ;
#712 = PLANE ( 'NONE',  #22 ) ;
#713 = DIRECTION ( 'NONE',  ( -1.000000000000000000, -3.491481338843133355E-15, 0.000000000000000000 ) ) ;
#714 = EDGE_CURVE ( 'NONE', #605, #830, #682, .T. ) ;
#715 = CARTESIAN_POINT ( 'NONE',  ( -0.7500000000000579536, 18.56250000000000711, -12.00000000000000000 ) ) ;
#716 = CARTESIAN_POINT ( 'NONE',  ( 0.000000000000000000, 2.000000000000000000, 12.00000000000000000 ) ) ;
#717 = AXIS2_PLACEMENT_3D ( 'NONE', #481, #988, #213 ) ;
#718 = CARTESIAN_POINT ( 'NONE',  ( 21.00000000000000000, -1.000000000000000000, 0.000000000000000000 ) ) ;
#719 = DIRECTION ( 'NONE',  ( 0.000000000000000000, 1.000000000000000000, 0.000000000000000000 ) ) ;
#720 = VECTOR ( 'NONE', #1072, 1000.000000000000000 ) ;
#721 = LINE ( 'NONE', #200, #892 ) ;
#722 = EDGE_CURVE ( 'NONE', #1028, #706, #999, .T. ) ;
#723 = CARTESIAN_POINT ( 'NONE',  ( -3.000000000000020872, 7.999999999999986677, 6.000000000000000888 ) ) ;
#724 = CARTESIAN_POINT ( 'NONE',  ( -1.875000000000062839, 20.00000000000000355, -12.00000000000000000 ) ) ;
#725 = ORIENTED_EDGE ( 'NONE', *, *, #592, .T. ) ;
#726 = DIRECTION ( 'NONE',  ( 1.000000000000000000, 0.000000000000000000, 0.000000000000000000 ) ) ;
#727 = ORIENTED_EDGE ( 'NONE', *, *, #965, .T. ) ;
#728 = ADVANCED_FACE ( 'NONE', ( #457 ), #904, .T. ) ;
#729 = ORIENTED_EDGE ( 'NONE', *, *, #1029, .F. ) ;
#730 = DIRECTION ( 'NONE',  ( -3.491481338843133750E-15, 1.000000000000000000, 0.000000000000000000 ) ) ;
#731 = CARTESIAN_POINT ( 'NONE',  ( 10.99999999999999467, 0.000000000000000000, -12.00000000000000711 ) ) ;
#732 = EDGE_LOOP ( 'NONE', ( #254, #208, #429, #300 ) ) ;
#733 = CARTESIAN_POINT ( 'NONE',  ( 0.000000000000000000, 0.000000000000000000, 0.000000000000000000 ) ) ;
#734 = DIRECTION ( 'NONE',  ( -3.469446951953617344E-15, 1.000000000000000000, 0.000000000000000000 ) ) ;
#735 = EDGE_LOOP ( 'NONE', ( #475, #143, #1120, #73, #389, #553, #84, #729 ) ) ;
#736 = CARTESIAN_POINT ( 'NONE',  ( -0.7500000000000579536, 18.56250000000000711, 0.000000000000000000 ) ) ;
#737 = VECTOR ( 'NONE', #743, 1000.000000000000000 ) ;
#738 = VERTEX_POINT ( 'NONE', #991 ) ;
#739 = MECHANICAL_DESIGN_GEOMETRIC_PRESENTATION_REPRESENTATION (  '', ( #1141 ), #1093 ) ;
#740 = LINE ( 'NONE', #929, #247 ) ;
#741 = DIRECTION ( 'NONE',  ( 0.000000000000000000, -1.000000000000000000, 0.000000000000000000 ) ) ;
#742 = VERTEX_POINT ( 'NONE', #113 ) ;
#743 = DIRECTION ( 'NONE',  ( 1.000000000000000000, 3.491481338843133750E-15, -0.000000000000000000 ) ) ;
#744 = CARTESIAN_POINT ( 'NONE',  ( 15.83999999999999986, -1.000000000000000000, 2.379999999999999893 ) ) ;
#745 = VERTEX_POINT ( 'NONE', #543 ) ;
#746 = DIRECTION ( 'NONE',  ( 0.000000000000000000, 0.000000000000000000, 1.000000000000000000 ) ) ;
#747 = EDGE_CURVE ( 'NONE', #522, #152, #816, .T. ) ;
#748 = AXIS2_PLACEMENT_3D ( 'NONE', #428, #785, #359 ) ;
#749 = DIRECTION ( 'NONE',  ( 1.000000000000000000, 3.491481338843133750E-15, -0.000000000000000000 ) ) ;
#750 = EDGE_LOOP ( 'NONE', ( #610, #1054, #485, #1091 ) ) ;
#751 = LINE ( 'NONE', #493, #1033 ) ;
#752 = ORIENTED_EDGE ( 'NONE', *, *, #11, .F. ) ;
#753 = SURFACE_STYLE_FILL_AREA ( #822 ) ;
#754 = CIRCLE ( 'NONE', #503, 2.379999999999999893 ) ;
#755 = ORIENTED_EDGE ( 'NONE', *, *, #946, .T. ) ;
#756 = DIRECTION ( 'NONE',  ( 0.000000000000000000, 1.000000000000000000, 0.000000000000000000 ) ) ;
#757 = PRODUCT_RELATED_PRODUCT_CATEGORY ( 'part', '', ( #267 ) ) ;
#758 = CIRCLE ( 'NONE', #1131, 8.000000000000000000 ) ;
#759 = ORIENTED_EDGE ( 'NONE', *, *, #714, .T. ) ;
#760 = CARTESIAN_POINT ( 'NONE',  ( -2.000000000000013767, 5.999999999999989342, 4.000000000000001776 ) ) ;
#761 = VERTEX_POINT ( 'NONE', #384 ) ;
#762 = CARTESIAN_POINT ( 'NONE',  ( 15.83999999999999986, -1.000000000000000000, -2.379999999999999893 ) ) ;
#763 = ORIENTED_EDGE ( 'NONE', *, *, #1087, .F. ) ;
#764 = EDGE_CURVE ( 'NONE', #440, #298, #998, .T. ) ;
#765 = DIRECTION ( 'NONE',  ( -0.000000000000000000, -0.000000000000000000, -1.000000000000000000 ) ) ;
#766 = ORIENTED_EDGE ( 'NONE', *, *, #245, .F. ) ;
#767 = ADVANCED_FACE ( 'NONE', ( #362 ), #910, .T. ) ;
#768 = DIRECTION ( 'NONE',  ( 1.000000000000000000, 0.000000000000000000, 0.000000000000000000 ) ) ;
#769 = AXIS2_PLACEMENT_3D ( 'NONE', #724, #823, #306 ) ;
#770 = ADVANCED_FACE ( 'NONE', ( #615 ), #182, .T. ) ;
#771 = ORIENTED_EDGE ( 'NONE', *, *, #176, .F. ) ;
#772 = CARTESIAN_POINT ( 'NONE',  ( 10.99999999999999467, -1.000000000000000000, -12.00000000000000711 ) ) ;
#773 = CIRCLE ( 'NONE', #468, 2.379999999999999893 ) ;
#774 = EDGE_CURVE ( 'NONE', #649, #852, #622, .T. ) ;
#775 = LINE ( 'NONE', #715, #82 ) ;
#776 = AXIS2_PLACEMENT_3D ( 'NONE', #194, #902, #558 ) ;
#777 = CARTESIAN_POINT ( 'NONE',  ( -0.7500000000000579536, 18.56250000000000711, -12.00000000000000000 ) ) ;
#778 = VECTOR ( 'NONE', #1071, 1000.000000000000000 ) ;
#779 = VECTOR ( 'NONE', #765, 1000.000000000000000 ) ;
#780 = ORIENTED_EDGE ( 'NONE', *, *, #242, .F. ) ;
#781 = CIRCLE ( 'NONE', #897, 1.999999999999998224 ) ;
#782 = CARTESIAN_POINT ( 'NONE',  ( 23.65563588131098172, -1.000000000000000000, -7.546363234425816024 ) ) ;
#783 = ORIENTED_EDGE ( 'NONE', *, *, #856, .T. ) ;
#784 = CARTESIAN_POINT ( 'NONE',  ( -1.875000000000062839, 20.00000000000000355, 12.00000000000000000 ) ) ;
#785 = DIRECTION ( 'NONE',  ( 1.000000000000000000, 3.491481338843133355E-15, -0.000000000000000000 ) ) ;
#786 = ORIENTED_EDGE ( 'NONE', *, *, #59, .F. ) ;
#787 = MANIFOLD_SOLID_BREP ( 'Cut-Extrude4', #591 ) ;
#788 = ORIENTED_EDGE ( 'NONE', *, *, #602, .T. ) ;
#789 = STYLED_ITEM ( 'NONE', ( #807 ), #365 ) ;
#790 = CARTESIAN_POINT ( 'NONE',  ( -3.000000000000020872, 7.999999999999986677, 4.000000000000001776 ) ) ;
#791 = ORIENTED_EDGE ( 'NONE', *, *, #85, .F. ) ;
#792 = EDGE_CURVE ( 'NONE', #508, #815, #156, .T. ) ;
#793 = CARTESIAN_POINT ( 'NONE',  ( -3.000000000000063061, 20.00000000000000000, 0.000000000000000000 ) ) ;
#794 = EDGE_CURVE ( 'NONE', #1130, #649, #775, .T. ) ;
#795 = EDGE_LOOP ( 'NONE', ( #699, #235, #392, #1031 ) ) ;
#796 = DIRECTION ( 'NONE',  ( -3.541727096785977733E-15, 1.000000000000000000, -1.445602896647337931E-16 ) ) ;
#797 = ORIENTED_EDGE ( 'NONE', *, *, #1139, .T. ) ;
#798 = DIRECTION ( 'NONE',  ( 1.000000000000000000, 3.491481338843133750E-15, -0.000000000000000000 ) ) ;
#799 = DIRECTION ( 'NONE',  ( 3.491481338843133750E-15, -1.000000000000000000, 0.000000000000000000 ) ) ;
#800 = AXIS2_PLACEMENT_3D ( 'NONE', #454, #364, #472 ) ;
#801 = CARTESIAN_POINT ( 'NONE',  ( 15.83999999999999986, 0.000000000000000000, -2.379999999999999893 ) ) ;
#802 = CARTESIAN_POINT ( 'NONE',  ( -3.000000000000013767, 5.999999999999986677, 4.000000000000001776 ) ) ;
#803 = CARTESIAN_POINT ( 'NONE',  ( 0.000000000000000000, -1.000000000000000000, 12.00000000000000000 ) ) ;
#804 = EDGE_CURVE ( 'NONE', #549, #661, #983, .T. ) ;
#805 = CARTESIAN_POINT ( 'NONE',  ( -1.875000000000062839, 20.00000000000000355, 12.00000000000000000 ) ) ;
#806 = CARTESIAN_POINT ( 'NONE',  ( -3.000000000000020872, 7.999999999999986677, -6.000000000000000000 ) ) ;
#807 = PRESENTATION_STYLE_ASSIGNMENT (( #654 ) ) ;
#808 = DIRECTION ( 'NONE',  ( 0.000000000000000000, 0.000000000000000000, 1.000000000000000000 ) ) ;
#809 = CARTESIAN_POINT ( 'NONE',  ( 0.000000000000000000, 2.000000000000000000, 12.00000000000000000 ) ) ;
#810 = EDGE_CURVE ( 'NONE', #226, #206, #421, .T. ) ;
#811 = LINE ( 'NONE', #420, #70 ) ;
#812 = DIRECTION ( 'NONE',  ( -1.000000000000000000, 0.000000000000000000, -0.000000000000000000 ) ) ;
#813 =( NAMED_UNIT ( * ) SI_UNIT ( $, .STERADIAN. ) SOLID_ANGLE_UNIT ( ) );
#814 = CARTESIAN_POINT ( 'NONE',  ( 15.83999999999999986, -1.000000000000000000, 0.000000000000000000 ) ) ;
#815 = VERTEX_POINT ( 'NONE', #96 ) ;
#816 = LINE ( 'NONE', #550, #151 ) ;
#817 = EDGE_LOOP ( 'NONE', ( #135, #411, #1088, #1047 ) ) ;
#818 = EDGE_LOOP ( 'NONE', ( #422, #909, #847, #383 ) ) ;
#819 = CARTESIAN_POINT ( 'NONE',  ( -2.999999999999993339, -3.491481338843133355E-15, -12.00000000000000000 ) ) ;
#820 = DIRECTION ( 'NONE',  ( -0.000000000000000000, -0.000000000000000000, 1.000000000000000000 ) ) ;
#821 = CIRCLE ( 'NONE', #1059, 3.550000000000001155 ) ;
#822 = FILL_AREA_STYLE ('',( #289 ) ) ;
#823 = DIRECTION ( 'NONE',  ( -0.000000000000000000, -0.000000000000000000, -1.000000000000000000 ) ) ;
#824 = AXIS2_PLACEMENT_3D ( 'NONE', #784, #86, #444 ) ;
#825 = ORIENTED_EDGE ( 'NONE', *, *, #592, .F. ) ;
#826 = CARTESIAN_POINT ( 'NONE',  ( -2.000000000000013767, 5.999999999999991118, -4.000000000000000888 ) ) ;
#827 = VERTEX_POINT ( 'NONE', #447 ) ;
#828 = DIRECTION ( 'NONE',  ( -3.491481338843133750E-15, 1.000000000000000000, -0.000000000000000000 ) ) ;
#829 = LINE ( 'NONE', #281, #984 ) ;
#830 = VERTEX_POINT ( 'NONE', #1125 ) ;
#831 =( NAMED_UNIT ( * ) PLANE_ANGLE_UNIT ( ) SI_UNIT ( $, .RADIAN. ) );
#832 = PLANE ( 'NONE',  #131 ) ;
#833 = ORIENTED_EDGE ( 'NONE', *, *, #551, .F. ) ;
#834 = DIRECTION ( 'NONE',  ( -0.000000000000000000, 1.000000000000000000, -0.000000000000000000 ) ) ;
#835 = CIRCLE ( 'NONE', #149, 2.379999999999999893 ) ;
#836 = CARTESIAN_POINT ( 'NONE',  ( -2.000000000000020872, 7.999999999999989342, -4.000000000000000888 ) ) ;
#837 = ORIENTED_EDGE ( 'NONE', *, *, #436, .T. ) ;
#838 = DIRECTION ( 'NONE',  ( -0.000000000000000000, -0.000000000000000000, -1.000000000000000000 ) ) ;
#839 = ORIENTED_EDGE ( 'NONE', *, *, #260, .T. ) ;
#840 = EDGE_CURVE ( 'NONE', #1147, #542, #12, .T. ) ;
#841 = FACE_OUTER_BOUND ( 'NONE', #294, .T. ) ;
#842 = ORIENTED_EDGE ( 'NONE', *, *, #1124, .T. ) ;
#843 = CARTESIAN_POINT ( 'NONE',  ( 15.83999999999999986, -1.000000000000000000, 0.000000000000000000 ) ) ;
#844 = AXIS2_PLACEMENT_3D ( 'NONE', #819, #660, #651 ) ;
#845 = ORIENTED_EDGE ( 'NONE', *, *, #850, .F. ) ;
#846 = DIRECTION ( 'NONE',  ( 0.000000000000000000, 2.168404344971007882E-16, -1.000000000000000000 ) ) ;
#847 = ORIENTED_EDGE ( 'NONE', *, *, #1053, .F. ) ;
#848 = AXIS2_PLACEMENT_3D ( 'NONE', #463, #184, #626 ) ;
#849 = DIRECTION ( 'NONE',  ( -1.000000000000000000, -3.491481338843133355E-15, 0.000000000000000000 ) ) ;
#850 = EDGE_CURVE ( 'NONE', #230, #414, #1075, .T. ) ;
#851 = VECTOR ( 'NONE', #1095, 1000.000000000000000 ) ;
#852 = VERTEX_POINT ( 'NONE', #533 ) ;
#853 = CARTESIAN_POINT ( 'NONE',  ( 21.00000000000000000, -1.000000000000000000, 4.336808689942017736E-16 ) ) ;
#854 = ORIENTED_EDGE ( 'NONE', *, *, #154, .T. ) ;
#855 = LINE ( 'NONE', #236, #504 ) ;
#856 = EDGE_CURVE ( 'NONE', #152, #830, #453, .T. ) ;
#857 = ORIENTED_EDGE ( 'NONE', *, *, #942, .T. ) ;
#858 = FACE_OUTER_BOUND ( 'NONE', #817, .T. ) ;
#859 = AXIS2_PLACEMENT_3D ( 'NONE', #803, #1074, #630 ) ;
#860 = EDGE_CURVE ( 'NONE', #1062, #649, #158, .T. ) ;
#861 = EDGE_LOOP ( 'NONE', ( #1111, #460, #788, #487 ) ) ;
#862 = AXIS2_PLACEMENT_3D ( 'NONE', #498, #415, #674 ) ;
#863 = CIRCLE ( 'NONE', #607, 1.125000000000000000 ) ;
#864 = UNCERTAINTY_MEASURE_WITH_UNIT (LENGTH_MEASURE( 1.000000000000000082E-05 ), #1023, 'distance_accuracy_value', 'NONE');
#865 = CARTESIAN_POINT ( 'NONE',  ( 0.000000000000000000, 2.000000000000000000, -12.00000000000000000 ) ) ;
#866 = DIRECTION ( 'NONE',  ( -0.000000000000000000, 1.000000000000000000, -0.000000000000000000 ) ) ;
#867 = VECTOR ( 'NONE', #1099, 1000.000000000000000 ) ;
#868 = ORIENTED_EDGE ( 'NONE', *, *, #794, .F. ) ;
#869 = DIRECTION ( 'NONE',  ( 1.000000000000000000, 3.491481338843133750E-15, -0.000000000000000000 ) ) ;
#870 = EDGE_LOOP ( 'NONE', ( #693, #884, #76, #937 ) ) ;
#871 = FACE_OUTER_BOUND ( 'NONE', #1104, .T. ) ;
#872 = FACE_OUTER_BOUND ( 'NONE', #497, .T. ) ;
#873 = CIRCLE ( 'NONE', #702, 3.550000000000001155 ) ;
#874 = ORIENTED_EDGE ( 'NONE', *, *, #100, .F. ) ;
#875 = VECTOR ( 'NONE', #161, 1000.000000000000000 ) ;
#876 = EDGE_CURVE ( 'NONE', #815, #375, #623, .T. ) ;
#877 = EDGE_LOOP ( 'NONE', ( #696, #432, #318, #1113 ) ) ;
#878 = LINE ( 'NONE', #337, #95 ) ;
#879 = ORIENTED_EDGE ( 'NONE', *, *, #722, .F. ) ;
#880 = CARTESIAN_POINT ( 'NONE',  ( -3.000000000000013767, 5.999999999999987566, -4.000000000000000888 ) ) ;
#881 = ADVANCED_FACE ( 'NONE', ( #67 ), #1137, .F. ) ;
#882 = ORIENTED_EDGE ( 'NONE', *, *, #336, .F. ) ;
#883 = PLANE ( 'NONE',  #338 ) ;
#884 = ORIENTED_EDGE ( 'NONE', *, *, #242, .T. ) ;
#885 = LINE ( 'NONE', #793, #458 ) ;
#886 = AXIS2_PLACEMENT_3D ( 'NONE', #809, #292, #726 ) ;
#887 = EDGE_CURVE ( 'NONE', #815, #152, #811, .T. ) ;
#888 = ORIENTED_EDGE ( 'NONE', *, *, #972, .F. ) ;
#889 = CARTESIAN_POINT ( 'NONE',  ( -3.000000000000048850, 15.99999999999998934, -4.000000000000000888 ) ) ;
#890 = DIRECTION ( 'NONE',  ( -0.000000000000000000, 1.000000000000000000, -0.000000000000000000 ) ) ;
#891 = DIRECTION ( 'NONE',  ( 1.000000000000000000, 3.491481338843133355E-15, -0.000000000000000000 ) ) ;
#892 = VECTOR ( 'NONE', #218, 1000.000000000000000 ) ;
#893 = SURFACE_SIDE_STYLE ('',( #5 ) ) ;
#894 = DIRECTION ( 'NONE',  ( -0.000000000000000000, -0.000000000000000000, 1.000000000000000000 ) ) ;
#895 = LINE ( 'NONE', #1146, #631 ) ;
#896 = CARTESIAN_POINT ( 'NONE',  ( -0.7500000000000629496, 20.00000000000000711, 12.00000000000000000 ) ) ;
#897 = AXIS2_PLACEMENT_3D ( 'NONE', #836, #749, #311 ) ;
#898 = ADVANCED_FACE ( 'NONE', ( #872 ), #75, .F. ) ;
#899 = DIRECTION ( 'NONE',  ( 0.000000000000000000, 1.000000000000000000, 0.000000000000000000 ) ) ;
#900 = CARTESIAN_POINT ( 'NONE',  ( 15.83999999999999986, -1.000000000000000000, 0.000000000000000000 ) ) ;
#901 = PLANE ( 'NONE',  #47 ) ;
#902 = DIRECTION ( 'NONE',  ( 0.3319544851638727145, 0.000000000000000000, -0.9432954043032270031 ) ) ;
#903 = ORIENTED_EDGE ( 'NONE', *, *, #327, .T. ) ;
#904 = PLANE ( 'NONE',  #859 ) ;
#905 = ORIENTED_EDGE ( 'NONE', *, *, #638, .T. ) ;
#906 = CARTESIAN_POINT ( 'NONE',  ( -1.875000000000062839, 20.00000000000000355, -12.00000000000000000 ) ) ;
#907 = CARTESIAN_POINT ( 'NONE',  ( 0.000000000000000000, 0.000000000000000000, 12.00000000000000000 ) ) ;
#908 = DIRECTION ( 'NONE',  ( 0.000000000000000000, 0.000000000000000000, 1.000000000000000000 ) ) ;
#909 = ORIENTED_EDGE ( 'NONE', *, *, #484, .F. ) ;
#910 = PLANE ( 'NONE',  #391 ) ;
#911 = ORIENTED_EDGE ( 'NONE', *, *, #451, .T. ) ;
#912 = EDGE_LOOP ( 'NONE', ( #174, #324, #888, #50 ) ) ;
#913 = ADVANCED_FACE ( 'NONE', ( #618 ), #471, .F. ) ;
#914 = CARTESIAN_POINT ( 'NONE',  ( -3.000000000000042188, 13.99999999999998934, 6.000000000000000000 ) ) ;
#915 = DIRECTION ( 'NONE',  ( 1.000000000000000000, 3.491481338843133355E-15, -0.000000000000000000 ) ) ;
#916 = VERTEX_POINT ( 'NONE', #1085 ) ;
#917 = VECTOR ( 'NONE', #51, 1000.000000000000000 ) ;
#918 = DIRECTION ( 'NONE',  ( -0.000000000000000000, 1.000000000000000000, -0.000000000000000000 ) ) ;
#919 = LINE ( 'NONE', #128, #1102 ) ;
#920 = LINE ( 'NONE', #144, #357 ) ;
#921 = EDGE_CURVE ( 'NONE', #298, #514, #633, .T. ) ;
#922 = DIRECTION ( 'NONE',  ( 0.000000000000000000, 1.000000000000000000, -0.000000000000000000 ) ) ;
#923 = CARTESIAN_POINT ( 'NONE',  ( -3.000000000000020872, 7.999999999999986677, 6.000000000000000888 ) ) ;
#924 = VERTEX_POINT ( 'NONE', #377 ) ;
#925 =( LENGTH_UNIT ( ) NAMED_UNIT ( * ) SI_UNIT ( .MILLI., .METRE. ) );
#926 = CARTESIAN_POINT ( 'NONE',  ( -3.000000000000000000, 1.999999999999989564, 12.00000000000000000 ) ) ;
#927 = DIRECTION ( 'NONE',  ( 0.000000000000000000, 0.000000000000000000, -1.000000000000000000 ) ) ;
#928 = CARTESIAN_POINT ( 'NONE',  ( -3.000000000000042188, 13.99999999999998934, 4.000000000000000000 ) ) ;
#929 = CARTESIAN_POINT ( 'NONE',  ( -2.000000000000042188, 13.99999999999999289, 6.000000000000000000 ) ) ;
#930 = ORIENTED_EDGE ( 'NONE', *, *, #1123, .T. ) ;
#931 = CARTESIAN_POINT ( 'NONE',  ( 10.99999999999999467, -1.000000000000000000, -12.00000000000000711 ) ) ;
#932 = ORIENTED_EDGE ( 'NONE', *, *, #589, .T. ) ;
#933 = LINE ( 'NONE', #639, #401 ) ;
#934 = CARTESIAN_POINT ( 'NONE',  ( -3.000000000000000000, 1.999999999999989564, -12.00000000000000000 ) ) ;
#935 = EDGE_CURVE ( 'NONE', #62, #552, #740, .T. ) ;
#936 = VECTOR ( 'NONE', #505, 1000.000000000000000 ) ;
#937 = ORIENTED_EDGE ( 'NONE', *, *, #265, .T. ) ;
#938 = LINE ( 'NONE', #1112, #216 ) ;
#939 = ORIENTED_EDGE ( 'NONE', *, *, #1151, .T. ) ;
#940 = VECTOR ( 'NONE', #587, 1000.000000000000000 ) ;
#941 = CARTESIAN_POINT ( 'NONE',  ( -2.000000000000048850, 15.99999999999999289, 4.000000000000000000 ) ) ;
#942 = EDGE_CURVE ( 'NONE', #1013, #108, #30, .T. ) ;
#943 = VECTOR ( 'NONE', #386, 1000.000000000000000 ) ;
#944 = ORIENTED_EDGE ( 'NONE', *, *, #647, .T. ) ;
#945 = CARTESIAN_POINT ( 'NONE',  ( -1.750000000000057954, 18.56250000000000355, -12.00000000000000000 ) ) ;
#946 = EDGE_CURVE ( 'NONE', #438, #1130, #721, .T. ) ;
#947 = VERTEX_POINT ( 'NONE', #303 ) ;
#948 = CARTESIAN_POINT ( 'NONE',  ( 23.65563588131098172, 0.000000000000000000, 7.546363234425816024 ) ) ;
#949 = EDGE_CURVE ( 'NONE', #119, #1130, #398, .T. ) ;
#950 = AXIS2_PLACEMENT_3D ( 'NONE', #1116, #665, #1136 ) ;
#951 = ADVANCED_FACE ( 'NONE', ( #1103, #462 ), #109, .T. ) ;
#952 = CIRCLE ( 'NONE', #1042, 2.000000000000000000 ) ;
#953 = CARTESIAN_POINT ( 'NONE',  ( -3.000000000000042188, 13.99999999999999467, -6.000000000000000888 ) ) ;
#954 = ORIENTED_EDGE ( 'NONE', *, *, #29, .F. ) ;
#955 = CYLINDRICAL_SURFACE ( 'NONE', #824, 1.125000000000000000 ) ;
#956 = DIRECTION ( 'NONE',  ( 0.000000000000000000, 0.000000000000000000, -1.000000000000000000 ) ) ;
#957 = ADVANCED_FACE ( 'NONE', ( #1003 ), #296, .F. ) ;
#958 = ORIENTED_EDGE ( 'NONE', *, *, #19, .T. ) ;
#959 = VECTOR ( 'NONE', #541, 1000.000000000000000 ) ;
#960 = ORIENTED_EDGE ( 'NONE', *, *, #764, .T. ) ;
#961 = ORIENTED_EDGE ( 'NONE', *, *, #680, .T. ) ;
#962 = DIRECTION ( 'NONE',  ( 1.000000000000000000, 3.491481338843133750E-15, -0.000000000000000000 ) ) ;
#963 = ORIENTED_EDGE ( 'NONE', *, *, #88, .T. ) ;
#964 = DIRECTION ( 'NONE',  ( -3.469446951953617344E-15, 1.000000000000000000, 0.000000000000000000 ) ) ;
#965 = EDGE_CURVE ( 'NONE', #141, #62, #117, .T. ) ;
#966 = CIRCLE ( 'NONE', #374, 3.550000000000001155 ) ;
#967 = VECTOR ( 'NONE', #536, 1000.000000000000000 ) ;
#968 = ORIENTED_EDGE ( 'NONE', *, *, #1151, .F. ) ;
#969 = DIRECTION ( 'NONE',  ( 0.000000000000000000, 0.000000000000000000, 1.000000000000000000 ) ) ;
#970 = ORIENTED_EDGE ( 'NONE', *, *, #327, .F. ) ;
#971 = CARTESIAN_POINT ( 'NONE',  ( -3.000000000000013767, 5.999999999999986677, 4.000000000000001776 ) ) ;
#972 = EDGE_CURVE ( 'NONE', #112, #1052, #210, .T. ) ;
#973 = ORIENTED_EDGE ( 'NONE', *, *, #714, .F. ) ;
#974 = FACE_OUTER_BOUND ( 'NONE', #690, .T. ) ;
#975 = CYLINDRICAL_SURFACE ( 'NONE', #1118, 1.999999999999998224 ) ;
#976 = PLANE ( 'NONE',  #329 ) ;
#977 = APPLICATION_CONTEXT ( 'automotive_design' ) ;
#978 = FILL_AREA_STYLE ('',( #183 ) ) ;
#979 = CARTESIAN_POINT ( 'NONE',  ( -2.000000000000048850, 15.99999999999999289, 4.000000000000000000 ) ) ;
#980 = PLANE ( 'NONE',  #406 ) ;
#981 = DIRECTION ( 'NONE',  ( -0.000000000000000000, -0.000000000000000000, -1.000000000000000000 ) ) ;
#982 = CARTESIAN_POINT ( 'NONE',  ( -0.7500000000000529576, 17.12500000000000355, 0.000000000000000000 ) ) ;
#983 = CIRCLE ( 'NONE', #488, 2.379999999999999893 ) ;
#984 = VECTOR ( 'NONE', #838, 1000.000000000000000 ) ;
#985 =( LENGTH_UNIT ( ) NAMED_UNIT ( * ) SI_UNIT ( .MILLI., .METRE. ) );
#986 = PLANE ( 'NONE',  #582 ) ;
#987 = SHAPE_DEFINITION_REPRESENTATION ( #707, #365 ) ;
#988 = DIRECTION ( 'NONE',  ( 1.000000000000000000, 3.491481338843133750E-15, 0.000000000000000000 ) ) ;
#989 = AXIS2_PLACEMENT_3D ( 'NONE', #1044, #360, #180 ) ;
#990 = DIRECTION ( 'NONE',  ( 1.000000000000000000, 3.491481338843133355E-15, -0.000000000000000000 ) ) ;
#991 = CARTESIAN_POINT ( 'NONE',  ( -2.000000000000013767, 5.999999999999989342, 4.000000000000001776 ) ) ;
#992 = ORIENTED_EDGE ( 'NONE', *, *, #921, .T. ) ;
#993 = DIRECTION ( 'NONE',  ( -0.000000000000000000, 1.000000000000000000, -0.000000000000000000 ) ) ;
#994 = FACE_OUTER_BOUND ( 'NONE', #861, .T. ) ;
#995 = CYLINDRICAL_SURFACE ( 'NONE', #1070, 1.999999999999998224 ) ;
#996 =( GEOMETRIC_REPRESENTATION_CONTEXT ( 3 ) GLOBAL_UNCERTAINTY_ASSIGNED_CONTEXT ( ( #139 ) ) GLOBAL_UNIT_ASSIGNED_CONTEXT ( ( #925, #831, #813 ) ) REPRESENTATION_CONTEXT ( 'NONE', 'WORKASPACE' ) );
#997 = FACE_BOUND ( 'NONE', #1049, .T. ) ;
#998 = LINE ( 'NONE', #4, #1039 ) ;
#999 = CIRCLE ( 'NONE', #437, 3.550000000000001155 ) ;
#1000 = EDGE_CURVE ( 'NONE', #112, #761, #287, .T. ) ;
#1001 = ORIENTED_EDGE ( 'NONE', *, *, #602, .F. ) ;
#1002 = ORIENTED_EDGE ( 'NONE', *, *, #935, .T. ) ;
#1003 = FACE_OUTER_BOUND ( 'NONE', #577, .T. ) ;
#1004 = DIRECTION ( 'NONE',  ( 0.000000000000000000, 0.000000000000000000, -1.000000000000000000 ) ) ;
#1005 = ORIENTED_EDGE ( 'NONE', *, *, #237, .F. ) ;
#1006 = CARTESIAN_POINT ( 'NONE',  ( 15.83999999999999986, -1.000000000000000000, 0.000000000000000000 ) ) ;
#1007 = EDGE_LOOP ( 'NONE', ( #165, #268, #842, #954 ) ) ;
#1008 = CARTESIAN_POINT ( 'NONE',  ( 15.83999999999999986, -1.000000000000000000, 2.379999999999999893 ) ) ;
#1009 = EDGE_CURVE ( 'NONE', #212, #403, #758, .T. ) ;
#1010 = CIRCLE ( 'NONE', #950, 1.999999999999998224 ) ;
#1011 = CARTESIAN_POINT ( 'NONE',  ( -0.7500000000000579536, 18.56250000000000711, 12.00000000000000000 ) ) ;
#1012 = FACE_OUTER_BOUND ( 'NONE', #172, .T. ) ;
#1013 = VERTEX_POINT ( 'NONE', #477 ) ;
#1014 = AXIS2_PLACEMENT_3D ( 'NONE', #1006, #918, #120 ) ;
#1015 = FACE_OUTER_BOUND ( 'NONE', #331, .T. ) ;
#1016 = EDGE_LOOP ( 'NONE', ( #55, #755, #434, #571 ) ) ;
#1017 = DIRECTION ( 'NONE',  ( 0.000000000000000000, 0.000000000000000000, 1.000000000000000000 ) ) ;
#1018 = DIRECTION ( 'NONE',  ( 3.541727096785979310E-15, -1.000000000000000000, 1.445602896647338424E-16 ) ) ;
#1019 = ORIENTED_EDGE ( 'NONE', *, *, #343, .F. ) ;
#1020 = EDGE_CURVE ( 'NONE', #670, #761, #781, .T. ) ;
#1021 = CARTESIAN_POINT ( 'NONE',  ( 0.000000000000000000, 2.000000000000000000, 12.00000000000000000 ) ) ;
#1022 = EDGE_LOOP ( 'NONE', ( #691, #868, #1084, #89 ) ) ;
#1023 =( LENGTH_UNIT ( ) NAMED_UNIT ( * ) SI_UNIT ( .MILLI., .METRE. ) );
#1024 = EDGE_LOOP ( 'NONE', ( #115, #763, #641, #958 ) ) ;
#1025 = LINE ( 'NONE', #934, #659 ) ;
#1026 = ORIENTED_EDGE ( 'NONE', *, *, #942, .F. ) ;
#1027 = CARTESIAN_POINT ( 'NONE',  ( 11.00000000000000000, -1.000000000000000000, 12.00000000000000000 ) ) ;
#1028 = VERTEX_POINT ( 'NONE', #1134 ) ;
#1029 = EDGE_CURVE ( 'NONE', #761, #226, #878, .T. ) ;
#1030 = CARTESIAN_POINT ( 'NONE',  ( -3.000000000000048850, 15.99999999999998934, 4.000000000000000000 ) ) ;
#1031 = ORIENTED_EDGE ( 'NONE', *, *, #408, .T. ) ;
#1032 = LINE ( 'NONE', #410, #779 ) ;
#1033 = VECTOR ( 'NONE', #153, 1000.000000000000000 ) ;
#1034 = VECTOR ( 'NONE', #981, 1000.000000000000000 ) ;
#1035 = ORIENTED_EDGE ( 'NONE', *, *, #764, .F. ) ;
#1036 = CARTESIAN_POINT ( 'NONE',  ( -1.750000000000052847, 17.12500000000000000, 0.000000000000000000 ) ) ;
#1037 = ADVANCED_FACE ( 'NONE', ( #974 ), #275, .F. ) ;
#1038 = EDGE_CURVE ( 'NONE', #549, #1106, #252, .T. ) ;
#1039 = VECTOR ( 'NONE', #373, 1000.000000000000000 ) ;
#1040 = DIRECTION ( 'NONE',  ( 0.000000000000000000, 0.000000000000000000, 1.000000000000000000 ) ) ;
#1041 = EDGE_CURVE ( 'NONE', #440, #830, #895, .T. ) ;
#1042 = AXIS2_PLACEMENT_3D ( 'NONE', #790, #869, #424 ) ;
#1043 = ADVANCED_FACE ( 'NONE', ( #595, #620 ), #980, .T. ) ;
#1044 = CARTESIAN_POINT ( 'NONE',  ( -1.875000000000062839, 20.00000000000000355, 12.00000000000000000 ) ) ;
#1045 = PRODUCT_DEFINITION_CONTEXT ( 'detailed design', #977, 'design' ) ;
#1046 = ORIENTED_EDGE ( 'NONE', *, *, #436, .F. ) ;
#1047 = ORIENTED_EDGE ( 'NONE', *, *, #887, .T. ) ;
#1048 = LINE ( 'NONE', #257, #315 ) ;
#1049 = EDGE_LOOP ( 'NONE', ( #500, #469, #21, #911, #1097, #353, #1140, #545 ) ) ;
#1050 = EDGE_CURVE ( 'NONE', #147, #473, #952, .T. ) ;
#1051 = FACE_OUTER_BOUND ( 'NONE', #795, .T. ) ;
#1052 = VERTEX_POINT ( 'NONE', #953 ) ;
#1053 = EDGE_CURVE ( 'NONE', #742, #924, #604, .T. ) ;
#1054 = ORIENTED_EDGE ( 'NONE', *, *, #596, .F. ) ;
#1055 = DIRECTION ( 'NONE',  ( 3.491481338843133750E-15, -1.000000000000000000, 0.000000000000000000 ) ) ;
#1056 = EDGE_LOOP ( 'NONE', ( #961, #399, #395, #599, #385, #797 ) ) ;
#1057 = PLANE ( 'NONE',  #601 ) ;
#1058 = CIRCLE ( 'NONE', #1128, 2.000000000000000000 ) ;
#1059 = AXIS2_PLACEMENT_3D ( 'NONE', #1150, #899, #358 ) ;
#1060 = VERTEX_POINT ( 'NONE', #782 ) ;
#1061 = PLANE ( 'NONE',  #538 ) ;
#1062 = VERTEX_POINT ( 'NONE', #527 ) ;
#1063 = FACE_OUTER_BOUND ( 'NONE', #456, .T. ) ;
#1064 = CARTESIAN_POINT ( 'NONE',  ( -2.000000000000042188, 13.99999999999999289, 4.000000000000000000 ) ) ;
#1065 = CARTESIAN_POINT ( 'NONE',  ( 10.99999999999999467, -1.000000000000000000, -12.00000000000000711 ) ) ;
#1066 = FACE_OUTER_BOUND ( 'NONE', #556, .T. ) ;
#1067 = CARTESIAN_POINT ( 'NONE',  ( -3.000000000000042188, 13.99999999999998934, 6.000000000000000000 ) ) ;
#1068 = LINE ( 'NONE', #520, #875 ) ;
#1069 = DIRECTION ( 'NONE',  ( -0.000000000000000000, -0.000000000000000000, 1.000000000000000000 ) ) ;
#1070 = AXIS2_PLACEMENT_3D ( 'NONE', #656, #381, #734 ) ;
#1071 = DIRECTION ( 'NONE',  ( 1.000000000000000000, 3.491481338843133750E-15, -0.000000000000000000 ) ) ;
#1072 = DIRECTION ( 'NONE',  ( 1.000000000000000000, 0.000000000000000000, 0.000000000000000000 ) ) ;
#1073 = LINE ( 'NONE', #614, #333 ) ;
#1074 = DIRECTION ( 'NONE',  ( 0.000000000000000000, 0.000000000000000000, 1.000000000000000000 ) ) ;
#1075 = CIRCLE ( 'NONE', #580, 0.1249999999999998890 ) ;
#1076 = CIRCLE ( 'NONE', #515, 8.000000000000000000 ) ;
#1077 = CARTESIAN_POINT ( 'NONE',  ( -3.000000000000042188, 13.99999999999999112, -6.000000000000000888 ) ) ;
#1078 = CYLINDRICAL_SURFACE ( 'NONE', #61, 3.550000000000001155 ) ;
#1079 = FACE_OUTER_BOUND ( 'NONE', #133, .T. ) ;
#1080 = ADVANCED_FACE ( 'NONE', ( #354 ), #1061, .F. ) ;
#1081 = LINE ( 'NONE', #657, #490 ) ;
#1082 = FACE_OUTER_BOUND ( 'NONE', #48, .T. ) ;
#1083 = ORIENTED_EDGE ( 'NONE', *, *, #100, .T. ) ;
#1084 = ORIENTED_EDGE ( 'NONE', *, *, #146, .F. ) ;
#1085 = CARTESIAN_POINT ( 'NONE',  ( 17.74770348837209255, 0.000000000000000000, -1.423048628983896391 ) ) ;
#1086 = CARTESIAN_POINT ( 'NONE',  ( 17.74770348837209255, 0.000000000000000000, 1.423048628983896391 ) ) ;
#1087 = EDGE_CURVE ( 'NONE', #1147, #206, #349, .T. ) ;
#1088 = ORIENTED_EDGE ( 'NONE', *, *, #792, .T. ) ;
#1089 = DIRECTION ( 'NONE',  ( 0.000000000000000000, 0.000000000000000000, 1.000000000000000000 ) ) ;
#1090 = CARTESIAN_POINT ( 'NONE',  ( 10.99999999999999467, -1.000000000000000000, -12.00000000000000711 ) ) ;
#1091 = ORIENTED_EDGE ( 'NONE', *, *, #949, .F. ) ;
#1092 = DIRECTION ( 'NONE',  ( 0.000000000000000000, 0.000000000000000000, 1.000000000000000000 ) ) ;
#1093 =( GEOMETRIC_REPRESENTATION_CONTEXT ( 3 ) GLOBAL_UNCERTAINTY_ASSIGNED_CONTEXT ( ( #426 ) ) GLOBAL_UNIT_ASSIGNED_CONTEXT ( ( #985, #246, #512 ) ) REPRESENTATION_CONTEXT ( 'NONE', 'WORKASPACE' ) );
#1094 = VERTEX_POINT ( 'NONE', #523 ) ;
#1095 = DIRECTION ( 'NONE',  ( 1.000000000000000000, 3.491481338843133355E-15, -0.000000000000000000 ) ) ;
#1096 = DIRECTION ( 'NONE',  ( 0.000000000000000000, -0.000000000000000000, -1.000000000000000000 ) ) ;
#1097 = ORIENTED_EDGE ( 'NONE', *, *, #840, .T. ) ;
#1098 = EDGE_CURVE ( 'NONE', #141, #147, #262, .T. ) ;
#1099 = DIRECTION ( 'NONE',  ( -0.000000000000000000, -0.000000000000000000, -1.000000000000000000 ) ) ;
#1100 = DIRECTION ( 'NONE',  ( -1.000000000000000000, 0.000000000000000000, -0.000000000000000000 ) ) ;
#1101 = LINE ( 'NONE', #575, #116 ) ;
#1102 = VECTOR ( 'NONE', #121, 1000.000000000000000 ) ;
#1103 = FACE_BOUND ( 'NONE', #735, .T. ) ;
#1104 = EDGE_LOOP ( 'NONE', ( #77, #1046, #261, #600 ) ) ;
#1105 = DIRECTION ( 'NONE',  ( 1.000000000000000000, 3.491481338843133750E-15, -0.000000000000000000 ) ) ;
#1106 = VERTEX_POINT ( 'NONE', #801 ) ;
#1107 = CARTESIAN_POINT ( 'NONE',  ( -3.000000000000063061, 20.00000000000000000, 12.00000000000000000 ) ) ;
#1108 = CARTESIAN_POINT ( 'NONE',  ( 0.000000000000000000, 2.000000000000000000, -12.00000000000000000 ) ) ;
#1109 = VECTOR ( 'NONE', #644, 1000.000000000000000 ) ;
#1110 = EDGE_CURVE ( 'NONE', #745, #947, #250, .T. ) ;
#1111 = ORIENTED_EDGE ( 'NONE', *, *, #309, .F. ) ;
#1112 = CARTESIAN_POINT ( 'NONE',  ( -2.000000000000063061, 20.00000000000000355, 12.00000000000000000 ) ) ;
#1113 = ORIENTED_EDGE ( 'NONE', *, *, #876, .F. ) ;
#1114 = DIRECTION ( 'NONE',  ( 0.000000000000000000, 1.000000000000000000, 0.000000000000000000 ) ) ;
#1115 = ORIENTED_EDGE ( 'NONE', *, *, #470, .F. ) ;
#1116 = CARTESIAN_POINT ( 'NONE',  ( -3.000000000000020872, 7.999999999999986677, -4.000000000000000888 ) ) ;
#1117 = EDGE_LOOP ( 'NONE', ( #771, #1019, #992, #243 ) ) ;
#1118 = AXIS2_PLACEMENT_3D ( 'NONE', #276, #259, #964 ) ;
#1119 = LINE ( 'NONE', #129, #917 ) ;
#1120 = ORIENTED_EDGE ( 'NONE', *, *, #195, .F. ) ;
#1121 = LINE ( 'NONE', #1036, #940 ) ;
#1122 = AXIS2_PLACEMENT_3D ( 'NONE', #1108, #56, #768 ) ;
#1123 = EDGE_CURVE ( 'NONE', #526, #852, #1048, .T. ) ;
#1124 = EDGE_CURVE ( 'NONE', #706, #916, #593, .T. ) ;
#1125 = CARTESIAN_POINT ( 'NONE',  ( 0.000000000000000000, 0.000000000000000000, 12.00000000000000000 ) ) ;
#1126 = EDGE_CURVE ( 'NONE', #815, #440, #78, .T. ) ;
#1127 = VECTOR ( 'NONE', #625, 1000.000000000000000 ) ;
#1128 = AXIS2_PLACEMENT_3D ( 'NONE', #240, #1105, #332 ) ;
#1129 = CARTESIAN_POINT ( 'NONE',  ( 15.83999999999999986, -1.000000000000000000, 0.000000000000000000 ) ) ;
#1130 = VERTEX_POINT ( 'NONE', #186 ) ;
#1131 = AXIS2_PLACEMENT_3D ( 'NONE', #563, #922, #123 ) ;
#1132 = ADVANCED_FACE ( 'NONE', ( #173 ), #883, .T. ) ;
#1133 = EDGE_LOOP ( 'NONE', ( #405, #837, #350, #459 ) ) ;
#1134 = CARTESIAN_POINT ( 'NONE',  ( 21.00000000000000000, 0.000000000000000000, 3.550000000000001155 ) ) ;
#1135 = ORIENTED_EDGE ( 'NONE', *, *, #60, .T. ) ;
#1136 = DIRECTION ( 'NONE',  ( 3.469446951953617344E-15, -1.000000000000000000, 0.000000000000000000 ) ) ;
#1137 = CYLINDRICAL_SURFACE ( 'NONE', #90, 3.550000000000001155 ) ;
#1138 = ORIENTED_EDGE ( 'NONE', *, *, #792, .F. ) ;
#1139 = EDGE_CURVE ( 'NONE', #661, #1013, #835, .T. ) ;
#1140 = ORIENTED_EDGE ( 'NONE', *, *, #1098, .T. ) ;
#1141 = STYLED_ITEM ( 'NONE', ( #418 ), #787 ) ;
#1142 = DIRECTION ( 'NONE',  ( 3.491481338843133750E-15, -1.000000000000000000, -0.000000000000000000 ) ) ;
#1143 = VERTEX_POINT ( 'NONE', #627 ) ;
#1144 = CARTESIAN_POINT ( 'NONE',  ( -1.750000000000057954, 18.56250000000000355, 0.000000000000000000 ) ) ;
#1145 = ORIENTED_EDGE ( 'NONE', *, *, #68, .T. ) ;
#1146 = CARTESIAN_POINT ( 'NONE',  ( 0.000000000000000000, -1.000000000000000000, 12.00000000000000000 ) ) ;
#1147 = VERTEX_POINT ( 'NONE', #380 ) ;
#1148 = CARTESIAN_POINT ( 'NONE',  ( -2.000000000000062617, 20.00000000000000355, 12.00000000000000000 ) ) ;
#1149 = VECTOR ( 'NONE', #547, 999.9999999999998863 ) ;
#1150 = CARTESIAN_POINT ( 'NONE',  ( 21.00000000000000000, 0.000000000000000000, 0.000000000000000000 ) ) ;
#1151 = EDGE_CURVE ( 'NONE', #230, #409, #664, .T. ) ;
#1152 = VECTOR ( 'NONE', #496, 1000.000000000000000 ) ;
ENDSEC;
END-ISO-10303-21;
