ISO-10303-21;
HEADER;
/* Generated by software containing ST-Developer
 * from STEP Tools, Inc. (www.steptools.com) 
 */

FILE_DESCRIPTION(
/* description */ (''),
/* implementation_level */ '2;1');

FILE_NAME(
/* name */ 'Clevis Mount.step',
/* time_stamp */ '2026-02-13T12:31:22+02:00',
/* author */ (''),
/* organization */ (''),
/* preprocessor_version */ 'ST-DEVELOPER v20.1',
/* originating_system */ 'Autodesk Translation Framework v14.24.0.0',
/* authorisation */ '');

FILE_SCHEMA (('AUTOMOTIVE_DESIGN { 1 0 10303 214 3 1 1 }'));
ENDSEC;

DATA;
#10=MECHANICAL_DESIGN_GEOMETRIC_PRESENTATION_REPRESENTATION('',(#13),#776);
#11=SHAPE_REPRESENTATION_RELATIONSHIP('SRR','None',#783,#12);
#12=ADVANCED_BREP_SHAPE_REPRESENTATION('',(#14),#775);
#13=STYLED_ITEM('',(#792),#14);
#14=MANIFOLD_SOLID_BREP('Body1',#456);
#15=FACE_BOUND('',#75,.T.);
#16=FACE_BOUND('',#84,.T.);
#17=FACE_BOUND('',#88,.T.);
#18=CYLINDRICAL_SURFACE('',#479,40.);
#19=CYLINDRICAL_SURFACE('',#488,20.);
#20=CYLINDRICAL_SURFACE('',#491,20.);
#21=CYLINDRICAL_SURFACE('',#507,15.);
#22=CYLINDRICAL_SURFACE('',#509,25.);
#23=CIRCLE('',#476,20.);
#24=CIRCLE('',#478,20.);
#25=CIRCLE('',#480,40.);
#26=CIRCLE('',#481,40.);
#27=CIRCLE('',#482,40.);
#28=CIRCLE('',#483,40.);
#29=CIRCLE('',#484,40.);
#30=CIRCLE('',#485,40.);
#31=CIRCLE('',#486,40.);
#32=CIRCLE('',#489,20.);
#33=CIRCLE('',#492,20.);
#34=CIRCLE('',#497,15.);
#35=CIRCLE('',#506,25.);
#36=CIRCLE('',#508,15.);
#37=CIRCLE('',#510,25.);
#38=FACE_OUTER_BOUND('',#62,.T.);
#39=FACE_OUTER_BOUND('',#63,.T.);
#40=FACE_OUTER_BOUND('',#64,.T.);
#41=FACE_OUTER_BOUND('',#65,.T.);
#42=FACE_OUTER_BOUND('',#66,.T.);
#43=FACE_OUTER_BOUND('',#67,.T.);
#44=FACE_OUTER_BOUND('',#68,.T.);
#45=FACE_OUTER_BOUND('',#69,.T.);
#46=FACE_OUTER_BOUND('',#70,.T.);
#47=FACE_OUTER_BOUND('',#71,.T.);
#48=FACE_OUTER_BOUND('',#72,.T.);
#49=FACE_OUTER_BOUND('',#73,.T.);
#50=FACE_OUTER_BOUND('',#74,.T.);
#51=FACE_OUTER_BOUND('',#76,.T.);
#52=FACE_OUTER_BOUND('',#77,.T.);
#53=FACE_OUTER_BOUND('',#78,.T.);
#54=FACE_OUTER_BOUND('',#79,.T.);
#55=FACE_OUTER_BOUND('',#80,.T.);
#56=FACE_OUTER_BOUND('',#81,.T.);
#57=FACE_OUTER_BOUND('',#82,.T.);
#58=FACE_OUTER_BOUND('',#83,.T.);
#59=FACE_OUTER_BOUND('',#85,.T.);
#60=FACE_OUTER_BOUND('',#86,.T.);
#61=FACE_OUTER_BOUND('',#87,.T.);
#62=EDGE_LOOP('',(#287,#288,#289,#290));
#63=EDGE_LOOP('',(#291,#292,#293,#294,#295));
#64=EDGE_LOOP('',(#296,#297,#298,#299,#300,#301,#302));
#65=EDGE_LOOP('',(#303,#304,#305,#306,#307,#308,#309));
#66=EDGE_LOOP('',(#310,#311,#312,#313,#314,#315,#316,#317,#318,#319,#320,
#321,#322,#323,#324,#325,#326,#327,#328,#329));
#67=EDGE_LOOP('',(#330,#331,#332,#333));
#68=EDGE_LOOP('',(#334,#335,#336,#337));
#69=EDGE_LOOP('',(#338,#339,#340,#341));
#70=EDGE_LOOP('',(#342,#343,#344,#345));
#71=EDGE_LOOP('',(#346,#347,#348,#349));
#72=EDGE_LOOP('',(#350,#351,#352,#353));
#73=EDGE_LOOP('',(#354,#355,#356,#357,#358,#359,#360,#361));
#74=EDGE_LOOP('',(#362,#363,#364,#365));
#75=EDGE_LOOP('',(#366));
#76=EDGE_LOOP('',(#367,#368,#369,#370,#371,#372,#373,#374));
#77=EDGE_LOOP('',(#375,#376,#377));
#78=EDGE_LOOP('',(#378,#379,#380));
#79=EDGE_LOOP('',(#381,#382,#383));
#80=EDGE_LOOP('',(#384,#385,#386,#387,#388,#389,#390));
#81=EDGE_LOOP('',(#391,#392,#393));
#82=EDGE_LOOP('',(#394,#395,#396,#397,#398,#399,#400));
#83=EDGE_LOOP('',(#401));
#84=EDGE_LOOP('',(#402));
#85=EDGE_LOOP('',(#403,#404,#405,#406));
#86=EDGE_LOOP('',(#407,#408,#409,#410));
#87=EDGE_LOOP('',(#411));
#88=EDGE_LOOP('',(#412));
#89=ELLIPSE('',#471,80.6225774829855,40.);
#90=ELLIPSE('',#473,80.6225774829855,40.);
#91=ELLIPSE('',#474,80.6225774829855,40.);
#92=LINE('',#647,#137);
#93=LINE('',#649,#138);
#94=LINE('',#651,#139);
#95=LINE('',#656,#140);
#96=LINE('',#662,#141);
#97=LINE('',#663,#142);
#98=LINE('',#666,#143);
#99=LINE('',#668,#144);
#100=LINE('',#672,#145);
#101=LINE('',#674,#146);
#102=LINE('',#675,#147);
#103=LINE('',#678,#148);
#104=LINE('',#680,#149);
#105=LINE('',#684,#150);
#106=LINE('',#686,#151);
#107=LINE('',#687,#152);
#108=LINE('',#692,#153);
#109=LINE('',#696,#154);
#110=LINE('',#699,#155);
#111=LINE('',#701,#156);
#112=LINE('',#706,#157);
#113=LINE('',#710,#158);
#114=LINE('',#713,#159);
#115=LINE('',#716,#160);
#116=LINE('',#717,#161);
#117=LINE('',#720,#162);
#118=LINE('',#723,#163);
#119=LINE('',#726,#164);
#120=LINE('',#727,#165);
#121=LINE('',#730,#166);
#122=LINE('',#733,#167);
#123=LINE('',#735,#168);
#124=LINE('',#737,#169);
#125=LINE('',#740,#170);
#126=LINE('',#741,#171);
#127=LINE('',#742,#172);
#128=LINE('',#743,#173);
#129=LINE('',#745,#174);
#130=LINE('',#749,#175);
#131=LINE('',#751,#176);
#132=LINE('',#752,#177);
#133=LINE('',#755,#178);
#134=LINE('',#759,#179);
#135=LINE('',#766,#180);
#136=LINE('',#770,#181);
#137=VECTOR('',#516,10.);
#138=VECTOR('',#517,10.);
#139=VECTOR('',#518,10.);
#140=VECTOR('',#523,10.);
#141=VECTOR('',#528,10.);
#142=VECTOR('',#529,10.);
#143=VECTOR('',#532,10.);
#144=VECTOR('',#533,10.);
#145=VECTOR('',#536,10.);
#146=VECTOR('',#537,10.);
#147=VECTOR('',#538,10.);
#148=VECTOR('',#541,10.);
#149=VECTOR('',#542,10.);
#150=VECTOR('',#545,10.);
#151=VECTOR('',#546,10.);
#152=VECTOR('',#547,10.);
#153=VECTOR('',#552,10.);
#154=VECTOR('',#555,10.);
#155=VECTOR('',#558,10.);
#156=VECTOR('',#559,40.);
#157=VECTOR('',#564,10.);
#158=VECTOR('',#567,10.);
#159=VECTOR('',#570,10.);
#160=VECTOR('',#573,10.);
#161=VECTOR('',#574,10.);
#162=VECTOR('',#577,10.);
#163=VECTOR('',#580,10.);
#164=VECTOR('',#583,10.);
#165=VECTOR('',#584,10.);
#166=VECTOR('',#587,10.);
#167=VECTOR('',#590,10.);
#168=VECTOR('',#593,10.);
#169=VECTOR('',#596,10.);
#170=VECTOR('',#599,10.);
#171=VECTOR('',#600,10.);
#172=VECTOR('',#601,10.);
#173=VECTOR('',#602,10.);
#174=VECTOR('',#605,10.);
#175=VECTOR('',#610,10.);
#176=VECTOR('',#611,10.);
#177=VECTOR('',#612,10.);
#178=VECTOR('',#617,10.);
#179=VECTOR('',#624,10.);
#180=VECTOR('',#633,15.);
#181=VECTOR('',#638,25.);
#182=VERTEX_POINT('',#645);
#183=VERTEX_POINT('',#646);
#184=VERTEX_POINT('',#648);
#185=VERTEX_POINT('',#650);
#186=VERTEX_POINT('',#654);
#187=VERTEX_POINT('',#655);
#188=VERTEX_POINT('',#657);
#189=VERTEX_POINT('',#659);
#190=VERTEX_POINT('',#661);
#191=VERTEX_POINT('',#665);
#192=VERTEX_POINT('',#667);
#193=VERTEX_POINT('',#669);
#194=VERTEX_POINT('',#671);
#195=VERTEX_POINT('',#673);
#196=VERTEX_POINT('',#677);
#197=VERTEX_POINT('',#679);
#198=VERTEX_POINT('',#681);
#199=VERTEX_POINT('',#683);
#200=VERTEX_POINT('',#685);
#201=VERTEX_POINT('',#689);
#202=VERTEX_POINT('',#691);
#203=VERTEX_POINT('',#693);
#204=VERTEX_POINT('',#695);
#205=VERTEX_POINT('',#697);
#206=VERTEX_POINT('',#700);
#207=VERTEX_POINT('',#703);
#208=VERTEX_POINT('',#705);
#209=VERTEX_POINT('',#707);
#210=VERTEX_POINT('',#709);
#211=VERTEX_POINT('',#711);
#212=VERTEX_POINT('',#715);
#213=VERTEX_POINT('',#719);
#214=VERTEX_POINT('',#721);
#215=VERTEX_POINT('',#725);
#216=VERTEX_POINT('',#729);
#217=VERTEX_POINT('',#731);
#218=VERTEX_POINT('',#739);
#219=VERTEX_POINT('',#746);
#220=VERTEX_POINT('',#750);
#221=VERTEX_POINT('',#762);
#222=VERTEX_POINT('',#765);
#223=VERTEX_POINT('',#769);
#224=EDGE_CURVE('',#182,#183,#92,.T.);
#225=EDGE_CURVE('',#184,#182,#93,.T.);
#226=EDGE_CURVE('',#185,#184,#94,.T.);
#227=EDGE_CURVE('',#183,#185,#89,.T.);
#228=EDGE_CURVE('',#186,#187,#95,.T.);
#229=EDGE_CURVE('',#188,#186,#90,.T.);
#230=EDGE_CURVE('',#189,#188,#91,.T.);
#231=EDGE_CURVE('',#190,#189,#96,.T.);
#232=EDGE_CURVE('',#187,#190,#97,.T.);
#233=EDGE_CURVE('',#191,#184,#98,.T.);
#234=EDGE_CURVE('',#191,#192,#99,.T.);
#235=EDGE_CURVE('',#192,#193,#23,.T.);
#236=EDGE_CURVE('',#193,#194,#100,.T.);
#237=EDGE_CURVE('',#195,#194,#101,.T.);
#238=EDGE_CURVE('',#185,#195,#102,.T.);
#239=EDGE_CURVE('',#196,#187,#103,.T.);
#240=EDGE_CURVE('',#196,#197,#104,.T.);
#241=EDGE_CURVE('',#197,#198,#24,.T.);
#242=EDGE_CURVE('',#198,#199,#105,.T.);
#243=EDGE_CURVE('',#199,#200,#106,.T.);
#244=EDGE_CURVE('',#186,#200,#107,.T.);
#245=EDGE_CURVE('',#195,#201,#25,.T.);
#246=EDGE_CURVE('',#201,#202,#108,.T.);
#247=EDGE_CURVE('',#202,#203,#26,.T.);
#248=EDGE_CURVE('',#203,#204,#109,.T.);
#249=EDGE_CURVE('',#204,#205,#27,.T.);
#250=EDGE_CURVE('',#205,#189,#110,.T.);
#251=EDGE_CURVE('',#188,#206,#111,.T.);
#252=EDGE_CURVE('',#206,#206,#28,.T.);
#253=EDGE_CURVE('',#200,#207,#29,.T.);
#254=EDGE_CURVE('',#207,#208,#112,.T.);
#255=EDGE_CURVE('',#208,#209,#30,.T.);
#256=EDGE_CURVE('',#209,#210,#113,.T.);
#257=EDGE_CURVE('',#210,#211,#31,.T.);
#258=EDGE_CURVE('',#211,#183,#114,.T.);
#259=EDGE_CURVE('',#190,#212,#115,.T.);
#260=EDGE_CURVE('',#212,#196,#116,.T.);
#261=EDGE_CURVE('',#197,#213,#117,.T.);
#262=EDGE_CURVE('',#214,#213,#32,.T.);
#263=EDGE_CURVE('',#198,#214,#118,.T.);
#264=EDGE_CURVE('',#182,#215,#119,.T.);
#265=EDGE_CURVE('',#215,#191,#120,.T.);
#266=EDGE_CURVE('',#216,#192,#121,.T.);
#267=EDGE_CURVE('',#217,#216,#33,.T.);
#268=EDGE_CURVE('',#217,#193,#122,.T.);
#269=EDGE_CURVE('',#216,#215,#123,.T.);
#270=EDGE_CURVE('',#213,#212,#124,.T.);
#271=EDGE_CURVE('',#218,#217,#125,.T.);
#272=EDGE_CURVE('',#210,#218,#126,.T.);
#273=EDGE_CURVE('',#209,#202,#127,.T.);
#274=EDGE_CURVE('',#194,#201,#128,.T.);
#275=EDGE_CURVE('',#208,#203,#129,.T.);
#276=EDGE_CURVE('',#219,#219,#34,.T.);
#277=EDGE_CURVE('',#199,#207,#130,.T.);
#278=EDGE_CURVE('',#220,#214,#131,.T.);
#279=EDGE_CURVE('',#204,#220,#132,.T.);
#280=EDGE_CURVE('',#220,#205,#133,.T.);
#281=EDGE_CURVE('',#211,#218,#134,.T.);
#282=EDGE_CURVE('',#221,#221,#35,.T.);
#283=EDGE_CURVE('',#219,#222,#135,.T.);
#284=EDGE_CURVE('',#222,#222,#36,.T.);
#285=EDGE_CURVE('',#221,#223,#136,.T.);
#286=EDGE_CURVE('',#223,#223,#37,.T.);
#287=ORIENTED_EDGE('',*,*,#224,.F.);
#288=ORIENTED_EDGE('',*,*,#225,.F.);
#289=ORIENTED_EDGE('',*,*,#226,.F.);
#290=ORIENTED_EDGE('',*,*,#227,.F.);
#291=ORIENTED_EDGE('',*,*,#228,.F.);
#292=ORIENTED_EDGE('',*,*,#229,.F.);
#293=ORIENTED_EDGE('',*,*,#230,.F.);
#294=ORIENTED_EDGE('',*,*,#231,.F.);
#295=ORIENTED_EDGE('',*,*,#232,.F.);
#296=ORIENTED_EDGE('',*,*,#226,.T.);
#297=ORIENTED_EDGE('',*,*,#233,.F.);
#298=ORIENTED_EDGE('',*,*,#234,.T.);
#299=ORIENTED_EDGE('',*,*,#235,.T.);
#300=ORIENTED_EDGE('',*,*,#236,.T.);
#301=ORIENTED_EDGE('',*,*,#237,.F.);
#302=ORIENTED_EDGE('',*,*,#238,.F.);
#303=ORIENTED_EDGE('',*,*,#228,.T.);
#304=ORIENTED_EDGE('',*,*,#239,.F.);
#305=ORIENTED_EDGE('',*,*,#240,.T.);
#306=ORIENTED_EDGE('',*,*,#241,.T.);
#307=ORIENTED_EDGE('',*,*,#242,.T.);
#308=ORIENTED_EDGE('',*,*,#243,.T.);
#309=ORIENTED_EDGE('',*,*,#244,.F.);
#310=ORIENTED_EDGE('',*,*,#227,.T.);
#311=ORIENTED_EDGE('',*,*,#238,.T.);
#312=ORIENTED_EDGE('',*,*,#245,.T.);
#313=ORIENTED_EDGE('',*,*,#246,.T.);
#314=ORIENTED_EDGE('',*,*,#247,.T.);
#315=ORIENTED_EDGE('',*,*,#248,.T.);
#316=ORIENTED_EDGE('',*,*,#249,.T.);
#317=ORIENTED_EDGE('',*,*,#250,.T.);
#318=ORIENTED_EDGE('',*,*,#230,.T.);
#319=ORIENTED_EDGE('',*,*,#251,.T.);
#320=ORIENTED_EDGE('',*,*,#252,.T.);
#321=ORIENTED_EDGE('',*,*,#251,.F.);
#322=ORIENTED_EDGE('',*,*,#229,.T.);
#323=ORIENTED_EDGE('',*,*,#244,.T.);
#324=ORIENTED_EDGE('',*,*,#253,.T.);
#325=ORIENTED_EDGE('',*,*,#254,.T.);
#326=ORIENTED_EDGE('',*,*,#255,.T.);
#327=ORIENTED_EDGE('',*,*,#256,.T.);
#328=ORIENTED_EDGE('',*,*,#257,.T.);
#329=ORIENTED_EDGE('',*,*,#258,.T.);
#330=ORIENTED_EDGE('',*,*,#232,.T.);
#331=ORIENTED_EDGE('',*,*,#259,.T.);
#332=ORIENTED_EDGE('',*,*,#260,.T.);
#333=ORIENTED_EDGE('',*,*,#239,.T.);
#334=ORIENTED_EDGE('',*,*,#261,.T.);
#335=ORIENTED_EDGE('',*,*,#262,.F.);
#336=ORIENTED_EDGE('',*,*,#263,.F.);
#337=ORIENTED_EDGE('',*,*,#241,.F.);
#338=ORIENTED_EDGE('',*,*,#225,.T.);
#339=ORIENTED_EDGE('',*,*,#264,.T.);
#340=ORIENTED_EDGE('',*,*,#265,.T.);
#341=ORIENTED_EDGE('',*,*,#233,.T.);
#342=ORIENTED_EDGE('',*,*,#266,.F.);
#343=ORIENTED_EDGE('',*,*,#267,.F.);
#344=ORIENTED_EDGE('',*,*,#268,.T.);
#345=ORIENTED_EDGE('',*,*,#235,.F.);
#346=ORIENTED_EDGE('',*,*,#266,.T.);
#347=ORIENTED_EDGE('',*,*,#234,.F.);
#348=ORIENTED_EDGE('',*,*,#265,.F.);
#349=ORIENTED_EDGE('',*,*,#269,.F.);
#350=ORIENTED_EDGE('',*,*,#270,.F.);
#351=ORIENTED_EDGE('',*,*,#261,.F.);
#352=ORIENTED_EDGE('',*,*,#240,.F.);
#353=ORIENTED_EDGE('',*,*,#260,.F.);
#354=ORIENTED_EDGE('',*,*,#271,.F.);
#355=ORIENTED_EDGE('',*,*,#272,.F.);
#356=ORIENTED_EDGE('',*,*,#256,.F.);
#357=ORIENTED_EDGE('',*,*,#273,.T.);
#358=ORIENTED_EDGE('',*,*,#246,.F.);
#359=ORIENTED_EDGE('',*,*,#274,.F.);
#360=ORIENTED_EDGE('',*,*,#236,.F.);
#361=ORIENTED_EDGE('',*,*,#268,.F.);
#362=ORIENTED_EDGE('',*,*,#255,.F.);
#363=ORIENTED_EDGE('',*,*,#275,.T.);
#364=ORIENTED_EDGE('',*,*,#247,.F.);
#365=ORIENTED_EDGE('',*,*,#273,.F.);
#366=ORIENTED_EDGE('',*,*,#276,.F.);
#367=ORIENTED_EDGE('',*,*,#254,.F.);
#368=ORIENTED_EDGE('',*,*,#277,.F.);
#369=ORIENTED_EDGE('',*,*,#242,.F.);
#370=ORIENTED_EDGE('',*,*,#263,.T.);
#371=ORIENTED_EDGE('',*,*,#278,.F.);
#372=ORIENTED_EDGE('',*,*,#279,.F.);
#373=ORIENTED_EDGE('',*,*,#248,.F.);
#374=ORIENTED_EDGE('',*,*,#275,.F.);
#375=ORIENTED_EDGE('',*,*,#277,.T.);
#376=ORIENTED_EDGE('',*,*,#253,.F.);
#377=ORIENTED_EDGE('',*,*,#243,.F.);
#378=ORIENTED_EDGE('',*,*,#279,.T.);
#379=ORIENTED_EDGE('',*,*,#280,.T.);
#380=ORIENTED_EDGE('',*,*,#249,.F.);
#381=ORIENTED_EDGE('',*,*,#274,.T.);
#382=ORIENTED_EDGE('',*,*,#245,.F.);
#383=ORIENTED_EDGE('',*,*,#237,.T.);
#384=ORIENTED_EDGE('',*,*,#231,.T.);
#385=ORIENTED_EDGE('',*,*,#250,.F.);
#386=ORIENTED_EDGE('',*,*,#280,.F.);
#387=ORIENTED_EDGE('',*,*,#278,.T.);
#388=ORIENTED_EDGE('',*,*,#262,.T.);
#389=ORIENTED_EDGE('',*,*,#270,.T.);
#390=ORIENTED_EDGE('',*,*,#259,.F.);
#391=ORIENTED_EDGE('',*,*,#272,.T.);
#392=ORIENTED_EDGE('',*,*,#281,.F.);
#393=ORIENTED_EDGE('',*,*,#257,.F.);
#394=ORIENTED_EDGE('',*,*,#224,.T.);
#395=ORIENTED_EDGE('',*,*,#258,.F.);
#396=ORIENTED_EDGE('',*,*,#281,.T.);
#397=ORIENTED_EDGE('',*,*,#271,.T.);
#398=ORIENTED_EDGE('',*,*,#267,.T.);
#399=ORIENTED_EDGE('',*,*,#269,.T.);
#400=ORIENTED_EDGE('',*,*,#264,.F.);
#401=ORIENTED_EDGE('',*,*,#252,.F.);
#402=ORIENTED_EDGE('',*,*,#282,.T.);
#403=ORIENTED_EDGE('',*,*,#276,.T.);
#404=ORIENTED_EDGE('',*,*,#283,.T.);
#405=ORIENTED_EDGE('',*,*,#284,.T.);
#406=ORIENTED_EDGE('',*,*,#283,.F.);
#407=ORIENTED_EDGE('',*,*,#282,.F.);
#408=ORIENTED_EDGE('',*,*,#285,.T.);
#409=ORIENTED_EDGE('',*,*,#286,.T.);
#410=ORIENTED_EDGE('',*,*,#285,.F.);
#411=ORIENTED_EDGE('',*,*,#286,.F.);
#412=ORIENTED_EDGE('',*,*,#284,.F.);
#413=PLANE('',#470);
#414=PLANE('',#472);
#415=PLANE('',#475);
#416=PLANE('',#477);
#417=PLANE('',#487);
#418=PLANE('',#490);
#419=PLANE('',#493);
#420=PLANE('',#494);
#421=PLANE('',#495);
#422=PLANE('',#496);
#423=PLANE('',#498);
#424=PLANE('',#499);
#425=PLANE('',#500);
#426=PLANE('',#501);
#427=PLANE('',#502);
#428=PLANE('',#503);
#429=PLANE('',#504);
#430=PLANE('',#505);
#431=PLANE('',#511);
#432=ADVANCED_FACE('',(#38),#413,.F.);
#433=ADVANCED_FACE('',(#39),#414,.F.);
#434=ADVANCED_FACE('',(#40),#415,.F.);
#435=ADVANCED_FACE('',(#41),#416,.F.);
#436=ADVANCED_FACE('',(#42),#18,.T.);
#437=ADVANCED_FACE('',(#43),#417,.T.);
#438=ADVANCED_FACE('',(#44),#19,.F.);
#439=ADVANCED_FACE('',(#45),#418,.T.);
#440=ADVANCED_FACE('',(#46),#20,.F.);
#441=ADVANCED_FACE('',(#47),#419,.F.);
#442=ADVANCED_FACE('',(#48),#420,.F.);
#443=ADVANCED_FACE('',(#49),#421,.F.);
#444=ADVANCED_FACE('',(#50,#15),#422,.F.);
#445=ADVANCED_FACE('',(#51),#423,.F.);
#446=ADVANCED_FACE('',(#52),#424,.F.);
#447=ADVANCED_FACE('',(#53),#425,.F.);
#448=ADVANCED_FACE('',(#54),#426,.F.);
#449=ADVANCED_FACE('',(#55),#427,.F.);
#450=ADVANCED_FACE('',(#56),#428,.F.);
#451=ADVANCED_FACE('',(#57),#429,.F.);
#452=ADVANCED_FACE('',(#58,#16),#430,.F.);
#453=ADVANCED_FACE('',(#59),#21,.F.);
#454=ADVANCED_FACE('',(#60),#22,.T.);
#455=ADVANCED_FACE('',(#61,#17),#431,.F.);
#456=CLOSED_SHELL('',(#432,#433,#434,#435,#436,#437,#438,#439,#440,#441,
#442,#443,#444,#445,#446,#447,#448,#449,#450,#451,#452,#453,#454,#455));
#457=DERIVED_UNIT_ELEMENT(#459,1.);
#458=DERIVED_UNIT_ELEMENT(#778,-3.);
#459=(
MASS_UNIT()
NAMED_UNIT(*)
SI_UNIT(.KILO.,.GRAM.)
);
#460=DERIVED_UNIT((#457,#458));
#461=MEASURE_REPRESENTATION_ITEM('density measure',
POSITIVE_RATIO_MEASURE(7850.),#460);
#462=PROPERTY_DEFINITION_REPRESENTATION(#467,#464);
#463=PROPERTY_DEFINITION_REPRESENTATION(#468,#465);
#464=REPRESENTATION('material name',(#466),#775);
#465=REPRESENTATION('density',(#461),#775);
#466=DESCRIPTIVE_REPRESENTATION_ITEM('Steel','Steel');
#467=PROPERTY_DEFINITION('material property','material name',#785);
#468=PROPERTY_DEFINITION('material property','density of part',#785);
#469=AXIS2_PLACEMENT_3D('',#643,#512,#513);
#470=AXIS2_PLACEMENT_3D('',#644,#514,#515);
#471=AXIS2_PLACEMENT_3D('',#652,#519,#520);
#472=AXIS2_PLACEMENT_3D('',#653,#521,#522);
#473=AXIS2_PLACEMENT_3D('',#658,#524,#525);
#474=AXIS2_PLACEMENT_3D('',#660,#526,#527);
#475=AXIS2_PLACEMENT_3D('',#664,#530,#531);
#476=AXIS2_PLACEMENT_3D('',#670,#534,#535);
#477=AXIS2_PLACEMENT_3D('',#676,#539,#540);
#478=AXIS2_PLACEMENT_3D('',#682,#543,#544);
#479=AXIS2_PLACEMENT_3D('',#688,#548,#549);
#480=AXIS2_PLACEMENT_3D('',#690,#550,#551);
#481=AXIS2_PLACEMENT_3D('',#694,#553,#554);
#482=AXIS2_PLACEMENT_3D('',#698,#556,#557);
#483=AXIS2_PLACEMENT_3D('',#702,#560,#561);
#484=AXIS2_PLACEMENT_3D('',#704,#562,#563);
#485=AXIS2_PLACEMENT_3D('',#708,#565,#566);
#486=AXIS2_PLACEMENT_3D('',#712,#568,#569);
#487=AXIS2_PLACEMENT_3D('',#714,#571,#572);
#488=AXIS2_PLACEMENT_3D('',#718,#575,#576);
#489=AXIS2_PLACEMENT_3D('',#722,#578,#579);
#490=AXIS2_PLACEMENT_3D('',#724,#581,#582);
#491=AXIS2_PLACEMENT_3D('',#728,#585,#586);
#492=AXIS2_PLACEMENT_3D('',#732,#588,#589);
#493=AXIS2_PLACEMENT_3D('',#734,#591,#592);
#494=AXIS2_PLACEMENT_3D('',#736,#594,#595);
#495=AXIS2_PLACEMENT_3D('',#738,#597,#598);
#496=AXIS2_PLACEMENT_3D('',#744,#603,#604);
#497=AXIS2_PLACEMENT_3D('',#747,#606,#607);
#498=AXIS2_PLACEMENT_3D('',#748,#608,#609);
#499=AXIS2_PLACEMENT_3D('',#753,#613,#614);
#500=AXIS2_PLACEMENT_3D('',#754,#615,#616);
#501=AXIS2_PLACEMENT_3D('',#756,#618,#619);
#502=AXIS2_PLACEMENT_3D('',#757,#620,#621);
#503=AXIS2_PLACEMENT_3D('',#758,#622,#623);
#504=AXIS2_PLACEMENT_3D('',#760,#625,#626);
#505=AXIS2_PLACEMENT_3D('',#761,#627,#628);
#506=AXIS2_PLACEMENT_3D('',#763,#629,#630);
#507=AXIS2_PLACEMENT_3D('',#764,#631,#632);
#508=AXIS2_PLACEMENT_3D('',#767,#634,#635);
#509=AXIS2_PLACEMENT_3D('',#768,#636,#637);
#510=AXIS2_PLACEMENT_3D('',#771,#639,#640);
#511=AXIS2_PLACEMENT_3D('',#772,#641,#642);
#512=DIRECTION('axis',(0.,0.,1.));
#513=DIRECTION('refdir',(1.,0.,0.));
#514=DIRECTION('center_axis',(0.868243142124459,0.,-0.496138938356834));
#515=DIRECTION('ref_axis',(-0.496138938356834,0.,-0.868243142124459));
#516=DIRECTION('',(-0.496138938356834,0.,-0.868243142124459));
#517=DIRECTION('',(0.,-1.,0.));
#518=DIRECTION('',(0.496138938356834,0.,0.868243142124459));
#519=DIRECTION('center_axis',(0.868243142124459,0.,-0.496138938356834));
#520=DIRECTION('ref_axis',(-0.496138938356834,0.,-0.868243142124459));
#521=DIRECTION('center_axis',(-0.868243142124459,0.,-0.496138938356834));
#522=DIRECTION('ref_axis',(-0.496138938356834,0.,0.868243142124459));
#523=DIRECTION('',(-0.496138938356834,0.,0.868243142124459));
#524=DIRECTION('center_axis',(-0.868243142124459,0.,-0.496138938356834));
#525=DIRECTION('ref_axis',(-0.496138938356834,0.,0.868243142124459));
#526=DIRECTION('center_axis',(-0.868243142124459,0.,-0.496138938356834));
#527=DIRECTION('ref_axis',(-0.496138938356834,0.,0.868243142124459));
#528=DIRECTION('',(0.496138938356834,0.,-0.868243142124459));
#529=DIRECTION('',(0.,1.,0.));
#530=DIRECTION('center_axis',(0.,-1.,0.));
#531=DIRECTION('ref_axis',(0.,0.,-1.));
#532=DIRECTION('',(-1.,0.,0.));
#533=DIRECTION('',(0.,0.,-1.));
#534=DIRECTION('center_axis',(0.,-1.,0.));
#535=DIRECTION('ref_axis',(-0.999999999999999,0.,5.43892380022725E-8));
#536=DIRECTION('',(0.,0.,-1.));
#537=DIRECTION('',(1.,0.,0.));
#538=DIRECTION('',(0.,0.,-1.));
#539=DIRECTION('center_axis',(0.,1.,0.));
#540=DIRECTION('ref_axis',(0.,0.,1.));
#541=DIRECTION('',(1.,0.,0.));
#542=DIRECTION('',(0.,0.,-1.));
#543=DIRECTION('center_axis',(0.,1.,0.));
#544=DIRECTION('ref_axis',(0.3,0.,0.953939201416946));
#545=DIRECTION('',(0.,0.,-1.));
#546=DIRECTION('',(1.,0.,0.));
#547=DIRECTION('',(0.,0.,-1.));
#548=DIRECTION('center_axis',(0.,0.,1.));
#549=DIRECTION('ref_axis',(-1.,0.,0.));
#550=DIRECTION('center_axis',(0.,0.,-1.));
#551=DIRECTION('ref_axis',(-1.,0.,0.));
#552=DIRECTION('',(0.,0.,-1.));
#553=DIRECTION('center_axis',(0.,0.,-1.));
#554=DIRECTION('ref_axis',(-1.,0.,0.));
#555=DIRECTION('',(0.,0.,1.));
#556=DIRECTION('center_axis',(0.,0.,-1.));
#557=DIRECTION('ref_axis',(-1.,0.,0.));
#558=DIRECTION('',(0.,0.,1.));
#559=DIRECTION('',(0.,0.,-1.));
#560=DIRECTION('center_axis',(0.,0.,1.));
#561=DIRECTION('ref_axis',(-1.,0.,0.));
#562=DIRECTION('center_axis',(0.,0.,-1.));
#563=DIRECTION('ref_axis',(-1.,0.,0.));
#564=DIRECTION('',(0.,0.,-1.));
#565=DIRECTION('center_axis',(0.,0.,-1.));
#566=DIRECTION('ref_axis',(-1.,0.,0.));
#567=DIRECTION('',(0.,0.,1.));
#568=DIRECTION('center_axis',(0.,0.,-1.));
#569=DIRECTION('ref_axis',(-1.,0.,0.));
#570=DIRECTION('',(0.,0.,1.));
#571=DIRECTION('center_axis',(0.,0.,1.));
#572=DIRECTION('ref_axis',(-1.,0.,0.));
#573=DIRECTION('',(-1.,0.,0.));
#574=DIRECTION('',(0.,-1.,0.));
#575=DIRECTION('center_axis',(0.,1.,0.));
#576=DIRECTION('ref_axis',(0.3,0.,0.953939201416946));
#577=DIRECTION('',(0.,1.,0.));
#578=DIRECTION('center_axis',(0.,-1.,0.));
#579=DIRECTION('ref_axis',(0.3,0.,0.953939201416946));
#580=DIRECTION('',(0.,1.,0.));
#581=DIRECTION('center_axis',(0.,0.,1.));
#582=DIRECTION('ref_axis',(-1.,0.,0.));
#583=DIRECTION('',(1.,0.,0.));
#584=DIRECTION('',(0.,1.,0.));
#585=DIRECTION('center_axis',(0.,1.,0.));
#586=DIRECTION('ref_axis',(-0.999999999999999,0.,5.43892380022725E-8));
#587=DIRECTION('',(0.,1.,0.));
#588=DIRECTION('center_axis',(0.,1.,0.));
#589=DIRECTION('ref_axis',(-0.999999999999999,0.,5.43892380022725E-8));
#590=DIRECTION('',(0.,1.,0.));
#591=DIRECTION('center_axis',(-1.,0.,0.));
#592=DIRECTION('ref_axis',(0.,0.,1.));
#593=DIRECTION('',(0.,0.,1.));
#594=DIRECTION('center_axis',(1.,0.,0.));
#595=DIRECTION('ref_axis',(0.,0.,-1.));
#596=DIRECTION('',(0.,0.,1.));
#597=DIRECTION('center_axis',(-1.,0.,0.));
#598=DIRECTION('ref_axis',(0.,0.,1.));
#599=DIRECTION('',(0.,0.,1.));
#600=DIRECTION('',(0.,1.,0.));
#601=DIRECTION('',(0.,1.,0.));
#602=DIRECTION('',(0.,1.,0.));
#603=DIRECTION('center_axis',(0.,0.,-1.));
#604=DIRECTION('ref_axis',(-1.,0.,0.));
#605=DIRECTION('',(0.,1.,0.));
#606=DIRECTION('center_axis',(0.,0.,1.));
#607=DIRECTION('ref_axis',(1.,0.,0.));
#608=DIRECTION('center_axis',(1.,0.,0.));
#609=DIRECTION('ref_axis',(0.,0.,-1.));
#610=DIRECTION('',(0.,-1.,0.));
#611=DIRECTION('',(0.,0.,1.));
#612=DIRECTION('',(0.,-1.,0.));
#613=DIRECTION('center_axis',(0.,0.,-1.));
#614=DIRECTION('ref_axis',(0.,1.,0.));
#615=DIRECTION('center_axis',(0.,0.,-1.));
#616=DIRECTION('ref_axis',(0.,1.,0.));
#617=DIRECTION('',(1.,0.,0.));
#618=DIRECTION('center_axis',(0.,0.,-1.));
#619=DIRECTION('ref_axis',(0.,1.,0.));
#620=DIRECTION('center_axis',(0.,-1.,0.));
#621=DIRECTION('ref_axis',(0.,0.,-1.));
#622=DIRECTION('center_axis',(0.,0.,-1.));
#623=DIRECTION('ref_axis',(0.,1.,0.));
#624=DIRECTION('',(1.,0.,0.));
#625=DIRECTION('center_axis',(0.,1.,0.));
#626=DIRECTION('ref_axis',(0.,0.,1.));
#627=DIRECTION('center_axis',(0.,0.,1.));
#628=DIRECTION('ref_axis',(-1.,0.,0.));
#629=DIRECTION('center_axis',(0.,0.,1.));
#630=DIRECTION('ref_axis',(1.,0.,0.));
#631=DIRECTION('center_axis',(0.,0.,1.));
#632=DIRECTION('ref_axis',(1.,0.,0.));
#633=DIRECTION('',(0.,0.,-1.));
#634=DIRECTION('center_axis',(0.,0.,-1.));
#635=DIRECTION('ref_axis',(1.,0.,0.));
#636=DIRECTION('center_axis',(0.,0.,1.));
#637=DIRECTION('ref_axis',(1.,0.,0.));
#638=DIRECTION('',(0.,0.,-1.));
#639=DIRECTION('center_axis',(0.,0.,1.));
#640=DIRECTION('ref_axis',(1.,0.,0.));
#641=DIRECTION('center_axis',(0.,0.,1.));
#642=DIRECTION('ref_axis',(1.,0.,0.));
#643=CARTESIAN_POINT('',(0.,0.,0.));
#644=CARTESIAN_POINT('Origin',(-20.,0.,105.));
#645=CARTESIAN_POINT('',(-20.,-20.,105.));
#646=CARTESIAN_POINT('',(-34.6410161513775,-20.,79.3782217350893));
#647=CARTESIAN_POINT('',(-28.3076923076923,-20.,90.4615384615385));
#648=CARTESIAN_POINT('',(-20.,20.,105.));
#649=CARTESIAN_POINT('',(-20.,0.,105.));
#650=CARTESIAN_POINT('',(-34.6410161513775,20.,79.3782217350893));
#651=CARTESIAN_POINT('',(-17.5384615384615,20.,109.307692307692));
#652=CARTESIAN_POINT('Origin',(0.,0.,140.));
#653=CARTESIAN_POINT('Origin',(40.,0.,70.));
#654=CARTESIAN_POINT('',(34.6410161513775,-20.,79.3782217350893));
#655=CARTESIAN_POINT('',(20.,-20.,105.));
#656=CARTESIAN_POINT('',(38.3076923076923,-20.,72.9615384615385));
#657=CARTESIAN_POINT('',(40.,4.89858719658942E-15,70.));
#658=CARTESIAN_POINT('Origin',(0.,0.,140.));
#659=CARTESIAN_POINT('',(34.6410161513775,20.,79.3782217350893));
#660=CARTESIAN_POINT('Origin',(0.,0.,140.));
#661=CARTESIAN_POINT('',(20.,20.,105.));
#662=CARTESIAN_POINT('',(27.5384615384615,20.,91.8076923076923));
#663=CARTESIAN_POINT('',(20.,0.,105.));
#664=CARTESIAN_POINT('Origin',(0.,20.,105.));
#665=CARTESIAN_POINT('',(-6.,20.,105.));
#666=CARTESIAN_POINT('',(0.,20.,105.));
#667=CARTESIAN_POINT('',(-6.,20.,92.078784028339));
#668=CARTESIAN_POINT('',(-6.,20.,98.5393920141695));
#669=CARTESIAN_POINT('',(-20.,20.,73.0000010877848));
#670=CARTESIAN_POINT('Origin',(0.,20.,73.));
#671=CARTESIAN_POINT('',(-20.,20.,55.));
#672=CARTESIAN_POINT('',(-20.,20.,75.));
#673=CARTESIAN_POINT('',(-34.6410161513775,20.,55.));
#674=CARTESIAN_POINT('',(0.,20.,55.));
#675=CARTESIAN_POINT('',(-34.6410161513775,20.,30.));
#676=CARTESIAN_POINT('Origin',(0.,-20.,55.));
#677=CARTESIAN_POINT('',(6.,-20.,105.));
#678=CARTESIAN_POINT('',(0.,-20.,105.));
#679=CARTESIAN_POINT('',(6.,-20.,92.078784028339));
#680=CARTESIAN_POINT('',(6.,-20.,81.7285348798679));
#681=CARTESIAN_POINT('',(20.,-20.,73.0000010877848));
#682=CARTESIAN_POINT('Origin',(0.,-20.,73.));
#683=CARTESIAN_POINT('',(20.,-20.,55.));
#684=CARTESIAN_POINT('',(20.,-20.,64.0000005438924));
#685=CARTESIAN_POINT('',(34.6410161513775,-20.,55.));
#686=CARTESIAN_POINT('',(0.,-20.,55.));
#687=CARTESIAN_POINT('',(34.6410161513775,-20.,30.));
#688=CARTESIAN_POINT('Origin',(0.,0.,30.));
#689=CARTESIAN_POINT('',(-20.,34.6410161513775,55.));
#690=CARTESIAN_POINT('Origin',(0.,0.,55.));
#691=CARTESIAN_POINT('',(-20.,34.6410161513775,45.));
#692=CARTESIAN_POINT('',(-20.,34.6410161513775,30.));
#693=CARTESIAN_POINT('',(20.,34.6410161513775,45.));
#694=CARTESIAN_POINT('Origin',(0.,0.,45.));
#695=CARTESIAN_POINT('',(20.,34.6410161513775,55.));
#696=CARTESIAN_POINT('',(20.,34.6410161513775,30.));
#697=CARTESIAN_POINT('',(34.6410161513775,20.,55.));
#698=CARTESIAN_POINT('Origin',(0.,0.,55.));
#699=CARTESIAN_POINT('',(34.6410161513775,20.,30.));
#700=CARTESIAN_POINT('',(40.,4.89858719658941E-15,30.));
#701=CARTESIAN_POINT('',(40.,4.89858719658941E-15,30.));
#702=CARTESIAN_POINT('Origin',(0.,0.,30.));
#703=CARTESIAN_POINT('',(20.,-34.6410161513775,55.));
#704=CARTESIAN_POINT('Origin',(0.,0.,55.));
#705=CARTESIAN_POINT('',(20.,-34.6410161513775,45.));
#706=CARTESIAN_POINT('',(20.,-34.6410161513775,30.));
#707=CARTESIAN_POINT('',(-20.,-34.6410161513775,45.));
#708=CARTESIAN_POINT('Origin',(0.,0.,45.));
#709=CARTESIAN_POINT('',(-20.,-34.6410161513775,55.));
#710=CARTESIAN_POINT('',(-20.,-34.6410161513775,30.));
#711=CARTESIAN_POINT('',(-34.6410161513775,-20.,55.));
#712=CARTESIAN_POINT('Origin',(0.,0.,55.));
#713=CARTESIAN_POINT('',(-34.6410161513775,-20.,30.));
#714=CARTESIAN_POINT('Origin',(0.,0.,105.));
#715=CARTESIAN_POINT('',(6.,20.,105.));
#716=CARTESIAN_POINT('',(0.,20.,105.));
#717=CARTESIAN_POINT('',(6.,0.,105.));
#718=CARTESIAN_POINT('Origin',(0.,0.,73.));
#719=CARTESIAN_POINT('',(6.,20.,92.078784028339));
#720=CARTESIAN_POINT('',(6.,0.,92.078784028339));
#721=CARTESIAN_POINT('',(20.,20.,73.0000010877848));
#722=CARTESIAN_POINT('Origin',(0.,20.,73.));
#723=CARTESIAN_POINT('',(20.,0.,73.0000010877848));
#724=CARTESIAN_POINT('Origin',(0.,0.,105.));
#725=CARTESIAN_POINT('',(-6.,-20.,105.));
#726=CARTESIAN_POINT('',(0.,-20.,105.));
#727=CARTESIAN_POINT('',(-6.,0.,105.));
#728=CARTESIAN_POINT('Origin',(0.,0.,73.));
#729=CARTESIAN_POINT('',(-6.,-20.,92.078784028339));
#730=CARTESIAN_POINT('',(-6.,0.,92.078784028339));
#731=CARTESIAN_POINT('',(-20.,-20.,73.0000010877848));
#732=CARTESIAN_POINT('Origin',(0.,-20.,73.));
#733=CARTESIAN_POINT('',(-20.,0.,73.0000010877848));
#734=CARTESIAN_POINT('Origin',(-6.,0.,92.078784028339));
#735=CARTESIAN_POINT('',(-6.,-20.,73.5393920141695));
#736=CARTESIAN_POINT('Origin',(6.,0.,108.457069759736));
#737=CARTESIAN_POINT('',(6.,20.,106.728534879868));
#738=CARTESIAN_POINT('Origin',(-20.,0.,45.));
#739=CARTESIAN_POINT('',(-20.,-20.,55.));
#740=CARTESIAN_POINT('',(-20.,-20.,50.));
#741=CARTESIAN_POINT('',(-20.,-25.,55.));
#742=CARTESIAN_POINT('',(-20.,0.,45.));
#743=CARTESIAN_POINT('',(-20.,10.,55.));
#744=CARTESIAN_POINT('Origin',(20.,0.,45.));
#745=CARTESIAN_POINT('',(20.,0.,45.));
#746=CARTESIAN_POINT('',(-15.,-1.83697019872103E-15,45.));
#747=CARTESIAN_POINT('Origin',(0.,0.,45.));
#748=CARTESIAN_POINT('Origin',(20.,0.,73.0000010877848));
#749=CARTESIAN_POINT('',(20.,-25.,55.));
#750=CARTESIAN_POINT('',(20.,20.,55.));
#751=CARTESIAN_POINT('',(20.,20.,89.0000005438924));
#752=CARTESIAN_POINT('',(20.,10.,55.));
#753=CARTESIAN_POINT('Origin',(0.,-50.,55.));
#754=CARTESIAN_POINT('Origin',(0.,20.,55.));
#755=CARTESIAN_POINT('',(0.,20.,55.));
#756=CARTESIAN_POINT('Origin',(0.,20.,55.));
#757=CARTESIAN_POINT('Origin',(0.,20.,105.));
#758=CARTESIAN_POINT('Origin',(0.,-50.,55.));
#759=CARTESIAN_POINT('',(0.,-20.,55.));
#760=CARTESIAN_POINT('Origin',(0.,-20.,55.));
#761=CARTESIAN_POINT('Origin',(0.,0.,30.));
#762=CARTESIAN_POINT('',(-25.,-3.06161699786838E-15,30.));
#763=CARTESIAN_POINT('Origin',(0.,0.,30.));
#764=CARTESIAN_POINT('Origin',(0.,0.,0.));
#765=CARTESIAN_POINT('',(-15.,-1.83697019872103E-15,0.));
#766=CARTESIAN_POINT('',(-15.,-1.83697019872103E-15,0.));
#767=CARTESIAN_POINT('Origin',(0.,0.,0.));
#768=CARTESIAN_POINT('Origin',(0.,0.,0.));
#769=CARTESIAN_POINT('',(-25.,-3.06161699786838E-15,0.));
#770=CARTESIAN_POINT('',(-25.,-3.06161699786838E-15,0.));
#771=CARTESIAN_POINT('Origin',(0.,0.,0.));
#772=CARTESIAN_POINT('Origin',(0.,0.,0.));
#773=UNCERTAINTY_MEASURE_WITH_UNIT(LENGTH_MEASURE(0.01),#777,
'DISTANCE_ACCURACY_VALUE',
'Maximum model space distance between geometric entities at asserted c
onnectivities');
#774=UNCERTAINTY_MEASURE_WITH_UNIT(LENGTH_MEASURE(0.01),#777,
'DISTANCE_ACCURACY_VALUE',
'Maximum model space distance between geometric entities at asserted c
onnectivities');
#775=(
GEOMETRIC_REPRESENTATION_CONTEXT(3)
GLOBAL_UNCERTAINTY_ASSIGNED_CONTEXT((#773))
GLOBAL_UNIT_ASSIGNED_CONTEXT((#777,#779,#780))
REPRESENTATION_CONTEXT('','3D')
);
#776=(
GEOMETRIC_REPRESENTATION_CONTEXT(3)
GLOBAL_UNCERTAINTY_ASSIGNED_CONTEXT((#774))
GLOBAL_UNIT_ASSIGNED_CONTEXT((#777,#779,#780))
REPRESENTATION_CONTEXT('','3D')
);
#777=(
LENGTH_UNIT()
NAMED_UNIT(*)
SI_UNIT(.MILLI.,.METRE.)
);
#778=(
LENGTH_UNIT()
NAMED_UNIT(*)
SI_UNIT($,.METRE.)
);
#779=(
NAMED_UNIT(*)
PLANE_ANGLE_UNIT()
SI_UNIT($,.RADIAN.)
);
#780=(
NAMED_UNIT(*)
SI_UNIT($,.STERADIAN.)
SOLID_ANGLE_UNIT()
);
#781=SHAPE_DEFINITION_REPRESENTATION(#782,#783);
#782=PRODUCT_DEFINITION_SHAPE('',$,#785);
#783=SHAPE_REPRESENTATION('',(#469),#775);
#784=PRODUCT_DEFINITION_CONTEXT('part definition',#789,'design');
#785=PRODUCT_DEFINITION('17.10.2025.(3)','17.10.2025.(3) v1',#786,#784);
#786=PRODUCT_DEFINITION_FORMATION('',$,#791);
#787=PRODUCT_RELATED_PRODUCT_CATEGORY('17.10.2025.(3) v1',
'17.10.2025.(3) v1',(#791));
#788=APPLICATION_PROTOCOL_DEFINITION('international standard',
'automotive_design',2009,#789);
#789=APPLICATION_CONTEXT(
'Core Data for Automotive Mechanical Design Process');
#790=PRODUCT_CONTEXT('part definition',#789,'mechanical');
#791=PRODUCT('17.10.2025.(3)','17.10.2025.(3) v1',$,(#790));
#792=PRESENTATION_STYLE_ASSIGNMENT((#793));
#793=SURFACE_STYLE_USAGE(.BOTH.,#794);
#794=SURFACE_SIDE_STYLE('',(#795));
#795=SURFACE_STYLE_FILL_AREA(#796);
#796=FILL_AREA_STYLE('Steel - Satin',(#797));
#797=FILL_AREA_STYLE_COLOUR('Steel - Satin',#798);
#798=COLOUR_RGB('Steel - Satin',0.627450980392157,0.627450980392157,0.627450980392157);
ENDSEC;
END-ISO-10303-21;
