ISO-10303-21;
HEADER;
FILE_DESCRIPTION(('FreeCAD Model'),'2;1');
FILE_NAME('Open CASCADE Shape Model','2026-02-12T12:23:51',('Author'),(
    ''),'Open CASCADE STEP processor 7.8','FreeCAD','Unknown');
FILE_SCHEMA(('AUTOMOTIVE_DESIGN { 1 0 10303 214 1 1 1 1 }'));
ENDSEC;
DATA;
#1 = APPLICATION_PROTOCOL_DEFINITION('international standard',
  'automotive_design',2000,#2);
#2 = APPLICATION_CONTEXT(
  'core data for automotive mechanical design processes');
#3 = SHAPE_DEFINITION_REPRESENTATION(#4,#10);
#4 = PRODUCT_DEFINITION_SHAPE('','',#5);
#5 = PRODUCT_DEFINITION('design','',#6,#9);
#6 = PRODUCT_DEFINITION_FORMATION('','',#7);
#7 = PRODUCT('Body','Body','',(#8));
#8 = PRODUCT_CONTEXT('',#2,'mechanical');
#9 = PRODUCT_DEFINITION_CONTEXT('part definition',#2,'design');
#10 = ADVANCED_BREP_SHAPE_REPRESENTATION('',(#11,#15),#685);
#11 = AXIS2_PLACEMENT_3D('',#12,#13,#14);
#12 = CARTESIAN_POINT('',(0.,0.,0.));
#13 = DIRECTION('',(0.,0.,1.));
#14 = DIRECTION('',(1.,0.,-0.));
#15 = MANIFOLD_SOLID_BREP('',#16);
#16 = CLOSED_SHELL('',(#17,#89,#114,#147,#177,#212,#235,#260,#285,#323,
    #361,#424,#456,#473,#497,#514,#538,#563,#591,#616,#651,#668));
#17 = ADVANCED_FACE('',(#18,#29,#73),#84,.T.);
#18 = FACE_BOUND('',#19,.T.);
#19 = EDGE_LOOP('',(#20));
#20 = ORIENTED_EDGE('',*,*,#21,.F.);
#21 = EDGE_CURVE('',#22,#22,#24,.T.);
#22 = VERTEX_POINT('',#23);
#23 = CARTESIAN_POINT('',(-8.881784197001E-16,0.,10.5));
#24 = CIRCLE('',#25,3.5);
#25 = AXIS2_PLACEMENT_3D('',#26,#27,#28);
#26 = CARTESIAN_POINT('',(-1.110223024625E-15,0.,14.));
#27 = DIRECTION('',(1.,-0.,1.110223024625E-16));
#28 = DIRECTION('',(1.110223024625E-16,0.,-1.));
#29 = FACE_BOUND('',#30,.T.);
#30 = EDGE_LOOP('',(#31,#41,#49,#58,#67));
#31 = ORIENTED_EDGE('',*,*,#32,.T.);
#32 = EDGE_CURVE('',#33,#35,#37,.T.);
#33 = VERTEX_POINT('',#34);
#34 = CARTESIAN_POINT('',(2.035408878479E-16,-8.,3.));
#35 = VERTEX_POINT('',#36);
#36 = CARTESIAN_POINT('',(1.850371702275E-16,8.,3.));
#37 = LINE('',#38,#39);
#38 = CARTESIAN_POINT('',(0.,8.,3.));
#39 = VECTOR('',#40,1.);
#40 = DIRECTION('',(0.,1.,0.));
#41 = ORIENTED_EDGE('',*,*,#42,.T.);
#42 = EDGE_CURVE('',#35,#43,#45,.T.);
#43 = VERTEX_POINT('',#44);
#44 = CARTESIAN_POINT('',(-3.10862446895E-15,8.,32.));
#45 = LINE('',#46,#47);
#46 = CARTESIAN_POINT('',(4.440892098501E-15,8.,-36.));
#47 = VECTOR('',#48,1.);
#48 = DIRECTION('',(-1.110223024625E-16,0.,1.));
#49 = ORIENTED_EDGE('',*,*,#50,.T.);
#50 = EDGE_CURVE('',#43,#51,#53,.T.);
#51 = VERTEX_POINT('',#52);
#52 = CARTESIAN_POINT('',(-3.996802888651E-15,6.133008046912E-14,40.));
#53 = CIRCLE('',#54,8.);
#54 = AXIS2_PLACEMENT_3D('',#55,#56,#57);
#55 = CARTESIAN_POINT('',(-3.10862446895E-15,0.,32.));
#56 = DIRECTION('',(1.,-0.,1.110223024625E-16));
#57 = DIRECTION('',(1.110223024625E-16,0.,-1.));
#58 = ORIENTED_EDGE('',*,*,#59,.T.);
#59 = EDGE_CURVE('',#51,#60,#62,.T.);
#60 = VERTEX_POINT('',#61);
#61 = CARTESIAN_POINT('',(-3.10862446895E-15,-7.999999999968,
    31.999977476662));
#62 = CIRCLE('',#63,8.);
#63 = AXIS2_PLACEMENT_3D('',#64,#65,#66);
#64 = CARTESIAN_POINT('',(-3.10862446895E-15,0.,32.));
#65 = DIRECTION('',(1.,-0.,1.110223024625E-16));
#66 = DIRECTION('',(1.110223024625E-16,0.,-1.));
#67 = ORIENTED_EDGE('',*,*,#68,.T.);
#68 = EDGE_CURVE('',#60,#33,#69,.T.);
#69 = LINE('',#70,#71);
#70 = CARTESIAN_POINT('',(-3.996802888651E-15,-8.,40.));
#71 = VECTOR('',#72,1.);
#72 = DIRECTION('',(1.110223024625E-16,0.,-1.));
#73 = FACE_BOUND('',#74,.T.);
#74 = EDGE_LOOP('',(#75));
#75 = ORIENTED_EDGE('',*,*,#76,.F.);
#76 = EDGE_CURVE('',#77,#77,#79,.T.);
#77 = VERTEX_POINT('',#78);
#78 = CARTESIAN_POINT('',(-2.886579864025E-15,0.,28.5));
#79 = CIRCLE('',#80,3.5);
#80 = AXIS2_PLACEMENT_3D('',#81,#82,#83);
#81 = CARTESIAN_POINT('',(-3.10862446895E-15,0.,32.));
#82 = DIRECTION('',(1.,-0.,1.110223024625E-16));
#83 = DIRECTION('',(1.110223024625E-16,0.,-1.));
#84 = PLANE('',#85);
#85 = AXIS2_PLACEMENT_3D('',#86,#87,#88);
#86 = CARTESIAN_POINT('',(2.22044604925E-16,0.,2.));
#87 = DIRECTION('',(1.,0.,1.110223024625E-16));
#88 = DIRECTION('',(1.110223024625E-16,0.,-1.));
#89 = ADVANCED_FACE('',(#90),#109,.F.);
#90 = FACE_BOUND('',#91,.T.);
#91 = EDGE_LOOP('',(#92,#100,#101,#102));
#92 = ORIENTED_EDGE('',*,*,#93,.F.);
#93 = EDGE_CURVE('',#22,#94,#96,.T.);
#94 = VERTEX_POINT('',#95);
#95 = CARTESIAN_POINT('',(-0.726542528005,0.,11.5));
#96 = LINE('',#97,#98);
#97 = CARTESIAN_POINT('',(-0.726542528005,0.,11.5));
#98 = VECTOR('',#99,1.);
#99 = DIRECTION('',(-0.587785252292,0.,0.809016994375));
#100 = ORIENTED_EDGE('',*,*,#21,.T.);
#101 = ORIENTED_EDGE('',*,*,#93,.T.);
#102 = ORIENTED_EDGE('',*,*,#103,.F.);
#103 = EDGE_CURVE('',#94,#94,#104,.T.);
#104 = CIRCLE('',#105,2.5);
#105 = AXIS2_PLACEMENT_3D('',#106,#107,#108);
#106 = CARTESIAN_POINT('',(-0.726542528005,0.,14.));
#107 = DIRECTION('',(1.,-0.,1.110223024625E-16));
#108 = DIRECTION('',(1.110223024625E-16,0.,-1.));
#109 = CONICAL_SURFACE('',#110,2.5,0.942477796077);
#110 = AXIS2_PLACEMENT_3D('',#111,#112,#113);
#111 = CARTESIAN_POINT('',(-0.726542528005,0.,14.));
#112 = DIRECTION('',(1.,-0.,1.110223024625E-16));
#113 = DIRECTION('',(1.110223024625E-16,0.,-1.));
#114 = ADVANCED_FACE('',(#115),#142,.F.);
#115 = FACE_BOUND('',#116,.T.);
#116 = EDGE_LOOP('',(#117,#126,#127,#136));
#117 = ORIENTED_EDGE('',*,*,#118,.F.);
#118 = EDGE_CURVE('',#35,#119,#121,.T.);
#119 = VERTEX_POINT('',#120);
#120 = CARTESIAN_POINT('',(1.,8.,2.));
#121 = CIRCLE('',#122,1.);
#122 = AXIS2_PLACEMENT_3D('',#123,#124,#125);
#123 = CARTESIAN_POINT('',(1.,8.,3.));
#124 = DIRECTION('',(0.,-1.,-0.));
#125 = DIRECTION('',(-4.440892098501E-16,0.,-1.));
#126 = ORIENTED_EDGE('',*,*,#32,.F.);
#127 = ORIENTED_EDGE('',*,*,#128,.F.);
#128 = EDGE_CURVE('',#129,#33,#131,.T.);
#129 = VERTEX_POINT('',#130);
#130 = CARTESIAN_POINT('',(1.,-8.,2.));
#131 = CIRCLE('',#132,1.);
#132 = AXIS2_PLACEMENT_3D('',#133,#134,#135);
#133 = CARTESIAN_POINT('',(1.,-8.,3.));
#134 = DIRECTION('',(0.,1.,-0.));
#135 = DIRECTION('',(-1.,0.,8.881784197001E-16));
#136 = ORIENTED_EDGE('',*,*,#137,.F.);
#137 = EDGE_CURVE('',#119,#129,#138,.T.);
#138 = LINE('',#139,#140);
#139 = CARTESIAN_POINT('',(1.,8.,2.));
#140 = VECTOR('',#141,1.);
#141 = DIRECTION('',(0.,-1.,0.));
#142 = CYLINDRICAL_SURFACE('',#143,1.);
#143 = AXIS2_PLACEMENT_3D('',#144,#145,#146);
#144 = CARTESIAN_POINT('',(1.,8.,3.));
#145 = DIRECTION('',(0.,1.,0.));
#146 = DIRECTION('',(0.,0.,1.));
#147 = ADVANCED_FACE('',(#148),#172,.F.);
#148 = FACE_BOUND('',#149,.F.);
#149 = EDGE_LOOP('',(#150,#160,#166,#167));
#150 = ORIENTED_EDGE('',*,*,#151,.F.);
#151 = EDGE_CURVE('',#152,#154,#156,.T.);
#152 = VERTEX_POINT('',#153);
#153 = CARTESIAN_POINT('',(-2.,-7.999999999984,31.999977476662));
#154 = VERTEX_POINT('',#155);
#155 = CARTESIAN_POINT('',(-2.,-8.,3.));
#156 = LINE('',#157,#158);
#157 = CARTESIAN_POINT('',(-2.,-8.,40.));
#158 = VECTOR('',#159,1.);
#159 = DIRECTION('',(1.110223024625E-16,0.,-1.));
#160 = ORIENTED_EDGE('',*,*,#161,.F.);
#161 = EDGE_CURVE('',#60,#152,#162,.T.);
#162 = LINE('',#163,#164);
#163 = CARTESIAN_POINT('',(-3.10862446895E-15,-7.999999999968,
    31.999977476662));
#164 = VECTOR('',#165,1.);
#165 = DIRECTION('',(-1.,-0.,-1.110223024625E-16));
#166 = ORIENTED_EDGE('',*,*,#68,.T.);
#167 = ORIENTED_EDGE('',*,*,#168,.T.);
#168 = EDGE_CURVE('',#33,#154,#169,.T.);
#169 = B_SPLINE_CURVE_WITH_KNOTS('',1,(#170,#171),.UNSPECIFIED.,.F.,.F.,
  (2,2),(0.,1.),.PIECEWISE_BEZIER_KNOTS.);
#170 = CARTESIAN_POINT('',(2.22044604925E-16,-8.,3.));
#171 = CARTESIAN_POINT('',(-2.,-8.,3.));
#172 = PLANE('',#173);
#173 = AXIS2_PLACEMENT_3D('',#174,#175,#176);
#174 = CARTESIAN_POINT('',(-2.,-8.,40.));
#175 = DIRECTION('',(0.,1.,0.));
#176 = DIRECTION('',(1.110223024625E-16,0.,-1.));
#177 = ADVANCED_FACE('',(#178),#207,.T.);
#178 = FACE_BOUND('',#179,.T.);
#179 = EDGE_LOOP('',(#180,#189,#190,#191,#192,#200));
#180 = ORIENTED_EDGE('',*,*,#181,.T.);
#181 = EDGE_CURVE('',#182,#152,#184,.T.);
#182 = VERTEX_POINT('',#183);
#183 = CARTESIAN_POINT('',(-2.,0.,40.));
#184 = CIRCLE('',#185,8.);
#185 = AXIS2_PLACEMENT_3D('',#186,#187,#188);
#186 = CARTESIAN_POINT('',(-2.,0.,32.));
#187 = DIRECTION('',(1.,-0.,1.110223024625E-16));
#188 = DIRECTION('',(1.110223024625E-16,0.,-1.));
#189 = ORIENTED_EDGE('',*,*,#161,.F.);
#190 = ORIENTED_EDGE('',*,*,#59,.F.);
#191 = ORIENTED_EDGE('',*,*,#50,.F.);
#192 = ORIENTED_EDGE('',*,*,#193,.T.);
#193 = EDGE_CURVE('',#43,#194,#196,.T.);
#194 = VERTEX_POINT('',#195);
#195 = CARTESIAN_POINT('',(-2.,8.,32.));
#196 = LINE('',#197,#198);
#197 = CARTESIAN_POINT('',(-3.10862446895E-15,8.,32.));
#198 = VECTOR('',#199,1.);
#199 = DIRECTION('',(-1.,-0.,-1.110223024625E-16));
#200 = ORIENTED_EDGE('',*,*,#201,.T.);
#201 = EDGE_CURVE('',#194,#182,#202,.T.);
#202 = CIRCLE('',#203,8.);
#203 = AXIS2_PLACEMENT_3D('',#204,#205,#206);
#204 = CARTESIAN_POINT('',(-2.,0.,32.));
#205 = DIRECTION('',(1.,-0.,1.110223024625E-16));
#206 = DIRECTION('',(1.110223024625E-16,0.,-1.));
#207 = CYLINDRICAL_SURFACE('',#208,8.);
#208 = AXIS2_PLACEMENT_3D('',#209,#210,#211);
#209 = CARTESIAN_POINT('',(-3.10862446895E-15,0.,32.));
#210 = DIRECTION('',(1.,0.,1.110223024625E-16));
#211 = DIRECTION('',(1.110223024625E-16,0.,-1.));
#212 = ADVANCED_FACE('',(#213),#230,.F.);
#213 = FACE_BOUND('',#214,.F.);
#214 = EDGE_LOOP('',(#215,#223,#228,#229));
#215 = ORIENTED_EDGE('',*,*,#216,.F.);
#216 = EDGE_CURVE('',#217,#194,#219,.T.);
#217 = VERTEX_POINT('',#218);
#218 = CARTESIAN_POINT('',(-2.,8.,3.));
#219 = LINE('',#220,#221);
#220 = CARTESIAN_POINT('',(-2.,8.,-36.));
#221 = VECTOR('',#222,1.);
#222 = DIRECTION('',(-1.110223024625E-16,0.,1.));
#223 = ORIENTED_EDGE('',*,*,#224,.F.);
#224 = EDGE_CURVE('',#35,#217,#225,.T.);
#225 = B_SPLINE_CURVE_WITH_KNOTS('',1,(#226,#227),.UNSPECIFIED.,.F.,.F.,
  (2,2),(0.,1.),.PIECEWISE_BEZIER_KNOTS.);
#226 = CARTESIAN_POINT('',(1.110223024625E-16,8.,3.));
#227 = CARTESIAN_POINT('',(-2.,8.,3.));
#228 = ORIENTED_EDGE('',*,*,#42,.T.);
#229 = ORIENTED_EDGE('',*,*,#193,.T.);
#230 = PLANE('',#231);
#231 = AXIS2_PLACEMENT_3D('',#232,#233,#234);
#232 = CARTESIAN_POINT('',(-2.,8.,-36.));
#233 = DIRECTION('',(0.,-1.,0.));
#234 = DIRECTION('',(-1.110223024625E-16,0.,1.));
#235 = ADVANCED_FACE('',(#236),#255,.F.);
#236 = FACE_BOUND('',#237,.T.);
#237 = EDGE_LOOP('',(#238,#246,#247,#248));
#238 = ORIENTED_EDGE('',*,*,#239,.F.);
#239 = EDGE_CURVE('',#77,#240,#242,.T.);
#240 = VERTEX_POINT('',#241);
#241 = CARTESIAN_POINT('',(-0.726542528005,0.,29.5));
#242 = LINE('',#243,#244);
#243 = CARTESIAN_POINT('',(-0.726542528005,0.,29.5));
#244 = VECTOR('',#245,1.);
#245 = DIRECTION('',(-0.587785252292,0.,0.809016994375));
#246 = ORIENTED_EDGE('',*,*,#76,.T.);
#247 = ORIENTED_EDGE('',*,*,#239,.T.);
#248 = ORIENTED_EDGE('',*,*,#249,.F.);
#249 = EDGE_CURVE('',#240,#240,#250,.T.);
#250 = CIRCLE('',#251,2.5);
#251 = AXIS2_PLACEMENT_3D('',#252,#253,#254);
#252 = CARTESIAN_POINT('',(-0.726542528005,0.,32.));
#253 = DIRECTION('',(1.,-0.,1.110223024625E-16));
#254 = DIRECTION('',(1.110223024625E-16,0.,-1.));
#255 = CONICAL_SURFACE('',#256,2.5,0.942477796077);
#256 = AXIS2_PLACEMENT_3D('',#257,#258,#259);
#257 = CARTESIAN_POINT('',(-0.726542528005,0.,32.));
#258 = DIRECTION('',(1.,-0.,1.110223024625E-16));
#259 = DIRECTION('',(1.110223024625E-16,0.,-1.));
#260 = ADVANCED_FACE('',(#261),#280,.F.);
#261 = FACE_BOUND('',#262,.F.);
#262 = EDGE_LOOP('',(#263,#271,#272,#273));
#263 = ORIENTED_EDGE('',*,*,#264,.F.);
#264 = EDGE_CURVE('',#94,#265,#267,.T.);
#265 = VERTEX_POINT('',#266);
#266 = CARTESIAN_POINT('',(-2.,0.,11.5));
#267 = LINE('',#268,#269);
#268 = CARTESIAN_POINT('',(-8.881784197001E-16,0.,11.5));
#269 = VECTOR('',#270,1.);
#270 = DIRECTION('',(-1.,-0.,-1.110223024625E-16));
#271 = ORIENTED_EDGE('',*,*,#103,.F.);
#272 = ORIENTED_EDGE('',*,*,#264,.T.);
#273 = ORIENTED_EDGE('',*,*,#274,.T.);
#274 = EDGE_CURVE('',#265,#265,#275,.T.);
#275 = CIRCLE('',#276,2.5);
#276 = AXIS2_PLACEMENT_3D('',#277,#278,#279);
#277 = CARTESIAN_POINT('',(-2.,0.,14.));
#278 = DIRECTION('',(1.,-0.,1.110223024625E-16));
#279 = DIRECTION('',(1.110223024625E-16,0.,-1.));
#280 = CYLINDRICAL_SURFACE('',#281,2.5);
#281 = AXIS2_PLACEMENT_3D('',#282,#283,#284);
#282 = CARTESIAN_POINT('',(-1.110223024625E-15,0.,14.));
#283 = DIRECTION('',(1.,0.,1.110223024625E-16));
#284 = DIRECTION('',(1.110223024625E-16,0.,-1.));
#285 = ADVANCED_FACE('',(#286),#304,.T.);
#286 = FACE_BOUND('',#287,.T.);
#287 = EDGE_LOOP('',(#288,#289,#296,#303));
#288 = ORIENTED_EDGE('',*,*,#118,.T.);
#289 = ORIENTED_EDGE('',*,*,#290,.T.);
#290 = EDGE_CURVE('',#119,#291,#293,.T.);
#291 = VERTEX_POINT('',#292);
#292 = CARTESIAN_POINT('',(1.,8.,0.));
#293 = B_SPLINE_CURVE_WITH_KNOTS('',1,(#294,#295),.UNSPECIFIED.,.F.,.F.,
  (2,2),(0.,1.),.PIECEWISE_BEZIER_KNOTS.);
#294 = CARTESIAN_POINT('',(1.,8.,2.));
#295 = CARTESIAN_POINT('',(1.,8.,-3.330669073875E-16));
#296 = ORIENTED_EDGE('',*,*,#297,.F.);
#297 = EDGE_CURVE('',#217,#291,#298,.T.);
#298 = CIRCLE('',#299,3.);
#299 = AXIS2_PLACEMENT_3D('',#300,#301,#302);
#300 = CARTESIAN_POINT('',(1.,8.,3.));
#301 = DIRECTION('',(0.,-1.,0.));
#302 = DIRECTION('',(3.673940397442E-16,0.,-1.));
#303 = ORIENTED_EDGE('',*,*,#224,.F.);
#304 = B_SPLINE_SURFACE_WITH_KNOTS('',8,1,(
    (#305,#306)
    ,(#307,#308)
    ,(#309,#310)
    ,(#311,#312)
    ,(#313,#314)
    ,(#315,#316)
    ,(#317,#318)
    ,(#319,#320)
    ,(#321,#322
    )),.UNSPECIFIED.,.F.,.F.,.F.,(9,9),(2,2),(4.712388980385,
    6.28318530718),(0.,1.),.PIECEWISE_BEZIER_KNOTS.);
#305 = CARTESIAN_POINT('',(1.110223024625E-16,8.,3.));
#306 = CARTESIAN_POINT('',(-2.,8.,3.));
#307 = CARTESIAN_POINT('',(1.039656874781E-15,8.,2.803650459151));
#308 = CARTESIAN_POINT('',(-2.,8.,2.410951377452));
#309 = CARTESIAN_POINT('',(4.406166491373E-02,8.,2.607301732448));
#310 = CARTESIAN_POINT('',(-1.867817633116,8.,1.821902569487));
#311 = CARTESIAN_POINT('',(0.13217913108,8.,2.422483962617));
#312 = CARTESIAN_POINT('',(-1.603454197614,7.999999999999,1.267460296995
    ));
#313 = CARTESIAN_POINT('',(0.260745168487,8.,2.260745168487));
#314 = CARTESIAN_POINT('',(-1.21777626734,8.000000000001,0.78222373266)
  );
#315 = CARTESIAN_POINT('',(0.422483962617,8.,2.13217913108));
#316 = CARTESIAN_POINT('',(-0.732539703005,8.,0.396545802386));
#317 = CARTESIAN_POINT('',(0.607301732448,8.,2.044061664914));
#318 = CARTESIAN_POINT('',(-0.178097430513,8.,0.132182366884));
#319 = CARTESIAN_POINT('',(0.803650459151,8.,2.));
#320 = CARTESIAN_POINT('',(0.410951377452,8.,-5.478554118302E-15));
#321 = CARTESIAN_POINT('',(1.,8.,2.));
#322 = CARTESIAN_POINT('',(1.,8.,-3.330669073875E-16));
#323 = ADVANCED_FACE('',(#324),#342,.T.);
#324 = FACE_BOUND('',#325,.T.);
#325 = EDGE_LOOP('',(#326,#327,#328,#337));
#326 = ORIENTED_EDGE('',*,*,#128,.T.);
#327 = ORIENTED_EDGE('',*,*,#168,.T.);
#328 = ORIENTED_EDGE('',*,*,#329,.F.);
#329 = EDGE_CURVE('',#330,#154,#332,.T.);
#330 = VERTEX_POINT('',#331);
#331 = CARTESIAN_POINT('',(1.,-8.,0.));
#332 = CIRCLE('',#333,3.);
#333 = AXIS2_PLACEMENT_3D('',#334,#335,#336);
#334 = CARTESIAN_POINT('',(1.,-8.,3.));
#335 = DIRECTION('',(0.,1.,-0.));
#336 = DIRECTION('',(-1.,0.,9.992007221626E-16));
#337 = ORIENTED_EDGE('',*,*,#338,.F.);
#338 = EDGE_CURVE('',#129,#330,#339,.T.);
#339 = B_SPLINE_CURVE_WITH_KNOTS('',1,(#340,#341),.UNSPECIFIED.,.F.,.F.,
  (2,2),(0.,1.),.PIECEWISE_BEZIER_KNOTS.);
#340 = CARTESIAN_POINT('',(1.,-8.,2.));
#341 = CARTESIAN_POINT('',(1.,-8.,0.));
#342 = B_SPLINE_SURFACE_WITH_KNOTS('',8,1,(
    (#343,#344)
    ,(#345,#346)
    ,(#347,#348)
    ,(#349,#350)
    ,(#351,#352)
    ,(#353,#354)
    ,(#355,#356)
    ,(#357,#358)
    ,(#359,#360
    )),.UNSPECIFIED.,.F.,.F.,.F.,(9,9),(2,2),(4.712388980385,
    6.28318530718),(0.,1.),.PIECEWISE_BEZIER_KNOTS.);
#343 = CARTESIAN_POINT('',(1.,-8.,2.));
#344 = CARTESIAN_POINT('',(1.,-8.,0.));
#345 = CARTESIAN_POINT('',(0.803650459151,-8.,2.));
#346 = CARTESIAN_POINT('',(0.410951377452,-8.,2.950871834424E-15));
#347 = CARTESIAN_POINT('',(0.607301732448,-8.,2.044061664914));
#348 = CARTESIAN_POINT('',(-0.178097430513,-8.,0.132182366884));
#349 = CARTESIAN_POINT('',(0.422483962617,-8.,2.13217913108));
#350 = CARTESIAN_POINT('',(-0.732539703005,-8.,0.396545802386));
#351 = CARTESIAN_POINT('',(0.260745168487,-8.,2.260745168487));
#352 = CARTESIAN_POINT('',(-1.21777626734,-8.,0.78222373266));
#353 = CARTESIAN_POINT('',(0.13217913108,-8.,2.422483962617));
#354 = CARTESIAN_POINT('',(-1.603454197614,-8.,1.267460296995));
#355 = CARTESIAN_POINT('',(4.406166491373E-02,-8.,2.607301732448));
#356 = CARTESIAN_POINT('',(-1.867817633116,-8.,1.821902569487));
#357 = CARTESIAN_POINT('',(4.77981369762E-16,-8.,2.803650459151));
#358 = CARTESIAN_POINT('',(-2.,-8.,2.410951377452));
#359 = CARTESIAN_POINT('',(2.22044604925E-16,-8.,3.));
#360 = CARTESIAN_POINT('',(-2.,-8.,3.));
#361 = ADVANCED_FACE('',(#362,#373,#408),#419,.T.);
#362 = FACE_BOUND('',#363,.T.);
#363 = EDGE_LOOP('',(#364));
#364 = ORIENTED_EDGE('',*,*,#365,.T.);
#365 = EDGE_CURVE('',#366,#366,#368,.T.);
#366 = VERTEX_POINT('',#367);
#367 = CARTESIAN_POINT('',(8.5,0.,2.));
#368 = CIRCLE('',#369,3.5);
#369 = AXIS2_PLACEMENT_3D('',#370,#371,#372);
#370 = CARTESIAN_POINT('',(12.,0.,2.));
#371 = DIRECTION('',(0.,0.,-1.));
#372 = DIRECTION('',(-1.,0.,0.));
#373 = FACE_BOUND('',#374,.T.);
#374 = EDGE_LOOP('',(#375,#386,#392,#393,#401));
#375 = ORIENTED_EDGE('',*,*,#376,.F.);
#376 = EDGE_CURVE('',#377,#379,#381,.T.);
#377 = VERTEX_POINT('',#378);
#378 = CARTESIAN_POINT('',(30.,8.,2.));
#379 = VERTEX_POINT('',#380);
#380 = CARTESIAN_POINT('',(38.,-7.178863987575E-08,2.));
#381 = CIRCLE('',#382,8.);
#382 = AXIS2_PLACEMENT_3D('',#383,#384,#385);
#383 = CARTESIAN_POINT('',(30.,0.,2.));
#384 = DIRECTION('',(0.,0.,-1.));
#385 = DIRECTION('',(-1.,-0.,-0.));
#386 = ORIENTED_EDGE('',*,*,#387,.T.);
#387 = EDGE_CURVE('',#377,#119,#388,.T.);
#388 = LINE('',#389,#390);
#389 = CARTESIAN_POINT('',(38.,8.,2.));
#390 = VECTOR('',#391,1.);
#391 = DIRECTION('',(-1.,0.,0.));
#392 = ORIENTED_EDGE('',*,*,#137,.T.);
#393 = ORIENTED_EDGE('',*,*,#394,.T.);
#394 = EDGE_CURVE('',#129,#395,#397,.T.);
#395 = VERTEX_POINT('',#396);
#396 = CARTESIAN_POINT('',(29.999977476662,-7.999999999968,2.));
#397 = LINE('',#398,#399);
#398 = CARTESIAN_POINT('',(-38.,-8.,2.));
#399 = VECTOR('',#400,1.);
#400 = DIRECTION('',(1.,0.,0.));
#401 = ORIENTED_EDGE('',*,*,#402,.F.);
#402 = EDGE_CURVE('',#379,#395,#403,.T.);
#403 = CIRCLE('',#404,8.);
#404 = AXIS2_PLACEMENT_3D('',#405,#406,#407);
#405 = CARTESIAN_POINT('',(30.,0.,2.));
#406 = DIRECTION('',(0.,0.,-1.));
#407 = DIRECTION('',(-1.,-0.,-0.));
#408 = FACE_BOUND('',#409,.T.);
#409 = EDGE_LOOP('',(#410));
#410 = ORIENTED_EDGE('',*,*,#411,.T.);
#411 = EDGE_CURVE('',#412,#412,#414,.T.);
#412 = VERTEX_POINT('',#413);
#413 = CARTESIAN_POINT('',(26.5,0.,2.));
#414 = CIRCLE('',#415,3.5);
#415 = AXIS2_PLACEMENT_3D('',#416,#417,#418);
#416 = CARTESIAN_POINT('',(30.,0.,2.));
#417 = DIRECTION('',(0.,0.,-1.));
#418 = DIRECTION('',(-1.,0.,0.));
#419 = PLANE('',#420);
#420 = AXIS2_PLACEMENT_3D('',#421,#422,#423);
#421 = CARTESIAN_POINT('',(0.,0.,2.));
#422 = DIRECTION('',(0.,0.,1.));
#423 = DIRECTION('',(1.,0.,0.));
#424 = ADVANCED_FACE('',(#425,#437,#448),#451,.F.);
#425 = FACE_BOUND('',#426,.F.);
#426 = EDGE_LOOP('',(#427,#433,#434,#435,#436));
#427 = ORIENTED_EDGE('',*,*,#428,.T.);
#428 = EDGE_CURVE('',#154,#217,#429,.T.);
#429 = LINE('',#430,#431);
#430 = CARTESIAN_POINT('',(-2.,8.,3.));
#431 = VECTOR('',#432,1.);
#432 = DIRECTION('',(0.,1.,0.));
#433 = ORIENTED_EDGE('',*,*,#216,.T.);
#434 = ORIENTED_EDGE('',*,*,#201,.T.);
#435 = ORIENTED_EDGE('',*,*,#181,.T.);
#436 = ORIENTED_EDGE('',*,*,#151,.T.);
#437 = FACE_BOUND('',#438,.F.);
#438 = EDGE_LOOP('',(#439));
#439 = ORIENTED_EDGE('',*,*,#440,.F.);
#440 = EDGE_CURVE('',#441,#441,#443,.T.);
#441 = VERTEX_POINT('',#442);
#442 = CARTESIAN_POINT('',(-2.,0.,29.5));
#443 = CIRCLE('',#444,2.5);
#444 = AXIS2_PLACEMENT_3D('',#445,#446,#447);
#445 = CARTESIAN_POINT('',(-2.,0.,32.));
#446 = DIRECTION('',(1.,-0.,1.110223024625E-16));
#447 = DIRECTION('',(1.110223024625E-16,0.,-1.));
#448 = FACE_BOUND('',#449,.F.);
#449 = EDGE_LOOP('',(#450));
#450 = ORIENTED_EDGE('',*,*,#274,.F.);
#451 = PLANE('',#452);
#452 = AXIS2_PLACEMENT_3D('',#453,#454,#455);
#453 = CARTESIAN_POINT('',(-2.,0.,2.));
#454 = DIRECTION('',(1.,0.,1.110223024625E-16));
#455 = DIRECTION('',(1.110223024625E-16,0.,-1.));
#456 = ADVANCED_FACE('',(#457),#468,.F.);
#457 = FACE_BOUND('',#458,.F.);
#458 = EDGE_LOOP('',(#459,#465,#466,#467));
#459 = ORIENTED_EDGE('',*,*,#460,.F.);
#460 = EDGE_CURVE('',#240,#441,#461,.T.);
#461 = LINE('',#462,#463);
#462 = CARTESIAN_POINT('',(-2.886579864025E-15,0.,29.5));
#463 = VECTOR('',#464,1.);
#464 = DIRECTION('',(-1.,-0.,-1.110223024625E-16));
#465 = ORIENTED_EDGE('',*,*,#249,.F.);
#466 = ORIENTED_EDGE('',*,*,#460,.T.);
#467 = ORIENTED_EDGE('',*,*,#440,.T.);
#468 = CYLINDRICAL_SURFACE('',#469,2.5);
#469 = AXIS2_PLACEMENT_3D('',#470,#471,#472);
#470 = CARTESIAN_POINT('',(-3.10862446895E-15,0.,32.));
#471 = DIRECTION('',(1.,0.,1.110223024625E-16));
#472 = DIRECTION('',(1.110223024625E-16,0.,-1.));
#473 = ADVANCED_FACE('',(#474),#492,.F.);
#474 = FACE_BOUND('',#475,.F.);
#475 = EDGE_LOOP('',(#476,#484,#490,#491));
#476 = ORIENTED_EDGE('',*,*,#477,.F.);
#477 = EDGE_CURVE('',#478,#291,#480,.T.);
#478 = VERTEX_POINT('',#479);
#479 = CARTESIAN_POINT('',(30.,8.,0.));
#480 = LINE('',#481,#482);
#481 = CARTESIAN_POINT('',(38.,8.,0.));
#482 = VECTOR('',#483,1.);
#483 = DIRECTION('',(-1.,0.,0.));
#484 = ORIENTED_EDGE('',*,*,#485,.F.);
#485 = EDGE_CURVE('',#377,#478,#486,.T.);
#486 = LINE('',#487,#488);
#487 = CARTESIAN_POINT('',(30.,8.,2.));
#488 = VECTOR('',#489,1.);
#489 = DIRECTION('',(0.,0.,-1.));
#490 = ORIENTED_EDGE('',*,*,#387,.T.);
#491 = ORIENTED_EDGE('',*,*,#290,.T.);
#492 = PLANE('',#493);
#493 = AXIS2_PLACEMENT_3D('',#494,#495,#496);
#494 = CARTESIAN_POINT('',(38.,8.,0.));
#495 = DIRECTION('',(0.,-1.,0.));
#496 = DIRECTION('',(-1.,0.,0.));
#497 = ADVANCED_FACE('',(#498),#509,.T.);
#498 = FACE_BOUND('',#499,.F.);
#499 = EDGE_LOOP('',(#500,#501,#502,#503));
#500 = ORIENTED_EDGE('',*,*,#297,.F.);
#501 = ORIENTED_EDGE('',*,*,#428,.F.);
#502 = ORIENTED_EDGE('',*,*,#329,.F.);
#503 = ORIENTED_EDGE('',*,*,#504,.F.);
#504 = EDGE_CURVE('',#291,#330,#505,.T.);
#505 = LINE('',#506,#507);
#506 = CARTESIAN_POINT('',(1.,8.,0.));
#507 = VECTOR('',#508,1.);
#508 = DIRECTION('',(0.,-1.,0.));
#509 = CYLINDRICAL_SURFACE('',#510,3.);
#510 = AXIS2_PLACEMENT_3D('',#511,#512,#513);
#511 = CARTESIAN_POINT('',(1.,8.,3.));
#512 = DIRECTION('',(0.,1.,0.));
#513 = DIRECTION('',(0.,0.,1.));
#514 = ADVANCED_FACE('',(#515),#533,.F.);
#515 = FACE_BOUND('',#516,.F.);
#516 = EDGE_LOOP('',(#517,#525,#526,#527));
#517 = ORIENTED_EDGE('',*,*,#518,.F.);
#518 = EDGE_CURVE('',#330,#519,#521,.T.);
#519 = VERTEX_POINT('',#520);
#520 = CARTESIAN_POINT('',(29.999977476662,-7.999999999984,0.));
#521 = LINE('',#522,#523);
#522 = CARTESIAN_POINT('',(-38.,-8.,0.));
#523 = VECTOR('',#524,1.);
#524 = DIRECTION('',(1.,0.,0.));
#525 = ORIENTED_EDGE('',*,*,#338,.F.);
#526 = ORIENTED_EDGE('',*,*,#394,.T.);
#527 = ORIENTED_EDGE('',*,*,#528,.T.);
#528 = EDGE_CURVE('',#395,#519,#529,.T.);
#529 = LINE('',#530,#531);
#530 = CARTESIAN_POINT('',(29.999977476662,-7.999999999968,2.));
#531 = VECTOR('',#532,1.);
#532 = DIRECTION('',(0.,0.,-1.));
#533 = PLANE('',#534);
#534 = AXIS2_PLACEMENT_3D('',#535,#536,#537);
#535 = CARTESIAN_POINT('',(-38.,-8.,0.));
#536 = DIRECTION('',(0.,1.,0.));
#537 = DIRECTION('',(1.,0.,0.));
#538 = ADVANCED_FACE('',(#539),#558,.F.);
#539 = FACE_BOUND('',#540,.F.);
#540 = EDGE_LOOP('',(#541,#549,#550,#551));
#541 = ORIENTED_EDGE('',*,*,#542,.F.);
#542 = EDGE_CURVE('',#366,#543,#545,.T.);
#543 = VERTEX_POINT('',#544);
#544 = CARTESIAN_POINT('',(9.5,0.,1.273457471995));
#545 = LINE('',#546,#547);
#546 = CARTESIAN_POINT('',(9.5,0.,1.273457471995));
#547 = VECTOR('',#548,1.);
#548 = DIRECTION('',(0.809016994375,0.,-0.587785252292));
#549 = ORIENTED_EDGE('',*,*,#365,.T.);
#550 = ORIENTED_EDGE('',*,*,#542,.T.);
#551 = ORIENTED_EDGE('',*,*,#552,.F.);
#552 = EDGE_CURVE('',#543,#543,#553,.T.);
#553 = CIRCLE('',#554,2.5);
#554 = AXIS2_PLACEMENT_3D('',#555,#556,#557);
#555 = CARTESIAN_POINT('',(12.,0.,1.273457471995));
#556 = DIRECTION('',(0.,0.,-1.));
#557 = DIRECTION('',(-1.,0.,0.));
#558 = CONICAL_SURFACE('',#559,2.5,0.942477796077);
#559 = AXIS2_PLACEMENT_3D('',#560,#561,#562);
#560 = CARTESIAN_POINT('',(12.,0.,1.273457471995));
#561 = DIRECTION('',(0.,0.,1.));
#562 = DIRECTION('',(-1.,0.,0.));
#563 = ADVANCED_FACE('',(#564),#586,.T.);
#564 = FACE_BOUND('',#565,.F.);
#565 = EDGE_LOOP('',(#566,#567,#568,#569,#570,#579));
#566 = ORIENTED_EDGE('',*,*,#528,.F.);
#567 = ORIENTED_EDGE('',*,*,#402,.F.);
#568 = ORIENTED_EDGE('',*,*,#376,.F.);
#569 = ORIENTED_EDGE('',*,*,#485,.T.);
#570 = ORIENTED_EDGE('',*,*,#571,.F.);
#571 = EDGE_CURVE('',#572,#478,#574,.T.);
#572 = VERTEX_POINT('',#573);
#573 = CARTESIAN_POINT('',(38.,0.,0.));
#574 = CIRCLE('',#575,8.);
#575 = AXIS2_PLACEMENT_3D('',#576,#577,#578);
#576 = CARTESIAN_POINT('',(30.,0.,0.));
#577 = DIRECTION('',(0.,0.,1.));
#578 = DIRECTION('',(-1.,0.,0.));
#579 = ORIENTED_EDGE('',*,*,#580,.F.);
#580 = EDGE_CURVE('',#519,#572,#581,.T.);
#581 = CIRCLE('',#582,8.);
#582 = AXIS2_PLACEMENT_3D('',#583,#584,#585);
#583 = CARTESIAN_POINT('',(30.,0.,0.));
#584 = DIRECTION('',(0.,0.,1.));
#585 = DIRECTION('',(-1.,0.,0.));
#586 = CYLINDRICAL_SURFACE('',#587,8.);
#587 = AXIS2_PLACEMENT_3D('',#588,#589,#590);
#588 = CARTESIAN_POINT('',(30.,0.,2.));
#589 = DIRECTION('',(0.,0.,1.));
#590 = DIRECTION('',(-1.,-0.,-0.));
#591 = ADVANCED_FACE('',(#592),#611,.F.);
#592 = FACE_BOUND('',#593,.F.);
#593 = EDGE_LOOP('',(#594,#602,#603,#604));
#594 = ORIENTED_EDGE('',*,*,#595,.F.);
#595 = EDGE_CURVE('',#412,#596,#598,.T.);
#596 = VERTEX_POINT('',#597);
#597 = CARTESIAN_POINT('',(27.5,0.,1.273457471995));
#598 = LINE('',#599,#600);
#599 = CARTESIAN_POINT('',(27.5,0.,1.273457471995));
#600 = VECTOR('',#601,1.);
#601 = DIRECTION('',(0.809016994375,0.,-0.587785252292));
#602 = ORIENTED_EDGE('',*,*,#411,.T.);
#603 = ORIENTED_EDGE('',*,*,#595,.T.);
#604 = ORIENTED_EDGE('',*,*,#605,.F.);
#605 = EDGE_CURVE('',#596,#596,#606,.T.);
#606 = CIRCLE('',#607,2.5);
#607 = AXIS2_PLACEMENT_3D('',#608,#609,#610);
#608 = CARTESIAN_POINT('',(30.,0.,1.273457471995));
#609 = DIRECTION('',(0.,0.,-1.));
#610 = DIRECTION('',(-1.,0.,0.));
#611 = CONICAL_SURFACE('',#612,2.5,0.942477796077);
#612 = AXIS2_PLACEMENT_3D('',#613,#614,#615);
#613 = CARTESIAN_POINT('',(30.,0.,1.273457471995));
#614 = DIRECTION('',(0.,0.,1.));
#615 = DIRECTION('',(-1.,0.,0.));
#616 = ADVANCED_FACE('',(#617,#624,#635),#646,.F.);
#617 = FACE_BOUND('',#618,.F.);
#618 = EDGE_LOOP('',(#619,#620,#621,#622,#623));
#619 = ORIENTED_EDGE('',*,*,#571,.T.);
#620 = ORIENTED_EDGE('',*,*,#477,.T.);
#621 = ORIENTED_EDGE('',*,*,#504,.T.);
#622 = ORIENTED_EDGE('',*,*,#518,.T.);
#623 = ORIENTED_EDGE('',*,*,#580,.T.);
#624 = FACE_BOUND('',#625,.F.);
#625 = EDGE_LOOP('',(#626));
#626 = ORIENTED_EDGE('',*,*,#627,.F.);
#627 = EDGE_CURVE('',#628,#628,#630,.T.);
#628 = VERTEX_POINT('',#629);
#629 = CARTESIAN_POINT('',(9.5,0.,0.));
#630 = CIRCLE('',#631,2.5);
#631 = AXIS2_PLACEMENT_3D('',#632,#633,#634);
#632 = CARTESIAN_POINT('',(12.,0.,0.));
#633 = DIRECTION('',(0.,0.,1.));
#634 = DIRECTION('',(-1.,0.,0.));
#635 = FACE_BOUND('',#636,.F.);
#636 = EDGE_LOOP('',(#637));
#637 = ORIENTED_EDGE('',*,*,#638,.F.);
#638 = EDGE_CURVE('',#639,#639,#641,.T.);
#639 = VERTEX_POINT('',#640);
#640 = CARTESIAN_POINT('',(27.5,0.,0.));
#641 = CIRCLE('',#642,2.5);
#642 = AXIS2_PLACEMENT_3D('',#643,#644,#645);
#643 = CARTESIAN_POINT('',(30.,0.,0.));
#644 = DIRECTION('',(0.,0.,1.));
#645 = DIRECTION('',(-1.,0.,0.));
#646 = PLANE('',#647);
#647 = AXIS2_PLACEMENT_3D('',#648,#649,#650);
#648 = CARTESIAN_POINT('',(0.,0.,0.));
#649 = DIRECTION('',(0.,0.,1.));
#650 = DIRECTION('',(1.,0.,0.));
#651 = ADVANCED_FACE('',(#652),#663,.F.);
#652 = FACE_BOUND('',#653,.T.);
#653 = EDGE_LOOP('',(#654,#660,#661,#662));
#654 = ORIENTED_EDGE('',*,*,#655,.F.);
#655 = EDGE_CURVE('',#543,#628,#656,.T.);
#656 = LINE('',#657,#658);
#657 = CARTESIAN_POINT('',(9.5,0.,2.));
#658 = VECTOR('',#659,1.);
#659 = DIRECTION('',(0.,0.,-1.));
#660 = ORIENTED_EDGE('',*,*,#552,.F.);
#661 = ORIENTED_EDGE('',*,*,#655,.T.);
#662 = ORIENTED_EDGE('',*,*,#627,.F.);
#663 = CYLINDRICAL_SURFACE('',#664,2.5);
#664 = AXIS2_PLACEMENT_3D('',#665,#666,#667);
#665 = CARTESIAN_POINT('',(12.,0.,2.));
#666 = DIRECTION('',(0.,0.,1.));
#667 = DIRECTION('',(-1.,-0.,-0.));
#668 = ADVANCED_FACE('',(#669),#680,.F.);
#669 = FACE_BOUND('',#670,.T.);
#670 = EDGE_LOOP('',(#671,#677,#678,#679));
#671 = ORIENTED_EDGE('',*,*,#672,.F.);
#672 = EDGE_CURVE('',#596,#639,#673,.T.);
#673 = LINE('',#674,#675);
#674 = CARTESIAN_POINT('',(27.5,0.,2.));
#675 = VECTOR('',#676,1.);
#676 = DIRECTION('',(0.,0.,-1.));
#677 = ORIENTED_EDGE('',*,*,#605,.F.);
#678 = ORIENTED_EDGE('',*,*,#672,.T.);
#679 = ORIENTED_EDGE('',*,*,#638,.F.);
#680 = CYLINDRICAL_SURFACE('',#681,2.5);
#681 = AXIS2_PLACEMENT_3D('',#682,#683,#684);
#682 = CARTESIAN_POINT('',(30.,0.,2.));
#683 = DIRECTION('',(0.,0.,1.));
#684 = DIRECTION('',(-1.,-0.,-0.));
#685 = ( GEOMETRIC_REPRESENTATION_CONTEXT(3) 
GLOBAL_UNCERTAINTY_ASSIGNED_CONTEXT((#689)) GLOBAL_UNIT_ASSIGNED_CONTEXT
((#686,#687,#688)) REPRESENTATION_CONTEXT('Context #1',
  '3D Context with UNIT and UNCERTAINTY') );
#686 = ( LENGTH_UNIT() NAMED_UNIT(*) SI_UNIT(.MILLI.,.METRE.) );
#687 = ( NAMED_UNIT(*) PLANE_ANGLE_UNIT() SI_UNIT($,.RADIAN.) );
#688 = ( NAMED_UNIT(*) SI_UNIT($,.STERADIAN.) SOLID_ANGLE_UNIT() );
#689 = UNCERTAINTY_MEASURE_WITH_UNIT(LENGTH_MEASURE(1.E-06),#686,
  'distance_accuracy_value','confusion accuracy');
#690 = PRODUCT_RELATED_PRODUCT_CATEGORY('part',$,(#7));
#691 = MECHANICAL_DESIGN_GEOMETRIC_PRESENTATION_REPRESENTATION('',(#692)
  ,#685);
#692 = STYLED_ITEM('color',(#693),#15);
#693 = PRESENTATION_STYLE_ASSIGNMENT((#694,#700));
#694 = SURFACE_STYLE_USAGE(.BOTH.,#695);
#695 = SURFACE_SIDE_STYLE('',(#696));
#696 = SURFACE_STYLE_FILL_AREA(#697);
#697 = FILL_AREA_STYLE('',(#698));
#698 = FILL_AREA_STYLE_COLOUR('',#699);
#699 = COLOUR_RGB('',0.678430976034,0.709803998361,0.741176010593);
#700 = CURVE_STYLE('',#701,POSITIVE_LENGTH_MEASURE(0.1),#702);
#701 = DRAUGHTING_PRE_DEFINED_CURVE_FONT('continuous');
#702 = COLOUR_RGB('',9.803921802644E-02,9.803921802644E-02,
  9.803921802644E-02);
ENDSEC;
END-ISO-10303-21;
