ISO-10303-21;
HEADER;
/* Generated by software containing ST-Developer
 * from STEP Tools, Inc. (www.steptools.com) 
 */

FILE_DESCRIPTION(
/* description */ ('',
'CAx-IF Rec.Pracs.---Representation and Presentation of Product Manufa
cturing Information (PMI)---4.0---2014-10-13'),
/* implementation_level */ '2;1');

FILE_NAME(
/* name */ 'LED Mount.stp',
/* time_stamp */ '2026-02-21T10:24:52-05:00',
/* author */ ('maste'),
/* organization */ (''),
/* preprocessor_version */ 'ST-DEVELOPER v20',
/* originating_system */ 'Autodesk Inventor 2024',
/* authorisation */ '');

FILE_SCHEMA (('AP242_MANAGED_MODEL_BASED_3D_ENGINEERING_MIM_LF { 1 0 10303 442 1 1 4 }'));
ENDSEC;

DATA;
#10=MECHANICAL_DESIGN_AND_DRAUGHTING_RELATIONSHIP('Isometric','',#25,#26);
#11=MECHANICAL_DESIGN_AND_DRAUGHTING_RELATIONSHIP('Front','',#27,#26);
#12=MECHANICAL_DESIGN_AND_DRAUGHTING_RELATIONSHIP('Top','',#28,#26);
#13=MECHANICAL_DESIGN_AND_DRAUGHTING_RELATIONSHIP('Right','',#29,#26);
#14=MAPPED_ITEM('',#19,#243);
#15=MAPPED_ITEM('',#20,#244);
#16=MAPPED_ITEM('',#21,#245);
#17=MAPPED_ITEM('',#22,#246);
#18=MAPPED_ITEM('',#23,#247);
#19=REPRESENTATION_MAP(#243,#24);
#20=REPRESENTATION_MAP(#244,#401);
#21=REPRESENTATION_MAP(#245,#24);
#22=REPRESENTATION_MAP(#246,#24);
#23=REPRESENTATION_MAP(#247,#24);
#24=ADVANCED_BREP_SHAPE_REPRESENTATION('Isometric',(#45),#389);
#25=DRAUGHTING_MODEL('Isometric',(#14,#31),#389);
#26=DRAUGHTING_MODEL('',(#15,#244),#389);
#27=DRAUGHTING_MODEL('Front',(#16,#32),#389);
#28=DRAUGHTING_MODEL('Top',(#17,#33),#389);
#29=DRAUGHTING_MODEL('Right',(#18,#34),#389);
#30=MECHANICAL_DESIGN_GEOMETRIC_PRESENTATION_REPRESENTATION('',(#43),#390);
#31=CAMERA_MODEL_D3('Isometric',#235,#35);
#32=CAMERA_MODEL_D3('Front',#237,#36);
#33=CAMERA_MODEL_D3('Top',#239,#37);
#34=CAMERA_MODEL_D3('Right',#241,#38);
#35=VIEW_VOLUME(.PARALLEL.,#372,0.424856115107914,0.,.F.,0.,.F.,.F.,#39);
#36=VIEW_VOLUME(.PARALLEL.,#375,2.77199092178618,0.,.F.,0.,.F.,.F.,#40);
#37=VIEW_VOLUME(.PARALLEL.,#378,2.77199092178618,0.,.F.,0.,.F.,.F.,#41);
#38=VIEW_VOLUME(.PARALLEL.,#381,2.77199092178618,0.,.F.,0.,.F.,.F.,#42);
#39=PLANAR_BOX('view window',1.4477356997042,0.78740157480315,#236);
#40=PLANAR_BOX('view window',1.6505558756375,0.78740157480315,#238);
#41=PLANAR_BOX('view window',1.6505558756375,0.78740157480315,#240);
#42=PLANAR_BOX('view window',1.6505558756375,0.78740157480315,#242);
#43=STYLED_ITEM('',(#410),#45);
#44=STYLED_ITEM('',(#411),#15);
#45=MANIFOLD_SOLID_BREP('Solid1',#190);
#46=FACE_BOUND('',#72,.T.);
#47=FACE_BOUND('',#74,.T.);
#48=FACE_BOUND('',#76,.T.);
#49=FACE_BOUND('',#79,.T.);
#50=FACE_BOUND('',#83,.T.);
#51=PLANE('',#221);
#52=PLANE('',#222);
#53=PLANE('',#224);
#54=PLANE('',#228);
#55=PLANE('',#234);
#56=CONICAL_SURFACE('',#215,0.124015748031496,0.785398163397447);
#57=FACE_OUTER_BOUND('',#68,.T.);
#58=FACE_OUTER_BOUND('',#69,.T.);
#59=FACE_OUTER_BOUND('',#70,.T.);
#60=FACE_OUTER_BOUND('',#71,.T.);
#61=FACE_OUTER_BOUND('',#73,.T.);
#62=FACE_OUTER_BOUND('',#75,.T.);
#63=FACE_OUTER_BOUND('',#77,.T.);
#64=FACE_OUTER_BOUND('',#78,.T.);
#65=FACE_OUTER_BOUND('',#80,.T.);
#66=FACE_OUTER_BOUND('',#81,.T.);
#67=FACE_OUTER_BOUND('',#82,.T.);
#68=EDGE_LOOP('',(#138,#139,#140,#141));
#69=EDGE_LOOP('',(#142,#143,#144,#145,#146));
#70=EDGE_LOOP('',(#147,#148,#149,#150,#151));
#71=EDGE_LOOP('',(#152));
#72=EDGE_LOOP('',(#153));
#73=EDGE_LOOP('',(#154));
#74=EDGE_LOOP('',(#155));
#75=EDGE_LOOP('',(#156));
#76=EDGE_LOOP('',(#157));
#77=EDGE_LOOP('',(#158,#159,#160,#161));
#78=EDGE_LOOP('',(#162));
#79=EDGE_LOOP('',(#163));
#80=EDGE_LOOP('',(#164,#165,#166,#167));
#81=EDGE_LOOP('',(#168,#169,#170,#171));
#82=EDGE_LOOP('',(#172));
#83=EDGE_LOOP('',(#173));
#84=LINE('',#333,#90);
#85=LINE('',#339,#91);
#86=LINE('',#345,#92);
#87=LINE('',#357,#93);
#88=LINE('',#364,#94);
#89=LINE('',#368,#95);
#90=VECTOR('',#254,0.0590551181102362);
#91=VECTOR('',#261,0.124015748031496);
#92=VECTOR('',#268,0.153543307086614);
#93=VECTOR('',#285,0.114173228346457);
#94=VECTOR('',#294,0.0787401574803149);
#95=VECTOR('',#299,0.0925196850393701);
#96=CIRCLE('',#213,0.0590551181102362);
#97=CIRCLE('',#214,0.0590551181102362);
#98=CIRCLE('',#216,0.0944881889763781);
#99=CIRCLE('',#217,0.153543307086614);
#100=CIRCLE('',#218,0.153543307086614);
#101=CIRCLE('',#220,0.153543307086614);
#102=CIRCLE('',#223,0.0787401574803149);
#103=CIRCLE('',#225,0.114173228346457);
#104=CIRCLE('',#227,0.114173228346457);
#105=CIRCLE('',#229,0.0925196850393701);
#106=CIRCLE('',#231,0.0787401574803149);
#107=CIRCLE('',#233,0.0925196850393701);
#108=VERTEX_POINT('',#330);
#109=VERTEX_POINT('',#332);
#110=VERTEX_POINT('',#336);
#111=VERTEX_POINT('',#338);
#112=VERTEX_POINT('',#340);
#113=VERTEX_POINT('',#344);
#114=VERTEX_POINT('',#349);
#115=VERTEX_POINT('',#352);
#116=VERTEX_POINT('',#355);
#117=VERTEX_POINT('',#359);
#118=VERTEX_POINT('',#362);
#119=VERTEX_POINT('',#366);
#120=EDGE_CURVE('',#108,#108,#96,.T.);
#121=EDGE_CURVE('',#108,#109,#84,.T.);
#122=EDGE_CURVE('',#109,#109,#97,.T.);
#123=EDGE_CURVE('',#110,#110,#98,.T.);
#124=EDGE_CURVE('',#110,#111,#85,.T.);
#125=EDGE_CURVE('',#111,#112,#99,.T.);
#126=EDGE_CURVE('',#112,#111,#100,.T.);
#127=EDGE_CURVE('',#112,#113,#86,.T.);
#128=EDGE_CURVE('',#113,#113,#101,.T.);
#129=EDGE_CURVE('',#114,#114,#102,.T.);
#130=EDGE_CURVE('',#115,#115,#103,.T.);
#131=EDGE_CURVE('',#116,#116,#104,.T.);
#132=EDGE_CURVE('',#116,#115,#87,.T.);
#133=EDGE_CURVE('',#117,#117,#105,.T.);
#134=EDGE_CURVE('',#118,#118,#106,.T.);
#135=EDGE_CURVE('',#118,#114,#88,.T.);
#136=EDGE_CURVE('',#119,#119,#107,.T.);
#137=EDGE_CURVE('',#119,#117,#89,.T.);
#138=ORIENTED_EDGE('',*,*,#120,.F.);
#139=ORIENTED_EDGE('',*,*,#121,.T.);
#140=ORIENTED_EDGE('',*,*,#122,.F.);
#141=ORIENTED_EDGE('',*,*,#121,.F.);
#142=ORIENTED_EDGE('',*,*,#123,.T.);
#143=ORIENTED_EDGE('',*,*,#124,.T.);
#144=ORIENTED_EDGE('',*,*,#125,.T.);
#145=ORIENTED_EDGE('',*,*,#126,.T.);
#146=ORIENTED_EDGE('',*,*,#124,.F.);
#147=ORIENTED_EDGE('',*,*,#125,.F.);
#148=ORIENTED_EDGE('',*,*,#126,.F.);
#149=ORIENTED_EDGE('',*,*,#127,.T.);
#150=ORIENTED_EDGE('',*,*,#128,.F.);
#151=ORIENTED_EDGE('',*,*,#127,.F.);
#152=ORIENTED_EDGE('',*,*,#123,.F.);
#153=ORIENTED_EDGE('',*,*,#120,.T.);
#154=ORIENTED_EDGE('',*,*,#129,.F.);
#155=ORIENTED_EDGE('',*,*,#122,.T.);
#156=ORIENTED_EDGE('',*,*,#128,.T.);
#157=ORIENTED_EDGE('',*,*,#130,.F.);
#158=ORIENTED_EDGE('',*,*,#131,.F.);
#159=ORIENTED_EDGE('',*,*,#132,.T.);
#160=ORIENTED_EDGE('',*,*,#130,.T.);
#161=ORIENTED_EDGE('',*,*,#132,.F.);
#162=ORIENTED_EDGE('',*,*,#131,.T.);
#163=ORIENTED_EDGE('',*,*,#133,.F.);
#164=ORIENTED_EDGE('',*,*,#134,.F.);
#165=ORIENTED_EDGE('',*,*,#135,.T.);
#166=ORIENTED_EDGE('',*,*,#129,.T.);
#167=ORIENTED_EDGE('',*,*,#135,.F.);
#168=ORIENTED_EDGE('',*,*,#136,.F.);
#169=ORIENTED_EDGE('',*,*,#137,.T.);
#170=ORIENTED_EDGE('',*,*,#133,.T.);
#171=ORIENTED_EDGE('',*,*,#137,.F.);
#172=ORIENTED_EDGE('',*,*,#136,.T.);
#173=ORIENTED_EDGE('',*,*,#134,.T.);
#174=CYLINDRICAL_SURFACE('',#212,0.0590551181102362);
#175=CYLINDRICAL_SURFACE('',#219,0.153543307086614);
#176=CYLINDRICAL_SURFACE('',#226,0.114173228346457);
#177=CYLINDRICAL_SURFACE('',#230,0.0787401574803149);
#178=CYLINDRICAL_SURFACE('',#232,0.0925196850393701);
#179=ADVANCED_FACE('',(#57),#174,.F.);
#180=ADVANCED_FACE('',(#58),#56,.T.);
#181=ADVANCED_FACE('',(#59),#175,.T.);
#182=ADVANCED_FACE('',(#60,#46),#51,.F.);
#183=ADVANCED_FACE('',(#61,#47),#52,.T.);
#184=ADVANCED_FACE('',(#62,#48),#53,.T.);
#185=ADVANCED_FACE('',(#63),#176,.T.);
#186=ADVANCED_FACE('',(#64,#49),#54,.T.);
#187=ADVANCED_FACE('',(#65),#177,.F.);
#188=ADVANCED_FACE('',(#66),#178,.T.);
#189=ADVANCED_FACE('',(#67,#50),#55,.T.);
#190=CLOSED_SHELL('',(#179,#180,#181,#182,#183,#184,#185,#186,#187,#188,
#189));
#191=DERIVED_UNIT_ELEMENT(#193,1.);
#192=DERIVED_UNIT_ELEMENT(#395,-3.);
#193=(
CONVERSION_BASED_UNIT('gram',#195)
MASS_UNIT()
NAMED_UNIT(#392)
);
#194=(
MASS_UNIT()
NAMED_UNIT(*)
SI_UNIT(.KILO.,.GRAM.)
);
#195=MASS_MEASURE_WITH_UNIT(MASS_MEASURE(0.001),#194);
#196=DERIVED_UNIT((#191,#192));
#197=MEASURE_REPRESENTATION_ITEM('density measure',
POSITIVE_RATIO_MEASURE(7.85),#196);
#198=PROPERTY_DEFINITION_REPRESENTATION(#203,#200);
#199=PROPERTY_DEFINITION_REPRESENTATION(#204,#201);
#200=REPRESENTATION('material name',(#202),#389);
#201=REPRESENTATION('density',(#197),#389);
#202=DESCRIPTIVE_REPRESENTATION_ITEM('Steel','Steel');
#203=PROPERTY_DEFINITION('material property','material name',#403);
#204=PROPERTY_DEFINITION('material property','density of part',#403);
#205=DATE_TIME_ROLE('creation_date');
#206=APPLIED_DATE_AND_TIME_ASSIGNMENT(#207,#205,(#403));
#207=DATE_AND_TIME(#208,#209);
#208=CALENDAR_DATE(2026,10,1);
#209=LOCAL_TIME(0,0,0.,#210);
#210=COORDINATED_UNIVERSAL_TIME_OFFSET(0,0,.BEHIND.);
#211=AXIS2_PLACEMENT_3D('',#328,#248,#249);
#212=AXIS2_PLACEMENT_3D('',#329,#250,#251);
#213=AXIS2_PLACEMENT_3D('',#331,#252,#253);
#214=AXIS2_PLACEMENT_3D('',#334,#255,#256);
#215=AXIS2_PLACEMENT_3D('',#335,#257,#258);
#216=AXIS2_PLACEMENT_3D('',#337,#259,#260);
#217=AXIS2_PLACEMENT_3D('',#341,#262,#263);
#218=AXIS2_PLACEMENT_3D('',#342,#264,#265);
#219=AXIS2_PLACEMENT_3D('',#343,#266,#267);
#220=AXIS2_PLACEMENT_3D('',#346,#269,#270);
#221=AXIS2_PLACEMENT_3D('',#347,#271,#272);
#222=AXIS2_PLACEMENT_3D('',#348,#273,#274);
#223=AXIS2_PLACEMENT_3D('',#350,#275,#276);
#224=AXIS2_PLACEMENT_3D('',#351,#277,#278);
#225=AXIS2_PLACEMENT_3D('',#353,#279,#280);
#226=AXIS2_PLACEMENT_3D('',#354,#281,#282);
#227=AXIS2_PLACEMENT_3D('',#356,#283,#284);
#228=AXIS2_PLACEMENT_3D('',#358,#286,#287);
#229=AXIS2_PLACEMENT_3D('',#360,#288,#289);
#230=AXIS2_PLACEMENT_3D('',#361,#290,#291);
#231=AXIS2_PLACEMENT_3D('',#363,#292,#293);
#232=AXIS2_PLACEMENT_3D('',#365,#295,#296);
#233=AXIS2_PLACEMENT_3D('',#367,#297,#298);
#234=AXIS2_PLACEMENT_3D('',#369,#300,#301);
#235=AXIS2_PLACEMENT_3D('view reference',#370,#302,#303);
#236=AXIS2_PLACEMENT_3D('view window',#371,#304,#305);
#237=AXIS2_PLACEMENT_3D('view reference',#373,#306,#307);
#238=AXIS2_PLACEMENT_3D('view window',#374,#308,#309);
#239=AXIS2_PLACEMENT_3D('view reference',#376,#310,#311);
#240=AXIS2_PLACEMENT_3D('view window',#377,#312,#313);
#241=AXIS2_PLACEMENT_3D('view reference',#379,#314,#315);
#242=AXIS2_PLACEMENT_3D('view window',#380,#316,#317);
#243=AXIS2_PLACEMENT_3D('',#382,#318,#319);
#244=AXIS2_PLACEMENT_3D('',#383,#320,#321);
#245=AXIS2_PLACEMENT_3D('',#384,#322,#323);
#246=AXIS2_PLACEMENT_3D('',#385,#324,#325);
#247=AXIS2_PLACEMENT_3D('',#386,#326,#327);
#248=DIRECTION('axis',(0.,0.,1.));
#249=DIRECTION('refdir',(1.,0.,0.));
#250=DIRECTION('center_axis',(2.04881038746701E-16,-1.,-4.14935764646228E-16));
#251=DIRECTION('ref_axis',(1.,2.04881038746701E-16,0.));
#252=DIRECTION('center_axis',(-2.04881038746701E-16,1.,4.14935764646228E-16));
#253=DIRECTION('ref_axis',(1.,2.04881038746701E-16,0.));
#254=DIRECTION('',(-2.04881038746701E-16,1.,4.14935764646228E-16));
#255=DIRECTION('center_axis',(2.04881038746701E-16,-1.,-4.14935764646228E-16));
#256=DIRECTION('ref_axis',(1.,2.04881038746701E-16,0.));
#257=DIRECTION('center_axis',(-1.85037170770859E-16,1.,0.));
#258=DIRECTION('ref_axis',(1.,1.92596739523561E-16,-2.6124255799288E-16));
#259=DIRECTION('center_axis',(-2.04881038746701E-16,1.,4.14935764646228E-16));
#260=DIRECTION('ref_axis',(1.,2.04881038746701E-16,-2.6124255799288E-16));
#261=DIRECTION('',(-0.707106781186547,0.707106781186548,9.8130778667736E-17));
#262=DIRECTION('center_axis',(2.04881038746701E-16,-1.,-4.14935764646228E-16));
#263=DIRECTION('ref_axis',(1.,1.8503717077086E-16,-2.6124255799288E-16));
#264=DIRECTION('center_axis',(2.04881038746701E-16,-1.,-4.14935764646228E-16));
#265=DIRECTION('ref_axis',(1.,1.8503717077086E-16,-2.6124255799288E-16));
#266=DIRECTION('center_axis',(1.8503717077086E-16,-1.,0.));
#267=DIRECTION('ref_axis',(-1.,-1.8503717077086E-16,2.6124255799288E-16));
#268=DIRECTION('',(-1.8503717077086E-16,1.,0.));
#269=DIRECTION('center_axis',(-2.04881038746701E-16,1.,4.14935764646228E-16));
#270=DIRECTION('ref_axis',(-1.,-2.04881038746701E-16,2.6124255799288E-16));
#271=DIRECTION('center_axis',(-2.04881038746701E-16,1.,4.14935764646228E-16));
#272=DIRECTION('ref_axis',(0.,-4.14935764646228E-16,1.));
#273=DIRECTION('center_axis',(-2.04881038746701E-16,1.,4.14935764646228E-16));
#274=DIRECTION('ref_axis',(0.,-4.14935764646228E-16,1.));
#275=DIRECTION('center_axis',(2.04881038746701E-16,-1.,-4.14935764646228E-16));
#276=DIRECTION('ref_axis',(1.,2.04881038746701E-16,-2.6124255799288E-16));
#277=DIRECTION('center_axis',(-2.04881038746701E-16,1.,4.14935764646228E-16));
#278=DIRECTION('ref_axis',(0.,-4.14935764646228E-16,1.));
#279=DIRECTION('center_axis',(-2.04881038746701E-16,1.,4.14935764646228E-16));
#280=DIRECTION('ref_axis',(-1.,-2.04881038746701E-16,2.6124255799288E-16));
#281=DIRECTION('center_axis',(-2.08166817117217E-16,1.,5.55111512312578E-16));
#282=DIRECTION('ref_axis',(-1.,-2.08166817117217E-16,2.6124255799288E-16));
#283=DIRECTION('center_axis',(-2.04881038746701E-16,1.,4.14935764646228E-16));
#284=DIRECTION('ref_axis',(-1.,-2.04881038746701E-16,2.6124255799288E-16));
#285=DIRECTION('',(2.08166817117217E-16,-1.,-5.55111512312578E-16));
#286=DIRECTION('center_axis',(-2.04881038746701E-16,1.,4.14935764646228E-16));
#287=DIRECTION('ref_axis',(0.,-4.14935764646228E-16,1.));
#288=DIRECTION('center_axis',(-2.04881038746701E-16,1.,4.14935764646228E-16));
#289=DIRECTION('ref_axis',(-1.,-2.05275611323922E-16,2.6124255799288E-16));
#290=DIRECTION('center_axis',(-2.05275611323922E-16,1.,3.70074341541719E-16));
#291=DIRECTION('ref_axis',(1.,2.05275611323922E-16,-2.6124255799288E-16));
#292=DIRECTION('center_axis',(2.04881038746701E-16,-1.,-4.14935764646228E-16));
#293=DIRECTION('ref_axis',(1.,2.04881038746701E-16,-2.6124255799288E-16));
#294=DIRECTION('',(2.05275611323922E-16,-1.,-3.70074341541719E-16));
#295=DIRECTION('center_axis',(-2.05275611323922E-16,1.,3.70074341541719E-16));
#296=DIRECTION('ref_axis',(-1.,-2.05275611323922E-16,2.6124255799288E-16));
#297=DIRECTION('center_axis',(-2.04881038746701E-16,1.,4.14935764646228E-16));
#298=DIRECTION('ref_axis',(-1.,-2.04881038746701E-16,2.6124255799288E-16));
#299=DIRECTION('',(2.05275611323922E-16,-1.,-3.70074341541719E-16));
#300=DIRECTION('center_axis',(-2.04881038746701E-16,1.,4.14935764646228E-16));
#301=DIRECTION('ref_axis',(0.,-4.14935764646228E-16,1.));
#302=DIRECTION('center_axis',(-0.577350269189626,-0.577350269189626,-0.577350269189626));
#303=DIRECTION('ref_axis',(-0.707106781186548,0.,0.707106781186548));
#304=DIRECTION('center_axis',(0.,0.,1.));
#305=DIRECTION('ref_axis',(1.,0.,0.));
#306=DIRECTION('center_axis',(4.44089209850062E-16,0.,-1.));
#307=DIRECTION('ref_axis',(-1.,0.,-4.44089209850062E-16));
#308=DIRECTION('center_axis',(0.,0.,1.));
#309=DIRECTION('ref_axis',(1.,0.,0.));
#310=DIRECTION('center_axis',(0.,-1.,0.));
#311=DIRECTION('ref_axis',(-1.,0.,0.));
#312=DIRECTION('center_axis',(0.,0.,1.));
#313=DIRECTION('ref_axis',(1.,0.,0.));
#314=DIRECTION('center_axis',(-1.,0.,0.));
#315=DIRECTION('ref_axis',(0.,0.,1.));
#316=DIRECTION('center_axis',(0.,0.,1.));
#317=DIRECTION('ref_axis',(1.,0.,0.));
#318=DIRECTION('center_axis',(0.,0.,1.));
#319=DIRECTION('ref_axis',(1.,0.,0.));
#320=DIRECTION('center_axis',(0.,0.,1.));
#321=DIRECTION('ref_axis',(1.,0.,0.));
#322=DIRECTION('center_axis',(0.,0.,1.));
#323=DIRECTION('ref_axis',(1.,0.,0.));
#324=DIRECTION('center_axis',(0.,0.,1.));
#325=DIRECTION('ref_axis',(1.,0.,0.));
#326=DIRECTION('center_axis',(0.,0.,1.));
#327=DIRECTION('ref_axis',(1.,0.,0.));
#328=CARTESIAN_POINT('',(0.,0.,0.));
#329=CARTESIAN_POINT('Origin',(0.0863619723828701,3.14477613027934,-1.43900276690515));
#330=CARTESIAN_POINT('',(0.027306854272634,2.41173106023921,-1.43900276690515));
#331=CARTESIAN_POINT('Origin',(0.0863619723828703,2.41173106023921,-1.43900276690515));
#332=CARTESIAN_POINT('',(0.027306854272634,2.52984129645968,-1.43900276690515));
#333=CARTESIAN_POINT('',(0.0273068542726339,3.14477613027934,-1.43900276690515));
#334=CARTESIAN_POINT('Origin',(0.0863619723828703,2.52984129645968,-1.43900276690515));
#335=CARTESIAN_POINT('Origin',(0.0863619723828703,2.44125861929433,-1.43900276690515));
#336=CARTESIAN_POINT('',(-0.00812621659350778,2.41173106023921,-1.43900276690515));
#337=CARTESIAN_POINT('Origin',(0.0863619723828703,2.41173106023921,-1.43900276690515));
#338=CARTESIAN_POINT('',(-0.067181334703744,2.47078617834944,-1.43900276690515));
#339=CARTESIAN_POINT('',(-0.0376537756486259,2.44125861929433,-1.43900276690515));
#340=CARTESIAN_POINT('',(0.239905279469485,2.47078617834944,-1.43900276690515));
#341=CARTESIAN_POINT('Origin',(0.0863619723828703,2.47078617834944,-1.43900276690515));
#342=CARTESIAN_POINT('Origin',(0.0863619723828703,2.47078617834944,-1.43900276690515));
#343=CARTESIAN_POINT('Origin',(0.0863619723828703,2.52984129645968,-1.43900276690515));
#344=CARTESIAN_POINT('',(0.239905279469485,2.52984129645968,-1.43900276690515));
#345=CARTESIAN_POINT('',(0.239905279469485,2.52984129645968,-1.43900276690515));
#346=CARTESIAN_POINT('Origin',(0.0863619723828703,2.52984129645968,-1.43900276690515));
#347=CARTESIAN_POINT('Origin',(0.0863619723828703,2.41173106023921,-1.43900276690515));
#348=CARTESIAN_POINT('Origin',(0.0863619723828703,2.52984129645968,-1.43900276690515));
#349=CARTESIAN_POINT('',(0.00762181490255533,2.52984129645968,-1.43900276690515));
#350=CARTESIAN_POINT('Origin',(0.0863619723828703,2.52984129645968,-1.43900276690515));
#351=CARTESIAN_POINT('Origin',(0.0863619723828703,2.52984129645968,-1.43900276690515));
#352=CARTESIAN_POINT('',(0.200535200729327,2.52984129645968,-1.43900276690515));
#353=CARTESIAN_POINT('Origin',(0.0863619723828703,2.52984129645968,-1.43900276690515));
#354=CARTESIAN_POINT('Origin',(0.0863619723828703,2.52984129645968,-1.43900276690515));
#355=CARTESIAN_POINT('',(0.200535200729327,2.84480192638094,-1.43900276690515));
#356=CARTESIAN_POINT('Origin',(0.0863619723828702,2.84480192638094,-1.43900276690515));
#357=CARTESIAN_POINT('',(0.200535200729327,2.52984129645968,-1.43900276690515));
#358=CARTESIAN_POINT('Origin',(0.0863619723828702,2.84480192638094,-1.43900276690515));
#359=CARTESIAN_POINT('',(0.17888165742224,2.84480192638094,-1.43900276690515));
#360=CARTESIAN_POINT('Origin',(0.0863619723828702,2.84480192638094,-1.43900276690515));
#361=CARTESIAN_POINT('Origin',(0.0863619723828703,2.52984129645968,-1.43900276690515));
#362=CARTESIAN_POINT('',(0.00762181490255523,3.00228224134157,-1.43900276690515));
#363=CARTESIAN_POINT('Origin',(0.0863619723828702,3.00228224134157,-1.43900276690515));
#364=CARTESIAN_POINT('',(0.00762181490255533,2.52984129645968,-1.43900276690515));
#365=CARTESIAN_POINT('Origin',(0.0863619723828703,2.52984129645968,-1.43900276690515));
#366=CARTESIAN_POINT('',(0.17888165742224,3.00228224134157,-1.43900276690515));
#367=CARTESIAN_POINT('Origin',(0.0863619723828702,3.00228224134157,-1.43900276690515));
#368=CARTESIAN_POINT('',(0.17888165742224,2.52984129645968,-1.43900276690515));
#369=CARTESIAN_POINT('Origin',(0.0863619723828702,3.00228224134157,-1.43900276690515));
#370=CARTESIAN_POINT('Origin',(0.245290792424413,0.245290792424413,0.245290792424413));
#371=CARTESIAN_POINT('Origin',(-0.723867849852102,-0.393700787401575,0.424856115107914));
#372=CARTESIAN_POINT('',(0.,0.,0.));
#373=CARTESIAN_POINT('Origin',(-1.23101125816757E-15,0.,2.77199092178618));
#374=CARTESIAN_POINT('Origin',(-0.825277937818748,-0.393700787401575,2.77199092178618));
#375=CARTESIAN_POINT('',(0.,0.,0.));
#376=CARTESIAN_POINT('Origin',(0.,2.77199092178618,0.));
#377=CARTESIAN_POINT('Origin',(-0.825277937818748,-0.393700787401575,2.77199092178618));
#378=CARTESIAN_POINT('',(0.,0.,0.));
#379=CARTESIAN_POINT('Origin',(2.77199092178618,0.,0.));
#380=CARTESIAN_POINT('Origin',(-0.825277937818748,-0.393700787401575,2.77199092178618));
#381=CARTESIAN_POINT('',(0.,0.,0.));
#382=CARTESIAN_POINT('Origin',(0.,0.,0.));
#383=CARTESIAN_POINT('Origin',(0.,0.,0.));
#384=CARTESIAN_POINT('Origin',(0.,0.,0.));
#385=CARTESIAN_POINT('Origin',(0.,0.,0.));
#386=CARTESIAN_POINT('Origin',(0.,0.,0.));
#387=UNCERTAINTY_MEASURE_WITH_UNIT(LENGTH_MEASURE(0.000393700787401575),
#393,'DISTANCE_ACCURACY_VALUE',
'Maximum model space distance between geometric entities at asserted c
onnectivities');
#388=UNCERTAINTY_MEASURE_WITH_UNIT(LENGTH_MEASURE(0.000393700787401575),
#393,'DISTANCE_ACCURACY_VALUE',
'Maximum model space distance between geometric entities at asserted c
onnectivities');
#389=(
GEOMETRIC_REPRESENTATION_CONTEXT(3)
GLOBAL_UNCERTAINTY_ASSIGNED_CONTEXT((#387))
GLOBAL_UNIT_ASSIGNED_CONTEXT((#393,#397,#398))
REPRESENTATION_CONTEXT('','3D')
);
#390=(
GEOMETRIC_REPRESENTATION_CONTEXT(3)
GLOBAL_UNCERTAINTY_ASSIGNED_CONTEXT((#388))
GLOBAL_UNIT_ASSIGNED_CONTEXT((#393,#397,#398))
REPRESENTATION_CONTEXT('','3D')
);
#391=DIMENSIONAL_EXPONENTS(1.,0.,0.,0.,0.,0.,0.);
#392=DIMENSIONAL_EXPONENTS(0.,1.,0.,0.,0.,0.,0.);
#393=(
CONVERSION_BASED_UNIT('inch',#396)
LENGTH_UNIT()
NAMED_UNIT(#391)
);
#394=(
LENGTH_UNIT()
NAMED_UNIT(*)
SI_UNIT(.MILLI.,.METRE.)
);
#395=(
LENGTH_UNIT()
NAMED_UNIT(*)
SI_UNIT(.CENTI.,.METRE.)
);
#396=LENGTH_MEASURE_WITH_UNIT(LENGTH_MEASURE(25.4),#394);
#397=(
NAMED_UNIT(*)
PLANE_ANGLE_UNIT()
SI_UNIT($,.RADIAN.)
);
#398=(
NAMED_UNIT(*)
SI_UNIT($,.STERADIAN.)
SOLID_ANGLE_UNIT()
);
#399=SHAPE_DEFINITION_REPRESENTATION(#400,#401);
#400=PRODUCT_DEFINITION_SHAPE('',$,#403);
#401=SHAPE_REPRESENTATION('',(#211,#45),#389);
#402=PRODUCT_DEFINITION_CONTEXT('part definition',#407,'design');
#403=PRODUCT_DEFINITION('LED Mount','LED Mount',#404,#402);
#404=PRODUCT_DEFINITION_FORMATION('',$,#409);
#405=PRODUCT_RELATED_PRODUCT_CATEGORY('LED Mount','LED Mount',(#409));
#406=APPLICATION_PROTOCOL_DEFINITION('international standard',
'ap242_managed_model_based_3d_engineering',2011,#407);
#407=APPLICATION_CONTEXT('Managed model based 3d engineering');
#408=PRODUCT_CONTEXT('part definition',#407,'mechanical');
#409=PRODUCT('LED Mount','LED Mount',$,(#408));
#410=PRESENTATION_STYLE_ASSIGNMENT((#412));
#411=PRESENTATION_STYLE_ASSIGNMENT((NULL_STYLE(.NULL.)));
#412=SURFACE_STYLE_USAGE(.BOTH.,#415);
#413=SURFACE_STYLE_RENDERING_WITH_PROPERTIES($,#419,(#414));
#414=SURFACE_STYLE_TRANSPARENT(0.);
#415=SURFACE_SIDE_STYLE('',(#416,#413));
#416=SURFACE_STYLE_FILL_AREA(#417);
#417=FILL_AREA_STYLE('',(#418));
#418=FILL_AREA_STYLE_COLOUR('',#419);
#419=COLOUR_RGB('',0.956862745098039,0.956862745098039,0.956862745098039);
ENDSEC;
END-ISO-10303-21;
