ISO-10303-21;
HEADER;
/* Generated by software containing ST-Developer
 * from STEP Tools, Inc. (www.steptools.com) 
 */

FILE_DESCRIPTION(
/* description */ (''),
/* implementation_level */ '2;1');

FILE_NAME(
/* name */ 'C:/Users/36997/Desktop/\X2\80F676AE6015\X0\.stp',
/* time_stamp */ '2026-02-18T21:00:13+08:00',
/* author */ (''),
/* organization */ (''),
/* preprocessor_version */ 'ST-DEVELOPER v15.2',
/* originating_system */ 'Autodesk Translator Framework v2.0.0.5431',
/* authorisation */ '');

FILE_SCHEMA (('AUTOMOTIVE_DESIGN { 1 0 10303 214 3 1 1 }'));
ENDSEC;

DATA;
#10=SHAPE_REPRESENTATION_RELATIONSHIP('SRR','None',#700,#11);
#11=ADVANCED_BREP_SHAPE_REPRESENTATION($,(#418,#419,#420),#694);
#12=STYLED_ITEM($,(#708),#418);
#13=STYLED_ITEM($,(#708),#419);
#14=STYLED_ITEM($,(#708),#420);
#15=CONICAL_SURFACE($,#441,0.37,0.785398163397449);
#16=LINE($,#597,#54);
#17=LINE($,#599,#55);
#18=LINE($,#601,#56);
#19=LINE($,#602,#57);
#20=LINE($,#606,#58);
#21=LINE($,#608,#59);
#22=LINE($,#610,#60);
#23=LINE($,#611,#61);
#24=LINE($,#615,#62);
#25=LINE($,#617,#63);
#26=LINE($,#618,#64);
#27=LINE($,#621,#65);
#28=LINE($,#622,#66);
#29=LINE($,#625,#67);
#30=LINE($,#626,#68);
#31=LINE($,#628,#69);
#32=LINE($,#644,#70);
#33=LINE($,#646,#71);
#34=LINE($,#648,#72);
#35=LINE($,#649,#73);
#36=LINE($,#652,#74);
#37=LINE($,#654,#75);
#38=LINE($,#655,#76);
#39=LINE($,#661,#77);
#40=LINE($,#663,#78);
#41=LINE($,#664,#79);
#42=LINE($,#670,#80);
#43=LINE($,#672,#81);
#44=LINE($,#674,#82);
#45=LINE($,#675,#83);
#46=LINE($,#678,#84);
#47=LINE($,#680,#85);
#48=LINE($,#681,#86);
#49=LINE($,#684,#87);
#50=LINE($,#686,#88);
#51=LINE($,#687,#89);
#52=LINE($,#689,#90);
#53=LINE($,#690,#91);
#54=VECTOR($,#483,0.9);
#55=VECTOR($,#484,0.00100403232362511);
#56=VECTOR($,#485,0.9);
#57=VECTOR($,#486,0.00100403232362689);
#58=VECTOR($,#489,0.9);
#59=VECTOR($,#490,0.00100403232362689);
#60=VECTOR($,#491,0.9);
#61=VECTOR($,#492,0.00100403232362511);
#62=VECTOR($,#497,0.15);
#63=VECTOR($,#498,0.25);
#64=VECTOR($,#499,0.15);
#65=VECTOR($,#502,0.9);
#66=VECTOR($,#503,0.15);
#67=VECTOR($,#506,0.9);
#68=VECTOR($,#507,0.15);
#69=VECTOR($,#510,0.25);
#70=VECTOR($,#531,0.107972191703342);
#71=VECTOR($,#532,0.13);
#72=VECTOR($,#533,0.107972191703342);
#73=VECTOR($,#534,0.13);
#74=VECTOR($,#537,0.350092911071236);
#75=VECTOR($,#538,0.350092911071236);
#76=VECTOR($,#539,0.13);
#77=VECTOR($,#546,0.13);
#78=VECTOR($,#549,0.350815104412487);
#79=VECTOR($,#550,0.350815104412487);
#80=VECTOR($,#557,1.07);
#81=VECTOR($,#558,0.12);
#82=VECTOR($,#559,1.07);
#83=VECTOR($,#560,0.12);
#84=VECTOR($,#563,0.1);
#85=VECTOR($,#564,0.1);
#86=VECTOR($,#565,0.12);
#87=VECTOR($,#568,1.07);
#88=VECTOR($,#569,1.07);
#89=VECTOR($,#570,0.12);
#90=VECTOR($,#573,0.100000000000001);
#91=VECTOR($,#574,0.100000000000001);
#92=PLANE($,#425);
#93=PLANE($,#429);
#94=PLANE($,#431);
#95=PLANE($,#432);
#96=PLANE($,#433);
#97=PLANE($,#435);
#98=PLANE($,#436);
#99=PLANE($,#437);
#100=PLANE($,#438);
#101=PLANE($,#446);
#102=PLANE($,#447);
#103=PLANE($,#448);
#104=PLANE($,#452);
#105=PLANE($,#453);
#106=PLANE($,#454);
#107=PLANE($,#455);
#108=PLANE($,#456);
#109=PLANE($,#457);
#110=PLANE($,#458);
#111=PLANE($,#459);
#112=PLANE($,#460);
#113=FACE_BOUND($,#150,.T.);
#114=FACE_BOUND($,#151,.T.);
#115=FACE_BOUND($,#152,.T.);
#116=FACE_BOUND($,#154,.T.);
#117=FACE_BOUND($,#155,.T.);
#118=FACE_BOUND($,#156,.T.);
#119=FACE_BOUND($,#163,.T.);
#120=FACE_BOUND($,#164,.T.);
#121=FACE_BOUND($,#166,.T.);
#122=FACE_BOUND($,#168,.T.);
#123=FACE_BOUND($,#170,.T.);
#124=FACE_BOUND($,#171,.T.);
#125=FACE_BOUND($,#172,.T.);
#126=FACE_OUTER_BOUND($,#149,.T.);
#127=FACE_OUTER_BOUND($,#153,.T.);
#128=FACE_OUTER_BOUND($,#157,.T.);
#129=FACE_OUTER_BOUND($,#158,.T.);
#130=FACE_OUTER_BOUND($,#159,.T.);
#131=FACE_OUTER_BOUND($,#160,.T.);
#132=FACE_OUTER_BOUND($,#161,.T.);
#133=FACE_OUTER_BOUND($,#162,.T.);
#134=FACE_OUTER_BOUND($,#165,.T.);
#135=FACE_OUTER_BOUND($,#167,.T.);
#136=FACE_OUTER_BOUND($,#169,.T.);
#137=FACE_OUTER_BOUND($,#173,.T.);
#138=FACE_OUTER_BOUND($,#174,.T.);
#139=FACE_OUTER_BOUND($,#175,.T.);
#140=FACE_OUTER_BOUND($,#176,.T.);
#141=FACE_OUTER_BOUND($,#177,.T.);
#142=FACE_OUTER_BOUND($,#178,.T.);
#143=FACE_OUTER_BOUND($,#179,.T.);
#144=FACE_OUTER_BOUND($,#180,.T.);
#145=FACE_OUTER_BOUND($,#181,.T.);
#146=FACE_OUTER_BOUND($,#182,.T.);
#147=FACE_OUTER_BOUND($,#183,.T.);
#148=FACE_OUTER_BOUND($,#184,.T.);
#149=EDGE_LOOP($,(#283));
#150=EDGE_LOOP($,(#284));
#151=EDGE_LOOP($,(#285));
#152=EDGE_LOOP($,(#286));
#153=EDGE_LOOP($,(#287));
#154=EDGE_LOOP($,(#288));
#155=EDGE_LOOP($,(#289));
#156=EDGE_LOOP($,(#290));
#157=EDGE_LOOP($,(#291,#292,#293,#294));
#158=EDGE_LOOP($,(#295,#296,#297,#298));
#159=EDGE_LOOP($,(#299,#300,#301,#302,#303,#304));
#160=EDGE_LOOP($,(#305,#306,#307,#308));
#161=EDGE_LOOP($,(#309,#310,#311,#312));
#162=EDGE_LOOP($,(#313,#314,#315,#316));
#163=EDGE_LOOP($,(#317));
#164=EDGE_LOOP($,(#318,#319,#320,#321,#322,#323));
#165=EDGE_LOOP($,(#324));
#166=EDGE_LOOP($,(#325));
#167=EDGE_LOOP($,(#326));
#168=EDGE_LOOP($,(#327));
#169=EDGE_LOOP($,(#328,#329,#330,#331));
#170=EDGE_LOOP($,(#332));
#171=EDGE_LOOP($,(#333));
#172=EDGE_LOOP($,(#334));
#173=EDGE_LOOP($,(#335,#336,#337,#338));
#174=EDGE_LOOP($,(#339,#340,#341,#342));
#175=EDGE_LOOP($,(#343,#344,#345,#346));
#176=EDGE_LOOP($,(#347,#348,#349,#350));
#177=EDGE_LOOP($,(#351,#352,#353,#354));
#178=EDGE_LOOP($,(#355,#356,#357,#358));
#179=EDGE_LOOP($,(#359,#360,#361,#362));
#180=EDGE_LOOP($,(#363,#364,#365,#366));
#181=EDGE_LOOP($,(#367,#368,#369,#370));
#182=EDGE_LOOP($,(#371,#372,#373,#374));
#183=EDGE_LOOP($,(#375,#376,#377,#378));
#184=EDGE_LOOP($,(#379,#380,#381,#382));
#185=CIRCLE($,#423,0.4);
#186=CIRCLE($,#424,0.4);
#187=CIRCLE($,#426,0.42);
#188=CIRCLE($,#428,0.42);
#189=CIRCLE($,#430,0.32);
#190=CIRCLE($,#434,0.52);
#191=CIRCLE($,#439,0.42);
#192=CIRCLE($,#440,0.52);
#193=CIRCLE($,#442,0.32);
#194=CIRCLE($,#445,0.52);
#195=CIRCLE($,#450,0.529292452404657);
#196=CIRCLE($,#451,0.529292452404657);
#197=VERTEX_POINT($,#581);
#198=VERTEX_POINT($,#583);
#199=VERTEX_POINT($,#586);
#200=VERTEX_POINT($,#589);
#201=VERTEX_POINT($,#592);
#202=VERTEX_POINT($,#595);
#203=VERTEX_POINT($,#596);
#204=VERTEX_POINT($,#598);
#205=VERTEX_POINT($,#600);
#206=VERTEX_POINT($,#604);
#207=VERTEX_POINT($,#605);
#208=VERTEX_POINT($,#607);
#209=VERTEX_POINT($,#609);
#210=VERTEX_POINT($,#614);
#211=VERTEX_POINT($,#616);
#212=VERTEX_POINT($,#620);
#213=VERTEX_POINT($,#624);
#214=VERTEX_POINT($,#630);
#215=VERTEX_POINT($,#634);
#216=VERTEX_POINT($,#638);
#217=VERTEX_POINT($,#642);
#218=VERTEX_POINT($,#643);
#219=VERTEX_POINT($,#645);
#220=VERTEX_POINT($,#647);
#221=VERTEX_POINT($,#651);
#222=VERTEX_POINT($,#653);
#223=VERTEX_POINT($,#657);
#224=VERTEX_POINT($,#659);
#225=VERTEX_POINT($,#668);
#226=VERTEX_POINT($,#669);
#227=VERTEX_POINT($,#671);
#228=VERTEX_POINT($,#673);
#229=VERTEX_POINT($,#677);
#230=VERTEX_POINT($,#679);
#231=VERTEX_POINT($,#683);
#232=VERTEX_POINT($,#685);
#233=EDGE_CURVE($,#197,#197,#185,.T.);
#234=EDGE_CURVE($,#198,#198,#186,.T.);
#235=EDGE_CURVE($,#199,#199,#187,.T.);
#236=EDGE_CURVE($,#200,#200,#188,.T.);
#237=EDGE_CURVE($,#201,#201,#189,.T.);
#238=EDGE_CURVE($,#202,#203,#16,.T.);
#239=EDGE_CURVE($,#202,#204,#17,.T.);
#240=EDGE_CURVE($,#204,#205,#18,.T.);
#241=EDGE_CURVE($,#205,#203,#19,.T.);
#242=EDGE_CURVE($,#206,#207,#20,.T.);
#243=EDGE_CURVE($,#206,#208,#21,.T.);
#244=EDGE_CURVE($,#208,#209,#22,.T.);
#245=EDGE_CURVE($,#209,#207,#23,.T.);
#246=EDGE_CURVE($,#203,#206,#190,.T.);
#247=EDGE_CURVE($,#210,#205,#24,.T.);
#248=EDGE_CURVE($,#210,#211,#25,.T.);
#249=EDGE_CURVE($,#211,#208,#26,.T.);
#250=EDGE_CURVE($,#212,#210,#27,.T.);
#251=EDGE_CURVE($,#212,#204,#28,.T.);
#252=EDGE_CURVE($,#211,#213,#29,.T.);
#253=EDGE_CURVE($,#213,#209,#30,.T.);
#254=EDGE_CURVE($,#213,#212,#31,.T.);
#255=EDGE_CURVE($,#214,#214,#191,.T.);
#256=EDGE_CURVE($,#207,#202,#192,.T.);
#257=EDGE_CURVE($,#215,#215,#193,.T.);
#258=EDGE_CURVE($,#216,#216,#194,.T.);
#259=EDGE_CURVE($,#217,#218,#32,.T.);
#260=EDGE_CURVE($,#218,#219,#33,.T.);
#261=EDGE_CURVE($,#220,#219,#34,.T.);
#262=EDGE_CURVE($,#217,#220,#35,.T.);
#263=EDGE_CURVE($,#221,#217,#36,.T.);
#264=EDGE_CURVE($,#222,#220,#37,.T.);
#265=EDGE_CURVE($,#221,#222,#38,.T.);
#266=EDGE_CURVE($,#223,#221,#195,.T.);
#267=EDGE_CURVE($,#224,#222,#196,.T.);
#268=EDGE_CURVE($,#223,#224,#39,.T.);
#269=EDGE_CURVE($,#223,#218,#40,.T.);
#270=EDGE_CURVE($,#219,#224,#41,.T.);
#271=EDGE_CURVE($,#225,#226,#42,.T.);
#272=EDGE_CURVE($,#226,#227,#43,.F.);
#273=EDGE_CURVE($,#228,#227,#44,.T.);
#274=EDGE_CURVE($,#225,#228,#45,.T.);
#275=EDGE_CURVE($,#229,#225,#46,.T.);
#276=EDGE_CURVE($,#230,#228,#47,.T.);
#277=EDGE_CURVE($,#229,#230,#48,.T.);
#278=EDGE_CURVE($,#231,#229,#49,.T.);
#279=EDGE_CURVE($,#232,#230,#50,.T.);
#280=EDGE_CURVE($,#231,#232,#51,.T.);
#281=EDGE_CURVE($,#226,#231,#52,.F.);
#282=EDGE_CURVE($,#227,#232,#53,.F.);
#283=ORIENTED_EDGE($,*,*,#233,.F.);
#284=ORIENTED_EDGE($,*,*,#234,.F.);
#285=ORIENTED_EDGE($,*,*,#234,.T.);
#286=ORIENTED_EDGE($,*,*,#235,.F.);
#287=ORIENTED_EDGE($,*,*,#235,.T.);
#288=ORIENTED_EDGE($,*,*,#236,.F.);
#289=ORIENTED_EDGE($,*,*,#237,.F.);
#290=ORIENTED_EDGE($,*,*,#236,.T.);
#291=ORIENTED_EDGE($,*,*,#238,.F.);
#292=ORIENTED_EDGE($,*,*,#239,.T.);
#293=ORIENTED_EDGE($,*,*,#240,.T.);
#294=ORIENTED_EDGE($,*,*,#241,.T.);
#295=ORIENTED_EDGE($,*,*,#242,.F.);
#296=ORIENTED_EDGE($,*,*,#243,.T.);
#297=ORIENTED_EDGE($,*,*,#244,.T.);
#298=ORIENTED_EDGE($,*,*,#245,.T.);
#299=ORIENTED_EDGE($,*,*,#246,.F.);
#300=ORIENTED_EDGE($,*,*,#241,.F.);
#301=ORIENTED_EDGE($,*,*,#247,.F.);
#302=ORIENTED_EDGE($,*,*,#248,.T.);
#303=ORIENTED_EDGE($,*,*,#249,.T.);
#304=ORIENTED_EDGE($,*,*,#243,.F.);
#305=ORIENTED_EDGE($,*,*,#250,.T.);
#306=ORIENTED_EDGE($,*,*,#247,.T.);
#307=ORIENTED_EDGE($,*,*,#240,.F.);
#308=ORIENTED_EDGE($,*,*,#251,.F.);
#309=ORIENTED_EDGE($,*,*,#252,.T.);
#310=ORIENTED_EDGE($,*,*,#253,.T.);
#311=ORIENTED_EDGE($,*,*,#244,.F.);
#312=ORIENTED_EDGE($,*,*,#249,.F.);
#313=ORIENTED_EDGE($,*,*,#248,.F.);
#314=ORIENTED_EDGE($,*,*,#250,.F.);
#315=ORIENTED_EDGE($,*,*,#254,.F.);
#316=ORIENTED_EDGE($,*,*,#252,.F.);
#317=ORIENTED_EDGE($,*,*,#255,.F.);
#318=ORIENTED_EDGE($,*,*,#256,.F.);
#319=ORIENTED_EDGE($,*,*,#245,.F.);
#320=ORIENTED_EDGE($,*,*,#253,.F.);
#321=ORIENTED_EDGE($,*,*,#254,.T.);
#322=ORIENTED_EDGE($,*,*,#251,.T.);
#323=ORIENTED_EDGE($,*,*,#239,.F.);
#324=ORIENTED_EDGE($,*,*,#257,.T.);
#325=ORIENTED_EDGE($,*,*,#255,.T.);
#326=ORIENTED_EDGE($,*,*,#237,.T.);
#327=ORIENTED_EDGE($,*,*,#257,.F.);
#328=ORIENTED_EDGE($,*,*,#242,.T.);
#329=ORIENTED_EDGE($,*,*,#256,.T.);
#330=ORIENTED_EDGE($,*,*,#238,.T.);
#331=ORIENTED_EDGE($,*,*,#246,.T.);
#332=ORIENTED_EDGE($,*,*,#258,.F.);
#333=ORIENTED_EDGE($,*,*,#233,.T.);
#334=ORIENTED_EDGE($,*,*,#258,.T.);
#335=ORIENTED_EDGE($,*,*,#259,.T.);
#336=ORIENTED_EDGE($,*,*,#260,.T.);
#337=ORIENTED_EDGE($,*,*,#261,.F.);
#338=ORIENTED_EDGE($,*,*,#262,.F.);
#339=ORIENTED_EDGE($,*,*,#263,.T.);
#340=ORIENTED_EDGE($,*,*,#262,.T.);
#341=ORIENTED_EDGE($,*,*,#264,.F.);
#342=ORIENTED_EDGE($,*,*,#265,.F.);
#343=ORIENTED_EDGE($,*,*,#266,.T.);
#344=ORIENTED_EDGE($,*,*,#265,.T.);
#345=ORIENTED_EDGE($,*,*,#267,.F.);
#346=ORIENTED_EDGE($,*,*,#268,.F.);
#347=ORIENTED_EDGE($,*,*,#269,.F.);
#348=ORIENTED_EDGE($,*,*,#268,.T.);
#349=ORIENTED_EDGE($,*,*,#270,.F.);
#350=ORIENTED_EDGE($,*,*,#260,.F.);
#351=ORIENTED_EDGE($,*,*,#269,.T.);
#352=ORIENTED_EDGE($,*,*,#259,.F.);
#353=ORIENTED_EDGE($,*,*,#263,.F.);
#354=ORIENTED_EDGE($,*,*,#266,.F.);
#355=ORIENTED_EDGE($,*,*,#270,.T.);
#356=ORIENTED_EDGE($,*,*,#267,.T.);
#357=ORIENTED_EDGE($,*,*,#264,.T.);
#358=ORIENTED_EDGE($,*,*,#261,.T.);
#359=ORIENTED_EDGE($,*,*,#271,.T.);
#360=ORIENTED_EDGE($,*,*,#272,.T.);
#361=ORIENTED_EDGE($,*,*,#273,.F.);
#362=ORIENTED_EDGE($,*,*,#274,.F.);
#363=ORIENTED_EDGE($,*,*,#275,.T.);
#364=ORIENTED_EDGE($,*,*,#274,.T.);
#365=ORIENTED_EDGE($,*,*,#276,.F.);
#366=ORIENTED_EDGE($,*,*,#277,.F.);
#367=ORIENTED_EDGE($,*,*,#278,.T.);
#368=ORIENTED_EDGE($,*,*,#277,.T.);
#369=ORIENTED_EDGE($,*,*,#279,.F.);
#370=ORIENTED_EDGE($,*,*,#280,.F.);
#371=ORIENTED_EDGE($,*,*,#281,.T.);
#372=ORIENTED_EDGE($,*,*,#280,.T.);
#373=ORIENTED_EDGE($,*,*,#282,.F.);
#374=ORIENTED_EDGE($,*,*,#272,.F.);
#375=ORIENTED_EDGE($,*,*,#282,.T.);
#376=ORIENTED_EDGE($,*,*,#279,.T.);
#377=ORIENTED_EDGE($,*,*,#276,.T.);
#378=ORIENTED_EDGE($,*,*,#273,.T.);
#379=ORIENTED_EDGE($,*,*,#281,.F.);
#380=ORIENTED_EDGE($,*,*,#271,.F.);
#381=ORIENTED_EDGE($,*,*,#275,.F.);
#382=ORIENTED_EDGE($,*,*,#278,.F.);
#383=CYLINDRICAL_SURFACE($,#422,0.4);
#384=CYLINDRICAL_SURFACE($,#427,0.42);
#385=CYLINDRICAL_SURFACE($,#443,0.32);
#386=CYLINDRICAL_SURFACE($,#444,0.52);
#387=CYLINDRICAL_SURFACE($,#449,0.529292452404657);
#388=ADVANCED_FACE($,(#126,#113),#383,.F.);
#389=ADVANCED_FACE($,(#114,#115),#92,.F.);
#390=ADVANCED_FACE($,(#127,#116),#384,.F.);
#391=ADVANCED_FACE($,(#117,#118),#93,.T.);
#392=ADVANCED_FACE($,(#128),#94,.T.);
#393=ADVANCED_FACE($,(#129),#95,.T.);
#394=ADVANCED_FACE($,(#130),#96,.T.);
#395=ADVANCED_FACE($,(#131),#97,.T.);
#396=ADVANCED_FACE($,(#132),#98,.T.);
#397=ADVANCED_FACE($,(#133),#99,.F.);
#398=ADVANCED_FACE($,(#119,#120),#100,.F.);
#399=ADVANCED_FACE($,(#134,#121),#15,.F.);
#400=ADVANCED_FACE($,(#135,#122),#385,.F.);
#401=ADVANCED_FACE($,(#136,#123),#386,.T.);
#402=ADVANCED_FACE($,(#124,#125),#101,.T.);
#403=ADVANCED_FACE($,(#137),#102,.T.);
#404=ADVANCED_FACE($,(#138),#103,.T.);
#405=ADVANCED_FACE($,(#139),#387,.F.);
#406=ADVANCED_FACE($,(#140),#104,.T.);
#407=ADVANCED_FACE($,(#141),#105,.T.);
#408=ADVANCED_FACE($,(#142),#106,.F.);
#409=ADVANCED_FACE($,(#143),#107,.T.);
#410=ADVANCED_FACE($,(#144),#108,.T.);
#411=ADVANCED_FACE($,(#145),#109,.T.);
#412=ADVANCED_FACE($,(#146),#110,.T.);
#413=ADVANCED_FACE($,(#147),#111,.T.);
#414=ADVANCED_FACE($,(#148),#112,.F.);
#415=CLOSED_SHELL($,(#388,#389,#390,#391,#392,#393,#394,#395,#396,#397,
#398,#399,#400,#401,#402));
#416=CLOSED_SHELL($,(#403,#404,#405,#406,#407,#408));
#417=CLOSED_SHELL($,(#409,#410,#411,#412,#413,#414));
#418=MANIFOLD_SOLID_BREP('ASM Body',#415);
#419=MANIFOLD_SOLID_BREP('ASM Body',#416);
#420=MANIFOLD_SOLID_BREP('ASM Body',#417);
#421=AXIS2_PLACEMENT_3D('placement',#579,#461,#462);
#422=AXIS2_PLACEMENT_3D($,#580,#463,#464);
#423=AXIS2_PLACEMENT_3D($,#582,#465,#466);
#424=AXIS2_PLACEMENT_3D($,#584,#467,#468);
#425=AXIS2_PLACEMENT_3D($,#585,#469,#470);
#426=AXIS2_PLACEMENT_3D($,#587,#471,#472);
#427=AXIS2_PLACEMENT_3D($,#588,#473,#474);
#428=AXIS2_PLACEMENT_3D($,#590,#475,#476);
#429=AXIS2_PLACEMENT_3D($,#591,#477,#478);
#430=AXIS2_PLACEMENT_3D($,#593,#479,#480);
#431=AXIS2_PLACEMENT_3D($,#594,#481,#482);
#432=AXIS2_PLACEMENT_3D($,#603,#487,#488);
#433=AXIS2_PLACEMENT_3D($,#612,#493,#494);
#434=AXIS2_PLACEMENT_3D($,#613,#495,#496);
#435=AXIS2_PLACEMENT_3D($,#619,#500,#501);
#436=AXIS2_PLACEMENT_3D($,#623,#504,#505);
#437=AXIS2_PLACEMENT_3D($,#627,#508,#509);
#438=AXIS2_PLACEMENT_3D($,#629,#511,#512);
#439=AXIS2_PLACEMENT_3D($,#631,#513,#514);
#440=AXIS2_PLACEMENT_3D($,#632,#515,#516);
#441=AXIS2_PLACEMENT_3D($,#633,#517,#518);
#442=AXIS2_PLACEMENT_3D($,#635,#519,#520);
#443=AXIS2_PLACEMENT_3D($,#636,#521,#522);
#444=AXIS2_PLACEMENT_3D($,#637,#523,#524);
#445=AXIS2_PLACEMENT_3D($,#639,#525,#526);
#446=AXIS2_PLACEMENT_3D($,#640,#527,#528);
#447=AXIS2_PLACEMENT_3D($,#641,#529,#530);
#448=AXIS2_PLACEMENT_3D($,#650,#535,#536);
#449=AXIS2_PLACEMENT_3D($,#656,#540,#541);
#450=AXIS2_PLACEMENT_3D($,#658,#542,#543);
#451=AXIS2_PLACEMENT_3D($,#660,#544,#545);
#452=AXIS2_PLACEMENT_3D($,#662,#547,#548);
#453=AXIS2_PLACEMENT_3D($,#665,#551,#552);
#454=AXIS2_PLACEMENT_3D($,#666,#553,#554);
#455=AXIS2_PLACEMENT_3D($,#667,#555,#556);
#456=AXIS2_PLACEMENT_3D($,#676,#561,#562);
#457=AXIS2_PLACEMENT_3D($,#682,#566,#567);
#458=AXIS2_PLACEMENT_3D($,#688,#571,#572);
#459=AXIS2_PLACEMENT_3D($,#691,#575,#576);
#460=AXIS2_PLACEMENT_3D($,#692,#577,#578);
#461=DIRECTION('axis',(0.,0.,1.));
#462=DIRECTION('refdir',(1.,0.,0.));
#463=DIRECTION('center_axis',(0.,0.,1.));
#464=DIRECTION('ref_axis',(1.,0.,0.));
#465=DIRECTION('center_axis',(0.,0.,-1.));
#466=DIRECTION('ref_axis',(1.,0.,0.));
#467=DIRECTION('center_axis',(0.,0.,1.));
#468=DIRECTION('ref_axis',(1.,0.,0.));
#469=DIRECTION('center_axis',(0.,0.,1.));
#470=DIRECTION('ref_axis',(1.,0.,0.));
#471=DIRECTION('center_axis',(0.,0.,1.));
#472=DIRECTION('ref_axis',(1.,0.,0.));
#473=DIRECTION('center_axis',(0.,0.,1.));
#474=DIRECTION('ref_axis',(1.,0.,0.));
#475=DIRECTION('center_axis',(0.,0.,1.));
#476=DIRECTION('ref_axis',(1.,0.,0.));
#477=DIRECTION('center_axis',(0.,0.,1.));
#478=DIRECTION('ref_axis',(1.,0.,0.));
#479=DIRECTION('center_axis',(0.,0.,1.));
#480=DIRECTION('ref_axis',(1.,0.,0.));
#481=DIRECTION('center_axis',(1.,0.,2.22044604925031E-016));
#482=DIRECTION('ref_axis',(4.44089209850063E-016,0.,-1.));
#483=DIRECTION($,(0.,0.,1.));
#484=DIRECTION($,(0.,1.,0.));
#485=DIRECTION($,(-2.22044604925031E-016,0.,1.));
#486=DIRECTION($,(0.,-1.,0.));
#487=DIRECTION('center_axis',(1.,0.,2.22044604925031E-016));
#488=DIRECTION('ref_axis',(4.44089209850063E-016,0.,-1.));
#489=DIRECTION($,(0.,0.,-1.));
#490=DIRECTION($,(0.,-1.,0.));
#491=DIRECTION($,(2.22044604925031E-016,0.,-1.));
#492=DIRECTION($,(0.,1.,0.));
#493=DIRECTION('center_axis',(-2.22044604925031E-016,0.,1.));
#494=DIRECTION('ref_axis',(0.,-1.,0.));
#495=DIRECTION('center_axis',(-2.22044604925031E-016,0.,1.));
#496=DIRECTION('ref_axis',(1.,0.,0.));
#497=DIRECTION($,(1.,0.,2.22044604925031E-016));
#498=DIRECTION($,(0.,-1.,0.));
#499=DIRECTION($,(1.,0.,2.22044604925031E-016));
#500=DIRECTION('center_axis',(0.,1.,0.));
#501=DIRECTION('ref_axis',(-4.44089209850063E-016,0.,1.));
#502=DIRECTION($,(-2.22044604925031E-016,0.,1.));
#503=DIRECTION($,(1.,0.,2.22044604925031E-016));
#504=DIRECTION('center_axis',(0.,-1.,0.));
#505=DIRECTION('ref_axis',(4.44089209850063E-016,0.,-1.));
#506=DIRECTION($,(2.22044604925031E-016,0.,-1.));
#507=DIRECTION($,(1.,0.,2.22044604925031E-016));
#508=DIRECTION('center_axis',(1.,0.,2.22044604925031E-016));
#509=DIRECTION('ref_axis',(4.44089209850063E-016,0.,-1.));
#510=DIRECTION($,(0.,1.,0.));
#511=DIRECTION('center_axis',(0.,0.,1.));
#512=DIRECTION('ref_axis',(1.,0.,0.));
#513=DIRECTION('center_axis',(0.,0.,-1.));
#514=DIRECTION('ref_axis',(1.,0.,0.));
#515=DIRECTION('center_axis',(0.,0.,1.));
#516=DIRECTION('ref_axis',(1.,0.,0.));
#517=DIRECTION('center_axis',(0.,0.,-1.));
#518=DIRECTION('ref_axis',(1.,0.,0.));
#519=DIRECTION('center_axis',(0.,0.,1.));
#520=DIRECTION('ref_axis',(1.,0.,0.));
#521=DIRECTION('center_axis',(0.,0.,1.));
#522=DIRECTION('ref_axis',(1.,0.,0.));
#523=DIRECTION('center_axis',(0.,0.,1.));
#524=DIRECTION('ref_axis',(1.,0.,0.));
#525=DIRECTION('center_axis',(0.,0.,1.));
#526=DIRECTION('ref_axis',(1.,0.,0.));
#527=DIRECTION('center_axis',(0.,0.,1.));
#528=DIRECTION('ref_axis',(1.,0.,0.));
#529=DIRECTION('center_axis',(0.0824821669638714,2.21287996965847E-016,
0.996592540676953));
#530=DIRECTION('ref_axis',(0.996592540676953,0.,-0.0824821669638715));
#531=DIRECTION($,(0.996592540676953,-1.83147201768533E-017,-0.0824821669638714));
#532=DIRECTION($,(0.,1.,-2.22044604925031E-016));
#533=DIRECTION($,(0.996592540676953,-1.83147201768533E-017,-0.0824821669638714));
#534=DIRECTION($,(0.,1.,-2.22044604925031E-016));
#535=DIRECTION('center_axis',(-0.997844848689943,1.45700146328919E-017,
0.0656175124714748));
#536=DIRECTION('ref_axis',(0.0656175124714746,0.,0.997844848689943));
#537=DIRECTION($,(0.0656175124714748,2.21566065203836E-016,0.997844848689943));
#538=DIRECTION($,(0.0656175124714748,2.21566065203836E-016,0.997844848689943));
#539=DIRECTION($,(0.,1.,-2.22044604925031E-016));
#540=DIRECTION('center_axis',(0.,1.,-2.22044604925031E-016));
#541=DIRECTION('ref_axis',(0.207454440711274,2.17213953613283E-016,0.978244680552454));
#542=DIRECTION('center_axis',(0.,-1.,2.22044604925031E-016));
#543=DIRECTION('ref_axis',(0.207454440711274,2.17213953613283E-016,0.978244680552454));
#544=DIRECTION('center_axis',(0.,-1.,2.22044604925031E-016));
#545=DIRECTION('ref_axis',(0.207454440711274,2.17213953613283E-016,0.978244680552454));
#546=DIRECTION($,(0.,1.,-2.22044604925031E-016));
#547=DIRECTION('center_axis',(0.988263581984061,3.39191522335877E-017,0.152758281359909));
#548=DIRECTION('ref_axis',(0.152758281359909,0.,-0.988263581984061));
#549=DIRECTION($,(-0.152758281359909,2.19438596623447E-016,0.988263581984061));
#550=DIRECTION($,(0.152758281359909,-2.19438596623447E-016,-0.988263581984061));
#551=DIRECTION('center_axis',(0.,-1.,2.22044604925031E-016));
#552=DIRECTION('ref_axis',(1.,0.,0.));
#553=DIRECTION('center_axis',(0.,-1.,2.22044604925031E-016));
#554=DIRECTION('ref_axis',(1.,0.,0.));
#555=DIRECTION('center_axis',(0.,1.,0.));
#556=DIRECTION('ref_axis',(-4.44089209850063E-016,0.,1.));
#557=DIRECTION($,(-2.22044604925031E-016,0.,1.));
#558=DIRECTION($,(-1.,0.,-2.22044604925031E-016));
#559=DIRECTION($,(-2.22044604925031E-016,0.,1.));
#560=DIRECTION($,(1.,0.,2.22044604925031E-016));
#561=DIRECTION('center_axis',(2.22044604925031E-016,0.,-1.));
#562=DIRECTION('ref_axis',(0.,1.,0.));
#563=DIRECTION($,(0.,1.,0.));
#564=DIRECTION($,(0.,1.,0.));
#565=DIRECTION($,(1.,0.,2.22044604925031E-016));
#566=DIRECTION('center_axis',(0.,-1.,0.));
#567=DIRECTION('ref_axis',(0.,0.,-1.));
#568=DIRECTION($,(2.22044604925031E-016,0.,-1.));
#569=DIRECTION($,(2.22044604925031E-016,0.,-1.));
#570=DIRECTION($,(1.,0.,2.22044604925031E-016));
#571=DIRECTION('center_axis',(-2.22044604925031E-016,0.,1.));
#572=DIRECTION('ref_axis',(0.,-1.,0.));
#573=DIRECTION($,(0.,1.,0.));
#574=DIRECTION($,(0.,1.,0.));
#575=DIRECTION('center_axis',(1.,0.,2.22044604925031E-016));
#576=DIRECTION('ref_axis',(0.,0.,-1.));
#577=DIRECTION('center_axis',(1.,0.,2.22044604925031E-016));
#578=DIRECTION('ref_axis',(4.44089209850063E-016,0.,-1.));
#579=CARTESIAN_POINT('',(0.,0.,0.));
#580=CARTESIAN_POINT('Origin',(-2.5,2.5,1.47));
#581=CARTESIAN_POINT('',(-2.9,2.5,1.57));
#582=CARTESIAN_POINT('Origin',(-2.5,2.5,1.57));
#583=CARTESIAN_POINT('',(-2.9,2.5,1.47));
#584=CARTESIAN_POINT('Origin',(-2.5,2.5,1.47));
#585=CARTESIAN_POINT('Origin',(-2.5,2.5,1.47));
#586=CARTESIAN_POINT('',(-2.92,2.5,1.47));
#587=CARTESIAN_POINT('Origin',(-2.5,2.5,1.47));
#588=CARTESIAN_POINT('Origin',(-2.5,2.5,0.4));
#589=CARTESIAN_POINT('',(-2.92,2.5,0.4));
#590=CARTESIAN_POINT('Origin',(-2.5,2.5,0.4));
#591=CARTESIAN_POINT('Origin',(-2.5,2.5,0.4));
#592=CARTESIAN_POINT('',(-2.82,2.5,0.4));
#593=CARTESIAN_POINT('Origin',(-2.5,2.5,0.4));
#594=CARTESIAN_POINT('Origin',(-3.005,2.5,0.45));
#595=CARTESIAN_POINT('',(-3.005,2.62399596767637,5.55111512312578E-016));
#596=CARTESIAN_POINT('',(-3.005,2.62399596767637,0.9));
#597=CARTESIAN_POINT($,(-3.005,2.62399596767637,0.));
#598=CARTESIAN_POINT('',(-3.005,2.625,5.55111512312578E-016));
#599=CARTESIAN_POINT($,(-3.005,2.375,5.55111512312578E-016));
#600=CARTESIAN_POINT('',(-3.005,2.625,0.9));
#601=CARTESIAN_POINT($,(-3.005,2.625,5.55111512312578E-016));
#602=CARTESIAN_POINT($,(-3.005,2.625,0.9));
#603=CARTESIAN_POINT('Origin',(-3.005,2.5,0.45));
#604=CARTESIAN_POINT('',(-3.005,2.37600403232363,0.9));
#605=CARTESIAN_POINT('',(-3.005,2.37600403232363,5.55111512312578E-016));
#606=CARTESIAN_POINT($,(-3.005,2.37600403232363,0.));
#607=CARTESIAN_POINT('',(-3.005,2.375,0.9));
#608=CARTESIAN_POINT($,(-3.005,2.625,0.9));
#609=CARTESIAN_POINT('',(-3.005,2.375,5.55111512312578E-016));
#610=CARTESIAN_POINT($,(-3.005,2.375,0.9));
#611=CARTESIAN_POINT($,(-3.005,2.375,5.55111512312578E-016));
#612=CARTESIAN_POINT('Origin',(-3.155,2.625,0.9));
#613=CARTESIAN_POINT('Origin',(-2.5,2.5,0.9));
#614=CARTESIAN_POINT('',(-3.155,2.625,0.9));
#615=CARTESIAN_POINT($,(-3.155,2.625,0.9));
#616=CARTESIAN_POINT('',(-3.155,2.375,0.9));
#617=CARTESIAN_POINT($,(-3.155,2.625,0.9));
#618=CARTESIAN_POINT($,(-3.155,2.375,0.9));
#619=CARTESIAN_POINT('Origin',(-3.155,2.625,5.55111512312578E-016));
#620=CARTESIAN_POINT('',(-3.155,2.625,5.55111512312578E-016));
#621=CARTESIAN_POINT($,(-3.155,2.625,5.55111512312578E-016));
#622=CARTESIAN_POINT($,(-3.155,2.625,5.55111512312578E-016));
#623=CARTESIAN_POINT('Origin',(-3.155,2.375,0.9));
#624=CARTESIAN_POINT('',(-3.155,2.375,5.55111512312578E-016));
#625=CARTESIAN_POINT($,(-3.155,2.375,0.9));
#626=CARTESIAN_POINT($,(-3.155,2.375,5.55111512312578E-016));
#627=CARTESIAN_POINT('Origin',(-3.155,2.5,0.45));
#628=CARTESIAN_POINT($,(-3.155,2.375,5.55111512312578E-016));
#629=CARTESIAN_POINT('Origin',(-2.5,2.5,0.));
#630=CARTESIAN_POINT('',(-2.92,2.5,0.));
#631=CARTESIAN_POINT('Origin',(-2.5,2.5,0.));
#632=CARTESIAN_POINT('Origin',(-2.5,2.5,0.));
#633=CARTESIAN_POINT('Origin',(-2.5,2.5,0.05));
#634=CARTESIAN_POINT('',(-2.82,2.5,0.1));
#635=CARTESIAN_POINT('Origin',(-2.5,2.5,0.1));
#636=CARTESIAN_POINT('Origin',(-2.5,2.5,0.));
#637=CARTESIAN_POINT('Origin',(-2.5,2.5,0.));
#638=CARTESIAN_POINT('',(-3.02,2.5,1.57));
#639=CARTESIAN_POINT('Origin',(-2.5,2.5,1.57));
#640=CARTESIAN_POINT('Origin',(-2.5,2.5,1.57));
#641=CARTESIAN_POINT('Origin',(-2.56080685811107,2.82219939712108,0.812801762180306));
#642=CARTESIAN_POINT('',(-2.56080685811107,2.82219939712108,0.812801762180306));
#643=CARTESIAN_POINT('',(-2.45320257725898,2.82219939712108,0.803895981836775));
#644=CARTESIAN_POINT($,(-2.56080685811107,2.82219939712108,0.812801762180306));
#645=CARTESIAN_POINT('',(-2.45320257725898,2.95219939712108,0.803895981836775));
#646=CARTESIAN_POINT($,(-2.45320257725898,2.82219939712108,0.803895981836775));
#647=CARTESIAN_POINT('',(-2.56080685811107,2.95219939712108,0.812801762180306));
#648=CARTESIAN_POINT($,(-2.56080685811107,2.95219939712108,0.812801762180306));
#649=CARTESIAN_POINT($,(-2.56080685811107,2.82219939712108,0.812801762180306));
#650=CARTESIAN_POINT('Origin',(-2.58377908406946,2.82219939712108,0.463463354305006));
#651=CARTESIAN_POINT('',(-2.58377908406946,2.82219939712108,0.463463354305006));
#652=CARTESIAN_POINT($,(-2.58377908406946,2.82219939712108,0.463463354305006));
#653=CARTESIAN_POINT('',(-2.58377908406946,2.95219939712108,0.463463354305006));
#654=CARTESIAN_POINT($,(-2.58377908406946,2.95219939712108,0.463463354305006));
#655=CARTESIAN_POINT($,(-2.58377908406946,2.82219939712108,0.463463354305006));
#656=CARTESIAN_POINT('Origin',(-2.50941673452013,2.82219939712108,-0.0605793358854403));
#657=CARTESIAN_POINT('',(-2.39961266483383,2.82219939712108,0.457198190135978));
#658=CARTESIAN_POINT('Origin',(-2.50941673452013,2.82219939712108,-0.0605793358854403));
#659=CARTESIAN_POINT('',(-2.39961266483383,2.95219939712108,0.457198190135978));
#660=CARTESIAN_POINT('Origin',(-2.50941673452013,2.95219939712107,-0.0605793358854403));
#661=CARTESIAN_POINT($,(-2.39961266483383,2.82219939712108,0.457198190135978));
#662=CARTESIAN_POINT('Origin',(-2.45320257725898,2.82219939712108,0.803895981836775));
#663=CARTESIAN_POINT($,(-2.39961266483383,2.82219939712108,0.457198190135978));
#664=CARTESIAN_POINT($,(-2.39961266483383,2.95219939712108,0.457198190135978));
#665=CARTESIAN_POINT('Origin',(-2.49169587445164,2.82219939712108,0.634999976158142));
#666=CARTESIAN_POINT('Origin',(-2.49169587445164,2.95219939712108,0.634999976158142));
#667=CARTESIAN_POINT('Origin',(-2.56,2.15,0.4));
#668=CARTESIAN_POINT('',(-2.56,2.15,0.4));
#669=CARTESIAN_POINT('',(-2.56,2.15,1.47));
#670=CARTESIAN_POINT($,(-2.56,2.15,0.4));
#671=CARTESIAN_POINT('',(-2.44,2.15,1.47));
#672=CARTESIAN_POINT($,(-2.56,2.15,1.47));
#673=CARTESIAN_POINT('',(-2.44,2.15,0.4));
#674=CARTESIAN_POINT($,(-2.44,2.15,0.4));
#675=CARTESIAN_POINT($,(-2.56,2.15,0.4));
#676=CARTESIAN_POINT('Origin',(-2.56,2.05,0.4));
#677=CARTESIAN_POINT('',(-2.56,2.05,0.4));
#678=CARTESIAN_POINT($,(-2.56,2.05,0.4));
#679=CARTESIAN_POINT('',(-2.44,2.05,0.4));
#680=CARTESIAN_POINT($,(-2.44,2.05,0.4));
#681=CARTESIAN_POINT($,(-2.56,2.05,0.4));
#682=CARTESIAN_POINT('Origin',(-2.56,2.05,1.57));
#683=CARTESIAN_POINT('',(-2.56,2.05,1.47));
#684=CARTESIAN_POINT($,(-2.56,2.05,1.57));
#685=CARTESIAN_POINT('',(-2.44,2.05,1.47));
#686=CARTESIAN_POINT($,(-2.44,2.05,1.57));
#687=CARTESIAN_POINT($,(-2.56,2.05,1.47));
#688=CARTESIAN_POINT('Origin',(-2.56,2.15,1.47));
#689=CARTESIAN_POINT($,(-2.56,2.125,1.47));
#690=CARTESIAN_POINT($,(-2.44,2.125,1.47));
#691=CARTESIAN_POINT('Origin',(-2.44,2.1,0.985));
#692=CARTESIAN_POINT('Origin',(-2.56,2.1,0.985));
#693=UNCERTAINTY_MEASURE_WITH_UNIT(LENGTH_MEASURE(0.001),#695,
'DISTANCE_ACCURACY_VALUE',
'Maximum model space distance between geometric entities at asserted c
onnectivities');
#694=(
GEOMETRIC_REPRESENTATION_CONTEXT(3)
GLOBAL_UNCERTAINTY_ASSIGNED_CONTEXT((#693))
GLOBAL_UNIT_ASSIGNED_CONTEXT((#695,#697,#696))
REPRESENTATION_CONTEXT('','3D')
);
#695=(
LENGTH_UNIT()
NAMED_UNIT(*)
SI_UNIT(.CENTI.,.METRE.)
);
#696=(
NAMED_UNIT(*)
SI_UNIT($,.STERADIAN.)
SOLID_ANGLE_UNIT()
);
#697=(
NAMED_UNIT(*)
PLANE_ANGLE_UNIT()
SI_UNIT($,.RADIAN.)
);
#698=SHAPE_DEFINITION_REPRESENTATION(#699,#700);
#699=PRODUCT_DEFINITION_SHAPE('',$,#702);
#700=SHAPE_REPRESENTATION('',(#421),#694);
#701=PRODUCT_DEFINITION_CONTEXT('3D Mechanical Parts',#705,'design');
#702=PRODUCT_DEFINITION('(\X2\672A4FDD5B58\X0\)','(\X2\672A4FDD5B58\X0\)',
#703,#701);
#703=PRODUCT_DEFINITION_FORMATION('',$,#707);
#704=APPLICATION_PROTOCOL_DEFINITION('international standard',
'automotive_design',2009,#705);
#705=APPLICATION_CONTEXT(
'Core Data for Automotive Mechanical Design Process');
#706=PRODUCT_CONTEXT('3D Mechanical Parts',#705,'mechanical');
#707=PRODUCT('(\X2\672A4FDD5B58\X0\)','(\X2\672A4FDD5B58\X0\)',$,(#706));
#708=PRESENTATION_STYLE_ASSIGNMENT((#709));
#709=SURFACE_STYLE_USAGE(.BOTH.,#710);
#710=SURFACE_SIDE_STYLE($,(#711));
#711=SURFACE_STYLE_FILL_AREA(#712);
#712=FILL_AREA_STYLE($,(#713));
#713=FILL_AREA_STYLE_COLOUR($,#714);
#714=COLOUR_RGB('__RGBA_0.322_0.702_0.937',0.32156862745098,0.701960784313725,
0.937254901960784);
ENDSEC;
END-ISO-10303-21;
