ISO-10303-21;
HEADER;
/* Generated by software containing ST-Developer
 * from STEP Tools, Inc. (www.steptools.com) 
 */

FILE_DESCRIPTION(
/* description */ (''),
/* implementation_level */ '2;1');

FILE_NAME(
/* name */ 'BRACKET.step',
/* time_stamp */ '2026-02-06T15:16:03+05:30',
/* author */ (''),
/* organization */ (''),
/* preprocessor_version */ 'ST-DEVELOPER v20.1',
/* originating_system */ 'Autodesk Translation Framework v14.24.0.0',
/* authorisation */ '');

FILE_SCHEMA (('AUTOMOTIVE_DESIGN { 1 0 10303 214 3 1 1 }'));
ENDSEC;

DATA;
#10=MECHANICAL_DESIGN_GEOMETRIC_PRESENTATION_REPRESENTATION('',(#27,#28,
#29),#1164);
#11=CONTEXT_DEPENDENT_OVER_RIDING_STYLED_ITEM('',(#1197),#1178,#29,(#17));
#12=CONTEXT_DEPENDENT_OVER_RIDING_STYLED_ITEM('',(#1198),#1179,#29,(#18));
#13=MAPPED_ITEM('',#14,#766);
#14=REPRESENTATION_MAP(#766,#1177);
#15=ITEM_DEFINED_TRANSFORMATION($,$,#698,#764);
#16=ITEM_DEFINED_TRANSFORMATION($,$,#728,#765);
#17=(
REPRESENTATION_RELATIONSHIP($,$,#1178,#1177)
REPRESENTATION_RELATIONSHIP_WITH_TRANSFORMATION(#15)
SHAPE_REPRESENTATION_RELATIONSHIP()
);
#18=(
REPRESENTATION_RELATIONSHIP($,$,#1179,#1177)
REPRESENTATION_RELATIONSHIP_WITH_TRANSFORMATION(#16)
SHAPE_REPRESENTATION_RELATIONSHIP()
);
#19=CONTEXT_DEPENDENT_SHAPE_REPRESENTATION(#17,#1175);
#20=CONTEXT_DEPENDENT_SHAPE_REPRESENTATION(#18,#1176);
#21=NEXT_ASSEMBLY_USAGE_OCCURRENCE('BRACKET PART 2:1',
'BRACKET PART 2:1','BRACKET PART 2:1',#1181,#1182,'BRACKET PART 2:1');
#22=NEXT_ASSEMBLY_USAGE_OCCURRENCE('PRMT MACHINE BRACKET:1',
'PRMT MACHINE BRACKET:1','PRMT MACHINE BRACKET:1',#1181,#1183,
'PRMT MACHINE BRACKET:1');
#23=SHAPE_REPRESENTATION_RELATIONSHIP('SRR','None',#1178,#25);
#24=SHAPE_REPRESENTATION_RELATIONSHIP('SRR','None',#1179,#26);
#25=ADVANCED_BREP_SHAPE_REPRESENTATION('',(#30),#1162);
#26=ADVANCED_BREP_SHAPE_REPRESENTATION('',(#31),#1163);
#27=STYLED_ITEM('',(#1197),#30);
#28=STYLED_ITEM('',(#1198),#31);
#29=STYLED_ITEM('',(#1199),#13);
#30=MANIFOLD_SOLID_BREP('Body1',#672);
#31=MANIFOLD_SOLID_BREP('Body1',#673);
#32=FACE_BOUND('',#102,.T.);
#33=FACE_BOUND('',#103,.T.);
#34=FACE_BOUND('',#109,.T.);
#35=FACE_BOUND('',#110,.T.);
#36=FACE_BOUND('',#115,.T.);
#37=FACE_BOUND('',#117,.T.);
#38=FACE_BOUND('',#123,.T.);
#39=FACE_BOUND('',#129,.T.);
#40=FACE_BOUND('',#130,.T.);
#41=FACE_BOUND('',#133,.T.);
#42=FACE_BOUND('',#134,.T.);
#43=FACE_BOUND('',#142,.T.);
#44=PLANE('',#708);
#45=PLANE('',#709);
#46=PLANE('',#713);
#47=PLANE('',#714);
#48=PLANE('',#718);
#49=PLANE('',#719);
#50=PLANE('',#726);
#51=PLANE('',#727);
#52=PLANE('',#729);
#53=PLANE('',#730);
#54=PLANE('',#731);
#55=PLANE('',#735);
#56=PLANE('',#748);
#57=PLANE('',#749);
#58=PLANE('',#753);
#59=PLANE('',#754);
#60=PLANE('',#757);
#61=PLANE('',#758);
#62=PLANE('',#763);
#63=FACE_OUTER_BOUND('',#97,.T.);
#64=FACE_OUTER_BOUND('',#98,.T.);
#65=FACE_OUTER_BOUND('',#99,.T.);
#66=FACE_OUTER_BOUND('',#100,.T.);
#67=FACE_OUTER_BOUND('',#101,.T.);
#68=FACE_OUTER_BOUND('',#104,.T.);
#69=FACE_OUTER_BOUND('',#105,.T.);
#70=FACE_OUTER_BOUND('',#106,.T.);
#71=FACE_OUTER_BOUND('',#107,.T.);
#72=FACE_OUTER_BOUND('',#108,.T.);
#73=FACE_OUTER_BOUND('',#111,.T.);
#74=FACE_OUTER_BOUND('',#112,.T.);
#75=FACE_OUTER_BOUND('',#113,.T.);
#76=FACE_OUTER_BOUND('',#114,.T.);
#77=FACE_OUTER_BOUND('',#116,.T.);
#78=FACE_OUTER_BOUND('',#118,.T.);
#79=FACE_OUTER_BOUND('',#119,.T.);
#80=FACE_OUTER_BOUND('',#120,.T.);
#81=FACE_OUTER_BOUND('',#121,.T.);
#82=FACE_OUTER_BOUND('',#122,.T.);
#83=FACE_OUTER_BOUND('',#124,.T.);
#84=FACE_OUTER_BOUND('',#125,.T.);
#85=FACE_OUTER_BOUND('',#126,.T.);
#86=FACE_OUTER_BOUND('',#127,.T.);
#87=FACE_OUTER_BOUND('',#128,.T.);
#88=FACE_OUTER_BOUND('',#131,.T.);
#89=FACE_OUTER_BOUND('',#132,.T.);
#90=FACE_OUTER_BOUND('',#135,.T.);
#91=FACE_OUTER_BOUND('',#136,.T.);
#92=FACE_OUTER_BOUND('',#137,.T.);
#93=FACE_OUTER_BOUND('',#138,.T.);
#94=FACE_OUTER_BOUND('',#139,.T.);
#95=FACE_OUTER_BOUND('',#140,.T.);
#96=FACE_OUTER_BOUND('',#141,.T.);
#97=EDGE_LOOP('',(#443,#444,#445,#446));
#98=EDGE_LOOP('',(#447,#448,#449,#450));
#99=EDGE_LOOP('',(#451,#452,#453,#454));
#100=EDGE_LOOP('',(#455,#456,#457,#458));
#101=EDGE_LOOP('',(#459,#460,#461,#462,#463,#464));
#102=EDGE_LOOP('',(#465));
#103=EDGE_LOOP('',(#466));
#104=EDGE_LOOP('',(#467,#468,#469,#470));
#105=EDGE_LOOP('',(#471,#472,#473,#474,#475,#476));
#106=EDGE_LOOP('',(#477,#478,#479,#480));
#107=EDGE_LOOP('',(#481,#482,#483,#484));
#108=EDGE_LOOP('',(#485,#486,#487,#488,#489,#490,#491,#492));
#109=EDGE_LOOP('',(#493));
#110=EDGE_LOOP('',(#494));
#111=EDGE_LOOP('',(#495,#496,#497,#498));
#112=EDGE_LOOP('',(#499,#500,#501,#502));
#113=EDGE_LOOP('',(#503,#504,#505,#506));
#114=EDGE_LOOP('',(#507,#508,#509,#510,#511,#512,#513));
#115=EDGE_LOOP('',(#514));
#116=EDGE_LOOP('',(#515,#516,#517,#518,#519));
#117=EDGE_LOOP('',(#520));
#118=EDGE_LOOP('',(#521,#522,#523,#524));
#119=EDGE_LOOP('',(#525,#526,#527,#528));
#120=EDGE_LOOP('',(#529,#530,#531,#532));
#121=EDGE_LOOP('',(#533,#534,#535,#536));
#122=EDGE_LOOP('',(#537,#538,#539,#540,#541,#542,#543,#544,#545));
#123=EDGE_LOOP('',(#546));
#124=EDGE_LOOP('',(#547,#548,#549,#550));
#125=EDGE_LOOP('',(#551,#552,#553,#554));
#126=EDGE_LOOP('',(#555,#556,#557,#558));
#127=EDGE_LOOP('',(#559,#560,#561,#562));
#128=EDGE_LOOP('',(#563,#564,#565,#566,#567,#568,#569));
#129=EDGE_LOOP('',(#570));
#130=EDGE_LOOP('',(#571));
#131=EDGE_LOOP('',(#572,#573,#574,#575));
#132=EDGE_LOOP('',(#576,#577,#578,#579,#580,#581,#582,#583,#584));
#133=EDGE_LOOP('',(#585));
#134=EDGE_LOOP('',(#586));
#135=EDGE_LOOP('',(#587,#588,#589,#590));
#136=EDGE_LOOP('',(#591,#592,#593,#594));
#137=EDGE_LOOP('',(#595,#596,#597,#598,#599,#600));
#138=EDGE_LOOP('',(#601,#602,#603,#604,#605,#606,#607,#608));
#139=EDGE_LOOP('',(#609,#610,#611,#612));
#140=EDGE_LOOP('',(#613,#614,#615,#616));
#141=EDGE_LOOP('',(#617,#618,#619,#620,#621));
#142=EDGE_LOOP('',(#622));
#143=LINE('',#973,#203);
#144=LINE('',#979,#204);
#145=LINE('',#986,#205);
#146=LINE('',#989,#206);
#147=LINE('',#992,#207);
#148=LINE('',#994,#208);
#149=LINE('',#995,#209);
#150=LINE('',#998,#210);
#151=LINE('',#1000,#211);
#152=LINE('',#1002,#212);
#153=LINE('',#1007,#213);
#154=LINE('',#1010,#214);
#155=LINE('',#1012,#215);
#156=LINE('',#1014,#216);
#157=LINE('',#1015,#217);
#158=LINE('',#1018,#218);
#159=LINE('',#1019,#219);
#160=LINE('',#1024,#220);
#161=LINE('',#1028,#221);
#162=LINE('',#1030,#222);
#163=LINE('',#1031,#223);
#164=LINE('',#1034,#224);
#165=LINE('',#1036,#225);
#166=LINE('',#1037,#226);
#167=LINE('',#1043,#227);
#168=LINE('',#1053,#228);
#169=LINE('',#1055,#229);
#170=LINE('',#1057,#230);
#171=LINE('',#1058,#231);
#172=LINE('',#1061,#232);
#173=LINE('',#1063,#233);
#174=LINE('',#1064,#234);
#175=LINE('',#1067,#235);
#176=LINE('',#1068,#236);
#177=LINE('',#1074,#237);
#178=LINE('',#1077,#238);
#179=LINE('',#1080,#239);
#180=LINE('',#1085,#240);
#181=LINE('',#1087,#241);
#182=LINE('',#1088,#242);
#183=LINE('',#1095,#243);
#184=LINE('',#1101,#244);
#185=LINE('',#1108,#245);
#186=LINE('',#1111,#246);
#187=LINE('',#1114,#247);
#188=LINE('',#1116,#248);
#189=LINE('',#1117,#249);
#190=LINE('',#1119,#250);
#191=LINE('',#1121,#251);
#192=LINE('',#1126,#252);
#193=LINE('',#1128,#253);
#194=LINE('',#1130,#254);
#195=LINE('',#1132,#255);
#196=LINE('',#1133,#256);
#197=LINE('',#1138,#257);
#198=LINE('',#1142,#258);
#199=LINE('',#1143,#259);
#200=LINE('',#1144,#260);
#201=LINE('',#1146,#261);
#202=LINE('',#1150,#262);
#203=VECTOR('',#775,1.61);
#204=VECTOR('',#782,1.61);
#205=VECTOR('',#789,10.);
#206=VECTOR('',#792,10.);
#207=VECTOR('',#795,10.);
#208=VECTOR('',#796,10.);
#209=VECTOR('',#797,10.);
#210=VECTOR('',#800,10.);
#211=VECTOR('',#801,10.);
#212=VECTOR('',#802,10.);
#213=VECTOR('',#809,10.);
#214=VECTOR('',#812,10.);
#215=VECTOR('',#813,10.);
#216=VECTOR('',#814,10.);
#217=VECTOR('',#815,10.);
#218=VECTOR('',#818,10.);
#219=VECTOR('',#819,10.);
#220=VECTOR('',#824,8.00000000000001);
#221=VECTOR('',#829,10.);
#222=VECTOR('',#830,10.);
#223=VECTOR('',#831,10.);
#224=VECTOR('',#834,10.);
#225=VECTOR('',#835,10.);
#226=VECTOR('',#836,10.);
#227=VECTOR('',#843,10.);
#228=VECTOR('',#858,10.);
#229=VECTOR('',#859,10.);
#230=VECTOR('',#860,10.);
#231=VECTOR('',#861,10.);
#232=VECTOR('',#864,10.);
#233=VECTOR('',#865,10.);
#234=VECTOR('',#866,10.);
#235=VECTOR('',#869,10.);
#236=VECTOR('',#870,10.);
#237=VECTOR('',#875,10.);
#238=VECTOR('',#878,10.);
#239=VECTOR('',#881,10.);
#240=VECTOR('',#886,10.);
#241=VECTOR('',#887,10.);
#242=VECTOR('',#888,10.);
#243=VECTOR('',#895,1.60976639797038);
#244=VECTOR('',#902,1.61);
#245=VECTOR('',#909,10.);
#246=VECTOR('',#912,10.);
#247=VECTOR('',#915,10.);
#248=VECTOR('',#916,10.);
#249=VECTOR('',#917,10.);
#250=VECTOR('',#920,10.);
#251=VECTOR('',#921,10.);
#252=VECTOR('',#928,10.);
#253=VECTOR('',#931,10.);
#254=VECTOR('',#932,10.);
#255=VECTOR('',#933,10.);
#256=VECTOR('',#934,10.);
#257=VECTOR('',#941,8.2724519435666);
#258=VECTOR('',#944,10.);
#259=VECTOR('',#945,10.);
#260=VECTOR('',#946,10.);
#261=VECTOR('',#949,10.);
#262=VECTOR('',#954,10.);
#263=CIRCLE('',#700,1.61);
#264=CIRCLE('',#701,1.61);
#265=CIRCLE('',#703,1.61);
#266=CIRCLE('',#704,1.61);
#267=CIRCLE('',#706,5.);
#268=CIRCLE('',#707,5.);
#269=CIRCLE('',#710,5.);
#270=CIRCLE('',#712,5.);
#271=CIRCLE('',#716,8.00000000000001);
#272=CIRCLE('',#717,8.00000000000001);
#273=CIRCLE('',#721,15.);
#274=CIRCLE('',#722,15.);
#275=CIRCLE('',#724,15.);
#276=CIRCLE('',#725,15.);
#277=CIRCLE('',#733,0.9);
#278=CIRCLE('',#734,0.9);
#279=CIRCLE('',#736,15.);
#280=CIRCLE('',#737,15.);
#281=CIRCLE('',#738,8.2724519435666);
#282=CIRCLE('',#740,1.60976639797038);
#283=CIRCLE('',#741,1.60976639797038);
#284=CIRCLE('',#743,1.61);
#285=CIRCLE('',#744,1.61);
#286=CIRCLE('',#746,5.);
#287=CIRCLE('',#747,5.);
#288=CIRCLE('',#750,5.);
#289=CIRCLE('',#752,5.);
#290=CIRCLE('',#756,8.2724519435666);
#291=CIRCLE('',#760,15.);
#292=CIRCLE('',#762,15.);
#293=VERTEX_POINT('',#970);
#294=VERTEX_POINT('',#972);
#295=VERTEX_POINT('',#976);
#296=VERTEX_POINT('',#978);
#297=VERTEX_POINT('',#982);
#298=VERTEX_POINT('',#983);
#299=VERTEX_POINT('',#985);
#300=VERTEX_POINT('',#987);
#301=VERTEX_POINT('',#991);
#302=VERTEX_POINT('',#993);
#303=VERTEX_POINT('',#997);
#304=VERTEX_POINT('',#999);
#305=VERTEX_POINT('',#1001);
#306=VERTEX_POINT('',#1005);
#307=VERTEX_POINT('',#1009);
#308=VERTEX_POINT('',#1011);
#309=VERTEX_POINT('',#1013);
#310=VERTEX_POINT('',#1017);
#311=VERTEX_POINT('',#1021);
#312=VERTEX_POINT('',#1023);
#313=VERTEX_POINT('',#1027);
#314=VERTEX_POINT('',#1029);
#315=VERTEX_POINT('',#1033);
#316=VERTEX_POINT('',#1035);
#317=VERTEX_POINT('',#1039);
#318=VERTEX_POINT('',#1041);
#319=VERTEX_POINT('',#1051);
#320=VERTEX_POINT('',#1052);
#321=VERTEX_POINT('',#1054);
#322=VERTEX_POINT('',#1056);
#323=VERTEX_POINT('',#1060);
#324=VERTEX_POINT('',#1062);
#325=VERTEX_POINT('',#1066);
#326=VERTEX_POINT('',#1070);
#327=VERTEX_POINT('',#1071);
#328=VERTEX_POINT('',#1073);
#329=VERTEX_POINT('',#1075);
#330=VERTEX_POINT('',#1079);
#331=VERTEX_POINT('',#1081);
#332=VERTEX_POINT('',#1083);
#333=VERTEX_POINT('',#1086);
#334=VERTEX_POINT('',#1089);
#335=VERTEX_POINT('',#1092);
#336=VERTEX_POINT('',#1094);
#337=VERTEX_POINT('',#1098);
#338=VERTEX_POINT('',#1100);
#339=VERTEX_POINT('',#1104);
#340=VERTEX_POINT('',#1105);
#341=VERTEX_POINT('',#1107);
#342=VERTEX_POINT('',#1109);
#343=VERTEX_POINT('',#1113);
#344=VERTEX_POINT('',#1115);
#345=VERTEX_POINT('',#1120);
#346=VERTEX_POINT('',#1124);
#347=VERTEX_POINT('',#1129);
#348=VERTEX_POINT('',#1131);
#349=VERTEX_POINT('',#1136);
#350=VERTEX_POINT('',#1140);
#351=VERTEX_POINT('',#1141);
#352=VERTEX_POINT('',#1148);
#353=EDGE_CURVE('',#293,#293,#263,.T.);
#354=EDGE_CURVE('',#293,#294,#143,.T.);
#355=EDGE_CURVE('',#294,#294,#264,.T.);
#356=EDGE_CURVE('',#295,#295,#265,.T.);
#357=EDGE_CURVE('',#295,#296,#144,.T.);
#358=EDGE_CURVE('',#296,#296,#266,.T.);
#359=EDGE_CURVE('',#297,#298,#267,.T.);
#360=EDGE_CURVE('',#298,#299,#145,.T.);
#361=EDGE_CURVE('',#299,#300,#268,.T.);
#362=EDGE_CURVE('',#300,#297,#146,.T.);
#363=EDGE_CURVE('',#298,#301,#147,.T.);
#364=EDGE_CURVE('',#302,#301,#148,.T.);
#365=EDGE_CURVE('',#302,#299,#149,.T.);
#366=EDGE_CURVE('',#303,#297,#150,.T.);
#367=EDGE_CURVE('',#304,#303,#151,.T.);
#368=EDGE_CURVE('',#304,#305,#152,.T.);
#369=EDGE_CURVE('',#301,#305,#269,.T.);
#370=EDGE_CURVE('',#306,#302,#270,.T.);
#371=EDGE_CURVE('',#305,#306,#153,.T.);
#372=EDGE_CURVE('',#307,#304,#154,.T.);
#373=EDGE_CURVE('',#308,#307,#155,.T.);
#374=EDGE_CURVE('',#308,#309,#156,.T.);
#375=EDGE_CURVE('',#309,#306,#157,.T.);
#376=EDGE_CURVE('',#310,#300,#158,.T.);
#377=EDGE_CURVE('',#303,#310,#159,.T.);
#378=EDGE_CURVE('',#311,#311,#271,.T.);
#379=EDGE_CURVE('',#311,#312,#160,.T.);
#380=EDGE_CURVE('',#312,#312,#272,.T.);
#381=EDGE_CURVE('',#309,#313,#161,.T.);
#382=EDGE_CURVE('',#313,#314,#162,.T.);
#383=EDGE_CURVE('',#310,#314,#163,.T.);
#384=EDGE_CURVE('',#315,#308,#164,.T.);
#385=EDGE_CURVE('',#316,#307,#165,.T.);
#386=EDGE_CURVE('',#315,#316,#166,.T.);
#387=EDGE_CURVE('',#317,#315,#273,.T.);
#388=EDGE_CURVE('',#318,#316,#274,.T.);
#389=EDGE_CURVE('',#317,#318,#167,.T.);
#390=EDGE_CURVE('',#313,#317,#275,.T.);
#391=EDGE_CURVE('',#314,#318,#276,.T.);
#392=EDGE_CURVE('',#319,#320,#168,.T.);
#393=EDGE_CURVE('',#319,#321,#169,.T.);
#394=EDGE_CURVE('',#322,#321,#170,.T.);
#395=EDGE_CURVE('',#320,#322,#171,.T.);
#396=EDGE_CURVE('',#320,#323,#172,.T.);
#397=EDGE_CURVE('',#324,#322,#173,.T.);
#398=EDGE_CURVE('',#323,#324,#174,.T.);
#399=EDGE_CURVE('',#321,#325,#175,.T.);
#400=EDGE_CURVE('',#325,#324,#176,.T.);
#401=EDGE_CURVE('',#326,#327,#277,.T.);
#402=EDGE_CURVE('',#327,#328,#177,.T.);
#403=EDGE_CURVE('',#328,#329,#278,.T.);
#404=EDGE_CURVE('',#329,#326,#178,.T.);
#405=EDGE_CURVE('',#323,#330,#179,.T.);
#406=EDGE_CURVE('',#330,#331,#279,.T.);
#407=EDGE_CURVE('',#331,#332,#280,.T.);
#408=EDGE_CURVE('',#332,#328,#180,.T.);
#409=EDGE_CURVE('',#327,#333,#181,.T.);
#410=EDGE_CURVE('',#333,#319,#182,.T.);
#411=EDGE_CURVE('',#334,#334,#281,.T.);
#412=EDGE_CURVE('',#335,#335,#282,.T.);
#413=EDGE_CURVE('',#335,#336,#183,.T.);
#414=EDGE_CURVE('',#336,#336,#283,.T.);
#415=EDGE_CURVE('',#337,#337,#284,.T.);
#416=EDGE_CURVE('',#337,#338,#184,.T.);
#417=EDGE_CURVE('',#338,#338,#285,.T.);
#418=EDGE_CURVE('',#339,#340,#286,.T.);
#419=EDGE_CURVE('',#340,#341,#185,.T.);
#420=EDGE_CURVE('',#341,#342,#287,.T.);
#421=EDGE_CURVE('',#342,#339,#186,.T.);
#422=EDGE_CURVE('',#340,#343,#187,.T.);
#423=EDGE_CURVE('',#344,#343,#188,.T.);
#424=EDGE_CURVE('',#344,#341,#189,.T.);
#425=EDGE_CURVE('',#333,#339,#190,.T.);
#426=EDGE_CURVE('',#326,#345,#191,.T.);
#427=EDGE_CURVE('',#343,#345,#288,.T.);
#428=EDGE_CURVE('',#346,#344,#289,.T.);
#429=EDGE_CURVE('',#345,#346,#192,.T.);
#430=EDGE_CURVE('',#329,#346,#193,.T.);
#431=EDGE_CURVE('',#347,#332,#194,.T.);
#432=EDGE_CURVE('',#347,#348,#195,.T.);
#433=EDGE_CURVE('',#348,#342,#196,.T.);
#434=EDGE_CURVE('',#349,#349,#290,.T.);
#435=EDGE_CURVE('',#349,#334,#197,.T.);
#436=EDGE_CURVE('',#350,#351,#198,.T.);
#437=EDGE_CURVE('',#351,#330,#199,.T.);
#438=EDGE_CURVE('',#350,#325,#200,.T.);
#439=EDGE_CURVE('',#348,#350,#201,.T.);
#440=EDGE_CURVE('',#352,#347,#291,.T.);
#441=EDGE_CURVE('',#352,#331,#202,.T.);
#442=EDGE_CURVE('',#351,#352,#292,.T.);
#443=ORIENTED_EDGE('',*,*,#353,.F.);
#444=ORIENTED_EDGE('',*,*,#354,.T.);
#445=ORIENTED_EDGE('',*,*,#355,.F.);
#446=ORIENTED_EDGE('',*,*,#354,.F.);
#447=ORIENTED_EDGE('',*,*,#356,.F.);
#448=ORIENTED_EDGE('',*,*,#357,.T.);
#449=ORIENTED_EDGE('',*,*,#358,.F.);
#450=ORIENTED_EDGE('',*,*,#357,.F.);
#451=ORIENTED_EDGE('',*,*,#359,.T.);
#452=ORIENTED_EDGE('',*,*,#360,.T.);
#453=ORIENTED_EDGE('',*,*,#361,.T.);
#454=ORIENTED_EDGE('',*,*,#362,.T.);
#455=ORIENTED_EDGE('',*,*,#360,.F.);
#456=ORIENTED_EDGE('',*,*,#363,.T.);
#457=ORIENTED_EDGE('',*,*,#364,.F.);
#458=ORIENTED_EDGE('',*,*,#365,.T.);
#459=ORIENTED_EDGE('',*,*,#359,.F.);
#460=ORIENTED_EDGE('',*,*,#366,.F.);
#461=ORIENTED_EDGE('',*,*,#367,.F.);
#462=ORIENTED_EDGE('',*,*,#368,.T.);
#463=ORIENTED_EDGE('',*,*,#369,.F.);
#464=ORIENTED_EDGE('',*,*,#363,.F.);
#465=ORIENTED_EDGE('',*,*,#355,.T.);
#466=ORIENTED_EDGE('',*,*,#358,.T.);
#467=ORIENTED_EDGE('',*,*,#370,.T.);
#468=ORIENTED_EDGE('',*,*,#364,.T.);
#469=ORIENTED_EDGE('',*,*,#369,.T.);
#470=ORIENTED_EDGE('',*,*,#371,.T.);
#471=ORIENTED_EDGE('',*,*,#371,.F.);
#472=ORIENTED_EDGE('',*,*,#368,.F.);
#473=ORIENTED_EDGE('',*,*,#372,.F.);
#474=ORIENTED_EDGE('',*,*,#373,.F.);
#475=ORIENTED_EDGE('',*,*,#374,.T.);
#476=ORIENTED_EDGE('',*,*,#375,.T.);
#477=ORIENTED_EDGE('',*,*,#362,.F.);
#478=ORIENTED_EDGE('',*,*,#376,.F.);
#479=ORIENTED_EDGE('',*,*,#377,.F.);
#480=ORIENTED_EDGE('',*,*,#366,.T.);
#481=ORIENTED_EDGE('',*,*,#378,.F.);
#482=ORIENTED_EDGE('',*,*,#379,.T.);
#483=ORIENTED_EDGE('',*,*,#380,.F.);
#484=ORIENTED_EDGE('',*,*,#379,.F.);
#485=ORIENTED_EDGE('',*,*,#361,.F.);
#486=ORIENTED_EDGE('',*,*,#365,.F.);
#487=ORIENTED_EDGE('',*,*,#370,.F.);
#488=ORIENTED_EDGE('',*,*,#375,.F.);
#489=ORIENTED_EDGE('',*,*,#381,.T.);
#490=ORIENTED_EDGE('',*,*,#382,.T.);
#491=ORIENTED_EDGE('',*,*,#383,.F.);
#492=ORIENTED_EDGE('',*,*,#376,.T.);
#493=ORIENTED_EDGE('',*,*,#353,.T.);
#494=ORIENTED_EDGE('',*,*,#356,.T.);
#495=ORIENTED_EDGE('',*,*,#384,.T.);
#496=ORIENTED_EDGE('',*,*,#373,.T.);
#497=ORIENTED_EDGE('',*,*,#385,.F.);
#498=ORIENTED_EDGE('',*,*,#386,.F.);
#499=ORIENTED_EDGE('',*,*,#387,.T.);
#500=ORIENTED_EDGE('',*,*,#386,.T.);
#501=ORIENTED_EDGE('',*,*,#388,.F.);
#502=ORIENTED_EDGE('',*,*,#389,.F.);
#503=ORIENTED_EDGE('',*,*,#390,.T.);
#504=ORIENTED_EDGE('',*,*,#389,.T.);
#505=ORIENTED_EDGE('',*,*,#391,.F.);
#506=ORIENTED_EDGE('',*,*,#382,.F.);
#507=ORIENTED_EDGE('',*,*,#377,.T.);
#508=ORIENTED_EDGE('',*,*,#383,.T.);
#509=ORIENTED_EDGE('',*,*,#391,.T.);
#510=ORIENTED_EDGE('',*,*,#388,.T.);
#511=ORIENTED_EDGE('',*,*,#385,.T.);
#512=ORIENTED_EDGE('',*,*,#372,.T.);
#513=ORIENTED_EDGE('',*,*,#367,.T.);
#514=ORIENTED_EDGE('',*,*,#380,.T.);
#515=ORIENTED_EDGE('',*,*,#390,.F.);
#516=ORIENTED_EDGE('',*,*,#381,.F.);
#517=ORIENTED_EDGE('',*,*,#374,.F.);
#518=ORIENTED_EDGE('',*,*,#384,.F.);
#519=ORIENTED_EDGE('',*,*,#387,.F.);
#520=ORIENTED_EDGE('',*,*,#378,.T.);
#521=ORIENTED_EDGE('',*,*,#392,.F.);
#522=ORIENTED_EDGE('',*,*,#393,.T.);
#523=ORIENTED_EDGE('',*,*,#394,.F.);
#524=ORIENTED_EDGE('',*,*,#395,.F.);
#525=ORIENTED_EDGE('',*,*,#396,.F.);
#526=ORIENTED_EDGE('',*,*,#395,.T.);
#527=ORIENTED_EDGE('',*,*,#397,.F.);
#528=ORIENTED_EDGE('',*,*,#398,.F.);
#529=ORIENTED_EDGE('',*,*,#399,.T.);
#530=ORIENTED_EDGE('',*,*,#400,.T.);
#531=ORIENTED_EDGE('',*,*,#397,.T.);
#532=ORIENTED_EDGE('',*,*,#394,.T.);
#533=ORIENTED_EDGE('',*,*,#401,.T.);
#534=ORIENTED_EDGE('',*,*,#402,.T.);
#535=ORIENTED_EDGE('',*,*,#403,.T.);
#536=ORIENTED_EDGE('',*,*,#404,.T.);
#537=ORIENTED_EDGE('',*,*,#396,.T.);
#538=ORIENTED_EDGE('',*,*,#405,.T.);
#539=ORIENTED_EDGE('',*,*,#406,.T.);
#540=ORIENTED_EDGE('',*,*,#407,.T.);
#541=ORIENTED_EDGE('',*,*,#408,.T.);
#542=ORIENTED_EDGE('',*,*,#402,.F.);
#543=ORIENTED_EDGE('',*,*,#409,.T.);
#544=ORIENTED_EDGE('',*,*,#410,.T.);
#545=ORIENTED_EDGE('',*,*,#392,.T.);
#546=ORIENTED_EDGE('',*,*,#411,.T.);
#547=ORIENTED_EDGE('',*,*,#412,.F.);
#548=ORIENTED_EDGE('',*,*,#413,.T.);
#549=ORIENTED_EDGE('',*,*,#414,.F.);
#550=ORIENTED_EDGE('',*,*,#413,.F.);
#551=ORIENTED_EDGE('',*,*,#415,.F.);
#552=ORIENTED_EDGE('',*,*,#416,.T.);
#553=ORIENTED_EDGE('',*,*,#417,.F.);
#554=ORIENTED_EDGE('',*,*,#416,.F.);
#555=ORIENTED_EDGE('',*,*,#418,.T.);
#556=ORIENTED_EDGE('',*,*,#419,.T.);
#557=ORIENTED_EDGE('',*,*,#420,.T.);
#558=ORIENTED_EDGE('',*,*,#421,.T.);
#559=ORIENTED_EDGE('',*,*,#419,.F.);
#560=ORIENTED_EDGE('',*,*,#422,.T.);
#561=ORIENTED_EDGE('',*,*,#423,.F.);
#562=ORIENTED_EDGE('',*,*,#424,.T.);
#563=ORIENTED_EDGE('',*,*,#418,.F.);
#564=ORIENTED_EDGE('',*,*,#425,.F.);
#565=ORIENTED_EDGE('',*,*,#409,.F.);
#566=ORIENTED_EDGE('',*,*,#401,.F.);
#567=ORIENTED_EDGE('',*,*,#426,.T.);
#568=ORIENTED_EDGE('',*,*,#427,.F.);
#569=ORIENTED_EDGE('',*,*,#422,.F.);
#570=ORIENTED_EDGE('',*,*,#414,.T.);
#571=ORIENTED_EDGE('',*,*,#417,.T.);
#572=ORIENTED_EDGE('',*,*,#428,.T.);
#573=ORIENTED_EDGE('',*,*,#423,.T.);
#574=ORIENTED_EDGE('',*,*,#427,.T.);
#575=ORIENTED_EDGE('',*,*,#429,.T.);
#576=ORIENTED_EDGE('',*,*,#420,.F.);
#577=ORIENTED_EDGE('',*,*,#424,.F.);
#578=ORIENTED_EDGE('',*,*,#428,.F.);
#579=ORIENTED_EDGE('',*,*,#430,.F.);
#580=ORIENTED_EDGE('',*,*,#403,.F.);
#581=ORIENTED_EDGE('',*,*,#408,.F.);
#582=ORIENTED_EDGE('',*,*,#431,.F.);
#583=ORIENTED_EDGE('',*,*,#432,.T.);
#584=ORIENTED_EDGE('',*,*,#433,.T.);
#585=ORIENTED_EDGE('',*,*,#412,.T.);
#586=ORIENTED_EDGE('',*,*,#415,.T.);
#587=ORIENTED_EDGE('',*,*,#404,.F.);
#588=ORIENTED_EDGE('',*,*,#430,.T.);
#589=ORIENTED_EDGE('',*,*,#429,.F.);
#590=ORIENTED_EDGE('',*,*,#426,.F.);
#591=ORIENTED_EDGE('',*,*,#434,.F.);
#592=ORIENTED_EDGE('',*,*,#435,.T.);
#593=ORIENTED_EDGE('',*,*,#411,.F.);
#594=ORIENTED_EDGE('',*,*,#435,.F.);
#595=ORIENTED_EDGE('',*,*,#436,.T.);
#596=ORIENTED_EDGE('',*,*,#437,.T.);
#597=ORIENTED_EDGE('',*,*,#405,.F.);
#598=ORIENTED_EDGE('',*,*,#398,.T.);
#599=ORIENTED_EDGE('',*,*,#400,.F.);
#600=ORIENTED_EDGE('',*,*,#438,.F.);
#601=ORIENTED_EDGE('',*,*,#421,.F.);
#602=ORIENTED_EDGE('',*,*,#433,.F.);
#603=ORIENTED_EDGE('',*,*,#439,.T.);
#604=ORIENTED_EDGE('',*,*,#438,.T.);
#605=ORIENTED_EDGE('',*,*,#399,.F.);
#606=ORIENTED_EDGE('',*,*,#393,.F.);
#607=ORIENTED_EDGE('',*,*,#410,.F.);
#608=ORIENTED_EDGE('',*,*,#425,.T.);
#609=ORIENTED_EDGE('',*,*,#440,.T.);
#610=ORIENTED_EDGE('',*,*,#431,.T.);
#611=ORIENTED_EDGE('',*,*,#407,.F.);
#612=ORIENTED_EDGE('',*,*,#441,.F.);
#613=ORIENTED_EDGE('',*,*,#442,.T.);
#614=ORIENTED_EDGE('',*,*,#441,.T.);
#615=ORIENTED_EDGE('',*,*,#406,.F.);
#616=ORIENTED_EDGE('',*,*,#437,.F.);
#617=ORIENTED_EDGE('',*,*,#442,.F.);
#618=ORIENTED_EDGE('',*,*,#436,.F.);
#619=ORIENTED_EDGE('',*,*,#439,.F.);
#620=ORIENTED_EDGE('',*,*,#432,.F.);
#621=ORIENTED_EDGE('',*,*,#440,.F.);
#622=ORIENTED_EDGE('',*,*,#434,.T.);
#623=CYLINDRICAL_SURFACE('',#699,1.61);
#624=CYLINDRICAL_SURFACE('',#702,1.61);
#625=CYLINDRICAL_SURFACE('',#705,5.);
#626=CYLINDRICAL_SURFACE('',#711,5.);
#627=CYLINDRICAL_SURFACE('',#715,8.00000000000001);
#628=CYLINDRICAL_SURFACE('',#720,15.);
#629=CYLINDRICAL_SURFACE('',#723,15.);
#630=CYLINDRICAL_SURFACE('',#732,0.9);
#631=CYLINDRICAL_SURFACE('',#739,1.60976639797038);
#632=CYLINDRICAL_SURFACE('',#742,1.61);
#633=CYLINDRICAL_SURFACE('',#745,5.);
#634=CYLINDRICAL_SURFACE('',#751,5.);
#635=CYLINDRICAL_SURFACE('',#755,8.2724519435666);
#636=CYLINDRICAL_SURFACE('',#759,15.);
#637=CYLINDRICAL_SURFACE('',#761,15.);
#638=ADVANCED_FACE('',(#63),#623,.F.);
#639=ADVANCED_FACE('',(#64),#624,.F.);
#640=ADVANCED_FACE('',(#65),#625,.T.);
#641=ADVANCED_FACE('',(#66),#44,.T.);
#642=ADVANCED_FACE('',(#67,#32,#33),#45,.T.);
#643=ADVANCED_FACE('',(#68),#626,.T.);
#644=ADVANCED_FACE('',(#69),#46,.T.);
#645=ADVANCED_FACE('',(#70),#47,.T.);
#646=ADVANCED_FACE('',(#71),#627,.F.);
#647=ADVANCED_FACE('',(#72,#34,#35),#48,.T.);
#648=ADVANCED_FACE('',(#73),#49,.T.);
#649=ADVANCED_FACE('',(#74),#628,.T.);
#650=ADVANCED_FACE('',(#75),#629,.T.);
#651=ADVANCED_FACE('',(#76,#36),#50,.T.);
#652=ADVANCED_FACE('',(#77,#37),#51,.F.);
#653=ADVANCED_FACE('',(#78),#52,.T.);
#654=ADVANCED_FACE('',(#79),#53,.T.);
#655=ADVANCED_FACE('',(#80),#54,.T.);
#656=ADVANCED_FACE('',(#81),#630,.F.);
#657=ADVANCED_FACE('',(#82,#38),#55,.T.);
#658=ADVANCED_FACE('',(#83),#631,.F.);
#659=ADVANCED_FACE('',(#84),#632,.F.);
#660=ADVANCED_FACE('',(#85),#633,.T.);
#661=ADVANCED_FACE('',(#86),#56,.T.);
#662=ADVANCED_FACE('',(#87,#39,#40),#57,.T.);
#663=ADVANCED_FACE('',(#88),#634,.T.);
#664=ADVANCED_FACE('',(#89,#41,#42),#58,.T.);
#665=ADVANCED_FACE('',(#90),#59,.T.);
#666=ADVANCED_FACE('',(#91),#635,.F.);
#667=ADVANCED_FACE('',(#92),#60,.T.);
#668=ADVANCED_FACE('',(#93),#61,.T.);
#669=ADVANCED_FACE('',(#94),#636,.T.);
#670=ADVANCED_FACE('',(#95),#637,.T.);
#671=ADVANCED_FACE('',(#96,#43),#62,.F.);
#672=CLOSED_SHELL('',(#638,#639,#640,#641,#642,#643,#644,#645,#646,#647,
#648,#649,#650,#651,#652));
#673=CLOSED_SHELL('',(#653,#654,#655,#656,#657,#658,#659,#660,#661,#662,
#663,#664,#665,#666,#667,#668,#669,#670,#671));
#674=DERIVED_UNIT_ELEMENT(#678,1.);
#675=DERIVED_UNIT_ELEMENT(#1166,-3.);
#676=DERIVED_UNIT_ELEMENT(#678,1.);
#677=DERIVED_UNIT_ELEMENT(#1166,-3.);
#678=(
MASS_UNIT()
NAMED_UNIT(*)
SI_UNIT(.KILO.,.GRAM.)
);
#679=DERIVED_UNIT((#674,#675));
#680=DERIVED_UNIT((#676,#677));
#681=MEASURE_REPRESENTATION_ITEM('density measure',
POSITIVE_RATIO_MEASURE(7850.),#679);
#682=MEASURE_REPRESENTATION_ITEM('density measure',
POSITIVE_RATIO_MEASURE(7850.),#680);
#683=PROPERTY_DEFINITION_REPRESENTATION(#693,#687);
#684=PROPERTY_DEFINITION_REPRESENTATION(#694,#688);
#685=PROPERTY_DEFINITION_REPRESENTATION(#695,#689);
#686=PROPERTY_DEFINITION_REPRESENTATION(#696,#690);
#687=REPRESENTATION('material name',(#691),#1162);
#688=REPRESENTATION('density',(#681),#1162);
#689=REPRESENTATION('material name',(#692),#1163);
#690=REPRESENTATION('density',(#682),#1163);
#691=DESCRIPTIVE_REPRESENTATION_ITEM('Steel','Steel');
#692=DESCRIPTIVE_REPRESENTATION_ITEM('Steel','Steel');
#693=PROPERTY_DEFINITION('material property','material name',#1182);
#694=PROPERTY_DEFINITION('material property','density of part',#1182);
#695=PROPERTY_DEFINITION('material property','material name',#1183);
#696=PROPERTY_DEFINITION('material property','density of part',#1183);
#697=AXIS2_PLACEMENT_3D('',#967,#767,#768);
#698=AXIS2_PLACEMENT_3D('',#968,#769,#770);
#699=AXIS2_PLACEMENT_3D('',#969,#771,#772);
#700=AXIS2_PLACEMENT_3D('',#971,#773,#774);
#701=AXIS2_PLACEMENT_3D('',#974,#776,#777);
#702=AXIS2_PLACEMENT_3D('',#975,#778,#779);
#703=AXIS2_PLACEMENT_3D('',#977,#780,#781);
#704=AXIS2_PLACEMENT_3D('',#980,#783,#784);
#705=AXIS2_PLACEMENT_3D('',#981,#785,#786);
#706=AXIS2_PLACEMENT_3D('',#984,#787,#788);
#707=AXIS2_PLACEMENT_3D('',#988,#790,#791);
#708=AXIS2_PLACEMENT_3D('',#990,#793,#794);
#709=AXIS2_PLACEMENT_3D('',#996,#798,#799);
#710=AXIS2_PLACEMENT_3D('',#1003,#803,#804);
#711=AXIS2_PLACEMENT_3D('',#1004,#805,#806);
#712=AXIS2_PLACEMENT_3D('',#1006,#807,#808);
#713=AXIS2_PLACEMENT_3D('',#1008,#810,#811);
#714=AXIS2_PLACEMENT_3D('',#1016,#816,#817);
#715=AXIS2_PLACEMENT_3D('',#1020,#820,#821);
#716=AXIS2_PLACEMENT_3D('',#1022,#822,#823);
#717=AXIS2_PLACEMENT_3D('',#1025,#825,#826);
#718=AXIS2_PLACEMENT_3D('',#1026,#827,#828);
#719=AXIS2_PLACEMENT_3D('',#1032,#832,#833);
#720=AXIS2_PLACEMENT_3D('',#1038,#837,#838);
#721=AXIS2_PLACEMENT_3D('',#1040,#839,#840);
#722=AXIS2_PLACEMENT_3D('',#1042,#841,#842);
#723=AXIS2_PLACEMENT_3D('',#1044,#844,#845);
#724=AXIS2_PLACEMENT_3D('',#1045,#846,#847);
#725=AXIS2_PLACEMENT_3D('',#1046,#848,#849);
#726=AXIS2_PLACEMENT_3D('',#1047,#850,#851);
#727=AXIS2_PLACEMENT_3D('',#1048,#852,#853);
#728=AXIS2_PLACEMENT_3D('',#1049,#854,#855);
#729=AXIS2_PLACEMENT_3D('',#1050,#856,#857);
#730=AXIS2_PLACEMENT_3D('',#1059,#862,#863);
#731=AXIS2_PLACEMENT_3D('',#1065,#867,#868);
#732=AXIS2_PLACEMENT_3D('',#1069,#871,#872);
#733=AXIS2_PLACEMENT_3D('',#1072,#873,#874);
#734=AXIS2_PLACEMENT_3D('',#1076,#876,#877);
#735=AXIS2_PLACEMENT_3D('',#1078,#879,#880);
#736=AXIS2_PLACEMENT_3D('',#1082,#882,#883);
#737=AXIS2_PLACEMENT_3D('',#1084,#884,#885);
#738=AXIS2_PLACEMENT_3D('',#1090,#889,#890);
#739=AXIS2_PLACEMENT_3D('',#1091,#891,#892);
#740=AXIS2_PLACEMENT_3D('',#1093,#893,#894);
#741=AXIS2_PLACEMENT_3D('',#1096,#896,#897);
#742=AXIS2_PLACEMENT_3D('',#1097,#898,#899);
#743=AXIS2_PLACEMENT_3D('',#1099,#900,#901);
#744=AXIS2_PLACEMENT_3D('',#1102,#903,#904);
#745=AXIS2_PLACEMENT_3D('',#1103,#905,#906);
#746=AXIS2_PLACEMENT_3D('',#1106,#907,#908);
#747=AXIS2_PLACEMENT_3D('',#1110,#910,#911);
#748=AXIS2_PLACEMENT_3D('',#1112,#913,#914);
#749=AXIS2_PLACEMENT_3D('',#1118,#918,#919);
#750=AXIS2_PLACEMENT_3D('',#1122,#922,#923);
#751=AXIS2_PLACEMENT_3D('',#1123,#924,#925);
#752=AXIS2_PLACEMENT_3D('',#1125,#926,#927);
#753=AXIS2_PLACEMENT_3D('',#1127,#929,#930);
#754=AXIS2_PLACEMENT_3D('',#1134,#935,#936);
#755=AXIS2_PLACEMENT_3D('',#1135,#937,#938);
#756=AXIS2_PLACEMENT_3D('',#1137,#939,#940);
#757=AXIS2_PLACEMENT_3D('',#1139,#942,#943);
#758=AXIS2_PLACEMENT_3D('',#1145,#947,#948);
#759=AXIS2_PLACEMENT_3D('',#1147,#950,#951);
#760=AXIS2_PLACEMENT_3D('',#1149,#952,#953);
#761=AXIS2_PLACEMENT_3D('',#1151,#955,#956);
#762=AXIS2_PLACEMENT_3D('',#1152,#957,#958);
#763=AXIS2_PLACEMENT_3D('',#1153,#959,#960);
#764=AXIS2_PLACEMENT_3D('',#1154,#961,#962);
#765=AXIS2_PLACEMENT_3D('',#1155,#963,#964);
#766=AXIS2_PLACEMENT_3D('',#1156,#965,#966);
#767=DIRECTION('axis',(0.,0.,1.));
#768=DIRECTION('refdir',(1.,0.,0.));
#769=DIRECTION('axis',(0.,0.,1.));
#770=DIRECTION('refdir',(1.,0.,0.));
#771=DIRECTION('center_axis',(0.,0.,-1.));
#772=DIRECTION('ref_axis',(1.,0.,0.));
#773=DIRECTION('center_axis',(0.,0.,-1.));
#774=DIRECTION('ref_axis',(1.,0.,0.));
#775=DIRECTION('',(0.,0.,-1.));
#776=DIRECTION('center_axis',(0.,0.,1.));
#777=DIRECTION('ref_axis',(1.,0.,0.));
#778=DIRECTION('center_axis',(0.,0.,-1.));
#779=DIRECTION('ref_axis',(1.,0.,0.));
#780=DIRECTION('center_axis',(0.,0.,-1.));
#781=DIRECTION('ref_axis',(1.,0.,0.));
#782=DIRECTION('',(0.,0.,-1.));
#783=DIRECTION('center_axis',(0.,0.,1.));
#784=DIRECTION('ref_axis',(1.,0.,0.));
#785=DIRECTION('center_axis',(0.,0.,-1.));
#786=DIRECTION('ref_axis',(0.707106781186547,0.707106781186547,0.));
#787=DIRECTION('center_axis',(0.,0.,1.));
#788=DIRECTION('ref_axis',(0.707106781186547,0.707106781186547,0.));
#789=DIRECTION('',(0.,0.,1.));
#790=DIRECTION('center_axis',(0.,0.,-1.));
#791=DIRECTION('ref_axis',(0.707106781186547,0.707106781186547,0.));
#792=DIRECTION('',(0.,0.,-1.));
#793=DIRECTION('center_axis',(0.,1.,0.));
#794=DIRECTION('ref_axis',(0.,0.,1.));
#795=DIRECTION('',(-1.,0.,0.));
#796=DIRECTION('',(0.,0.,-1.));
#797=DIRECTION('',(1.,0.,0.));
#798=DIRECTION('center_axis',(0.,0.,-1.));
#799=DIRECTION('ref_axis',(-1.,0.,0.));
#800=DIRECTION('',(0.,1.,0.));
#801=DIRECTION('',(1.,0.,0.));
#802=DIRECTION('',(0.,1.,0.));
#803=DIRECTION('center_axis',(0.,0.,1.));
#804=DIRECTION('ref_axis',(-0.707106781186547,0.707106781186547,0.));
#805=DIRECTION('center_axis',(0.,0.,1.));
#806=DIRECTION('ref_axis',(-0.707106781186547,0.707106781186547,0.));
#807=DIRECTION('center_axis',(0.,0.,-1.));
#808=DIRECTION('ref_axis',(-0.707106781186547,0.707106781186547,0.));
#809=DIRECTION('',(0.,0.,1.));
#810=DIRECTION('center_axis',(-1.,0.,0.));
#811=DIRECTION('ref_axis',(0.,0.,1.));
#812=DIRECTION('',(0.,0.,1.));
#813=DIRECTION('',(0.,1.,0.));
#814=DIRECTION('',(0.,0.,1.));
#815=DIRECTION('',(0.,1.,0.));
#816=DIRECTION('center_axis',(1.,0.,0.));
#817=DIRECTION('ref_axis',(0.,0.,-1.));
#818=DIRECTION('',(0.,1.,0.));
#819=DIRECTION('',(0.,0.,1.));
#820=DIRECTION('center_axis',(0.,1.,0.));
#821=DIRECTION('ref_axis',(1.,0.,0.));
#822=DIRECTION('center_axis',(0.,1.,0.));
#823=DIRECTION('ref_axis',(1.,0.,0.));
#824=DIRECTION('',(0.,1.,0.));
#825=DIRECTION('center_axis',(0.,-1.,0.));
#826=DIRECTION('ref_axis',(1.,0.,0.));
#827=DIRECTION('center_axis',(0.,0.,1.));
#828=DIRECTION('ref_axis',(1.,0.,0.));
#829=DIRECTION('',(1.,0.,0.));
#830=DIRECTION('',(0.,1.,0.));
#831=DIRECTION('',(1.,0.,0.));
#832=DIRECTION('center_axis',(-1.5182537088891E-16,0.,-1.));
#833=DIRECTION('ref_axis',(-1.,0.,1.5182537088891E-16));
#834=DIRECTION('',(-1.,0.,1.5182537088891E-16));
#835=DIRECTION('',(-1.,0.,1.5182537088891E-16));
#836=DIRECTION('',(0.,1.,0.));
#837=DIRECTION('center_axis',(0.,1.,0.));
#838=DIRECTION('ref_axis',(1.,0.,-4.44089209850062E-16));
#839=DIRECTION('center_axis',(0.,1.,0.));
#840=DIRECTION('ref_axis',(1.,0.,-4.44089209850062E-16));
#841=DIRECTION('center_axis',(0.,1.,0.));
#842=DIRECTION('ref_axis',(1.,0.,-4.44089209850062E-16));
#843=DIRECTION('',(0.,1.,0.));
#844=DIRECTION('center_axis',(0.,1.,0.));
#845=DIRECTION('ref_axis',(0.,0.,1.));
#846=DIRECTION('center_axis',(0.,1.,0.));
#847=DIRECTION('ref_axis',(0.,0.,1.));
#848=DIRECTION('center_axis',(0.,1.,0.));
#849=DIRECTION('ref_axis',(0.,0.,1.));
#850=DIRECTION('center_axis',(0.,1.,0.));
#851=DIRECTION('ref_axis',(1.,0.,0.));
#852=DIRECTION('center_axis',(0.,1.,0.));
#853=DIRECTION('ref_axis',(1.,0.,0.));
#854=DIRECTION('axis',(0.,0.,1.));
#855=DIRECTION('refdir',(1.,0.,0.));
#856=DIRECTION('center_axis',(0.,1.,0.));
#857=DIRECTION('ref_axis',(0.,0.,1.));
#858=DIRECTION('',(0.,0.,-1.));
#859=DIRECTION('',(1.,0.,0.));
#860=DIRECTION('',(0.,0.,1.));
#861=DIRECTION('',(1.,0.,0.));
#862=DIRECTION('center_axis',(0.,0.,-1.));
#863=DIRECTION('ref_axis',(0.,1.,0.));
#864=DIRECTION('',(0.,-1.,0.));
#865=DIRECTION('',(0.,1.,0.));
#866=DIRECTION('',(1.,0.,0.));
#867=DIRECTION('center_axis',(1.,0.,0.));
#868=DIRECTION('ref_axis',(0.,0.,-1.));
#869=DIRECTION('',(0.,-1.,0.));
#870=DIRECTION('',(0.,0.,-1.));
#871=DIRECTION('center_axis',(0.,-1.,0.));
#872=DIRECTION('ref_axis',(-0.707106781186547,0.,0.707106781186547));
#873=DIRECTION('center_axis',(0.,-1.,0.));
#874=DIRECTION('ref_axis',(-0.707106781186547,0.,0.707106781186547));
#875=DIRECTION('',(0.,1.,0.));
#876=DIRECTION('center_axis',(0.,1.,1.5182537088891E-16));
#877=DIRECTION('ref_axis',(-0.707106781186547,0.,0.707106781186547));
#878=DIRECTION('',(0.,-1.,0.));
#879=DIRECTION('center_axis',(1.,0.,0.));
#880=DIRECTION('ref_axis',(0.,0.,-1.));
#881=DIRECTION('',(0.,0.,-1.));
#882=DIRECTION('center_axis',(1.,0.,0.));
#883=DIRECTION('ref_axis',(0.,-1.,0.));
#884=DIRECTION('center_axis',(1.,0.,0.));
#885=DIRECTION('ref_axis',(0.,4.44089209850062E-16,-1.));
#886=DIRECTION('',(0.,-1.5182537088891E-16,1.));
#887=DIRECTION('',(0.,0.,1.));
#888=DIRECTION('',(0.,-1.,0.));
#889=DIRECTION('center_axis',(-1.,0.,0.));
#890=DIRECTION('ref_axis',(0.,0.,-1.));
#891=DIRECTION('center_axis',(0.,-1.,0.));
#892=DIRECTION('ref_axis',(-1.,0.,0.));
#893=DIRECTION('center_axis',(0.,-1.,-1.5182537088891E-16));
#894=DIRECTION('ref_axis',(-1.,0.,0.));
#895=DIRECTION('',(0.,-1.,0.));
#896=DIRECTION('center_axis',(0.,1.,0.));
#897=DIRECTION('ref_axis',(-1.,0.,0.));
#898=DIRECTION('center_axis',(0.,-1.,0.));
#899=DIRECTION('ref_axis',(-1.,0.,0.));
#900=DIRECTION('center_axis',(0.,-1.,-1.5182537088891E-16));
#901=DIRECTION('ref_axis',(-1.,0.,0.));
#902=DIRECTION('',(0.,-1.,0.));
#903=DIRECTION('center_axis',(0.,1.,0.));
#904=DIRECTION('ref_axis',(-1.,0.,0.));
#905=DIRECTION('center_axis',(0.,-1.,0.));
#906=DIRECTION('ref_axis',(0.707106781186547,0.,0.707106781186547));
#907=DIRECTION('center_axis',(0.,1.,0.));
#908=DIRECTION('ref_axis',(0.707106781186547,0.,0.707106781186547));
#909=DIRECTION('',(0.,1.,0.));
#910=DIRECTION('center_axis',(0.,-1.,-1.5182537088891E-16));
#911=DIRECTION('ref_axis',(0.707106781186547,0.,0.707106781186547));
#912=DIRECTION('',(0.,-1.,0.));
#913=DIRECTION('center_axis',(1.,0.,0.));
#914=DIRECTION('ref_axis',(0.,0.,-1.));
#915=DIRECTION('',(0.,0.,-1.));
#916=DIRECTION('',(0.,-1.,0.));
#917=DIRECTION('',(0.,0.,1.));
#918=DIRECTION('center_axis',(0.,-1.,0.));
#919=DIRECTION('ref_axis',(0.,0.,-1.));
#920=DIRECTION('',(1.,0.,0.));
#921=DIRECTION('',(1.,0.,0.));
#922=DIRECTION('center_axis',(0.,1.,0.));
#923=DIRECTION('ref_axis',(0.707106781186547,0.,-0.707106781186547));
#924=DIRECTION('center_axis',(0.,1.,0.));
#925=DIRECTION('ref_axis',(0.707106781186547,0.,-0.707106781186547));
#926=DIRECTION('center_axis',(0.,-1.,-1.5182537088891E-16));
#927=DIRECTION('ref_axis',(0.707106781186547,0.,-0.707106781186547));
#928=DIRECTION('',(0.,1.,0.));
#929=DIRECTION('center_axis',(0.,1.,1.5182537088891E-16));
#930=DIRECTION('ref_axis',(0.,-1.5182537088891E-16,1.));
#931=DIRECTION('',(1.,0.,0.));
#932=DIRECTION('',(1.,0.,0.));
#933=DIRECTION('',(0.,-1.5182537088891E-16,1.));
#934=DIRECTION('',(1.,0.,0.));
#935=DIRECTION('center_axis',(0.,0.,-1.));
#936=DIRECTION('ref_axis',(0.,1.,0.));
#937=DIRECTION('center_axis',(1.,0.,0.));
#938=DIRECTION('ref_axis',(0.,0.,-1.));
#939=DIRECTION('center_axis',(1.,0.,0.));
#940=DIRECTION('ref_axis',(0.,0.,-1.));
#941=DIRECTION('',(1.,0.,0.));
#942=DIRECTION('center_axis',(0.,-1.,0.));
#943=DIRECTION('ref_axis',(0.,0.,-1.));
#944=DIRECTION('',(0.,0.,-1.));
#945=DIRECTION('',(1.,0.,0.));
#946=DIRECTION('',(1.,0.,0.));
#947=DIRECTION('center_axis',(0.,0.,1.));
#948=DIRECTION('ref_axis',(0.,-1.,0.));
#949=DIRECTION('',(0.,-1.,0.));
#950=DIRECTION('center_axis',(1.,0.,0.));
#951=DIRECTION('ref_axis',(0.,4.44089209850062E-16,-1.));
#952=DIRECTION('center_axis',(1.,0.,0.));
#953=DIRECTION('ref_axis',(0.,4.44089209850062E-16,-1.));
#954=DIRECTION('',(1.,0.,0.));
#955=DIRECTION('center_axis',(1.,0.,0.));
#956=DIRECTION('ref_axis',(0.,-1.,0.));
#957=DIRECTION('center_axis',(1.,0.,0.));
#958=DIRECTION('ref_axis',(0.,-1.,0.));
#959=DIRECTION('center_axis',(1.,0.,0.));
#960=DIRECTION('ref_axis',(0.,0.,-1.));
#961=DIRECTION('',(0.,0.,1.));
#962=DIRECTION('',(1.,0.,0.));
#963=DIRECTION('',(-1.,-2.49701389445415E-17,1.10370970637876E-16));
#964=DIRECTION('',(7.33379436814774E-16,-1.,-2.8796409701215E-16));
#965=DIRECTION('center_axis',(0.,0.,1.));
#966=DIRECTION('ref_axis',(1.,0.,0.));
#967=CARTESIAN_POINT('',(0.,0.,0.));
#968=CARTESIAN_POINT('',(0.,0.,0.));
#969=CARTESIAN_POINT('Origin',(5.,20.,0.));
#970=CARTESIAN_POINT('',(3.39,20.,0.));
#971=CARTESIAN_POINT('Origin',(5.,20.,0.));
#972=CARTESIAN_POINT('',(3.39,20.,-4.968));
#973=CARTESIAN_POINT('',(3.39,20.,0.));
#974=CARTESIAN_POINT('Origin',(5.,20.,-4.968));
#975=CARTESIAN_POINT('Origin',(19.784204287785,20.,0.));
#976=CARTESIAN_POINT('',(18.174204287785,20.,0.));
#977=CARTESIAN_POINT('Origin',(19.784204287785,20.,0.));
#978=CARTESIAN_POINT('',(18.174204287785,20.,-4.968));
#979=CARTESIAN_POINT('',(18.174204287785,20.,0.));
#980=CARTESIAN_POINT('Origin',(19.784204287785,20.,-4.968));
#981=CARTESIAN_POINT('Origin',(19.784204287785,20.,-1.242));
#982=CARTESIAN_POINT('',(24.784204287785,20.,-4.968));
#983=CARTESIAN_POINT('',(19.784204287785,25.,-4.968));
#984=CARTESIAN_POINT('Origin',(19.784204287785,20.,-4.968));
#985=CARTESIAN_POINT('',(19.784204287785,25.,0.));
#986=CARTESIAN_POINT('',(19.784204287785,25.,-1.242));
#987=CARTESIAN_POINT('',(24.784204287785,20.,0.));
#988=CARTESIAN_POINT('Origin',(19.784204287785,20.,0.));
#989=CARTESIAN_POINT('',(24.784204287785,20.,-1.242));
#990=CARTESIAN_POINT('Origin',(12.3921021438925,25.,-2.484));
#991=CARTESIAN_POINT('',(5.,25.,-4.968));
#992=CARTESIAN_POINT('',(24.784204287785,25.,-4.968));
#993=CARTESIAN_POINT('',(5.,25.,0.));
#994=CARTESIAN_POINT('',(5.,25.,-15.742));
#995=CARTESIAN_POINT('',(0.,25.,0.));
#996=CARTESIAN_POINT('Origin',(24.784204287785,5.,-4.968));
#997=CARTESIAN_POINT('',(24.784204287785,5.,-4.968));
#998=CARTESIAN_POINT('',(24.784204287785,5.,-4.968));
#999=CARTESIAN_POINT('',(0.,5.,-4.968));
#1000=CARTESIAN_POINT('',(45.3900182315337,5.,-4.968));
#1001=CARTESIAN_POINT('',(0.,20.,-4.968));
#1002=CARTESIAN_POINT('',(0.,5.,-4.968));
#1003=CARTESIAN_POINT('Origin',(5.,20.,-4.968));
#1004=CARTESIAN_POINT('Origin',(5.,20.,-15.742));
#1005=CARTESIAN_POINT('',(0.,20.,0.));
#1006=CARTESIAN_POINT('Origin',(5.,20.,0.));
#1007=CARTESIAN_POINT('',(0.,20.,-15.742));
#1008=CARTESIAN_POINT('Origin',(0.,0.,-29.));
#1009=CARTESIAN_POINT('',(0.,5.,-29.));
#1010=CARTESIAN_POINT('',(0.,5.,-29.));
#1011=CARTESIAN_POINT('',(0.,0.,-29.));
#1012=CARTESIAN_POINT('',(0.,0.,-29.));
#1013=CARTESIAN_POINT('',(0.,0.,0.));
#1014=CARTESIAN_POINT('',(0.,0.,-29.));
#1015=CARTESIAN_POINT('',(0.,0.,0.));
#1016=CARTESIAN_POINT('Origin',(24.784204287785,5.,0.));
#1017=CARTESIAN_POINT('',(24.784204287785,5.,0.));
#1018=CARTESIAN_POINT('',(24.784204287785,5.,0.));
#1019=CARTESIAN_POINT('',(24.784204287785,5.,-7.25000000000001));
#1020=CARTESIAN_POINT('Origin',(115.038810919836,0.,-14.5220625521658));
#1021=CARTESIAN_POINT('',(107.038810919836,0.,-14.5220625521658));
#1022=CARTESIAN_POINT('Origin',(115.038810919836,0.,-14.5220625521658));
#1023=CARTESIAN_POINT('',(107.038810919836,5.,-14.5220625521658));
#1024=CARTESIAN_POINT('',(107.038810919836,0.,-14.5220625521658));
#1025=CARTESIAN_POINT('Origin',(115.038810919836,5.,-14.5220625521658));
#1026=CARTESIAN_POINT('Origin',(0.,0.,0.));
#1027=CARTESIAN_POINT('',(117.,0.,0.));
#1028=CARTESIAN_POINT('',(0.,0.,0.));
#1029=CARTESIAN_POINT('',(117.,5.,0.));
#1030=CARTESIAN_POINT('',(117.,0.,0.));
#1031=CARTESIAN_POINT('',(0.,5.,0.));
#1032=CARTESIAN_POINT('Origin',(117.,0.,-29.));
#1033=CARTESIAN_POINT('',(117.,0.,-29.));
#1034=CARTESIAN_POINT('',(117.,0.,-29.));
#1035=CARTESIAN_POINT('',(117.,5.,-29.));
#1036=CARTESIAN_POINT('',(117.,5.,-29.));
#1037=CARTESIAN_POINT('',(117.,0.,-29.));
#1038=CARTESIAN_POINT('Origin',(117.,0.,-14.));
#1039=CARTESIAN_POINT('',(131.991664350565,0.,-14.5000000000001));
#1040=CARTESIAN_POINT('Origin',(117.,0.,-14.));
#1041=CARTESIAN_POINT('',(131.991664350565,5.,-14.5000000000001));
#1042=CARTESIAN_POINT('Origin',(117.,5.,-14.));
#1043=CARTESIAN_POINT('',(131.991664350565,0.,-14.5000000000001));
#1044=CARTESIAN_POINT('Origin',(117.,0.,-15.));
#1045=CARTESIAN_POINT('Origin',(117.,0.,-15.));
#1046=CARTESIAN_POINT('Origin',(117.,5.,-15.));
#1047=CARTESIAN_POINT('Origin',(65.9958321752825,5.,-14.5));
#1048=CARTESIAN_POINT('Origin',(65.9958321752825,0.,-14.5));
#1049=CARTESIAN_POINT('',(0.,0.,0.));
#1050=CARTESIAN_POINT('Origin',(5.,4.98631500197765,-25.1634966378873));
#1051=CARTESIAN_POINT('',(5.,4.98631500197765,0.));
#1052=CARTESIAN_POINT('',(5.,4.98631500197765,-25.1634966378873));
#1053=CARTESIAN_POINT('',(5.,4.98631500197765,-45.5796644065849));
#1054=CARTESIAN_POINT('',(50.,4.98631500197765,0.));
#1055=CARTESIAN_POINT('',(5.,4.98631500197765,0.));
#1056=CARTESIAN_POINT('',(50.,4.98631500197765,-25.1634966378873));
#1057=CARTESIAN_POINT('',(50.,4.98631500197765,-25.1634966378873));
#1058=CARTESIAN_POINT('',(5.,4.98631500197765,-25.1634966378873));
#1059=CARTESIAN_POINT('Origin',(5.,0.,-25.1634966378873));
#1060=CARTESIAN_POINT('',(5.,0.,-25.1634966378873));
#1061=CARTESIAN_POINT('',(5.,7.25000000000001,-25.1634966378873));
#1062=CARTESIAN_POINT('',(50.,0.,-25.1634966378873));
#1063=CARTESIAN_POINT('',(50.,0.,-25.1634966378873));
#1064=CARTESIAN_POINT('',(5.,0.,-25.1634966378873));
#1065=CARTESIAN_POINT('Origin',(50.,2.49315750098883,-12.5817483189436));
#1066=CARTESIAN_POINT('',(50.,0.,0.));
#1067=CARTESIAN_POINT('',(50.,4.98631500197765,0.));
#1068=CARTESIAN_POINT('',(50.,0.,0.));
#1069=CARTESIAN_POINT('Origin',(5.9,19.078003027947,-26.1794574518868));
#1070=CARTESIAN_POINT('',(5.9,23.656006055894,-25.2794574518868));
#1071=CARTESIAN_POINT('',(5.,23.656006055894,-26.1794574518868));
#1072=CARTESIAN_POINT('Origin',(5.9,23.656006055894,-26.1794574518868));
#1073=CARTESIAN_POINT('',(5.,29.,-26.1794574518868));
#1074=CARTESIAN_POINT('',(5.,19.078003027947,-26.1794574518868));
#1075=CARTESIAN_POINT('',(5.9,29.,-25.2794574518868));
#1076=CARTESIAN_POINT('Origin',(5.9,29.,-26.1794574518868));
#1077=CARTESIAN_POINT('',(5.9,19.078003027947,-25.2794574518868));
#1078=CARTESIAN_POINT('Origin',(5.,14.5,-65.9958321752825));
#1079=CARTESIAN_POINT('',(5.,0.,-117.));
#1080=CARTESIAN_POINT('',(5.,0.,0.));
#1081=CARTESIAN_POINT('',(5.,14.5000000000001,-131.991664350565));
#1082=CARTESIAN_POINT('Origin',(5.,15.,-117.));
#1083=CARTESIAN_POINT('',(5.,29.,-117.));
#1084=CARTESIAN_POINT('Origin',(5.,14.,-117.));
#1085=CARTESIAN_POINT('',(5.,29.,-117.));
#1086=CARTESIAN_POINT('',(5.,23.656006055894,0.));
#1087=CARTESIAN_POINT('',(5.,23.656006055894,-32.9979160876412));
#1088=CARTESIAN_POINT('',(5.,29.,0.));
#1089=CARTESIAN_POINT('',(5.,14.0874780340554,-104.913147433499));
#1090=CARTESIAN_POINT('Origin',(5.,14.0874780340554,-113.185599377066));
#1091=CARTESIAN_POINT('Origin',(15.,29.,-5.00000000000001));
#1092=CARTESIAN_POINT('',(16.6097663979704,29.,-5.00000000000001));
#1093=CARTESIAN_POINT('Origin',(15.,29.,-5.00000000000001));
#1094=CARTESIAN_POINT('',(16.6097663979704,23.656006055894,-5.00000000000001));
#1095=CARTESIAN_POINT('',(16.6097663979704,29.,-5.00000000000001));
#1096=CARTESIAN_POINT('Origin',(15.,23.656006055894,-5.00000000000001));
#1097=CARTESIAN_POINT('Origin',(15.,29.,-20.2794574518868));
#1098=CARTESIAN_POINT('',(16.61,29.,-20.2794574518868));
#1099=CARTESIAN_POINT('Origin',(15.,29.,-20.2794574518868));
#1100=CARTESIAN_POINT('',(16.61,23.656006055894,-20.2794574518868));
#1101=CARTESIAN_POINT('',(16.61,29.,-20.2794574518868));
#1102=CARTESIAN_POINT('Origin',(15.,23.656006055894,-20.2794574518868));
#1103=CARTESIAN_POINT('Origin',(15.,27.6640015139735,-5.));
#1104=CARTESIAN_POINT('',(15.,23.656006055894,0.));
#1105=CARTESIAN_POINT('',(20.,23.656006055894,-5.));
#1106=CARTESIAN_POINT('Origin',(15.,23.656006055894,-5.));
#1107=CARTESIAN_POINT('',(20.,29.,-5.));
#1108=CARTESIAN_POINT('',(20.,27.6640015139735,-5.));
#1109=CARTESIAN_POINT('',(15.,29.,0.));
#1110=CARTESIAN_POINT('Origin',(15.,29.,-5.));
#1111=CARTESIAN_POINT('',(15.,27.6640015139735,0.));
#1112=CARTESIAN_POINT('Origin',(20.,26.328003027947,-12.6397287259434));
#1113=CARTESIAN_POINT('',(20.,23.656006055894,-20.2794574518868));
#1114=CARTESIAN_POINT('',(20.,23.656006055894,-25.2794574518868));
#1115=CARTESIAN_POINT('',(20.,29.,-20.2794574518868));
#1116=CARTESIAN_POINT('',(20.,24.9920045419205,-20.2794574518868));
#1117=CARTESIAN_POINT('',(20.,29.,0.));
#1118=CARTESIAN_POINT('Origin',(5.,23.656006055894,0.));
#1119=CARTESIAN_POINT('',(5.,23.656006055894,0.));
#1120=CARTESIAN_POINT('',(15.,23.656006055894,-25.2794574518868));
#1121=CARTESIAN_POINT('',(5.,23.656006055894,-25.2794574518868));
#1122=CARTESIAN_POINT('Origin',(15.,23.656006055894,-20.2794574518868));
#1123=CARTESIAN_POINT('Origin',(15.,24.9920045419205,-20.2794574518868));
#1124=CARTESIAN_POINT('',(15.,29.,-25.2794574518868));
#1125=CARTESIAN_POINT('Origin',(15.,29.,-20.2794574518868));
#1126=CARTESIAN_POINT('',(15.,24.9920045419205,-25.2794574518868));
#1127=CARTESIAN_POINT('Origin',(0.,29.,-117.));
#1128=CARTESIAN_POINT('',(5.,29.,-25.2794574518868));
#1129=CARTESIAN_POINT('',(0.,29.,-117.));
#1130=CARTESIAN_POINT('',(0.,29.,-117.));
#1131=CARTESIAN_POINT('',(0.,29.,0.));
#1132=CARTESIAN_POINT('',(0.,29.,-117.));
#1133=CARTESIAN_POINT('',(0.,29.,0.));
#1134=CARTESIAN_POINT('Origin',(5.,23.656006055894,-25.2794574518868));
#1135=CARTESIAN_POINT('Origin',(0.,14.0874780340554,-113.185599377066));
#1136=CARTESIAN_POINT('',(0.,14.0874780340554,-104.913147433499));
#1137=CARTESIAN_POINT('Origin',(0.,14.0874780340554,-113.185599377066));
#1138=CARTESIAN_POINT('',(0.,14.0874780340554,-104.913147433499));
#1139=CARTESIAN_POINT('Origin',(0.,0.,0.));
#1140=CARTESIAN_POINT('',(0.,0.,0.));
#1141=CARTESIAN_POINT('',(0.,0.,-117.));
#1142=CARTESIAN_POINT('',(0.,0.,0.));
#1143=CARTESIAN_POINT('',(0.,0.,-117.));
#1144=CARTESIAN_POINT('',(0.,0.,0.));
#1145=CARTESIAN_POINT('Origin',(0.,29.,0.));
#1146=CARTESIAN_POINT('',(0.,29.,0.));
#1147=CARTESIAN_POINT('Origin',(0.,14.,-117.));
#1148=CARTESIAN_POINT('',(0.,14.5000000000001,-131.991664350565));
#1149=CARTESIAN_POINT('Origin',(0.,14.,-117.));
#1150=CARTESIAN_POINT('',(0.,14.5000000000001,-131.991664350565));
#1151=CARTESIAN_POINT('Origin',(0.,15.,-117.));
#1152=CARTESIAN_POINT('Origin',(0.,15.,-117.));
#1153=CARTESIAN_POINT('Origin',(0.,14.5,-65.9958321752825));
#1154=CARTESIAN_POINT('',(0.,0.,0.));
#1155=CARTESIAN_POINT('',(-0.163496637887319,55.,-28.9863150019776));
#1156=CARTESIAN_POINT('Origin',(0.,0.,0.));
#1157=UNCERTAINTY_MEASURE_WITH_UNIT(LENGTH_MEASURE(0.01),#1165,
'DISTANCE_ACCURACY_VALUE',
'Maximum model space distance between geometric entities at asserted c
onnectivities');
#1158=UNCERTAINTY_MEASURE_WITH_UNIT(LENGTH_MEASURE(0.01),#1165,
'DISTANCE_ACCURACY_VALUE',
'Maximum model space distance between geometric entities at asserted c
onnectivities');
#1159=UNCERTAINTY_MEASURE_WITH_UNIT(LENGTH_MEASURE(0.01),#1165,
'DISTANCE_ACCURACY_VALUE',
'Maximum model space distance between geometric entities at asserted c
onnectivities');
#1160=UNCERTAINTY_MEASURE_WITH_UNIT(LENGTH_MEASURE(0.01),#1165,
'DISTANCE_ACCURACY_VALUE',
'Maximum model space distance between geometric entities at asserted c
onnectivities');
#1161=(
GEOMETRIC_REPRESENTATION_CONTEXT(3)
GLOBAL_UNCERTAINTY_ASSIGNED_CONTEXT((#1157))
GLOBAL_UNIT_ASSIGNED_CONTEXT((#1165,#1167,#1168))
REPRESENTATION_CONTEXT('','3D')
);
#1162=(
GEOMETRIC_REPRESENTATION_CONTEXT(3)
GLOBAL_UNCERTAINTY_ASSIGNED_CONTEXT((#1158))
GLOBAL_UNIT_ASSIGNED_CONTEXT((#1165,#1167,#1168))
REPRESENTATION_CONTEXT('','3D')
);
#1163=(
GEOMETRIC_REPRESENTATION_CONTEXT(3)
GLOBAL_UNCERTAINTY_ASSIGNED_CONTEXT((#1159))
GLOBAL_UNIT_ASSIGNED_CONTEXT((#1165,#1167,#1168))
REPRESENTATION_CONTEXT('','3D')
);
#1164=(
GEOMETRIC_REPRESENTATION_CONTEXT(3)
GLOBAL_UNCERTAINTY_ASSIGNED_CONTEXT((#1160))
GLOBAL_UNIT_ASSIGNED_CONTEXT((#1165,#1167,#1168))
REPRESENTATION_CONTEXT('','3D')
);
#1165=(
LENGTH_UNIT()
NAMED_UNIT(*)
SI_UNIT(.MILLI.,.METRE.)
);
#1166=(
LENGTH_UNIT()
NAMED_UNIT(*)
SI_UNIT($,.METRE.)
);
#1167=(
NAMED_UNIT(*)
PLANE_ANGLE_UNIT()
SI_UNIT($,.RADIAN.)
);
#1168=(
NAMED_UNIT(*)
SI_UNIT($,.STERADIAN.)
SOLID_ANGLE_UNIT()
);
#1169=SHAPE_DEFINITION_REPRESENTATION(#1172,#1177);
#1170=SHAPE_DEFINITION_REPRESENTATION(#1173,#1178);
#1171=SHAPE_DEFINITION_REPRESENTATION(#1174,#1179);
#1172=PRODUCT_DEFINITION_SHAPE('',$,#1181);
#1173=PRODUCT_DEFINITION_SHAPE('',$,#1182);
#1174=PRODUCT_DEFINITION_SHAPE('',$,#1183);
#1175=PRODUCT_DEFINITION_SHAPE($,$,#21);
#1176=PRODUCT_DEFINITION_SHAPE($,$,#22);
#1177=SHAPE_REPRESENTATION('',(#697,#764,#765),#1161);
#1178=SHAPE_REPRESENTATION('',(#698),#1162);
#1179=SHAPE_REPRESENTATION('',(#728),#1163);
#1180=PRODUCT_DEFINITION_CONTEXT('part definition',#1191,'design');
#1181=PRODUCT_DEFINITION('2026-01-07-20-59-03-809',
'PMRT BRACKET ASSEMBLY',#1184,#1180);
#1182=PRODUCT_DEFINITION('2026-01-07-20-46-42-470','BRACKET PART 2',#1185,
#1180);
#1183=PRODUCT_DEFINITION('2026-01-07-20-22-49-394',
'PRMT MACHINE BRACKET',#1186,#1180);
#1184=PRODUCT_DEFINITION_FORMATION('',$,#1193);
#1185=PRODUCT_DEFINITION_FORMATION('',$,#1194);
#1186=PRODUCT_DEFINITION_FORMATION('',$,#1195);
#1187=PRODUCT_RELATED_PRODUCT_CATEGORY('PMRT BRACKET ASSEMBLY',
'PMRT BRACKET ASSEMBLY',(#1193));
#1188=PRODUCT_RELATED_PRODUCT_CATEGORY('BRACKET PART 2',
'BRACKET PART 2',(#1194));
#1189=PRODUCT_RELATED_PRODUCT_CATEGORY('PRMT MACHINE BRACKET',
'PRMT MACHINE BRACKET',(#1195));
#1190=APPLICATION_PROTOCOL_DEFINITION('international standard',
'automotive_design',2009,#1191);
#1191=APPLICATION_CONTEXT(
'Core Data for Automotive Mechanical Design Process');
#1192=PRODUCT_CONTEXT('part definition',#1191,'mechanical');
#1193=PRODUCT('2026-01-07-20-59-03-809','PMRT BRACKET ASSEMBLY',$,(#1192));
#1194=PRODUCT('2026-01-07-20-46-42-470','BRACKET PART 2',$,(#1192));
#1195=PRODUCT('2026-01-07-20-22-49-394','PRMT MACHINE BRACKET',$,(#1192));
#1196=PRESENTATION_STYLE_ASSIGNMENT((#1200));
#1197=PRESENTATION_STYLE_ASSIGNMENT((#1201));
#1198=PRESENTATION_STYLE_ASSIGNMENT((#1202));
#1199=PRESENTATION_STYLE_ASSIGNMENT((NULL_STYLE(.NULL.)));
#1200=SURFACE_STYLE_USAGE(.BOTH.,#1203);
#1201=SURFACE_STYLE_USAGE(.BOTH.,#1204);
#1202=SURFACE_STYLE_USAGE(.BOTH.,#1205);
#1203=SURFACE_SIDE_STYLE('',(#1206));
#1204=SURFACE_SIDE_STYLE('',(#1207));
#1205=SURFACE_SIDE_STYLE('',(#1208));
#1206=SURFACE_STYLE_FILL_AREA(#1209);
#1207=SURFACE_STYLE_FILL_AREA(#1210);
#1208=SURFACE_STYLE_FILL_AREA(#1211);
#1209=FILL_AREA_STYLE('Steel - Satin',(#1212));
#1210=FILL_AREA_STYLE('Plastic - Translucent Matte (Green)',(#1213));
#1211=FILL_AREA_STYLE('Plastic - Translucent Glossy (Yellow)',(#1214));
#1212=FILL_AREA_STYLE_COLOUR('Steel - Satin',#1215);
#1213=FILL_AREA_STYLE_COLOUR('Plastic - Translucent Matte (Green)',#1216);
#1214=FILL_AREA_STYLE_COLOUR('Plastic - Translucent Glossy (Yellow)',#1217);
#1215=COLOUR_RGB('Steel - Satin',0.627450980392157,0.627450980392157,0.627450980392157);
#1216=COLOUR_RGB('Plastic - Translucent Matte (Green)',0.266666666666667,
0.588235294117647,0.282352941176471);
#1217=COLOUR_RGB('Plastic - Translucent Glossy (Yellow)',0.909803921568627,
0.67843137254902,0.137254901960784);
ENDSEC;
END-ISO-10303-21;
