ISO-10303-21;
HEADER;
FILE_DESCRIPTION (( 'STEP AP214' ),
    '1' );
FILE_NAME ('U-Shaped Bracket with Central Square Cutout.STEP',
    '2026-03-01T10:04:28',
    ( '' ),
    ( '' ),
    'SwSTEP 2.0',
    'SolidWorks 2026',
    '' );
FILE_SCHEMA (( 'AUTOMOTIVE_DESIGN' ));
ENDSEC;

DATA;
#1 = LINE ( 'NONE', #129, #195 ) ;
#2 = VECTOR ( 'NONE', #77, 1000.000000000000000 ) ;
#3 =( LENGTH_UNIT ( ) NAMED_UNIT ( * ) SI_UNIT ( .MILLI., .METRE. ) );
#4 = EDGE_CURVE ( 'NONE', #14, #308, #94, .T. ) ;
#5 = ORIENTED_EDGE ( 'NONE', *, *, #201, .F. ) ;
#6 = CARTESIAN_POINT ( 'NONE',  ( -27.99999999999999645, 4.000000000000000888, 8.000000000000000000 ) ) ;
#7 = ORIENTED_EDGE ( 'NONE', *, *, #296, .F. ) ;
#8 = DIRECTION ( 'NONE',  ( -1.445602896647339163E-16, -0.000000000000000000, -1.000000000000000000 ) ) ;
#9 = ORIENTED_EDGE ( 'NONE', *, *, #73, .F. ) ;
#10 = DIRECTION ( 'NONE',  ( 0.000000000000000000, 1.000000000000000000, 0.000000000000000000 ) ) ;
#11 = ORIENTED_EDGE ( 'NONE', *, *, #487, .T. ) ;
#12 = VECTOR ( 'NONE', #112, 1000.000000000000000 ) ;
#13 = DIRECTION ( 'NONE',  ( -0.000000000000000000, -1.000000000000000000, -0.000000000000000000 ) ) ;
#14 = VERTEX_POINT ( 'NONE', #306 ) ;
#15 = EDGE_CURVE ( 'NONE', #272, #495, #391, .T. ) ;
#16 = DIRECTION ( 'NONE',  ( -0.000000000000000000, -1.000000000000000000, -0.000000000000000000 ) ) ;
#17 = ORIENTED_EDGE ( 'NONE', *, *, #149, .T. ) ;
#18 = VECTOR ( 'NONE', #364, 1000.000000000000000 ) ;
#19 = EDGE_CURVE ( 'NONE', #291, #383, #260, .T. ) ;
#20 = DIRECTION ( 'NONE',  ( 1.000000000000000000, -0.000000000000000000, -0.000000000000000000 ) ) ;
#21 = DIRECTION ( 'NONE',  ( -1.000000000000000000, 0.000000000000000000, -0.000000000000000000 ) ) ;
#22 = EDGE_CURVE ( 'NONE', #341, #460, #426, .T. ) ;
#23 = FACE_OUTER_BOUND ( 'NONE', #183, .T. ) ;
#24 = CARTESIAN_POINT ( 'NONE',  ( -11.99999999999999645, 16.00000000000000000, 0.000000000000000000 ) ) ;
#25 = CARTESIAN_POINT ( 'NONE',  ( -11.99999999999999645, 4.000000000000000888, 0.000000000000000000 ) ) ;
#26 = FACE_OUTER_BOUND ( 'NONE', #101, .T. ) ;
#27 =( LENGTH_UNIT ( ) NAMED_UNIT ( * ) SI_UNIT ( .MILLI., .METRE. ) );
#28 = CARTESIAN_POINT ( 'NONE',  ( -11.99999999999999467, 4.000000000000000888, 7.999999999999998224 ) ) ;
#29 = EDGE_LOOP ( 'NONE', ( #310, #388, #467, #376 ) ) ;
#30 = DIRECTION ( 'NONE',  ( -0.000000000000000000, -0.000000000000000000, 1.000000000000000000 ) ) ;
#31 = ADVANCED_FACE ( 'NONE', ( #26 ), #386, .F. ) ;
#32 = CARTESIAN_POINT ( 'NONE',  ( -27.99999999999999645, -3.999999999999999112, 32.00000000000000000 ) ) ;
#33 = DIRECTION ( 'NONE',  ( 1.000000000000000000, 0.000000000000000000, -1.445602896647339163E-16 ) ) ;
#34 = DIRECTION ( 'NONE',  ( 1.000000000000000000, 0.000000000000000000, -0.000000000000000000 ) ) ;
#35 = DIRECTION ( 'NONE',  ( 0.000000000000000000, 0.000000000000000000, -1.000000000000000000 ) ) ;
#36 = VECTOR ( 'NONE', #13, 1000.000000000000000 ) ;
#37 = LINE ( 'NONE', #445, #242 ) ;
#38 = CARTESIAN_POINT ( 'NONE',  ( -11.99999999999999645, 4.000000000000000888, 0.000000000000000000 ) ) ;
#39 = ORIENTED_EDGE ( 'NONE', *, *, #359, .T. ) ;
#40 = LINE ( 'NONE', #449, #363 ) ;
#41 = AXIS2_PLACEMENT_3D ( 'NONE', #344, #420, #173 ) ;
#42 = VERTEX_POINT ( 'NONE', #435 ) ;
#43 = DIRECTION ( 'NONE',  ( -1.000000000000000000, -0.000000000000000000, -0.000000000000000000 ) ) ;
#44 = ORIENTED_EDGE ( 'NONE', *, *, #264, .F. ) ;
#45 = FILL_AREA_STYLE_COLOUR ( '', #444 ) ;
#46 = ORIENTED_EDGE ( 'NONE', *, *, #55, .T. ) ;
#47 = SURFACE_STYLE_USAGE ( .BOTH. , #334 ) ;
#48 = VERTEX_POINT ( 'NONE', #474 ) ;
#49 = FACE_OUTER_BOUND ( 'NONE', #335, .T. ) ;
#50 = EDGE_CURVE ( 'NONE', #520, #269, #136, .T. ) ;
#51 = VECTOR ( 'NONE', #486, 1000.000000000000000 ) ;
#52 = ORIENTED_EDGE ( 'NONE', *, *, #300, .T. ) ;
#53 = LINE ( 'NONE', #299, #150 ) ;
#54 = DIRECTION ( 'NONE',  ( -0.000000000000000000, -1.000000000000000000, -0.000000000000000000 ) ) ;
#55 = EDGE_CURVE ( 'NONE', #269, #341, #174, .T. ) ;
#56 = CARTESIAN_POINT ( 'NONE',  ( 12.00000000000000355, 16.00000000000000000, 32.00000000000000000 ) ) ;
#57 = VERTEX_POINT ( 'NONE', #304 ) ;
#58 = DIRECTION ( 'NONE',  ( -0.000000000000000000, -0.000000000000000000, -1.000000000000000000 ) ) ;
#59 = CARTESIAN_POINT ( 'NONE',  ( -27.99999999999999645, -3.999999999999999112, 0.000000000000000000 ) ) ;
#60 = ORIENTED_EDGE ( 'NONE', *, *, #118, .T. ) ;
#61 = LINE ( 'NONE', #265, #384 ) ;
#62 = ORIENTED_EDGE ( 'NONE', *, *, #352, .T. ) ;
#63 = ORIENTED_EDGE ( 'NONE', *, *, #226, .F. ) ;
#64 = APPLICATION_PROTOCOL_DEFINITION ( 'draft international standard', 'automotive_design', 1998, #392 ) ;
#65 = DIRECTION ( 'NONE',  ( -2.168404344971009361E-16, -0.000000000000000000, -1.000000000000000000 ) ) ;
#66 = ORIENTED_EDGE ( 'NONE', *, *, #15, .T. ) ;
#67 = CARTESIAN_POINT ( 'NONE',  ( 28.00000000000000355, 4.000000000000000888, 24.00000000000000000 ) ) ;
#68 = DIRECTION ( 'NONE',  ( -1.000000000000000000, 0.000000000000000000, -0.000000000000000000 ) ) ;
#69 = EDGE_CURVE ( 'NONE', #122, #520, #347, .T. ) ;
#70 = AXIS2_PLACEMENT_3D ( 'NONE', #368, #160, #288 ) ;
#71 = PLANE ( 'NONE',  #481 ) ;
#72 = LINE ( 'NONE', #516, #12 ) ;
#73 = EDGE_CURVE ( 'NONE', #341, #122, #471, .T. ) ;
#74 = ADVANCED_FACE ( 'NONE', ( #115 ), #192, .F. ) ;
#75 = DIRECTION ( 'NONE',  ( -0.000000000000000000, -0.000000000000000000, 1.000000000000000000 ) ) ;
#76 = CARTESIAN_POINT ( 'NONE',  ( 8.000000000000001776, -3.999999999999999112, 10.62218571881095386 ) ) ;
#77 = DIRECTION ( 'NONE',  ( -0.000000000000000000, -0.000000000000000000, 1.000000000000000000 ) ) ;
#78 = EDGE_LOOP ( 'NONE', ( #472, #431, #458, #96 ) ) ;
#79 = VECTOR ( 'NONE', #331, 1000.000000000000000 ) ;
#80 = LINE ( 'NONE', #443, #145 ) ;
#81 = LINE ( 'NONE', #38, #224 ) ;
#82 = VERTEX_POINT ( 'NONE', #156 ) ;
#83 = DIRECTION ( 'NONE',  ( -2.168404344971009361E-16, -0.000000000000000000, -1.000000000000000000 ) ) ;
#84 = VECTOR ( 'NONE', #20, 1000.000000000000000 ) ;
#85 = ORIENTED_EDGE ( 'NONE', *, *, #492, .F. ) ;
#86 = FACE_OUTER_BOUND ( 'NONE', #207, .T. ) ;
#87 = ORIENTED_EDGE ( 'NONE', *, *, #69, .F. ) ;
#88 = CARTESIAN_POINT ( 'NONE',  ( 8.000000000000001776, 4.000000000000000888, 10.62218571881095386 ) ) ;
#89 = ORIENTED_EDGE ( 'NONE', *, *, #92, .T. ) ;
#90 = ORIENTED_EDGE ( 'NONE', *, *, #118, .F. ) ;
#91 = CARTESIAN_POINT ( 'NONE',  ( -27.99999999999999645, -3.999999999999999112, 32.00000000000000000 ) ) ;
#92 = EDGE_CURVE ( 'NONE', #267, #337, #322, .T. ) ;
#93 = AXIS2_PLACEMENT_3D ( 'NONE', #320, #279, #148 ) ;
#94 = LINE ( 'NONE', #301, #446 ) ;
#95 = DIRECTION ( 'NONE',  ( 0.000000000000000000, -1.000000000000000000, 0.000000000000000000 ) ) ;
#96 = ORIENTED_EDGE ( 'NONE', *, *, #277, .T. ) ;
#97 = LINE ( 'NONE', #303, #176 ) ;
#98 = LINE ( 'NONE', #282, #2 ) ;
#99 = ORIENTED_EDGE ( 'NONE', *, *, #110, .T. ) ;
#100 = DIRECTION ( 'NONE',  ( -1.000000000000000000, -0.000000000000000000, -0.000000000000000000 ) ) ;
#101 = EDGE_LOOP ( 'NONE', ( #99, #241, #5, #489 ) ) ;
#102 = ORIENTED_EDGE ( 'NONE', *, *, #149, .F. ) ;
#103 = AXIS2_PLACEMENT_3D ( 'NONE', #422, #21, #180 ) ;
#104 = EDGE_LOOP ( 'NONE', ( #450, #249, #511, #39, #372, #9 ) ) ;
#105 = VERTEX_POINT ( 'NONE', #107 ) ;
#106 = EDGE_CURVE ( 'NONE', #48, #252, #37, .T. ) ;
#107 = CARTESIAN_POINT ( 'NONE',  ( 8.000000000000003553, -3.999999999999999112, 22.62218571881095386 ) ) ;
#108 = CARTESIAN_POINT ( 'NONE',  ( 28.00000000000000355, -3.999999999999999112, 0.000000000000000000 ) ) ;
#109 = PLANE ( 'NONE',  #397 ) ;
#110 = EDGE_CURVE ( 'NONE', #209, #308, #80, .T. ) ;
#111 = LINE ( 'NONE', #32, #18 ) ;
#112 = DIRECTION ( 'NONE',  ( 1.000000000000000000, 0.000000000000000000, 0.000000000000000000 ) ) ;
#113 = DIRECTION ( 'NONE',  ( -0.000000000000000000, -0.000000000000000000, -1.000000000000000000 ) ) ;
#114 = DIRECTION ( 'NONE',  ( -1.445602896647339163E-16, -0.000000000000000000, -1.000000000000000000 ) ) ;
#115 = FACE_OUTER_BOUND ( 'NONE', #159, .T. ) ;
#116 = CARTESIAN_POINT ( 'NONE',  ( 8.000000000000003553, -3.999999999999999112, 22.62218571881095386 ) ) ;
#117 = ORIENTED_EDGE ( 'NONE', *, *, #110, .F. ) ;
#118 = EDGE_CURVE ( 'NONE', #460, #383, #72, .T. ) ;
#119 = CARTESIAN_POINT ( 'NONE',  ( 28.00000000000000355, -3.999999999999999112, 32.00000000000000000 ) ) ;
#120 = ORIENTED_EDGE ( 'NONE', *, *, #55, .F. ) ;
#121 = VECTOR ( 'NONE', #346, 1000.000000000000000 ) ;
#122 = VERTEX_POINT ( 'NONE', #238 ) ;
#123 = ADVANCED_FACE ( 'NONE', ( #236 ), #361, .F. ) ;
#124 = EDGE_CURVE ( 'NONE', #291, #289, #234, .T. ) ;
#125 = FACE_OUTER_BOUND ( 'NONE', #141, .T. ) ;
#126 = VECTOR ( 'NONE', #413, 1000.000000000000000 ) ;
#127 = VERTEX_POINT ( 'NONE', #365 ) ;
#128 = VECTOR ( 'NONE', #54, 1000.000000000000000 ) ;
#129 = CARTESIAN_POINT ( 'NONE',  ( 12.00000000000000355, 16.00000000000000000, 32.00000000000000000 ) ) ;
#130 = ORIENTED_EDGE ( 'NONE', *, *, #453, .T. ) ;
#131 = CARTESIAN_POINT ( 'NONE',  ( -7.999999999999994671, -3.999999999999999112, 10.62218571881095386 ) ) ;
#132 = CARTESIAN_POINT ( 'NONE',  ( -27.99999999999999645, 16.00000000000000000, 0.000000000000000000 ) ) ;
#133 = DIRECTION ( 'NONE',  ( -0.000000000000000000, -1.000000000000000000, -0.000000000000000000 ) ) ;
#134 = ORIENTED_EDGE ( 'NONE', *, *, #342, .T. ) ;
#135 = DIRECTION ( 'NONE',  ( -0.000000000000000000, -0.000000000000000000, -1.000000000000000000 ) ) ;
#136 = LINE ( 'NONE', #24, #513 ) ;
#137 = CARTESIAN_POINT ( 'NONE',  ( 28.00000000000000355, 16.00000000000000000, 32.00000000000000000 ) ) ;
#138 = DIRECTION ( 'NONE',  ( -0.000000000000000000, 1.000000000000000000, -0.000000000000000000 ) ) ;
#139 = ORIENTED_EDGE ( 'NONE', *, *, #226, .T. ) ;
#140 = PLANE ( 'NONE',  #333 ) ;
#141 = EDGE_LOOP ( 'NONE', ( #62, #63, #7, #418 ) ) ;
#142 = AXIS2_PLACEMENT_3D ( 'NONE', #490, #410, #371 ) ;
#143 = ADVANCED_FACE ( 'NONE', ( #190 ), #514, .F. ) ;
#144 = CARTESIAN_POINT ( 'NONE',  ( 28.00000000000000355, 4.000000000000000888, 32.00000000000000000 ) ) ;
#145 = VECTOR ( 'NONE', #30, 1000.000000000000000 ) ;
#146 = CARTESIAN_POINT ( 'NONE',  ( -7.999999999999994671, -3.999999999999999112, 10.62218571881095386 ) ) ;
#147 = DIRECTION ( 'NONE',  ( 0.000000000000000000, 0.000000000000000000, 1.000000000000000000 ) ) ;
#148 = DIRECTION ( 'NONE',  ( 0.000000000000000000, 0.000000000000000000, -1.000000000000000000 ) ) ;
#149 = EDGE_CURVE ( 'NONE', #271, #325, #401, .T. ) ;
#150 = VECTOR ( 'NONE', #133, 1000.000000000000000 ) ;
#151 = DIRECTION ( 'NONE',  ( 1.000000000000000000, -0.000000000000000000, -0.000000000000000000 ) ) ;
#152 = CARTESIAN_POINT ( 'NONE',  ( -11.99999999999999467, 16.00000000000000000, 7.999999999999998224 ) ) ;
#153 = VECTOR ( 'NONE', #151, 1000.000000000000000 ) ;
#154 =( GEOMETRIC_REPRESENTATION_CONTEXT ( 3 ) GLOBAL_UNCERTAINTY_ASSIGNED_CONTEXT ( ( #484 ) ) GLOBAL_UNIT_ASSIGNED_CONTEXT ( ( #3, #199, #327 ) ) REPRESENTATION_CONTEXT ( 'NONE', 'WORKASPACE' ) );
#155 = DIRECTION ( 'NONE',  ( 1.000000000000000000, -0.000000000000000000, 0.000000000000000000 ) ) ;
#156 = CARTESIAN_POINT ( 'NONE',  ( 12.00000000000000355, 4.000000000000000888, 24.00000000000000000 ) ) ;
#157 = LINE ( 'NONE', #108, #246 ) ;
#158 = FACE_OUTER_BOUND ( 'NONE', #273, .T. ) ;
#159 = EDGE_LOOP ( 'NONE', ( #408, #394, #463, #350 ) ) ;
#160 = DIRECTION ( 'NONE',  ( 0.000000000000000000, 0.000000000000000000, -1.000000000000000000 ) ) ;
#161 = EDGE_CURVE ( 'NONE', #367, #209, #405, .T. ) ;
#162 = VECTOR ( 'NONE', #315, 1000.000000000000000 ) ;
#163 = ORIENTED_EDGE ( 'NONE', *, *, #73, .T. ) ;
#164 = EDGE_CURVE ( 'NONE', #520, #325, #441, .T. ) ;
#165 = DIRECTION ( 'NONE',  ( -0.000000000000000000, -0.000000000000000000, 1.000000000000000000 ) ) ;
#166 = EDGE_LOOP ( 'NONE', ( #17, #256, #87, #436 ) ) ;
#167 = EDGE_CURVE ( 'NONE', #82, #272, #519, .T. ) ;
#168 = DIRECTION ( 'NONE',  ( -0.000000000000000000, 1.000000000000000000, -0.000000000000000000 ) ) ;
#169 = ORIENTED_EDGE ( 'NONE', *, *, #400, .T. ) ;
#170 = DIRECTION ( 'NONE',  ( 0.000000000000000000, -0.000000000000000000, 1.000000000000000000 ) ) ;
#171 = ORIENTED_EDGE ( 'NONE', *, *, #381, .F. ) ;
#172 = AXIS2_PLACEMENT_3D ( 'NONE', #283, #351, #34 ) ;
#173 = DIRECTION ( 'NONE',  ( 0.000000000000000000, -0.000000000000000000, -1.000000000000000000 ) ) ;
#174 = LINE ( 'NONE', #132, #270 ) ;
#175 = CARTESIAN_POINT ( 'NONE',  ( -7.999999999999994671, 4.000000000000000888, 22.62218571881095386 ) ) ;
#176 = VECTOR ( 'NONE', #113, 1000.000000000000000 ) ;
#177 = DIRECTION ( 'NONE',  ( -1.000000000000000000, -0.000000000000000000, -0.000000000000000000 ) ) ;
#178 = PRODUCT_DEFINITION_SHAPE ( 'NONE', 'NONE',  #399 ) ;
#179 = LINE ( 'NONE', #503, #219 ) ;
#180 = DIRECTION ( 'NONE',  ( -0.000000000000000000, 0.000000000000000000, 1.000000000000000000 ) ) ;
#181 = PLANE ( 'NONE',  #313 ) ;
#182 = DIRECTION ( 'NONE',  ( -1.000000000000000000, -0.000000000000000000, -0.000000000000000000 ) ) ;
#183 = EDGE_LOOP ( 'NONE', ( #52, #214, #328, #11 ) ) ;
#184 = CARTESIAN_POINT ( 'NONE',  ( 0.000000000000000000, 16.00000000000000000, 0.000000000000000000 ) ) ;
#185 = ORIENTED_EDGE ( 'NONE', *, *, #352, .F. ) ;
#186 = EDGE_LOOP ( 'NONE', ( #295, #504, #44, #139 ) ) ;
#187 = DIRECTION ( 'NONE',  ( -1.084202172485504434E-16, 0.000000000000000000, -1.000000000000000000 ) ) ;
#188 = DIRECTION ( 'NONE',  ( -0.000000000000000000, -1.000000000000000000, -0.000000000000000000 ) ) ;
#189 = VERTEX_POINT ( 'NONE', #312 ) ;
#190 = FACE_OUTER_BOUND ( 'NONE', #104, .T. ) ;
#191 = FACE_OUTER_BOUND ( 'NONE', #186, .T. ) ;
#192 = PLANE ( 'NONE',  #172 ) ;
#193 = AXIS2_PLACEMENT_3D ( 'NONE', #509, #307, #213 ) ;
#194 = DIRECTION ( 'NONE',  ( -1.000000000000000000, 0.000000000000000000, 2.168404344971009361E-16 ) ) ;
#195 = VECTOR ( 'NONE', #165, 1000.000000000000000 ) ;
#196 = FACE_OUTER_BOUND ( 'NONE', #166, .T. ) ;
#197 = VECTOR ( 'NONE', #469, 1000.000000000000000 ) ;
#198 = DIRECTION ( 'NONE',  ( -1.445602896647339163E-16, 0.000000000000000000, -1.000000000000000000 ) ) ;
#199 =( NAMED_UNIT ( * ) PLANE_ANGLE_UNIT ( ) SI_UNIT ( $, .RADIAN. ) );
#200 = ORIENTED_EDGE ( 'NONE', *, *, #92, .F. ) ;
#201 = EDGE_CURVE ( 'NONE', #367, #14, #98, .T. ) ;
#202 = DIRECTION ( 'NONE',  ( -1.000000000000000000, -0.000000000000000000, -0.000000000000000000 ) ) ;
#203 = ORIENTED_EDGE ( 'NONE', *, *, #124, .T. ) ;
#204 = ADVANCED_FACE ( 'NONE', ( #440 ), #482, .F. ) ;
#205 = FILL_AREA_STYLE ('',( #45 ) ) ;
#206 = ADVANCED_FACE ( 'NONE', ( #158 ), #109, .F. ) ;
#207 = EDGE_LOOP ( 'NONE', ( #323, #90, #345, #120, #169, #200 ) ) ;
#208 = CARTESIAN_POINT ( 'NONE',  ( 12.00000000000000355, 16.00000000000000000, 24.00000000000000000 ) ) ;
#209 = VERTEX_POINT ( 'NONE', #355 ) ;
#210 = FACE_OUTER_BOUND ( 'NONE', #293, .T. ) ;
#211 = ORIENTED_EDGE ( 'NONE', *, *, #284, .T. ) ;
#212 = STYLED_ITEM ( 'NONE', ( #496 ), #254 ) ;
#213 = DIRECTION ( 'NONE',  ( -1.000000000000000000, 0.000000000000000000, -0.000000000000000000 ) ) ;
#214 = ORIENTED_EDGE ( 'NONE', *, *, #161, .F. ) ;
#215 = CARTESIAN_POINT ( 'NONE',  ( -27.99999999999999645, 16.00000000000000000, 0.000000000000000000 ) ) ;
#216 = DIRECTION ( 'NONE',  ( 1.000000000000000000, -0.000000000000000000, -1.084202172485504434E-16 ) ) ;
#217 = EDGE_CURVE ( 'NONE', #105, #127, #480, .T. ) ;
#218 = DIRECTION ( 'NONE',  ( 1.000000000000000000, 0.000000000000000000, 0.000000000000000000 ) ) ;
#219 = VECTOR ( 'NONE', #135, 1000.000000000000000 ) ;
#220 = AXIS2_PLACEMENT_3D ( 'NONE', #461, #228, #385 ) ;
#221 = CARTESIAN_POINT ( 'NONE',  ( -27.99999999999999645, 4.000000000000000888, 32.00000000000000000 ) ) ;
#222 = ADVANCED_FACE ( 'NONE', ( #86 ), #488, .T. ) ;
#223 = LINE ( 'NONE', #56, #121 ) ;
#224 = VECTOR ( 'NONE', #83, 1000.000000000000000 ) ;
#225 = ORIENTED_EDGE ( 'NONE', *, *, #316, .T. ) ;
#226 = EDGE_CURVE ( 'NONE', #253, #82, #375, .T. ) ;
#227 = ORIENTED_EDGE ( 'NONE', *, *, #296, .T. ) ;
#228 = DIRECTION ( 'NONE',  ( -1.000000000000000000, 0.000000000000000000, 0.000000000000000000 ) ) ;
#229 = ORIENTED_EDGE ( 'NONE', *, *, #19, .F. ) ;
#230 = DIRECTION ( 'NONE',  ( 0.000000000000000000, 1.000000000000000000, 0.000000000000000000 ) ) ;
#231 = ORIENTED_EDGE ( 'NONE', *, *, #500, .F. ) ;
#232 = EDGE_CURVE ( 'NONE', #105, #48, #286, .T. ) ;
#233 = DIRECTION ( 'NONE',  ( -1.000000000000000000, 0.000000000000000000, 1.084202172485504434E-16 ) ) ;
#234 = LINE ( 'NONE', #512, #285 ) ;
#235 =( NAMED_UNIT ( * ) PLANE_ANGLE_UNIT ( ) SI_UNIT ( $, .RADIAN. ) );
#236 = FACE_OUTER_BOUND ( 'NONE', #330, .T. ) ;
#237 = CARTESIAN_POINT ( 'NONE',  ( 0.000000000000000000, 0.000000000000000000, 0.000000000000000000 ) ) ;
#238 = CARTESIAN_POINT ( 'NONE',  ( -27.99999999999999645, 16.00000000000000000, 8.000000000000000000 ) ) ;
#239 = CARTESIAN_POINT ( 'NONE',  ( 8.000000000000003553, 4.000000000000000888, 22.62218571881095386 ) ) ;
#240 = CARTESIAN_POINT ( 'NONE',  ( -11.99999999999999645, 16.00000000000000000, 0.000000000000000000 ) ) ;
#241 = ORIENTED_EDGE ( 'NONE', *, *, #4, .F. ) ;
#242 = VECTOR ( 'NONE', #114, 1000.000000000000000 ) ;
#243 = DIRECTION ( 'NONE',  ( 0.000000000000000000, 1.000000000000000000, 0.000000000000000000 ) ) ;
#244 = ORIENTED_EDGE ( 'NONE', *, *, #400, .F. ) ;
#245 = PRODUCT_RELATED_PRODUCT_CATEGORY ( 'part', '', ( #261 ) ) ;
#246 = VECTOR ( 'NONE', #230, 1000.000000000000000 ) ;
#247 = ADVANCED_FACE ( 'NONE', ( #125 ), #324, .F. ) ;
#248 = CARTESIAN_POINT ( 'NONE',  ( -7.999999999999994671, 4.000000000000000888, 10.62218571881095386 ) ) ;
#249 = ORIENTED_EDGE ( 'NONE', *, *, #439, .F. ) ;
#250 = AXIS2_PLACEMENT_3D ( 'NONE', #237, #147, #360 ) ;
#251 = CARTESIAN_POINT ( 'NONE',  ( 8.000000000000003553, -3.999999999999999112, 22.62218571881095386 ) ) ;
#252 = VERTEX_POINT ( 'NONE', #88 ) ;
#253 = VERTEX_POINT ( 'NONE', #493 ) ;
#254 = MANIFOLD_SOLID_BREP ( 'Cut-Extrude1', #353 ) ;
#255 = CARTESIAN_POINT ( 'NONE',  ( 28.00000000000000355, -3.999999999999999112, 0.000000000000000000 ) ) ;
#256 = ORIENTED_EDGE ( 'NONE', *, *, #164, .F. ) ;
#257 = VECTOR ( 'NONE', #188, 1000.000000000000000 ) ;
#258 = DIRECTION ( 'NONE',  ( 0.000000000000000000, -1.000000000000000000, 0.000000000000000000 ) ) ;
#259 = ADVANCED_FACE ( 'NONE', ( #290, #210 ), #415, .F. ) ;
#260 = LINE ( 'NONE', #502, #197 ) ;
#261 = PRODUCT ( 'U-Shaped Bracket with Central Square Cutout', 'U-Shaped Bracket with Central Square Cutout', '', ( #319 ) ) ;
#262 = DIRECTION ( 'NONE',  ( -1.000000000000000000, -0.000000000000000000, -0.000000000000000000 ) ) ;
#263 = ORIENTED_EDGE ( 'NONE', *, *, #50, .F. ) ;
#264 = EDGE_CURVE ( 'NONE', #253, #189, #1, .T. ) ;
#265 = CARTESIAN_POINT ( 'NONE',  ( 28.00000000000000355, 16.00000000000000000, 24.00000000000000000 ) ) ;
#266 = VECTOR ( 'NONE', #218, 1000.000000000000000 ) ;
#267 = VERTEX_POINT ( 'NONE', #366 ) ;
#268 = FACE_OUTER_BOUND ( 'NONE', #510, .T. ) ;
#269 = VERTEX_POINT ( 'NONE', #294 ) ;
#270 = VECTOR ( 'NONE', #182, 1000.000000000000000 ) ;
#271 = VERTEX_POINT ( 'NONE', #6 ) ;
#272 = VERTEX_POINT ( 'NONE', #329 ) ;
#273 = EDGE_LOOP ( 'NONE', ( #203, #491, #225, #66, #455, #369 ) ) ;
#274 = CARTESIAN_POINT ( 'NONE',  ( 8.000000000000001776, -3.999999999999999112, 10.62218571881095386 ) ) ;
#275 = DIRECTION ( 'NONE',  ( -0.000000000000000000, 1.000000000000000000, -0.000000000000000000 ) ) ;
#276 = CARTESIAN_POINT ( 'NONE',  ( 8.000000000000001776, -3.999999999999999112, 10.62218571881095386 ) ) ;
#277 = EDGE_CURVE ( 'NONE', #14, #105, #459, .T. ) ;
#278 =( NAMED_UNIT ( * ) SI_UNIT ( $, .STERADIAN. ) SOLID_ANGLE_UNIT ( ) );
#279 = DIRECTION ( 'NONE',  ( 1.000000000000000000, 0.000000000000000000, 0.000000000000000000 ) ) ;
#280 = LINE ( 'NONE', #76, #314 ) ;
#281 = UNCERTAINTY_MEASURE_WITH_UNIT (LENGTH_MEASURE( 1.000000000000000082E-05 ), #27, 'distance_accuracy_value', 'NONE');
#282 = CARTESIAN_POINT ( 'NONE',  ( -7.999999999999994671, -3.999999999999999112, 22.62218571881095386 ) ) ;
#283 = CARTESIAN_POINT ( 'NONE',  ( 8.000000000000003553, -3.999999999999999112, 22.62218571881095386 ) ) ;
#284 = EDGE_CURVE ( 'NONE', #325, #337, #81, .T. ) ;
#285 = VECTOR ( 'NONE', #243, 1000.000000000000000 ) ;
#286 = LINE ( 'NONE', #116, #377 ) ;
#287 = ORIENTED_EDGE ( 'NONE', *, *, #359, .F. ) ;
#288 = DIRECTION ( 'NONE',  ( -1.000000000000000000, 0.000000000000000000, -0.000000000000000000 ) ) ;
#289 = VERTEX_POINT ( 'NONE', #407 ) ;
#290 = FACE_BOUND ( 'NONE', #78, .T. ) ;
#291 = VERTEX_POINT ( 'NONE', #119 ) ;
#292 = MECHANICAL_DESIGN_GEOMETRIC_PRESENTATION_REPRESENTATION (  '', ( #212 ), #154 ) ;
#293 = EDGE_LOOP ( 'NONE', ( #60, #229, #171, #499 ) ) ;
#294 = CARTESIAN_POINT ( 'NONE',  ( -11.99999999999999645, 16.00000000000000000, 0.000000000000000000 ) ) ;
#295 = ORIENTED_EDGE ( 'NONE', *, *, #167, .T. ) ;
#296 = EDGE_CURVE ( 'NONE', #42, #253, #40, .T. ) ;
#297 = PLANE ( 'NONE',  #220 ) ;
#298 = ORIENTED_EDGE ( 'NONE', *, *, #447, .F. ) ;
#299 = CARTESIAN_POINT ( 'NONE',  ( -11.99999999999999645, 16.00000000000000000, 0.000000000000000000 ) ) ;
#300 = EDGE_CURVE ( 'NONE', #252, #209, #373, .T. ) ;
#301 = CARTESIAN_POINT ( 'NONE',  ( -7.999999999999994671, -3.999999999999999112, 22.62218571881095386 ) ) ;
#302 = EDGE_CURVE ( 'NONE', #122, #271, #336, .T. ) ;
#303 = CARTESIAN_POINT ( 'NONE',  ( 28.00000000000000355, 16.00000000000000000, 24.00000000000000000 ) ) ;
#304 = CARTESIAN_POINT ( 'NONE',  ( -27.99999999999999645, -3.999999999999999112, 32.00000000000000000 ) ) ;
#305 = CARTESIAN_POINT ( 'NONE',  ( -27.99999999999999645, 4.000000000000000888, 32.00000000000000000 ) ) ;
#306 = CARTESIAN_POINT ( 'NONE',  ( -7.999999999999992895, -3.999999999999999112, 22.62218571881095741 ) ) ;
#307 = DIRECTION ( 'NONE',  ( 0.000000000000000000, 0.000000000000000000, -1.000000000000000000 ) ) ;
#308 = VERTEX_POINT ( 'NONE', #175 ) ;
#309 = DIRECTION ( 'NONE',  ( -0.000000000000000000, -0.000000000000000000, 1.000000000000000000 ) ) ;
#310 = ORIENTED_EDGE ( 'NONE', *, *, #106, .T. ) ;
#311 = ADVANCED_FACE ( 'NONE', ( #268 ), #140, .F. ) ;
#312 = CARTESIAN_POINT ( 'NONE',  ( 12.00000000000000355, 16.00000000000000000, 32.00000000000000000 ) ) ;
#313 = AXIS2_PLACEMENT_3D ( 'NONE', #184, #258, #387 ) ;
#314 = VECTOR ( 'NONE', #275, 1000.000000000000000 ) ;
#315 = DIRECTION ( 'NONE',  ( 1.000000000000000000, -0.000000000000000000, -1.084202172485504434E-16 ) ) ;
#316 = EDGE_CURVE ( 'NONE', #189, #272, #223, .T. ) ;
#317 = PRESENTATION_LAYER_ASSIGNMENT (  '', '', ( #212 ) ) ;
#318 = ADVANCED_FACE ( 'NONE', ( #349 ), #181, .F. ) ;
#319 = PRODUCT_CONTEXT ( 'NONE', #521, 'mechanical' ) ;
#320 = CARTESIAN_POINT ( 'NONE',  ( -27.99999999999999645, -3.999999999999999112, 32.00000000000000000 ) ) ;
#321 = CARTESIAN_POINT ( 'NONE',  ( -11.99999999999999467, 16.00000000000000000, 7.999999999999998224 ) ) ;
#322 = LINE ( 'NONE', #398, #475 ) ;
#323 = ORIENTED_EDGE ( 'NONE', *, *, #453, .F. ) ;
#324 = PLANE ( 'NONE',  #142 ) ;
#325 = VERTEX_POINT ( 'NONE', #506 ) ;
#326 = AXIS2_PLACEMENT_3D ( 'NONE', #274, #33, #198 ) ;
#327 =( NAMED_UNIT ( * ) SI_UNIT ( $, .STERADIAN. ) SOLID_ANGLE_UNIT ( ) );
#328 = ORIENTED_EDGE ( 'NONE', *, *, #409, .F. ) ;
#329 = CARTESIAN_POINT ( 'NONE',  ( 12.00000000000000355, 4.000000000000000888, 32.00000000000000000 ) ) ;
#330 = EDGE_LOOP ( 'NONE', ( #211, #244, #263, #476 ) ) ;
#331 = DIRECTION ( 'NONE',  ( -0.000000000000000000, -1.000000000000000000, -0.000000000000000000 ) ) ;
#332 = ORIENTED_EDGE ( 'NONE', *, *, #447, .T. ) ;
#333 = AXIS2_PLACEMENT_3D ( 'NONE', #470, #95, #465 ) ;
#334 = SURFACE_SIDE_STYLE ('',( #457 ) ) ;
#335 = EDGE_LOOP ( 'NONE', ( #414, #185, #374, #89, #438, #102, #287, #348 ) ) ;
#336 = LINE ( 'NONE', #390, #36 ) ;
#337 = VERTEX_POINT ( 'NONE', #25 ) ;
#338 = ADVANCED_FACE ( 'NONE', ( #23 ), #340, .F. ) ;
#339 = VECTOR ( 'NONE', #58, 1000.000000000000000 ) ;
#340 = PLANE ( 'NONE',  #193 ) ;
#341 = VERTEX_POINT ( 'NONE', #215 ) ;
#342 = EDGE_CURVE ( 'NONE', #189, #289, #378, .T. ) ;
#343 = VECTOR ( 'NONE', #515, 1000.000000000000000 ) ;
#344 = CARTESIAN_POINT ( 'NONE',  ( -27.99999999999999645, 4.000000000000000888, 32.00000000000000000 ) ) ;
#345 = ORIENTED_EDGE ( 'NONE', *, *, #22, .F. ) ;
#346 = DIRECTION ( 'NONE',  ( -0.000000000000000000, -1.000000000000000000, -0.000000000000000000 ) ) ;
#347 = LINE ( 'NONE', #507, #432 ) ;
#348 = ORIENTED_EDGE ( 'NONE', *, *, #15, .F. ) ;
#349 = FACE_OUTER_BOUND ( 'NONE', #396, .T. ) ;
#350 = ORIENTED_EDGE ( 'NONE', *, *, #4, .T. ) ;
#351 = DIRECTION ( 'NONE',  ( 0.000000000000000000, 0.000000000000000000, 1.000000000000000000 ) ) ;
#352 = EDGE_CURVE ( 'NONE', #448, #82, #425, .T. ) ;
#353 = CLOSED_SHELL ( 'NONE', ( #395, #412, #143, #259, #206, #222, #505, #123, #311, #247, #451, #318, #338, #204, #74, #31 ) ) ;
#354 = EDGE_LOOP ( 'NONE', ( #117, #380, #424, #231 ) ) ;
#355 = CARTESIAN_POINT ( 'NONE',  ( -7.999999999999992895, 4.000000000000000888, 10.62218571881095386 ) ) ;
#356 = LINE ( 'NONE', #144, #343 ) ;
#357 = DIRECTION ( 'NONE',  ( -1.000000000000000000, -0.000000000000000000, -0.000000000000000000 ) ) ;
#358 = VECTOR ( 'NONE', #100, 1000.000000000000000 ) ;
#359 = EDGE_CURVE ( 'NONE', #495, #271, #417, .T. ) ;
#360 = DIRECTION ( 'NONE',  ( 1.000000000000000000, 0.000000000000000000, 0.000000000000000000 ) ) ;
#361 = PLANE ( 'NONE',  #379 ) ;
#362 = PRODUCT_DEFINITION_FORMATION_WITH_SPECIFIED_SOURCE ( 'ANY', '', #261, .NOT_KNOWN. ) ;
#363 = VECTOR ( 'NONE', #202, 1000.000000000000000 ) ;
#364 = DIRECTION ( 'NONE',  ( -0.000000000000000000, -1.000000000000000000, -0.000000000000000000 ) ) ;
#365 = CARTESIAN_POINT ( 'NONE',  ( 8.000000000000001776, -3.999999999999999112, 10.62218571881095386 ) ) ;
#366 = CARTESIAN_POINT ( 'NONE',  ( 28.00000000000000355, 4.000000000000000888, 0.000000000000000000 ) ) ;
#367 = VERTEX_POINT ( 'NONE', #430 ) ;
#368 = CARTESIAN_POINT ( 'NONE',  ( 0.000000000000000000, 0.000000000000000000, 0.000000000000000000 ) ) ;
#369 = ORIENTED_EDGE ( 'NONE', *, *, #381, .T. ) ;
#370 = EDGE_CURVE ( 'NONE', #42, #448, #61, .T. ) ;
#371 = DIRECTION ( 'NONE',  ( 1.000000000000000000, 0.000000000000000000, -0.000000000000000000 ) ) ;
#372 = ORIENTED_EDGE ( 'NONE', *, *, #302, .F. ) ;
#373 = LINE ( 'NONE', #248, #429 ) ;
#374 = ORIENTED_EDGE ( 'NONE', *, *, #492, .T. ) ;
#375 = LINE ( 'NONE', #208, #79 ) ;
#376 = ORIENTED_EDGE ( 'NONE', *, *, #232, .T. ) ;
#377 = VECTOR ( 'NONE', #168, 1000.000000000000000 ) ;
#378 = LINE ( 'NONE', #137, #84 ) ;
#379 = AXIS2_PLACEMENT_3D ( 'NONE', #240, #194, #518 ) ;
#380 = ORIENTED_EDGE ( 'NONE', *, *, #300, .F. ) ;
#381 = EDGE_CURVE ( 'NONE', #57, #291, #473, .T. ) ;
#382 = PLANE ( 'NONE',  #41 ) ;
#383 = VERTEX_POINT ( 'NONE', #255 ) ;
#384 = VECTOR ( 'NONE', #16, 1000.000000000000000 ) ;
#385 = DIRECTION ( 'NONE',  ( 0.000000000000000000, 0.000000000000000000, 1.000000000000000000 ) ) ;
#386 = PLANE ( 'NONE',  #103 ) ;
#387 = DIRECTION ( 'NONE',  ( 0.000000000000000000, -0.000000000000000000, -1.000000000000000000 ) ) ;
#388 = ORIENTED_EDGE ( 'NONE', *, *, #487, .F. ) ;
#389 = EDGE_LOOP ( 'NONE', ( #130, #85, #411, #298, #497, #427 ) ) ;
#390 = CARTESIAN_POINT ( 'NONE',  ( -27.99999999999999645, 16.00000000000000000, 8.000000000000000000 ) ) ;
#391 = LINE ( 'NONE', #221, #421 ) ;
#392 = APPLICATION_CONTEXT ( 'automotive_design' ) ;
#393 = SHAPE_DEFINITION_REPRESENTATION ( #178, #508 ) ;
#394 = ORIENTED_EDGE ( 'NONE', *, *, #232, .F. ) ;
#395 = ADVANCED_FACE ( 'NONE', ( #501, #49 ), #382, .F. ) ;
#396 = EDGE_LOOP ( 'NONE', ( #332, #227, #433, #134 ) ) ;
#397 = AXIS2_PLACEMENT_3D ( 'NONE', #478, #437, #68 ) ;
#398 = CARTESIAN_POINT ( 'NONE',  ( -27.99999999999999645, 4.000000000000000888, 0.000000000000000000 ) ) ;
#399 = PRODUCT_DEFINITION ( 'UNKNOWN', '', #362, #462 ) ;
#400 = EDGE_CURVE ( 'NONE', #269, #337, #53, .T. ) ;
#401 = LINE ( 'NONE', #28, #162 ) ;
#402 = CARTESIAN_POINT ( 'NONE',  ( -27.99999999999999645, -3.999999999999999112, 0.000000000000000000 ) ) ;
#403 = CARTESIAN_POINT ( 'NONE',  ( -27.99999999999999645, 16.00000000000000000, 8.000000000000000000 ) ) ;
#404 = CARTESIAN_POINT ( 'NONE',  ( -11.99999999999999467, 16.00000000000000000, 7.999999999999998224 ) ) ;
#405 = LINE ( 'NONE', #146, #51 ) ;
#406 = VECTOR ( 'NONE', #75, 1000.000000000000000 ) ;
#407 = CARTESIAN_POINT ( 'NONE',  ( 28.00000000000000355, 16.00000000000000000, 32.00000000000000000 ) ) ;
#408 = ORIENTED_EDGE ( 'NONE', *, *, #500, .T. ) ;
#409 = EDGE_CURVE ( 'NONE', #127, #367, #468, .T. ) ;
#410 = DIRECTION ( 'NONE',  ( 0.000000000000000000, 0.000000000000000000, 1.000000000000000000 ) ) ;
#411 = ORIENTED_EDGE ( 'NONE', *, *, #370, .F. ) ;
#412 = ADVANCED_FACE ( 'NONE', ( #423 ), #297, .F. ) ;
#413 = DIRECTION ( 'NONE',  ( 1.000000000000000000, -0.000000000000000000, -0.000000000000000000 ) ) ;
#414 = ORIENTED_EDGE ( 'NONE', *, *, #167, .F. ) ;
#415 = PLANE ( 'NONE',  #456 ) ;
#416 = ORIENTED_EDGE ( 'NONE', *, *, #50, .T. ) ;
#417 = LINE ( 'NONE', #305, #339 ) ;
#418 = ORIENTED_EDGE ( 'NONE', *, *, #370, .T. ) ;
#419 = VECTOR ( 'NONE', #309, 1000.000000000000000 ) ;
#420 = DIRECTION ( 'NONE',  ( 0.000000000000000000, -1.000000000000000000, 0.000000000000000000 ) ) ;
#421 = VECTOR ( 'NONE', #177, 1000.000000000000000 ) ;
#422 = CARTESIAN_POINT ( 'NONE',  ( -7.999999999999994671, -3.999999999999999112, 22.62218571881095386 ) ) ;
#423 = FACE_OUTER_BOUND ( 'NONE', #389, .T. ) ;
#424 = ORIENTED_EDGE ( 'NONE', *, *, #106, .F. ) ;
#425 = LINE ( 'NONE', #498, #358 ) ;
#426 = LINE ( 'NONE', #59, #128 ) ;
#427 = ORIENTED_EDGE ( 'NONE', *, *, #19, .T. ) ;
#428 =( GEOMETRIC_REPRESENTATION_CONTEXT ( 3 ) GLOBAL_UNCERTAINTY_ASSIGNED_CONTEXT ( ( #281 ) ) GLOBAL_UNIT_ASSIGNED_CONTEXT ( ( #27, #235, #278 ) ) REPRESENTATION_CONTEXT ( 'NONE', 'WORKASPACE' ) );
#429 = VECTOR ( 'NONE', #43, 1000.000000000000000 ) ;
#430 = CARTESIAN_POINT ( 'NONE',  ( -7.999999999999994671, -3.999999999999999112, 10.62218571881095386 ) ) ;
#431 = ORIENTED_EDGE ( 'NONE', *, *, #409, .T. ) ;
#432 = VECTOR ( 'NONE', #216, 1000.000000000000000 ) ;
#433 = ORIENTED_EDGE ( 'NONE', *, *, #264, .T. ) ;
#434 = LINE ( 'NONE', #239, #153 ) ;
#435 = CARTESIAN_POINT ( 'NONE',  ( 28.00000000000000355, 16.00000000000000000, 24.00000000000000000 ) ) ;
#436 = ORIENTED_EDGE ( 'NONE', *, *, #302, .T. ) ;
#437 = DIRECTION ( 'NONE',  ( 0.000000000000000000, 0.000000000000000000, -1.000000000000000000 ) ) ;
#438 = ORIENTED_EDGE ( 'NONE', *, *, #284, .F. ) ;
#439 = EDGE_CURVE ( 'NONE', #57, #460, #179, .T. ) ;
#440 = FACE_OUTER_BOUND ( 'NONE', #29, .T. ) ;
#441 = LINE ( 'NONE', #152, #257 ) ;
#442 = PLANE ( 'NONE',  #479 ) ;
#443 = CARTESIAN_POINT ( 'NONE',  ( -7.999999999999994671, 4.000000000000000888, 22.62218571881095386 ) ) ;
#444 = COLOUR_RGB ( '',0.7921568627450980005, 0.8196078431372548767, 0.9333333333333333481 ) ;
#445 = CARTESIAN_POINT ( 'NONE',  ( 8.000000000000001776, 4.000000000000000888, 10.62218571881095386 ) ) ;
#446 = VECTOR ( 'NONE', #138, 1000.000000000000000 ) ;
#447 = EDGE_CURVE ( 'NONE', #289, #42, #97, .T. ) ;
#448 = VERTEX_POINT ( 'NONE', #67 ) ;
#449 = CARTESIAN_POINT ( 'NONE',  ( 12.00000000000000355, 16.00000000000000000, 24.00000000000000000 ) ) ;
#450 = ORIENTED_EDGE ( 'NONE', *, *, #22, .T. ) ;
#451 = ADVANCED_FACE ( 'NONE', ( #191 ), #442, .F. ) ;
#452 = VECTOR ( 'NONE', #262, 1000.000000000000000 ) ;
#453 = EDGE_CURVE ( 'NONE', #383, #267, #157, .T. ) ;
#454 = CARTESIAN_POINT ( 'NONE',  ( -27.99999999999999645, -3.999999999999999112, 32.00000000000000000 ) ) ;
#455 = ORIENTED_EDGE ( 'NONE', *, *, #466, .T. ) ;
#456 = AXIS2_PLACEMENT_3D ( 'NONE', #454, #10, #170 ) ;
#457 = SURFACE_STYLE_FILL_AREA ( #205 ) ;
#458 = ORIENTED_EDGE ( 'NONE', *, *, #201, .T. ) ;
#459 = LINE ( 'NONE', #251, #126 ) ;
#460 = VERTEX_POINT ( 'NONE', #402 ) ;
#461 = CARTESIAN_POINT ( 'NONE',  ( 28.00000000000000355, -3.999999999999999112, 32.00000000000000000 ) ) ;
#462 = PRODUCT_DEFINITION_CONTEXT ( 'detailed design', #392, 'design' ) ;
#463 = ORIENTED_EDGE ( 'NONE', *, *, #277, .F. ) ;
#464 = VECTOR ( 'NONE', #8, 1000.000000000000000 ) ;
#465 = DIRECTION ( 'NONE',  ( 0.000000000000000000, -0.000000000000000000, -1.000000000000000000 ) ) ;
#466 = EDGE_CURVE ( 'NONE', #495, #57, #111, .T. ) ;
#467 = ORIENTED_EDGE ( 'NONE', *, *, #217, .F. ) ;
#468 = LINE ( 'NONE', #131, #452 ) ;
#469 = DIRECTION ( 'NONE',  ( -0.000000000000000000, -0.000000000000000000, -1.000000000000000000 ) ) ;
#470 = CARTESIAN_POINT ( 'NONE',  ( 0.000000000000000000, 16.00000000000000000, 0.000000000000000000 ) ) ;
#471 = LINE ( 'NONE', #403, #406 ) ;
#472 = ORIENTED_EDGE ( 'NONE', *, *, #217, .T. ) ;
#473 = LINE ( 'NONE', #91, #266 ) ;
#474 = CARTESIAN_POINT ( 'NONE',  ( 8.000000000000003553, 4.000000000000000888, 22.62218571881095386 ) ) ;
#475 = VECTOR ( 'NONE', #357, 1000.000000000000000 ) ;
#476 = ORIENTED_EDGE ( 'NONE', *, *, #164, .T. ) ;
#477 = CARTESIAN_POINT ( 'NONE',  ( -27.99999999999999645, 4.000000000000000888, 32.00000000000000000 ) ) ;
#478 = CARTESIAN_POINT ( 'NONE',  ( 0.000000000000000000, 0.000000000000000000, 32.00000000000000000 ) ) ;
#479 = AXIS2_PLACEMENT_3D ( 'NONE', #483, #155, #35 ) ;
#480 = LINE ( 'NONE', #276, #464 ) ;
#481 = AXIS2_PLACEMENT_3D ( 'NONE', #321, #187, #233 ) ;
#482 = PLANE ( 'NONE',  #326 ) ;
#483 = CARTESIAN_POINT ( 'NONE',  ( 12.00000000000000355, 16.00000000000000000, 32.00000000000000000 ) ) ;
#484 = UNCERTAINTY_MEASURE_WITH_UNIT (LENGTH_MEASURE( 1.000000000000000082E-05 ), #3, 'distance_accuracy_value', 'NONE');
#485 = CARTESIAN_POINT ( 'NONE',  ( 12.00000000000000355, 4.000000000000000888, 32.00000000000000000 ) ) ;
#486 = DIRECTION ( 'NONE',  ( -0.000000000000000000, 1.000000000000000000, -0.000000000000000000 ) ) ;
#487 = EDGE_CURVE ( 'NONE', #127, #252, #280, .T. ) ;
#488 = PLANE ( 'NONE',  #70 ) ;
#489 = ORIENTED_EDGE ( 'NONE', *, *, #161, .T. ) ;
#490 = CARTESIAN_POINT ( 'NONE',  ( 12.00000000000000355, 16.00000000000000000, 24.00000000000000000 ) ) ;
#491 = ORIENTED_EDGE ( 'NONE', *, *, #342, .F. ) ;
#492 = EDGE_CURVE ( 'NONE', #448, #267, #356, .T. ) ;
#493 = CARTESIAN_POINT ( 'NONE',  ( 12.00000000000000355, 16.00000000000000000, 24.00000000000000000 ) ) ;
#494 = ORIENTED_EDGE ( 'NONE', *, *, #69, .T. ) ;
#495 = VERTEX_POINT ( 'NONE', #477 ) ;
#496 = PRESENTATION_STYLE_ASSIGNMENT (( #47 ) ) ;
#497 = ORIENTED_EDGE ( 'NONE', *, *, #124, .F. ) ;
#498 = CARTESIAN_POINT ( 'NONE',  ( 12.00000000000000355, 4.000000000000000888, 24.00000000000000000 ) ) ;
#499 = ORIENTED_EDGE ( 'NONE', *, *, #439, .T. ) ;
#500 = EDGE_CURVE ( 'NONE', #308, #48, #434, .T. ) ;
#501 = FACE_BOUND ( 'NONE', #354, .T. ) ;
#502 = CARTESIAN_POINT ( 'NONE',  ( 28.00000000000000355, -3.999999999999999112, 32.00000000000000000 ) ) ;
#503 = CARTESIAN_POINT ( 'NONE',  ( -27.99999999999999645, -3.999999999999999112, 32.00000000000000000 ) ) ;
#504 = ORIENTED_EDGE ( 'NONE', *, *, #316, .F. ) ;
#505 = ADVANCED_FACE ( 'NONE', ( #196 ), #71, .F. ) ;
#506 = CARTESIAN_POINT ( 'NONE',  ( -11.99999999999999467, 4.000000000000000888, 7.999999999999998224 ) ) ;
#507 = CARTESIAN_POINT ( 'NONE',  ( -11.99999999999999467, 16.00000000000000000, 7.999999999999998224 ) ) ;
#508 = ADVANCED_BREP_SHAPE_REPRESENTATION ( 'U-Shaped Bracket with Central Square Cutout', ( #254, #250 ), #428 ) ;
#509 = CARTESIAN_POINT ( 'NONE',  ( -7.999999999999994671, -3.999999999999999112, 10.62218571881095386 ) ) ;
#510 = EDGE_LOOP ( 'NONE', ( #163, #494, #416, #46 ) ) ;
#511 = ORIENTED_EDGE ( 'NONE', *, *, #466, .F. ) ;
#512 = CARTESIAN_POINT ( 'NONE',  ( 28.00000000000000355, -3.999999999999999112, 32.00000000000000000 ) ) ;
#513 = VECTOR ( 'NONE', #65, 1000.000000000000000 ) ;
#514 = PLANE ( 'NONE',  #93 ) ;
#515 = DIRECTION ( 'NONE',  ( -0.000000000000000000, -0.000000000000000000, -1.000000000000000000 ) ) ;
#516 = CARTESIAN_POINT ( 'NONE',  ( -27.99999999999999645, -3.999999999999999112, 0.000000000000000000 ) ) ;
#517 = APPLICATION_PROTOCOL_DEFINITION ( 'draft international standard', 'automotive_design', 1998, #521 ) ;
#518 = DIRECTION ( 'NONE',  ( 2.168404344971009361E-16, 0.000000000000000000, 1.000000000000000000 ) ) ;
#519 = LINE ( 'NONE', #485, #419 ) ;
#520 = VERTEX_POINT ( 'NONE', #404 ) ;
#521 = APPLICATION_CONTEXT ( 'automotive_design' ) ;
ENDSEC;
END-ISO-10303-21;
