ISO-10303-21;
HEADER;
/* Generated by software containing ST-Developer
 * from STEP Tools, Inc. (www.steptools.com) 
 */

FILE_DESCRIPTION(
/* description */ (''),
/* implementation_level */ '2;1');

FILE_NAME(
/* name */ 'Rear Pan Support Rod End Attachment Bracket.step',
/* time_stamp */ '2026-02-20T16:16:29+08:00',
/* author */ (''),
/* organization */ (''),
/* preprocessor_version */ 'ST-DEVELOPER v20.1',
/* originating_system */ 'Autodesk Translation Framework v14.24.0.0',
/* authorisation */ '');

FILE_SCHEMA (('AUTOMOTIVE_DESIGN { 1 0 10303 214 3 1 1 }'));
ENDSEC;

DATA;
#10=MECHANICAL_DESIGN_GEOMETRIC_PRESENTATION_REPRESENTATION('',(#13),#538);
#11=SHAPE_REPRESENTATION_RELATIONSHIP('SRR','None',#548,#12);
#12=ADVANCED_BREP_SHAPE_REPRESENTATION('',(#14),#537);
#13=STYLED_ITEM('',(#557),#14);
#14=MANIFOLD_SOLID_BREP('Body1',#310);
#15=ELLIPSE('',#334,0.141221422086667,0.125);
#16=ELLIPSE('',#335,0.141221422086667,0.125);
#17=FACE_BOUND('',#51,.T.);
#18=FACE_BOUND('',#52,.T.);
#19=FACE_BOUND('',#56,.T.);
#20=FACE_BOUND('',#57,.T.);
#21=FACE_BOUND('',#69,.T.);
#22=FACE_BOUND('',#71,.T.);
#23=PLANE('',#327);
#24=PLANE('',#332);
#25=PLANE('',#336);
#26=PLANE('',#345);
#27=PLANE('',#346);
#28=PLANE('',#350);
#29=PLANE('',#351);
#30=PLANE('',#355);
#31=PLANE('',#356);
#32=FACE_OUTER_BOUND('',#49,.T.);
#33=FACE_OUTER_BOUND('',#50,.T.);
#34=FACE_OUTER_BOUND('',#53,.T.);
#35=FACE_OUTER_BOUND('',#54,.T.);
#36=FACE_OUTER_BOUND('',#55,.T.);
#37=FACE_OUTER_BOUND('',#58,.T.);
#38=FACE_OUTER_BOUND('',#59,.T.);
#39=FACE_OUTER_BOUND('',#60,.T.);
#40=FACE_OUTER_BOUND('',#61,.T.);
#41=FACE_OUTER_BOUND('',#62,.T.);
#42=FACE_OUTER_BOUND('',#63,.T.);
#43=FACE_OUTER_BOUND('',#64,.T.);
#44=FACE_OUTER_BOUND('',#65,.T.);
#45=FACE_OUTER_BOUND('',#66,.T.);
#46=FACE_OUTER_BOUND('',#67,.T.);
#47=FACE_OUTER_BOUND('',#68,.T.);
#48=FACE_OUTER_BOUND('',#70,.T.);
#49=EDGE_LOOP('',(#203,#204,#205,#206));
#50=EDGE_LOOP('',(#207,#208,#209,#210,#211,#212));
#51=EDGE_LOOP('',(#213));
#52=EDGE_LOOP('',(#214));
#53=EDGE_LOOP('',(#215,#216,#217,#218,#219));
#54=EDGE_LOOP('',(#220,#221,#222,#223));
#55=EDGE_LOOP('',(#224,#225,#226,#227,#228,#229));
#56=EDGE_LOOP('',(#230));
#57=EDGE_LOOP('',(#231));
#58=EDGE_LOOP('',(#232,#233,#234,#235));
#59=EDGE_LOOP('',(#236,#237,#238,#239));
#60=EDGE_LOOP('',(#240,#241,#242,#243));
#61=EDGE_LOOP('',(#244,#245,#246,#247));
#62=EDGE_LOOP('',(#248,#249,#250,#251,#252));
#63=EDGE_LOOP('',(#253,#254,#255,#256));
#64=EDGE_LOOP('',(#257,#258,#259,#260));
#65=EDGE_LOOP('',(#261,#262,#263,#264,#265));
#66=EDGE_LOOP('',(#266,#267,#268,#269,#270));
#67=EDGE_LOOP('',(#271,#272,#273,#274));
#68=EDGE_LOOP('',(#275,#276,#277,#278));
#69=EDGE_LOOP('',(#279));
#70=EDGE_LOOP('',(#280,#281,#282,#283));
#71=EDGE_LOOP('',(#284));
#72=LINE('',#456,#97);
#73=LINE('',#459,#98);
#74=LINE('',#462,#99);
#75=LINE('',#466,#100);
#76=LINE('',#469,#101);
#77=LINE('',#476,#102);
#78=LINE('',#478,#103);
#79=LINE('',#479,#104);
#80=LINE('',#484,#105);
#81=LINE('',#487,#106);
#82=LINE('',#490,#107);
#83=LINE('',#494,#108);
#84=LINE('',#501,#109);
#85=LINE('',#502,#110);
#86=LINE('',#504,#111);
#87=LINE('',#506,#112);
#88=LINE('',#508,#113);
#89=LINE('',#510,#114);
#90=LINE('',#517,#115);
#91=LINE('',#520,#116);
#92=LINE('',#522,#117);
#93=LINE('',#523,#118);
#94=LINE('',#525,#119);
#95=LINE('',#526,#120);
#96=LINE('',#531,#121);
#97=VECTOR('',#363,0.393700787401575);
#98=VECTOR('',#366,0.393700787401575);
#99=VECTOR('',#369,0.393700787401575);
#100=VECTOR('',#372,0.393700787401575);
#101=VECTOR('',#375,0.393700787401575);
#102=VECTOR('',#382,0.393700787401575);
#103=VECTOR('',#383,0.393700787401575);
#104=VECTOR('',#384,0.393700787401575);
#105=VECTOR('',#389,0.393700787401575);
#106=VECTOR('',#392,0.393700787401575);
#107=VECTOR('',#395,0.393700787401575);
#108=VECTOR('',#398,0.393700787401575);
#109=VECTOR('',#407,0.393700787401575);
#110=VECTOR('',#408,0.393700787401575);
#111=VECTOR('',#411,0.393700787401575);
#112=VECTOR('',#414,0.28125);
#113=VECTOR('',#417,0.28125);
#114=VECTOR('',#420,0.393700787401575);
#115=VECTOR('',#427,0.393700787401575);
#116=VECTOR('',#430,0.393700787401575);
#117=VECTOR('',#433,0.393700787401575);
#118=VECTOR('',#434,0.393700787401575);
#119=VECTOR('',#437,0.393700787401575);
#120=VECTOR('',#438,0.393700787401575);
#121=VECTOR('',#443,0.1875);
#122=CIRCLE('',#325,0.125);
#123=CIRCLE('',#326,0.125);
#124=CIRCLE('',#328,0.5);
#125=CIRCLE('',#329,0.5);
#126=CIRCLE('',#330,0.28125);
#127=CIRCLE('',#331,0.28125);
#128=CIRCLE('',#337,0.5);
#129=CIRCLE('',#338,0.5);
#130=CIRCLE('',#339,0.28125);
#131=CIRCLE('',#340,0.28125);
#132=CIRCLE('',#348,0.4375);
#133=CIRCLE('',#349,0.4375);
#134=CIRCLE('',#353,0.1875);
#135=CIRCLE('',#354,0.1875);
#136=VERTEX_POINT('',#452);
#137=VERTEX_POINT('',#453);
#138=VERTEX_POINT('',#455);
#139=VERTEX_POINT('',#457);
#140=VERTEX_POINT('',#461);
#141=VERTEX_POINT('',#463);
#142=VERTEX_POINT('',#465);
#143=VERTEX_POINT('',#467);
#144=VERTEX_POINT('',#470);
#145=VERTEX_POINT('',#472);
#146=VERTEX_POINT('',#475);
#147=VERTEX_POINT('',#477);
#148=VERTEX_POINT('',#481);
#149=VERTEX_POINT('',#483);
#150=VERTEX_POINT('',#485);
#151=VERTEX_POINT('',#489);
#152=VERTEX_POINT('',#491);
#153=VERTEX_POINT('',#493);
#154=VERTEX_POINT('',#496);
#155=VERTEX_POINT('',#498);
#156=VERTEX_POINT('',#513);
#157=VERTEX_POINT('',#514);
#158=VERTEX_POINT('',#516);
#159=VERTEX_POINT('',#518);
#160=VERTEX_POINT('',#528);
#161=VERTEX_POINT('',#530);
#162=EDGE_CURVE('',#136,#137,#122,.T.);
#163=EDGE_CURVE('',#137,#138,#72,.T.);
#164=EDGE_CURVE('',#138,#139,#123,.T.);
#165=EDGE_CURVE('',#139,#136,#73,.T.);
#166=EDGE_CURVE('',#140,#137,#74,.T.);
#167=EDGE_CURVE('',#140,#141,#124,.T.);
#168=EDGE_CURVE('',#142,#141,#75,.T.);
#169=EDGE_CURVE('',#142,#143,#125,.T.);
#170=EDGE_CURVE('',#143,#138,#76,.T.);
#171=EDGE_CURVE('',#144,#144,#126,.T.);
#172=EDGE_CURVE('',#145,#145,#127,.T.);
#173=EDGE_CURVE('',#136,#146,#77,.T.);
#174=EDGE_CURVE('',#146,#147,#78,.T.);
#175=EDGE_CURVE('',#140,#147,#79,.T.);
#176=EDGE_CURVE('',#146,#148,#15,.T.);
#177=EDGE_CURVE('',#148,#149,#80,.T.);
#178=EDGE_CURVE('',#150,#149,#16,.F.);
#179=EDGE_CURVE('',#150,#146,#81,.T.);
#180=EDGE_CURVE('',#150,#151,#82,.T.);
#181=EDGE_CURVE('',#151,#152,#128,.T.);
#182=EDGE_CURVE('',#152,#153,#83,.T.);
#183=EDGE_CURVE('',#153,#147,#129,.T.);
#184=EDGE_CURVE('',#154,#154,#130,.T.);
#185=EDGE_CURVE('',#155,#155,#131,.T.);
#186=EDGE_CURVE('',#142,#152,#84,.T.);
#187=EDGE_CURVE('',#143,#151,#85,.T.);
#188=EDGE_CURVE('',#141,#153,#86,.T.);
#189=EDGE_CURVE('',#155,#145,#87,.T.);
#190=EDGE_CURVE('',#154,#144,#88,.T.);
#191=EDGE_CURVE('',#139,#150,#89,.T.);
#192=EDGE_CURVE('',#156,#157,#132,.T.);
#193=EDGE_CURVE('',#158,#156,#90,.T.);
#194=EDGE_CURVE('',#159,#158,#133,.T.);
#195=EDGE_CURVE('',#159,#157,#91,.T.);
#196=EDGE_CURVE('',#157,#136,#92,.T.);
#197=EDGE_CURVE('',#148,#159,#93,.T.);
#198=EDGE_CURVE('',#139,#156,#94,.T.);
#199=EDGE_CURVE('',#158,#149,#95,.T.);
#200=EDGE_CURVE('',#160,#160,#134,.T.);
#201=EDGE_CURVE('',#160,#161,#96,.T.);
#202=EDGE_CURVE('',#161,#161,#135,.T.);
#203=ORIENTED_EDGE('',*,*,#162,.T.);
#204=ORIENTED_EDGE('',*,*,#163,.T.);
#205=ORIENTED_EDGE('',*,*,#164,.T.);
#206=ORIENTED_EDGE('',*,*,#165,.T.);
#207=ORIENTED_EDGE('',*,*,#163,.F.);
#208=ORIENTED_EDGE('',*,*,#166,.F.);
#209=ORIENTED_EDGE('',*,*,#167,.T.);
#210=ORIENTED_EDGE('',*,*,#168,.F.);
#211=ORIENTED_EDGE('',*,*,#169,.T.);
#212=ORIENTED_EDGE('',*,*,#170,.T.);
#213=ORIENTED_EDGE('',*,*,#171,.T.);
#214=ORIENTED_EDGE('',*,*,#172,.T.);
#215=ORIENTED_EDGE('',*,*,#162,.F.);
#216=ORIENTED_EDGE('',*,*,#173,.T.);
#217=ORIENTED_EDGE('',*,*,#174,.T.);
#218=ORIENTED_EDGE('',*,*,#175,.F.);
#219=ORIENTED_EDGE('',*,*,#166,.T.);
#220=ORIENTED_EDGE('',*,*,#176,.T.);
#221=ORIENTED_EDGE('',*,*,#177,.T.);
#222=ORIENTED_EDGE('',*,*,#178,.F.);
#223=ORIENTED_EDGE('',*,*,#179,.T.);
#224=ORIENTED_EDGE('',*,*,#179,.F.);
#225=ORIENTED_EDGE('',*,*,#180,.T.);
#226=ORIENTED_EDGE('',*,*,#181,.T.);
#227=ORIENTED_EDGE('',*,*,#182,.T.);
#228=ORIENTED_EDGE('',*,*,#183,.T.);
#229=ORIENTED_EDGE('',*,*,#174,.F.);
#230=ORIENTED_EDGE('',*,*,#184,.T.);
#231=ORIENTED_EDGE('',*,*,#185,.T.);
#232=ORIENTED_EDGE('',*,*,#169,.F.);
#233=ORIENTED_EDGE('',*,*,#186,.T.);
#234=ORIENTED_EDGE('',*,*,#181,.F.);
#235=ORIENTED_EDGE('',*,*,#187,.F.);
#236=ORIENTED_EDGE('',*,*,#167,.F.);
#237=ORIENTED_EDGE('',*,*,#175,.T.);
#238=ORIENTED_EDGE('',*,*,#183,.F.);
#239=ORIENTED_EDGE('',*,*,#188,.F.);
#240=ORIENTED_EDGE('',*,*,#185,.F.);
#241=ORIENTED_EDGE('',*,*,#189,.T.);
#242=ORIENTED_EDGE('',*,*,#172,.F.);
#243=ORIENTED_EDGE('',*,*,#189,.F.);
#244=ORIENTED_EDGE('',*,*,#184,.F.);
#245=ORIENTED_EDGE('',*,*,#190,.T.);
#246=ORIENTED_EDGE('',*,*,#171,.F.);
#247=ORIENTED_EDGE('',*,*,#190,.F.);
#248=ORIENTED_EDGE('',*,*,#164,.F.);
#249=ORIENTED_EDGE('',*,*,#170,.F.);
#250=ORIENTED_EDGE('',*,*,#187,.T.);
#251=ORIENTED_EDGE('',*,*,#180,.F.);
#252=ORIENTED_EDGE('',*,*,#191,.F.);
#253=ORIENTED_EDGE('',*,*,#186,.F.);
#254=ORIENTED_EDGE('',*,*,#168,.T.);
#255=ORIENTED_EDGE('',*,*,#188,.T.);
#256=ORIENTED_EDGE('',*,*,#182,.F.);
#257=ORIENTED_EDGE('',*,*,#192,.F.);
#258=ORIENTED_EDGE('',*,*,#193,.F.);
#259=ORIENTED_EDGE('',*,*,#194,.F.);
#260=ORIENTED_EDGE('',*,*,#195,.T.);
#261=ORIENTED_EDGE('',*,*,#196,.F.);
#262=ORIENTED_EDGE('',*,*,#195,.F.);
#263=ORIENTED_EDGE('',*,*,#197,.F.);
#264=ORIENTED_EDGE('',*,*,#176,.F.);
#265=ORIENTED_EDGE('',*,*,#173,.F.);
#266=ORIENTED_EDGE('',*,*,#198,.F.);
#267=ORIENTED_EDGE('',*,*,#191,.T.);
#268=ORIENTED_EDGE('',*,*,#178,.T.);
#269=ORIENTED_EDGE('',*,*,#199,.F.);
#270=ORIENTED_EDGE('',*,*,#193,.T.);
#271=ORIENTED_EDGE('',*,*,#200,.F.);
#272=ORIENTED_EDGE('',*,*,#201,.T.);
#273=ORIENTED_EDGE('',*,*,#202,.F.);
#274=ORIENTED_EDGE('',*,*,#201,.F.);
#275=ORIENTED_EDGE('',*,*,#165,.F.);
#276=ORIENTED_EDGE('',*,*,#198,.T.);
#277=ORIENTED_EDGE('',*,*,#192,.T.);
#278=ORIENTED_EDGE('',*,*,#196,.T.);
#279=ORIENTED_EDGE('',*,*,#202,.T.);
#280=ORIENTED_EDGE('',*,*,#177,.F.);
#281=ORIENTED_EDGE('',*,*,#197,.T.);
#282=ORIENTED_EDGE('',*,*,#194,.T.);
#283=ORIENTED_EDGE('',*,*,#199,.T.);
#284=ORIENTED_EDGE('',*,*,#200,.T.);
#285=CYLINDRICAL_SURFACE('',#324,0.125);
#286=CYLINDRICAL_SURFACE('',#333,0.125);
#287=CYLINDRICAL_SURFACE('',#341,0.5);
#288=CYLINDRICAL_SURFACE('',#342,0.5);
#289=CYLINDRICAL_SURFACE('',#343,0.28125);
#290=CYLINDRICAL_SURFACE('',#344,0.28125);
#291=CYLINDRICAL_SURFACE('',#347,0.4375);
#292=CYLINDRICAL_SURFACE('',#352,0.1875);
#293=ADVANCED_FACE('',(#32),#285,.T.);
#294=ADVANCED_FACE('',(#33,#17,#18),#23,.T.);
#295=ADVANCED_FACE('',(#34),#24,.T.);
#296=ADVANCED_FACE('',(#35),#286,.F.);
#297=ADVANCED_FACE('',(#36,#19,#20),#25,.T.);
#298=ADVANCED_FACE('',(#37),#287,.T.);
#299=ADVANCED_FACE('',(#38),#288,.T.);
#300=ADVANCED_FACE('',(#39),#289,.F.);
#301=ADVANCED_FACE('',(#40),#290,.F.);
#302=ADVANCED_FACE('',(#41),#26,.F.);
#303=ADVANCED_FACE('',(#42),#27,.T.);
#304=ADVANCED_FACE('',(#43),#291,.T.);
#305=ADVANCED_FACE('',(#44),#28,.F.);
#306=ADVANCED_FACE('',(#45),#29,.F.);
#307=ADVANCED_FACE('',(#46),#292,.F.);
#308=ADVANCED_FACE('',(#47,#21),#30,.T.);
#309=ADVANCED_FACE('',(#48,#22),#31,.T.);
#310=CLOSED_SHELL('',(#293,#294,#295,#296,#297,#298,#299,#300,#301,#302,
#303,#304,#305,#306,#307,#308,#309));
#311=DERIVED_UNIT_ELEMENT(#313,1.);
#312=DERIVED_UNIT_ELEMENT(#542,-3.);
#313=(
MASS_UNIT()
NAMED_UNIT(*)
SI_UNIT(.KILO.,.GRAM.)
);
#314=DERIVED_UNIT((#311,#312));
#315=MEASURE_REPRESENTATION_ITEM('density measure',
POSITIVE_RATIO_MEASURE(7850.),#314);
#316=PROPERTY_DEFINITION_REPRESENTATION(#321,#318);
#317=PROPERTY_DEFINITION_REPRESENTATION(#322,#319);
#318=REPRESENTATION('material name',(#320),#537);
#319=REPRESENTATION('density',(#315),#537);
#320=DESCRIPTIVE_REPRESENTATION_ITEM('Steel','Steel');
#321=PROPERTY_DEFINITION('material property','material name',#550);
#322=PROPERTY_DEFINITION('material property','density of part',#550);
#323=AXIS2_PLACEMENT_3D('',#450,#357,#358);
#324=AXIS2_PLACEMENT_3D('',#451,#359,#360);
#325=AXIS2_PLACEMENT_3D('',#454,#361,#362);
#326=AXIS2_PLACEMENT_3D('',#458,#364,#365);
#327=AXIS2_PLACEMENT_3D('',#460,#367,#368);
#328=AXIS2_PLACEMENT_3D('',#464,#370,#371);
#329=AXIS2_PLACEMENT_3D('',#468,#373,#374);
#330=AXIS2_PLACEMENT_3D('',#471,#376,#377);
#331=AXIS2_PLACEMENT_3D('',#473,#378,#379);
#332=AXIS2_PLACEMENT_3D('',#474,#380,#381);
#333=AXIS2_PLACEMENT_3D('',#480,#385,#386);
#334=AXIS2_PLACEMENT_3D('',#482,#387,#388);
#335=AXIS2_PLACEMENT_3D('',#486,#390,#391);
#336=AXIS2_PLACEMENT_3D('',#488,#393,#394);
#337=AXIS2_PLACEMENT_3D('',#492,#396,#397);
#338=AXIS2_PLACEMENT_3D('',#495,#399,#400);
#339=AXIS2_PLACEMENT_3D('',#497,#401,#402);
#340=AXIS2_PLACEMENT_3D('',#499,#403,#404);
#341=AXIS2_PLACEMENT_3D('',#500,#405,#406);
#342=AXIS2_PLACEMENT_3D('',#503,#409,#410);
#343=AXIS2_PLACEMENT_3D('',#505,#412,#413);
#344=AXIS2_PLACEMENT_3D('',#507,#415,#416);
#345=AXIS2_PLACEMENT_3D('',#509,#418,#419);
#346=AXIS2_PLACEMENT_3D('',#511,#421,#422);
#347=AXIS2_PLACEMENT_3D('',#512,#423,#424);
#348=AXIS2_PLACEMENT_3D('',#515,#425,#426);
#349=AXIS2_PLACEMENT_3D('',#519,#428,#429);
#350=AXIS2_PLACEMENT_3D('',#521,#431,#432);
#351=AXIS2_PLACEMENT_3D('',#524,#435,#436);
#352=AXIS2_PLACEMENT_3D('',#527,#439,#440);
#353=AXIS2_PLACEMENT_3D('',#529,#441,#442);
#354=AXIS2_PLACEMENT_3D('',#532,#444,#445);
#355=AXIS2_PLACEMENT_3D('',#533,#446,#447);
#356=AXIS2_PLACEMENT_3D('',#534,#448,#449);
#357=DIRECTION('axis',(0.,0.,1.));
#358=DIRECTION('refdir',(1.,0.,0.));
#359=DIRECTION('center_axis',(0.,1.,0.));
#360=DIRECTION('ref_axis',(-0.707106781186547,0.,-0.707106781186548));
#361=DIRECTION('center_axis',(0.,-1.,0.));
#362=DIRECTION('ref_axis',(-0.707106781186547,0.,-0.707106781186548));
#363=DIRECTION('',(0.,-1.,0.));
#364=DIRECTION('center_axis',(0.,1.,0.));
#365=DIRECTION('ref_axis',(-0.707106781186547,0.,-0.707106781186548));
#366=DIRECTION('',(0.,1.,0.));
#367=DIRECTION('center_axis',(1.10266841364032E-16,0.,-1.));
#368=DIRECTION('ref_axis',(-1.,0.,-1.10266841364032E-16));
#369=DIRECTION('',(-1.,0.,-1.10266841364032E-16));
#370=DIRECTION('center_axis',(1.10266841364032E-16,0.,-1.));
#371=DIRECTION('ref_axis',(-1.,0.,0.));
#372=DIRECTION('',(0.,1.,0.));
#373=DIRECTION('center_axis',(1.10266841364032E-16,0.,-1.));
#374=DIRECTION('ref_axis',(-1.,0.,0.));
#375=DIRECTION('',(-1.,0.,-1.10266841364032E-16));
#376=DIRECTION('center_axis',(-1.10266841364032E-16,0.,1.));
#377=DIRECTION('ref_axis',(-1.,0.,0.));
#378=DIRECTION('center_axis',(-1.10266841364032E-16,0.,1.));
#379=DIRECTION('ref_axis',(-1.,0.,0.));
#380=DIRECTION('center_axis',(0.,1.,0.));
#381=DIRECTION('ref_axis',(0.,0.,1.));
#382=DIRECTION('',(1.,0.,-7.77058984864502E-17));
#383=DIRECTION('',(1.,0.,-7.77058984864502E-17));
#384=DIRECTION('',(0.,0.,1.));
#385=DIRECTION('center_axis',(0.,1.,0.));
#386=DIRECTION('ref_axis',(-0.707106781186547,0.,-0.707106781186548));
#387=DIRECTION('center_axis',(0.,0.88513483402885,0.465334638285955));
#388=DIRECTION('ref_axis',(-2.3213316676455E-16,0.465334638285955,-0.88513483402885));
#389=DIRECTION('',(0.,-1.,0.));
#390=DIRECTION('center_axis',(0.,-0.88513483402885,0.465334638285955));
#391=DIRECTION('ref_axis',(-2.3213316676455E-16,-0.465334638285955,-0.88513483402885));
#392=DIRECTION('',(0.,1.,0.));
#393=DIRECTION('center_axis',(7.77058984864502E-17,0.,1.));
#394=DIRECTION('ref_axis',(1.,0.,-7.77058984864502E-17));
#395=DIRECTION('',(1.,0.,-7.77058984864502E-17));
#396=DIRECTION('center_axis',(7.77058984864502E-17,0.,1.));
#397=DIRECTION('ref_axis',(-1.,0.,0.));
#398=DIRECTION('',(0.,1.,0.));
#399=DIRECTION('center_axis',(7.77058984864502E-17,0.,1.));
#400=DIRECTION('ref_axis',(-1.,0.,0.));
#401=DIRECTION('center_axis',(-7.77058984864502E-17,0.,-1.));
#402=DIRECTION('ref_axis',(-1.,0.,0.));
#403=DIRECTION('center_axis',(-7.77058984864502E-17,0.,-1.));
#404=DIRECTION('ref_axis',(-1.,0.,0.));
#405=DIRECTION('center_axis',(0.,0.,-1.));
#406=DIRECTION('ref_axis',(-1.,0.,0.));
#407=DIRECTION('',(0.,0.,1.));
#408=DIRECTION('',(0.,0.,1.));
#409=DIRECTION('center_axis',(0.,0.,-1.));
#410=DIRECTION('ref_axis',(0.70710678491202,0.707106777461076,0.));
#411=DIRECTION('',(0.,0.,1.));
#412=DIRECTION('center_axis',(0.,0.,-1.));
#413=DIRECTION('ref_axis',(-1.,0.,0.));
#414=DIRECTION('',(0.,0.,-1.));
#415=DIRECTION('center_axis',(0.,0.,-1.));
#416=DIRECTION('ref_axis',(-1.,0.,0.));
#417=DIRECTION('',(0.,0.,-1.));
#418=DIRECTION('center_axis',(0.,1.,0.));
#419=DIRECTION('ref_axis',(1.,0.,0.));
#420=DIRECTION('',(1.,0.,-7.77058984864502E-17));
#421=DIRECTION('center_axis',(1.,0.,0.));
#422=DIRECTION('ref_axis',(0.,0.,-1.));
#423=DIRECTION('center_axis',(-1.,0.,0.));
#424=DIRECTION('ref_axis',(0.,1.,0.));
#425=DIRECTION('center_axis',(-1.,0.,0.));
#426=DIRECTION('ref_axis',(0.,1.,0.));
#427=DIRECTION('',(-1.,0.,0.));
#428=DIRECTION('center_axis',(1.,0.,1.28214732502643E-16));
#429=DIRECTION('ref_axis',(0.,1.,0.));
#430=DIRECTION('',(-1.,0.,0.));
#431=DIRECTION('center_axis',(0.,-0.88513483402885,-0.465334638285955));
#432=DIRECTION('ref_axis',(5.08805496149105E-49,-0.465334638285955,0.88513483402885));
#433=DIRECTION('',(0.,0.465334638285955,-0.88513483402885));
#434=DIRECTION('',(-1.1348732597378E-16,-0.465334638285955,0.88513483402885));
#435=DIRECTION('center_axis',(0.,0.88513483402885,-0.465334638285955));
#436=DIRECTION('ref_axis',(0.,-0.465334638285955,-0.88513483402885));
#437=DIRECTION('',(0.,0.465334638285955,0.88513483402885));
#438=DIRECTION('',(1.1348732597378E-16,-0.465334638285955,-0.88513483402885));
#439=DIRECTION('center_axis',(-1.,0.,0.));
#440=DIRECTION('ref_axis',(0.,1.,0.));
#441=DIRECTION('center_axis',(-1.,0.,-1.28214732502643E-16));
#442=DIRECTION('ref_axis',(0.,1.,0.));
#443=DIRECTION('',(-1.,0.,0.));
#444=DIRECTION('center_axis',(1.,0.,0.));
#445=DIRECTION('ref_axis',(0.,1.,0.));
#446=DIRECTION('center_axis',(-1.,0.,0.));
#447=DIRECTION('ref_axis',(0.,0.,1.));
#448=DIRECTION('center_axis',(1.,0.,1.28214732502643E-16));
#449=DIRECTION('ref_axis',(1.28214732502643E-16,0.,-1.));
#450=CARTESIAN_POINT('',(0.,0.,0.));
#451=CARTESIAN_POINT('Origin',(0.125,0.,0.125));
#452=CARTESIAN_POINT('',(0.,2.5,0.125));
#453=CARTESIAN_POINT('',(0.125,2.5,1.3783355170504E-17));
#454=CARTESIAN_POINT('Origin',(0.125,2.5,0.125));
#455=CARTESIAN_POINT('',(0.125,0.,1.3783355170504E-17));
#456=CARTESIAN_POINT('',(0.125,0.,0.));
#457=CARTESIAN_POINT('',(0.,0.,0.125));
#458=CARTESIAN_POINT('Origin',(0.125,0.,0.125));
#459=CARTESIAN_POINT('',(0.,0.,0.125));
#460=CARTESIAN_POINT('Origin',(1.25,0.,1.3783355170504E-16));
#461=CARTESIAN_POINT('',(0.75,2.5,6.55643518479423E-17));
#462=CARTESIAN_POINT('',(1.25,2.5,1.3783355170504E-16));
#463=CARTESIAN_POINT('',(1.25,1.99999999473139,1.31128703695885E-16));
#464=CARTESIAN_POINT('Origin',(0.75,2.,1.31128703695885E-16));
#465=CARTESIAN_POINT('',(1.25,0.5,1.31128703695885E-16));
#466=CARTESIAN_POINT('',(1.25,0.,1.3783355170504E-16));
#467=CARTESIAN_POINT('',(0.75,0.,6.55643518479423E-17));
#468=CARTESIAN_POINT('Origin',(0.75,0.5,1.31128703695885E-16));
#469=CARTESIAN_POINT('',(1.25,0.,1.3783355170504E-16));
#470=CARTESIAN_POINT('',(1.03125,2.,8.74191357972564E-17));
#471=CARTESIAN_POINT('Origin',(0.75,2.,1.31128703695885E-16));
#472=CARTESIAN_POINT('',(1.03125,0.5,8.74191357972564E-17));
#473=CARTESIAN_POINT('Origin',(0.75,0.5,1.31128703695885E-16));
#474=CARTESIAN_POINT('Origin',(0.625,2.5,1.));
#475=CARTESIAN_POINT('',(0.25,2.5,0.125));
#476=CARTESIAN_POINT('',(0.125,2.5,0.125));
#477=CARTESIAN_POINT('',(0.75,2.5,0.125));
#478=CARTESIAN_POINT('',(0.125,2.5,0.125));
#479=CARTESIAN_POINT('',(0.75,2.5,0.125));
#480=CARTESIAN_POINT('Origin',(0.25,0.,0.25));
#481=CARTESIAN_POINT('',(0.125,2.43428478063507,0.25));
#482=CARTESIAN_POINT('Origin',(0.25,2.43428478063507,0.25));
#483=CARTESIAN_POINT('',(0.125,0.0657152193649276,0.25));
#484=CARTESIAN_POINT('',(0.125,0.,0.25));
#485=CARTESIAN_POINT('',(0.25,0.,0.125));
#486=CARTESIAN_POINT('Origin',(0.25,0.0657152193649275,0.25));
#487=CARTESIAN_POINT('',(0.25,0.,0.125));
#488=CARTESIAN_POINT('Origin',(0.125,0.,0.125));
#489=CARTESIAN_POINT('',(0.75,0.,0.125));
#490=CARTESIAN_POINT('',(0.125,0.,0.125));
#491=CARTESIAN_POINT('',(1.25,0.5,0.125));
#492=CARTESIAN_POINT('Origin',(0.75,0.5,0.125));
#493=CARTESIAN_POINT('',(1.25,1.99999999473139,0.125));
#494=CARTESIAN_POINT('',(1.25,0.,0.125));
#495=CARTESIAN_POINT('Origin',(0.75,2.,0.125));
#496=CARTESIAN_POINT('',(1.03125,2.,0.125));
#497=CARTESIAN_POINT('Origin',(0.75,2.,0.125));
#498=CARTESIAN_POINT('',(1.03125,0.5,0.125));
#499=CARTESIAN_POINT('Origin',(0.75,0.5,0.125));
#500=CARTESIAN_POINT('Origin',(0.75,0.5,0.125));
#501=CARTESIAN_POINT('',(1.25,0.5,0.125));
#502=CARTESIAN_POINT('',(0.75,0.,0.125));
#503=CARTESIAN_POINT('Origin',(0.75,2.,0.125));
#504=CARTESIAN_POINT('',(1.25,2.,0.125));
#505=CARTESIAN_POINT('Origin',(0.75,0.5,0.125));
#506=CARTESIAN_POINT('',(1.03125,0.5,0.125));
#507=CARTESIAN_POINT('Origin',(0.75,2.,0.125));
#508=CARTESIAN_POINT('',(1.03125,2.,0.125));
#509=CARTESIAN_POINT('Origin',(0.625,0.,1.));
#510=CARTESIAN_POINT('',(0.125,0.,0.125));
#511=CARTESIAN_POINT('Origin',(1.25,0.,0.125));
#512=CARTESIAN_POINT('Origin',(0.125,1.25,1.5625));
#513=CARTESIAN_POINT('',(0.,0.862752344299605,1.76608168668755));
#514=CARTESIAN_POINT('',(0.,1.6372462051562,1.76608444585018));
#515=CARTESIAN_POINT('Origin',(0.,1.25,1.5625));
#516=CARTESIAN_POINT('',(0.125,0.862752344299605,1.76608168668755));
#517=CARTESIAN_POINT('',(0.125,0.862752344299605,1.76608168668755));
#518=CARTESIAN_POINT('',(0.125,1.6372462051562,1.76608444585018));
#519=CARTESIAN_POINT('Origin',(0.125,1.25,1.5625));
#520=CARTESIAN_POINT('',(0.125,1.6372462051562,1.76608444585018));
#521=CARTESIAN_POINT('Origin',(0.125,2.5,0.125));
#522=CARTESIAN_POINT('',(0.,2.25507233662829,0.590888392633187));
#523=CARTESIAN_POINT('',(0.125,1.84318843880118,1.37435206704447));
#524=CARTESIAN_POINT('Origin',(0.125,0.862752344293254,1.76608168669089));
#525=CARTESIAN_POINT('',(0.,0.405633428532433,0.89657436369474));
#526=CARTESIAN_POINT('',(0.125,0.817517326359546,1.68003803810602));
#527=CARTESIAN_POINT('Origin',(0.125,1.25,1.5625));
#528=CARTESIAN_POINT('',(0.125,1.0625,1.5625));
#529=CARTESIAN_POINT('Origin',(0.125,1.25,1.5625));
#530=CARTESIAN_POINT('',(0.,1.0625,1.5625));
#531=CARTESIAN_POINT('',(0.125,1.0625,1.5625));
#532=CARTESIAN_POINT('Origin',(0.,1.25,1.5625));
#533=CARTESIAN_POINT('Origin',(0.,0.,0.));
#534=CARTESIAN_POINT('Origin',(0.125,0.,2.));
#535=UNCERTAINTY_MEASURE_WITH_UNIT(LENGTH_MEASURE(0.000393700787401575),
#540,'DISTANCE_ACCURACY_VALUE',
'Maximum model space distance between geometric entities at asserted c
onnectivities');
#536=UNCERTAINTY_MEASURE_WITH_UNIT(LENGTH_MEASURE(0.000393700787401575),
#540,'DISTANCE_ACCURACY_VALUE',
'Maximum model space distance between geometric entities at asserted c
onnectivities');
#537=(
GEOMETRIC_REPRESENTATION_CONTEXT(3)
GLOBAL_UNCERTAINTY_ASSIGNED_CONTEXT((#535))
GLOBAL_UNIT_ASSIGNED_CONTEXT((#540,#544,#545))
REPRESENTATION_CONTEXT('','3D')
);
#538=(
GEOMETRIC_REPRESENTATION_CONTEXT(3)
GLOBAL_UNCERTAINTY_ASSIGNED_CONTEXT((#536))
GLOBAL_UNIT_ASSIGNED_CONTEXT((#540,#544,#545))
REPRESENTATION_CONTEXT('','3D')
);
#539=DIMENSIONAL_EXPONENTS(1.,0.,0.,0.,0.,0.,0.);
#540=(
CONVERSION_BASED_UNIT('inch',#543)
LENGTH_UNIT()
NAMED_UNIT(#539)
);
#541=(
LENGTH_UNIT()
NAMED_UNIT(*)
SI_UNIT(.MILLI.,.METRE.)
);
#542=(
LENGTH_UNIT()
NAMED_UNIT(*)
SI_UNIT($,.METRE.)
);
#543=LENGTH_MEASURE_WITH_UNIT(LENGTH_MEASURE(25.4),#541);
#544=(
NAMED_UNIT(*)
PLANE_ANGLE_UNIT()
SI_UNIT($,.RADIAN.)
);
#545=(
NAMED_UNIT(*)
SI_UNIT($,.STERADIAN.)
SOLID_ANGLE_UNIT()
);
#546=SHAPE_DEFINITION_REPRESENTATION(#547,#548);
#547=PRODUCT_DEFINITION_SHAPE('',$,#550);
#548=SHAPE_REPRESENTATION('',(#323),#537);
#549=PRODUCT_DEFINITION_CONTEXT('part definition',#554,'design');
#550=PRODUCT_DEFINITION('Rear Clam Support Rodend Attachment Bracket',
'Rear Clam Support Rodend Attachment Bracket v5',#551,#549);
#551=PRODUCT_DEFINITION_FORMATION('',$,#556);
#552=PRODUCT_RELATED_PRODUCT_CATEGORY(
'Rear Clam Support Rodend Attachment Bracket v5',
'Rear Clam Support Rodend Attachment Bracket v5',(#556));
#553=APPLICATION_PROTOCOL_DEFINITION('international standard',
'automotive_design',2009,#554);
#554=APPLICATION_CONTEXT(
'Core Data for Automotive Mechanical Design Process');
#555=PRODUCT_CONTEXT('part definition',#554,'mechanical');
#556=PRODUCT('Rear Clam Support Rodend Attachment Bracket',
'Rear Clam Support Rodend Attachment Bracket v5',$,(#555));
#557=PRESENTATION_STYLE_ASSIGNMENT((#558));
#558=SURFACE_STYLE_USAGE(.BOTH.,#559);
#559=SURFACE_SIDE_STYLE('',(#560));
#560=SURFACE_STYLE_FILL_AREA(#561);
#561=FILL_AREA_STYLE('Steel - Satin',(#562));
#562=FILL_AREA_STYLE_COLOUR('Steel - Satin',#563);
#563=COLOUR_RGB('Steel - Satin',0.627450980392157,0.627450980392157,0.627450980392157);
ENDSEC;
END-ISO-10303-21;
