ISO-10303-21;
HEADER;
FILE_DESCRIPTION(('FreeCAD Model'),'2;1');
FILE_NAME('Open CASCADE Shape Model','2026-02-17T22:11:25',(''),(''),
  'Open CASCADE STEP processor 7.8','FreeCAD','Unknown');
FILE_SCHEMA(('AUTOMOTIVE_DESIGN { 1 0 10303 214 1 1 1 1 }'));
ENDSEC;
DATA;
#1 = APPLICATION_PROTOCOL_DEFINITION('international standard',
  'automotive_design',2000,#2);
#2 = APPLICATION_CONTEXT(
  'core data for automotive mechanical design processes');
#3 = SHAPE_DEFINITION_REPRESENTATION(#4,#10);
#4 = PRODUCT_DEFINITION_SHAPE('','',#5);
#5 = PRODUCT_DEFINITION('design','',#6,#9);
#6 = PRODUCT_DEFINITION_FORMATION('','',#7);
#7 = PRODUCT('10x10 lug','10x10 lug','',(#8));
#8 = PRODUCT_CONTEXT('',#2,'mechanical');
#9 = PRODUCT_DEFINITION_CONTEXT('part definition',#2,'design');
#10 = SHAPE_REPRESENTATION('',(#11,#15,#19,#23),#27);
#11 = AXIS2_PLACEMENT_3D('',#12,#13,#14);
#12 = CARTESIAN_POINT('',(0.,0.,0.));
#13 = DIRECTION('',(0.,0.,1.));
#14 = DIRECTION('',(1.,0.,-0.));
#15 = AXIS2_PLACEMENT_3D('',#16,#17,#18);
#16 = CARTESIAN_POINT('',(0.,0.,0.));
#17 = DIRECTION('',(0.,0.,1.));
#18 = DIRECTION('',(1.,0.,0.));
#19 = AXIS2_PLACEMENT_3D('',#20,#21,#22);
#20 = CARTESIAN_POINT('',(0.,0.,0.));
#21 = DIRECTION('',(0.,0.,1.));
#22 = DIRECTION('',(1.,0.,0.));
#23 = AXIS2_PLACEMENT_3D('',#24,#25,#26);
#24 = CARTESIAN_POINT('',(0.,0.,0.));
#25 = DIRECTION('',(0.,0.,1.));
#26 = DIRECTION('',(1.,0.,0.));
#27 = ( GEOMETRIC_REPRESENTATION_CONTEXT(3) 
GLOBAL_UNCERTAINTY_ASSIGNED_CONTEXT((#31)) GLOBAL_UNIT_ASSIGNED_CONTEXT(
(#28,#29,#30)) REPRESENTATION_CONTEXT('Context #1',
  '3D Context with UNIT and UNCERTAINTY') );
#28 = ( LENGTH_UNIT() NAMED_UNIT(*) SI_UNIT(.MILLI.,.METRE.) );
#29 = ( NAMED_UNIT(*) PLANE_ANGLE_UNIT() SI_UNIT($,.RADIAN.) );
#30 = ( NAMED_UNIT(*) SI_UNIT($,.STERADIAN.) SOLID_ANGLE_UNIT() );
#31 = UNCERTAINTY_MEASURE_WITH_UNIT(LENGTH_MEASURE(1.E-07),#28,
  'distance_accuracy_value','confusion accuracy');
#32 = PRODUCT_RELATED_PRODUCT_CATEGORY('part',$,(#7));
#33 = SHAPE_DEFINITION_REPRESENTATION(#34,#40);
#34 = PRODUCT_DEFINITION_SHAPE('','',#35);
#35 = PRODUCT_DEFINITION('design','',#36,#39);
#36 = PRODUCT_DEFINITION_FORMATION('','',#37);
#37 = PRODUCT('Body','Body','',(#38));
#38 = PRODUCT_CONTEXT('',#2,'mechanical');
#39 = PRODUCT_DEFINITION_CONTEXT('part definition',#2,'design');
#40 = ADVANCED_BREP_SHAPE_REPRESENTATION('',(#11,#41),#300);
#41 = MANIFOLD_SOLID_BREP('',#42);
#42 = CLOSED_SHELL('',(#43,#83,#114,#145,#178,#209,#233,#266,#283));
#43 = ADVANCED_FACE('',(#44),#78,.T.);
#44 = FACE_BOUND('',#45,.T.);
#45 = EDGE_LOOP('',(#46,#56,#64,#72));
#46 = ORIENTED_EDGE('',*,*,#47,.T.);
#47 = EDGE_CURVE('',#48,#50,#52,.T.);
#48 = VERTEX_POINT('',#49);
#49 = CARTESIAN_POINT('',(7.5,2.115525,0.));
#50 = VERTEX_POINT('',#51);
#51 = CARTESIAN_POINT('',(7.5,2.115525,1.5));
#52 = LINE('',#53,#54);
#53 = CARTESIAN_POINT('',(7.5,2.115525,0.));
#54 = VECTOR('',#55,1.);
#55 = DIRECTION('',(0.,0.,1.));
#56 = ORIENTED_EDGE('',*,*,#57,.T.);
#57 = EDGE_CURVE('',#50,#58,#60,.T.);
#58 = VERTEX_POINT('',#59);
#59 = CARTESIAN_POINT('',(7.5,-9.5,1.5));
#60 = LINE('',#61,#62);
#61 = CARTESIAN_POINT('',(7.5,2.115525,1.5));
#62 = VECTOR('',#63,1.);
#63 = DIRECTION('',(0.,-1.,0.));
#64 = ORIENTED_EDGE('',*,*,#65,.F.);
#65 = EDGE_CURVE('',#66,#58,#68,.T.);
#66 = VERTEX_POINT('',#67);
#67 = CARTESIAN_POINT('',(7.5,-9.5,0.));
#68 = LINE('',#69,#70);
#69 = CARTESIAN_POINT('',(7.5,-9.5,0.));
#70 = VECTOR('',#71,1.);
#71 = DIRECTION('',(0.,0.,1.));
#72 = ORIENTED_EDGE('',*,*,#73,.F.);
#73 = EDGE_CURVE('',#48,#66,#74,.T.);
#74 = LINE('',#75,#76);
#75 = CARTESIAN_POINT('',(7.5,2.115525,0.));
#76 = VECTOR('',#77,1.);
#77 = DIRECTION('',(0.,-1.,0.));
#78 = PLANE('',#79);
#79 = AXIS2_PLACEMENT_3D('',#80,#81,#82);
#80 = CARTESIAN_POINT('',(7.5,2.115525,0.));
#81 = DIRECTION('',(1.,0.,0.));
#82 = DIRECTION('',(0.,-1.,0.));
#83 = ADVANCED_FACE('',(#84),#109,.T.);
#84 = FACE_BOUND('',#85,.T.);
#85 = EDGE_LOOP('',(#86,#87,#95,#103));
#86 = ORIENTED_EDGE('',*,*,#65,.T.);
#87 = ORIENTED_EDGE('',*,*,#88,.T.);
#88 = EDGE_CURVE('',#58,#89,#91,.T.);
#89 = VERTEX_POINT('',#90);
#90 = CARTESIAN_POINT('',(-7.5,-9.5,1.5));
#91 = LINE('',#92,#93);
#92 = CARTESIAN_POINT('',(7.5,-9.5,1.5));
#93 = VECTOR('',#94,1.);
#94 = DIRECTION('',(-1.,0.,0.));
#95 = ORIENTED_EDGE('',*,*,#96,.F.);
#96 = EDGE_CURVE('',#97,#89,#99,.T.);
#97 = VERTEX_POINT('',#98);
#98 = CARTESIAN_POINT('',(-7.5,-9.5,0.));
#99 = LINE('',#100,#101);
#100 = CARTESIAN_POINT('',(-7.5,-9.5,0.));
#101 = VECTOR('',#102,1.);
#102 = DIRECTION('',(0.,0.,1.));
#103 = ORIENTED_EDGE('',*,*,#104,.F.);
#104 = EDGE_CURVE('',#66,#97,#105,.T.);
#105 = LINE('',#106,#107);
#106 = CARTESIAN_POINT('',(7.5,-9.5,0.));
#107 = VECTOR('',#108,1.);
#108 = DIRECTION('',(-1.,0.,0.));
#109 = PLANE('',#110);
#110 = AXIS2_PLACEMENT_3D('',#111,#112,#113);
#111 = CARTESIAN_POINT('',(7.5,-9.5,0.));
#112 = DIRECTION('',(0.,-1.,0.));
#113 = DIRECTION('',(-1.,0.,0.));
#114 = ADVANCED_FACE('',(#115),#140,.T.);
#115 = FACE_BOUND('',#116,.T.);
#116 = EDGE_LOOP('',(#117,#118,#126,#134));
#117 = ORIENTED_EDGE('',*,*,#96,.T.);
#118 = ORIENTED_EDGE('',*,*,#119,.T.);
#119 = EDGE_CURVE('',#89,#120,#122,.T.);
#120 = VERTEX_POINT('',#121);
#121 = CARTESIAN_POINT('',(-7.5,1.999924,1.5));
#122 = LINE('',#123,#124);
#123 = CARTESIAN_POINT('',(-7.5,-9.5,1.5));
#124 = VECTOR('',#125,1.);
#125 = DIRECTION('',(0.,1.,0.));
#126 = ORIENTED_EDGE('',*,*,#127,.F.);
#127 = EDGE_CURVE('',#128,#120,#130,.T.);
#128 = VERTEX_POINT('',#129);
#129 = CARTESIAN_POINT('',(-7.5,1.999924,0.));
#130 = LINE('',#131,#132);
#131 = CARTESIAN_POINT('',(-7.5,1.999924,0.));
#132 = VECTOR('',#133,1.);
#133 = DIRECTION('',(0.,0.,1.));
#134 = ORIENTED_EDGE('',*,*,#135,.F.);
#135 = EDGE_CURVE('',#97,#128,#136,.T.);
#136 = LINE('',#137,#138);
#137 = CARTESIAN_POINT('',(-7.5,-9.5,0.));
#138 = VECTOR('',#139,1.);
#139 = DIRECTION('',(0.,1.,0.));
#140 = PLANE('',#141);
#141 = AXIS2_PLACEMENT_3D('',#142,#143,#144);
#142 = CARTESIAN_POINT('',(-7.5,-9.5,0.));
#143 = DIRECTION('',(-1.,0.,0.));
#144 = DIRECTION('',(0.,1.,0.));
#145 = ADVANCED_FACE('',(#146),#173,.T.);
#146 = FACE_BOUND('',#147,.F.);
#147 = EDGE_LOOP('',(#148,#158,#165,#166));
#148 = ORIENTED_EDGE('',*,*,#149,.T.);
#149 = EDGE_CURVE('',#150,#152,#154,.T.);
#150 = VERTEX_POINT('',#151);
#151 = CARTESIAN_POINT('',(7.600000000038E-05,9.5,0.));
#152 = VERTEX_POINT('',#153);
#153 = CARTESIAN_POINT('',(7.600000000038E-05,9.5,1.5));
#154 = LINE('',#155,#156);
#155 = CARTESIAN_POINT('',(7.600000000038E-05,9.5,0.));
#156 = VECTOR('',#157,1.);
#157 = DIRECTION('',(0.,0.,1.));
#158 = ORIENTED_EDGE('',*,*,#159,.T.);
#159 = EDGE_CURVE('',#152,#120,#160,.T.);
#160 = CIRCLE('',#161,7.500076);
#161 = AXIS2_PLACEMENT_3D('',#162,#163,#164);
#162 = CARTESIAN_POINT('',(7.59999999999E-05,1.999924,1.5));
#163 = DIRECTION('',(0.,0.,1.));
#164 = DIRECTION('',(1.,0.,0.));
#165 = ORIENTED_EDGE('',*,*,#127,.F.);
#166 = ORIENTED_EDGE('',*,*,#167,.F.);
#167 = EDGE_CURVE('',#150,#128,#168,.T.);
#168 = CIRCLE('',#169,7.500076);
#169 = AXIS2_PLACEMENT_3D('',#170,#171,#172);
#170 = CARTESIAN_POINT('',(7.59999999999E-05,1.999924,0.));
#171 = DIRECTION('',(0.,0.,1.));
#172 = DIRECTION('',(1.,0.,0.));
#173 = CYLINDRICAL_SURFACE('',#174,7.500076);
#174 = AXIS2_PLACEMENT_3D('',#175,#176,#177);
#175 = CARTESIAN_POINT('',(7.59999999999E-05,1.999924,0.));
#176 = DIRECTION('',(-0.,-0.,-1.));
#177 = DIRECTION('',(1.,0.,0.));
#178 = ADVANCED_FACE('',(#179),#204,.T.);
#179 = FACE_BOUND('',#180,.T.);
#180 = EDGE_LOOP('',(#181,#182,#190,#198));
#181 = ORIENTED_EDGE('',*,*,#149,.T.);
#182 = ORIENTED_EDGE('',*,*,#183,.T.);
#183 = EDGE_CURVE('',#152,#184,#186,.T.);
#184 = VERTEX_POINT('',#185);
#185 = CARTESIAN_POINT('',(0.115525,9.5,1.5));
#186 = LINE('',#187,#188);
#187 = CARTESIAN_POINT('',(7.60000000004E-05,9.5,1.5));
#188 = VECTOR('',#189,1.);
#189 = DIRECTION('',(1.,0.,0.));
#190 = ORIENTED_EDGE('',*,*,#191,.F.);
#191 = EDGE_CURVE('',#192,#184,#194,.T.);
#192 = VERTEX_POINT('',#193);
#193 = CARTESIAN_POINT('',(0.115525,9.5,0.));
#194 = LINE('',#195,#196);
#195 = CARTESIAN_POINT('',(0.115525,9.5,0.));
#196 = VECTOR('',#197,1.);
#197 = DIRECTION('',(0.,0.,1.));
#198 = ORIENTED_EDGE('',*,*,#199,.F.);
#199 = EDGE_CURVE('',#150,#192,#200,.T.);
#200 = LINE('',#201,#202);
#201 = CARTESIAN_POINT('',(7.60000000004E-05,9.5,0.));
#202 = VECTOR('',#203,1.);
#203 = DIRECTION('',(1.,0.,0.));
#204 = PLANE('',#205);
#205 = AXIS2_PLACEMENT_3D('',#206,#207,#208);
#206 = CARTESIAN_POINT('',(7.60000000004E-05,9.5,0.));
#207 = DIRECTION('',(0.,1.,0.));
#208 = DIRECTION('',(1.,0.,0.));
#209 = ADVANCED_FACE('',(#210),#228,.T.);
#210 = FACE_BOUND('',#211,.F.);
#211 = EDGE_LOOP('',(#212,#213,#220,#221));
#212 = ORIENTED_EDGE('',*,*,#47,.T.);
#213 = ORIENTED_EDGE('',*,*,#214,.T.);
#214 = EDGE_CURVE('',#50,#184,#215,.T.);
#215 = CIRCLE('',#216,7.384475);
#216 = AXIS2_PLACEMENT_3D('',#217,#218,#219);
#217 = CARTESIAN_POINT('',(0.115525,2.115525,1.5));
#218 = DIRECTION('',(0.,0.,1.));
#219 = DIRECTION('',(1.,0.,0.));
#220 = ORIENTED_EDGE('',*,*,#191,.F.);
#221 = ORIENTED_EDGE('',*,*,#222,.F.);
#222 = EDGE_CURVE('',#48,#192,#223,.T.);
#223 = CIRCLE('',#224,7.384475);
#224 = AXIS2_PLACEMENT_3D('',#225,#226,#227);
#225 = CARTESIAN_POINT('',(0.115525,2.115525,0.));
#226 = DIRECTION('',(0.,0.,1.));
#227 = DIRECTION('',(1.,0.,0.));
#228 = CYLINDRICAL_SURFACE('',#229,7.384475);
#229 = AXIS2_PLACEMENT_3D('',#230,#231,#232);
#230 = CARTESIAN_POINT('',(0.115525,2.115525,0.));
#231 = DIRECTION('',(-0.,-0.,-1.));
#232 = DIRECTION('',(1.,0.,0.));
#233 = ADVANCED_FACE('',(#234),#261,.F.);
#234 = FACE_BOUND('',#235,.T.);
#235 = EDGE_LOOP('',(#236,#246,#253,#254));
#236 = ORIENTED_EDGE('',*,*,#237,.T.);
#237 = EDGE_CURVE('',#238,#240,#242,.T.);
#238 = VERTEX_POINT('',#239);
#239 = CARTESIAN_POINT('',(5.,2.,0.));
#240 = VERTEX_POINT('',#241);
#241 = CARTESIAN_POINT('',(5.,2.,1.5));
#242 = LINE('',#243,#244);
#243 = CARTESIAN_POINT('',(5.,2.,0.));
#244 = VECTOR('',#245,1.);
#245 = DIRECTION('',(0.,0.,1.));
#246 = ORIENTED_EDGE('',*,*,#247,.T.);
#247 = EDGE_CURVE('',#240,#240,#248,.T.);
#248 = CIRCLE('',#249,5.);
#249 = AXIS2_PLACEMENT_3D('',#250,#251,#252);
#250 = CARTESIAN_POINT('',(0.,2.,1.5));
#251 = DIRECTION('',(0.,0.,1.));
#252 = DIRECTION('',(1.,0.,0.));
#253 = ORIENTED_EDGE('',*,*,#237,.F.);
#254 = ORIENTED_EDGE('',*,*,#255,.F.);
#255 = EDGE_CURVE('',#238,#238,#256,.T.);
#256 = CIRCLE('',#257,5.);
#257 = AXIS2_PLACEMENT_3D('',#258,#259,#260);
#258 = CARTESIAN_POINT('',(0.,2.,0.));
#259 = DIRECTION('',(0.,0.,1.));
#260 = DIRECTION('',(1.,0.,0.));
#261 = CYLINDRICAL_SURFACE('',#262,5.);
#262 = AXIS2_PLACEMENT_3D('',#263,#264,#265);
#263 = CARTESIAN_POINT('',(0.,2.,0.));
#264 = DIRECTION('',(-0.,-0.,-1.));
#265 = DIRECTION('',(1.,0.,0.));
#266 = ADVANCED_FACE('',(#267,#275),#278,.F.);
#267 = FACE_BOUND('',#268,.T.);
#268 = EDGE_LOOP('',(#269,#270,#271,#272,#273,#274));
#269 = ORIENTED_EDGE('',*,*,#73,.T.);
#270 = ORIENTED_EDGE('',*,*,#104,.T.);
#271 = ORIENTED_EDGE('',*,*,#135,.T.);
#272 = ORIENTED_EDGE('',*,*,#167,.F.);
#273 = ORIENTED_EDGE('',*,*,#199,.T.);
#274 = ORIENTED_EDGE('',*,*,#222,.F.);
#275 = FACE_BOUND('',#276,.T.);
#276 = EDGE_LOOP('',(#277));
#277 = ORIENTED_EDGE('',*,*,#255,.T.);
#278 = PLANE('',#279);
#279 = AXIS2_PLACEMENT_3D('',#280,#281,#282);
#280 = CARTESIAN_POINT('',(6.152857495318E-03,-0.23927057293,0.));
#281 = DIRECTION('',(0.,0.,1.));
#282 = DIRECTION('',(1.,0.,0.));
#283 = ADVANCED_FACE('',(#284,#292),#295,.T.);
#284 = FACE_BOUND('',#285,.F.);
#285 = EDGE_LOOP('',(#286,#287,#288,#289,#290,#291));
#286 = ORIENTED_EDGE('',*,*,#57,.T.);
#287 = ORIENTED_EDGE('',*,*,#88,.T.);
#288 = ORIENTED_EDGE('',*,*,#119,.T.);
#289 = ORIENTED_EDGE('',*,*,#159,.F.);
#290 = ORIENTED_EDGE('',*,*,#183,.T.);
#291 = ORIENTED_EDGE('',*,*,#214,.F.);
#292 = FACE_BOUND('',#293,.F.);
#293 = EDGE_LOOP('',(#294));
#294 = ORIENTED_EDGE('',*,*,#247,.T.);
#295 = PLANE('',#296);
#296 = AXIS2_PLACEMENT_3D('',#297,#298,#299);
#297 = CARTESIAN_POINT('',(6.152857495318E-03,-0.23927057293,1.5));
#298 = DIRECTION('',(0.,0.,1.));
#299 = DIRECTION('',(1.,0.,0.));
#300 = ( GEOMETRIC_REPRESENTATION_CONTEXT(3) 
GLOBAL_UNCERTAINTY_ASSIGNED_CONTEXT((#304)) GLOBAL_UNIT_ASSIGNED_CONTEXT
((#301,#302,#303)) REPRESENTATION_CONTEXT('Context #1',
  '3D Context with UNIT and UNCERTAINTY') );
#301 = ( LENGTH_UNIT() NAMED_UNIT(*) SI_UNIT(.MILLI.,.METRE.) );
#302 = ( NAMED_UNIT(*) PLANE_ANGLE_UNIT() SI_UNIT($,.RADIAN.) );
#303 = ( NAMED_UNIT(*) SI_UNIT($,.STERADIAN.) SOLID_ANGLE_UNIT() );
#304 = UNCERTAINTY_MEASURE_WITH_UNIT(LENGTH_MEASURE(1.E-07),#301,
  'distance_accuracy_value','confusion accuracy');
#305 = CONTEXT_DEPENDENT_SHAPE_REPRESENTATION(#306,#308);
#306 = ( REPRESENTATION_RELATIONSHIP('','',#40,#10) 
REPRESENTATION_RELATIONSHIP_WITH_TRANSFORMATION(#307) 
SHAPE_REPRESENTATION_RELATIONSHIP() );
#307 = ITEM_DEFINED_TRANSFORMATION('','',#11,#15);
#308 = PRODUCT_DEFINITION_SHAPE('Placement','Placement of an item',#309
  );
#309 = NEXT_ASSEMBLY_USAGE_OCCURRENCE('1','Body','',#5,#35,$);
#310 = PRODUCT_RELATED_PRODUCT_CATEGORY('part',$,(#37));
#311 = SHAPE_DEFINITION_REPRESENTATION(#312,#318);
#312 = PRODUCT_DEFINITION_SHAPE('','',#313);
#313 = PRODUCT_DEFINITION('design','',#314,#317);
#314 = PRODUCT_DEFINITION_FORMATION('','',#315);
#315 = PRODUCT('Body001','Body001','',(#316));
#316 = PRODUCT_CONTEXT('',#2,'mechanical');
#317 = PRODUCT_DEFINITION_CONTEXT('part definition',#2,'design');
#318 = ADVANCED_BREP_SHAPE_REPRESENTATION('',(#11,#319),#411);
#319 = MANIFOLD_SOLID_BREP('',#320);
#320 = CLOSED_SHELL('',(#321,#354,#387,#399));
#321 = ADVANCED_FACE('',(#322),#349,.T.);
#322 = FACE_BOUND('',#323,.F.);
#323 = EDGE_LOOP('',(#324,#334,#341,#342));
#324 = ORIENTED_EDGE('',*,*,#325,.T.);
#325 = EDGE_CURVE('',#326,#328,#330,.T.);
#326 = VERTEX_POINT('',#327);
#327 = CARTESIAN_POINT('',(3.15,-17.,3.15));
#328 = VERTEX_POINT('',#329);
#329 = CARTESIAN_POINT('',(3.15,-28.,3.15));
#330 = LINE('',#331,#332);
#331 = CARTESIAN_POINT('',(3.15,-17.,3.15));
#332 = VECTOR('',#333,1.);
#333 = DIRECTION('',(0.,-1.,2.22044604925E-16));
#334 = ORIENTED_EDGE('',*,*,#335,.T.);
#335 = EDGE_CURVE('',#328,#328,#336,.T.);
#336 = CIRCLE('',#337,3.15);
#337 = AXIS2_PLACEMENT_3D('',#338,#339,#340);
#338 = CARTESIAN_POINT('',(0.,-28.,3.15));
#339 = DIRECTION('',(0.,-1.,2.22044604925E-16));
#340 = DIRECTION('',(1.,0.,0.));
#341 = ORIENTED_EDGE('',*,*,#325,.F.);
#342 = ORIENTED_EDGE('',*,*,#343,.F.);
#343 = EDGE_CURVE('',#326,#326,#344,.T.);
#344 = CIRCLE('',#345,3.15);
#345 = AXIS2_PLACEMENT_3D('',#346,#347,#348);
#346 = CARTESIAN_POINT('',(0.,-17.,3.15));
#347 = DIRECTION('',(0.,-1.,2.22044604925E-16));
#348 = DIRECTION('',(1.,0.,0.));
#349 = CYLINDRICAL_SURFACE('',#350,3.15);
#350 = AXIS2_PLACEMENT_3D('',#351,#352,#353);
#351 = CARTESIAN_POINT('',(0.,-17.,3.15));
#352 = DIRECTION('',(0.,1.,-2.22044604925E-16));
#353 = DIRECTION('',(1.,0.,0.));
#354 = ADVANCED_FACE('',(#355),#382,.F.);
#355 = FACE_BOUND('',#356,.T.);
#356 = EDGE_LOOP('',(#357,#367,#374,#375));
#357 = ORIENTED_EDGE('',*,*,#358,.T.);
#358 = EDGE_CURVE('',#359,#361,#363,.T.);
#359 = VERTEX_POINT('',#360);
#360 = CARTESIAN_POINT('',(2.2,-17.,3.15));
#361 = VERTEX_POINT('',#362);
#362 = CARTESIAN_POINT('',(2.2,-28.,3.15));
#363 = LINE('',#364,#365);
#364 = CARTESIAN_POINT('',(2.2,-17.,3.15));
#365 = VECTOR('',#366,1.);
#366 = DIRECTION('',(0.,-1.,2.22044604925E-16));
#367 = ORIENTED_EDGE('',*,*,#368,.T.);
#368 = EDGE_CURVE('',#361,#361,#369,.T.);
#369 = CIRCLE('',#370,2.2);
#370 = AXIS2_PLACEMENT_3D('',#371,#372,#373);
#371 = CARTESIAN_POINT('',(0.,-28.,3.15));
#372 = DIRECTION('',(0.,-1.,2.22044604925E-16));
#373 = DIRECTION('',(1.,0.,0.));
#374 = ORIENTED_EDGE('',*,*,#358,.F.);
#375 = ORIENTED_EDGE('',*,*,#376,.F.);
#376 = EDGE_CURVE('',#359,#359,#377,.T.);
#377 = CIRCLE('',#378,2.2);
#378 = AXIS2_PLACEMENT_3D('',#379,#380,#381);
#379 = CARTESIAN_POINT('',(0.,-17.,3.15));
#380 = DIRECTION('',(0.,-1.,2.22044604925E-16));
#381 = DIRECTION('',(1.,0.,0.));
#382 = CYLINDRICAL_SURFACE('',#383,2.2);
#383 = AXIS2_PLACEMENT_3D('',#384,#385,#386);
#384 = CARTESIAN_POINT('',(0.,-17.,3.15));
#385 = DIRECTION('',(0.,1.,-2.22044604925E-16));
#386 = DIRECTION('',(1.,0.,0.));
#387 = ADVANCED_FACE('',(#388,#391),#394,.T.);
#388 = FACE_BOUND('',#389,.F.);
#389 = EDGE_LOOP('',(#390));
#390 = ORIENTED_EDGE('',*,*,#343,.T.);
#391 = FACE_BOUND('',#392,.T.);
#392 = EDGE_LOOP('',(#393));
#393 = ORIENTED_EDGE('',*,*,#376,.T.);
#394 = PLANE('',#395);
#395 = AXIS2_PLACEMENT_3D('',#396,#397,#398);
#396 = CARTESIAN_POINT('',(-1.27798143228E-16,-17.,3.15));
#397 = DIRECTION('',(0.,1.,0.));
#398 = DIRECTION('',(0.,0.,1.));
#399 = ADVANCED_FACE('',(#400,#403),#406,.F.);
#400 = FACE_BOUND('',#401,.T.);
#401 = EDGE_LOOP('',(#402));
#402 = ORIENTED_EDGE('',*,*,#335,.T.);
#403 = FACE_BOUND('',#404,.F.);
#404 = EDGE_LOOP('',(#405));
#405 = ORIENTED_EDGE('',*,*,#368,.T.);
#406 = PLANE('',#407);
#407 = AXIS2_PLACEMENT_3D('',#408,#409,#410);
#408 = CARTESIAN_POINT('',(-1.27798143228E-16,-28.,3.15));
#409 = DIRECTION('',(0.,1.,0.));
#410 = DIRECTION('',(0.,0.,1.));
#411 = ( GEOMETRIC_REPRESENTATION_CONTEXT(3) 
GLOBAL_UNCERTAINTY_ASSIGNED_CONTEXT((#415)) GLOBAL_UNIT_ASSIGNED_CONTEXT
((#412,#413,#414)) REPRESENTATION_CONTEXT('Context #1',
  '3D Context with UNIT and UNCERTAINTY') );
#412 = ( LENGTH_UNIT() NAMED_UNIT(*) SI_UNIT(.MILLI.,.METRE.) );
#413 = ( NAMED_UNIT(*) PLANE_ANGLE_UNIT() SI_UNIT($,.RADIAN.) );
#414 = ( NAMED_UNIT(*) SI_UNIT($,.STERADIAN.) SOLID_ANGLE_UNIT() );
#415 = UNCERTAINTY_MEASURE_WITH_UNIT(LENGTH_MEASURE(1.E-07),#412,
  'distance_accuracy_value','confusion accuracy');
#416 = CONTEXT_DEPENDENT_SHAPE_REPRESENTATION(#417,#419);
#417 = ( REPRESENTATION_RELATIONSHIP('','',#318,#10) 
REPRESENTATION_RELATIONSHIP_WITH_TRANSFORMATION(#418) 
SHAPE_REPRESENTATION_RELATIONSHIP() );
#418 = ITEM_DEFINED_TRANSFORMATION('','',#11,#19);
#419 = PRODUCT_DEFINITION_SHAPE('Placement','Placement of an item',#420
  );
#420 = NEXT_ASSEMBLY_USAGE_OCCURRENCE('2','Body001','',#5,#313,$);
#421 = PRODUCT_RELATED_PRODUCT_CATEGORY('part',$,(#315));
#422 = SHAPE_DEFINITION_REPRESENTATION(#423,#429);
#423 = PRODUCT_DEFINITION_SHAPE('','',#424);
#424 = PRODUCT_DEFINITION('design','',#425,#428);
#425 = PRODUCT_DEFINITION_FORMATION('','',#426);
#426 = PRODUCT('Body002','Body002','',(#427));
#427 = PRODUCT_CONTEXT('',#2,'mechanical');
#428 = PRODUCT_DEFINITION_CONTEXT('part definition',#2,'design');
#429 = ADVANCED_BREP_SHAPE_REPRESENTATION('',(#11,#430),#628);
#430 = MANIFOLD_SOLID_BREP('',#431);
#431 = CLOSED_SHELL('',(#432,#476,#523,#554,#576,#610));
#432 = ADVANCED_FACE('',(#433),#471,.F.);
#433 = FACE_BOUND('',#434,.T.);
#434 = EDGE_LOOP('',(#435,#446,#455,#464));
#435 = ORIENTED_EDGE('',*,*,#436,.T.);
#436 = EDGE_CURVE('',#437,#439,#441,.T.);
#437 = VERTEX_POINT('',#438);
#438 = CARTESIAN_POINT('',(3.15,-17.,3.15));
#439 = VERTEX_POINT('',#440);
#440 = CARTESIAN_POINT('',(-3.134367149161,-17.,3.463436714916));
#441 = CIRCLE('',#442,3.15);
#442 = AXIS2_PLACEMENT_3D('',#443,#444,#445);
#443 = CARTESIAN_POINT('',(0.,-17.,3.15));
#444 = DIRECTION('',(0.,-1.,2.22044604925E-16));
#445 = DIRECTION('',(1.,0.,0.));
#446 = ORIENTED_EDGE('',*,*,#447,.T.);
#447 = EDGE_CURVE('',#439,#448,#450,.T.);
#448 = VERTEX_POINT('',#449);
#449 = CARTESIAN_POINT('',(-3.134367149161,-17.,2.836563285084));
#450 = CIRCLE('',#451,3.15);
#451 = AXIS2_PLACEMENT_3D('',#452,#453,#454);
#452 = CARTESIAN_POINT('',(0.,-17.,3.15));
#453 = DIRECTION('',(0.,-1.,2.22044604925E-16));
#454 = DIRECTION('',(1.,0.,0.));
#455 = ORIENTED_EDGE('',*,*,#456,.T.);
#456 = EDGE_CURVE('',#448,#457,#459,.T.);
#457 = VERTEX_POINT('',#458);
#458 = CARTESIAN_POINT('',(3.134367149161,-17.,2.836563285084));
#459 = CIRCLE('',#460,3.15);
#460 = AXIS2_PLACEMENT_3D('',#461,#462,#463);
#461 = CARTESIAN_POINT('',(0.,-17.,3.15));
#462 = DIRECTION('',(0.,-1.,2.22044604925E-16));
#463 = DIRECTION('',(1.,0.,0.));
#464 = ORIENTED_EDGE('',*,*,#465,.T.);
#465 = EDGE_CURVE('',#457,#437,#466,.T.);
#466 = CIRCLE('',#467,3.15);
#467 = AXIS2_PLACEMENT_3D('',#468,#469,#470);
#468 = CARTESIAN_POINT('',(0.,-17.,3.15));
#469 = DIRECTION('',(0.,-1.,2.22044604925E-16));
#470 = DIRECTION('',(1.,0.,0.));
#471 = PLANE('',#472);
#472 = AXIS2_PLACEMENT_3D('',#473,#474,#475);
#473 = CARTESIAN_POINT('',(-1.08526994646E-16,-17.,3.15));
#474 = DIRECTION('',(0.,1.,0.));
#475 = DIRECTION('',(0.,0.,1.));
#476 = ADVANCED_FACE('',(#477),#500,.F.);
#477 = FACE_BOUND('',#478,.F.);
#478 = EDGE_LOOP('',(#479,#480,#487,#495));
#479 = ORIENTED_EDGE('',*,*,#436,.T.);
#480 = ORIENTED_EDGE('',*,*,#481,.T.);
#481 = EDGE_CURVE('',#439,#482,#484,.T.);
#482 = VERTEX_POINT('',#483);
#483 = CARTESIAN_POINT('',(-7.5,-9.5,1.5));
#484 = B_SPLINE_CURVE_WITH_KNOTS('',1,(#485,#486),.UNSPECIFIED.,.F.,.F.,
  (2,2),(0.,1.),.PIECEWISE_BEZIER_KNOTS.);
#485 = CARTESIAN_POINT('',(-3.134367149161,-17.,3.463436714916));
#486 = CARTESIAN_POINT('',(-7.5,-9.5,1.5));
#487 = ORIENTED_EDGE('',*,*,#488,.T.);
#488 = EDGE_CURVE('',#482,#489,#491,.T.);
#489 = VERTEX_POINT('',#490);
#490 = CARTESIAN_POINT('',(7.5,-9.5,1.5));
#491 = LINE('',#492,#493);
#492 = CARTESIAN_POINT('',(-7.5,-9.5,1.5));
#493 = VECTOR('',#494,1.);
#494 = DIRECTION('',(1.,0.,0.));
#495 = ORIENTED_EDGE('',*,*,#496,.F.);
#496 = EDGE_CURVE('',#437,#489,#497,.T.);
#497 = B_SPLINE_CURVE_WITH_KNOTS('',1,(#498,#499),.UNSPECIFIED.,.F.,.F.,
  (2,2),(0.,1.),.PIECEWISE_BEZIER_KNOTS.);
#498 = CARTESIAN_POINT('',(3.15,-17.,3.15));
#499 = CARTESIAN_POINT('',(7.5,-9.5,1.5));
#500 = B_SPLINE_SURFACE_WITH_KNOTS('',10,1,(
    (#501,#502)
    ,(#503,#504)
    ,(#505,#506)
    ,(#507,#508)
    ,(#509,#510)
    ,(#511,#512)
    ,(#513,#514)
    ,(#515,#516)
    ,(#517,#518)
    ,(#519,#520)
    ,(#521,#522
    )),.UNSPECIFIED.,.F.,.F.,.F.,(11,11),(2,2),(-15.,0.),(0.,1.),
  .PIECEWISE_BEZIER_KNOTS.);
#501 = CARTESIAN_POINT('',(3.15,-17.,3.15));
#502 = CARTESIAN_POINT('',(7.5,-9.5,1.5));
#503 = CARTESIAN_POINT('',(3.15,-17.,4.108206060346));
#504 = CARTESIAN_POINT('',(6.,-9.5,1.5));
#505 = CARTESIAN_POINT('',(2.826135099938,-16.99999999999,5.066412029268
    ));
#506 = CARTESIAN_POINT('',(4.5,-9.5,1.5));
#507 = CARTESIAN_POINT('',(2.178399311493,-17.,5.901472045006));
#508 = CARTESIAN_POINT('',(3.,-9.5,1.5));
#509 = CARTESIAN_POINT('',(1.260334337868,-16.99999999999,6.490234338494
    ));
#510 = CARTESIAN_POINT('',(1.5,-9.5,1.5));
#511 = CARTESIAN_POINT('',(0.17888898177,-17.,6.736701834472));
#512 = CARTESIAN_POINT('',(-1.110223024625E-16,-9.5,1.5));
#513 = CARTESIAN_POINT('',(-0.921713799196,-16.99999999999,
    6.599065344646));
#514 = CARTESIAN_POINT('',(-1.5,-9.5,1.5));
#515 = CARTESIAN_POINT('',(-1.893806628803,-17.,6.10457584561));
#516 = CARTESIAN_POINT('',(-3.,-9.5,1.5));
#517 = CARTESIAN_POINT('',(-2.621419404907,-17.,5.338112193788));
#518 = CARTESIAN_POINT('',(-4.5,-9.5,1.5));
#519 = CARTESIAN_POINT('',(-3.039022082569,-17.,4.416887380845));
#520 = CARTESIAN_POINT('',(-6.,-9.5,1.5));
#521 = CARTESIAN_POINT('',(-3.134367149161,-17.,3.463436714916));
#522 = CARTESIAN_POINT('',(-7.5,-9.5,1.5));
#523 = ADVANCED_FACE('',(#524),#549,.F.);
#524 = FACE_BOUND('',#525,.T.);
#525 = EDGE_LOOP('',(#526,#527,#535,#543));
#526 = ORIENTED_EDGE('',*,*,#488,.T.);
#527 = ORIENTED_EDGE('',*,*,#528,.T.);
#528 = EDGE_CURVE('',#489,#529,#531,.T.);
#529 = VERTEX_POINT('',#530);
#530 = CARTESIAN_POINT('',(7.5,-9.5,2.109423746788E-15));
#531 = LINE('',#532,#533);
#532 = CARTESIAN_POINT('',(7.5,-9.5,1.5));
#533 = VECTOR('',#534,1.);
#534 = DIRECTION('',(0.,-2.22044604925E-16,-1.));
#535 = ORIENTED_EDGE('',*,*,#536,.T.);
#536 = EDGE_CURVE('',#529,#537,#539,.T.);
#537 = VERTEX_POINT('',#538);
#538 = CARTESIAN_POINT('',(-7.5,-9.5,2.109423746788E-15));
#539 = LINE('',#540,#541);
#540 = CARTESIAN_POINT('',(7.5,-9.5,1.7763568394E-15));
#541 = VECTOR('',#542,1.);
#542 = DIRECTION('',(-1.,0.,0.));
#543 = ORIENTED_EDGE('',*,*,#544,.T.);
#544 = EDGE_CURVE('',#537,#482,#545,.T.);
#545 = LINE('',#546,#547);
#546 = CARTESIAN_POINT('',(-7.5,-9.5,1.7763568394E-15));
#547 = VECTOR('',#548,1.);
#548 = DIRECTION('',(0.,2.22044604925E-16,1.));
#549 = PLANE('',#550);
#550 = AXIS2_PLACEMENT_3D('',#551,#552,#553);
#551 = CARTESIAN_POINT('',(0.,-9.5,0.75));
#552 = DIRECTION('',(0.,-1.,-2.22044604925E-16));
#553 = DIRECTION('',(1.,0.,0.));
#554 = ADVANCED_FACE('',(#555),#565,.F.);
#555 = FACE_BOUND('',#556,.F.);
#556 = EDGE_LOOP('',(#557,#558,#563,#564));
#557 = ORIENTED_EDGE('',*,*,#447,.T.);
#558 = ORIENTED_EDGE('',*,*,#559,.T.);
#559 = EDGE_CURVE('',#448,#537,#560,.T.);
#560 = B_SPLINE_CURVE_WITH_KNOTS('',1,(#561,#562),.UNSPECIFIED.,.F.,.F.,
  (2,2),(0.,1.),.PIECEWISE_BEZIER_KNOTS.);
#561 = CARTESIAN_POINT('',(-3.134367149161,-17.,2.836563285084));
#562 = CARTESIAN_POINT('',(-7.5,-9.5,2.109423746788E-15));
#563 = ORIENTED_EDGE('',*,*,#544,.T.);
#564 = ORIENTED_EDGE('',*,*,#481,.F.);
#565 = B_SPLINE_SURFACE_WITH_KNOTS('',4,1,(
    (#566,#567)
    ,(#568,#569)
    ,(#570,#571)
    ,(#572,#573)
    ,(#574,#575
    )),.UNSPECIFIED.,.F.,.F.,.F.,(5,5),(2,2),(-1.5,0.),(0.,1.),
  .PIECEWISE_BEZIER_KNOTS.);
#566 = CARTESIAN_POINT('',(-3.134367149161,-17.,3.463436714916));
#567 = CARTESIAN_POINT('',(-7.5,-9.5,1.5));
#568 = CARTESIAN_POINT('',(-3.14998705667,-17.,3.307237639831));
#569 = CARTESIAN_POINT('',(-7.5,-9.5,1.125));
#570 = CARTESIAN_POINT('',(-3.155228207014,-17.,3.15));
#571 = CARTESIAN_POINT('',(-7.5,-9.5,0.75));
#572 = CARTESIAN_POINT('',(-3.14998705667,-17.,2.992762360169));
#573 = CARTESIAN_POINT('',(-7.5,-9.5,0.375));
#574 = CARTESIAN_POINT('',(-3.134367149161,-17.,2.836563285084));
#575 = CARTESIAN_POINT('',(-7.5,-9.5,2.109423746788E-15));
#576 = ADVANCED_FACE('',(#577),#587,.F.);
#577 = FACE_BOUND('',#578,.F.);
#578 = EDGE_LOOP('',(#579,#580,#585,#586));
#579 = ORIENTED_EDGE('',*,*,#456,.T.);
#580 = ORIENTED_EDGE('',*,*,#581,.T.);
#581 = EDGE_CURVE('',#457,#529,#582,.T.);
#582 = B_SPLINE_CURVE_WITH_KNOTS('',1,(#583,#584),.UNSPECIFIED.,.F.,.F.,
  (2,2),(0.,1.),.PIECEWISE_BEZIER_KNOTS.);
#583 = CARTESIAN_POINT('',(3.134367149161,-17.,2.836563285084));
#584 = CARTESIAN_POINT('',(7.5,-9.5,2.109423746788E-15));
#585 = ORIENTED_EDGE('',*,*,#536,.T.);
#586 = ORIENTED_EDGE('',*,*,#559,.F.);
#587 = B_SPLINE_SURFACE_WITH_KNOTS('',10,1,(
    (#588,#589)
    ,(#590,#591)
    ,(#592,#593)
    ,(#594,#595)
    ,(#596,#597)
    ,(#598,#599)
    ,(#600,#601)
    ,(#602,#603)
    ,(#604,#605)
    ,(#606,#607)
    ,(#608,#609
    )),.UNSPECIFIED.,.F.,.F.,.F.,(11,11),(2,2),(-15.,0.),(0.,1.),
  .PIECEWISE_BEZIER_KNOTS.);
#588 = CARTESIAN_POINT('',(-3.134367149161,-17.,2.836563285084));
#589 = CARTESIAN_POINT('',(-7.5,-9.5,2.109423746788E-15));
#590 = CARTESIAN_POINT('',(-3.04214606407,-16.99999999999,1.914352434172
    ));
#591 = CARTESIAN_POINT('',(-6.,-9.5,2.109423746788E-15));
#592 = CARTESIAN_POINT('',(-2.648438793271,-17.,1.022290287214));
#593 = CARTESIAN_POINT('',(-4.5,-9.5,2.109423746788E-15));
#594 = CARTESIAN_POINT('',(-1.964329275594,-16.99999999999,
    0.271257750367));
#595 = CARTESIAN_POINT('',(-3.,-9.5,2.109423746788E-15));
#596 = CARTESIAN_POINT('',(-1.047530448165,-17.00000000001,
    -0.232521992831));
#597 = CARTESIAN_POINT('',(-1.5,-9.5,2.109423746788E-15));
#598 = CARTESIAN_POINT('',(6.130490206087E-13,-16.99999999998,
    -0.410352872043));
#599 = CARTESIAN_POINT('',(1.110223024625E-16,-9.5,2.109423746788E-15));
#600 = CARTESIAN_POINT('',(1.047530448164,-17.00000000001,
    -0.232521992831));
#601 = CARTESIAN_POINT('',(1.5,-9.5,2.109423746788E-15));
#602 = CARTESIAN_POINT('',(1.964329275595,-16.99999999999,0.271257750367
    ));
#603 = CARTESIAN_POINT('',(3.,-9.5,2.109423746788E-15));
#604 = CARTESIAN_POINT('',(2.648438793271,-17.,1.022290287214));
#605 = CARTESIAN_POINT('',(4.5,-9.5,2.109423746788E-15));
#606 = CARTESIAN_POINT('',(3.04214606407,-16.99999999999,1.914352434172)
  );
#607 = CARTESIAN_POINT('',(6.,-9.5,2.109423746788E-15));
#608 = CARTESIAN_POINT('',(3.134367149161,-17.,2.836563285084));
#609 = CARTESIAN_POINT('',(7.5,-9.5,2.109423746788E-15));
#610 = ADVANCED_FACE('',(#611),#617,.F.);
#611 = FACE_BOUND('',#612,.F.);
#612 = EDGE_LOOP('',(#613,#614,#615,#616));
#613 = ORIENTED_EDGE('',*,*,#465,.T.);
#614 = ORIENTED_EDGE('',*,*,#496,.T.);
#615 = ORIENTED_EDGE('',*,*,#528,.T.);
#616 = ORIENTED_EDGE('',*,*,#581,.F.);
#617 = B_SPLINE_SURFACE_WITH_KNOTS('',4,1,(
    (#618,#619)
    ,(#620,#621)
    ,(#622,#623)
    ,(#624,#625)
    ,(#626,#627
    )),.UNSPECIFIED.,.F.,.F.,.F.,(5,5),(2,2),(-1.5,0.),(0.,1.),
  .PIECEWISE_BEZIER_KNOTS.);
#618 = CARTESIAN_POINT('',(3.134367149161,-17.,2.836563285084));
#619 = CARTESIAN_POINT('',(7.5,-9.5,2.109423746788E-15));
#620 = CARTESIAN_POINT('',(3.142177102916,-17.,2.914662822626));
#621 = CARTESIAN_POINT('',(7.5,-9.5,0.375));
#622 = CARTESIAN_POINT('',(3.147392366015,-17.,2.993021850834));
#623 = CARTESIAN_POINT('',(7.5,-9.5,0.75));
#624 = CARTESIAN_POINT('',(3.15,-17.,3.071510936163));
#625 = CARTESIAN_POINT('',(7.5,-9.5,1.125));
#626 = CARTESIAN_POINT('',(3.15,-17.,3.15));
#627 = CARTESIAN_POINT('',(7.5,-9.5,1.5));
#628 = ( GEOMETRIC_REPRESENTATION_CONTEXT(3) 
GLOBAL_UNCERTAINTY_ASSIGNED_CONTEXT((#632)) GLOBAL_UNIT_ASSIGNED_CONTEXT
((#629,#630,#631)) REPRESENTATION_CONTEXT('Context #1',
  '3D Context with UNIT and UNCERTAINTY') );
#629 = ( LENGTH_UNIT() NAMED_UNIT(*) SI_UNIT(.MILLI.,.METRE.) );
#630 = ( NAMED_UNIT(*) PLANE_ANGLE_UNIT() SI_UNIT($,.RADIAN.) );
#631 = ( NAMED_UNIT(*) SI_UNIT($,.STERADIAN.) SOLID_ANGLE_UNIT() );
#632 = UNCERTAINTY_MEASURE_WITH_UNIT(LENGTH_MEASURE(1.E-07),#629,
  'distance_accuracy_value','confusion accuracy');
#633 = CONTEXT_DEPENDENT_SHAPE_REPRESENTATION(#634,#636);
#634 = ( REPRESENTATION_RELATIONSHIP('','',#429,#10) 
REPRESENTATION_RELATIONSHIP_WITH_TRANSFORMATION(#635) 
SHAPE_REPRESENTATION_RELATIONSHIP() );
#635 = ITEM_DEFINED_TRANSFORMATION('','',#11,#23);
#636 = PRODUCT_DEFINITION_SHAPE('Placement','Placement of an item',#637
  );
#637 = NEXT_ASSEMBLY_USAGE_OCCURRENCE('3','Body002','',#5,#424,$);
#638 = PRODUCT_RELATED_PRODUCT_CATEGORY('part',$,(#426));
#639 = MECHANICAL_DESIGN_GEOMETRIC_PRESENTATION_REPRESENTATION('',(#640)
  ,#300);
#640 = STYLED_ITEM('color',(#641),#41);
#641 = PRESENTATION_STYLE_ASSIGNMENT((#642,#648));
#642 = SURFACE_STYLE_USAGE(.BOTH.,#643);
#643 = SURFACE_SIDE_STYLE('',(#644));
#644 = SURFACE_STYLE_FILL_AREA(#645);
#645 = FILL_AREA_STYLE('',(#646));
#646 = FILL_AREA_STYLE_COLOUR('',#647);
#647 = COLOUR_RGB('',0.800000010877,0.800000010877,0.800000010877);
#648 = CURVE_STYLE('',#649,POSITIVE_LENGTH_MEASURE(0.1),#650);
#649 = DRAUGHTING_PRE_DEFINED_CURVE_FONT('continuous');
#650 = COLOUR_RGB('',9.803921802644E-02,9.803921802644E-02,
  9.803921802644E-02);
#651 = MECHANICAL_DESIGN_GEOMETRIC_PRESENTATION_REPRESENTATION('',(#652)
  ,#411);
#652 = STYLED_ITEM('color',(#653),#319);
#653 = PRESENTATION_STYLE_ASSIGNMENT((#654,#659));
#654 = SURFACE_STYLE_USAGE(.BOTH.,#655);
#655 = SURFACE_SIDE_STYLE('',(#656));
#656 = SURFACE_STYLE_FILL_AREA(#657);
#657 = FILL_AREA_STYLE('',(#658));
#658 = FILL_AREA_STYLE_COLOUR('',#647);
#659 = CURVE_STYLE('',#660,POSITIVE_LENGTH_MEASURE(0.1),#650);
#660 = DRAUGHTING_PRE_DEFINED_CURVE_FONT('continuous');
#661 = MECHANICAL_DESIGN_GEOMETRIC_PRESENTATION_REPRESENTATION('',(#662)
  ,#628);
#662 = STYLED_ITEM('color',(#663),#430);
#663 = PRESENTATION_STYLE_ASSIGNMENT((#664,#669));
#664 = SURFACE_STYLE_USAGE(.BOTH.,#665);
#665 = SURFACE_SIDE_STYLE('',(#666));
#666 = SURFACE_STYLE_FILL_AREA(#667);
#667 = FILL_AREA_STYLE('',(#668));
#668 = FILL_AREA_STYLE_COLOUR('',#647);
#669 = CURVE_STYLE('',#670,POSITIVE_LENGTH_MEASURE(0.1),#650);
#670 = DRAUGHTING_PRE_DEFINED_CURVE_FONT('continuous');
ENDSEC;
END-ISO-10303-21;
