ISO-10303-21;
HEADER;
FILE_DESCRIPTION (( 'STEP AP214' ),
    '1' );
FILE_NAME ('561-00009-00.step',
    '2026-02-27T00:19:41',
    ( '' ),
    ( '' ),
    'SwSTEP 2.0',
    'SolidWorks 2023',
    '' );
FILE_SCHEMA (( 'AUTOMOTIVE_DESIGN' ));
ENDSEC;

DATA;
#1 = VERTEX_POINT ( 'NONE', #333 ) ;
#2 =( NAMED_UNIT ( * ) PLANE_ANGLE_UNIT ( ) SI_UNIT ( $, .RADIAN. ) );
#3 = DIRECTION ( 'NONE',  ( -1.235333384407726369E-16, 1.000000000000000000, 0.000000000000000000 ) ) ;
#4 = VECTOR ( 'NONE', #109, 1000.000000000000000 ) ;
#5 = VECTOR ( 'NONE', #159, 1000.000000000000000 ) ;
#6 =( NAMED_UNIT ( * ) PLANE_ANGLE_UNIT ( ) SI_UNIT ( $, .RADIAN. ) );
#7 = DIRECTION ( 'NONE',  ( 1.000000000000000000, 1.314184451497581013E-16, 0.000000000000000000 ) ) ;
#8 = ADVANCED_FACE ( 'NONE', ( #214 ), #50, .F. ) ;
#9 = PLANE ( 'NONE',  #86 ) ;
#10 = STYLED_ITEM ( 'NONE', ( #209 ), #8 ) ;
#11 = VECTOR ( 'NONE', #158, 1000.000000000000000 ) ;
#12 = VERTEX_POINT ( 'NONE', #382 ) ;
#13 = EDGE_CURVE ( 'NONE', #12, #35, #100, .T. ) ;
#14 = FILL_AREA_STYLE ('',( #181 ) ) ;
#15 = PRESENTATION_STYLE_ASSIGNMENT (( #213 ) ) ;
#16 = CARTESIAN_POINT ( 'NONE',  ( -70.00000000000000000, 7.213999999999992419, 0.000000000000000000 ) ) ;
#17 = DIRECTION ( 'NONE',  ( 0.000000000000000000, 1.000000000000000000, 0.000000000000000000 ) ) ;
#18 =( GEOMETRIC_REPRESENTATION_CONTEXT ( 3 ) GLOBAL_UNCERTAINTY_ASSIGNED_CONTEXT ( ( #505 ) ) GLOBAL_UNIT_ASSIGNED_CONTEXT ( ( #478, #273, #103 ) ) REPRESENTATION_CONTEXT ( 'NONE', 'WORKASPACE' ) );
#19 = AXIS2_PLACEMENT_3D ( 'NONE', #101, #269, #189 ) ;
#20 = ADVANCED_FACE ( 'NONE', ( #379 ), #9, .F. ) ;
#21 = LINE ( 'NONE', #432, #42 ) ;
#22 = FILL_AREA_STYLE_COLOUR ( '', #320 ) ;
#23 = CARTESIAN_POINT ( 'NONE',  ( 95.00000000000000000, 7.214000000000013735, 0.000000000000000000 ) ) ;
#24 = LINE ( 'NONE', #259, #302 ) ;
#25 = FILL_AREA_STYLE ('',( #22 ) ) ;
#26 = DIRECTION ( 'NONE',  ( -0.000000000000000000, -0.000000000000000000, -1.000000000000000000 ) ) ;
#27 = FILL_AREA_STYLE_COLOUR ( '', #229 ) ;
#28 = VECTOR ( 'NONE', #442, 1000.000000000000000 ) ;
#29 = FACE_OUTER_BOUND ( 'NONE', #504, .T. ) ;
#30 = ADVANCED_FACE ( 'NONE', ( #386 ), #263, .T. ) ;
#31 = UNCERTAINTY_MEASURE_WITH_UNIT (LENGTH_MEASURE( 1.000000000000000082E-05 ), #147, 'distance_accuracy_value', 'NONE');
#32 = DIRECTION ( 'NONE',  ( -1.000000000000000000, -1.314184451497581013E-16, 0.000000000000000000 ) ) ;
#33 = ORIENTED_EDGE ( 'NONE', *, *, #206, .T. ) ;
#34 = PLANE ( 'NONE',  #141 ) ;
#35 = VERTEX_POINT ( 'NONE', #16 ) ;
#36 = DIRECTION ( 'NONE',  ( 0.000000000000000000, 0.000000000000000000, 1.000000000000000000 ) ) ;
#37 = FILL_AREA_STYLE_COLOUR ( '', #439 ) ;
#38 = UNCERTAINTY_MEASURE_WITH_UNIT (LENGTH_MEASURE( 1.000000000000000082E-05 ), #61, 'distance_accuracy_value', 'NONE');
#39 = FILL_AREA_STYLE_COLOUR ( '', #318 ) ;
#40 = ORIENTED_EDGE ( 'NONE', *, *, #144, .T. ) ;
#41 = AXIS2_PLACEMENT_3D ( 'NONE', #501, #499, #252 ) ;
#42 = VECTOR ( 'NONE', #301, 1000.000000000000000 ) ;
#43 = CARTESIAN_POINT ( 'NONE',  ( 95.00000000000000000, 2.214000000000012403, 0.05080000000000000487 ) ) ;
#44 = ORIENTED_EDGE ( 'NONE', *, *, #92, .F. ) ;
#45 = DIRECTION ( 'NONE',  ( -1.235333384407726369E-16, 1.000000000000000000, 0.000000000000000000 ) ) ;
#46 = VERTEX_POINT ( 'NONE', #183 ) ;
#47 = SURFACE_STYLE_USAGE ( .BOTH. , #498 ) ;
#48 = AXIS2_PLACEMENT_3D ( 'NONE', #492, #411, #79 ) ;
#49 = FILL_AREA_STYLE ('',( #98 ) ) ;
#50 = PLANE ( 'NONE',  #309 ) ;
#51 = EDGE_CURVE ( 'NONE', #336, #243, #258, .T. ) ;
#52 =( NAMED_UNIT ( * ) SI_UNIT ( $, .STERADIAN. ) SOLID_ANGLE_UNIT ( ) );
#53 = STYLED_ITEM ( 'NONE', ( #260 ), #257 ) ;
#54 = PRESENTATION_LAYER_ASSIGNMENT (  '', '', ( #474 ) ) ;
#55 = ORIENTED_EDGE ( 'NONE', *, *, #92, .T. ) ;
#56 = FILL_AREA_STYLE_COLOUR ( '', #390 ) ;
#57 = UNCERTAINTY_MEASURE_WITH_UNIT (LENGTH_MEASURE( 1.000000000000000082E-05 ), #97, 'distance_accuracy_value', 'NONE');
#58 = UNCERTAINTY_MEASURE_WITH_UNIT (LENGTH_MEASURE( 1.000000000000000082E-05 ), #72, 'distance_accuracy_value', 'NONE');
#59 = DIRECTION ( 'NONE',  ( 0.000000000000000000, 1.000000000000000000, 0.000000000000000000 ) ) ;
#60 = DIRECTION ( 'NONE',  ( -1.000000000000000000, 0.000000000000000000, 0.000000000000000000 ) ) ;
#61 =( LENGTH_UNIT ( ) NAMED_UNIT ( * ) SI_UNIT ( .MILLI., .METRE. ) );
#62 = CARTESIAN_POINT ( 'NONE',  ( 95.00000000000000000, 7.214000000000013735, 173.0757401921917733 ) ) ;
#63 = CARTESIAN_POINT ( 'NONE',  ( 95.00000000000000000, 2.214000000000012403, 0.05080000000000000487 ) ) ;
#64 = VECTOR ( 'NONE', #203, 1000.000000000000000 ) ;
#65 = MECHANICAL_DESIGN_GEOMETRIC_PRESENTATION_REPRESENTATION (  '', ( #343 ), #265 ) ;
#66 = AXIS2_PLACEMENT_3D ( 'NONE', #157, #36, #447 ) ;
#67 = ADVANCED_FACE ( 'NONE', ( #430 ), #312, .F. ) ;
#68 = DIRECTION ( 'NONE',  ( 1.000000000000000000, 0.000000000000000000, -0.000000000000000000 ) ) ;
#69 = SURFACE_STYLE_FILL_AREA ( #344 ) ;
#70 = PLANE ( 'NONE',  #465 ) ;
#71 = SURFACE_STYLE_USAGE ( .BOTH. , #304 ) ;
#72 =( LENGTH_UNIT ( ) NAMED_UNIT ( * ) SI_UNIT ( .MILLI., .METRE. ) );
#73 = EDGE_CURVE ( 'NONE', #369, #451, #306, .T. ) ;
#74 = DIRECTION ( 'NONE',  ( 0.000000000000000000, 0.000000000000000000, 1.000000000000000000 ) ) ;
#75 = CARTESIAN_POINT ( 'NONE',  ( 95.00000000000000000, 7.214000000000013735, 4.000000000000003553 ) ) ;
#76 = STYLED_ITEM ( 'NONE', ( #149 ), #395 ) ;
#77 = VERTEX_POINT ( 'NONE', #428 ) ;
#78 = STYLED_ITEM ( 'NONE', ( #475 ), #472 ) ;
#79 = DIRECTION ( 'NONE',  ( 0.000000000000000000, 0.000000000000000000, -1.000000000000000000 ) ) ;
#80 = EDGE_LOOP ( 'NONE', ( #253, #482, #176, #122 ) ) ;
#81 = CARTESIAN_POINT ( 'NONE',  ( -70.00000000000000000, 7.213999999999992419, 0.05080000000000000487 ) ) ;
#82 = PRODUCT_RELATED_PRODUCT_CATEGORY ( 'part', '', ( #350 ) ) ;
#83 = VERTEX_POINT ( 'NONE', #226 ) ;
#84 =( NAMED_UNIT ( * ) SI_UNIT ( $, .STERADIAN. ) SOLID_ANGLE_UNIT ( ) );
#85 = CARTESIAN_POINT ( 'NONE',  ( 95.00000000000000000, 2.214000000000012403, 0.05080000000000000487 ) ) ;
#86 = AXIS2_PLACEMENT_3D ( 'NONE', #191, #433, #222 ) ;
#87 = ORIENTED_EDGE ( 'NONE', *, *, #182, .T. ) ;
#88 = COLOUR_RGB ( '',0.9882352941176471006, 0.7372549019607843590, 0.5176470588235293491 ) ;
#89 = VERTEX_POINT ( 'NONE', #23 ) ;
#90 = SURFACE_STYLE_USAGE ( .BOTH. , #453 ) ;
#91 = ORIENTED_EDGE ( 'NONE', *, *, #357, .F. ) ;
#92 = EDGE_CURVE ( 'NONE', #245, #207, #489, .T. ) ;
#93 = PRESENTATION_STYLE_ASSIGNMENT (( #212 ) ) ;
#94 = STYLED_ITEM ( 'NONE', ( #237 ), #104 ) ;
#95 =( GEOMETRIC_REPRESENTATION_CONTEXT ( 3 ) GLOBAL_UNCERTAINTY_ASSIGNED_CONTEXT ( ( #58 ) ) GLOBAL_UNIT_ASSIGNED_CONTEXT ( ( #72, #140, #227 ) ) REPRESENTATION_CONTEXT ( 'NONE', 'WORKASPACE' ) );
#96 = ADVANCED_BREP_SHAPE_REPRESENTATION ( '561-00009-00', ( #450, #437, #66 ), #528 ) ;
#97 =( LENGTH_UNIT ( ) NAMED_UNIT ( * ) SI_UNIT ( .MILLI., .METRE. ) );
#98 = FILL_AREA_STYLE_COLOUR ( '', #335 ) ;
#99 = ORIENTED_EDGE ( 'NONE', *, *, #13, .T. ) ;
#100 = LINE ( 'NONE', #255, #481 ) ;
#101 = CARTESIAN_POINT ( 'NONE',  ( 0.000000000000000000, 0.000000000000000000, 4.000000000000000000 ) ) ;
#102 = FILL_AREA_STYLE ('',( #471 ) ) ;
#103 =( NAMED_UNIT ( * ) SI_UNIT ( $, .STERADIAN. ) SOLID_ANGLE_UNIT ( ) );
#104 = ADVANCED_FACE ( 'NONE', ( #280 ), #124, .F. ) ;
#105 = DIRECTION ( 'NONE',  ( 1.000000000000000000, 1.235333384407726369E-16, -0.000000000000000000 ) ) ;
#106 = VECTOR ( 'NONE', #162, 1000.000000000000000 ) ;
#107 = STYLED_ITEM ( 'NONE', ( #240 ), #431 ) ;
#108 = UNCERTAINTY_MEASURE_WITH_UNIT (LENGTH_MEASURE( 1.000000000000000082E-05 ), #424, 'distance_accuracy_value', 'NONE');
#109 = DIRECTION ( 'NONE',  ( -0.000000000000000000, -0.000000000000000000, -1.000000000000000000 ) ) ;
#110 = LINE ( 'NONE', #63, #186 ) ;
#111 = DIRECTION ( 'NONE',  ( 1.000000000000000000, 0.000000000000000000, -0.000000000000000000 ) ) ;
#112 = EDGE_CURVE ( 'NONE', #12, #46, #409, .T. ) ;
#113 = CARTESIAN_POINT ( 'NONE',  ( 95.00000000000000000, 2.214000000000012403, 0.05080000000000000487 ) ) ;
#114 = CARTESIAN_POINT ( 'NONE',  ( 95.00000000000000000, 7.214000000000013735, 0.05080000000000000487 ) ) ;
#115 = PRODUCT_DEFINITION_CONTEXT ( 'detailed design', #494, 'design' ) ;
#116 = STYLED_ITEM ( 'NONE', ( #466 ), #30 ) ;
#117 = CARTESIAN_POINT ( 'NONE',  ( -70.00000000000000000, 2.213999999999991974, 0.05080000000000000487 ) ) ;
#118 = PRESENTATION_LAYER_ASSIGNMENT (  '', '', ( #53 ) ) ;
#119 = EDGE_LOOP ( 'NONE', ( #91, #446, #497, #526 ) ) ;
#120 = UNCERTAINTY_MEASURE_WITH_UNIT (LENGTH_MEASURE( 1.000000000000000082E-05 ), #137, 'distance_accuracy_value', 'NONE');
#121 = DIRECTION ( 'NONE',  ( -0.000000000000000000, -0.000000000000000000, -1.000000000000000000 ) ) ;
#122 = ORIENTED_EDGE ( 'NONE', *, *, #387, .F. ) ;
#123 = FILL_AREA_STYLE ('',( #367 ) ) ;
#124 = PLANE ( 'NONE',  #291 ) ;
#125 = SURFACE_STYLE_FILL_AREA ( #323 ) ;
#126 = PRESENTATION_LAYER_ASSIGNMENT (  '', '', ( #452 ) ) ;
#127 = ORIENTED_EDGE ( 'NONE', *, *, #131, .T. ) ;
#128 = PRODUCT_CONTEXT ( 'NONE', #220, 'mechanical' ) ;
#129 = FACE_OUTER_BOUND ( 'NONE', #286, .T. ) ;
#130 = ORIENTED_EDGE ( 'NONE', *, *, #223, .F. ) ;
#131 = EDGE_CURVE ( 'NONE', #451, #89, #156, .T. ) ;
#132 = DIRECTION ( 'NONE',  ( -0.000000000000000000, -0.000000000000000000, -1.000000000000000000 ) ) ;
#133 = CARTESIAN_POINT ( 'NONE',  ( 95.00000000000000000, 7.214000000000013735, 0.05080000000000000487 ) ) ;
#134 = VECTOR ( 'NONE', #166, 1000.000000000000000 ) ;
#135 = PRODUCT_DEFINITION_FORMATION_WITH_SPECIFIED_SOURCE ( 'ANY', '', #350, .NOT_KNOWN. ) ;
#136 = EDGE_CURVE ( 'NONE', #77, #89, #479, .T. ) ;
#137 =( LENGTH_UNIT ( ) NAMED_UNIT ( * ) SI_UNIT ( .MILLI., .METRE. ) );
#138 = SURFACE_STYLE_FILL_AREA ( #49 ) ;
#139 = FILL_AREA_STYLE ('',( #56 ) ) ;
#140 =( NAMED_UNIT ( * ) PLANE_ANGLE_UNIT ( ) SI_UNIT ( $, .RADIAN. ) );
#141 = AXIS2_PLACEMENT_3D ( 'NONE', #403, #45, #164 ) ;
#142 = MECHANICAL_DESIGN_GEOMETRIC_PRESENTATION_REPRESENTATION (  '', ( #293 ), #440 ) ;
#143 = FILL_AREA_STYLE ('',( #392 ) ) ;
#144 = EDGE_CURVE ( 'NONE', #288, #322, #371, .T. ) ;
#145 = DIRECTION ( 'NONE',  ( 1.000000000000000000, 1.235333384407726369E-16, 0.000000000000000000 ) ) ;
#146 = DIRECTION ( 'NONE',  ( 0.000000000000000000, -0.000000000000000000, 1.000000000000000000 ) ) ;
#147 =( LENGTH_UNIT ( ) NAMED_UNIT ( * ) SI_UNIT ( .MILLI., .METRE. ) );
#148 = CARTESIAN_POINT ( 'NONE',  ( -70.00000000000000000, 2.213999999999991974, 0.05080000000000000487 ) ) ;
#149 = PRESENTATION_STYLE_ASSIGNMENT (( #515 ) ) ;
#150 = COLOUR_RGB ( '',0.5019607843137254832, 1.000000000000000000, 1.000000000000000000 ) ;
#151 = EDGE_CURVE ( 'NONE', #35, #369, #321, .T. ) ;
#152 = PRESENTATION_LAYER_ASSIGNMENT (  '', '', ( #78 ) ) ;
#153 =( LENGTH_UNIT ( ) NAMED_UNIT ( * ) SI_UNIT ( .MILLI., .METRE. ) );
#154 = DIRECTION ( 'NONE',  ( 1.314184451497581013E-16, -1.000000000000000000, 0.000000000000000000 ) ) ;
#155 = SURFACE_STYLE_USAGE ( .BOTH. , #314 ) ;
#156 = LINE ( 'NONE', #283, #366 ) ;
#157 = CARTESIAN_POINT ( 'NONE',  ( 0.000000000000000000, 0.000000000000000000, 0.000000000000000000 ) ) ;
#158 = DIRECTION ( 'NONE',  ( -0.000000000000000000, -0.000000000000000000, -1.000000000000000000 ) ) ;
#159 = DIRECTION ( 'NONE',  ( 1.000000000000000000, 1.235333384407726369E-16, -0.000000000000000000 ) ) ;
#160 = ORIENTED_EDGE ( 'NONE', *, *, #144, .F. ) ;
#161 = MECHANICAL_DESIGN_GEOMETRIC_PRESENTATION_REPRESENTATION (  '', ( #94 ), #525 ) ;
#162 = DIRECTION ( 'NONE',  ( -0.000000000000000000, -0.000000000000000000, -1.000000000000000000 ) ) ;
#163 = EDGE_LOOP ( 'NONE', ( #530, #325, #412, #33 ) ) ;
#164 = DIRECTION ( 'NONE',  ( -1.000000000000000000, -1.235333384407726369E-16, 0.000000000000000000 ) ) ;
#165 = UNCERTAINTY_MEASURE_WITH_UNIT (LENGTH_MEASURE( 1.000000000000000082E-05 ), #362, 'distance_accuracy_value', 'NONE');
#166 = DIRECTION ( 'NONE',  ( -0.000000000000000000, -0.000000000000000000, -1.000000000000000000 ) ) ;
#167 = ORIENTED_EDGE ( 'NONE', *, *, #387, .T. ) ;
#168 =( NAMED_UNIT ( * ) SI_UNIT ( $, .STERADIAN. ) SOLID_ANGLE_UNIT ( ) );
#169 = SURFACE_STYLE_FILL_AREA ( #363 ) ;
#170 = PRESENTATION_STYLE_ASSIGNMENT (( #443 ) ) ;
#171 = EDGE_CURVE ( 'NONE', #336, #245, #480, .T. ) ;
#172 = EDGE_LOOP ( 'NONE', ( #44, #167, #87, #281 ) ) ;
#173 = MECHANICAL_DESIGN_GEOMETRIC_PRESENTATION_REPRESENTATION (  '', ( #397 ), #219 ) ;
#174 =( NAMED_UNIT ( * ) SI_UNIT ( $, .STERADIAN. ) SOLID_ANGLE_UNIT ( ) );
#175 = SURFACE_SIDE_STYLE ('',( #138 ) ) ;
#176 = ORIENTED_EDGE ( 'NONE', *, *, #365, .T. ) ;
#177 = ORIENTED_EDGE ( 'NONE', *, *, #131, .F. ) ;
#178 = COLOUR_RGB ( '',0.9882352941176471006, 0.7372549019607843590, 0.5176470588235293491 ) ;
#179 =( LENGTH_UNIT ( ) NAMED_UNIT ( * ) SI_UNIT ( .MILLI., .METRE. ) );
#180 = PRESENTATION_LAYER_ASSIGNMENT (  '', '', ( #293 ) ) ;
#181 = FILL_AREA_STYLE_COLOUR ( '', #415 ) ;
#182 = EDGE_CURVE ( 'NONE', #83, #1, #399, .T. ) ;
#183 = CARTESIAN_POINT ( 'NONE',  ( -70.00000000000000000, 2.213999999999991974, 0.05080000000000000487 ) ) ;
#184 = STYLED_ITEM ( 'NONE', ( #358 ), #67 ) ;
#185 = MECHANICAL_DESIGN_GEOMETRIC_PRESENTATION_REPRESENTATION (  '', ( #53 ), #18 ) ;
#186 = VECTOR ( 'NONE', #398, 1000.000000000000000 ) ;
#187 = DIRECTION ( 'NONE',  ( -1.000000000000000000, -1.314184451497581013E-16, 0.000000000000000000 ) ) ;
#188 = VECTOR ( 'NONE', #468, 1000.000000000000000 ) ;
#189 = DIRECTION ( 'NONE',  ( 1.000000000000000000, 0.000000000000000000, -0.000000000000000000 ) ) ;
#190 = LINE ( 'NONE', #270, #355 ) ;
#191 = CARTESIAN_POINT ( 'NONE',  ( -70.00000000000000000, 7.213999999999992419, 173.0757401921917733 ) ) ;
#192 = SURFACE_STYLE_FILL_AREA ( #25 ) ;
#193 = MECHANICAL_DESIGN_GEOMETRIC_PRESENTATION_REPRESENTATION (  '', ( #116 ), #374 ) ;
#194 = CARTESIAN_POINT ( 'NONE',  ( 95.00000000000000000, 7.214000000000013735, 0.05080000000000000487 ) ) ;
#195 = DIRECTION ( 'NONE',  ( 0.000000000000000000, -1.000000000000000000, 0.000000000000000000 ) ) ;
#196 = ORIENTED_EDGE ( 'NONE', *, *, #112, .F. ) ;
#197 = CARTESIAN_POINT ( 'NONE',  ( -70.00000000000000000, 7.213999999999992419, 4.000000000000003553 ) ) ;
#198 = EDGE_LOOP ( 'NONE', ( #460, #40, #500, #405 ) ) ;
#199 =( GEOMETRIC_REPRESENTATION_CONTEXT ( 3 ) GLOBAL_UNCERTAINTY_ASSIGNED_CONTEXT ( ( #57 ) ) GLOBAL_UNIT_ASSIGNED_CONTEXT ( ( #97, #419, #511 ) ) REPRESENTATION_CONTEXT ( 'NONE', 'WORKASPACE' ) );
#200 =( NAMED_UNIT ( * ) PLANE_ANGLE_UNIT ( ) SI_UNIT ( $, .RADIAN. ) );
#201 = EDGE_LOOP ( 'NONE', ( #328, #130, #196, #99 ) ) ;
#202 = SURFACE_STYLE_FILL_AREA ( #319 ) ;
#203 = DIRECTION ( 'NONE',  ( -0.000000000000000000, -1.000000000000000000, -0.000000000000000000 ) ) ;
#204 = ORIENTED_EDGE ( 'NONE', *, *, #206, .F. ) ;
#205 = SURFACE_STYLE_USAGE ( .BOTH. , #408 ) ;
#206 = EDGE_CURVE ( 'NONE', #46, #490, #360, .T. ) ;
#207 = VERTEX_POINT ( 'NONE', #485 ) ;
#208 = MECHANICAL_DESIGN_GEOMETRIC_PRESENTATION_REPRESENTATION (  '', ( #452 ), #199 ) ;
#209 = PRESENTATION_STYLE_ASSIGNMENT (( #47 ) ) ;
#210 = VECTOR ( 'NONE', #187, 1000.000000000000000 ) ;
#211 = COLOUR_RGB ( '',0.9882352941176471006, 0.7372549019607843590, 0.5176470588235293491 ) ;
#212 = SURFACE_STYLE_USAGE ( .BOTH. , #414 ) ;
#213 = SURFACE_STYLE_USAGE ( .BOTH. , #334 ) ;
#214 = FACE_OUTER_BOUND ( 'NONE', #242, .T. ) ;
#215 = AXIS2_PLACEMENT_3D ( 'NONE', #435, #60, #74 ) ;
#216 = ORIENTED_EDGE ( 'NONE', *, *, #136, .T. ) ;
#217 = LINE ( 'NONE', #393, #188 ) ;
#218 = PRESENTATION_LAYER_ASSIGNMENT (  '', '', ( #94 ) ) ;
#219 =( GEOMETRIC_REPRESENTATION_CONTEXT ( 3 ) GLOBAL_UNCERTAINTY_ASSIGNED_CONTEXT ( ( #488 ) ) GLOBAL_UNIT_ASSIGNED_CONTEXT ( ( #179, #6, #420 ) ) REPRESENTATION_CONTEXT ( 'NONE', 'WORKASPACE' ) );
#220 = APPLICATION_CONTEXT ( 'automotive_design' ) ;
#221 = CARTESIAN_POINT ( 'NONE',  ( -70.00000000000000000, 7.213999999999992419, 173.0757401921917733 ) ) ;
#222 = DIRECTION ( 'NONE',  ( -0.000000000000000000, 0.000000000000000000, -1.000000000000000000 ) ) ;
#223 = EDGE_CURVE ( 'NONE', #46, #369, #316, .T. ) ;
#224 = FACE_OUTER_BOUND ( 'NONE', #455, .T. ) ;
#225 =( NAMED_UNIT ( * ) SI_UNIT ( $, .STERADIAN. ) SOLID_ANGLE_UNIT ( ) );
#226 = CARTESIAN_POINT ( 'NONE',  ( -70.00000000000000000, 7.213999999999992419, 0.05080000000000000487 ) ) ;
#227 =( NAMED_UNIT ( * ) SI_UNIT ( $, .STERADIAN. ) SOLID_ANGLE_UNIT ( ) );
#228 = CARTESIAN_POINT ( 'NONE',  ( 95.00000000000000000, 2.214000000000012403, 0.05080000000000000487 ) ) ;
#229 = COLOUR_RGB ( '',0.5019607843137254832, 1.000000000000000000, 1.000000000000000000 ) ;
#230 = MECHANICAL_DESIGN_GEOMETRIC_PRESENTATION_REPRESENTATION (  '', ( #76 ), #484 ) ;
#231 = UNCERTAINTY_MEASURE_WITH_UNIT (LENGTH_MEASURE( 1.000000000000000082E-05 ), #496, 'distance_accuracy_value', 'NONE');
#232 =( LENGTH_UNIT ( ) NAMED_UNIT ( * ) SI_UNIT ( .MILLI., .METRE. ) );
#233 = EDGE_LOOP ( 'NONE', ( #177, #251, #402, #523 ) ) ;
#234 =( NAMED_UNIT ( * ) SI_UNIT ( $, .STERADIAN. ) SOLID_ANGLE_UNIT ( ) );
#235 = FILL_AREA_STYLE_COLOUR ( '', #454 ) ;
#236 = UNCERTAINTY_MEASURE_WITH_UNIT (LENGTH_MEASURE( 1.000000000000000082E-05 ), #232, 'distance_accuracy_value', 'NONE');
#237 = PRESENTATION_STYLE_ASSIGNMENT (( #445 ) ) ;
#238 = ORIENTED_EDGE ( 'NONE', *, *, #136, .F. ) ;
#239 = APPLICATION_PROTOCOL_DEFINITION ( 'draft international standard', 'automotive_design', 1998, #494 ) ;
#240 = PRESENTATION_STYLE_ASSIGNMENT (( #90 ) ) ;
#241 = CLOSED_SHELL ( 'NONE', ( #431, #444, #457, #20, #104, #472 ) ) ;
#242 = EDGE_LOOP ( 'NONE', ( #341, #339, #364, #216 ) ) ;
#243 = VERTEX_POINT ( 'NONE', #114 ) ;
#244 = PRESENTATION_STYLE_ASSIGNMENT (( #205 ) ) ;
#245 = VERTEX_POINT ( 'NONE', #476 ) ;
#246 = FACE_OUTER_BOUND ( 'NONE', #198, .T. ) ;
#247 = VECTOR ( 'NONE', #105, 1000.000000000000000 ) ;
#248 = STYLED_ITEM ( 'NONE', ( #170 ), #413 ) ;
#249 = MECHANICAL_DESIGN_GEOMETRIC_PRESENTATION_REPRESENTATION (  '', ( #474 ), #493 ) ;
#250 = PRESENTATION_STYLE_ASSIGNMENT (( #332 ) ) ;
#251 = ORIENTED_EDGE ( 'NONE', *, *, #73, .F. ) ;
#252 = DIRECTION ( 'NONE',  ( 0.000000000000000000, 0.000000000000000000, 1.000000000000000000 ) ) ;
#253 = ORIENTED_EDGE ( 'NONE', *, *, #171, .F. ) ;
#254 =( NAMED_UNIT ( * ) PLANE_ANGLE_UNIT ( ) SI_UNIT ( $, .RADIAN. ) );
#255 = CARTESIAN_POINT ( 'NONE',  ( -70.00000000000000000, 7.213999999999992419, 0.05080000000000000487 ) ) ;
#256 = AXIS2_PLACEMENT_3D ( 'NONE', #477, #146, #111 ) ;
#257 = ADVANCED_FACE ( 'NONE', ( #29 ), #349, .F. ) ;
#258 = LINE ( 'NONE', #425, #4 ) ;
#259 = CARTESIAN_POINT ( 'NONE',  ( 95.00000000000000000, 2.214000000000012403, 4.000000000000003553 ) ) ;
#260 = PRESENTATION_STYLE_ASSIGNMENT (( #155 ) ) ;
#261 = FILL_AREA_STYLE ('',( #27 ) ) ;
#262 = LINE ( 'NONE', #427, #11 ) ;
#263 = PLANE ( 'NONE',  #438 ) ;
#264 = VECTOR ( 'NONE', #32, 1000.000000000000000 ) ;
#265 =( GEOMETRIC_REPRESENTATION_CONTEXT ( 3 ) GLOBAL_UNCERTAINTY_ASSIGNED_CONTEXT ( ( #282 ) ) GLOBAL_UNIT_ASSIGNED_CONTEXT ( ( #340, #254, #52 ) ) REPRESENTATION_CONTEXT ( 'NONE', 'WORKASPACE' ) );
#266 = PRODUCT_DEFINITION_SHAPE ( 'NONE', 'NONE',  #347 ) ;
#267 = FACE_OUTER_BOUND ( 'NONE', #284, .T. ) ;
#268 = DIRECTION ( 'NONE',  ( 0.000000000000000000, -0.000000000000000000, 1.000000000000000000 ) ) ;
#269 = DIRECTION ( 'NONE',  ( 0.000000000000000000, -0.000000000000000000, 1.000000000000000000 ) ) ;
#270 = CARTESIAN_POINT ( 'NONE',  ( 95.00000000000000000, 7.214000000000013735, 0.05080000000000000487 ) ) ;
#271 = SURFACE_STYLE_FILL_AREA ( #261 ) ;
#272 = LINE ( 'NONE', #434, #508 ) ;
#273 =( NAMED_UNIT ( * ) PLANE_ANGLE_UNIT ( ) SI_UNIT ( $, .RADIAN. ) );
#274 = SURFACE_SIDE_STYLE ('',( #169 ) ) ;
#275 = EDGE_CURVE ( 'NONE', #77, #12, #305, .T. ) ;
#276 = PRESENTATION_LAYER_ASSIGNMENT (  '', '', ( #184 ) ) ;
#277 = PRESENTATION_LAYER_ASSIGNMENT (  '', '', ( #248 ) ) ;
#278 = ORIENTED_EDGE ( 'NONE', *, *, #338, .F. ) ;
#279 =( NAMED_UNIT ( * ) SI_UNIT ( $, .STERADIAN. ) SOLID_ANGLE_UNIT ( ) );
#280 = FACE_OUTER_BOUND ( 'NONE', #119, .T. ) ;
#281 = ORIENTED_EDGE ( 'NONE', *, *, #376, .F. ) ;
#282 = UNCERTAINTY_MEASURE_WITH_UNIT (LENGTH_MEASURE( 1.000000000000000082E-05 ), #340, 'distance_accuracy_value', 'NONE');
#283 = CARTESIAN_POINT ( 'NONE',  ( 95.00000000000000000, 2.214000000000012403, 0.000000000000000000 ) ) ;
#284 = EDGE_LOOP ( 'NONE', ( #495, #278, #204, #486 ) ) ;
#285 = VECTOR ( 'NONE', #145, 1000.000000000000000 ) ;
#286 = EDGE_LOOP ( 'NONE', ( #361, #400, #422, #160 ) ) ;
#287 = FILL_AREA_STYLE_COLOUR ( '', #178 ) ;
#288 = VERTEX_POINT ( 'NONE', #469 ) ;
#289 = SURFACE_STYLE_FILL_AREA ( #14 ) ;
#290 =( NAMED_UNIT ( * ) SI_UNIT ( $, .STERADIAN. ) SOLID_ANGLE_UNIT ( ) );
#291 = AXIS2_PLACEMENT_3D ( 'NONE', #404, #315, #436 ) ;
#292 = MECHANICAL_DESIGN_GEOMETRIC_PRESENTATION_REPRESENTATION (  '', ( #248 ), #506 ) ;
#293 = STYLED_ITEM ( 'NONE', ( #463 ), #457 ) ;
#294 = CARTESIAN_POINT ( 'NONE',  ( 95.00000000000000000, 2.214000000000012403, 0.000000000000000000 ) ) ;
#295 = ORIENTED_EDGE ( 'NONE', *, *, #467, .T. ) ;
#296 = EDGE_CURVE ( 'NONE', #490, #77, #110, .T. ) ;
#297 = SURFACE_STYLE_USAGE ( .BOTH. , #461 ) ;
#298 = SURFACE_SIDE_STYLE ('',( #271 ) ) ;
#299 = CLOSED_SHELL ( 'NONE', ( #257, #8, #413, #395, #30, #67 ) ) ;
#300 = COLOUR_RGB ( '',0.5019607843137254832, 1.000000000000000000, 1.000000000000000000 ) ;
#301 = DIRECTION ( 'NONE',  ( 1.000000000000000000, 1.235333384407726369E-16, 0.000000000000000000 ) ) ;
#302 = VECTOR ( 'NONE', #17, 1000.000000000000000 ) ;
#303 = UNCERTAINTY_MEASURE_WITH_UNIT (LENGTH_MEASURE( 1.000000000000000082E-05 ), #396, 'distance_accuracy_value', 'NONE');
#304 = SURFACE_SIDE_STYLE ('',( #353 ) ) ;
#305 = LINE ( 'NONE', #194, #210 ) ;
#306 = LINE ( 'NONE', #470, #247 ) ;
#307 = DIRECTION ( 'NONE',  ( -1.000000000000000000, -1.314184451497581013E-16, 0.000000000000000000 ) ) ;
#308 =( NAMED_UNIT ( * ) SI_UNIT ( $, .STERADIAN. ) SOLID_ANGLE_UNIT ( ) );
#309 = AXIS2_PLACEMENT_3D ( 'NONE', #133, #462, #7 ) ;
#310 = VECTOR ( 'NONE', #391, 1000.000000000000000 ) ;
#311 = LINE ( 'NONE', #221, #310 ) ;
#312 = PLANE ( 'NONE',  #256 ) ;
#313 = DIRECTION ( 'NONE',  ( 1.000000000000000000, 1.314184451497581013E-16, 0.000000000000000000 ) ) ;
#314 = SURFACE_SIDE_STYLE ('',( #519 ) ) ;
#315 = DIRECTION ( 'NONE',  ( 0.000000000000000000, 0.000000000000000000, 1.000000000000000000 ) ) ;
#316 = LINE ( 'NONE', #117, #527 ) ;
#317 = ORIENTED_EDGE ( 'NONE', *, *, #503, .T. ) ;
#318 = COLOUR_RGB ( '',0.9882352941176471006, 0.7372549019607843590, 0.5176470588235293491 ) ;
#319 = FILL_AREA_STYLE ('',( #235 ) ) ;
#320 = COLOUR_RGB ( '',0.5019607843137254832, 1.000000000000000000, 1.000000000000000000 ) ;
#321 = LINE ( 'NONE', #324, #429 ) ;
#322 = VERTEX_POINT ( 'NONE', #510 ) ;
#323 = FILL_AREA_STYLE ('',( #287 ) ) ;
#324 = CARTESIAN_POINT ( 'NONE',  ( -70.00000000000000000, 2.213999999999991974, 0.000000000000000000 ) ) ;
#325 = ORIENTED_EDGE ( 'NONE', *, *, #275, .T. ) ;
#326 = SURFACE_SIDE_STYLE ('',( #202 ) ) ;
#327 = DIRECTION ( 'NONE',  ( 0.000000000000000000, 1.000000000000000000, 0.000000000000000000 ) ) ;
#328 = ORIENTED_EDGE ( 'NONE', *, *, #151, .T. ) ;
#329 =( NAMED_UNIT ( * ) PLANE_ANGLE_UNIT ( ) SI_UNIT ( $, .RADIAN. ) );
#330 =( GEOMETRIC_REPRESENTATION_CONTEXT ( 3 ) GLOBAL_UNCERTAINTY_ASSIGNED_CONTEXT ( ( #120 ) ) GLOBAL_UNIT_ASSIGNED_CONTEXT ( ( #137, #377, #174 ) ) REPRESENTATION_CONTEXT ( 'NONE', 'WORKASPACE' ) );
#331 = PRESENTATION_LAYER_ASSIGNMENT (  '', '', ( #107 ) ) ;
#332 = SURFACE_STYLE_USAGE ( .BOTH. , #175 ) ;
#333 = CARTESIAN_POINT ( 'NONE',  ( -70.00000000000000000, 2.213999999999991974, 0.05080000000000000487 ) ) ;
#334 = SURFACE_SIDE_STYLE ('',( #337 ) ) ;
#335 = COLOUR_RGB ( '',0.5019607843137254832, 1.000000000000000000, 1.000000000000000000 ) ;
#336 = VERTEX_POINT ( 'NONE', #520 ) ;
#337 = SURFACE_STYLE_FILL_AREA ( #418 ) ;
#338 = EDGE_CURVE ( 'NONE', #490, #451, #345, .T. ) ;
#339 = ORIENTED_EDGE ( 'NONE', *, *, #13, .F. ) ;
#340 =( LENGTH_UNIT ( ) NAMED_UNIT ( * ) SI_UNIT ( .MILLI., .METRE. ) );
#341 = ORIENTED_EDGE ( 'NONE', *, *, #522, .T. ) ;
#342 =( NAMED_UNIT ( * ) PLANE_ANGLE_UNIT ( ) SI_UNIT ( $, .RADIAN. ) );
#343 = STYLED_ITEM ( 'NONE', ( #15 ), #444 ) ;
#344 = FILL_AREA_STYLE ('',( #514 ) ) ;
#345 = LINE ( 'NONE', #228, #518 ) ;
#346 = SURFACE_STYLE_USAGE ( .BOTH. , #298 ) ;
#347 = PRODUCT_DEFINITION ( 'UNKNOWN', '', #135, #115 ) ;
#348 = SURFACE_SIDE_STYLE ('',( #69 ) ) ;
#349 = PLANE ( 'NONE',  #215 ) ;
#350 = PRODUCT ( '561-00009-00', '561-00009-00', '', ( #128 ) ) ;
#351 =( NAMED_UNIT ( * ) PLANE_ANGLE_UNIT ( ) SI_UNIT ( $, .RADIAN. ) );
#352 = SURFACE_SIDE_STYLE ('',( #192 ) ) ;
#353 = SURFACE_STYLE_FILL_AREA ( #143 ) ;
#354 = MECHANICAL_DESIGN_GEOMETRIC_PRESENTATION_REPRESENTATION (  '', ( #10 ), #330 ) ;
#355 = VECTOR ( 'NONE', #307, 1000.000000000000000 ) ;
#356 =( NAMED_UNIT ( * ) PLANE_ANGLE_UNIT ( ) SI_UNIT ( $, .RADIAN. ) );
#357 = EDGE_CURVE ( 'NONE', #1, #322, #394, .T. ) ;
#358 = PRESENTATION_STYLE_ASSIGNMENT (( #71 ) ) ;
#359 = CARTESIAN_POINT ( 'NONE',  ( -70.00000000000000000, 2.213999999999991974, 0.000000000000000000 ) ) ;
#360 = LINE ( 'NONE', #85, #5 ) ;
#361 = ORIENTED_EDGE ( 'NONE', *, *, #467, .F. ) ;
#362 =( LENGTH_UNIT ( ) NAMED_UNIT ( * ) SI_UNIT ( .MILLI., .METRE. ) );
#363 = FILL_AREA_STYLE ('',( #39 ) ) ;
#364 = ORIENTED_EDGE ( 'NONE', *, *, #275, .F. ) ;
#365 = EDGE_CURVE ( 'NONE', #243, #83, #190, .T. ) ;
#366 = VECTOR ( 'NONE', #327, 1000.000000000000000 ) ;
#367 = FILL_AREA_STYLE_COLOUR ( '', #88 ) ;
#368 = UNCERTAINTY_MEASURE_WITH_UNIT (LENGTH_MEASURE( 1.000000000000000082E-05 ), #401, 'distance_accuracy_value', 'NONE');
#369 = VERTEX_POINT ( 'NONE', #359 ) ;
#370 = SHAPE_DEFINITION_REPRESENTATION ( #266, #96 ) ;
#371 = LINE ( 'NONE', #532, #134 ) ;
#372 = ORIENTED_EDGE ( 'NONE', *, *, #296, .F. ) ;
#373 = DIRECTION ( 'NONE',  ( -1.000000000000000000, -1.235333384407726369E-16, 0.000000000000000000 ) ) ;
#374 =( GEOMETRIC_REPRESENTATION_CONTEXT ( 3 ) GLOBAL_UNCERTAINTY_ASSIGNED_CONTEXT ( ( #524 ) ) GLOBAL_UNIT_ASSIGNED_CONTEXT ( ( #153, #342, #308 ) ) REPRESENTATION_CONTEXT ( 'NONE', 'WORKASPACE' ) );
#375 = MECHANICAL_DESIGN_GEOMETRIC_PRESENTATION_REPRESENTATION (  '', ( #107 ), #389 ) ;
#376 = EDGE_CURVE ( 'NONE', #207, #1, #262, .T. ) ;
#377 =( NAMED_UNIT ( * ) PLANE_ANGLE_UNIT ( ) SI_UNIT ( $, .RADIAN. ) );
#378 = ORIENTED_EDGE ( 'NONE', *, *, #338, .T. ) ;
#379 = FACE_OUTER_BOUND ( 'NONE', #172, .T. ) ;
#380 = PRESENTATION_LAYER_ASSIGNMENT (  '', '', ( #116 ) ) ;
#381 = PRESENTATION_LAYER_ASSIGNMENT (  '', '', ( #397 ) ) ;
#382 = CARTESIAN_POINT ( 'NONE',  ( -70.00000000000000000, 7.213999999999992419, 0.05080000000000000487 ) ) ;
#383 =( NAMED_UNIT ( * ) PLANE_ANGLE_UNIT ( ) SI_UNIT ( $, .RADIAN. ) );
#384 = FILL_AREA_STYLE ('',( #417 ) ) ;
#385 = PLANE ( 'NONE',  #458 ) ;
#386 = FACE_OUTER_BOUND ( 'NONE', #163, .T. ) ;
#387 = EDGE_CURVE ( 'NONE', #245, #83, #311, .T. ) ;
#388 =( GEOMETRIC_REPRESENTATION_CONTEXT ( 3 ) GLOBAL_UNCERTAINTY_ASSIGNED_CONTEXT ( ( #38 ) ) GLOBAL_UNIT_ASSIGNED_CONTEXT ( ( #61, #351, #516 ) ) REPRESENTATION_CONTEXT ( 'NONE', 'WORKASPACE' ) );
#389 =( GEOMETRIC_REPRESENTATION_CONTEXT ( 3 ) GLOBAL_UNCERTAINTY_ASSIGNED_CONTEXT ( ( #165 ) ) GLOBAL_UNIT_ASSIGNED_CONTEXT ( ( #362, #487, #279 ) ) REPRESENTATION_CONTEXT ( 'NONE', 'WORKASPACE' ) );
#390 = COLOUR_RGB ( '',0.9882352941176471006, 0.7372549019607843590, 0.5176470588235293491 ) ;
#391 = DIRECTION ( 'NONE',  ( -0.000000000000000000, -0.000000000000000000, -1.000000000000000000 ) ) ;
#392 = FILL_AREA_STYLE_COLOUR ( '', #150 ) ;
#393 = CARTESIAN_POINT ( 'NONE',  ( 95.00000000000000000, 7.214000000000013735, 0.000000000000000000 ) ) ;
#394 = LINE ( 'NONE', #148, #285 ) ;
#395 = ADVANCED_FACE ( 'NONE', ( #267 ), #70, .F. ) ;
#396 =( LENGTH_UNIT ( ) NAMED_UNIT ( * ) SI_UNIT ( .MILLI., .METRE. ) );
#397 = STYLED_ITEM ( 'NONE', ( #244 ), #437 ) ;
#398 = DIRECTION ( 'NONE',  ( 0.000000000000000000, 1.000000000000000000, 0.000000000000000000 ) ) ;
#399 = LINE ( 'NONE', #81, #407 ) ;
#400 = ORIENTED_EDGE ( 'NONE', *, *, #376, .T. ) ;
#401 =( LENGTH_UNIT ( ) NAMED_UNIT ( * ) SI_UNIT ( .MILLI., .METRE. ) );
#402 = ORIENTED_EDGE ( 'NONE', *, *, #151, .F. ) ;
#403 = CARTESIAN_POINT ( 'NONE',  ( -70.00000000000000000, 2.213999999999991974, 173.0757401921917733 ) ) ;
#404 = CARTESIAN_POINT ( 'NONE',  ( 0.000000000000000000, 0.000000000000000000, 0.05080000000000000487 ) ) ;
#405 = ORIENTED_EDGE ( 'NONE', *, *, #51, .F. ) ;
#406 =( NAMED_UNIT ( * ) SI_UNIT ( $, .STERADIAN. ) SOLID_ANGLE_UNIT ( ) );
#407 = VECTOR ( 'NONE', #195, 1000.000000000000000 ) ;
#408 = SURFACE_SIDE_STYLE ('',( #448 ) ) ;
#409 = LINE ( 'NONE', #529, #64 ) ;
#410 = ORIENTED_EDGE ( 'NONE', *, *, #171, .T. ) ;
#411 = DIRECTION ( 'NONE',  ( 1.000000000000000000, 0.000000000000000000, 0.000000000000000000 ) ) ;
#412 = ORIENTED_EDGE ( 'NONE', *, *, #112, .T. ) ;
#413 = ADVANCED_FACE ( 'NONE', ( #531 ), #441, .F. ) ;
#414 = SURFACE_SIDE_STYLE ('',( #289 ) ) ;
#415 = COLOUR_RGB ( '',0.9882352941176471006, 0.7372549019607843590, 0.5176470588235293491 ) ;
#416 = PRESENTATION_LAYER_ASSIGNMENT (  '', '', ( #343 ) ) ;
#417 = FILL_AREA_STYLE_COLOUR ( '', #464 ) ;
#418 = FILL_AREA_STYLE ('',( #37 ) ) ;
#419 =( NAMED_UNIT ( * ) PLANE_ANGLE_UNIT ( ) SI_UNIT ( $, .RADIAN. ) );
#420 =( NAMED_UNIT ( * ) SI_UNIT ( $, .STERADIAN. ) SOLID_ANGLE_UNIT ( ) );
#421 = PLANE ( 'NONE',  #41 ) ;
#422 = ORIENTED_EDGE ( 'NONE', *, *, #357, .T. ) ;
#423 = MECHANICAL_DESIGN_GEOMETRIC_PRESENTATION_REPRESENTATION (  '', ( #78 ), #95 ) ;
#424 =( LENGTH_UNIT ( ) NAMED_UNIT ( * ) SI_UNIT ( .MILLI., .METRE. ) );
#425 = CARTESIAN_POINT ( 'NONE',  ( 95.00000000000000000, 7.214000000000013735, 173.0757401921917733 ) ) ;
#426 =( NAMED_UNIT ( * ) PLANE_ANGLE_UNIT ( ) SI_UNIT ( $, .RADIAN. ) );
#427 = CARTESIAN_POINT ( 'NONE',  ( -70.00000000000000000, 2.213999999999991974, 173.0757401921917733 ) ) ;
#428 = CARTESIAN_POINT ( 'NONE',  ( 95.00000000000000000, 7.214000000000013735, 0.05080000000000000487 ) ) ;
#429 = VECTOR ( 'NONE', #449, 1000.000000000000000 ) ;
#430 = FACE_OUTER_BOUND ( 'NONE', #233, .T. ) ;
#431 = ADVANCED_FACE ( 'NONE', ( #129 ), #34, .F. ) ;
#432 = CARTESIAN_POINT ( 'NONE',  ( -70.00000000000000000, 2.213999999999991974, 4.000000000000003553 ) ) ;
#433 = DIRECTION ( 'NONE',  ( 1.000000000000000000, 0.000000000000000000, -0.000000000000000000 ) ) ;
#434 = CARTESIAN_POINT ( 'NONE',  ( 95.00000000000000000, 2.214000000000012403, 0.05080000000000000487 ) ) ;
#435 = CARTESIAN_POINT ( 'NONE',  ( 95.00000000000000000, 2.214000000000012403, 0.05080000000000000487 ) ) ;
#436 = DIRECTION ( 'NONE',  ( 1.000000000000000000, 0.000000000000000000, -0.000000000000000000 ) ) ;
#437 = MANIFOLD_SOLID_BREP ( 'Boss-Extrude2', #241 ) ;
#438 = AXIS2_PLACEMENT_3D ( 'NONE', #507, #268, #68 ) ;
#439 = COLOUR_RGB ( '',0.9882352941176471006, 0.7372549019607843590, 0.5176470588235293491 ) ;
#440 =( GEOMETRIC_REPRESENTATION_CONTEXT ( 3 ) GLOBAL_UNCERTAINTY_ASSIGNED_CONTEXT ( ( #231 ) ) GLOBAL_UNIT_ASSIGNED_CONTEXT ( ( #496, #426, #225 ) ) REPRESENTATION_CONTEXT ( 'NONE', 'WORKASPACE' ) );
#441 = PLANE ( 'NONE',  #48 ) ;
#442 = DIRECTION ( 'NONE',  ( 0.000000000000000000, -1.000000000000000000, 0.000000000000000000 ) ) ;
#443 = SURFACE_STYLE_USAGE ( .BOTH. , #326 ) ;
#444 = ADVANCED_FACE ( 'NONE', ( #246 ), #421, .F. ) ;
#445 = SURFACE_STYLE_USAGE ( .BOTH. , #274 ) ;
#446 = ORIENTED_EDGE ( 'NONE', *, *, #182, .F. ) ;
#447 = DIRECTION ( 'NONE',  ( 1.000000000000000000, 0.000000000000000000, 0.000000000000000000 ) ) ;
#448 = SURFACE_STYLE_FILL_AREA ( #123 ) ;
#449 = DIRECTION ( 'NONE',  ( -0.000000000000000000, -1.000000000000000000, -0.000000000000000000 ) ) ;
#450 = MANIFOLD_SOLID_BREP ( 'Boss-Extrude1', #299 ) ;
#451 = VERTEX_POINT ( 'NONE', #294 ) ;
#452 = STYLED_ITEM ( 'NONE', ( #93 ), #20 ) ;
#453 = SURFACE_SIDE_STYLE ('',( #125 ) ) ;
#454 = COLOUR_RGB ( '',0.5019607843137254832, 1.000000000000000000, 1.000000000000000000 ) ;
#455 = EDGE_LOOP ( 'NONE', ( #55, #295, #317, #410 ) ) ;
#456 = SURFACE_STYLE_FILL_AREA ( #384 ) ;
#457 = ADVANCED_FACE ( 'NONE', ( #502 ), #385, .F. ) ;
#458 = AXIS2_PLACEMENT_3D ( 'NONE', #62, #154, #313 ) ;
#459 = SURFACE_STYLE_FILL_AREA ( #139 ) ;
#460 = ORIENTED_EDGE ( 'NONE', *, *, #503, .F. ) ;
#461 = SURFACE_SIDE_STYLE ('',( #459 ) ) ;
#462 = DIRECTION ( 'NONE',  ( 1.314184451497581013E-16, -1.000000000000000000, 0.000000000000000000 ) ) ;
#463 = PRESENTATION_STYLE_ASSIGNMENT (( #297 ) ) ;
#464 = COLOUR_RGB ( '',0.5019607843137254832, 1.000000000000000000, 1.000000000000000000 ) ;
#465 = AXIS2_PLACEMENT_3D ( 'NONE', #43, #3, #373 ) ;
#466 = PRESENTATION_STYLE_ASSIGNMENT (( #346 ) ) ;
#467 = EDGE_CURVE ( 'NONE', #207, #288, #21, .T. ) ;
#468 = DIRECTION ( 'NONE',  ( -1.000000000000000000, -1.314184451497581013E-16, 0.000000000000000000 ) ) ;
#469 = CARTESIAN_POINT ( 'NONE',  ( 95.00000000000000000, 2.214000000000012403, 4.000000000000003553 ) ) ;
#470 = CARTESIAN_POINT ( 'NONE',  ( 95.00000000000000000, 2.214000000000012403, 0.000000000000000000 ) ) ;
#471 = FILL_AREA_STYLE_COLOUR ( '', #300 ) ;
#472 = ADVANCED_FACE ( 'NONE', ( #224 ), #509, .T. ) ;
#473 = PRESENTATION_LAYER_ASSIGNMENT (  '', '', ( #10 ) ) ;
#474 = STYLED_ITEM ( 'NONE', ( #250 ), #450 ) ;
#475 = PRESENTATION_STYLE_ASSIGNMENT (( #512 ) ) ;
#476 = CARTESIAN_POINT ( 'NONE',  ( -70.00000000000000000, 7.213999999999992419, 4.000000000000003553 ) ) ;
#477 = CARTESIAN_POINT ( 'NONE',  ( 0.000000000000000000, 0.000000000000000000, 0.000000000000000000 ) ) ;
#478 =( LENGTH_UNIT ( ) NAMED_UNIT ( * ) SI_UNIT ( .MILLI., .METRE. ) );
#479 = LINE ( 'NONE', #521, #106 ) ;
#480 = LINE ( 'NONE', #75, #264 ) ;
#481 = VECTOR ( 'NONE', #132, 1000.000000000000000 ) ;
#482 = ORIENTED_EDGE ( 'NONE', *, *, #51, .T. ) ;
#483 = PRESENTATION_LAYER_ASSIGNMENT (  '', '', ( #76 ) ) ;
#484 =( GEOMETRIC_REPRESENTATION_CONTEXT ( 3 ) GLOBAL_UNCERTAINTY_ASSIGNED_CONTEXT ( ( #303 ) ) GLOBAL_UNIT_ASSIGNED_CONTEXT ( ( #396, #356, #84 ) ) REPRESENTATION_CONTEXT ( 'NONE', 'WORKASPACE' ) );
#485 = CARTESIAN_POINT ( 'NONE',  ( -70.00000000000000000, 2.213999999999991086, 4.000000000000003553 ) ) ;
#486 = ORIENTED_EDGE ( 'NONE', *, *, #223, .T. ) ;
#487 =( NAMED_UNIT ( * ) PLANE_ANGLE_UNIT ( ) SI_UNIT ( $, .RADIAN. ) );
#488 = UNCERTAINTY_MEASURE_WITH_UNIT (LENGTH_MEASURE( 1.000000000000000082E-05 ), #179, 'distance_accuracy_value', 'NONE');
#489 = LINE ( 'NONE', #197, #28 ) ;
#490 = VERTEX_POINT ( 'NONE', #113 ) ;
#491 = APPLICATION_PROTOCOL_DEFINITION ( 'draft international standard', 'automotive_design', 1998, #220 ) ;
#492 = CARTESIAN_POINT ( 'NONE',  ( -70.00000000000000000, 2.213999999999991974, 0.05080000000000000487 ) ) ;
#493 =( GEOMETRIC_REPRESENTATION_CONTEXT ( 3 ) GLOBAL_UNCERTAINTY_ASSIGNED_CONTEXT ( ( #108 ) ) GLOBAL_UNIT_ASSIGNED_CONTEXT ( ( #424, #383, #290 ) ) REPRESENTATION_CONTEXT ( 'NONE', 'WORKASPACE' ) );
#494 = APPLICATION_CONTEXT ( 'automotive_design' ) ;
#495 = ORIENTED_EDGE ( 'NONE', *, *, #73, .T. ) ;
#496 =( LENGTH_UNIT ( ) NAMED_UNIT ( * ) SI_UNIT ( .MILLI., .METRE. ) );
#497 = ORIENTED_EDGE ( 'NONE', *, *, #365, .F. ) ;
#498 = SURFACE_SIDE_STYLE ('',( #456 ) ) ;
#499 = DIRECTION ( 'NONE',  ( -1.000000000000000000, 0.000000000000000000, 0.000000000000000000 ) ) ;
#500 = ORIENTED_EDGE ( 'NONE', *, *, #513, .T. ) ;
#501 = CARTESIAN_POINT ( 'NONE',  ( 95.00000000000000000, 2.214000000000012403, 173.0757401921917733 ) ) ;
#502 = FACE_OUTER_BOUND ( 'NONE', #80, .T. ) ;
#503 = EDGE_CURVE ( 'NONE', #288, #336, #24, .T. ) ;
#504 = EDGE_LOOP ( 'NONE', ( #127, #238, #372, #378 ) ) ;
#505 = UNCERTAINTY_MEASURE_WITH_UNIT (LENGTH_MEASURE( 1.000000000000000082E-05 ), #478, 'distance_accuracy_value', 'NONE');
#506 =( GEOMETRIC_REPRESENTATION_CONTEXT ( 3 ) GLOBAL_UNCERTAINTY_ASSIGNED_CONTEXT ( ( #368 ) ) GLOBAL_UNIT_ASSIGNED_CONTEXT ( ( #401, #329, #168 ) ) REPRESENTATION_CONTEXT ( 'NONE', 'WORKASPACE' ) );
#507 = CARTESIAN_POINT ( 'NONE',  ( 0.000000000000000000, 0.000000000000000000, 0.05080000000000000487 ) ) ;
#508 = VECTOR ( 'NONE', #59, 1000.000000000000000 ) ;
#509 = PLANE ( 'NONE',  #19 ) ;
#510 = CARTESIAN_POINT ( 'NONE',  ( 95.00000000000000000, 2.214000000000012403, 0.05080000000000000487 ) ) ;
#511 =( NAMED_UNIT ( * ) SI_UNIT ( $, .STERADIAN. ) SOLID_ANGLE_UNIT ( ) );
#512 = SURFACE_STYLE_USAGE ( .BOTH. , #348 ) ;
#513 = EDGE_CURVE ( 'NONE', #322, #243, #272, .T. ) ;
#514 = FILL_AREA_STYLE_COLOUR ( '', #211 ) ;
#515 = SURFACE_STYLE_USAGE ( .BOTH. , #352 ) ;
#516 =( NAMED_UNIT ( * ) SI_UNIT ( $, .STERADIAN. ) SOLID_ANGLE_UNIT ( ) );
#517 = MECHANICAL_DESIGN_GEOMETRIC_PRESENTATION_REPRESENTATION (  '', ( #184 ), #388 ) ;
#518 = VECTOR ( 'NONE', #26, 1000.000000000000000 ) ;
#519 = SURFACE_STYLE_FILL_AREA ( #102 ) ;
#520 = CARTESIAN_POINT ( 'NONE',  ( 95.00000000000000000, 7.214000000000013735, 4.000000000000003553 ) ) ;
#521 = CARTESIAN_POINT ( 'NONE',  ( 95.00000000000000000, 7.214000000000013735, 0.05080000000000000487 ) ) ;
#522 = EDGE_CURVE ( 'NONE', #89, #35, #217, .T. ) ;
#523 = ORIENTED_EDGE ( 'NONE', *, *, #522, .F. ) ;
#524 = UNCERTAINTY_MEASURE_WITH_UNIT (LENGTH_MEASURE( 1.000000000000000082E-05 ), #153, 'distance_accuracy_value', 'NONE');
#525 =( GEOMETRIC_REPRESENTATION_CONTEXT ( 3 ) GLOBAL_UNCERTAINTY_ASSIGNED_CONTEXT ( ( #236 ) ) GLOBAL_UNIT_ASSIGNED_CONTEXT ( ( #232, #200, #234 ) ) REPRESENTATION_CONTEXT ( 'NONE', 'WORKASPACE' ) );
#526 = ORIENTED_EDGE ( 'NONE', *, *, #513, .F. ) ;
#527 = VECTOR ( 'NONE', #121, 1000.000000000000000 ) ;
#528 =( GEOMETRIC_REPRESENTATION_CONTEXT ( 3 ) GLOBAL_UNCERTAINTY_ASSIGNED_CONTEXT ( ( #31 ) ) GLOBAL_UNIT_ASSIGNED_CONTEXT ( ( #147, #2, #406 ) ) REPRESENTATION_CONTEXT ( 'NONE', 'WORKASPACE' ) );
#529 = CARTESIAN_POINT ( 'NONE',  ( -70.00000000000000000, 2.213999999999991974, 0.05080000000000000487 ) ) ;
#530 = ORIENTED_EDGE ( 'NONE', *, *, #296, .T. ) ;
#531 = FACE_OUTER_BOUND ( 'NONE', #201, .T. ) ;
#532 = CARTESIAN_POINT ( 'NONE',  ( 95.00000000000000000, 2.214000000000012403, 173.0757401921917733 ) ) ;
ENDSEC;
END-ISO-10303-21;
