ISO-10303-21;
HEADER;
FILE_DESCRIPTION (( 'STEP AP214' ),
    '1' );
FILE_NAME ('BSO-M3-8ZI.step',
    '2026-02-27T00:20:43',
    ( '' ),
    ( '' ),
    'SwSTEP 2.0',
    'SolidWorks 2023',
    '' );
FILE_SCHEMA (( 'AUTOMOTIVE_DESIGN' ));
ENDSEC;

DATA;
#1 = VERTEX_POINT ( 'NONE', #383 ) ;
#2 = DIRECTION ( 'NONE',  ( 1.000000000000000000, 0.000000000000000000, 0.000000000000000000 ) ) ;
#3 = ORIENTED_EDGE ( 'NONE', *, *, #231, .F. ) ;
#4 = LINE ( 'NONE', #590, #339 ) ;
#5 = ORIENTED_EDGE ( 'NONE', *, *, #665, .F. ) ;
#6 = ORIENTED_EDGE ( 'NONE', *, *, #695, .F. ) ;
#7 = DIRECTION ( 'NONE',  ( 1.000000000000000000, 0.000000000000000000, 1.665334536937729880E-16 ) ) ;
#8 = VECTOR ( 'NONE', #544, 1000.000000000000000 ) ;
#9 = DIRECTION ( 'NONE',  ( 1.000000000000000000, 0.000000000000000000, 1.836970198721029688E-16 ) ) ;
#10 = ADVANCED_FACE ( 'NONE', ( #906 ), #532, .T. ) ;
#11 = EDGE_LOOP ( 'NONE', ( #767, #24, #226, #257 ) ) ;
#12 = DIRECTION ( 'NONE',  ( -0.4999999999999998890, -1.060540212046009645E-16, 0.8660254037844387076 ) ) ;
#13 = CIRCLE ( 'NONE', #547, 2.100000000000000089 ) ;
#14 = VECTOR ( 'NONE', #673, 1000.000000000000000 ) ;
#15 = FACE_OUTER_BOUND ( 'NONE', #653, .T. ) ;
#16 = ORIENTED_EDGE ( 'NONE', *, *, #418, .F. ) ;
#17 = ADVANCED_FACE ( 'NONE', ( #760 ), #169, .F. ) ;
#18 = DIRECTION ( 'NONE',  ( 0.000000000000000000, 2.008420750601660051E-19, 1.000000000000000000 ) ) ;
#19 = EDGE_CURVE ( 'NONE', #242, #441, #100, .T. ) ;
#20 = ORIENTED_EDGE ( 'NONE', *, *, #784, .T. ) ;
#21 = ORIENTED_EDGE ( 'NONE', *, *, #240, .F. ) ;
#22 = DIRECTION ( 'NONE',  ( -2.173838942326825982E-16, 0.000000000000000000, 1.000000000000000000 ) ) ;
#23 = CARTESIAN_POINT ( 'NONE',  ( -5.364749999999999908, 1.508122865337480037E-16, 1.229499999999999815 ) ) ;
#24 = ORIENTED_EDGE ( 'NONE', *, *, #375, .F. ) ;
#25 = AXIS2_PLACEMENT_3D ( 'NONE', #884, #575, #660 ) ;
#26 = CARTESIAN_POINT ( 'NONE',  ( -1.572000000000000064, -2.571673343026990073E-16, -2.100000000000000089 ) ) ;
#27 = CONICAL_SURFACE ( 'NONE', #413, 0.5967500000000000027, 1.047197551196598297 ) ;
#28 = EDGE_CURVE ( 'NONE', #329, #459, #898, .T. ) ;
#29 = AXIS2_PLACEMENT_3D ( 'NONE', #254, #858, #632 ) ;
#30 = CARTESIAN_POINT ( 'NONE',  ( 0.5000000000000000000, 2.399999999999999911, 1.385640646055100067 ) ) ;
#31 = AXIS2_PLACEMENT_3D ( 'NONE', #800, #585, #957 ) ;
#32 = EDGE_LOOP ( 'NONE', ( #746, #631, #888, #307 ) ) ;
#33 = DIRECTION ( 'NONE',  ( 1.962458415632859933E-32, 3.817261210212950247E-16, 1.000000000000000000 ) ) ;
#34 = CARTESIAN_POINT ( 'NONE',  ( -1.469576158976820102E-16, -2.399999999999999911, 1.385640646055100067 ) ) ;
#35 = ORIENTED_EDGE ( 'NONE', *, *, #201, .F. ) ;
#36 = DIRECTION ( 'NONE',  ( 0.000000000000000000, 0.000000000000000000, -1.000000000000000000 ) ) ;
#37 = DIRECTION ( 'NONE',  ( -1.000000000000000000, 0.000000000000000000, -2.220446049250309876E-16 ) ) ;
#38 = DIRECTION ( 'NONE',  ( -2.173838942326825982E-16, 0.000000000000000000, 1.000000000000000000 ) ) ;
#39 = ORIENTED_EDGE ( 'NONE', *, *, #19, .T. ) ;
#40 = DIRECTION ( 'NONE',  ( 0.000000000000000000, 2.008420750601660051E-19, 1.000000000000000000 ) ) ;
#41 = VECTOR ( 'NONE', #173, 1000.000000000000000 ) ;
#42 = DIRECTION ( 'NONE',  ( 0.000000000000000000, 0.000000000000000000, 1.000000000000000000 ) ) ;
#43 = AXIS2_PLACEMENT_3D ( 'NONE', #554, #779, #406 ) ;
#44 = DIRECTION ( 'NONE',  ( -5.302876193624528411E-17, -0.8660254037844387076, 0.4999999999999998890 ) ) ;
#45 = AXIS2_PLACEMENT_3D ( 'NONE', #762, #385, #466 ) ;
#46 = VERTEX_POINT ( 'NONE', #685 ) ;
#47 = CARTESIAN_POINT ( 'NONE',  ( -2.500000000000000000, 0.000000000000000000, 0.000000000000000000 ) ) ;
#48 = EDGE_CURVE ( 'NONE', #895, #842, #908, .T. ) ;
#49 = CARTESIAN_POINT ( 'NONE',  ( -7.229499999999999815, 0.000000000000000000, 0.000000000000000000 ) ) ;
#50 = LINE ( 'NONE', #121, #369 ) ;
#51 = ORIENTED_EDGE ( 'NONE', *, *, #538, .F. ) ;
#52 = DIRECTION ( 'NONE',  ( 1.000000000000000000, 0.000000000000000000, 1.665334536937729880E-16 ) ) ;
#53 = DIRECTION ( 'NONE',  ( -1.000000000000000000, 0.000000000000000000, 0.000000000000000000 ) ) ;
#54 = EDGE_CURVE ( 'NONE', #101, #151, #682, .T. ) ;
#55 = CARTESIAN_POINT ( 'NONE',  ( -1.500000000000000000, 0.000000000000000000, 0.000000000000000000 ) ) ;
#56 = ORIENTED_EDGE ( 'NONE', *, *, #19, .F. ) ;
#57 = APPLICATION_PROTOCOL_DEFINITION ( 'draft international standard', 'automotive_design', 1998, #550 ) ;
#58 = DIRECTION ( 'NONE',  ( 0.000000000000000000, 0.000000000000000000, -1.000000000000000000 ) ) ;
#59 = CIRCLE ( 'NONE', #87, 1.994999999999999885 ) ;
#60 = ADVANCED_FACE ( 'NONE', ( #608 ), #382, .F. ) ;
#61 = ORIENTED_EDGE ( 'NONE', *, *, #389, .T. ) ;
#62 = VECTOR ( 'NONE', #677, 1000.000000000000000 ) ;
#63 = AXIS2_PLACEMENT_3D ( 'NONE', #878, #281, #437 ) ;
#64 = LINE ( 'NONE', #809, #704 ) ;
#65 = DIRECTION ( 'NONE',  ( -6.123233995736769734E-17, -1.000000000000000000, 0.000000000000000000 ) ) ;
#66 = ORIENTED_EDGE ( 'NONE', *, *, #72, .F. ) ;
#67 = FACE_OUTER_BOUND ( 'NONE', #589, .T. ) ;
#68 = VERTEX_POINT ( 'NONE', #155 ) ;
#69 = FACE_BOUND ( 'NONE', #436, .T. ) ;
#70 = DIRECTION ( 'NONE',  ( 0.000000000000000000, 2.008420750601660051E-19, 1.000000000000000000 ) ) ;
#71 = ORIENTED_EDGE ( 'NONE', *, *, #282, .F. ) ;
#72 = EDGE_CURVE ( 'NONE', #610, #147, #912, .T. ) ;
#73 = FACE_OUTER_BOUND ( 'NONE', #671, .T. ) ;
#74 = DIRECTION ( 'NONE',  ( 1.000000000000000000, -6.123233995736769734E-17, 3.749399456654639914E-33 ) ) ;
#75 = EDGE_LOOP ( 'NONE', ( #799, #733, #829, #404 ) ) ;
#76 = LINE ( 'NONE', #277, #80 ) ;
#77 = EDGE_LOOP ( 'NONE', ( #356, #956, #380, #944 ) ) ;
#78 = CARTESIAN_POINT ( 'NONE',  ( -1.467000000000000082, -2.443089675875639632E-16, -1.994999999999999885 ) ) ;
#79 = AXIS2_PLACEMENT_3D ( 'NONE', #397, #117, #40 ) ;
#80 = VECTOR ( 'NONE', #868, 1000.000000000000000 ) ;
#81 = ORIENTED_EDGE ( 'NONE', *, *, #324, .F. ) ;
#82 = CYLINDRICAL_SURFACE ( 'NONE', #322, 2.100000000000000089 ) ;
#83 = UNCERTAINTY_MEASURE_WITH_UNIT (LENGTH_MEASURE( 1.000000000000000082E-05 ), #890, 'distance_accuracy_value', 'NONE');
#84 = ADVANCED_FACE ( 'NONE', ( #318 ), #93, .T. ) ;
#85 = CARTESIAN_POINT ( 'NONE',  ( -0.9210000000000000409, -2.443089675875639632E-16, -1.994999999999999885 ) ) ;
#86 = CARTESIAN_POINT ( 'NONE',  ( -1.469576158976820102E-16, -2.399999999999999911, -1.385640646055100067 ) ) ;
#87 = AXIS2_PLACEMENT_3D ( 'NONE', #507, #435, #284 ) ;
#88 = DIRECTION ( 'NONE',  ( 1.000000000000000000, -6.123233995736759873E-17, 0.000000000000000000 ) ) ;
#89 = ADVANCED_FACE ( 'NONE', ( #821, #15 ), #248, .F. ) ;
#90 = VERTEX_POINT ( 'NONE', #30 ) ;
#91 = CARTESIAN_POINT ( 'NONE',  ( -1.026000000000000023, 0.000000000000000000, -9.092726571680030281E-17 ) ) ;
#92 = CIRCLE ( 'NONE', #105, 2.100000000000000089 ) ;
#93 = PLANE ( 'NONE',  #305 ) ;
#94 = ORIENTED_EDGE ( 'NONE', *, *, #54, .F. ) ;
#95 = FACE_OUTER_BOUND ( 'NONE', #499, .T. ) ;
#96 = DIRECTION ( 'NONE',  ( -1.000000000000000000, 0.000000000000000000, 0.000000000000000000 ) ) ;
#97 = EDGE_LOOP ( 'NONE', ( #66, #508, #830, #467 ) ) ;
#98 = DIRECTION ( 'NONE',  ( 1.000000000000000000, 0.000000000000000000, 0.000000000000000000 ) ) ;
#99 = ADVANCED_FACE ( 'NONE', ( #743 ), #323, .T. ) ;
#100 = LINE ( 'NONE', #85, #561 ) ;
#101 = VERTEX_POINT ( 'NONE', #310 ) ;
#102 = AXIS2_PLACEMENT_3D ( 'NONE', #917, #669, #306 ) ;
#103 = CARTESIAN_POINT ( 'NONE',  ( -2.500000000000000000, -1.461567683287010263E-16, 1.193500000000000005 ) ) ;
#104 = AXIS2_PLACEMENT_3D ( 'NONE', #628, #196, #130 ) ;
#105 = AXIS2_PLACEMENT_3D ( 'NONE', #91, #605, #540 ) ;
#106 = FACE_OUTER_BOUND ( 'NONE', #205, .T. ) ;
#107 = VERTEX_POINT ( 'NONE', #600 ) ;
#108 = DIRECTION ( 'NONE',  ( -0.7071067811865480168, -8.673476250041608631E-17, -0.7071067811865470176 ) ) ;
#109 = FACE_OUTER_BOUND ( 'NONE', #648, .T. ) ;
#110 = EDGE_CURVE ( 'NONE', #465, #962, #856, .T. ) ;
#111 = EDGE_LOOP ( 'NONE', ( #853, #183 ) ) ;
#112 = DIRECTION ( 'NONE',  ( 1.000000000000000000, 0.000000000000000000, 1.665334536937729880E-16 ) ) ;
#113 = PLANE ( 'NONE',  #926 ) ;
#114 = DIRECTION ( 'NONE',  ( 5.302876193624528411E-17, 0.8660254037844387076, 0.4999999999999998890 ) ) ;
#115 = EDGE_CURVE ( 'NONE', #107, #686, #844, .T. ) ;
#116 = VERTEX_POINT ( 'NONE', #700 ) ;
#117 = DIRECTION ( 'NONE',  ( 1.000000000000000000, 0.000000000000000000, 0.000000000000000000 ) ) ;
#118 = EDGE_CURVE ( 'NONE', #421, #459, #788, .T. ) ;
#119 = CARTESIAN_POINT ( 'NONE',  ( 1.469576158976820102E-16, 2.399999999999999911, 1.385640646055100067 ) ) ;
#120 = CIRCLE ( 'NONE', #245, 1.193500000000000005 ) ;
#121 = CARTESIAN_POINT ( 'NONE',  ( 0.5000000000000000000, 2.399999999999999911, -1.385640646055100067 ) ) ;
#122 = VECTOR ( 'NONE', #393, 1000.000000000000000 ) ;
#123 = ORIENTED_EDGE ( 'NONE', *, *, #695, .T. ) ;
#124 = CARTESIAN_POINT ( 'NONE',  ( -3.989999999999999769, 0.000000000000000000, -5.845324224651449816E-16 ) ) ;
#125 = EDGE_CURVE ( 'NONE', #483, #441, #317, .T. ) ;
#126 = CARTESIAN_POINT ( 'NONE',  ( -1.467000000000000082, 2.443089675875639632E-16, 1.994999999999999885 ) ) ;
#127 = CARTESIAN_POINT ( 'NONE',  ( -0.4800000000000000377, 0.000000000000000000, -8.817456953860940824E-17 ) ) ;
#128 = ORIENTED_EDGE ( 'NONE', *, *, #125, .T. ) ;
#129 = DIRECTION ( 'NONE',  ( -1.000000000000000000, 0.000000000000000000, 0.000000000000000000 ) ) ;
#130 = DIRECTION ( 'NONE',  ( -2.173838942326825982E-16, 0.000000000000000000, 1.000000000000000000 ) ) ;
#131 = EDGE_CURVE ( 'NONE', #293, #242, #961, .T. ) ;
#132 = LINE ( 'NONE', #949, #333 ) ;
#133 = ORIENTED_EDGE ( 'NONE', *, *, #845, .F. ) ;
#134 = CARTESIAN_POINT ( 'NONE',  ( -7.229499999999999815, 1.656334795846800173E-17, 1.229499999999999815 ) ) ;
#135 =( GEOMETRIC_REPRESENTATION_CONTEXT ( 3 ) GLOBAL_UNCERTAINTY_ASSIGNED_CONTEXT ( ( #820 ) ) GLOBAL_UNIT_ASSIGNED_CONTEXT ( ( #541, #694, #498 ) ) REPRESENTATION_CONTEXT ( 'NONE', 'WORKASPACE' ) );
#136 = DIRECTION ( 'NONE',  ( -1.000000000000000000, 0.000000000000000000, -1.665334536937729880E-16 ) ) ;
#137 = ORIENTED_EDGE ( 'NONE', *, *, #219, .T. ) ;
#138 = DIRECTION ( 'NONE',  ( 1.000000000000000000, 0.000000000000000000, 1.665334536937729880E-16 ) ) ;
#139 = AXIS2_PLACEMENT_3D ( 'NONE', #47, #129, #36 ) ;
#140 = DIRECTION ( 'NONE',  ( -1.665334536937729880E-16, 0.000000000000000000, 1.000000000000000000 ) ) ;
#141 = VERTEX_POINT ( 'NONE', #616 ) ;
#142 = EDGE_CURVE ( 'NONE', #141, #773, #861, .T. ) ;
#143 = LINE ( 'NONE', #729, #168 ) ;
#144 = ORIENTED_EDGE ( 'NONE', *, *, #282, .T. ) ;
#145 = DIRECTION ( 'NONE',  ( 1.000000000000000000, 0.000000000000000000, 0.000000000000000000 ) ) ;
#146 = LINE ( 'NONE', #298, #910 ) ;
#147 = VERTEX_POINT ( 'NONE', #332 ) ;
#148 = DIRECTION ( 'NONE',  ( 6.123233995736769734E-17, 1.000000000000000000, -3.817261210212950247E-16 ) ) ;
#149 = CARTESIAN_POINT ( 'NONE',  ( 0.000000000000000000, 1.696920381959850127E-16, 2.771281292110200134 ) ) ;
#150 = VECTOR ( 'NONE', #114, 1000.000000000000000 ) ;
#151 = VERTEX_POINT ( 'NONE', #486 ) ;
#152 = DIRECTION ( 'NONE',  ( 1.000000000000000000, 0.000000000000000000, 2.220446049250309876E-16 ) ) ;
#153 = AXIS2_PLACEMENT_3D ( 'NONE', #402, #703, #543 ) ;
#154 = ADVANCED_FACE ( 'NONE', ( #106 ), #635, .T. ) ;
#155 = CARTESIAN_POINT ( 'NONE',  ( -1.026000000000000023, 1.285879139104720177E-17, 2.100000000000000089 ) ) ;
#156 = VERTEX_POINT ( 'NONE', #198 ) ;
#157 = DIRECTION ( 'NONE',  ( 0.000000000000000000, -0.8660254037844387076, 0.4999999999999998890 ) ) ;
#158 = ADVANCED_FACE ( 'NONE', ( #920 ), #504, .F. ) ;
#159 = DIRECTION ( 'NONE',  ( 0.4999999999999998890, -1.060540212046009645E-16, 0.8660254037844387076 ) ) ;
#160 = ORIENTED_EDGE ( 'NONE', *, *, #271, .F. ) ;
#161 = LINE ( 'NONE', #236, #596 ) ;
#162 = VECTOR ( 'NONE', #556, 1000.000000000000000 ) ;
#163 = DIRECTION ( 'NONE',  ( -1.000000000000000000, 0.000000000000000000, 0.000000000000000000 ) ) ;
#164 = ORIENTED_EDGE ( 'NONE', *, *, #188, .F. ) ;
#165 = CARTESIAN_POINT ( 'NONE',  ( 0.000000000000000000, 0.000000000000000000, 0.000000000000000000 ) ) ;
#166 = VECTOR ( 'NONE', #490, 1000.000000000000000 ) ;
#167 = AXIS2_PLACEMENT_3D ( 'NONE', #656, #374, #964 ) ;
#168 = VECTOR ( 'NONE', #514, 1000.000000000000000 ) ;
#169 = CYLINDRICAL_SURFACE ( 'NONE', #672, 1.193500000000000005 ) ;
#170 = ADVANCED_FACE ( 'NONE', ( #932, #251 ), #262, .F. ) ;
#171 = ORIENTED_EDGE ( 'NONE', *, *, #424, .T. ) ;
#172 = DIRECTION ( 'NONE',  ( 1.000000000000000000, 0.000000000000000000, 1.665334536937729880E-16 ) ) ;
#173 = DIRECTION ( 'NONE',  ( 1.000000000000000000, -6.123233995736769734E-17, 3.749399456654639914E-33 ) ) ;
#174 = EDGE_LOOP ( 'NONE', ( #674, #276 ) ) ;
#175 = CARTESIAN_POINT ( 'NONE',  ( -7.347880794884118997E-17, -1.199999999999999956, -2.078460969082649878 ) ) ;
#176 = DIRECTION ( 'NONE',  ( -2.173838942326825982E-16, 0.000000000000000000, 1.000000000000000000 ) ) ;
#177 = EDGE_LOOP ( 'NONE', ( #679, #160, #249, #313 ) ) ;
#178 = DIRECTION ( 'NONE',  ( 1.000000000000000000, 0.000000000000000000, 2.220446049250309876E-16 ) ) ;
#179 = CARTESIAN_POINT ( 'NONE',  ( -1.361999999999999877, -2.443089675875639632E-16, -1.994999999999999885 ) ) ;
#180 = EDGE_CURVE ( 'NONE', #459, #90, #551, .T. ) ;
#181 = CIRCLE ( 'NONE', #337, 1.229499999999999815 ) ;
#182 = CARTESIAN_POINT ( 'NONE',  ( -0.8159999999999999476, 0.000000000000000000, 2.047499999999999876 ) ) ;
#183 = ORIENTED_EDGE ( 'NONE', *, *, #665, .T. ) ;
#184 = DIRECTION ( 'NONE',  ( 1.000000000000000000, 0.000000000000000000, 1.836970198721029688E-16 ) ) ;
#185 = DIRECTION ( 'NONE',  ( 1.000000000000000000, 0.000000000000000000, 1.665334536937729880E-16 ) ) ;
#186 = EDGE_CURVE ( 'NONE', #263, #686, #266, .T. ) ;
#187 = DIRECTION ( 'NONE',  ( -1.000000000000000000, 0.000000000000000000, 0.000000000000000000 ) ) ;
#188 = EDGE_CURVE ( 'NONE', #483, #293, #772, .T. ) ;
#189 = ORIENTED_EDGE ( 'NONE', *, *, #253, .T. ) ;
#190 = DIRECTION ( 'NONE',  ( 1.000000000000000000, 0.000000000000000000, 1.665334536937729880E-16 ) ) ;
#191 = FACE_OUTER_BOUND ( 'NONE', #899, .T. ) ;
#192 = CARTESIAN_POINT ( 'NONE',  ( 0.5000000000000000000, -2.399999999999999911, -1.385640646055100067 ) ) ;
#193 = VERTEX_POINT ( 'NONE', #34 ) ;
#194 = PLANE ( 'NONE',  #29 ) ;
#195 = VECTOR ( 'NONE', #159, 1000.000000000000000 ) ;
#196 = DIRECTION ( 'NONE',  ( 1.000000000000000000, 0.000000000000000000, 2.220446049250309876E-16 ) ) ;
#197 = AXIS2_PLACEMENT_3D ( 'NONE', #549, #185, #42 ) ;
#198 = CARTESIAN_POINT ( 'NONE',  ( -3.471873675582749871E-16, 0.000000000000000000, 1.889999999999999902 ) ) ;
#199 = VECTOR ( 'NONE', #152, 1000.000000000000000 ) ;
#200 = ORIENTED_EDGE ( 'NONE', *, *, #527, .F. ) ;
#201 = EDGE_CURVE ( 'NONE', #90, #678, #50, .T. ) ;
#202 = FACE_BOUND ( 'NONE', #425, .T. ) ;
#203 = CARTESIAN_POINT ( 'NONE',  ( -5.438524293787559843E-32, -1.057870457896109826E-15, -2.771281292110200134 ) ) ;
#204 = DIRECTION ( 'NONE',  ( 0.000000000000000000, 0.000000000000000000, -1.000000000000000000 ) ) ;
#205 = EDGE_LOOP ( 'NONE', ( #494, #214, #61, #645 ) ) ;
#206 = CYLINDRICAL_SURFACE ( 'NONE', #864, 2.100000000000000089 ) ;
#207 = CARTESIAN_POINT ( 'NONE',  ( 3.471873675582749871E-16, -2.314506008724289685E-16, -1.889999999999999902 ) ) ;
#208 = EDGE_LOOP ( 'NONE', ( #123, #503 ) ) ;
#209 = CARTESIAN_POINT ( 'NONE',  ( -0.8159999999999999476, 0.000000000000000000, -5.595524044110779142E-17 ) ) ;
#210 = AXIS2_PLACEMENT_3D ( 'NONE', #925, #776, #707 ) ;
#211 = MANIFOLD_SOLID_BREP ( 'BSO-M3-8ZI-PennEngineering-3D-10-22-2025.stp<1>', #621 ) ;
#212 = CARTESIAN_POINT ( 'NONE',  ( -0.4800000000000000377, 0.000000000000000000, 0.000000000000000000 ) ) ;
#213 = VECTOR ( 'NONE', #924, 1000.000000000000000 ) ;
#214 = ORIENTED_EDGE ( 'NONE', *, *, #834, .F. ) ;
#215 = SHAPE_DEFINITION_REPRESENTATION ( #296, #935 ) ;
#216 = VECTOR ( 'NONE', #840, 1000.000000000000000 ) ;
#217 = CARTESIAN_POINT ( 'NONE',  ( -1.500000000000000000, -1.461567683287010263E-16, 1.193500000000000005 ) ) ;
#218 = CARTESIAN_POINT ( 'NONE',  ( -5.364749999999999908, 0.000000000000000000, 0.000000000000000000 ) ) ;
#219 = EDGE_CURVE ( 'NONE', #603, #101, #471, .T. ) ;
#220 = ORIENTED_EDGE ( 'NONE', *, *, #670, .F. ) ;
#221 = APPLICATION_PROTOCOL_DEFINITION ( 'draft international standard', 'automotive_design', 1998, #824 ) ;
#222 = CARTESIAN_POINT ( 'NONE',  ( -0.6480000000000000204, 2.571673343026990073E-16, 2.100000000000000089 ) ) ;
#223 = VERTEX_POINT ( 'NONE', #866 ) ;
#224 = PLANE ( 'NONE',  #31 ) ;
#225 = ADVANCED_FACE ( 'NONE', ( #291 ), #792, .F. ) ;
#226 = ORIENTED_EDGE ( 'NONE', *, *, #728, .F. ) ;
#227 = LINE ( 'NONE', #450, #565 ) ;
#228 = VECTOR ( 'NONE', #595, 1000.000000000000000 ) ;
#229 = EDGE_LOOP ( 'NONE', ( #392, #789 ) ) ;
#230 = EDGE_LOOP ( 'NONE', ( #921, #744 ) ) ;
#231 = EDGE_CURVE ( 'NONE', #242, #293, #59, .T. ) ;
#232 = CARTESIAN_POINT ( 'NONE',  ( 0.5000000000000000000, -1.088486627874790063E-15, -2.771281292110200134 ) ) ;
#233 = CIRCLE ( 'NONE', #768, 1.994999999999999885 ) ;
#234 = DIRECTION ( 'NONE',  ( 0.000000000000000000, 0.000000000000000000, -1.000000000000000000 ) ) ;
#235 = EDGE_LOOP ( 'NONE', ( #238, #891, #452, #319 ) ) ;
#236 = CARTESIAN_POINT ( 'NONE',  ( -1.469576158976820102E-16, -2.399999999999999911, 1.385640646055100067 ) ) ;
#237 = DIRECTION ( 'NONE',  ( 0.000000000000000000, 2.008420750601659810E-19, 1.000000000000000000 ) ) ;
#238 = ORIENTED_EDGE ( 'NONE', *, *, #513, .T. ) ;
#239 = FACE_OUTER_BOUND ( 'NONE', #97, .T. ) ;
#240 = EDGE_CURVE ( 'NONE', #636, #68, #132, .T. ) ;
#241 = AXIS2_PLACEMENT_3D ( 'NONE', #537, #528, #451 ) ;
#242 = VERTEX_POINT ( 'NONE', #583 ) ;
#243 = ORIENTED_EDGE ( 'NONE', *, *, #289, .T. ) ;
#244 = DIRECTION ( 'NONE',  ( 0.000000000000000000, 0.000000000000000000, 1.000000000000000000 ) ) ;
#245 = AXIS2_PLACEMENT_3D ( 'NONE', #419, #53, #58 ) ;
#246 = CIRCLE ( 'NONE', #911, 2.100000000000000089 ) ;
#247 = AXIS2_PLACEMENT_3D ( 'NONE', #352, #300, #569 ) ;
#248 = PLANE ( 'NONE',  #241 ) ;
#249 = ORIENTED_EDGE ( 'NONE', *, *, #805, .F. ) ;
#250 = DIRECTION ( 'NONE',  ( -2.220446049250309876E-16, 0.000000000000000000, 1.000000000000000000 ) ) ;
#251 = FACE_OUTER_BOUND ( 'NONE', #885, .T. ) ;
#252 = ORIENTED_EDGE ( 'NONE', *, *, #131, .F. ) ;
#253 = EDGE_CURVE ( 'NONE', #962, #636, #876, .T. ) ;
#254 = CARTESIAN_POINT ( 'NONE',  ( -3.500000000000000000, 2.449293598294710359E-16, -0.7500000000000000000 ) ) ;
#255 = PRESENTATION_STYLE_ASSIGNMENT (( #493 ) ) ;
#256 = STYLED_ITEM ( 'NONE', ( #255 ), #211 ) ;
#257 = ORIENTED_EDGE ( 'NONE', *, *, #470, .F. ) ;
#258 = DIRECTION ( 'NONE',  ( -1.548860246407863336E-16, 0.000000000000000000, 1.000000000000000000 ) ) ;
#259 = ADVANCED_FACE ( 'NONE', ( #279 ), #571, .T. ) ;
#260 = DIRECTION ( 'NONE',  ( 1.000000000000000000, 0.000000000000000000, 2.220446049250309876E-16 ) ) ;
#261 = VECTOR ( 'NONE', #940, 1000.000000000000000 ) ;
#262 = PLANE ( 'NONE',  #654 ) ;
#263 = VERTEX_POINT ( 'NONE', #207 ) ;
#264 = CARTESIAN_POINT ( 'NONE',  ( -0.2400000000000000189, 2.314506008724289685E-16, 1.889999999999999902 ) ) ;
#265 = DIRECTION ( 'NONE',  ( -2.065146995210484448E-16, 0.000000000000000000, 1.000000000000000000 ) ) ;
#266 = LINE ( 'NONE', #852, #8 ) ;
#267 = EDGE_LOOP ( 'NONE', ( #857, #303, #822, #708 ) ) ;
#268 = CYLINDRICAL_SURFACE ( 'NONE', #883, 2.100000000000000089 ) ;
#269 = DIRECTION ( 'NONE',  ( -1.000000000000000000, 6.123233995736759873E-17, 0.000000000000000000 ) ) ;
#270 = CARTESIAN_POINT ( 'NONE',  ( -0.9210000000000000409, 2.443089675875639632E-16, 1.994999999999999885 ) ) ;
#271 = EDGE_CURVE ( 'NONE', #815, #223, #288, .T. ) ;
#272 = ORIENTED_EDGE ( 'NONE', *, *, #201, .T. ) ;
#273 = PLANE ( 'NONE',  #738 ) ;
#274 = DIRECTION ( 'NONE',  ( 0.000000000000000000, 0.000000000000000000, -1.000000000000000000 ) ) ;
#275 = FACE_OUTER_BOUND ( 'NONE', #614, .T. ) ;
#276 = ORIENTED_EDGE ( 'NONE', *, *, #650, .T. ) ;
#277 = CARTESIAN_POINT ( 'NONE',  ( -1.469576158976820102E-16, -2.399999999999999911, 1.385640646055100067 ) ) ;
#278 = CARTESIAN_POINT ( 'NONE',  ( -7.500000000000000000, 4.298510265007209853E-16, 2.100000000000000089 ) ) ;
#279 = FACE_OUTER_BOUND ( 'NONE', #739, .T. ) ;
#280 = EDGE_LOOP ( 'NONE', ( #584, #376, #958, #388 ) ) ;
#281 = DIRECTION ( 'NONE',  ( 1.000000000000000000, 0.000000000000000000, 1.665334536937729880E-16 ) ) ;
#282 = EDGE_CURVE ( 'NONE', #1, #478, #354, .T. ) ;
#283 = DIRECTION ( 'NONE',  ( 1.000000000000000000, 0.000000000000000000, 2.220446049250309876E-16 ) ) ;
#284 = DIRECTION ( 'NONE',  ( -2.173838942326825982E-16, 0.000000000000000000, 1.000000000000000000 ) ) ;
#285 = EDGE_LOOP ( 'NONE', ( #133, #347, #377, #6 ) ) ;
#286 = EDGE_LOOP ( 'NONE', ( #597, #933 ) ) ;
#287 = CARTESIAN_POINT ( 'NONE',  ( -1.467000000000000082, 0.000000000000000000, -2.331468351712830189E-17 ) ) ;
#288 = CIRCLE ( 'NONE', #533, 1.500000000000000000 ) ;
#289 = EDGE_CURVE ( 'NONE', #686, #107, #847, .T. ) ;
#290 = EDGE_CURVE ( 'NONE', #903, #116, #146, .T. ) ;
#291 = FACE_OUTER_BOUND ( 'NONE', #280, .T. ) ;
#292 = AXIS2_PLACEMENT_3D ( 'NONE', #620, #699, #412 ) ;
#293 = VERTEX_POINT ( 'NONE', #429 ) ;
#294 = CIRCLE ( 'NONE', #475, 1.994999999999999885 ) ;
#295 = CIRCLE ( 'NONE', #63, 2.100000000000000089 ) ;
#296 = PRODUCT_DEFINITION_SHAPE ( 'NONE', 'NONE',  #316 ) ;
#297 = CARTESIAN_POINT ( 'NONE',  ( -0.8159999999999999476, 0.000000000000000000, 0.000000000000000000 ) ) ;
#298 = CARTESIAN_POINT ( 'NONE',  ( -5.364749999999999908, -1.508122865337480037E-16, -1.229499999999999815 ) ) ;
#299 = ORIENTED_EDGE ( 'NONE', *, *, #752, .F. ) ;
#300 = DIRECTION ( 'NONE',  ( 1.000000000000000000, 0.000000000000000000, 2.220446049250309876E-16 ) ) ;
#301 = PLANE ( 'NONE',  #897 ) ;
#302 = ORIENTED_EDGE ( 'NONE', *, *, #711, .T. ) ;
#303 = ORIENTED_EDGE ( 'NONE', *, *, #28, .F. ) ;
#304 = CARTESIAN_POINT ( 'NONE',  ( 0.5000000000000000000, 2.399999999999999911, -1.385640646055100067 ) ) ;
#305 = AXIS2_PLACEMENT_3D ( 'NONE', #457, #454, #88 ) ;
#306 = DIRECTION ( 'NONE',  ( 0.000000000000000000, 0.000000000000000000, 1.000000000000000000 ) ) ;
#307 = ORIENTED_EDGE ( 'NONE', *, *, #913, .T. ) ;
#308 = DIRECTION ( 'NONE',  ( -1.836970198721029688E-16, 0.000000000000000000, 1.000000000000000000 ) ) ;
#309 = CIRCLE ( 'NONE', #965, 1.500000000000000000 ) ;
#310 = CARTESIAN_POINT ( 'NONE',  ( -1.500000000000000000, 1.224646799147350002E-16, -1.193500000000000005 ) ) ;
#311 = ORIENTED_EDGE ( 'NONE', *, *, #231, .T. ) ;
#312 = CARTESIAN_POINT ( 'NONE',  ( -5.364749999999999908, 0.000000000000000000, 0.000000000000000000 ) ) ;
#313 = ORIENTED_EDGE ( 'NONE', *, *, #764, .T. ) ;
#314 = ORIENTED_EDGE ( 'NONE', *, *, #758, .F. ) ;
#315 = PLANE ( 'NONE',  #431 ) ;
#316 = PRODUCT_DEFINITION ( 'UNKNOWN', '', #642, #798 ) ;
#317 = CIRCLE ( 'NONE', #426, 1.994999999999999885 ) ;
#318 = FACE_OUTER_BOUND ( 'NONE', #879, .T. ) ;
#319 = ORIENTED_EDGE ( 'NONE', *, *, #48, .F. ) ;
#320 = LINE ( 'NONE', #103, #14 ) ;
#321 = CIRCLE ( 'NONE', #719, 2.100000000000000089 ) ;
#322 = AXIS2_PLACEMENT_3D ( 'NONE', #579, #735, #814 ) ;
#323 = CYLINDRICAL_SURFACE ( 'NONE', #102, 2.100000000000000089 ) ;
#324 = EDGE_CURVE ( 'NONE', #401, #907, #321, .T. ) ;
#325 = ORIENTED_EDGE ( 'NONE', *, *, #966, .F. ) ;
#326 = DIRECTION ( 'NONE',  ( -1.665334536937729880E-16, 0.000000000000000000, 1.000000000000000000 ) ) ;
#327 = FILL_AREA_STYLE_COLOUR ( '', #893 ) ;
#328 = ADVANCED_FACE ( 'NONE', ( #275 ), #721, .T. ) ;
#329 = VERTEX_POINT ( 'NONE', #370 ) ;
#330 = DIRECTION ( 'NONE',  ( 1.000000000000000000, 0.000000000000000000, 2.220446049250309876E-16 ) ) ;
#331 = CARTESIAN_POINT ( 'NONE',  ( -0.8159999999999999476, -2.443089675875639632E-16, -1.994999999999999885 ) ) ;
#332 = CARTESIAN_POINT ( 'NONE',  ( -3.500000000000000000, 2.449293598294710359E-16, 1.229499999999999815 ) ) ;
#333 = VECTOR ( 'NONE', #365, 1000.000000000000000 ) ;
#334 = ORIENTED_EDGE ( 'NONE', *, *, #125, .F. ) ;
#335 = CARTESIAN_POINT ( 'NONE',  ( 0.5000000000000000000, -2.399999999999999911, -1.385640646055100067 ) ) ;
#336 = CARTESIAN_POINT ( 'NONE',  ( -1.026000000000000023, -2.571673343026990073E-16, -2.100000000000000089 ) ) ;
#337 = AXIS2_PLACEMENT_3D ( 'NONE', #49, #353, #930 ) ;
#338 = AXIS2_PLACEMENT_3D ( 'NONE', #287, #283, #818 ) ;
#339 = VECTOR ( 'NONE', #881, 1000.000000000000000 ) ;
#340 = DIRECTION ( 'NONE',  ( -2.220446049250309876E-16, 0.000000000000000000, 1.000000000000000000 ) ) ;
#341 = AXIS2_PLACEMENT_3D ( 'NONE', #886, #655, #717 ) ;
#342 = ORIENTED_EDGE ( 'NONE', *, *, #795, .T. ) ;
#343 = DIRECTION ( 'NONE',  ( -2.220446049250309876E-16, 0.000000000000000000, 1.000000000000000000 ) ) ;
#344 = DIRECTION ( 'NONE',  ( -2.173838942326825982E-16, 0.000000000000000000, 1.000000000000000000 ) ) ;
#345 = ADVANCED_FACE ( 'NONE', ( #359 ), #647, .T. ) ;
#346 = SURFACE_SIDE_STYLE ('',( #350 ) ) ;
#347 = ORIENTED_EDGE ( 'NONE', *, *, #289, .F. ) ;
#348 = LINE ( 'NONE', #495, #675 ) ;
#349 = FACE_OUTER_BOUND ( 'NONE', #267, .T. ) ;
#350 = SURFACE_STYLE_FILL_AREA ( #415 ) ;
#351 = ORIENTED_EDGE ( 'NONE', *, *, #363, .F. ) ;
#352 = CARTESIAN_POINT ( 'NONE',  ( -1.361999999999999877, 0.000000000000000000, -1.468825061579080080E-16 ) ) ;
#353 = DIRECTION ( 'NONE',  ( 1.000000000000000000, 0.000000000000000000, 0.000000000000000000 ) ) ;
#354 = CIRCLE ( 'NONE', #783, 1.994999999999999885 ) ;
#355 = AXIS2_PLACEMENT_3D ( 'NONE', #615, #929, #343 ) ;
#356 = ORIENTED_EDGE ( 'NONE', *, *, #142, .T. ) ;
#357 = ADVANCED_FACE ( 'NONE', ( #633 ), #27, .F. ) ;
#358 = LINE ( 'NONE', #222, #535 ) ;
#359 = FACE_OUTER_BOUND ( 'NONE', #395, .T. ) ;
#360 = ORIENTED_EDGE ( 'NONE', *, *, #742, .F. ) ;
#361 = EDGE_CURVE ( 'NONE', #610, #116, #181, .T. ) ;
#362 =( NAMED_UNIT ( * ) PLANE_ANGLE_UNIT ( ) SI_UNIT ( $, .RADIAN. ) );
#363 = EDGE_CURVE ( 'NONE', #401, #432, #693, .T. ) ;
#364 = DIRECTION ( 'NONE',  ( -2.220446049250309876E-16, 0.000000000000000000, 1.000000000000000000 ) ) ;
#365 = DIRECTION ( 'NONE',  ( 1.000000000000000000, 0.000000000000000000, 1.665334536937729880E-16 ) ) ;
#366 = ORIENTED_EDGE ( 'NONE', *, *, #607, .F. ) ;
#367 = CARTESIAN_POINT ( 'NONE',  ( 1.469576158976820102E-16, 2.399999999999999911, -1.257180640522839980E-15 ) ) ;
#368 = FACE_OUTER_BOUND ( 'NONE', #286, .T. ) ;
#369 = VECTOR ( 'NONE', #841, 1000.000000000000000 ) ;
#370 = CARTESIAN_POINT ( 'NONE',  ( 0.000000000000000000, 1.696920381959850127E-16, 2.771281292110200134 ) ) ;
#371 = ORIENTED_EDGE ( 'NONE', *, *, #394, .T. ) ;
#372 = DIRECTION ( 'NONE',  ( 0.000000000000000000, -3.817261210212950247E-16, -1.000000000000000000 ) ) ;
#373 = ORIENTED_EDGE ( 'NONE', *, *, #418, .T. ) ;
#374 = DIRECTION ( 'NONE',  ( -1.000000000000000000, 0.000000000000000000, 0.000000000000000000 ) ) ;
#375 = EDGE_CURVE ( 'NONE', #842, #895, #609, .T. ) ;
#376 = ORIENTED_EDGE ( 'NONE', *, *, #650, .F. ) ;
#377 = ORIENTED_EDGE ( 'NONE', *, *, #186, .F. ) ;
#378 = LINE ( 'NONE', #668, #882 ) ;
#379 = CARTESIAN_POINT ( 'NONE',  ( -7.364749999999999908, 0.000000000000000000, 0.000000000000000000 ) ) ;
#380 = ORIENTED_EDGE ( 'NONE', *, *, #681, .T. ) ;
#381 = CARTESIAN_POINT ( 'NONE',  ( -1.572000000000000064, 1.285879139104720177E-17, 1.994999999999999885 ) ) ;
#382 = CONICAL_SURFACE ( 'NONE', #518, 1.364750000000000130, 0.7853981633974476129 ) ;
#383 = CARTESIAN_POINT ( 'NONE',  ( -1.361999999999999877, 0.000000000000000000, 1.994999999999999885 ) ) ;
#384 = VERTEX_POINT ( 'NONE', #710 ) ;
#385 = DIRECTION ( 'NONE',  ( 1.000000000000000000, 0.000000000000000000, 1.836970198721029688E-16 ) ) ;
#386 = AXIS2_PLACEMENT_3D ( 'NONE', #474, #190, #258 ) ;
#387 = EDGE_LOOP ( 'NONE', ( #128, #644 ) ) ;
#388 = ORIENTED_EDGE ( 'NONE', *, *, #361, .F. ) ;
#389 = EDGE_CURVE ( 'NONE', #835, #894, #715, .T. ) ;
#390 = CYLINDRICAL_SURFACE ( 'NONE', #414, 1.229499999999999815 ) ;
#391 = ORIENTED_EDGE ( 'NONE', *, *, #48, .T. ) ;
#392 = ORIENTED_EDGE ( 'NONE', *, *, #839, .T. ) ;
#393 = DIRECTION ( 'NONE',  ( 5.302876193624528411E-17, 0.8660254037844387076, -0.4999999999999998890 ) ) ;
#394 = EDGE_CURVE ( 'NONE', #713, #384, #13, .T. ) ;
#395 = EDGE_LOOP ( 'NONE', ( #164, #51, #56, #311 ) ) ;
#396 = EDGE_LOOP ( 'NONE', ( #488, #243 ) ) ;
#397 = CARTESIAN_POINT ( 'NONE',  ( -7.229499999999999815, 0.000000000000000000, 0.000000000000000000 ) ) ;
#398 = CIRCLE ( 'NONE', #45, 1.889999999999999902 ) ;
#399 = ADVANCED_FACE ( 'NONE', ( #349 ), #113, .T. ) ;
#400 = DIRECTION ( 'NONE',  ( 1.000000000000000000, 0.000000000000000000, 2.220446049250309876E-16 ) ) ;
#401 = VERTEX_POINT ( 'NONE', #846 ) ;
#402 = CARTESIAN_POINT ( 'NONE',  ( -1.026000000000000023, 0.000000000000000000, -9.092726571680030281E-17 ) ) ;
#403 = DIRECTION ( 'NONE',  ( -5.302876193624528411E-17, -0.8660254037844387076, 0.4999999999999998890 ) ) ;
#404 = ORIENTED_EDGE ( 'NONE', *, *, #115, .F. ) ;
#405 = LINE ( 'NONE', #692, #947 ) ;
#406 = DIRECTION ( 'NONE',  ( -2.065146995210484448E-16, 0.000000000000000000, 1.000000000000000000 ) ) ;
#407 = CARTESIAN_POINT ( 'NONE',  ( -0.8159999999999999476, 0.000000000000000000, 0.000000000000000000 ) ) ;
#408 = AXIS2_PLACEMENT_3D ( 'NONE', #613, #756, #825 ) ;
#409 = EDGE_LOOP ( 'NONE', ( #567, #542, #351, #696 ) ) ;
#410 = ADVANCED_FACE ( 'NONE', ( #191 ), #791, .T. ) ;
#411 = FACE_OUTER_BOUND ( 'NONE', #174, .T. ) ;
#412 = DIRECTION ( 'NONE',  ( 0.000000000000000000, 2.008420750601660051E-19, 1.000000000000000000 ) ) ;
#413 = AXIS2_PLACEMENT_3D ( 'NONE', #559, #941, #274 ) ;
#414 = AXIS2_PLACEMENT_3D ( 'NONE', #312, #98, #18 ) ;
#415 = FILL_AREA_STYLE ('',( #327 ) ) ;
#416 = ORIENTED_EDGE ( 'NONE', *, *, #458, .F. ) ;
#417 = DIRECTION ( 'NONE',  ( -2.173838942326825982E-16, 0.000000000000000000, 1.000000000000000000 ) ) ;
#418 = EDGE_CURVE ( 'NONE', #773, #421, #865, .T. ) ;
#419 = CARTESIAN_POINT ( 'NONE',  ( -1.500000000000000000, 0.000000000000000000, 0.000000000000000000 ) ) ;
#420 = DIRECTION ( 'NONE',  ( -1.000000000000000000, 0.000000000000000000, -1.665334536937729880E-16 ) ) ;
#421 = VERTEX_POINT ( 'NONE', #859 ) ;
#422 = LINE ( 'NONE', #558, #261 ) ;
#423 = LINE ( 'NONE', #119, #580 ) ;
#424 = EDGE_CURVE ( 'NONE', #1, #740, #497, .T. ) ;
#425 = EDGE_LOOP ( 'NONE', ( #252, #3 ) ) ;
#426 = AXIS2_PLACEMENT_3D ( 'NONE', #407, #712, #38 ) ;
#427 = DIRECTION ( 'NONE',  ( 0.000000000000000000, 0.000000000000000000, 1.000000000000000000 ) ) ;
#428 = CARTESIAN_POINT ( 'NONE',  ( -3.989999999999999769, 2.571673343026990073E-16, 2.100000000000000089 ) ) ;
#429 = CARTESIAN_POINT ( 'NONE',  ( -1.026000000000000023, 1.285879139104720177E-17, 1.994999999999999885 ) ) ;
#430 = EDGE_CURVE ( 'NONE', #384, #713, #880, .T. ) ;
#431 = AXIS2_PLACEMENT_3D ( 'NONE', #536, #836, #250 ) ;
#432 = VERTEX_POINT ( 'NONE', #855 ) ;
#433 = CARTESIAN_POINT ( 'NONE',  ( -1.361999999999999877, -2.571673343026990073E-16, -2.100000000000000089 ) ) ;
#434 = FACE_OUTER_BOUND ( 'NONE', #230, .T. ) ;
#435 = DIRECTION ( 'NONE',  ( 1.000000000000000000, 0.000000000000000000, 2.220446049250309876E-16 ) ) ;
#436 = EDGE_LOOP ( 'NONE', ( #144, #902 ) ) ;
#437 = DIRECTION ( 'NONE',  ( 0.000000000000000000, 0.000000000000000000, 1.000000000000000000 ) ) ;
#438 = CARTESIAN_POINT ( 'NONE',  ( -7.500000000000000000, 4.298510265007209853E-16, 1.050000000000000044 ) ) ;
#439 = PRODUCT ( 'BSO-M3-8ZI', 'BSO-M3-8ZI', '', ( #816 ) ) ;
#440 = DIRECTION ( 'NONE',  ( -1.000000000000000000, 0.000000000000000000, 0.000000000000000000 ) ) ;
#441 = VERTEX_POINT ( 'NONE', #331 ) ;
#442 = VERTEX_POINT ( 'NONE', #278 ) ;
#443 = EDGE_CURVE ( 'NONE', #147, #903, #963, .T. ) ;
#444 = CYLINDRICAL_SURFACE ( 'NONE', #338, 1.994999999999999885 ) ;
#445 = VECTOR ( 'NONE', #44, 1000.000000000000000 ) ;
#446 = ORIENTED_EDGE ( 'NONE', *, *, #487, .F. ) ;
#447 = AXIS2_PLACEMENT_3D ( 'NONE', #731, #651, #364 ) ;
#448 = CIRCLE ( 'NONE', #247, 2.100000000000000089 ) ;
#449 = ORIENTED_EDGE ( 'NONE', *, *, #118, .F. ) ;
#450 = CARTESIAN_POINT ( 'NONE',  ( -1.469576158976820102E-16, -2.399999999999999911, -1.385640646055100067 ) ) ;
#451 = DIRECTION ( 'NONE',  ( -6.123233995736769734E-17, -1.000000000000000000, 0.000000000000000000 ) ) ;
#452 = ORIENTED_EDGE ( 'NONE', *, *, #728, .T. ) ;
#453 = CARTESIAN_POINT ( 'NONE',  ( -7.500000000000000000, 0.000000000000000000, -1.169064844930289963E-15 ) ) ;
#454 = DIRECTION ( 'NONE',  ( 3.061616997868379320E-17, 0.4999999999999998890, 0.8660254037844387076 ) ) ;
#455 = EDGE_LOOP ( 'NONE', ( #782, #81, #639, #473 ) ) ;
#456 = DIRECTION ( 'NONE',  ( -2.065146995210484448E-16, 0.000000000000000000, 1.000000000000000000 ) ) ;
#457 = CARTESIAN_POINT ( 'NONE',  ( 7.347880794884118997E-17, 1.199999999999999956, 2.078460969082649878 ) ) ;
#458 = EDGE_CURVE ( 'NONE', #761, #329, #423, .T. ) ;
#459 = VERTEX_POINT ( 'NONE', #476 ) ;
#460 = VECTOR ( 'NONE', #12, 1000.000000000000000 ) ;
#461 = CARTESIAN_POINT ( 'NONE',  ( -1.572000000000000064, 0.000000000000000000, -4.662936703425660379E-17 ) ) ;
#462 = AXIS2_PLACEMENT_3D ( 'NONE', #509, #427, #2 ) ;
#463 = AXIS2_PLACEMENT_3D ( 'NONE', #952, #138, #640 ) ;
#464 = DIRECTION ( 'NONE',  ( 1.000000000000000000, 0.000000000000000000, 2.220446049250309876E-16 ) ) ;
#465 = VERTEX_POINT ( 'NONE', #336 ) ;
#466 = DIRECTION ( 'NONE',  ( -1.836970198721029688E-16, 0.000000000000000000, 1.000000000000000000 ) ) ;
#467 = ORIENTED_EDGE ( 'NONE', *, *, #443, .F. ) ;
#468 = ORIENTED_EDGE ( 'NONE', *, *, #458, .T. ) ;
#469 = DIRECTION ( 'NONE',  ( -3.061616997868394111E-17, -0.4999999999999998890, -0.8660254037844387076 ) ) ;
#470 = EDGE_CURVE ( 'NONE', #101, #603, #120, .T. ) ;
#471 = CIRCLE ( 'NONE', #860, 1.193500000000000005 ) ;
#472 = DIRECTION ( 'NONE',  ( -1.720955829342070702E-16, 0.000000000000000000, 1.000000000000000000 ) ) ;
#473 = ORIENTED_EDGE ( 'NONE', *, *, #966, .T. ) ;
#474 = CARTESIAN_POINT ( 'NONE',  ( -0.4800000000000000377, 0.000000000000000000, 0.000000000000000000 ) ) ;
#475 = AXIS2_PLACEMENT_3D ( 'NONE', #461, #525, #22 ) ;
#476 = CARTESIAN_POINT ( 'NONE',  ( 0.5000000000000000000, 1.390758682173010038E-16, 2.771281292110200134 ) ) ;
#477 = CARTESIAN_POINT ( 'NONE',  ( -1.026000000000000023, 0.000000000000000000, -4.662936703425660379E-17 ) ) ;
#478 = VERTEX_POINT ( 'NONE', #179 ) ;
#479 = CYLINDRICAL_SURFACE ( 'NONE', #753, 1.889999999999999902 ) ;
#480 = CARTESIAN_POINT ( 'NONE',  ( -0.9210000000000000409, 0.000000000000000000, -2.331468351712830189E-17 ) ) ;
#481 = DIRECTION ( 'NONE',  ( 5.302876193624528411E-17, 0.8660254037844387076, -0.4999999999999998890 ) ) ;
#482 = ADVANCED_FACE ( 'NONE', ( #109 ), #770, .T. ) ;
#483 = VERTEX_POINT ( 'NONE', #664 ) ;
#484 = DIRECTION ( 'NONE',  ( -1.864368815120576430E-16, 0.000000000000000000, 1.000000000000000000 ) ) ;
#485 = DIRECTION ( 'NONE',  ( 1.000000000000000000, 0.000000000000000000, 0.000000000000000000 ) ) ;
#486 = CARTESIAN_POINT ( 'NONE',  ( -0.8109324537221810347, 1.646578981620080103E-16, 0.000000000000000000 ) ) ;
#487 = EDGE_CURVE ( 'NONE', #442, #384, #510, .T. ) ;
#488 = ORIENTED_EDGE ( 'NONE', *, *, #115, .T. ) ;
#489 = CARTESIAN_POINT ( 'NONE',  ( -5.438524293787559843E-32, -1.057870457896109826E-15, -2.771281292110200134 ) ) ;
#490 = DIRECTION ( 'NONE',  ( 5.302876193624528411E-17, 0.8660254037844387076, 0.4999999999999998890 ) ) ;
#491 = VECTOR ( 'NONE', #718, 1000.000000000000000 ) ;
#492 = CONICAL_SURFACE ( 'NONE', #167, 1.364750000000000130, 0.7853981633974476129 ) ;
#493 = SURFACE_STYLE_USAGE ( .BOTH. , #346 ) ;
#494 = ORIENTED_EDGE ( 'NONE', *, *, #752, .T. ) ;
#495 = CARTESIAN_POINT ( 'NONE',  ( 1.469576158976820102E-16, 2.399999999999999911, -1.385640646055100067 ) ) ;
#496 = ADVANCED_FACE ( 'NONE', ( #725, #368 ), #301, .T. ) ;
#497 = LINE ( 'NONE', #126, #213 ) ;
#498 =( NAMED_UNIT ( * ) SI_UNIT ( $, .STERADIAN. ) SOLID_ANGLE_UNIT ( ) );
#499 = EDGE_LOOP ( 'NONE', ( #557, #591 ) ) ;
#500 = DIRECTION ( 'NONE',  ( 1.000000000000000000, -6.123233995736769734E-17, 3.749399456654639914E-33 ) ) ;
#501 = ADVANCED_FACE ( 'NONE', ( #69, #434 ), #954, .F. ) ;
#502 = CARTESIAN_POINT ( 'NONE',  ( -7.500000000000000000, 0.000000000000000000, 0.000000000000000000 ) ) ;
#503 = ORIENTED_EDGE ( 'NONE', *, *, #690, .T. ) ;
#504 = CONICAL_SURFACE ( 'NONE', #923, 0.5967500000000000027, 1.047197551196598297 ) ;
#505 = CARTESIAN_POINT ( 'NONE',  ( -3.500000000000000000, 0.000000000000000000, -1.193500000000000005 ) ) ;
#506 = DIRECTION ( 'NONE',  ( 1.000000000000000000, 0.000000000000000000, 2.220446049250309876E-16 ) ) ;
#507 = CARTESIAN_POINT ( 'NONE',  ( -1.026000000000000023, 0.000000000000000000, -4.662936703425660379E-17 ) ) ;
#508 = ORIENTED_EDGE ( 'NONE', *, *, #764, .F. ) ;
#509 = CARTESIAN_POINT ( 'NONE',  ( 0.000000000000000000, 0.000000000000000000, 0.000000000000000000 ) ) ;
#510 = LINE ( 'NONE', #428, #491 ) ;
#511 = DIRECTION ( 'NONE',  ( 1.000000000000000000, 0.000000000000000000, 2.220446049250309876E-16 ) ) ;
#512 = ORIENTED_EDGE ( 'NONE', *, *, #657, .F. ) ;
#513 = EDGE_CURVE ( 'NONE', #895, #101, #64, .T. ) ;
#514 = DIRECTION ( 'NONE',  ( -1.000000000000000000, 0.000000000000000000, -1.665334536937729880E-16 ) ) ;
#515 = DIRECTION ( 'NONE',  ( 1.000000000000000000, 0.000000000000000000, 2.220446049250309876E-16 ) ) ;
#516 = ORIENTED_EDGE ( 'NONE', *, *, #110, .T. ) ;
#517 = DIRECTION ( 'NONE',  ( -5.302876193624528411E-17, -0.8660254037844387076, -0.4999999999999998890 ) ) ;
#518 = AXIS2_PLACEMENT_3D ( 'NONE', #379, #96, #237 ) ;
#519 = CARTESIAN_POINT ( 'NONE',  ( -1.155466226861090018, 7.307838416435040223E-17, -0.5967500000000000027 ) ) ;
#520 = CIRCLE ( 'NONE', #849, 1.889999999999999902 ) ;
#521 = CARTESIAN_POINT ( 'NONE',  ( -7.500000000000000000, 0.000000000000000000, 0.000000000000000000 ) ) ;
#522 = EDGE_CURVE ( 'NONE', #46, #907, #358, .T. ) ;
#523 = CARTESIAN_POINT ( 'NONE',  ( 0.000000000000000000, 1.696920381959850127E-16, 2.771281292110200134 ) ) ;
#524 = ORIENTED_EDGE ( 'NONE', *, *, #618, .F. ) ;
#525 = DIRECTION ( 'NONE',  ( 1.000000000000000000, 0.000000000000000000, 2.220446049250309876E-16 ) ) ;
#526 = ADVANCED_FACE ( 'NONE', ( #73 ), #492, .F. ) ;
#527 = EDGE_CURVE ( 'NONE', #329, #193, #570, .T. ) ;
#528 = DIRECTION ( 'NONE',  ( 1.000000000000000000, -6.123233995736769734E-17, 3.749399456654639914E-33 ) ) ;
#529 = ORIENTED_EDGE ( 'NONE', *, *, #180, .T. ) ;
#530 = CARTESIAN_POINT ( 'NONE',  ( -1.361999999999999877, 0.000000000000000000, 2.100000000000000089 ) ) ;
#531 = VECTOR ( 'NONE', #560, 1000.000000000000000 ) ;
#532 = CYLINDRICAL_SURFACE ( 'NONE', #942, 1.889999999999999902 ) ;
#533 = AXIS2_PLACEMENT_3D ( 'NONE', #502, #652, #967 ) ;
#534 = ORIENTED_EDGE ( 'NONE', *, *, #758, .T. ) ;
#535 = VECTOR ( 'NONE', #7, 1000.000000000000000 ) ;
#536 = CARTESIAN_POINT ( 'NONE',  ( -1.572000000000000064, 1.285879139104720177E-17, 2.047499999999999876 ) ) ;
#537 = CARTESIAN_POINT ( 'NONE',  ( 5.098616525425839747E-33, 8.326672684688670355E-17, -1.054711873393900094E-15 ) ) ;
#538 = EDGE_CURVE ( 'NONE', #441, #483, #786, .T. ) ;
#539 = ORIENTED_EDGE ( 'NONE', *, *, #945, .F. ) ;
#540 = DIRECTION ( 'NONE',  ( -2.065146995210484448E-16, 0.000000000000000000, 1.000000000000000000 ) ) ;
#541 =( LENGTH_UNIT ( ) NAMED_UNIT ( * ) SI_UNIT ( .MILLI., .METRE. ) );
#542 = ORIENTED_EDGE ( 'NONE', *, *, #618, .T. ) ;
#543 = DIRECTION ( 'NONE',  ( -2.065146995210484448E-16, 0.000000000000000000, 1.000000000000000000 ) ) ;
#544 = DIRECTION ( 'NONE',  ( -1.000000000000000000, 0.000000000000000000, -1.836970198721029688E-16 ) ) ;
#545 = ORIENTED_EDGE ( 'NONE', *, *, #937, .F. ) ;
#546 = FACE_BOUND ( 'NONE', #396, .T. ) ;
#547 = AXIS2_PLACEMENT_3D ( 'NONE', #851, #37, #265 ) ;
#548 = CIRCLE ( 'NONE', #687, 1.994999999999999885 ) ;
#549 = CARTESIAN_POINT ( 'NONE',  ( -3.989999999999999769, 0.000000000000000000, -5.845324224651449816E-16 ) ) ;
#550 = APPLICATION_CONTEXT ( 'automotive_design' ) ;
#551 = LINE ( 'NONE', #630, #780 ) ;
#552 = ORIENTED_EDGE ( 'NONE', *, *, #670, .T. ) ;
#553 = FACE_OUTER_BOUND ( 'NONE', #285, .T. ) ;
#554 = CARTESIAN_POINT ( 'NONE',  ( -1.572000000000000064, 0.000000000000000000, -1.818545314336010247E-16 ) ) ;
#555 = ADVANCED_FACE ( 'NONE', ( #586 ), #444, .T. ) ;
#556 = DIRECTION ( 'NONE',  ( -1.000000000000000000, 0.000000000000000000, -2.220446049250309876E-16 ) ) ;
#557 = ORIENTED_EDGE ( 'NONE', *, *, #430, .F. ) ;
#558 = CARTESIAN_POINT ( 'NONE',  ( -5.438524293787559843E-32, -1.057870457896109826E-15, -2.771281292110200134 ) ) ;
#559 = CARTESIAN_POINT ( 'NONE',  ( -1.155466226861090018, 0.000000000000000000, 0.000000000000000000 ) ) ;
#560 = DIRECTION ( 'NONE',  ( -1.000000000000000000, 0.000000000000000000, -1.665334536937729880E-16 ) ) ;
#561 = VECTOR ( 'NONE', #464, 1000.000000000000000 ) ;
#562 = ORIENTED_EDGE ( 'NONE', *, *, #54, .T. ) ;
#563 = DIRECTION ( 'NONE',  ( -2.173838942326825982E-16, 0.000000000000000000, 1.000000000000000000 ) ) ;
#564 = DIRECTION ( 'NONE',  ( -1.000000000000000000, 0.000000000000000000, -1.665334536937729880E-16 ) ) ;
#565 = VECTOR ( 'NONE', #794, 1000.000000000000000 ) ;
#566 = DIRECTION ( 'NONE',  ( -1.720955829342070702E-16, 0.000000000000000000, 1.000000000000000000 ) ) ;
#567 = ORIENTED_EDGE ( 'NONE', *, *, #522, .F. ) ;
#568 = ADVANCED_FACE ( 'NONE', ( #887 ), #82, .T. ) ;
#569 = DIRECTION ( 'NONE',  ( -2.065146995210484448E-16, 0.000000000000000000, 1.000000000000000000 ) ) ;
#570 = LINE ( 'NONE', #149, #611 ) ;
#571 = CYLINDRICAL_SURFACE ( 'NONE', #606, 1.994999999999999885 ) ;
#572 = ORIENTED_EDGE ( 'NONE', *, *, #828, .F. ) ;
#573 =( NAMED_UNIT ( * ) SI_UNIT ( $, .STERADIAN. ) SOLID_ANGLE_UNIT ( ) );
#574 = DIRECTION ( 'NONE',  ( 1.000000000000000000, 0.000000000000000000, 1.665334536937729880E-16 ) ) ;
#575 = DIRECTION ( 'NONE',  ( 1.000000000000000000, 0.000000000000000000, 2.220446049250309876E-16 ) ) ;
#576 = ORIENTED_EDGE ( 'NONE', *, *, #581, .T. ) ;
#577 = PRESENTATION_LAYER_ASSIGNMENT (  '', '', ( #256 ) ) ;
#578 = CYLINDRICAL_SURFACE ( 'NONE', #463, 2.100000000000000089 ) ;
#579 = CARTESIAN_POINT ( 'NONE',  ( -3.989999999999999769, 0.000000000000000000, -5.845324224651449816E-16 ) ) ;
#580 = VECTOR ( 'NONE', #403, 1000.000000000000000 ) ;
#581 = EDGE_CURVE ( 'NONE', #877, #478, #869, .T. ) ;
#582 = VECTOR ( 'NONE', #184, 1000.000000000000000 ) ;
#583 = CARTESIAN_POINT ( 'NONE',  ( -1.026000000000000023, -2.443089675875639632E-16, -1.994999999999999885 ) ) ;
#584 = ORIENTED_EDGE ( 'NONE', *, *, #72, .T. ) ;
#585 = DIRECTION ( 'NONE',  ( -6.123233995736769734E-17, -1.000000000000000000, 2.214792304893310036E-16 ) ) ;
#586 = FACE_OUTER_BOUND ( 'NONE', #701, .T. ) ;
#587 = EDGE_CURVE ( 'NONE', #223, #610, #4, .T. ) ;
#588 = ORIENTED_EDGE ( 'NONE', *, *, #634, .F. ) ;
#589 = EDGE_LOOP ( 'NONE', ( #272, #366, #730, #918 ) ) ;
#590 = CARTESIAN_POINT ( 'NONE',  ( -7.364749999999999908, 1.674022513598469903E-16, 1.364750000000000130 ) ) ;
#591 = ORIENTED_EDGE ( 'NONE', *, *, #394, .F. ) ;
#592 = ADVANCED_FACE ( 'NONE', ( #646 ), #206, .T. ) ;
#593 = CARTESIAN_POINT ( 'NONE',  ( 1.469576158976820102E-16, 2.399999999999999911, 1.385640646055100067 ) ) ;
#594 = AXIS2_PLACEMENT_3D ( 'NONE', #936, #485, #638 ) ;
#595 = DIRECTION ( 'NONE',  ( 1.000000000000000000, 0.000000000000000000, 0.000000000000000000 ) ) ;
#596 = VECTOR ( 'NONE', #612, 1000.000000000000000 ) ;
#597 = ORIENTED_EDGE ( 'NONE', *, *, #711, .F. ) ;
#598 = EDGE_CURVE ( 'NONE', #604, #773, #227, .T. ) ;
#599 = LINE ( 'NONE', #593, #62 ) ;
#600 = CARTESIAN_POINT ( 'NONE',  ( -0.4800000000000000377, 2.939152317953649817E-17, 1.889999999999999902 ) ) ;
#601 = ORIENTED_EDGE ( 'NONE', *, *, #587, .T. ) ;
#602 = DIRECTION ( 'NONE',  ( 1.000000000000000000, 0.000000000000000000, 1.836970198721029688E-16 ) ) ;
#603 = VERTEX_POINT ( 'NONE', #217 ) ;
#604 = VERTEX_POINT ( 'NONE', #741 ) ;
#605 = DIRECTION ( 'NONE',  ( -1.000000000000000000, 0.000000000000000000, -2.220446049250309876E-16 ) ) ;
#606 = AXIS2_PLACEMENT_3D ( 'NONE', #870, #511, #726 ) ;
#607 = EDGE_CURVE ( 'NONE', #894, #678, #378, .T. ) ;
#608 = FACE_OUTER_BOUND ( 'NONE', #177, .T. ) ;
#609 = CIRCLE ( 'NONE', #594, 1.193500000000000005 ) ;
#610 = VERTEX_POINT ( 'NONE', #134 ) ;
#611 = VECTOR ( 'NONE', #517, 1000.000000000000000 ) ;
#612 = DIRECTION ( 'NONE',  ( -9.812292078164279139E-33, -2.214792304893310036E-16, -1.000000000000000000 ) ) ;
#613 = CARTESIAN_POINT ( 'NONE',  ( -3.500000000000000000, 0.000000000000000000, 0.000000000000000000 ) ) ;
#614 = EDGE_LOOP ( 'NONE', ( #35, #691, #449, #16, #727, #299 ) ) ;
#615 = CARTESIAN_POINT ( 'NONE',  ( -1.026000000000000023, 1.285879139104720177E-17, 2.047499999999999876 ) ) ;
#616 = CARTESIAN_POINT ( 'NONE',  ( 0.5000000000000000000, -1.088486627874790063E-15, -2.771281292110200134 ) ) ;
#617 = ORIENTED_EDGE ( 'NONE', *, *, #598, .T. ) ;
#618 = EDGE_CURVE ( 'NONE', #46, #432, #832, .T. ) ;
#619 = CARTESIAN_POINT ( 'NONE',  ( -1.361999999999999877, 0.000000000000000000, 0.000000000000000000 ) ) ;
#620 = CARTESIAN_POINT ( 'NONE',  ( -3.500000000000000000, 0.000000000000000000, 0.000000000000000000 ) ) ;
#621 = CLOSED_SHELL ( 'NONE', ( #889, #905, #496, #10, #328, #84, #399, #931, #698, #154, #951, #89, #482, #501, #723, #555, #99, #170, #817, #410, #771, #807, #158, #526, #225, #626, #60, #357, #17, #345, #568, #259, #874, #873, #592 ) ) ;
#622 = DIRECTION ( 'NONE',  ( 1.000000000000000000, 0.000000000000000000, 2.220446049250309876E-16 ) ) ;
#623 = EDGE_LOOP ( 'NONE', ( #21, #716, #793, #552 ) ) ;
#624 = VECTOR ( 'NONE', #775, 1000.000000000000000 ) ;
#625 = FACE_OUTER_BOUND ( 'NONE', #867, .T. ) ;
#626 = ADVANCED_FACE ( 'NONE', ( #239 ), #390, .F. ) ;
#627 = CIRCLE ( 'NONE', #720, 1.229499999999999815 ) ;
#628 = CARTESIAN_POINT ( 'NONE',  ( -0.9210000000000000409, 0.000000000000000000, -2.331468351712830189E-17 ) ) ;
#629 = PRODUCT_RELATED_PRODUCT_CATEGORY ( 'part', '', ( #439 ) ) ;
#630 = CARTESIAN_POINT ( 'NONE',  ( 0.5000000000000000000, 2.399999999999999911, 1.385640646055100067 ) ) ;
#631 = ORIENTED_EDGE ( 'NONE', *, *, #430, .T. ) ;
#632 = DIRECTION ( 'NONE',  ( 0.000000000000000000, 1.000000000000000000, 0.000000000000000000 ) ) ;
#633 = FACE_OUTER_BOUND ( 'NONE', #661, .T. ) ;
#634 = EDGE_CURVE ( 'NONE', #877, #740, #294, .T. ) ;
#635 = PLANE ( 'NONE',  #210 ) ;
#636 = VERTEX_POINT ( 'NONE', #530 ) ;
#637 = CARTESIAN_POINT ( 'NONE',  ( -1.572000000000000064, -2.443089675875639632E-16, -1.994999999999999885 ) ) ;
#638 = DIRECTION ( 'NONE',  ( 0.000000000000000000, 0.000000000000000000, -1.000000000000000000 ) ) ;
#639 = ORIENTED_EDGE ( 'NONE', *, *, #363, .T. ) ;
#640 = DIRECTION ( 'NONE',  ( 0.000000000000000000, 0.000000000000000000, 1.000000000000000000 ) ) ;
#641 = CARTESIAN_POINT ( 'NONE',  ( -7.347880794884118997E-17, -1.199999999999999956, 2.078460969082649878 ) ) ;
#642 = PRODUCT_DEFINITION_FORMATION_WITH_SPECIFIED_SOURCE ( 'ANY', '', #439, .NOT_KNOWN. ) ;
#643 = DIRECTION ( 'NONE',  ( 1.000000000000000000, 0.000000000000000000, 0.000000000000000000 ) ) ;
#644 = ORIENTED_EDGE ( 'NONE', *, *, #538, .T. ) ;
#645 = ORIENTED_EDGE ( 'NONE', *, *, #607, .T. ) ;
#646 = FACE_OUTER_BOUND ( 'NONE', #666, .T. ) ;
#647 = CYLINDRICAL_SURFACE ( 'NONE', #104, 1.994999999999999885 ) ;
#648 = EDGE_LOOP ( 'NONE', ( #754, #20, #516, #189 ) ) ;
#649 = ORIENTED_EDGE ( 'NONE', *, *, #28, .T. ) ;
#650 = EDGE_CURVE ( 'NONE', #903, #147, #627, .T. ) ;
#651 = DIRECTION ( 'NONE',  ( 1.000000000000000000, 0.000000000000000000, 2.220446049250309876E-16 ) ) ;
#652 = DIRECTION ( 'NONE',  ( 1.000000000000000000, 0.000000000000000000, 1.665334536937729880E-16 ) ) ;
#653 = EDGE_LOOP ( 'NONE', ( #416, #572, #676, #862, #314, #200 ) ) ;
#654 = AXIS2_PLACEMENT_3D ( 'NONE', #182, #400, #340 ) ;
#655 = DIRECTION ( 'NONE',  ( 1.000000000000000000, 0.000000000000000000, 2.220446049250309876E-16 ) ) ;
#656 = CARTESIAN_POINT ( 'NONE',  ( -7.364749999999999908, 0.000000000000000000, 0.000000000000000000 ) ) ;
#657 = EDGE_CURVE ( 'NONE', #151, #603, #684, .T. ) ;
#658 = VECTOR ( 'NONE', #564, 1000.000000000000000 ) ;
#659 = AXIS2_PLACEMENT_3D ( 'NONE', #209, #506, #456 ) ;
#660 = DIRECTION ( 'NONE',  ( -2.065146995210484448E-16, 0.000000000000000000, 1.000000000000000000 ) ) ;
#661 = EDGE_LOOP ( 'NONE', ( #512, #94, #683 ) ) ;
#662 = PLANE ( 'NONE',  #803 ) ;
#663 = ORIENTED_EDGE ( 'NONE', *, *, #657, .T. ) ;
#664 = CARTESIAN_POINT ( 'NONE',  ( -0.8159999999999999476, 0.000000000000000000, 1.994999999999999885 ) ) ;
#665 = EDGE_CURVE ( 'NONE', #223, #815, #309, .T. ) ;
#666 = EDGE_LOOP ( 'NONE', ( #446, #302, #539, #371 ) ) ;
#667 = EDGE_LOOP ( 'NONE', ( #391, #871 ) ) ;
#668 = CARTESIAN_POINT ( 'NONE',  ( 1.469576158976820102E-16, 2.399999999999999911, -1.385640646055100067 ) ) ;
#669 = DIRECTION ( 'NONE',  ( 1.000000000000000000, 0.000000000000000000, 1.665334536937729880E-16 ) ) ;
#670 = EDGE_CURVE ( 'NONE', #465, #68, #92, .T. ) ;
#671 = EDGE_LOOP ( 'NONE', ( #601, #927, #826, #5 ) ) ;
#672 = AXIS2_PLACEMENT_3D ( 'NONE', #750, #163, #234 ) ;
#673 = DIRECTION ( 'NONE',  ( -1.000000000000000000, 0.000000000000000000, 0.000000000000000000 ) ) ;
#674 = ORIENTED_EDGE ( 'NONE', *, *, #443, .T. ) ;
#675 = VECTOR ( 'NONE', #33, 1000.000000000000000 ) ;
#676 = ORIENTED_EDGE ( 'NONE', *, *, #389, .F. ) ;
#677 = DIRECTION ( 'NONE',  ( 1.000000000000000000, -6.123233995736769734E-17, 3.749399456654639914E-33 ) ) ;
#678 = VERTEX_POINT ( 'NONE', #304 ) ;
#679 = ORIENTED_EDGE ( 'NONE', *, *, #587, .F. ) ;
#680 = LINE ( 'NONE', #86, #122 ) ;
#681 = EDGE_CURVE ( 'NONE', #604, #835, #680, .T. ) ;
#682 = LINE ( 'NONE', #519, #195 ) ;
#683 = ORIENTED_EDGE ( 'NONE', *, *, #470, .T. ) ;
#684 = LINE ( 'NONE', #755, #460 ) ;
#685 = CARTESIAN_POINT ( 'NONE',  ( -0.8159999999999999476, 0.000000000000000000, 2.100000000000000089 ) ) ;
#686 = VERTEX_POINT ( 'NONE', #831 ) ;
#687 = AXIS2_PLACEMENT_3D ( 'NONE', #778, #330, #417 ) ;
#688 = FACE_OUTER_BOUND ( 'NONE', #77, .T. ) ;
#689 = CARTESIAN_POINT ( 'NONE',  ( -1.193999999999999950, -2.571673343026990073E-16, -2.100000000000000089 ) ) ;
#690 = EDGE_CURVE ( 'NONE', #263, #156, #520, .T. ) ;
#691 = ORIENTED_EDGE ( 'NONE', *, *, #180, .F. ) ;
#692 = CARTESIAN_POINT ( 'NONE',  ( -7.364749999999999908, -1.674022513598469903E-16, -1.364750000000000130 ) ) ;
#693 = LINE ( 'NONE', #787, #658 ) ;
#694 =( NAMED_UNIT ( * ) PLANE_ANGLE_UNIT ( ) SI_UNIT ( $, .RADIAN. ) );
#695 = EDGE_CURVE ( 'NONE', #156, #263, #398, .T. ) ;
#696 = ORIENTED_EDGE ( 'NONE', *, *, #839, .F. ) ;
#697 = FACE_BOUND ( 'NONE', #667, .T. ) ;
#698 = ADVANCED_FACE ( 'NONE', ( #688 ), #823, .T. ) ;
#699 = DIRECTION ( 'NONE',  ( -1.000000000000000000, 0.000000000000000000, 0.000000000000000000 ) ) ;
#700 = CARTESIAN_POINT ( 'NONE',  ( -7.229499999999999815, -1.508122865337480037E-16, -1.229499999999999815 ) ) ;
#701 = EDGE_LOOP ( 'NONE', ( #171, #342, #576, #71 ) ) ;
#702 = AXIS2_PLACEMENT_3D ( 'NONE', #480, #260, #344 ) ;
#703 = DIRECTION ( 'NONE',  ( -1.000000000000000000, 0.000000000000000000, -2.220446049250309876E-16 ) ) ;
#704 = VECTOR ( 'NONE', #145, 1000.000000000000000 ) ;
#705 = CIRCLE ( 'NONE', #341, 2.100000000000000089 ) ;
#706 = CARTESIAN_POINT ( 'NONE',  ( 0.5000000000000000000, -2.399999999999999911, 1.385640646055100067 ) ) ;
#707 = DIRECTION ( 'NONE',  ( -1.000000000000000000, 0.000000000000000000, -3.535250795749684580E-17 ) ) ;
#708 = ORIENTED_EDGE ( 'NONE', *, *, #937, .T. ) ;
#709 = LINE ( 'NONE', #264, #582 ) ;
#710 = CARTESIAN_POINT ( 'NONE',  ( -1.572000000000000064, 1.285879139104720177E-17, 2.100000000000000089 ) ) ;
#711 = EDGE_CURVE ( 'NONE', #442, #722, #246, .T. ) ;
#712 = DIRECTION ( 'NONE',  ( 1.000000000000000000, 0.000000000000000000, 2.220446049250309876E-16 ) ) ;
#713 = VERTEX_POINT ( 'NONE', #26 ) ;
#714 = CARTESIAN_POINT ( 'NONE',  ( 1.469576158976820102E-16, 2.399999999999999911, -1.385640646055100067 ) ) ;
#715 = LINE ( 'NONE', #203, #166 ) ;
#716 = ORIENTED_EDGE ( 'NONE', *, *, #901, .T. ) ;
#717 = DIRECTION ( 'NONE',  ( -2.065146995210484448E-16, 0.000000000000000000, 1.000000000000000000 ) ) ;
#718 = DIRECTION ( 'NONE',  ( 1.000000000000000000, 0.000000000000000000, 1.665334536937729880E-16 ) ) ;
#719 = AXIS2_PLACEMENT_3D ( 'NONE', #212, #804, #732 ) ;
#720 = AXIS2_PLACEMENT_3D ( 'NONE', #749, #896, #827 ) ;
#721 = PLANE ( 'NONE',  #766 ) ;
#722 = VERTEX_POINT ( 'NONE', #759 ) ;
#723 = ADVANCED_FACE ( 'NONE', ( #745, #95 ), #315, .F. ) ;
#724 = FACE_OUTER_BOUND ( 'NONE', #32, .T. ) ;
#725 = FACE_BOUND ( 'NONE', #111, .T. ) ;
#726 = DIRECTION ( 'NONE',  ( -2.173838942326825982E-16, 0.000000000000000000, 1.000000000000000000 ) ) ;
#727 = ORIENTED_EDGE ( 'NONE', *, *, #142, .F. ) ;
#728 = EDGE_CURVE ( 'NONE', #603, #842, #320, .T. ) ;
#729 = CARTESIAN_POINT ( 'NONE',  ( -3.989999999999999769, -2.571673343026990073E-16, -2.100000000000000089 ) ) ;
#730 = ORIENTED_EDGE ( 'NONE', *, *, #828, .T. ) ;
#731 = CARTESIAN_POINT ( 'NONE',  ( -1.361999999999999877, 0.000000000000000000, 2.047499999999999876 ) ) ;
#732 = DIRECTION ( 'NONE',  ( -1.548860246407863336E-16, 0.000000000000000000, 1.000000000000000000 ) ) ;
#733 = ORIENTED_EDGE ( 'NONE', *, *, #690, .F. ) ;
#734 = MECHANICAL_DESIGN_GEOMETRIC_PRESENTATION_REPRESENTATION (  '', ( #256 ), #135 ) ;
#735 = DIRECTION ( 'NONE',  ( 1.000000000000000000, 0.000000000000000000, 1.665334536937729880E-16 ) ) ;
#736 = AXIS2_PLACEMENT_3D ( 'NONE', #810, #136, #566 ) ;
#737 = AXIS2_PLACEMENT_3D ( 'NONE', #175, #469, #157 ) ;
#738 = AXIS2_PLACEMENT_3D ( 'NONE', #790, #112, #326 ) ;
#739 = EDGE_LOOP ( 'NONE', ( #848, #811, #950, #777 ) ) ;
#740 = VERTEX_POINT ( 'NONE', #381 ) ;
#741 = CARTESIAN_POINT ( 'NONE',  ( -1.469576158976820102E-16, -2.399999999999999911, -1.385640646055100067 ) ) ;
#742 = EDGE_CURVE ( 'NONE', #761, #90, #599, .T. ) ;
#743 = FACE_OUTER_BOUND ( 'NONE', #455, .T. ) ;
#744 = ORIENTED_EDGE ( 'NONE', *, *, #253, .F. ) ;
#745 = FACE_BOUND ( 'NONE', #939, .T. ) ;
#746 = ORIENTED_EDGE ( 'NONE', *, *, #487, .T. ) ;
#747 = EDGE_LOOP ( 'NONE', ( #663, #137, #562 ) ) ;
#748 = AXIS2_PLACEMENT_3D ( 'NONE', #127, #420, #472 ) ;
#749 = CARTESIAN_POINT ( 'NONE',  ( -3.500000000000000000, 0.000000000000000000, 0.000000000000000000 ) ) ;
#750 = CARTESIAN_POINT ( 'NONE',  ( -2.500000000000000000, 0.000000000000000000, 0.000000000000000000 ) ) ;
#751 = CIRCLE ( 'NONE', #386, 2.100000000000000089 ) ;
#752 = EDGE_CURVE ( 'NONE', #678, #141, #900, .T. ) ;
#753 = AXIS2_PLACEMENT_3D ( 'NONE', #785, #854, #484 ) ;
#754 = ORIENTED_EDGE ( 'NONE', *, *, #240, .T. ) ;
#755 = CARTESIAN_POINT ( 'NONE',  ( -1.155466226861090018, -7.307838416435040223E-17, 0.5967500000000000027 ) ) ;
#756 = DIRECTION ( 'NONE',  ( 1.000000000000000000, 0.000000000000000000, 0.000000000000000000 ) ) ;
#757 = EDGE_LOOP ( 'NONE', ( #373, #545, #534, #617 ) ) ;
#758 = EDGE_CURVE ( 'NONE', #193, #604, #161, .T. ) ;
#759 = CARTESIAN_POINT ( 'NONE',  ( -7.500000000000000000, -2.571673343026990073E-16, -2.100000000000000089 ) ) ;
#760 = FACE_OUTER_BOUND ( 'NONE', #11, .T. ) ;
#761 = VERTEX_POINT ( 'NONE', #916 ) ;
#762 = CARTESIAN_POINT ( 'NONE',  ( 0.000000000000000000, 0.000000000000000000, 0.000000000000000000 ) ) ;
#763 = AXIS2_PLACEMENT_3D ( 'NONE', #477, #622, #176 ) ;
#764 = EDGE_CURVE ( 'NONE', #116, #610, #819, .T. ) ;
#765 = CARTESIAN_POINT ( 'NONE',  ( 0.5000000000000000000, 1.390758682173010038E-16, 2.771281292110200134 ) ) ;
#766 = AXIS2_PLACEMENT_3D ( 'NONE', #960, #74, #65 ) ;
#767 = ORIENTED_EDGE ( 'NONE', *, *, #513, .F. ) ;
#768 = AXIS2_PLACEMENT_3D ( 'NONE', #619, #178, #563 ) ;
#769 = CYLINDRICAL_SURFACE ( 'NONE', #139, 1.193500000000000005 ) ;
#770 = CYLINDRICAL_SURFACE ( 'NONE', #197, 2.100000000000000089 ) ;
#771 = ADVANCED_FACE ( 'NONE', ( #697, #411 ), #194, .F. ) ;
#772 = LINE ( 'NONE', #270, #162 ) ;
#773 = VERTEX_POINT ( 'NONE', #335 ) ;
#774 = FACE_OUTER_BOUND ( 'NONE', #229, .T. ) ;
#775 = DIRECTION ( 'NONE',  ( 9.812292078164279139E-33, 2.214792304893310036E-16, 1.000000000000000000 ) ) ;
#776 = DIRECTION ( 'NONE',  ( 3.061616997868378704E-17, 0.4999999999999998890, -0.8660254037844387076 ) ) ;
#777 = ORIENTED_EDGE ( 'NONE', *, *, #634, .T. ) ;
#778 = CARTESIAN_POINT ( 'NONE',  ( -1.572000000000000064, 0.000000000000000000, -4.662936703425660379E-17 ) ) ;
#779 = DIRECTION ( 'NONE',  ( -1.000000000000000000, 0.000000000000000000, -2.220446049250309876E-16 ) ) ;
#780 = VECTOR ( 'NONE', #481, 1000.000000000000000 ) ;
#781 = DIRECTION ( 'NONE',  ( 0.000000000000000000, 0.000000000000000000, -1.000000000000000000 ) ) ;
#782 = ORIENTED_EDGE ( 'NONE', *, *, #522, .T. ) ;
#783 = AXIS2_PLACEMENT_3D ( 'NONE', #796, #955, #875 ) ;
#784 = EDGE_CURVE ( 'NONE', #68, #465, #802, .T. ) ;
#785 = CARTESIAN_POINT ( 'NONE',  ( -0.2400000000000000189, 0.000000000000000000, -4.408728476930470412E-17 ) ) ;
#786 = CIRCLE ( 'NONE', #928, 1.994999999999999885 ) ;
#787 = CARTESIAN_POINT ( 'NONE',  ( -0.6480000000000000204, -2.571673343026990073E-16, -2.100000000000000089 ) ) ;
#788 = LINE ( 'NONE', #765, #150 ) ;
#789 = ORIENTED_EDGE ( 'NONE', *, *, #324, .T. ) ;
#790 = CARTESIAN_POINT ( 'NONE',  ( -0.4800000000000000377, 0.000000000000000000, 1.050000000000000044 ) ) ;
#791 = CYLINDRICAL_SURFACE ( 'NONE', #702, 1.994999999999999885 ) ;
#792 = CYLINDRICAL_SURFACE ( 'NONE', #797, 1.229499999999999815 ) ;
#793 = ORIENTED_EDGE ( 'NONE', *, *, #110, .F. ) ;
#794 = DIRECTION ( 'NONE',  ( 1.000000000000000000, -6.123233995736769734E-17, 3.749399456654639914E-33 ) ) ;
#795 = EDGE_CURVE ( 'NONE', #740, #877, #548, .T. ) ;
#796 = CARTESIAN_POINT ( 'NONE',  ( -1.361999999999999877, 0.000000000000000000, 0.000000000000000000 ) ) ;
#797 = AXIS2_PLACEMENT_3D ( 'NONE', #218, #643, #70 ) ;
#798 = PRODUCT_DEFINITION_CONTEXT ( 'detailed design', #550, 'design' ) ;
#799 = ORIENTED_EDGE ( 'NONE', *, *, #845, .T. ) ;
#800 = CARTESIAN_POINT ( 'NONE',  ( -1.469576158976820102E-16, -2.399999999999999911, -5.191761988774119634E-16 ) ) ;
#801 = DIRECTION ( 'NONE',  ( -1.000000000000000000, 0.000000000000000000, -1.665334536937729880E-16 ) ) ;
#802 = CIRCLE ( 'NONE', #153, 2.100000000000000089 ) ;
#803 = AXIS2_PLACEMENT_3D ( 'NONE', #367, #148, #372 ) ;
#804 = DIRECTION ( 'NONE',  ( 1.000000000000000000, 0.000000000000000000, 1.665334536937729880E-16 ) ) ;
#805 = EDGE_CURVE ( 'NONE', #116, #815, #405, .T. ) ;
#806 = ORIENTED_EDGE ( 'NONE', *, *, #784, .F. ) ;
#807 = ADVANCED_FACE ( 'NONE', ( #843 ), #769, .F. ) ;
#808 = CARTESIAN_POINT ( 'NONE',  ( -3.500000000000000000, -1.508122865337480037E-16, -1.229499999999999815 ) ) ;
#809 = CARTESIAN_POINT ( 'NONE',  ( -2.500000000000000000, 1.461567683287010263E-16, -1.193500000000000005 ) ) ;
#810 = CARTESIAN_POINT ( 'NONE',  ( -0.4800000000000000377, 0.000000000000000000, -8.817456953860940824E-17 ) ) ;
#811 = ORIENTED_EDGE ( 'NONE', *, *, #813, .F. ) ;
#812 = FACE_OUTER_BOUND ( 'NONE', #757, .T. ) ;
#813 = EDGE_CURVE ( 'NONE', #478, #1, #233, .T. ) ;
#814 = DIRECTION ( 'NONE',  ( 0.000000000000000000, 0.000000000000000000, 1.000000000000000000 ) ) ;
#815 = VERTEX_POINT ( 'NONE', #863 ) ;
#816 = PRODUCT_CONTEXT ( 'NONE', #824, 'mechanical' ) ;
#817 = ADVANCED_FACE ( 'NONE', ( #202, #625 ), #850, .F. ) ;
#818 = DIRECTION ( 'NONE',  ( -2.173838942326825982E-16, 0.000000000000000000, 1.000000000000000000 ) ) ;
#819 = CIRCLE ( 'NONE', #79, 1.229499999999999815 ) ;
#820 = UNCERTAINTY_MEASURE_WITH_UNIT (LENGTH_MEASURE( 1.000000000000000082E-05 ), #541, 'distance_accuracy_value', 'NONE');
#821 = FACE_BOUND ( 'NONE', #208, .T. ) ;
#822 = ORIENTED_EDGE ( 'NONE', *, *, #527, .T. ) ;
#823 = PLANE ( 'NONE',  #737 ) ;
#824 = APPLICATION_CONTEXT ( 'automotive_design' ) ;
#825 = DIRECTION ( 'NONE',  ( 0.000000000000000000, 0.000000000000000000, -1.000000000000000000 ) ) ;
#826 = ORIENTED_EDGE ( 'NONE', *, *, #805, .T. ) ;
#827 = DIRECTION ( 'NONE',  ( 0.000000000000000000, 2.008420750601660051E-19, 1.000000000000000000 ) ) ;
#828 = EDGE_CURVE ( 'NONE', #894, #761, #348, .T. ) ;
#829 = ORIENTED_EDGE ( 'NONE', *, *, #186, .T. ) ;
#830 = ORIENTED_EDGE ( 'NONE', *, *, #290, .F. ) ;
#831 = CARTESIAN_POINT ( 'NONE',  ( -0.4800000000000000377, -2.314506008724289685E-16, -1.889999999999999902 ) ) ;
#832 = CIRCLE ( 'NONE', #659, 2.100000000000000089 ) ;
#833 = DIRECTION ( 'NONE',  ( -1.864368815120576430E-16, 0.000000000000000000, 1.000000000000000000 ) ) ;
#834 = EDGE_CURVE ( 'NONE', #835, #141, #422, .T. ) ;
#835 = VERTEX_POINT ( 'NONE', #489 ) ;
#836 = DIRECTION ( 'NONE',  ( -1.000000000000000000, 0.000000000000000000, -2.220446049250309876E-16 ) ) ;
#837 = CARTESIAN_POINT ( 'NONE',  ( -0.2400000000000000189, 0.000000000000000000, -4.408728476930470412E-17 ) ) ;
#838 = ORIENTED_EDGE ( 'NONE', *, *, #795, .F. ) ;
#839 = EDGE_CURVE ( 'NONE', #907, #401, #751, .T. ) ;
#840 = DIRECTION ( 'NONE',  ( -5.302876193624528411E-17, -0.8660254037844387076, -0.4999999999999998890 ) ) ;
#841 = DIRECTION ( 'NONE',  ( -1.962458415632859933E-32, -3.817261210212950247E-16, -1.000000000000000000 ) ) ;
#842 = VERTEX_POINT ( 'NONE', #919 ) ;
#843 = FACE_OUTER_BOUND ( 'NONE', #235, .T. ) ;
#844 = CIRCLE ( 'NONE', #748, 1.889999999999999902 ) ;
#845 = EDGE_CURVE ( 'NONE', #107, #156, #709, .T. ) ;
#846 = CARTESIAN_POINT ( 'NONE',  ( -0.4800000000000000377, -2.571673343026990073E-16, -2.100000000000000089 ) ) ;
#847 = CIRCLE ( 'NONE', #736, 1.889999999999999902 ) ;
#848 = ORIENTED_EDGE ( 'NONE', *, *, #424, .F. ) ;
#849 = AXIS2_PLACEMENT_3D ( 'NONE', #165, #602, #308 ) ;
#850 = PLANE ( 'NONE',  #355 ) ;
#851 = CARTESIAN_POINT ( 'NONE',  ( -1.572000000000000064, 0.000000000000000000, -1.818545314336010247E-16 ) ) ;
#852 = CARTESIAN_POINT ( 'NONE',  ( -0.2400000000000000189, -2.314506008724289685E-16, -1.889999999999999902 ) ) ;
#853 = ORIENTED_EDGE ( 'NONE', *, *, #271, .T. ) ;
#854 = DIRECTION ( 'NONE',  ( 1.000000000000000000, 0.000000000000000000, 1.836970198721029688E-16 ) ) ;
#855 = CARTESIAN_POINT ( 'NONE',  ( -0.8159999999999999476, -2.571673343026990073E-16, -2.100000000000000089 ) ) ;
#856 = LINE ( 'NONE', #689, #531 ) ;
#857 = ORIENTED_EDGE ( 'NONE', *, *, #118, .T. ) ;
#858 = DIRECTION ( 'NONE',  ( 1.000000000000000000, 0.000000000000000000, 0.000000000000000000 ) ) ;
#859 = CARTESIAN_POINT ( 'NONE',  ( 0.5000000000000000000, -2.399999999999999911, 1.385640646055100067 ) ) ;
#860 = AXIS2_PLACEMENT_3D ( 'NONE', #55, #440, #204 ) ;
#861 = LINE ( 'NONE', #192, #445 ) ;
#862 = ORIENTED_EDGE ( 'NONE', *, *, #681, .F. ) ;
#863 = CARTESIAN_POINT ( 'NONE',  ( -7.500000000000000000, 0.000000000000000000, -1.500000000000000000 ) ) ;
#864 = AXIS2_PLACEMENT_3D ( 'NONE', #892, #574, #872 ) ;
#865 = LINE ( 'NONE', #706, #624 ) ;
#866 = CARTESIAN_POINT ( 'NONE',  ( -7.500000000000000000, 1.839922161859470122E-16, 1.500000000000000000 ) ) ;
#867 = EDGE_LOOP ( 'NONE', ( #806, #220 ) ) ;
#868 = DIRECTION ( 'NONE',  ( 1.000000000000000000, -6.123233995736769734E-17, 3.749399456654639914E-33 ) ) ;
#869 = LINE ( 'NONE', #78, #199 ) ;
#870 = CARTESIAN_POINT ( 'NONE',  ( -1.467000000000000082, 0.000000000000000000, -2.331468351712830189E-17 ) ) ;
#871 = ORIENTED_EDGE ( 'NONE', *, *, #375, .T. ) ;
#872 = DIRECTION ( 'NONE',  ( 0.000000000000000000, 0.000000000000000000, 1.000000000000000000 ) ) ;
#873 = ADVANCED_FACE ( 'NONE', ( #553 ), #479, .T. ) ;
#874 = ADVANCED_FACE ( 'NONE', ( #934 ), #268, .T. ) ;
#875 = DIRECTION ( 'NONE',  ( -2.173838942326825982E-16, 0.000000000000000000, 1.000000000000000000 ) ) ;
#876 = CIRCLE ( 'NONE', #25, 2.100000000000000089 ) ;
#877 = VERTEX_POINT ( 'NONE', #637 ) ;
#878 = CARTESIAN_POINT ( 'NONE',  ( -7.500000000000000000, 0.000000000000000000, -1.169064844930289963E-15 ) ) ;
#879 = EDGE_LOOP ( 'NONE', ( #529, #360, #468, #649 ) ) ;
#880 = CIRCLE ( 'NONE', #43, 2.100000000000000089 ) ;
#881 = DIRECTION ( 'NONE',  ( 0.7071067811865480168, -8.673476250041608631E-17, -0.7071067811865470176 ) ) ;
#882 = VECTOR ( 'NONE', #500, 1000.000000000000000 ) ;
#883 = AXIS2_PLACEMENT_3D ( 'NONE', #124, #52, #922 ) ;
#884 = CARTESIAN_POINT ( 'NONE',  ( -1.361999999999999877, 0.000000000000000000, -1.468825061579080080E-16 ) ) ;
#885 = EDGE_LOOP ( 'NONE', ( #524, #325 ) ) ;
#886 = CARTESIAN_POINT ( 'NONE',  ( -0.8159999999999999476, 0.000000000000000000, -5.595524044110779142E-17 ) ) ;
#887 = FACE_OUTER_BOUND ( 'NONE', #409, .T. ) ;
#888 = ORIENTED_EDGE ( 'NONE', *, *, #945, .T. ) ;
#889 = ADVANCED_FACE ( 'NONE', ( #546, #774 ), #273, .T. ) ;
#890 =( LENGTH_UNIT ( ) NAMED_UNIT ( * ) SI_UNIT ( .MILLI., .METRE. ) );
#891 = ORIENTED_EDGE ( 'NONE', *, *, #219, .F. ) ;
#892 = CARTESIAN_POINT ( 'NONE',  ( -3.989999999999999769, 0.000000000000000000, -5.845324224651449816E-16 ) ) ;
#893 = COLOUR_RGB ( '',0.5098039215686274161, 0.5098039215686274161, 0.5882352941176470784 ) ;
#894 = VERTEX_POINT ( 'NONE', #714 ) ;
#895 = VERTEX_POINT ( 'NONE', #505 ) ;
#896 = DIRECTION ( 'NONE',  ( -1.000000000000000000, 0.000000000000000000, 0.000000000000000000 ) ) ;
#897 = AXIS2_PLACEMENT_3D ( 'NONE', #438, #801, #140 ) ;
#898 = LINE ( 'NONE', #523, #41 ) ;
#899 = EDGE_LOOP ( 'NONE', ( #953, #915, #39, #334 ) ) ;
#900 = LINE ( 'NONE', #232, #216 ) ;
#901 = EDGE_CURVE ( 'NONE', #636, #962, #448, .T. ) ;
#902 = ORIENTED_EDGE ( 'NONE', *, *, #813, .T. ) ;
#903 = VERTEX_POINT ( 'NONE', #808 ) ;
#904 = DIRECTION ( 'NONE',  ( 1.000000000000000000, 0.000000000000000000, 1.665334536937729880E-16 ) ) ;
#905 = ADVANCED_FACE ( 'NONE', ( #724 ), #578, .T. ) ;
#906 = FACE_OUTER_BOUND ( 'NONE', #75, .T. ) ;
#907 = VERTEX_POINT ( 'NONE', #946 ) ;
#908 = CIRCLE ( 'NONE', #408, 1.193500000000000005 ) ;
#909 = DIRECTION ( 'NONE',  ( 0.000000000000000000, 0.000000000000000000, -1.000000000000000000 ) ) ;
#910 = VECTOR ( 'NONE', #943, 1000.000000000000000 ) ;
#911 = AXIS2_PLACEMENT_3D ( 'NONE', #453, #904, #244 ) ;
#912 = LINE ( 'NONE', #23, #228 ) ;
#913 = EDGE_CURVE ( 'NONE', #722, #442, #295, .T. ) ;
#914 =( GEOMETRIC_REPRESENTATION_CONTEXT ( 3 ) GLOBAL_UNCERTAINTY_ASSIGNED_CONTEXT ( ( #83 ) ) GLOBAL_UNIT_ASSIGNED_CONTEXT ( ( #890, #362, #573 ) ) REPRESENTATION_CONTEXT ( 'NONE', 'WORKASPACE' ) );
#915 = ORIENTED_EDGE ( 'NONE', *, *, #131, .T. ) ;
#916 = CARTESIAN_POINT ( 'NONE',  ( 1.469576158976820102E-16, 2.399999999999999911, 1.385640646055100067 ) ) ;
#917 = CARTESIAN_POINT ( 'NONE',  ( -3.989999999999999769, 0.000000000000000000, -5.845324224651449816E-16 ) ) ;
#918 = ORIENTED_EDGE ( 'NONE', *, *, #742, .T. ) ;
#919 = CARTESIAN_POINT ( 'NONE',  ( -3.500000000000000000, -1.461567683287010263E-16, 1.193500000000000005 ) ) ;
#920 = FACE_OUTER_BOUND ( 'NONE', #747, .T. ) ;
#921 = ORIENTED_EDGE ( 'NONE', *, *, #901, .F. ) ;
#922 = DIRECTION ( 'NONE',  ( 0.000000000000000000, 0.000000000000000000, 1.000000000000000000 ) ) ;
#923 = AXIS2_PLACEMENT_3D ( 'NONE', #938, #187, #781 ) ;
#924 = DIRECTION ( 'NONE',  ( -1.000000000000000000, 0.000000000000000000, -2.220446049250309876E-16 ) ) ;
#925 = CARTESIAN_POINT ( 'NONE',  ( 7.347880794884110368E-17, 1.199999999999999956, -2.078460969082649878 ) ) ;
#926 = AXIS2_PLACEMENT_3D ( 'NONE', #641, #948, #269 ) ;
#927 = ORIENTED_EDGE ( 'NONE', *, *, #361, .T. ) ;
#928 = AXIS2_PLACEMENT_3D ( 'NONE', #297, #515, #959 ) ;
#929 = DIRECTION ( 'NONE',  ( -1.000000000000000000, 0.000000000000000000, -2.220446049250309876E-16 ) ) ;
#930 = DIRECTION ( 'NONE',  ( 0.000000000000000000, 2.008420750601660051E-19, 1.000000000000000000 ) ) ;
#931 = ADVANCED_FACE ( 'NONE', ( #812 ), #224, .T. ) ;
#932 = FACE_BOUND ( 'NONE', #387, .T. ) ;
#933 = ORIENTED_EDGE ( 'NONE', *, *, #913, .F. ) ;
#934 = FACE_OUTER_BOUND ( 'NONE', #623, .T. ) ;
#935 = ADVANCED_BREP_SHAPE_REPRESENTATION ( 'BSO-M3-8ZI', ( #211, #462 ), #914 ) ;
#936 = CARTESIAN_POINT ( 'NONE',  ( -3.500000000000000000, 0.000000000000000000, 0.000000000000000000 ) ) ;
#937 = EDGE_CURVE ( 'NONE', #193, #421, #76, .T. ) ;
#938 = CARTESIAN_POINT ( 'NONE',  ( -1.155466226861090018, 0.000000000000000000, 0.000000000000000000 ) ) ;
#939 = EDGE_LOOP ( 'NONE', ( #838, #588 ) ) ;
#940 = DIRECTION ( 'NONE',  ( 1.000000000000000000, -6.123233995736769734E-17, 3.749399456654639914E-33 ) ) ;
#941 = DIRECTION ( 'NONE',  ( -1.000000000000000000, 0.000000000000000000, 0.000000000000000000 ) ) ;
#942 = AXIS2_PLACEMENT_3D ( 'NONE', #837, #9, #833 ) ;
#943 = DIRECTION ( 'NONE',  ( -1.000000000000000000, 0.000000000000000000, 0.000000000000000000 ) ) ;
#944 = ORIENTED_EDGE ( 'NONE', *, *, #834, .T. ) ;
#945 = EDGE_CURVE ( 'NONE', #713, #722, #143, .T. ) ;
#946 = CARTESIAN_POINT ( 'NONE',  ( -0.4800000000000000377, 0.000000000000000000, 2.100000000000000089 ) ) ;
#947 = VECTOR ( 'NONE', #108, 1000.000000000000000 ) ;
#948 = DIRECTION ( 'NONE',  ( -3.061616997868379320E-17, -0.4999999999999998890, 0.8660254037844387076 ) ) ;
#949 = CARTESIAN_POINT ( 'NONE',  ( -1.193999999999999950, 2.571673343026990073E-16, 2.100000000000000089 ) ) ;
#950 = ORIENTED_EDGE ( 'NONE', *, *, #581, .F. ) ;
#951 = ADVANCED_FACE ( 'NONE', ( #67 ), #662, .T. ) ;
#952 = CARTESIAN_POINT ( 'NONE',  ( -3.989999999999999769, 0.000000000000000000, -5.845324224651449816E-16 ) ) ;
#953 = ORIENTED_EDGE ( 'NONE', *, *, #188, .T. ) ;
#954 = PLANE ( 'NONE',  #447 ) ;
#955 = DIRECTION ( 'NONE',  ( 1.000000000000000000, 0.000000000000000000, 2.220446049250309876E-16 ) ) ;
#956 = ORIENTED_EDGE ( 'NONE', *, *, #598, .F. ) ;
#957 = DIRECTION ( 'NONE',  ( -1.000000000000000000, 6.123233995736769734E-17, 0.000000000000000000 ) ) ;
#958 = ORIENTED_EDGE ( 'NONE', *, *, #290, .T. ) ;
#959 = DIRECTION ( 'NONE',  ( -2.173838942326825982E-16, 0.000000000000000000, 1.000000000000000000 ) ) ;
#960 = CARTESIAN_POINT ( 'NONE',  ( 0.5000000000000000000, 8.040613248383179305E-17, -1.049665405100150028E-15 ) ) ;
#961 = CIRCLE ( 'NONE', #763, 1.994999999999999885 ) ;
#962 = VERTEX_POINT ( 'NONE', #433 ) ;
#963 = CIRCLE ( 'NONE', #292, 1.229499999999999815 ) ;
#964 = DIRECTION ( 'NONE',  ( 0.000000000000000000, 2.008420750601659810E-19, 1.000000000000000000 ) ) ;
#965 = AXIS2_PLACEMENT_3D ( 'NONE', #521, #172, #909 ) ;
#966 = EDGE_CURVE ( 'NONE', #432, #46, #705, .T. ) ;
#967 = DIRECTION ( 'NONE',  ( 0.000000000000000000, 0.000000000000000000, -1.000000000000000000 ) ) ;
ENDSEC;
END-ISO-10303-21;
