ISO-10303-21;
HEADER;
FILE_DESCRIPTION (( 'STEP AP214' ),
    '1' );
FILE_NAME ('124-4450.step',
    '2026-02-27T00:30:31',
    ( '' ),
    ( '' ),
    'SwSTEP 2.0',
    'SolidWorks 2023',
    '' );
FILE_SCHEMA (( 'AUTOMOTIVE_DESIGN' ));
ENDSEC;

DATA;
#1 = AXIS2_PLACEMENT_3D ( 'NONE', #362, #61, #305 ) ;
#2 = ORIENTED_EDGE ( 'NONE', *, *, #120, .F. ) ;
#3 = DIRECTION ( 'NONE',  ( -0.000000000000000000, -1.000000000000000000, -0.000000000000000000 ) ) ;
#4 = EDGE_LOOP ( 'NONE', ( #138, #68, #10, #174 ) ) ;
#5 = CARTESIAN_POINT ( 'NONE',  ( 1.959434878635765131E-15, 5.000000000000000000, -16.00000000000000000 ) ) ;
#6 = EDGE_CURVE ( 'NONE', #41, #309, #74, .T. ) ;
#7 = VERTEX_POINT ( 'NONE', #252 ) ;
#8 = DIRECTION ( 'NONE',  ( -0.000000000000000000, -1.000000000000000000, -0.000000000000000000 ) ) ;
#9 = COLOUR_RGB ( '',0.5019607843137254832, 0.5019607843137254832, 0.5019607843137254832 ) ;
#10 = ORIENTED_EDGE ( 'NONE', *, *, #233, .T. ) ;
#11 = AXIS2_PLACEMENT_3D ( 'NONE', #359, #81, #187 ) ;
#12 = FACE_OUTER_BOUND ( 'NONE', #110, .T. ) ;
#13 = ORIENTED_EDGE ( 'NONE', *, *, #308, .T. ) ;
#14 = CARTESIAN_POINT ( 'NONE',  ( 0.000000000000000000, 8.000000000000000000, 0.000000000000000000 ) ) ;
#15 = CARTESIAN_POINT ( 'NONE',  ( 0.000000000000000000, 4.499999999999997335, 12.50000000000000000 ) ) ;
#16 = LINE ( 'NONE', #54, #365 ) ;
#17 = ADVANCED_FACE ( 'NONE', ( #382 ), #349, .F. ) ;
#18 = VERTEX_POINT ( 'NONE', #15 ) ;
#19 = FACE_BOUND ( 'NONE', #214, .T. ) ;
#20 = DIRECTION ( 'NONE',  ( 0.000000000000000000, 0.000000000000000000, 1.000000000000000000 ) ) ;
#21 = DIRECTION ( 'NONE',  ( 0.000000000000000000, 0.000000000000000000, 1.000000000000000000 ) ) ;
#22 = PRODUCT ( '124-4450', '124-4450', '', ( #59 ) ) ;
#23 = CARTESIAN_POINT ( 'NONE',  ( 0.000000000000000000, 0.000000000000000000, 0.000000000000000000 ) ) ;
#24 = ADVANCED_FACE ( 'NONE', ( #151 ), #298, .F. ) ;
#25 = LINE ( 'NONE', #158, #199 ) ;
#26 = CARTESIAN_POINT ( 'NONE',  ( 1.530808498934191521E-15, -31.35533905932737753, -12.50000000000000000 ) ) ;
#27 = AXIS2_PLACEMENT_3D ( 'NONE', #156, #328, #21 ) ;
#28 = LINE ( 'NONE', #303, #237 ) ;
#29 = CARTESIAN_POINT ( 'NONE',  ( 0.000000000000000000, 3.500000000000003109, 0.000000000000000000 ) ) ;
#30 = FACE_OUTER_BOUND ( 'NONE', #323, .T. ) ;
#31 = CIRCLE ( 'NONE', #183, 12.50000000000000000 ) ;
#32 = ORIENTED_EDGE ( 'NONE', *, *, #128, .T. ) ;
#33 = APPLICATION_PROTOCOL_DEFINITION ( 'draft international standard', 'automotive_design', 1998, #117 ) ;
#34 = PRODUCT_DEFINITION ( 'UNKNOWN', '', #102, #105 ) ;
#35 = ORIENTED_EDGE ( 'NONE', *, *, #315, .T. ) ;
#36 = CIRCLE ( 'NONE', #125, 12.50000000000000000 ) ;
#37 = CYLINDRICAL_SURFACE ( 'NONE', #442, 19.50000000000000000 ) ;
#38 = EDGE_CURVE ( 'NONE', #44, #309, #137, .T. ) ;
#39 = VERTEX_POINT ( 'NONE', #197 ) ;
#40 = DIRECTION ( 'NONE',  ( -0.000000000000000000, -1.000000000000000000, -0.000000000000000000 ) ) ;
#41 = VERTEX_POINT ( 'NONE', #327 ) ;
#42 = SURFACE_STYLE_USAGE ( .BOTH. , #109 ) ;
#43 = CIRCLE ( 'NONE', #271, 19.50000000000000000 ) ;
#44 = VERTEX_POINT ( 'NONE', #234 ) ;
#45 = AXIS2_PLACEMENT_3D ( 'NONE', #368, #204, #267 ) ;
#46 = DIRECTION ( 'NONE',  ( 0.000000000000000000, 1.000000000000000000, 0.000000000000000000 ) ) ;
#47 = ORIENTED_EDGE ( 'NONE', *, *, #435, .F. ) ;
#48 = EDGE_CURVE ( 'NONE', #373, #7, #28, .T. ) ;
#49 = CYLINDRICAL_SURFACE ( 'NONE', #162, 12.50000000000000000 ) ;
#50 = ORIENTED_EDGE ( 'NONE', *, *, #400, .F. ) ;
#51 = DIRECTION ( 'NONE',  ( 0.000000000000000000, -0.000000000000000000, 1.000000000000000000 ) ) ;
#52 = CARTESIAN_POINT ( 'NONE',  ( 0.000000000000000000, 3.500000000000000000, 0.000000000000000000 ) ) ;
#53 = VECTOR ( 'NONE', #65, 1000.000000000000000 ) ;
#54 = CARTESIAN_POINT ( 'NONE',  ( 0.000000000000000000, -31.35533905932737753, 12.50000000000000000 ) ) ;
#55 = ADVANCED_FACE ( 'NONE', ( #333 ), #334, .T. ) ;
#56 = LINE ( 'NONE', #329, #168 ) ;
#57 = CARTESIAN_POINT ( 'NONE',  ( 0.000000000000000000, 0.000000000000000000, -19.50000000000000000 ) ) ;
#58 = LINE ( 'NONE', #26, #176 ) ;
#59 = PRODUCT_CONTEXT ( 'NONE', #117, 'mechanical' ) ;
#60 = DIRECTION ( 'NONE',  ( -0.000000000000000000, -1.000000000000000000, -0.000000000000000000 ) ) ;
#61 = DIRECTION ( 'NONE',  ( 0.000000000000000000, 1.000000000000000000, 0.000000000000000000 ) ) ;
#62 = ADVANCED_FACE ( 'NONE', ( #200, #159 ), #96, .F. ) ;
#63 = CARTESIAN_POINT ( 'NONE',  ( 0.000000000000000000, 0.000000000000000000, 0.000000000000000000 ) ) ;
#64 = DIRECTION ( 'NONE',  ( 0.000000000000000000, 0.000000000000000000, 1.000000000000000000 ) ) ;
#65 = DIRECTION ( 'NONE',  ( -0.000000000000000000, 1.000000000000000000, -0.000000000000000000 ) ) ;
#66 = PRESENTATION_LAYER_ASSIGNMENT (  '', '', ( #332 ) ) ;
#67 = AXIS2_PLACEMENT_3D ( 'NONE', #431, #90, #258 ) ;
#68 = ORIENTED_EDGE ( 'NONE', *, *, #175, .T. ) ;
#69 = ORIENTED_EDGE ( 'NONE', *, *, #166, .F. ) ;
#70 = ORIENTED_EDGE ( 'NONE', *, *, #38, .T. ) ;
#71 = DIRECTION ( 'NONE',  ( -0.000000000000000000, -1.000000000000000000, -0.000000000000000000 ) ) ;
#72 = AXIS2_PLACEMENT_3D ( 'NONE', #235, #129, #161 ) ;
#73 = EDGE_LOOP ( 'NONE', ( #321, #347 ) ) ;
#74 = LINE ( 'NONE', #288, #300 ) ;
#75 = CYLINDRICAL_SURFACE ( 'NONE', #265, 19.50000000000000000 ) ;
#76 = ORIENTED_EDGE ( 'NONE', *, *, #196, .T. ) ;
#77 = DIRECTION ( 'NONE',  ( 0.000000000000000000, 1.000000000000000000, 0.000000000000000000 ) ) ;
#78 = EDGE_CURVE ( 'NONE', #353, #373, #36, .T. ) ;
#79 = AXIS2_PLACEMENT_3D ( 'NONE', #210, #40, #367 ) ;
#80 = VERTEX_POINT ( 'NONE', #193 ) ;
#81 = DIRECTION ( 'NONE',  ( 0.000000000000000000, 1.000000000000000000, 0.000000000000000000 ) ) ;
#82 = ORIENTED_EDGE ( 'NONE', *, *, #429, .F. ) ;
#83 = CARTESIAN_POINT ( 'NONE',  ( 0.000000000000000000, 3.000000000000000000, 0.000000000000000000 ) ) ;
#84 = ORIENTED_EDGE ( 'NONE', *, *, #216, .F. ) ;
#85 = ADVANCED_FACE ( 'NONE', ( #269, #357 ), #366, .T. ) ;
#86 = DIRECTION ( 'NONE',  ( 0.000000000000000000, 1.000000000000000000, 0.000000000000000000 ) ) ;
#87 = DIRECTION ( 'NONE',  ( 0.000000000000000000, 0.000000000000000000, 1.000000000000000000 ) ) ;
#88 = VECTOR ( 'NONE', #144, 1000.000000000000000 ) ;
#89 = CIRCLE ( 'NONE', #11, 16.00000000000000000 ) ;
#90 = DIRECTION ( 'NONE',  ( 0.000000000000000000, 1.000000000000000000, 0.000000000000000000 ) ) ;
#91 = CARTESIAN_POINT ( 'NONE',  ( 0.000000000000000000, 39.35533905932737753, 0.000000000000000000 ) ) ;
#92 = DIRECTION ( 'NONE',  ( -0.000000000000000000, -1.000000000000000000, -0.000000000000000000 ) ) ;
#93 = DIRECTION ( 'NONE',  ( 0.000000000000000000, 1.000000000000000000, 0.000000000000000000 ) ) ;
#94 = EDGE_CURVE ( 'NONE', #409, #41, #358, .T. ) ;
#95 = CIRCLE ( 'NONE', #370, 12.50000000000000000 ) ;
#96 = PLANE ( 'NONE',  #72 ) ;
#97 = APPLICATION_PROTOCOL_DEFINITION ( 'draft international standard', 'automotive_design', 1998, #139 ) ;
#98 = DIRECTION ( 'NONE',  ( 0.000000000000000000, 0.000000000000000000, -1.000000000000000000 ) ) ;
#99 = ORIENTED_EDGE ( 'NONE', *, *, #262, .F. ) ;
#100 = ORIENTED_EDGE ( 'NONE', *, *, #166, .T. ) ;
#101 = AXIS2_PLACEMENT_3D ( 'NONE', #91, #92, #440 ) ;
#102 = PRODUCT_DEFINITION_FORMATION_WITH_SPECIFIED_SOURCE ( 'ANY', '', #22, .NOT_KNOWN. ) ;
#103 = ORIENTED_EDGE ( 'NONE', *, *, #375, .T. ) ;
#104 = ORIENTED_EDGE ( 'NONE', *, *, #94, .F. ) ;
#105 = PRODUCT_DEFINITION_CONTEXT ( 'detailed design', #139, 'design' ) ;
#106 = CARTESIAN_POINT ( 'NONE',  ( 0.000000000000000000, 8.000000000000000000, 0.000000000000000000 ) ) ;
#107 = DIRECTION ( 'NONE',  ( 0.000000000000000000, 1.000000000000000000, 0.000000000000000000 ) ) ;
#108 = ORIENTED_EDGE ( 'NONE', *, *, #406, .T. ) ;
#109 = SURFACE_SIDE_STYLE ('',( #148 ) ) ;
#110 = EDGE_LOOP ( 'NONE', ( #103, #188, #143, #2 ) ) ;
#111 = FACE_OUTER_BOUND ( 'NONE', #4, .T. ) ;
#112 = EDGE_CURVE ( 'NONE', #18, #39, #95, .T. ) ;
#113 = CARTESIAN_POINT ( 'NONE',  ( 0.000000000000000000, 39.35533905932737753, 0.000000000000000000 ) ) ;
#114 = CARTESIAN_POINT ( 'NONE',  ( 0.000000000000000000, 8.000000000000000000, 0.000000000000000000 ) ) ;
#115 = AXIS2_PLACEMENT_3D ( 'NONE', #191, #434, #295 ) ;
#116 = EDGE_LOOP ( 'NONE', ( #247, #311, #286, #417 ) ) ;
#117 = APPLICATION_CONTEXT ( 'automotive_design' ) ;
#118 = DIRECTION ( 'NONE',  ( -0.000000000000000000, 1.000000000000000000, -0.000000000000000000 ) ) ;
#119 = ORIENTED_EDGE ( 'NONE', *, *, #419, .T. ) ;
#120 = EDGE_CURVE ( 'NONE', #173, #421, #56, .T. ) ;
#121 = FACE_OUTER_BOUND ( 'NONE', #259, .T. ) ;
#122 = PLANE ( 'NONE',  #364 ) ;
#123 = DIRECTION ( 'NONE',  ( 0.000000000000000000, -0.000000000000000000, 1.000000000000000000 ) ) ;
#124 = DIRECTION ( 'NONE',  ( -0.000000000000000000, 1.000000000000000000, -0.000000000000000000 ) ) ;
#125 = AXIS2_PLACEMENT_3D ( 'NONE', #29, #363, #270 ) ;
#126 =( LENGTH_UNIT ( ) NAMED_UNIT ( * ) SI_UNIT ( .MILLI., .METRE. ) );
#127 = DIRECTION ( 'NONE',  ( -0.000000000000000000, 1.000000000000000000, -0.000000000000000000 ) ) ;
#128 = EDGE_CURVE ( 'NONE', #80, #173, #336, .T. ) ;
#129 = DIRECTION ( 'NONE',  ( 0.000000000000000000, 1.000000000000000000, 0.000000000000000000 ) ) ;
#130 = CARTESIAN_POINT ( 'NONE',  ( 0.000000000000000000, 3.000000000000000000, 0.000000000000000000 ) ) ;
#131 =( GEOMETRIC_REPRESENTATION_CONTEXT ( 3 ) GLOBAL_UNCERTAINTY_ASSIGNED_CONTEXT ( ( #273 ) ) GLOBAL_UNIT_ASSIGNED_CONTEXT ( ( #378, #340, #376 ) ) REPRESENTATION_CONTEXT ( 'NONE', 'WORKASPACE' ) );
#132 = AXIS2_PLACEMENT_3D ( 'NONE', #150, #118, #325 ) ;
#133 = DIRECTION ( 'NONE',  ( 0.000000000000000000, 0.000000000000000000, 1.000000000000000000 ) ) ;
#134 = EDGE_LOOP ( 'NONE', ( #307, #181 ) ) ;
#135 = EDGE_LOOP ( 'NONE', ( #82, #32, #337, #283 ) ) ;
#136 = EDGE_LOOP ( 'NONE', ( #99, #414, #443, #171 ) ) ;
#137 = CIRCLE ( 'NONE', #115, 19.50000000000000000 ) ;
#138 = ORIENTED_EDGE ( 'NONE', *, *, #112, .T. ) ;
#139 = APPLICATION_CONTEXT ( 'automotive_design' ) ;
#140 = CARTESIAN_POINT ( 'NONE',  ( 0.000000000000000000, 0.000000000000000000, -12.50000000000000000 ) ) ;
#141 = ADVANCED_FACE ( 'NONE', ( #301 ), #122, .F. ) ;
#142 = FILL_AREA_STYLE_COLOUR ( '', #9 ) ;
#143 = ORIENTED_EDGE ( 'NONE', *, *, #411, .F. ) ;
#144 = DIRECTION ( 'NONE',  ( -0.000000000000000000, -1.000000000000000000, -0.000000000000000000 ) ) ;
#145 = CIRCLE ( 'NONE', #426, 19.50000000000000000 ) ;
#146 = ORIENTED_EDGE ( 'NONE', *, *, #435, .T. ) ;
#147 = EDGE_CURVE ( 'NONE', #7, #278, #221, .T. ) ;
#148 = SURFACE_STYLE_FILL_AREA ( #415 ) ;
#149 = ORIENTED_EDGE ( 'NONE', *, *, #78, .F. ) ;
#150 = CARTESIAN_POINT ( 'NONE',  ( 0.000000000000000000, -31.35533905932737753, 0.000000000000000000 ) ) ;
#151 = FACE_OUTER_BOUND ( 'NONE', #116, .T. ) ;
#152 = LINE ( 'NONE', #330, #343 ) ;
#153 = CIRCLE ( 'NONE', #284, 16.00000000000000000 ) ;
#154 = ORIENTED_EDGE ( 'NONE', *, *, #400, .T. ) ;
#155 = AXIS2_PLACEMENT_3D ( 'NONE', #114, #46, #51 ) ;
#156 = CARTESIAN_POINT ( 'NONE',  ( 0.000000000000000000, 3.000000000000000000, 0.000000000000000000 ) ) ;
#157 = DIRECTION ( 'NONE',  ( -0.000000000000000000, 1.000000000000000000, -0.000000000000000000 ) ) ;
#158 = CARTESIAN_POINT ( 'NONE',  ( 0.000000000000000000, 8.000000000000000000, -19.50000000000000000 ) ) ;
#159 = FACE_OUTER_BOUND ( 'NONE', #291, .T. ) ;
#160 = CARTESIAN_POINT ( 'NONE',  ( 0.000000000000000000, 3.500000000000003109, -12.50000000000000000 ) ) ;
#161 = DIRECTION ( 'NONE',  ( 0.000000000000000000, -0.000000000000000000, 1.000000000000000000 ) ) ;
#162 = AXIS2_PLACEMENT_3D ( 'NONE', #292, #294, #192 ) ;
#163 = DIRECTION ( 'NONE',  ( -0.000000000000000000, 1.000000000000000000, -0.000000000000000000 ) ) ;
#164 = CARTESIAN_POINT ( 'NONE',  ( 0.000000000000000000, 3.000000000000000000, 0.000000000000000000 ) ) ;
#165 = DIRECTION ( 'NONE',  ( 0.000000000000000000, 1.000000000000000000, 0.000000000000000000 ) ) ;
#166 = EDGE_CURVE ( 'NONE', #39, #18, #31, .T. ) ;
#167 = LINE ( 'NONE', #180, #385 ) ;
#168 = VECTOR ( 'NONE', #157, 1000.000000000000000 ) ;
#169 = CIRCLE ( 'NONE', #351, 12.50000000000000000 ) ;
#170 = CARTESIAN_POINT ( 'NONE',  ( 0.000000000000000000, 5.000000000000000000, 16.00000000000000000 ) ) ;
#171 = ORIENTED_EDGE ( 'NONE', *, *, #308, .F. ) ;
#172 = LINE ( 'NONE', #272, #53 ) ;
#173 = VERTEX_POINT ( 'NONE', #331 ) ;
#174 = ORIENTED_EDGE ( 'NONE', *, *, #419, .F. ) ;
#175 = EDGE_CURVE ( 'NONE', #39, #217, #58, .T. ) ;
#176 = VECTOR ( 'NONE', #127, 1000.000000000000000 ) ;
#177 = CARTESIAN_POINT ( 'NONE',  ( 0.000000000000000000, 8.000000000000000000, 0.000000000000000000 ) ) ;
#178 = CARTESIAN_POINT ( 'NONE',  ( 2.388061258337338939E-15, 8.000000000000000000, 19.50000000000000000 ) ) ;
#179 = EDGE_LOOP ( 'NONE', ( #423, #76 ) ) ;
#180 = CARTESIAN_POINT ( 'NONE',  ( 0.000000000000000000, 39.35533905932737753, -12.50000000000000000 ) ) ;
#181 = ORIENTED_EDGE ( 'NONE', *, *, #190, .F. ) ;
#182 = CARTESIAN_POINT ( 'NONE',  ( 0.000000000000000000, 8.000000000000000000, 12.50000000000000000 ) ) ;
#183 = AXIS2_PLACEMENT_3D ( 'NONE', #266, #398, #394 ) ;
#184 = ORIENTED_EDGE ( 'NONE', *, *, #335, .T. ) ;
#185 = FACE_BOUND ( 'NONE', #179, .T. ) ;
#186 = ORIENTED_EDGE ( 'NONE', *, *, #335, .F. ) ;
#187 = DIRECTION ( 'NONE',  ( 0.000000000000000000, 0.000000000000000000, 1.000000000000000000 ) ) ;
#188 = ORIENTED_EDGE ( 'NONE', *, *, #429, .T. ) ;
#189 = CARTESIAN_POINT ( 'NONE',  ( 0.000000000000000000, 0.000000000000000000, 0.000000000000000000 ) ) ;
#190 = EDGE_CURVE ( 'NONE', #309, #44, #324, .T. ) ;
#191 = CARTESIAN_POINT ( 'NONE',  ( 0.000000000000000000, 5.000000000000000000, 0.000000000000000000 ) ) ;
#192 = DIRECTION ( 'NONE',  ( 0.000000000000000000, 0.000000000000000000, 1.000000000000000000 ) ) ;
#193 = CARTESIAN_POINT ( 'NONE',  ( 1.959434878635765131E-15, 3.000000000000000000, -16.00000000000000000 ) ) ;
#194 = DIRECTION ( 'NONE',  ( 0.000000000000000000, 1.000000000000000000, 0.000000000000000000 ) ) ;
#195 = DIRECTION ( 'NONE',  ( -0.000000000000000000, 1.000000000000000000, -0.000000000000000000 ) ) ;
#196 = EDGE_CURVE ( 'NONE', #209, #421, #153, .T. ) ;
#197 = CARTESIAN_POINT ( 'NONE',  ( 1.530808498934191521E-15, 4.499999999999997335, -12.50000000000000000 ) ) ;
#198 = AXIS2_PLACEMENT_3D ( 'NONE', #106, #212, #428 ) ;
#199 = VECTOR ( 'NONE', #297, 1000.000000000000000 ) ;
#200 = FACE_BOUND ( 'NONE', #257, .T. ) ;
#201 = DIRECTION ( 'NONE',  ( 1.000000000000000000, 0.000000000000000000, 0.000000000000000000 ) ) ;
#202 = ADVANCED_FACE ( 'NONE', ( #30 ), #37, .T. ) ;
#203 = DIRECTION ( 'NONE',  ( 0.000000000000000000, 0.000000000000000000, 1.000000000000000000 ) ) ;
#204 = DIRECTION ( 'NONE',  ( 0.000000000000000000, 1.000000000000000000, 0.000000000000000000 ) ) ;
#205 = ORIENTED_EDGE ( 'NONE', *, *, #175, .F. ) ;
#206 = AXIS2_PLACEMENT_3D ( 'NONE', #439, #268, #401 ) ;
#207 = CIRCLE ( 'NONE', #244, 16.00000000000000000 ) ;
#208 = EDGE_LOOP ( 'NONE', ( #408, #275 ) ) ;
#209 = VERTEX_POINT ( 'NONE', #5 ) ;
#210 = CARTESIAN_POINT ( 'NONE',  ( 0.000000000000000000, 8.000000000000000000, 0.000000000000000000 ) ) ;
#211 = CLOSED_SHELL ( 'NONE', ( #24, #344, #281, #248, #256, #202, #62, #85, #381, #55, #391, #241, #290, #348, #17, #141 ) ) ;
#212 = DIRECTION ( 'NONE',  ( -0.000000000000000000, -1.000000000000000000, -0.000000000000000000 ) ) ;
#213 = CIRCLE ( 'NONE', #27, 19.50000000000000000 ) ;
#214 = EDGE_LOOP ( 'NONE', ( #224, #390 ) ) ;
#215 = CARTESIAN_POINT ( 'NONE',  ( 0.000000000000000000, 3.000000000000000000, 0.000000000000000000 ) ) ;
#216 = EDGE_CURVE ( 'NONE', #339, #430, #345, .T. ) ;
#217 = VERTEX_POINT ( 'NONE', #407 ) ;
#218 = CARTESIAN_POINT ( 'NONE',  ( 0.000000000000000000, 3.000000000000000000, 0.000000000000000000 ) ) ;
#219 = EDGE_LOOP ( 'NONE', ( #410, #104, #13, #70 ) ) ;
#220 = DIRECTION ( 'NONE',  ( 0.000000000000000000, 0.000000000000000000, 1.000000000000000000 ) ) ;
#221 = CIRCLE ( 'NONE', #229, 12.50000000000000000 ) ;
#222 = ORIENTED_EDGE ( 'NONE', *, *, #326, .T. ) ;
#223 = DIRECTION ( 'NONE',  ( 0.000000000000000000, 1.000000000000000000, 0.000000000000000000 ) ) ;
#224 = ORIENTED_EDGE ( 'NONE', *, *, #326, .F. ) ;
#225 = EDGE_CURVE ( 'NONE', #339, #379, #145, .T. ) ;
#226 = CARTESIAN_POINT ( 'NONE',  ( 2.388061258337338939E-15, 3.000000000000000000, 19.50000000000000000 ) ) ;
#227 = ORIENTED_EDGE ( 'NONE', *, *, #147, .F. ) ;
#228 = DIRECTION ( 'NONE',  ( 0.000000000000000000, 0.000000000000000000, 1.000000000000000000 ) ) ;
#229 = AXIS2_PLACEMENT_3D ( 'NONE', #23, #124, #360 ) ;
#230 = AXIS2_PLACEMENT_3D ( 'NONE', #63, #302, #201 ) ;
#231 = DIRECTION ( 'NONE',  ( 0.000000000000000000, 1.000000000000000000, 0.000000000000000000 ) ) ;
#232 = CYLINDRICAL_SURFACE ( 'NONE', #132, 12.50000000000000000 ) ;
#233 = EDGE_CURVE ( 'NONE', #217, #243, #395, .T. ) ;
#234 = CARTESIAN_POINT ( 'NONE',  ( 0.000000000000000000, 5.000000000000000000, -19.50000000000000000 ) ) ;
#235 = CARTESIAN_POINT ( 'NONE',  ( 0.000000000000000000, 0.000000000000000000, 0.000000000000000000 ) ) ;
#236 = DIRECTION ( 'NONE',  ( -0.000000000000000000, -1.000000000000000000, -0.000000000000000000 ) ) ;
#237 = VECTOR ( 'NONE', #236, 1000.000000000000000 ) ;
#238 = CIRCLE ( 'NONE', #45, 19.50000000000000000 ) ;
#239 =( NAMED_UNIT ( * ) PLANE_ANGLE_UNIT ( ) SI_UNIT ( $, .RADIAN. ) );
#240 = DIRECTION ( 'NONE',  ( -0.000000000000000000, 1.000000000000000000, -0.000000000000000000 ) ) ;
#241 = ADVANCED_FACE ( 'NONE', ( #420 ), #75, .T. ) ;
#242 = MANIFOLD_SOLID_BREP ( 'Mirror1', #211 ) ;
#243 = VERTEX_POINT ( 'NONE', #182 ) ;
#244 = AXIS2_PLACEMENT_3D ( 'NONE', #83, #223, #354 ) ;
#245 = DIRECTION ( 'NONE',  ( 0.000000000000000000, 0.000000000000000000, 1.000000000000000000 ) ) ;
#246 = DIRECTION ( 'NONE',  ( 0.000000000000000000, 1.000000000000000000, 0.000000000000000000 ) ) ;
#247 = ORIENTED_EDGE ( 'NONE', *, *, #78, .T. ) ;
#248 = ADVANCED_FACE ( 'NONE', ( #12 ), #287, .T. ) ;
#249 = AXIS2_PLACEMENT_3D ( 'NONE', #113, #254, #384 ) ;
#250 = EDGE_LOOP ( 'NONE', ( #355, #444, #146, #369 ) ) ;
#251 = PRESENTATION_STYLE_ASSIGNMENT (( #42 ) ) ;
#252 = CARTESIAN_POINT ( 'NONE',  ( 1.530808498934191521E-15, 0.000000000000000000, 12.50000000000000000 ) ) ;
#253 = FACE_OUTER_BOUND ( 'NONE', #134, .T. ) ;
#254 = DIRECTION ( 'NONE',  ( -0.000000000000000000, -1.000000000000000000, -0.000000000000000000 ) ) ;
#255 = DIRECTION ( 'NONE',  ( -0.000000000000000000, 1.000000000000000000, -0.000000000000000000 ) ) ;
#256 = ADVANCED_FACE ( 'NONE', ( #374 ), #346, .T. ) ;
#257 = EDGE_LOOP ( 'NONE', ( #108, #280 ) ) ;
#258 = DIRECTION ( 'NONE',  ( 0.000000000000000000, 0.000000000000000000, 1.000000000000000000 ) ) ;
#259 = EDGE_LOOP ( 'NONE', ( #372, #69 ) ) ;
#260 = PLANE ( 'NONE',  #397 ) ;
#261 = DIRECTION ( 'NONE',  ( 0.000000000000000000, -0.000000000000000000, 1.000000000000000000 ) ) ;
#262 = EDGE_CURVE ( 'NONE', #41, #409, #43, .T. ) ;
#263 = CARTESIAN_POINT ( 'NONE',  ( 0.000000000000000000, 5.000000000000000000, 0.000000000000000000 ) ) ;
#264 = PRODUCT_DEFINITION_SHAPE ( 'NONE', 'NONE',  #34 ) ;
#265 = AXIS2_PLACEMENT_3D ( 'NONE', #282, #8, #98 ) ;
#266 = CARTESIAN_POINT ( 'NONE',  ( 0.000000000000000000, 4.499999999999997335, 0.000000000000000000 ) ) ;
#267 = DIRECTION ( 'NONE',  ( 0.000000000000000000, 0.000000000000000000, 1.000000000000000000 ) ) ;
#268 = DIRECTION ( 'NONE',  ( 0.000000000000000000, 1.000000000000000000, 0.000000000000000000 ) ) ;
#269 = FACE_BOUND ( 'NONE', #276, .T. ) ;
#270 = DIRECTION ( 'NONE',  ( 0.000000000000000000, 0.000000000000000000, 1.000000000000000000 ) ) ;
#271 = AXIS2_PLACEMENT_3D ( 'NONE', #177, #246, #64 ) ;
#272 = CARTESIAN_POINT ( 'NONE',  ( 1.959434878635765131E-15, 3.000000000000000000, -16.00000000000000000 ) ) ;
#273 = UNCERTAINTY_MEASURE_WITH_UNIT (LENGTH_MEASURE( 1.000000000000000082E-05 ), #378, 'distance_accuracy_value', 'NONE');
#274 = DIRECTION ( 'NONE',  ( 0.000000000000000000, 0.000000000000000000, -1.000000000000000000 ) ) ;
#275 = ORIENTED_EDGE ( 'NONE', *, *, #262, .T. ) ;
#276 = EDGE_LOOP ( 'NONE', ( #310, #319 ) ) ;
#277 = EDGE_CURVE ( 'NONE', #353, #278, #167, .T. ) ;
#278 = VERTEX_POINT ( 'NONE', #140 ) ;
#279 = AXIS2_PLACEMENT_3D ( 'NONE', #263, #86, #289 ) ;
#280 = ORIENTED_EDGE ( 'NONE', *, *, #147, .T. ) ;
#281 = ADVANCED_FACE ( 'NONE', ( #317 ), #413, .T. ) ;
#282 = CARTESIAN_POINT ( 'NONE',  ( 0.000000000000000000, 8.000000000000000000, 0.000000000000000000 ) ) ;
#283 = ORIENTED_EDGE ( 'NONE', *, *, #196, .F. ) ;
#284 = AXIS2_PLACEMENT_3D ( 'NONE', #422, #107, #203 ) ;
#285 = CARTESIAN_POINT ( 'NONE',  ( 0.000000000000000000, 8.000000000000000000, 0.000000000000000000 ) ) ;
#286 = ORIENTED_EDGE ( 'NONE', *, *, #406, .F. ) ;
#287 = CYLINDRICAL_SURFACE ( 'NONE', #350, 16.00000000000000000 ) ;
#288 = CARTESIAN_POINT ( 'NONE',  ( 2.388061258337338939E-15, 8.000000000000000000, 19.50000000000000000 ) ) ;
#289 = DIRECTION ( 'NONE',  ( 0.000000000000000000, -0.000000000000000000, 1.000000000000000000 ) ) ;
#290 = ADVANCED_FACE ( 'NONE', ( #396 ), #49, .F. ) ;
#291 = EDGE_LOOP ( 'NONE', ( #50, #47 ) ) ;
#292 = CARTESIAN_POINT ( 'NONE',  ( 0.000000000000000000, -31.35533905932737753, 0.000000000000000000 ) ) ;
#293 = ORIENTED_EDGE ( 'NONE', *, *, #296, .F. ) ;
#294 = DIRECTION ( 'NONE',  ( -0.000000000000000000, 1.000000000000000000, -0.000000000000000000 ) ) ;
#295 = DIRECTION ( 'NONE',  ( 0.000000000000000000, 0.000000000000000000, 1.000000000000000000 ) ) ;
#296 = EDGE_CURVE ( 'NONE', #379, #339, #213, .T. ) ;
#297 = DIRECTION ( 'NONE',  ( -0.000000000000000000, -1.000000000000000000, -0.000000000000000000 ) ) ;
#298 = CYLINDRICAL_SURFACE ( 'NONE', #101, 12.50000000000000000 ) ;
#299 = CARTESIAN_POINT ( 'NONE',  ( 1.530808498934191521E-15, 3.500000000000003109, 12.50000000000000000 ) ) ;
#300 = VECTOR ( 'NONE', #318, 1000.000000000000000 ) ;
#301 = FACE_OUTER_BOUND ( 'NONE', #377, .T. ) ;
#302 = DIRECTION ( 'NONE',  ( 0.000000000000000000, 0.000000000000000000, 1.000000000000000000 ) ) ;
#303 = CARTESIAN_POINT ( 'NONE',  ( 1.530808498934191521E-15, 39.35533905932737753, 12.50000000000000000 ) ) ;
#304 = UNCERTAINTY_MEASURE_WITH_UNIT (LENGTH_MEASURE( 1.000000000000000082E-05 ), #126, 'distance_accuracy_value', 'NONE');
#305 = DIRECTION ( 'NONE',  ( 0.000000000000000000, -0.000000000000000000, 1.000000000000000000 ) ) ;
#306 = DIRECTION ( 'NONE',  ( 0.000000000000000000, 1.000000000000000000, 0.000000000000000000 ) ) ;
#307 = ORIENTED_EDGE ( 'NONE', *, *, #38, .F. ) ;
#308 = EDGE_CURVE ( 'NONE', #409, #44, #25, .T. ) ;
#309 = VERTEX_POINT ( 'NONE', #424 ) ;
#310 = ORIENTED_EDGE ( 'NONE', *, *, #375, .F. ) ;
#311 = ORIENTED_EDGE ( 'NONE', *, *, #48, .T. ) ;
#312 = DIRECTION ( 'NONE',  ( 0.000000000000000000, 1.000000000000000000, 0.000000000000000000 ) ) ;
#313 = VERTEX_POINT ( 'NONE', #57 ) ;
#314 = DIRECTION ( 'NONE',  ( 0.000000000000000000, 0.000000000000000000, 1.000000000000000000 ) ) ;
#315 = EDGE_CURVE ( 'NONE', #379, #313, #152, .T. ) ;
#316 = ORIENTED_EDGE ( 'NONE', *, *, #48, .F. ) ;
#317 = FACE_OUTER_BOUND ( 'NONE', #136, .T. ) ;
#318 = DIRECTION ( 'NONE',  ( -0.000000000000000000, -1.000000000000000000, -0.000000000000000000 ) ) ;
#319 = ORIENTED_EDGE ( 'NONE', *, *, #128, .F. ) ;
#320 = DIRECTION ( 'NONE',  ( 0.000000000000000000, 0.000000000000000000, 1.000000000000000000 ) ) ;
#321 = ORIENTED_EDGE ( 'NONE', *, *, #296, .T. ) ;
#322 = CARTESIAN_POINT ( 'NONE',  ( 0.000000000000000000, 3.000000000000000000, -19.50000000000000000 ) ) ;
#323 = EDGE_LOOP ( 'NONE', ( #84, #293, #35, #154 ) ) ;
#324 = CIRCLE ( 'NONE', #206, 19.50000000000000000 ) ;
#325 = DIRECTION ( 'NONE',  ( 0.000000000000000000, 0.000000000000000000, 1.000000000000000000 ) ) ;
#326 = EDGE_CURVE ( 'NONE', #243, #217, #169, .T. ) ;
#327 = CARTESIAN_POINT ( 'NONE',  ( 2.388061258337338939E-15, 8.000000000000000000, 19.50000000000000000 ) ) ;
#328 = DIRECTION ( 'NONE',  ( 0.000000000000000000, 1.000000000000000000, 0.000000000000000000 ) ) ;
#329 = CARTESIAN_POINT ( 'NONE',  ( 0.000000000000000000, 3.000000000000000000, 16.00000000000000000 ) ) ;
#330 = CARTESIAN_POINT ( 'NONE',  ( 0.000000000000000000, 8.000000000000000000, -19.50000000000000000 ) ) ;
#331 = CARTESIAN_POINT ( 'NONE',  ( 0.000000000000000000, 3.000000000000000000, 16.00000000000000000 ) ) ;
#332 = STYLED_ITEM ( 'NONE', ( #251 ), #242 ) ;
#333 = FACE_OUTER_BOUND ( 'NONE', #135, .T. ) ;
#334 = CYLINDRICAL_SURFACE ( 'NONE', #416, 16.00000000000000000 ) ;
#335 = EDGE_CURVE ( 'NONE', #373, #353, #418, .T. ) ;
#336 = CIRCLE ( 'NONE', #342, 16.00000000000000000 ) ;
#337 = ORIENTED_EDGE ( 'NONE', *, *, #120, .T. ) ;
#338 = CARTESIAN_POINT ( 'NONE',  ( 2.388061258337338939E-15, 0.000000000000000000, 19.50000000000000000 ) ) ;
#339 = VERTEX_POINT ( 'NONE', #226 ) ;
#340 =( NAMED_UNIT ( * ) PLANE_ANGLE_UNIT ( ) SI_UNIT ( $, .RADIAN. ) );
#341 = AXIS2_PLACEMENT_3D ( 'NONE', #402, #165, #20 ) ;
#342 = AXIS2_PLACEMENT_3D ( 'NONE', #130, #93, #87 ) ;
#343 = VECTOR ( 'NONE', #433, 1000.000000000000000 ) ;
#344 = ADVANCED_FACE ( 'NONE', ( #111 ), #232, .F. ) ;
#345 = LINE ( 'NONE', #178, #88 ) ;
#346 = CYLINDRICAL_SURFACE ( 'NONE', #79, 19.50000000000000000 ) ;
#347 = ORIENTED_EDGE ( 'NONE', *, *, #225, .T. ) ;
#348 = ADVANCED_FACE ( 'NONE', ( #121 ), #260, .T. ) ;
#349 = CYLINDRICAL_SURFACE ( 'NONE', #249, 12.50000000000000000 ) ;
#350 = AXIS2_PLACEMENT_3D ( 'NONE', #215, #240, #245 ) ;
#351 = AXIS2_PLACEMENT_3D ( 'NONE', #14, #194, #220 ) ;
#352 = FACE_OUTER_BOUND ( 'NONE', #208, .T. ) ;
#353 = VERTEX_POINT ( 'NONE', #160 ) ;
#354 = DIRECTION ( 'NONE',  ( 0.000000000000000000, 0.000000000000000000, 1.000000000000000000 ) ) ;
#355 = ORIENTED_EDGE ( 'NONE', *, *, #225, .F. ) ;
#356 = PLANE ( 'NONE',  #155 ) ;
#357 = FACE_OUTER_BOUND ( 'NONE', #73, .T. ) ;
#358 = CIRCLE ( 'NONE', #341, 19.50000000000000000 ) ;
#359 = CARTESIAN_POINT ( 'NONE',  ( 0.000000000000000000, 5.000000000000000000, 0.000000000000000000 ) ) ;
#360 = DIRECTION ( 'NONE',  ( 0.000000000000000000, 0.000000000000000000, 1.000000000000000000 ) ) ;
#361 = CARTESIAN_POINT ( 'NONE',  ( 0.000000000000000000, 4.500000000000000888, 0.000000000000000000 ) ) ;
#362 = CARTESIAN_POINT ( 'NONE',  ( 0.000000000000000000, 3.000000000000000000, 0.000000000000000000 ) ) ;
#363 = DIRECTION ( 'NONE',  ( 0.000000000000000000, 1.000000000000000000, 0.000000000000000000 ) ) ;
#364 = AXIS2_PLACEMENT_3D ( 'NONE', #52, #231, #261 ) ;
#365 = VECTOR ( 'NONE', #163, 1000.000000000000000 ) ;
#366 = PLANE ( 'NONE',  #1 ) ;
#367 = DIRECTION ( 'NONE',  ( 0.000000000000000000, 0.000000000000000000, -1.000000000000000000 ) ) ;
#368 = CARTESIAN_POINT ( 'NONE',  ( 0.000000000000000000, 0.000000000000000000, 0.000000000000000000 ) ) ;
#369 = ORIENTED_EDGE ( 'NONE', *, *, #315, .F. ) ;
#370 = AXIS2_PLACEMENT_3D ( 'NONE', #441, #60, #405 ) ;
#371 = CIRCLE ( 'NONE', #438, 19.50000000000000000 ) ;
#372 = ORIENTED_EDGE ( 'NONE', *, *, #112, .F. ) ;
#373 = VERTEX_POINT ( 'NONE', #299 ) ;
#374 = FACE_OUTER_BOUND ( 'NONE', #250, .T. ) ;
#375 = EDGE_CURVE ( 'NONE', #173, #80, #207, .T. ) ;
#376 =( NAMED_UNIT ( * ) SI_UNIT ( $, .STERADIAN. ) SOLID_ANGLE_UNIT ( ) );
#377 = EDGE_LOOP ( 'NONE', ( #149, #186 ) ) ;
#378 =( LENGTH_UNIT ( ) NAMED_UNIT ( * ) SI_UNIT ( .MILLI., .METRE. ) );
#379 = VERTEX_POINT ( 'NONE', #322 ) ;
#380 = CARTESIAN_POINT ( 'NONE',  ( 0.000000000000000000, 8.000000000000000000, 0.000000000000000000 ) ) ;
#381 = ADVANCED_FACE ( 'NONE', ( #185, #253 ), #392, .F. ) ;
#382 = FACE_OUTER_BOUND ( 'NONE', #388, .T. ) ;
#383 = CARTESIAN_POINT ( 'NONE',  ( 0.000000000000000000, 0.000000000000000000, 0.000000000000000000 ) ) ;
#384 = DIRECTION ( 'NONE',  ( 0.000000000000000000, 0.000000000000000000, -1.000000000000000000 ) ) ;
#385 = VECTOR ( 'NONE', #3, 1000.000000000000000 ) ;
#386 =( GEOMETRIC_REPRESENTATION_CONTEXT ( 3 ) GLOBAL_UNCERTAINTY_ASSIGNED_CONTEXT ( ( #304 ) ) GLOBAL_UNIT_ASSIGNED_CONTEXT ( ( #126, #239, #399 ) ) REPRESENTATION_CONTEXT ( 'NONE', 'WORKASPACE' ) );
#387 = CARTESIAN_POINT ( 'NONE',  ( 0.000000000000000000, 8.000000000000000000, -19.50000000000000000 ) ) ;
#388 = EDGE_LOOP ( 'NONE', ( #316, #184, #412, #227 ) ) ;
#389 = DIRECTION ( 'NONE',  ( 0.000000000000000000, 1.000000000000000000, 0.000000000000000000 ) ) ;
#390 = ORIENTED_EDGE ( 'NONE', *, *, #233, .F. ) ;
#391 = ADVANCED_FACE ( 'NONE', ( #19, #352 ), #356, .T. ) ;
#392 = PLANE ( 'NONE',  #279 ) ;
#393 = ADVANCED_BREP_SHAPE_REPRESENTATION ( '124-4450', ( #242, #230 ), #386 ) ;
#394 = DIRECTION ( 'NONE',  ( 0.000000000000000000, 0.000000000000000000, 1.000000000000000000 ) ) ;
#395 = CIRCLE ( 'NONE', #436, 12.50000000000000000 ) ;
#396 = FACE_OUTER_BOUND ( 'NONE', #425, .T. ) ;
#397 = AXIS2_PLACEMENT_3D ( 'NONE', #361, #389, #123 ) ;
#398 = DIRECTION ( 'NONE',  ( -0.000000000000000000, -1.000000000000000000, -0.000000000000000000 ) ) ;
#399 =( NAMED_UNIT ( * ) SI_UNIT ( $, .STERADIAN. ) SOLID_ANGLE_UNIT ( ) );
#400 = EDGE_CURVE ( 'NONE', #313, #430, #371, .T. ) ;
#401 = DIRECTION ( 'NONE',  ( 0.000000000000000000, 0.000000000000000000, 1.000000000000000000 ) ) ;
#402 = CARTESIAN_POINT ( 'NONE',  ( 0.000000000000000000, 8.000000000000000000, 0.000000000000000000 ) ) ;
#403 = MECHANICAL_DESIGN_GEOMETRIC_PRESENTATION_REPRESENTATION (  '', ( #332 ), #131 ) ;
#404 = AXIS2_PLACEMENT_3D ( 'NONE', #189, #255, #228 ) ;
#405 = DIRECTION ( 'NONE',  ( 0.000000000000000000, 0.000000000000000000, 1.000000000000000000 ) ) ;
#406 = EDGE_CURVE ( 'NONE', #278, #7, #427, .T. ) ;
#407 = CARTESIAN_POINT ( 'NONE',  ( 1.530808498934191521E-15, 8.000000000000000000, -12.50000000000000000 ) ) ;
#408 = ORIENTED_EDGE ( 'NONE', *, *, #94, .T. ) ;
#409 = VERTEX_POINT ( 'NONE', #387 ) ;
#410 = ORIENTED_EDGE ( 'NONE', *, *, #6, .F. ) ;
#411 = EDGE_CURVE ( 'NONE', #421, #209, #89, .T. ) ;
#412 = ORIENTED_EDGE ( 'NONE', *, *, #277, .T. ) ;
#413 = CYLINDRICAL_SURFACE ( 'NONE', #198, 19.50000000000000000 ) ;
#414 = ORIENTED_EDGE ( 'NONE', *, *, #6, .T. ) ;
#415 = FILL_AREA_STYLE ('',( #142 ) ) ;
#416 = AXIS2_PLACEMENT_3D ( 'NONE', #164, #195, #432 ) ;
#417 = ORIENTED_EDGE ( 'NONE', *, *, #277, .F. ) ;
#418 = CIRCLE ( 'NONE', #67, 12.50000000000000000 ) ;
#419 = EDGE_CURVE ( 'NONE', #18, #243, #16, .T. ) ;
#420 = FACE_OUTER_BOUND ( 'NONE', #219, .T. ) ;
#421 = VERTEX_POINT ( 'NONE', #170 ) ;
#422 = CARTESIAN_POINT ( 'NONE',  ( 0.000000000000000000, 5.000000000000000000, 0.000000000000000000 ) ) ;
#423 = ORIENTED_EDGE ( 'NONE', *, *, #411, .T. ) ;
#424 = CARTESIAN_POINT ( 'NONE',  ( 2.388061258337338939E-15, 5.000000000000000000, 19.50000000000000000 ) ) ;
#425 = EDGE_LOOP ( 'NONE', ( #205, #100, #119, #222 ) ) ;
#426 = AXIS2_PLACEMENT_3D ( 'NONE', #218, #312, #314 ) ;
#427 = CIRCLE ( 'NONE', #404, 12.50000000000000000 ) ;
#428 = DIRECTION ( 'NONE',  ( 0.000000000000000000, 0.000000000000000000, -1.000000000000000000 ) ) ;
#429 = EDGE_CURVE ( 'NONE', #80, #209, #172, .T. ) ;
#430 = VERTEX_POINT ( 'NONE', #338 ) ;
#431 = CARTESIAN_POINT ( 'NONE',  ( 0.000000000000000000, 3.500000000000003109, 0.000000000000000000 ) ) ;
#432 = DIRECTION ( 'NONE',  ( 0.000000000000000000, 0.000000000000000000, 1.000000000000000000 ) ) ;
#433 = DIRECTION ( 'NONE',  ( -0.000000000000000000, -1.000000000000000000, -0.000000000000000000 ) ) ;
#434 = DIRECTION ( 'NONE',  ( 0.000000000000000000, 1.000000000000000000, 0.000000000000000000 ) ) ;
#435 = EDGE_CURVE ( 'NONE', #430, #313, #238, .T. ) ;
#436 = AXIS2_PLACEMENT_3D ( 'NONE', #380, #306, #133 ) ;
#437 = SHAPE_DEFINITION_REPRESENTATION ( #264, #393 ) ;
#438 = AXIS2_PLACEMENT_3D ( 'NONE', #383, #77, #320 ) ;
#439 = CARTESIAN_POINT ( 'NONE',  ( 0.000000000000000000, 5.000000000000000000, 0.000000000000000000 ) ) ;
#440 = DIRECTION ( 'NONE',  ( 0.000000000000000000, 0.000000000000000000, -1.000000000000000000 ) ) ;
#441 = CARTESIAN_POINT ( 'NONE',  ( 0.000000000000000000, 4.499999999999997335, 0.000000000000000000 ) ) ;
#442 = AXIS2_PLACEMENT_3D ( 'NONE', #285, #71, #274 ) ;
#443 = ORIENTED_EDGE ( 'NONE', *, *, #190, .T. ) ;
#444 = ORIENTED_EDGE ( 'NONE', *, *, #216, .T. ) ;
#445 = PRODUCT_RELATED_PRODUCT_CATEGORY ( 'part', '', ( #22 ) ) ;
ENDSEC;
END-ISO-10303-21;
