ISO-10303-21;
HEADER;
FILE_DESCRIPTION (( 'STEP AP214' ),
    '1' );
FILE_NAME ('550-00193-00.step',
    '2026-02-27T00:30:29',
    ( '' ),
    ( '' ),
    'SwSTEP 2.0',
    'SolidWorks 2023',
    '' );
FILE_SCHEMA (( 'AUTOMOTIVE_DESIGN' ));
ENDSEC;

DATA;
#1 = LINE ( 'NONE', #547, #195 ) ;
#2 = ORIENTED_EDGE ( 'NONE', *, *, #239, .F. ) ;
#3 = CARTESIAN_POINT ( 'NONE',  ( -1.499999999999999556, 4.000000000000074607, -3.870000000000026308 ) ) ;
#4 = DIRECTION ( 'NONE',  ( 0.000000000000000000, 0.000000000000000000, -1.000000000000000000 ) ) ;
#5 = DIRECTION ( 'NONE',  ( 0.000000000000000000, 0.000000000000000000, -1.000000000000000000 ) ) ;
#6 = ORIENTED_EDGE ( 'NONE', *, *, #263, .T. ) ;
#7 = AXIS2_PLACEMENT_3D ( 'NONE', #151, #704, #700 ) ;
#8 = MECHANICAL_DESIGN_GEOMETRIC_PRESENTATION_REPRESENTATION (  '', ( #154 ), #620 ) ;
#9 = FACE_OUTER_BOUND ( 'NONE', #321, .T. ) ;
#10 = CARTESIAN_POINT ( 'NONE',  ( -1.500000000000000000, 41.20000000000000284, -154.4400000000000261 ) ) ;
#11 = EDGE_CURVE ( 'NONE', #548, #352, #15, .T. ) ;
#12 = DIRECTION ( 'NONE',  ( 1.000000000000000000, -0.000000000000000000, -0.000000000000000000 ) ) ;
#13 = PRESENTATION_STYLE_ASSIGNMENT (( #570 ) ) ;
#14 = LINE ( 'NONE', #695, #353 ) ;
#15 = LINE ( 'NONE', #841, #863 ) ;
#16 = FACE_BOUND ( 'NONE', #669, .T. ) ;
#17 = DIRECTION ( 'NONE',  ( 1.000000000000000000, -0.000000000000000000, -0.000000000000000000 ) ) ;
#18 = SURFACE_SIDE_STYLE ('',( #696 ) ) ;
#19 = DIRECTION ( 'NONE',  ( 0.000000000000000000, 0.000000000000000000, -1.000000000000000000 ) ) ;
#20 = EDGE_LOOP ( 'NONE', ( #847, #416, #572, #533 ) ) ;
#21 = AXIS2_PLACEMENT_3D ( 'NONE', #362, #759, #492 ) ;
#22 = AXIS2_PLACEMENT_3D ( 'NONE', #608, #880, #273 ) ;
#23 = SURFACE_STYLE_FILL_AREA ( #848 ) ;
#24 = DIRECTION ( 'NONE',  ( 1.000000000000000000, 0.000000000000000000, 0.000000000000000000 ) ) ;
#25 = VERTEX_POINT ( 'NONE', #496 ) ;
#26 = CARTESIAN_POINT ( 'NONE',  ( -1.500000000000000000, 0.2999999999999999889, -0.2999999999999999889 ) ) ;
#27 = ORIENTED_EDGE ( 'NONE', *, *, #594, .F. ) ;
#28 = FACE_OUTER_BOUND ( 'NONE', #507, .T. ) ;
#29 = ADVANCED_FACE ( 'NONE', ( #625 ), #223, .F. ) ;
#30 = LINE ( 'NONE', #304, #125 ) ;
#31 = ORIENTED_EDGE ( 'NONE', *, *, #11, .T. ) ;
#32 = CARTESIAN_POINT ( 'NONE',  ( -1.499999999999999556, 38.50000000000005684, -5.570000000000026041 ) ) ;
#33 = FACE_OUTER_BOUND ( 'NONE', #601, .T. ) ;
#34 = ORIENTED_EDGE ( 'NONE', *, *, #804, .T. ) ;
#35 = PRESENTATION_LAYER_ASSIGNMENT (  '', '', ( #94 ) ) ;
#36 = CARTESIAN_POINT ( 'NONE',  ( 0.000000000000000000, 4.000000000000069278, -150.8700000000000330 ) ) ;
#37 = COLOUR_RGB ( '',0.7803921568627451011, 0.7607843137254901578, 0.7411764705882353255 ) ;
#38 = VECTOR ( 'NONE', #384, 1000.000000000000000 ) ;
#39 = CIRCLE ( 'NONE', #429, 1.700000000000007061 ) ;
#40 = AXIS2_PLACEMENT_3D ( 'NONE', #105, #773, #24 ) ;
#41 = DIRECTION ( 'NONE',  ( -0.000000000000000000, -1.000000000000000000, -0.000000000000000000 ) ) ;
#42 = VERTEX_POINT ( 'NONE', #10 ) ;
#43 = EDGE_CURVE ( 'NONE', #690, #770, #88, .T. ) ;
#44 = DIRECTION ( 'NONE',  ( 0.7071067811865479058, 0.000000000000000000, -0.7071067811865471286 ) ) ;
#45 = FILL_AREA_STYLE_COLOUR ( '', #640 ) ;
#46 = ORIENTED_EDGE ( 'NONE', *, *, #189, .T. ) ;
#47 = EDGE_CURVE ( 'NONE', #278, #352, #169, .T. ) ;
#48 = DIRECTION ( 'NONE',  ( 1.000000000000000000, -0.000000000000000000, -0.000000000000000000 ) ) ;
#49 =( NAMED_UNIT ( * ) PLANE_ANGLE_UNIT ( ) SI_UNIT ( $, .RADIAN. ) );
#50 = EDGE_LOOP ( 'NONE', ( #442, #520 ) ) ;
#51 = CONICAL_SURFACE ( 'NONE', #264, 3.149999999999999911, 0.7853981633974477239 ) ;
#52 = SURFACE_STYLE_FILL_AREA ( #396 ) ;
#53 = VECTOR ( 'NONE', #41, 1000.000000000000000 ) ;
#54 = VERTEX_POINT ( 'NONE', #755 ) ;
#55 = ADVANCED_FACE ( 'NONE', ( #505 ), #359, .T. ) ;
#56 = FACE_OUTER_BOUND ( 'NONE', #397, .T. ) ;
#57 = ORIENTED_EDGE ( 'NONE', *, *, #671, .F. ) ;
#58 = DIRECTION ( 'NONE',  ( 1.000000000000000000, -0.000000000000000000, -0.000000000000000000 ) ) ;
#59 = ORIENTED_EDGE ( 'NONE', *, *, #793, .F. ) ;
#60 =( NAMED_UNIT ( * ) PLANE_ANGLE_UNIT ( ) SI_UNIT ( $, .RADIAN. ) );
#61 = CARTESIAN_POINT ( 'NONE',  ( 1.734723475976807883E-15, 4.000000000000069278, -150.8700000000000330 ) ) ;
#62 = VECTOR ( 'NONE', #218, 1000.000000000000000 ) ;
#63 = DIRECTION ( 'NONE',  ( 0.000000000000000000, 0.000000000000000000, -1.000000000000000000 ) ) ;
#64 = CIRCLE ( 'NONE', #679, 1.700000000000000178 ) ;
#65 = EDGE_LOOP ( 'NONE', ( #580, #790, #503, #635 ) ) ;
#66 = AXIS2_PLACEMENT_3D ( 'NONE', #391, #805, #127 ) ;
#67 = EDGE_CURVE ( 'NONE', #843, #684, #454, .T. ) ;
#68 = DIRECTION ( 'NONE',  ( -1.000000000000000000, -0.000000000000000000, -0.000000000000000000 ) ) ;
#69 = ORIENTED_EDGE ( 'NONE', *, *, #271, .T. ) ;
#70 = DIRECTION ( 'NONE',  ( 1.000000000000000000, -0.000000000000000000, -0.000000000000000000 ) ) ;
#71 = DIRECTION ( 'NONE',  ( 1.000000000000000000, -0.000000000000000000, -0.000000000000000000 ) ) ;
#72 = ORIENTED_EDGE ( 'NONE', *, *, #463, .T. ) ;
#73 = LINE ( 'NONE', #347, #456 ) ;
#74 = CARTESIAN_POINT ( 'NONE',  ( -1.450000000000006839, 38.50000000000005684, -5.570000000000019824 ) ) ;
#75 = EDGE_CURVE ( 'NONE', #730, #235, #202, .T. ) ;
#76 =( NAMED_UNIT ( * ) PLANE_ANGLE_UNIT ( ) SI_UNIT ( $, .RADIAN. ) );
#77 = ORIENTED_EDGE ( 'NONE', *, *, #270, .T. ) ;
#78 = DIRECTION ( 'NONE',  ( 0.000000000000000000, 0.000000000000000000, -1.000000000000000000 ) ) ;
#79 = VERTEX_POINT ( 'NONE', #74 ) ;
#80 = CIRCLE ( 'NONE', #780, 3.150000000000013678 ) ;
#81 = DIRECTION ( 'NONE',  ( 0.000000000000000000, 0.000000000000000000, -1.000000000000000000 ) ) ;
#82 = ADVANCED_FACE ( 'NONE', ( #617 ), #590, .F. ) ;
#83 = DIRECTION ( 'NONE',  ( -1.000000000000000000, -0.000000000000000000, 0.000000000000000000 ) ) ;
#84 = VERTEX_POINT ( 'NONE', #280 ) ;
#85 = FACE_BOUND ( 'NONE', #630, .T. ) ;
#86 = EDGE_LOOP ( 'NONE', ( #647, #627 ) ) ;
#87 = CYLINDRICAL_SURFACE ( 'NONE', #393, 1.699999999999997513 ) ;
#88 = LINE ( 'NONE', #213, #62 ) ;
#89 = FACE_BOUND ( 'NONE', #86, .T. ) ;
#90 = ORIENTED_EDGE ( 'NONE', *, *, #518, .F. ) ;
#91 =( NAMED_UNIT ( * ) SI_UNIT ( $, .STERADIAN. ) SOLID_ANGLE_UNIT ( ) );
#92 = FILL_AREA_STYLE ('',( #428 ) ) ;
#93 = LINE ( 'NONE', #782, #53 ) ;
#94 = STYLED_ITEM ( 'NONE', ( #13 ), #198 ) ;
#95 = ADVANCED_FACE ( 'NONE', ( #9 ), #152, .F. ) ;
#96 = AXIS2_PLACEMENT_3D ( 'NONE', #3, #279, #549 ) ;
#97 = CIRCLE ( 'NONE', #526, 1.699999999999993072 ) ;
#98 = CARTESIAN_POINT ( 'NONE',  ( -1.450000000000006839, 4.000000000000074607, -2.170000000000031459 ) ) ;
#99 = CARTESIAN_POINT ( 'NONE',  ( 0.000000000000000000, 38.50000000000005684, -149.1700000000000159 ) ) ;
#100 = EDGE_LOOP ( 'NONE', ( #166, #420, #473, #291 ) ) ;
#101 = CARTESIAN_POINT ( 'NONE',  ( 1.734723475976807883E-15, 38.50000000000005684, -7.020000000000026219 ) ) ;
#102 = CARTESIAN_POINT ( 'NONE',  ( -1.499999999999999556, 4.000000000000074607, -5.570000000000026041 ) ) ;
#103 = VERTEX_POINT ( 'NONE', #339 ) ;
#104 =( LENGTH_UNIT ( ) NAMED_UNIT ( * ) SI_UNIT ( .MILLI., .METRE. ) );
#105 = CARTESIAN_POINT ( 'NONE',  ( 0.000000000000000000, 0.000000000000000000, 0.000000000000000000 ) ) ;
#106 = EDGE_CURVE ( 'NONE', #730, #25, #577, .T. ) ;
#107 = DIRECTION ( 'NONE',  ( -1.000000000000000000, 0.000000000000000000, 0.000000000000000000 ) ) ;
#108 = ORIENTED_EDGE ( 'NONE', *, *, #772, .T. ) ;
#109 = CARTESIAN_POINT ( 'NONE',  ( -1.450000000000006839, 38.50000000000005684, -152.5700000000000500 ) ) ;
#110 = CONICAL_SURFACE ( 'NONE', #592, 3.149999999999999911, 0.7853981633974471688 ) ;
#111 = CIRCLE ( 'NONE', #457, 1.700000000000000178 ) ;
#112 =( GEOMETRIC_REPRESENTATION_CONTEXT ( 3 ) GLOBAL_UNCERTAINTY_ASSIGNED_CONTEXT ( ( #765 ) ) GLOBAL_UNIT_ASSIGNED_CONTEXT ( ( #345, #76, #419 ) ) REPRESENTATION_CONTEXT ( 'NONE', 'WORKASPACE' ) );
#113 = EDGE_CURVE ( 'NONE', #54, #42, #368, .T. ) ;
#114 = LINE ( 'NONE', #251, #537 ) ;
#115 = VERTEX_POINT ( 'NONE', #670 ) ;
#116 = EDGE_CURVE ( 'NONE', #115, #337, #603, .T. ) ;
#117 = DIRECTION ( 'NONE',  ( 1.000000000000000000, -0.000000000000000000, -0.000000000000000000 ) ) ;
#118 = ORIENTED_EDGE ( 'NONE', *, *, #804, .F. ) ;
#119 = LINE ( 'NONE', #329, #593 ) ;
#120 = ORIENTED_EDGE ( 'NONE', *, *, #343, .F. ) ;
#121 = ADVANCED_FACE ( 'NONE', ( #738 ), #51, .F. ) ;
#122 = AXIS2_PLACEMENT_3D ( 'NONE', #485, #823, #550 ) ;
#123 = UNCERTAINTY_MEASURE_WITH_UNIT (LENGTH_MEASURE( 1.000000000000000082E-05 ), #104, 'distance_accuracy_value', 'NONE');
#124 = DIRECTION ( 'NONE',  ( 0.000000000000000000, 0.000000000000000000, -1.000000000000000000 ) ) ;
#125 = VECTOR ( 'NONE', #650, 1000.000000000000000 ) ;
#126 = EDGE_LOOP ( 'NONE', ( #259, #663 ) ) ;
#127 = DIRECTION ( 'NONE',  ( 0.000000000000000000, 0.000000000000000000, 1.000000000000000000 ) ) ;
#128 = EDGE_LOOP ( 'NONE', ( #559, #723 ) ) ;
#129 = SURFACE_STYLE_FILL_AREA ( #401 ) ;
#130 = ADVANCED_FACE ( 'NONE', ( #285 ), #879, .T. ) ;
#131 = LINE ( 'NONE', #143, #763 ) ;
#132 = EDGE_LOOP ( 'NONE', ( #2, #324, #222, #876 ) ) ;
#133 = DIRECTION ( 'NONE',  ( 1.000000000000000000, -0.000000000000000000, -0.000000000000000000 ) ) ;
#134 = CIRCLE ( 'NONE', #380, 1.000000000000000888 ) ;
#135 = CARTESIAN_POINT ( 'NONE',  ( -1.500000000000000000, 42.20000000000000284, -153.4400000000000261 ) ) ;
#136 = CIRCLE ( 'NONE', #639, 1.700000000000007061 ) ;
#137 = VERTEX_POINT ( 'NONE', #683 ) ;
#138 = AXIS2_PLACEMENT_3D ( 'NONE', #26, #705, #513 ) ;
#139 = CARTESIAN_POINT ( 'NONE',  ( 0.000000000000000000, 41.20000000000000284, -0.2999999999999999889 ) ) ;
#140 = VECTOR ( 'NONE', #207, 1000.000000000000000 ) ;
#141 = EDGE_CURVE ( 'NONE', #389, #561, #792, .T. ) ;
#142 =( LENGTH_UNIT ( ) NAMED_UNIT ( * ) SI_UNIT ( .MILLI., .METRE. ) );
#143 = CARTESIAN_POINT ( 'NONE',  ( 1.734723475976807883E-15, 38.50000000000005684, -147.7200000000000273 ) ) ;
#144 = ORIENTED_EDGE ( 'NONE', *, *, #463, .F. ) ;
#145 = DIRECTION ( 'NONE',  ( -1.000000000000000000, 0.000000000000000000, 0.000000000000000000 ) ) ;
#146 = DIRECTION ( 'NONE',  ( 1.000000000000000000, -0.000000000000000000, -0.000000000000000000 ) ) ;
#147 = LINE ( 'NONE', #556, #458 ) ;
#148 = ORIENTED_EDGE ( 'NONE', *, *, #452, .F. ) ;
#149 = LINE ( 'NONE', #360, #794 ) ;
#150 = CARTESIAN_POINT ( 'NONE',  ( 0.000000000000000000, 38.50000000000005684, -3.870000000000026308 ) ) ;
#151 = CARTESIAN_POINT ( 'NONE',  ( 1.734723475976807883E-15, 38.50000000000005684, -3.870000000000026308 ) ) ;
#152 = CONICAL_SURFACE ( 'NONE', #122, 3.149999999999999911, 0.7853981633974471688 ) ;
#153 = CARTESIAN_POINT ( 'NONE',  ( -1.500000000000000000, 0.000000000000000000, 0.000000000000000000 ) ) ;
#154 = STYLED_ITEM ( 'NONE', ( #562 ), #444 ) ;
#155 = ORIENTED_EDGE ( 'NONE', *, *, #701, .F. ) ;
#156 = PRESENTATION_LAYER_ASSIGNMENT (  '', '', ( #536 ) ) ;
#157 = VECTOR ( 'NONE', #248, 1000.000000000000000 ) ;
#158 =( NAMED_UNIT ( * ) PLANE_ANGLE_UNIT ( ) SI_UNIT ( $, .RADIAN. ) );
#159 = DIRECTION ( 'NONE',  ( 1.000000000000000000, -0.000000000000000000, -0.000000000000000000 ) ) ;
#160 =( NAMED_UNIT ( * ) PLANE_ANGLE_UNIT ( ) SI_UNIT ( $, .RADIAN. ) );
#161 = ORIENTED_EDGE ( 'NONE', *, *, #713, .F. ) ;
#162 = LINE ( 'NONE', #699, #808 ) ;
#163 = PRESENTATION_STYLE_ASSIGNMENT (( #774 ) ) ;
#164 = EDGE_CURVE ( 'NONE', #728, #666, #406, .T. ) ;
#165 = CARTESIAN_POINT ( 'NONE',  ( -1.500000000000000000, 0.2999999999999999889, -1.300000000000000044 ) ) ;
#166 = ORIENTED_EDGE ( 'NONE', *, *, #636, .F. ) ;
#167 = CARTESIAN_POINT ( 'NONE',  ( 1.734723475976807883E-15, 4.000000000000069278, -150.8700000000000330 ) ) ;
#168 = CARTESIAN_POINT ( 'NONE',  ( 1.734723475976807883E-15, 4.000000000000069278, -154.0200000000000387 ) ) ;
#169 = CIRCLE ( 'NONE', #21, 1.699999999999994849 ) ;
#170 = AXIS2_PLACEMENT_3D ( 'NONE', #243, #515, #176 ) ;
#171 = AXIS2_PLACEMENT_3D ( 'NONE', #634, #303, #238 ) ;
#172 = CARTESIAN_POINT ( 'NONE',  ( -1.500000000000000000, 0.2999999999999999889, -0.2999999999999999889 ) ) ;
#173 = CARTESIAN_POINT ( 'NONE',  ( 1.734723475976807883E-15, 4.000000000000074607, -0.7200000000000261746 ) ) ;
#174 = EDGE_LOOP ( 'NONE', ( #327, #377, #567, #27 ) ) ;
#175 = EDGE_CURVE ( 'NONE', #225, #666, #348, .T. ) ;
#176 = DIRECTION ( 'NONE',  ( 0.000000000000000000, 0.000000000000000000, -1.000000000000000000 ) ) ;
#177 = PRODUCT_CONTEXT ( 'NONE', #366, 'mechanical' ) ;
#178 = FACE_OUTER_BOUND ( 'NONE', #836, .T. ) ;
#179 = ORIENTED_EDGE ( 'NONE', *, *, #604, .F. ) ;
#180 = DIRECTION ( 'NONE',  ( 1.000000000000000000, -0.000000000000000000, -0.000000000000000000 ) ) ;
#181 = CARTESIAN_POINT ( 'NONE',  ( -1.450000000000006839, 38.50000000000005684, -149.1700000000000159 ) ) ;
#182 = ORIENTED_EDGE ( 'NONE', *, *, #649, .T. ) ;
#183 = AXIS2_PLACEMENT_3D ( 'NONE', #199, #613, #475 ) ;
#184 =( GEOMETRIC_REPRESENTATION_CONTEXT ( 3 ) GLOBAL_UNCERTAINTY_ASSIGNED_CONTEXT ( ( #123 ) ) GLOBAL_UNIT_ASSIGNED_CONTEXT ( ( #104, #60, #791 ) ) REPRESENTATION_CONTEXT ( 'NONE', 'WORKASPACE' ) );
#185 = DIRECTION ( 'NONE',  ( -1.000000000000000000, -0.000000000000000000, -0.000000000000000000 ) ) ;
#186 = ORIENTED_EDGE ( 'NONE', *, *, #687, .F. ) ;
#187 =( LENGTH_UNIT ( ) NAMED_UNIT ( * ) SI_UNIT ( .MILLI., .METRE. ) );
#188 = ORIENTED_EDGE ( 'NONE', *, *, #433, .F. ) ;
#189 = EDGE_CURVE ( 'NONE', #770, #355, #134, .T. ) ;
#190 = ORIENTED_EDGE ( 'NONE', *, *, #11, .F. ) ;
#191 = CIRCLE ( 'NONE', #298, 1.700000000000007061 ) ;
#192 = DIRECTION ( 'NONE',  ( 0.000000000000000000, 0.000000000000000000, 1.000000000000000000 ) ) ;
#193 = CIRCLE ( 'NONE', #514, 1.699999999999993072 ) ;
#194 = ORIENTED_EDGE ( 'NONE', *, *, #175, .F. ) ;
#195 = VECTOR ( 'NONE', #415, 1000.000000000000000 ) ;
#196 = CARTESIAN_POINT ( 'NONE',  ( 1.734723475976807883E-15, 4.000000000000074607, -7.020000000000026219 ) ) ;
#197 = ADVANCED_FACE ( 'NONE', ( #607 ), #349, .F. ) ;
#198 = MANIFOLD_SOLID_BREP ( 'CSK for M3 Flat Head Machine Screw1', #240 ) ;
#199 = CARTESIAN_POINT ( 'NONE',  ( -1.500000000000000000, 41.20000000000000284, -153.4400000000000261 ) ) ;
#200 =( NAMED_UNIT ( * ) SI_UNIT ( $, .STERADIAN. ) SOLID_ANGLE_UNIT ( ) );
#201 = EDGE_LOOP ( 'NONE', ( #188, #346 ) ) ;
#202 = LINE ( 'NONE', #490, #852 ) ;
#203 = UNCERTAINTY_MEASURE_WITH_UNIT (LENGTH_MEASURE( 1.000000000000000082E-05 ), #214, 'distance_accuracy_value', 'NONE');
#204 = LINE ( 'NONE', #135, #866 ) ;
#205 = ORIENTED_EDGE ( 'NONE', *, *, #325, .T. ) ;
#206 = DIRECTION ( 'NONE',  ( 0.000000000000000000, 0.000000000000000000, 1.000000000000000000 ) ) ;
#207 = DIRECTION ( 'NONE',  ( 0.000000000000000000, 1.000000000000000000, 0.000000000000000000 ) ) ;
#208 = VECTOR ( 'NONE', #117, 1000.000000000000000 ) ;
#209 = EDGE_LOOP ( 'NONE', ( #90, #318, #367, #431 ) ) ;
#210 = AXIS2_PLACEMENT_3D ( 'NONE', #317, #261, #587 ) ;
#211 = FACE_BOUND ( 'NONE', #126, .T. ) ;
#212 =( NAMED_UNIT ( * ) SI_UNIT ( $, .STERADIAN. ) SOLID_ANGLE_UNIT ( ) );
#213 = CARTESIAN_POINT ( 'NONE',  ( -1.500000000000000000, 0.2999999999999999889, -153.4400000000000261 ) ) ;
#214 =( LENGTH_UNIT ( ) NAMED_UNIT ( * ) SI_UNIT ( .MILLI., .METRE. ) );
#215 = EDGE_CURVE ( 'NONE', #103, #770, #295, .T. ) ;
#216 = LINE ( 'NONE', #172, #499 ) ;
#217 = DIRECTION ( 'NONE',  ( 0.000000000000000000, 0.000000000000000000, -1.000000000000000000 ) ) ;
#218 = DIRECTION ( 'NONE',  ( 1.000000000000000000, 0.000000000000000000, 0.000000000000000000 ) ) ;
#219 = CARTESIAN_POINT ( 'NONE',  ( -1.450000000000006839, 38.50000000000005684, -150.8700000000000330 ) ) ;
#220 = LINE ( 'NONE', #645, #779 ) ;
#221 = DIRECTION ( 'NONE',  ( 1.000000000000000000, -0.000000000000000000, -0.000000000000000000 ) ) ;
#222 = ORIENTED_EDGE ( 'NONE', *, *, #375, .T. ) ;
#223 = CONICAL_SURFACE ( 'NONE', #7, 3.149999999999999911, 0.7853981633974477239 ) ;
#224 = LINE ( 'NONE', #769, #311 ) ;
#225 = VERTEX_POINT ( 'NONE', #356 ) ;
#226 = CIRCLE ( 'NONE', #839, 3.149999999999999911 ) ;
#227 = DIRECTION ( 'NONE',  ( 0.000000000000000000, 0.000000000000000000, -1.000000000000000000 ) ) ;
#228 = ADVANCED_FACE ( 'NONE', ( #832 ), #87, .F. ) ;
#229 = ORIENTED_EDGE ( 'NONE', *, *, #141, .T. ) ;
#230 = PLANE ( 'NONE',  #335 ) ;
#231 = ORIENTED_EDGE ( 'NONE', *, *, #494, .T. ) ;
#232 = CARTESIAN_POINT ( 'NONE',  ( 1.734723475976807883E-15, 38.50000000000005684, -150.8700000000000330 ) ) ;
#233 = ADVANCED_BREP_SHAPE_REPRESENTATION ( '550-00193-00', ( #198, #40 ), #112 ) ;
#234 = FACE_BOUND ( 'NONE', #128, .T. ) ;
#235 = VERTEX_POINT ( 'NONE', #504 ) ;
#236 = DIRECTION ( 'NONE',  ( 1.000000000000000000, -0.000000000000000000, -0.000000000000000000 ) ) ;
#237 = APPLICATION_PROTOCOL_DEFINITION ( 'draft international standard', 'automotive_design', 1998, #366 ) ;
#238 = DIRECTION ( 'NONE',  ( 0.000000000000000000, 0.000000000000000000, -1.000000000000000000 ) ) ;
#239 = EDGE_CURVE ( 'NONE', #269, #137, #220, .T. ) ;
#240 = CLOSED_SHELL ( 'NONE', ( #121, #644, #319, #228, #739, #387, #257, #766, #542, #726, #55, #783, #571, #444, #585, #130, #707, #424, #612, #82, #390, #197, #300, #95, #753, #29 ) ) ;
#241 = VECTOR ( 'NONE', #44, 1000.000000000000000 ) ;
#242 = AXIS2_PLACEMENT_3D ( 'NONE', #476, #735, #323 ) ;
#243 = CARTESIAN_POINT ( 'NONE',  ( -1.500000000000000000, 41.20000000000000284, -1.300000000000000044 ) ) ;
#244 = CARTESIAN_POINT ( 'NONE',  ( -1.499999999999999556, 38.50000000000005684, -3.870000000000026308 ) ) ;
#245 = VERTEX_POINT ( 'NONE', #757 ) ;
#246 = LINE ( 'NONE', #784, #208 ) ;
#247 = APPLICATION_CONTEXT ( 'automotive_design' ) ;
#248 = DIRECTION ( 'NONE',  ( 1.000000000000000000, -0.000000000000000000, -0.000000000000000000 ) ) ;
#249 = VERTEX_POINT ( 'NONE', #32 ) ;
#250 = CARTESIAN_POINT ( 'NONE',  ( 0.000000000000000000, 42.20000000000000284, -0.2999999999999999889 ) ) ;
#251 = CARTESIAN_POINT ( 'NONE',  ( 0.000000000000000000, 38.50000000000005684, -152.5700000000000500 ) ) ;
#252 = ORIENTED_EDGE ( 'NONE', *, *, #43, .T. ) ;
#253 = MECHANICAL_DESIGN_GEOMETRIC_PRESENTATION_REPRESENTATION (  '', ( #94 ), #709 ) ;
#254 = DIRECTION ( 'NONE',  ( 0.000000000000000000, 0.000000000000000000, -1.000000000000000000 ) ) ;
#255 = CIRCLE ( 'NONE', #747, 3.149999999999999911 ) ;
#256 =( GEOMETRIC_REPRESENTATION_CONTEXT ( 3 ) GLOBAL_UNCERTAINTY_ASSIGNED_CONTEXT ( ( #869 ) ) GLOBAL_UNIT_ASSIGNED_CONTEXT ( ( #187, #49, #200 ) ) REPRESENTATION_CONTEXT ( 'NONE', 'WORKASPACE' ) );
#257 = ADVANCED_FACE ( 'NONE', ( #28 ), #821, .F. ) ;
#258 = DIRECTION ( 'NONE',  ( 1.000000000000000000, 0.000000000000000000, -0.000000000000000000 ) ) ;
#259 = ORIENTED_EDGE ( 'NONE', *, *, #849, .F. ) ;
#260 = EDGE_LOOP ( 'NONE', ( #807, #477, #179, #302, #400, #828, #296, #434 ) ) ;
#261 = DIRECTION ( 'NONE',  ( 1.000000000000000000, -0.000000000000000000, -0.000000000000000000 ) ) ;
#262 = ORIENTED_EDGE ( 'NONE', *, *, #799, .T. ) ;
#263 = EDGE_CURVE ( 'NONE', #660, #690, #216, .T. ) ;
#264 = AXIS2_PLACEMENT_3D ( 'NONE', #734, #402, #414 ) ;
#265 = COLOUR_RGB ( '',0.7803921568627451011, 0.7607843137254901578, 0.7411764705882353255 ) ;
#266 = DIRECTION ( 'NONE',  ( 1.000000000000000000, -0.000000000000000000, -0.000000000000000000 ) ) ;
#267 = VECTOR ( 'NONE', #83, 1000.000000000000000 ) ;
#268 = SURFACE_STYLE_USAGE ( .BOTH. , #461 ) ;
#269 = VERTEX_POINT ( 'NONE', #708 ) ;
#270 = EDGE_CURVE ( 'NONE', #278, #561, #445, .T. ) ;
#271 = EDGE_CURVE ( 'NONE', #42, #843, #162, .T. ) ;
#272 = DIRECTION ( 'NONE',  ( 1.000000000000000000, -0.000000000000000000, -0.000000000000000000 ) ) ;
#273 = DIRECTION ( 'NONE',  ( 0.000000000000000000, 0.000000000000000000, -1.000000000000000000 ) ) ;
#274 = VERTEX_POINT ( 'NONE', #776 ) ;
#275 = DIRECTION ( 'NONE',  ( 0.000000000000000000, 0.000000000000000000, -1.000000000000000000 ) ) ;
#276 = DIRECTION ( 'NONE',  ( -1.000000000000000000, 0.000000000000000000, 0.000000000000000000 ) ) ;
#277 = DIRECTION ( 'NONE',  ( -0.000000000000000000, -1.000000000000000000, -0.000000000000000000 ) ) ;
#278 = VERTEX_POINT ( 'NONE', #98 ) ;
#279 = DIRECTION ( 'NONE',  ( 1.000000000000000000, -0.000000000000000000, -0.000000000000000000 ) ) ;
#280 = CARTESIAN_POINT ( 'NONE',  ( -1.499999999999999556, 38.50000000000005684, -152.5700000000000500 ) ) ;
#281 = EDGE_CURVE ( 'NONE', #84, #411, #191, .T. ) ;
#282 = CIRCLE ( 'NONE', #875, 1.000000000000000000 ) ;
#283 = ORIENTED_EDGE ( 'NONE', *, *, #47, .F. ) ;
#284 = CIRCLE ( 'NONE', #210, 1.700000000000007061 ) ;
#285 = FACE_OUTER_BOUND ( 'NONE', #100, .T. ) ;
#286 = CARTESIAN_POINT ( 'NONE',  ( -1.500000000000000000, 0.2999999999999999889, -154.4400000000000261 ) ) ;
#287 = ORIENTED_EDGE ( 'NONE', *, *, #175, .T. ) ;
#288 = DIRECTION ( 'NONE',  ( 1.000000000000000000, -0.000000000000000000, -0.000000000000000000 ) ) ;
#289 = VERTEX_POINT ( 'NONE', #101 ) ;
#290 = CARTESIAN_POINT ( 'NONE',  ( -1.450000000000006839, 4.000000000000074607, -3.870000000000026308 ) ) ;
#291 = ORIENTED_EDGE ( 'NONE', *, *, #43, .F. ) ;
#292 = FILL_AREA_STYLE ('',( #558 ) ) ;
#293 = ORIENTED_EDGE ( 'NONE', *, *, #883, .F. ) ;
#294 = EDGE_CURVE ( 'NONE', #797, #274, #80, .T. ) ;
#295 = LINE ( 'NONE', #648, #498 ) ;
#296 = ORIENTED_EDGE ( 'NONE', *, *, #623, .F. ) ;
#297 = FACE_OUTER_BOUND ( 'NONE', #609, .T. ) ;
#298 = AXIS2_PLACEMENT_3D ( 'NONE', #440, #236, #81 ) ;
#299 = ORIENTED_EDGE ( 'NONE', *, *, #164, .T. ) ;
#300 = ADVANCED_FACE ( 'NONE', ( #497 ), #361, .F. ) ;
#301 = DIRECTION ( 'NONE',  ( 0.000000000000000000, 0.000000000000000000, -1.000000000000000000 ) ) ;
#302 = ORIENTED_EDGE ( 'NONE', *, *, #116, .T. ) ;
#303 = DIRECTION ( 'NONE',  ( 1.000000000000000000, -0.000000000000000000, -0.000000000000000000 ) ) ;
#304 = CARTESIAN_POINT ( 'NONE',  ( 1.734723475976807883E-15, 38.50000000000005684, -0.7200000000000261746 ) ) ;
#305 = EDGE_LOOP ( 'NONE', ( #751, #598, #702, #190 ) ) ;
#306 = CARTESIAN_POINT ( 'NONE',  ( 1.734723475976807883E-15, 38.50000000000005684, -150.8700000000000330 ) ) ;
#307 = SHAPE_DEFINITION_REPRESENTATION ( #432, #233 ) ;
#308 = CARTESIAN_POINT ( 'NONE',  ( 0.000000000000000000, 42.20000000000000284, -1.300000000000000044 ) ) ;
#309 = EDGE_LOOP ( 'NONE', ( #161, #186, #455, #59 ) ) ;
#310 = AXIS2_PLACEMENT_3D ( 'NONE', #675, #71, #688 ) ;
#311 = VECTOR ( 'NONE', #685, 1000.000000000000000 ) ;
#312 = CIRCLE ( 'NONE', #443, 1.700000000000000178 ) ;
#313 = CYLINDRICAL_SURFACE ( 'NONE', #605, 1.700000000000007061 ) ;
#314 = CARTESIAN_POINT ( 'NONE',  ( 1.734723475976807883E-15, 38.50000000000005684, -7.020000000000026219 ) ) ;
#315 = ORIENTED_EDGE ( 'NONE', *, *, #581, .T. ) ;
#316 = SURFACE_STYLE_USAGE ( .BOTH. , #586 ) ;
#317 = CARTESIAN_POINT ( 'NONE',  ( -1.450000000000006839, 4.000000000000069278, -150.8700000000000330 ) ) ;
#318 = ORIENTED_EDGE ( 'NONE', *, *, #553, .T. ) ;
#319 = ADVANCED_FACE ( 'NONE', ( #878 ), #110, .F. ) ;
#320 = DIRECTION ( 'NONE',  ( 1.000000000000000000, -0.000000000000000000, -0.000000000000000000 ) ) ;
#321 = EDGE_LOOP ( 'NONE', ( #584, #462, #439, #229 ) ) ;
#322 = AXIS2_PLACEMENT_3D ( 'NONE', #495, #560, #629 ) ;
#323 = DIRECTION ( 'NONE',  ( 0.000000000000000000, 0.000000000000000000, -1.000000000000000000 ) ) ;
#324 = ORIENTED_EDGE ( 'NONE', *, *, #581, .F. ) ;
#325 = EDGE_CURVE ( 'NONE', #422, #274, #724, .T. ) ;
#326 = CYLINDRICAL_SURFACE ( 'NONE', #242, 1.000000000000000888 ) ;
#327 = ORIENTED_EDGE ( 'NONE', *, *, #799, .F. ) ;
#328 = CARTESIAN_POINT ( 'NONE',  ( 1.734723475976807883E-15, 38.50000000000005684, -150.8700000000000330 ) ) ;
#329 = CARTESIAN_POINT ( 'NONE',  ( -1.500000000000000000, 42.20000000000000284, -0.2999999999999999889 ) ) ;
#330 = VERTEX_POINT ( 'NONE', #652 ) ;
#331 = CARTESIAN_POINT ( 'NONE',  ( -1.500000000000000000, 42.20000000000000284, -1.300000000000000044 ) ) ;
#332 = MECHANICAL_DESIGN_GEOMETRIC_PRESENTATION_REPRESENTATION (  '', ( #425 ), #565 ) ;
#333 = COLOUR_RGB ( '',0.7803921568627451011, 0.7607843137254901578, 0.7411764705882353255 ) ;
#334 = DIRECTION ( 'NONE',  ( 0.000000000000000000, 0.000000000000000000, 1.000000000000000000 ) ) ;
#335 = AXIS2_PLACEMENT_3D ( 'NONE', #575, #107, #655 ) ;
#336 = CARTESIAN_POINT ( 'NONE',  ( 0.000000000000000000, 41.20000000000000284, -154.4400000000000261 ) ) ;
#337 = VERTEX_POINT ( 'NONE', #331 ) ;
#338 = CYLINDRICAL_SURFACE ( 'NONE', #170, 1.000000000000000000 ) ;
#339 = CARTESIAN_POINT ( 'NONE',  ( 0.000000000000000000, 0.2999999999999999889, -1.300000000000000044 ) ) ;
#340 = LINE ( 'NONE', #614, #140 ) ;
#341 = EDGE_LOOP ( 'NONE', ( #283, #77, #182, #524 ) ) ;
#342 = DIRECTION ( 'NONE',  ( 1.000000000000000000, -0.000000000000000000, -0.000000000000000000 ) ) ;
#343 = EDGE_CURVE ( 'NONE', #684, #673, #861, .T. ) ;
#344 = CARTESIAN_POINT ( 'NONE',  ( -1.500000000000000000, 42.20000000000000284, -0.2999999999999999889 ) ) ;
#345 =( LENGTH_UNIT ( ) NAMED_UNIT ( * ) SI_UNIT ( .MILLI., .METRE. ) );
#346 = ORIENTED_EDGE ( 'NONE', *, *, #521, .F. ) ;
#347 = CARTESIAN_POINT ( 'NONE',  ( 1.734723475976807883E-15, 4.000000000000074607, -7.020000000000026219 ) ) ;
#348 = LINE ( 'NONE', #621, #523 ) ;
#349 = CONICAL_SURFACE ( 'NONE', #665, 3.150000000000013678, 0.7853981633974471688 ) ;
#350 = CYLINDRICAL_SURFACE ( 'NONE', #322, 1.700000000000007061 ) ;
#351 = AXIS2_PLACEMENT_3D ( 'NONE', #632, #17, #564 ) ;
#352 = VERTEX_POINT ( 'NONE', #388 ) ;
#353 = VECTOR ( 'NONE', #744, 1000.000000000000000 ) ;
#354 = PLANE ( 'NONE',  #731 ) ;
#355 = VERTEX_POINT ( 'NONE', #602 ) ;
#356 = CARTESIAN_POINT ( 'NONE',  ( -1.450000000000006839, 4.000000000000069278, -152.5700000000000500 ) ) ;
#357 = UNCERTAINTY_MEASURE_WITH_UNIT (LENGTH_MEASURE( 1.000000000000000082E-05 ), #703, 'distance_accuracy_value', 'NONE');
#358 = CARTESIAN_POINT ( 'NONE',  ( -1.450000000000006839, 38.50000000000005684, -150.8700000000000330 ) ) ;
#359 = PLANE ( 'NONE',  #837 ) ;
#360 = CARTESIAN_POINT ( 'NONE',  ( 1.734723475976807883E-15, 4.000000000000069278, -147.7200000000000273 ) ) ;
#361 = CYLINDRICAL_SURFACE ( 'NONE', #351, 1.699999999999997513 ) ;
#362 = CARTESIAN_POINT ( 'NONE',  ( -1.450000000000006839, 4.000000000000074607, -3.870000000000026308 ) ) ;
#363 = DIRECTION ( 'NONE',  ( 1.000000000000000000, 0.000000000000000000, -0.000000000000000000 ) ) ;
#364 = EDGE_LOOP ( 'NONE', ( #591, #715 ) ) ;
#365 = DIRECTION ( 'NONE',  ( 0.000000000000000000, 0.000000000000000000, -1.000000000000000000 ) ) ;
#366 = APPLICATION_CONTEXT ( 'automotive_design' ) ;
#367 = ORIENTED_EDGE ( 'NONE', *, *, #831, .T. ) ;
#368 = CIRCLE ( 'NONE', #183, 1.000000000000000888 ) ;
#369 = DIRECTION ( 'NONE',  ( 1.000000000000000000, -0.000000000000000000, -0.000000000000000000 ) ) ;
#370 = PRESENTATION_LAYER_ASSIGNMENT (  '', '', ( #154 ) ) ;
#371 = ORIENTED_EDGE ( 'NONE', *, *, #604, .T. ) ;
#372 = CIRCLE ( 'NONE', #22, 3.150000000000013678 ) ;
#373 = LINE ( 'NONE', #314, #486 ) ;
#374 = DIRECTION ( 'NONE',  ( 1.000000000000000000, 0.000000000000000000, 0.000000000000000000 ) ) ;
#375 = EDGE_CURVE ( 'NONE', #249, #79, #246, .T. ) ;
#376 = DIRECTION ( 'NONE',  ( 0.000000000000000000, 0.000000000000000000, -1.000000000000000000 ) ) ;
#377 = ORIENTED_EDGE ( 'NONE', *, *, #671, .T. ) ;
#378 = DIRECTION ( 'NONE',  ( 0.000000000000000000, 0.000000000000000000, -1.000000000000000000 ) ) ;
#379 = DIRECTION ( 'NONE',  ( 0.7071067811865479058, 0.000000000000000000, -0.7071067811865471286 ) ) ;
#380 = AXIS2_PLACEMENT_3D ( 'NONE', #408, #266, #334 ) ;
#381 = ORIENTED_EDGE ( 'NONE', *, *, #623, .T. ) ;
#382 = AXIS2_PLACEMENT_3D ( 'NONE', #788, #180, #451 ) ;
#383 = AXIS2_PLACEMENT_3D ( 'NONE', #358, #403, #5 ) ;
#384 = DIRECTION ( 'NONE',  ( -0.000000000000000000, -0.000000000000000000, 1.000000000000000000 ) ) ;
#385 = PLANE ( 'NONE',  #582 ) ;
#386 = EDGE_LOOP ( 'NONE', ( #468, #118, #801, #293 ) ) ;
#387 = ADVANCED_FACE ( 'NONE', ( #855 ), #313, .F. ) ;
#388 = CARTESIAN_POINT ( 'NONE',  ( -1.450000000000006839, 4.000000000000074607, -5.570000000000020712 ) ) ;
#389 = VERTEX_POINT ( 'NONE', #196 ) ;
#390 = ADVANCED_FACE ( 'NONE', ( #716 ), #528, .F. ) ;
#391 = CARTESIAN_POINT ( 'NONE',  ( -1.500000000000000000, 1.300000000000000044, -1.300000000000000044 ) ) ;
#392 = ORIENTED_EDGE ( 'NONE', *, *, #494, .F. ) ;
#393 = AXIS2_PLACEMENT_3D ( 'NONE', #512, #844, #227 ) ;
#394 = EDGE_CURVE ( 'NONE', #673, #487, #282, .T. ) ;
#395 = AXIS2_PLACEMENT_3D ( 'NONE', #441, #363, #376 ) ;
#396 = FILL_AREA_STYLE ('',( #45 ) ) ;
#397 = EDGE_LOOP ( 'NONE', ( #530, #834, #299, #194 ) ) ;
#398 = DIRECTION ( 'NONE',  ( -0.000000000000000000, 1.000000000000000000, 0.000000000000000000 ) ) ;
#399 = CARTESIAN_POINT ( 'NONE',  ( -1.500000000000000000, 0.2999999999999999889, -1.300000000000000044 ) ) ;
#400 = ORIENTED_EDGE ( 'NONE', *, *, #733, .F. ) ;
#401 = FILL_AREA_STYLE ('',( #478 ) ) ;
#402 = DIRECTION ( 'NONE',  ( 1.000000000000000000, -0.000000000000000000, -0.000000000000000000 ) ) ;
#403 = DIRECTION ( 'NONE',  ( 1.000000000000000000, -0.000000000000000000, -0.000000000000000000 ) ) ;
#404 = ORIENTED_EDGE ( 'NONE', *, *, #862, .F. ) ;
#405 = PRESENTATION_STYLE_ASSIGNMENT (( #316 ) ) ;
#406 = CIRCLE ( 'NONE', #806, 3.150000000000013678 ) ;
#407 = VECTOR ( 'NONE', #771, 1000.000000000000000 ) ;
#408 = CARTESIAN_POINT ( 'NONE',  ( 0.000000000000000000, 1.300000000000000044, -153.4400000000000261 ) ) ;
#409 = AXIS2_PLACEMENT_3D ( 'NONE', #758, #689, #63 ) ;
#410 = CARTESIAN_POINT ( 'NONE',  ( -1.450000000000006839, 38.50000000000005684, -3.870000000000026308 ) ) ;
#411 = VERTEX_POINT ( 'NONE', #674 ) ;
#412 = DIRECTION ( 'NONE',  ( 0.7071067811865483499, 0.000000000000000000, -0.7071067811865466846 ) ) ;
#413 = EDGE_CURVE ( 'NONE', #245, #103, #720, .T. ) ;
#414 = DIRECTION ( 'NONE',  ( 0.000000000000000000, 0.000000000000000000, -1.000000000000000000 ) ) ;
#415 = DIRECTION ( 'NONE',  ( 1.000000000000000000, 0.000000000000000000, -0.000000000000000000 ) ) ;
#416 = ORIENTED_EDGE ( 'NONE', *, *, #75, .T. ) ;
#417 = DIRECTION ( 'NONE',  ( 1.000000000000000000, -0.000000000000000000, -0.000000000000000000 ) ) ;
#418 = DIRECTION ( 'NONE',  ( 0.000000000000000000, 0.000000000000000000, -1.000000000000000000 ) ) ;
#419 =( NAMED_UNIT ( * ) SI_UNIT ( $, .STERADIAN. ) SOLID_ANGLE_UNIT ( ) );
#420 = ORIENTED_EDGE ( 'NONE', *, *, #480, .F. ) ;
#421 =( NAMED_UNIT ( * ) SI_UNIT ( $, .STERADIAN. ) SOLID_ANGLE_UNIT ( ) );
#422 = VERTEX_POINT ( 'NONE', #109 ) ;
#423 = CARTESIAN_POINT ( 'NONE',  ( 1.734723475976807883E-15, 4.000000000000074607, -0.7200000000000261746 ) ) ;
#424 = ADVANCED_FACE ( 'NONE', ( #737 ), #338, .T. ) ;
#425 = STYLED_ITEM ( 'NONE', ( #163 ), #55 ) ;
#426 = CARTESIAN_POINT ( 'NONE',  ( -1.500000000000000000, 41.20000000000000284, -0.2999999999999999889 ) ) ;
#427 = AXIS2_PLACEMENT_3D ( 'NONE', #459, #474, #798 ) ;
#428 = FILL_AREA_STYLE_COLOUR ( '', #638 ) ;
#429 = AXIS2_PLACEMENT_3D ( 'NONE', #578, #853, #467 ) ;
#430 = LINE ( 'NONE', #697, #525 ) ;
#431 = ORIENTED_EDGE ( 'NONE', *, *, #717, .F. ) ;
#432 = PRODUCT_DEFINITION_SHAPE ( 'NONE', 'NONE',  #810 ) ;
#433 = EDGE_CURVE ( 'NONE', #289, #657, #656, .T. ) ;
#434 = ORIENTED_EDGE ( 'NONE', *, *, #636, .T. ) ;
#435 = SURFACE_STYLE_FILL_AREA ( #292 ) ;
#436 = VERTEX_POINT ( 'NONE', #489 ) ;
#437 = DIRECTION ( 'NONE',  ( 1.000000000000000000, -0.000000000000000000, -0.000000000000000000 ) ) ;
#438 = CARTESIAN_POINT ( 'NONE',  ( -1.450000000000006839, 38.50000000000005684, -3.870000000000026308 ) ) ;
#439 = ORIENTED_EDGE ( 'NONE', *, *, #488, .T. ) ;
#440 = CARTESIAN_POINT ( 'NONE',  ( -1.499999999999999556, 38.50000000000005684, -150.8700000000000330 ) ) ;
#441 = CARTESIAN_POINT ( 'NONE',  ( -1.500000000000000000, 1.300000000000000044, -1.300000000000000044 ) ) ;
#442 = ORIENTED_EDGE ( 'NONE', *, *, #141, .F. ) ;
#443 = AXIS2_PLACEMENT_3D ( 'NONE', #244, #786, #19 ) ;
#444 = ADVANCED_FACE ( 'NONE', ( #16, #752, #89, #85, #631 ), #354, .T. ) ;
#445 = LINE ( 'NONE', #423, #407 ) ;
#446 = CARTESIAN_POINT ( 'NONE',  ( -1.500000000000000000, 1.300000000000000044, -153.4400000000000261 ) ) ;
#447 = ORIENTED_EDGE ( 'NONE', *, *, #518, .T. ) ;
#448 = CARTESIAN_POINT ( 'NONE',  ( 1.734723475976807883E-15, 38.50000000000005684, -3.870000000000026308 ) ) ;
#449 = DIRECTION ( 'NONE',  ( 0.000000000000000000, 1.000000000000000000, 0.000000000000000000 ) ) ;
#450 = ORIENTED_EDGE ( 'NONE', *, *, #413, .T. ) ;
#451 = DIRECTION ( 'NONE',  ( 0.000000000000000000, 0.000000000000000000, -1.000000000000000000 ) ) ;
#452 = EDGE_CURVE ( 'NONE', #225, #235, #470, .T. ) ;
#453 = DIRECTION ( 'NONE',  ( 1.000000000000000000, -0.000000000000000000, -0.000000000000000000 ) ) ;
#454 = CIRCLE ( 'NONE', #874, 1.000000000000000888 ) ;
#455 = ORIENTED_EDGE ( 'NONE', *, *, #413, .F. ) ;
#456 = VECTOR ( 'NONE', #412, 1000.000000000000000 ) ;
#457 = AXIS2_PLACEMENT_3D ( 'NONE', #802, #729, #124 ) ;
#458 = VECTOR ( 'NONE', #277, 1000.000000000000000 ) ;
#459 = CARTESIAN_POINT ( 'NONE',  ( 0.000000000000000000, 1.300000000000000044, -1.300000000000000044 ) ) ;
#460 = EDGE_CURVE ( 'NONE', #825, #278, #224, .T. ) ;
#461 = SURFACE_SIDE_STYLE ('',( #52 ) ) ;
#462 = ORIENTED_EDGE ( 'NONE', *, *, #772, .F. ) ;
#463 = EDGE_CURVE ( 'NONE', #422, #641, #762, .T. ) ;
#464 = DIRECTION ( 'NONE',  ( 0.000000000000000000, 0.000000000000000000, -1.000000000000000000 ) ) ;
#465 = ORIENTED_EDGE ( 'NONE', *, *, #594, .T. ) ;
#466 = UNCERTAINTY_MEASURE_WITH_UNIT (LENGTH_MEASURE( 1.000000000000000082E-05 ), #142, 'distance_accuracy_value', 'NONE');
#467 = DIRECTION ( 'NONE',  ( 0.000000000000000000, 0.000000000000000000, -1.000000000000000000 ) ) ;
#468 = ORIENTED_EDGE ( 'NONE', *, *, #116, .F. ) ;
#469 = EDGE_CURVE ( 'NONE', #25, #225, #626, .T. ) ;
#470 = CIRCLE ( 'NONE', #579, 1.700000000000007061 ) ;
#471 = DIRECTION ( 'NONE',  ( 1.000000000000000000, -0.000000000000000000, -0.000000000000000000 ) ) ;
#472 = CYLINDRICAL_SURFACE ( 'NONE', #711, 1.699999999999996625 ) ;
#473 = ORIENTED_EDGE ( 'NONE', *, *, #189, .F. ) ;
#474 = DIRECTION ( 'NONE',  ( 1.000000000000000000, -0.000000000000000000, -0.000000000000000000 ) ) ;
#475 = DIRECTION ( 'NONE',  ( 0.000000000000000000, 0.000000000000000000, 1.000000000000000000 ) ) ;
#476 = CARTESIAN_POINT ( 'NONE',  ( -1.500000000000000000, 41.20000000000000284, -153.4400000000000261 ) ) ;
#477 = ORIENTED_EDGE ( 'NONE', *, *, #713, .T. ) ;
#478 = FILL_AREA_STYLE_COLOUR ( '', #333 ) ;
#479 = CARTESIAN_POINT ( 'NONE',  ( -1.500000000000000000, 41.20000000000000284, -1.300000000000000044 ) ) ;
#480 = EDGE_CURVE ( 'NONE', #355, #436, #430, .T. ) ;
#481 = DIRECTION ( 'NONE',  ( 1.000000000000000000, -0.000000000000000000, -0.000000000000000000 ) ) ;
#482 = ORIENTED_EDGE ( 'NONE', *, *, #460, .F. ) ;
#483 = AXIS2_PLACEMENT_3D ( 'NONE', #479, #276, #599 ) ;
#484 = CIRCLE ( 'NONE', #96, 1.700000000000000178 ) ;
#485 = CARTESIAN_POINT ( 'NONE',  ( 1.734723475976807883E-15, 4.000000000000074607, -3.870000000000026308 ) ) ;
#486 = VECTOR ( 'NONE', #379, 1000.000000000000000 ) ;
#487 = VERTEX_POINT ( 'NONE', #139 ) ;
#488 = EDGE_CURVE ( 'NONE', #352, #389, #73, .T. ) ;
#489 = CARTESIAN_POINT ( 'NONE',  ( -1.500000000000000000, 1.300000000000000044, -154.4400000000000261 ) ) ;
#490 = CARTESIAN_POINT ( 'NONE',  ( 0.000000000000000000, 4.000000000000069278, -149.1700000000000159 ) ) ;
#491 = DIRECTION ( 'NONE',  ( 0.000000000000000000, 0.000000000000000000, -1.000000000000000000 ) ) ;
#492 = DIRECTION ( 'NONE',  ( 0.000000000000000000, 0.000000000000000000, -1.000000000000000000 ) ) ;
#493 = DIRECTION ( 'NONE',  ( -1.000000000000000000, -0.000000000000000000, -0.000000000000000000 ) ) ;
#494 = EDGE_CURVE ( 'NONE', #269, #249, #64, .T. ) ;
#495 = CARTESIAN_POINT ( 'NONE',  ( 0.000000000000000000, 38.50000000000005684, -150.8700000000000330 ) ) ;
#496 = CARTESIAN_POINT ( 'NONE',  ( -1.499999999999999556, 4.000000000000069278, -152.5700000000000500 ) ) ;
#497 = FACE_OUTER_BOUND ( 'NONE', #588, .T. ) ;
#498 = VECTOR ( 'NONE', #574, 1000.000000000000000 ) ;
#499 = VECTOR ( 'NONE', #365, 1000.000000000000000 ) ;
#500 = CIRCLE ( 'NONE', #409, 3.150000000000013678 ) ;
#501 = ORIENTED_EDGE ( 'NONE', *, *, #858, .T. ) ;
#502 = DIRECTION ( 'NONE',  ( 0.000000000000000000, 0.000000000000000000, -1.000000000000000000 ) ) ;
#503 = ORIENTED_EDGE ( 'NONE', *, *, #67, .F. ) ;
#504 = CARTESIAN_POINT ( 'NONE',  ( -1.450000000000006839, 4.000000000000069278, -149.1700000000000159 ) ) ;
#505 = FACE_OUTER_BOUND ( 'NONE', #681, .T. ) ;
#506 = DIRECTION ( 'NONE',  ( 1.000000000000000000, -0.000000000000000000, -0.000000000000000000 ) ) ;
#507 = EDGE_LOOP ( 'NONE', ( #698, #706, #812, #517 ) ) ;
#508 = DIRECTION ( 'NONE',  ( 0.000000000000000000, 0.000000000000000000, -1.000000000000000000 ) ) ;
#509 = EDGE_CURVE ( 'NONE', #235, #728, #149, .T. ) ;
#510 = DIRECTION ( 'NONE',  ( -1.000000000000000000, 0.000000000000000000, 0.000000000000000000 ) ) ;
#511 = ORIENTED_EDGE ( 'NONE', *, *, #281, .F. ) ;
#512 = CARTESIAN_POINT ( 'NONE',  ( 0.000000000000000000, 4.000000000000074607, -3.870000000000026308 ) ) ;
#513 = DIRECTION ( 'NONE',  ( 0.000000000000000000, -0.000000000000000000, -1.000000000000000000 ) ) ;
#514 = AXIS2_PLACEMENT_3D ( 'NONE', #410, #814, #740 ) ;
#515 = DIRECTION ( 'NONE',  ( 1.000000000000000000, 0.000000000000000000, -0.000000000000000000 ) ) ;
#516 = LINE ( 'NONE', #99, #157 ) ;
#517 = ORIENTED_EDGE ( 'NONE', *, *, #325, .F. ) ;
#518 = EDGE_CURVE ( 'NONE', #411, #84, #136, .T. ) ;
#519 = FACE_OUTER_BOUND ( 'NONE', #309, .T. ) ;
#520 = ORIENTED_EDGE ( 'NONE', *, *, #649, .F. ) ;
#521 = EDGE_CURVE ( 'NONE', #657, #289, #255, .T. ) ;
#522 = FACE_OUTER_BOUND ( 'NONE', #865, .T. ) ;
#523 = VECTOR ( 'NONE', #543, 1000.000000000000000 ) ;
#524 = ORIENTED_EDGE ( 'NONE', *, *, #488, .F. ) ;
#525 = VECTOR ( 'NONE', #493, 1000.000000000000000 ) ;
#526 = AXIS2_PLACEMENT_3D ( 'NONE', #438, #369, #712 ) ;
#527 = PRODUCT_DEFINITION_FORMATION_WITH_SPECIFIED_SOURCE ( 'ANY', '', #686, .NOT_KNOWN. ) ;
#528 = CYLINDRICAL_SURFACE ( 'NONE', #382, 1.700000000000007061 ) ;
#529 = EDGE_LOOP ( 'NONE', ( #557, #854, #857, #745 ) ) ;
#530 = ORIENTED_EDGE ( 'NONE', *, *, #741, .F. ) ;
#531 = EDGE_CURVE ( 'NONE', #825, #548, #484, .T. ) ;
#532 = FACE_OUTER_BOUND ( 'NONE', #65, .T. ) ;
#533 = ORIENTED_EDGE ( 'NONE', *, *, #469, .F. ) ;
#534 = AXIS2_PLACEMENT_3D ( 'NONE', #328, #146, #4 ) ;
#535 = AXIS2_PLACEMENT_3D ( 'NONE', #873, #743, #749 ) ;
#536 = STYLED_ITEM ( 'NONE', ( #405 ), #424 ) ;
#537 = VECTOR ( 'NONE', #597, 1000.000000000000000 ) ;
#538 = CARTESIAN_POINT ( 'NONE',  ( 0.000000000000000000, 41.20000000000000284, -153.4400000000000261 ) ) ;
#539 = CARTESIAN_POINT ( 'NONE',  ( -1.500000000000000000, 0.2999999999999999889, -153.4400000000000261 ) ) ;
#540 = ORIENTED_EDGE ( 'NONE', *, *, #849, .T. ) ;
#541 = DIRECTION ( 'NONE',  ( 0.000000000000000000, 0.000000000000000000, 1.000000000000000000 ) ) ;
#542 = ADVANCED_FACE ( 'NONE', ( #820, #211, #234, #178, #721 ), #230, .F. ) ;
#543 = DIRECTION ( 'NONE',  ( 0.7071067811865483499, 0.000000000000000000, -0.7071067811865466846 ) ) ;
#544 = CARTESIAN_POINT ( 'NONE',  ( 0.000000000000000000, 0.2999999999999999889, -153.4400000000000261 ) ) ;
#545 = EDGE_LOOP ( 'NONE', ( #57, #552, #465, #615 ) ) ;
#546 =( NAMED_UNIT ( * ) PLANE_ANGLE_UNIT ( ) SI_UNIT ( $, .RADIAN. ) );
#547 = CARTESIAN_POINT ( 'NONE',  ( -1.500000000000000000, 42.20000000000000284, -1.300000000000000044 ) ) ;
#548 = VERTEX_POINT ( 'NONE', #102 ) ;
#549 = DIRECTION ( 'NONE',  ( 0.000000000000000000, 0.000000000000000000, -1.000000000000000000 ) ) ;
#550 = DIRECTION ( 'NONE',  ( 0.000000000000000000, 0.000000000000000000, -1.000000000000000000 ) ) ;
#551 = AXIS2_PLACEMENT_3D ( 'NONE', #870, #800, #464 ) ;
#552 = ORIENTED_EDGE ( 'NONE', *, *, #664, .F. ) ;
#553 = EDGE_CURVE ( 'NONE', #411, #641, #516, .T. ) ;
#554 = CARTESIAN_POINT ( 'NONE',  ( -1.450000000000006839, 4.000000000000069278, -150.8700000000000330 ) ) ;
#555 = DIRECTION ( 'NONE',  ( 0.000000000000000000, 0.000000000000000000, -1.000000000000000000 ) ) ;
#556 = CARTESIAN_POINT ( 'NONE',  ( 0.000000000000000000, 0.2999999999999999889, -0.2999999999999999889 ) ) ;
#557 = ORIENTED_EDGE ( 'NONE', *, *, #75, .F. ) ;
#558 = FILL_AREA_STYLE_COLOUR ( '', #265 ) ;
#559 = ORIENTED_EDGE ( 'NONE', *, *, #840, .F. ) ;
#560 = DIRECTION ( 'NONE',  ( 1.000000000000000000, -0.000000000000000000, -0.000000000000000000 ) ) ;
#561 = VERTEX_POINT ( 'NONE', #173 ) ;
#562 = PRESENTATION_STYLE_ASSIGNMENT (( #619 ) ) ;
#563 = ORIENTED_EDGE ( 'NONE', *, *, #343, .T. ) ;
#564 = DIRECTION ( 'NONE',  ( 0.000000000000000000, 0.000000000000000000, -1.000000000000000000 ) ) ;
#565 =( GEOMETRIC_REPRESENTATION_CONTEXT ( 3 ) GLOBAL_UNCERTAINTY_ASSIGNED_CONTEXT ( ( #466 ) ) GLOBAL_UNIT_ASSIGNED_CONTEXT ( ( #142, #546, #212 ) ) REPRESENTATION_CONTEXT ( 'NONE', 'WORKASPACE' ) );
#566 = AXIS2_PLACEMENT_3D ( 'NONE', #232, #437, #508 ) ;
#567 = ORIENTED_EDGE ( 'NONE', *, *, #521, .T. ) ;
#568 = CARTESIAN_POINT ( 'NONE',  ( 0.000000000000000000, 38.50000000000005684, -3.870000000000026308 ) ) ;
#569 = ORIENTED_EDGE ( 'NONE', *, *, #733, .T. ) ;
#570 = SURFACE_STYLE_USAGE ( .BOTH. , #764 ) ;
#571 = ADVANCED_FACE ( 'NONE', ( #33 ), #642, .T. ) ;
#572 = ORIENTED_EDGE ( 'NONE', *, *, #741, .T. ) ;
#573 = CARTESIAN_POINT ( 'NONE',  ( -1.500000000000000000, 0.2999999999999999889, -154.4400000000000261 ) ) ;
#574 = DIRECTION ( 'NONE',  ( 0.000000000000000000, 0.000000000000000000, -1.000000000000000000 ) ) ;
#575 = CARTESIAN_POINT ( 'NONE',  ( 0.000000000000000000, 0.000000000000000000, 0.000000000000000000 ) ) ;
#576 = DIRECTION ( 'NONE',  ( 1.000000000000000000, -0.000000000000000000, -0.000000000000000000 ) ) ;
#577 = CIRCLE ( 'NONE', #761, 1.700000000000007061 ) ;
#578 = CARTESIAN_POINT ( 'NONE',  ( -1.499999999999999556, 4.000000000000069278, -150.8700000000000330 ) ) ;
#579 = AXIS2_PLACEMENT_3D ( 'NONE', #554, #835, #502 ) ;
#580 = ORIENTED_EDGE ( 'NONE', *, *, #113, .F. ) ;
#581 = EDGE_CURVE ( 'NONE', #249, #269, #312, .T. ) ;
#582 = AXIS2_PLACEMENT_3D ( 'NONE', #795, #192, #258 ) ;
#583 = LINE ( 'NONE', #573, #864 ) ;
#584 = ORIENTED_EDGE ( 'NONE', *, *, #270, .F. ) ;
#585 = ADVANCED_FACE ( 'NONE', ( #519 ), #846, .T. ) ;
#586 = SURFACE_SIDE_STYLE ('',( #129 ) ) ;
#587 = DIRECTION ( 'NONE',  ( 0.000000000000000000, 0.000000000000000000, -1.000000000000000000 ) ) ;
#588 = EDGE_LOOP ( 'NONE', ( #482, #155, #31, #108 ) ) ;
#589 = DIRECTION ( 'NONE',  ( 0.000000000000000000, 0.000000000000000000, -1.000000000000000000 ) ) ;
#590 = CONICAL_SURFACE ( 'NONE', #534, 3.150000000000013678, 0.7853981633974477239 ) ;
#591 = ORIENTED_EDGE ( 'NONE', *, *, #701, .T. ) ;
#592 = AXIS2_PLACEMENT_3D ( 'NONE', #813, #48, #589 ) ;
#593 = VECTOR ( 'NONE', #600, 1000.000000000000000 ) ;
#594 = EDGE_CURVE ( 'NONE', #79, #289, #373, .T. ) ;
#595 = LINE ( 'NONE', #399, #722 ) ;
#596 = ORIENTED_EDGE ( 'NONE', *, *, #717, .T. ) ;
#597 = DIRECTION ( 'NONE',  ( 1.000000000000000000, -0.000000000000000000, -0.000000000000000000 ) ) ;
#598 = ORIENTED_EDGE ( 'NONE', *, *, #460, .T. ) ;
#599 = DIRECTION ( 'NONE',  ( 0.000000000000000000, 0.000000000000000000, 1.000000000000000000 ) ) ;
#600 = DIRECTION ( 'NONE',  ( -0.000000000000000000, -0.000000000000000000, 1.000000000000000000 ) ) ;
#601 = EDGE_LOOP ( 'NONE', ( #803, #860, #6, #252 ) ) ;
#602 = CARTESIAN_POINT ( 'NONE',  ( 0.000000000000000000, 1.300000000000000044, -154.4400000000000261 ) ) ;
#603 = CIRCLE ( 'NONE', #483, 1.000000000000000000 ) ;
#604 = EDGE_CURVE ( 'NONE', #115, #330, #93, .T. ) ;
#605 = AXIS2_PLACEMENT_3D ( 'NONE', #36, #659, #254 ) ;
#606 = AXIS2_PLACEMENT_3D ( 'NONE', #446, #510, #856 ) ;
#607 = FACE_OUTER_BOUND ( 'NONE', #845, .T. ) ;
#608 = CARTESIAN_POINT ( 'NONE',  ( 1.734723475976807883E-15, 4.000000000000069278, -150.8700000000000330 ) ) ;
#609 = EDGE_LOOP ( 'NONE', ( #392, #725, #262, #819 ) ) ;
#610 = CARTESIAN_POINT ( 'NONE',  ( -1.499999999999999556, 38.50000000000005684, -3.870000000000026308 ) ) ;
#611 = PRODUCT_RELATED_PRODUCT_CATEGORY ( 'part', '', ( #686 ) ) ;
#612 = ADVANCED_FACE ( 'NONE', ( #850 ), #789, .F. ) ;
#613 = DIRECTION ( 'NONE',  ( -1.000000000000000000, 0.000000000000000000, 0.000000000000000000 ) ) ;
#614 = CARTESIAN_POINT ( 'NONE',  ( 0.000000000000000000, 0.2999999999999999889, -154.4400000000000261 ) ) ;
#615 = ORIENTED_EDGE ( 'NONE', *, *, #433, .T. ) ;
#616 = DIRECTION ( 'NONE',  ( 0.000000000000000000, 0.000000000000000000, -1.000000000000000000 ) ) ;
#617 = FACE_OUTER_BOUND ( 'NONE', #643, .T. ) ;
#618 = ORIENTED_EDGE ( 'NONE', *, *, #817, .F. ) ;
#619 = SURFACE_STYLE_USAGE ( .BOTH. , #746 ) ;
#620 =( GEOMETRIC_REPRESENTATION_CONTEXT ( 3 ) GLOBAL_UNCERTAINTY_ASSIGNED_CONTEXT ( ( #203 ) ) GLOBAL_UNIT_ASSIGNED_CONTEXT ( ( #214, #160, #421 ) ) REPRESENTATION_CONTEXT ( 'NONE', 'WORKASPACE' ) );
#621 = CARTESIAN_POINT ( 'NONE',  ( 1.734723475976807883E-15, 4.000000000000069278, -154.0200000000000387 ) ) ;
#622 = CIRCLE ( 'NONE', #606, 1.000000000000000888 ) ;
#623 = EDGE_CURVE ( 'NONE', #436, #42, #583, .T. ) ;
#624 = FACE_OUTER_BOUND ( 'NONE', #209, .T. ) ;
#625 = FACE_OUTER_BOUND ( 'NONE', #545, .T. ) ;
#626 = LINE ( 'NONE', #826, #838 ) ;
#627 = ORIENTED_EDGE ( 'NONE', *, *, #106, .T. ) ;
#628 = DIRECTION ( 'NONE',  ( 0.000000000000000000, 0.000000000000000000, -1.000000000000000000 ) ) ;
#629 = DIRECTION ( 'NONE',  ( 0.000000000000000000, 0.000000000000000000, -1.000000000000000000 ) ) ;
#630 = EDGE_LOOP ( 'NONE', ( #633, #447 ) ) ;
#631 = FACE_OUTER_BOUND ( 'NONE', #260, .T. ) ;
#632 = CARTESIAN_POINT ( 'NONE',  ( 0.000000000000000000, 4.000000000000074607, -3.870000000000026308 ) ) ;
#633 = ORIENTED_EDGE ( 'NONE', *, *, #281, .T. ) ;
#634 = CARTESIAN_POINT ( 'NONE',  ( 0.000000000000000000, 38.50000000000005684, -150.8700000000000330 ) ) ;
#635 = ORIENTED_EDGE ( 'NONE', *, *, #271, .F. ) ;
#636 = EDGE_CURVE ( 'NONE', #436, #690, #622, .T. ) ;
#637 = FILL_AREA_STYLE_COLOUR ( '', #37 ) ;
#638 = COLOUR_RGB ( '',0.7803921568627451011, 0.7607843137254901578, 0.7411764705882353255 ) ;
#639 = AXIS2_PLACEMENT_3D ( 'NONE', #691, #288, #275 ) ;
#640 = COLOUR_RGB ( '',0.7803921568627451011, 0.7607843137254901578, 0.7411764705882353255 ) ;
#641 = VERTEX_POINT ( 'NONE', #181 ) ;
#642 = PLANE ( 'NONE',  #138 ) ;
#643 = EDGE_LOOP ( 'NONE', ( #618, #144, #205, #651 ) ) ;
#644 = ADVANCED_FACE ( 'NONE', ( #297 ), #646, .F. ) ;
#645 = CARTESIAN_POINT ( 'NONE',  ( 0.000000000000000000, 38.50000000000005684, -2.170000000000029683 ) ) ;
#646 = CYLINDRICAL_SURFACE ( 'NONE', #809, 1.699999999999996625 ) ;
#647 = ORIENTED_EDGE ( 'NONE', *, *, #678, .T. ) ;
#648 = CARTESIAN_POINT ( 'NONE',  ( 0.000000000000000000, 0.2999999999999999889, -0.2999999999999999889 ) ) ;
#649 = EDGE_CURVE ( 'NONE', #561, #389, #226, .T. ) ;
#650 = DIRECTION ( 'NONE',  ( 0.7071067811865479058, 8.659560562354927928E-17, 0.7071067811865471286 ) ) ;
#651 = ORIENTED_EDGE ( 'NONE', *, *, #840, .T. ) ;
#652 = CARTESIAN_POINT ( 'NONE',  ( -1.500000000000000000, 1.300000000000000044, -0.2999999999999999889 ) ) ;
#653 = PRESENTATION_LAYER_ASSIGNMENT (  '', '', ( #425 ) ) ;
#654 = AXIS2_PLACEMENT_3D ( 'NONE', #219, #342, #78 ) ;
#655 = DIRECTION ( 'NONE',  ( 0.000000000000000000, 0.000000000000000000, 1.000000000000000000 ) ) ;
#656 = CIRCLE ( 'NONE', #667, 3.149999999999999911 ) ;
#657 = VERTEX_POINT ( 'NONE', #777 ) ;
#658 = PRESENTATION_LAYER_ASSIGNMENT (  '', '', ( #822 ) ) ;
#659 = DIRECTION ( 'NONE',  ( 1.000000000000000000, -0.000000000000000000, -0.000000000000000000 ) ) ;
#660 = VERTEX_POINT ( 'NONE', #165 ) ;
#661 = DIRECTION ( 'NONE',  ( 1.000000000000000000, -0.000000000000000000, -0.000000000000000000 ) ) ;
#662 = CARTESIAN_POINT ( 'NONE',  ( -1.499999999999999556, 4.000000000000069278, -149.1700000000000159 ) ) ;
#663 = ORIENTED_EDGE ( 'NONE', *, *, #164, .F. ) ;
#664 = EDGE_CURVE ( 'NONE', #79, #137, #97, .T. ) ;
#665 = AXIS2_PLACEMENT_3D ( 'NONE', #167, #576, #301 ) ;
#666 = VERTEX_POINT ( 'NONE', #168 ) ;
#667 = AXIS2_PLACEMENT_3D ( 'NONE', #448, #661, #378 ) ;
#668 = PRODUCT_DEFINITION_CONTEXT ( 'detailed design', #247, 'design' ) ;
#669 = EDGE_LOOP ( 'NONE', ( #315, #231 ) ) ;
#670 = CARTESIAN_POINT ( 'NONE',  ( -1.500000000000000000, 41.20000000000000284, -0.2999999999999999889 ) ) ;
#671 = EDGE_CURVE ( 'NONE', #137, #657, #30, .T. ) ;
#672 = CARTESIAN_POINT ( 'NONE',  ( 1.734723475976807883E-15, 4.000000000000069278, -147.7200000000000273 ) ) ;
#673 = VERTEX_POINT ( 'NONE', #308 ) ;
#674 = CARTESIAN_POINT ( 'NONE',  ( -1.499999999999999556, 38.50000000000005684, -149.1700000000000159 ) ) ;
#675 = CARTESIAN_POINT ( 'NONE',  ( 1.734723475976807883E-15, 4.000000000000074607, -3.870000000000026308 ) ) ;
#676 = CARTESIAN_POINT ( 'NONE',  ( 1.734723475976807883E-15, 38.50000000000005684, -147.7200000000000273 ) ) ;
#677 = ORIENTED_EDGE ( 'NONE', *, *, #862, .T. ) ;
#678 = EDGE_CURVE ( 'NONE', #25, #730, #39, .T. ) ;
#679 = AXIS2_PLACEMENT_3D ( 'NONE', #610, #12, #756 ) ;
#680 = DIRECTION ( 'NONE',  ( 0.7071067811865479058, 8.659560562354927928E-17, 0.7071067811865471286 ) ) ;
#681 = EDGE_LOOP ( 'NONE', ( #120, #501, #569, #881 ) ) ;
#682 = CARTESIAN_POINT ( 'NONE',  ( 1.734723475976807883E-15, 38.50000000000005684, -3.870000000000026308 ) ) ;
#683 = CARTESIAN_POINT ( 'NONE',  ( -1.450000000000006839, 38.50000000000005684, -2.170000000000032792 ) ) ;
#684 = VERTEX_POINT ( 'NONE', #859 ) ;
#685 = DIRECTION ( 'NONE',  ( 1.000000000000000000, -0.000000000000000000, -0.000000000000000000 ) ) ;
#686 = PRODUCT ( '550-00193-00', '550-00193-00', '', ( #177 ) ) ;
#687 = EDGE_CURVE ( 'NONE', #103, #660, #595, .T. ) ;
#688 = DIRECTION ( 'NONE',  ( 0.000000000000000000, 0.000000000000000000, -1.000000000000000000 ) ) ;
#689 = DIRECTION ( 'NONE',  ( 1.000000000000000000, -0.000000000000000000, -0.000000000000000000 ) ) ;
#690 = VERTEX_POINT ( 'NONE', #539 ) ;
#691 = CARTESIAN_POINT ( 'NONE',  ( -1.499999999999999556, 38.50000000000005684, -150.8700000000000330 ) ) ;
#692 = ORIENTED_EDGE ( 'NONE', *, *, #793, .T. ) ;
#693 = DIRECTION ( 'NONE',  ( 1.000000000000000000, -0.000000000000000000, -0.000000000000000000 ) ) ;
#694 = CIRCLE ( 'NONE', #66, 1.000000000000000000 ) ;
#695 = CARTESIAN_POINT ( 'NONE',  ( -1.500000000000000000, 1.300000000000000044, -0.2999999999999999889 ) ) ;
#696 = SURFACE_STYLE_FILL_AREA ( #92 ) ;
#697 = CARTESIAN_POINT ( 'NONE',  ( -1.500000000000000000, 1.300000000000000044, -154.4400000000000261 ) ) ;
#698 = ORIENTED_EDGE ( 'NONE', *, *, #831, .F. ) ;
#699 = CARTESIAN_POINT ( 'NONE',  ( -1.500000000000000000, 41.20000000000000284, -154.4400000000000261 ) ) ;
#700 = DIRECTION ( 'NONE',  ( 0.000000000000000000, 0.000000000000000000, -1.000000000000000000 ) ) ;
#701 = EDGE_CURVE ( 'NONE', #548, #825, #111, .T. ) ;
#702 = ORIENTED_EDGE ( 'NONE', *, *, #47, .T. ) ;
#703 =( LENGTH_UNIT ( ) NAMED_UNIT ( * ) SI_UNIT ( .MILLI., .METRE. ) );
#704 = DIRECTION ( 'NONE',  ( 1.000000000000000000, -0.000000000000000000, -0.000000000000000000 ) ) ;
#705 = DIRECTION ( 'NONE',  ( 0.000000000000000000, -1.000000000000000000, 0.000000000000000000 ) ) ;
#706 = ORIENTED_EDGE ( 'NONE', *, *, #817, .T. ) ;
#707 = ADVANCED_FACE ( 'NONE', ( #532 ), #326, .T. ) ;
#708 = CARTESIAN_POINT ( 'NONE',  ( -1.499999999999999556, 38.50000000000005684, -2.170000000000026130 ) ) ;
#709 =( GEOMETRIC_REPRESENTATION_CONTEXT ( 3 ) GLOBAL_UNCERTAINTY_ASSIGNED_CONTEXT ( ( #357 ) ) GLOBAL_UNIT_ASSIGNED_CONTEXT ( ( #703, #158, #91 ) ) REPRESENTATION_CONTEXT ( 'NONE', 'WORKASPACE' ) );
#710 = MECHANICAL_DESIGN_GEOMETRIC_PRESENTATION_REPRESENTATION (  '', ( #536 ), #184 ) ;
#711 = AXIS2_PLACEMENT_3D ( 'NONE', #150, #481, #217 ) ;
#712 = DIRECTION ( 'NONE',  ( 0.000000000000000000, 0.000000000000000000, -1.000000000000000000 ) ) ;
#713 = EDGE_CURVE ( 'NONE', #660, #330, #694, .T. ) ;
#714 = CARTESIAN_POINT ( 'NONE',  ( 1.734723475976807883E-15, 4.000000000000074607, -3.870000000000026308 ) ) ;
#715 = ORIENTED_EDGE ( 'NONE', *, *, #531, .T. ) ;
#716 = FACE_OUTER_BOUND ( 'NONE', #529, .T. ) ;
#717 = EDGE_CURVE ( 'NONE', #84, #422, #114, .T. ) ;
#718 = EDGE_LOOP ( 'NONE', ( #868, #760, #381, #69 ) ) ;
#719 = CARTESIAN_POINT ( 'NONE',  ( 0.000000000000000000, 41.20000000000000284, -1.300000000000000044 ) ) ;
#720 = CIRCLE ( 'NONE', #427, 1.000000000000000000 ) ;
#721 = FACE_BOUND ( 'NONE', #50, .T. ) ;
#722 = VECTOR ( 'NONE', #185, 1000.000000000000000 ) ;
#723 = ORIENTED_EDGE ( 'NONE', *, *, #294, .F. ) ;
#724 = LINE ( 'NONE', #851, #241 ) ;
#725 = ORIENTED_EDGE ( 'NONE', *, *, #239, .T. ) ;
#726 = ADVANCED_FACE ( 'NONE', ( #522 ), #385, .T. ) ;
#727 = FACE_OUTER_BOUND ( 'NONE', #132, .T. ) ;
#728 = VERTEX_POINT ( 'NONE', #672 ) ;
#729 = DIRECTION ( 'NONE',  ( 1.000000000000000000, -0.000000000000000000, -0.000000000000000000 ) ) ;
#730 = VERTEX_POINT ( 'NONE', #662 ) ;
#731 = AXIS2_PLACEMENT_3D ( 'NONE', #153, #145, #829 ) ;
#732 = MECHANICAL_DESIGN_GEOMETRIC_PRESENTATION_REPRESENTATION (  '', ( #822 ), #256 ) ;
#733 = EDGE_CURVE ( 'NONE', #54, #337, #119, .T. ) ;
#734 = CARTESIAN_POINT ( 'NONE',  ( 1.734723475976807883E-15, 38.50000000000005684, -3.870000000000026308 ) ) ;
#735 = DIRECTION ( 'NONE',  ( 1.000000000000000000, 0.000000000000000000, 0.000000000000000000 ) ) ;
#736 = ORIENTED_EDGE ( 'NONE', *, *, #553, .F. ) ;
#737 = FACE_OUTER_BOUND ( 'NONE', #386, .T. ) ;
#738 = FACE_OUTER_BOUND ( 'NONE', #174, .T. ) ;
#739 = ADVANCED_FACE ( 'NONE', ( #56 ), #748, .F. ) ;
#740 = DIRECTION ( 'NONE',  ( 0.000000000000000000, 0.000000000000000000, -1.000000000000000000 ) ) ;
#741 = EDGE_CURVE ( 'NONE', #235, #225, #284, .T. ) ;
#742 = ORIENTED_EDGE ( 'NONE', *, *, #509, .F. ) ;
#743 = DIRECTION ( 'NONE',  ( 1.000000000000000000, 0.000000000000000000, 0.000000000000000000 ) ) ;
#744 = DIRECTION ( 'NONE',  ( 1.000000000000000000, 0.000000000000000000, -0.000000000000000000 ) ) ;
#745 = ORIENTED_EDGE ( 'NONE', *, *, #452, .T. ) ;
#746 = SURFACE_SIDE_STYLE ('',( #435 ) ) ;
#747 = AXIS2_PLACEMENT_3D ( 'NONE', #682, #70, #616 ) ;
#748 = CONICAL_SURFACE ( 'NONE', #551, 3.150000000000013678, 0.7853981633974471688 ) ;
#749 = DIRECTION ( 'NONE',  ( 0.000000000000000000, 0.000000000000000000, -1.000000000000000000 ) ) ;
#750 = DIRECTION ( 'NONE',  ( 0.000000000000000000, 0.000000000000000000, -1.000000000000000000 ) ) ;
#751 = ORIENTED_EDGE ( 'NONE', *, *, #531, .F. ) ;
#752 = FACE_BOUND ( 'NONE', #364, .T. ) ;
#753 = ADVANCED_FACE ( 'NONE', ( #727 ), #472, .F. ) ;
#754 = CARTESIAN_POINT ( 'NONE',  ( -1.499999999999999556, 4.000000000000074607, -2.170000000000026130 ) ) ;
#755 = CARTESIAN_POINT ( 'NONE',  ( -1.500000000000000000, 42.20000000000000284, -153.4400000000000261 ) ) ;
#756 = DIRECTION ( 'NONE',  ( 0.000000000000000000, 0.000000000000000000, -1.000000000000000000 ) ) ;
#757 = CARTESIAN_POINT ( 'NONE',  ( 0.000000000000000000, 1.300000000000000044, -0.2999999999999999889 ) ) ;
#758 = CARTESIAN_POINT ( 'NONE',  ( 1.734723475976807883E-15, 38.50000000000005684, -150.8700000000000330 ) ) ;
#759 = DIRECTION ( 'NONE',  ( 1.000000000000000000, -0.000000000000000000, -0.000000000000000000 ) ) ;
#760 = ORIENTED_EDGE ( 'NONE', *, *, #480, .T. ) ;
#761 = AXIS2_PLACEMENT_3D ( 'NONE', #811, #471, #418 ) ;
#762 = CIRCLE ( 'NONE', #654, 1.700000000000007061 ) ;
#763 = VECTOR ( 'NONE', #680, 1000.000000000000000 ) ;
#764 = SURFACE_SIDE_STYLE ('',( #23 ) ) ;
#765 = UNCERTAINTY_MEASURE_WITH_UNIT (LENGTH_MEASURE( 1.000000000000000082E-05 ), #345, 'distance_accuracy_value', 'NONE');
#766 = ADVANCED_FACE ( 'NONE', ( #624 ), #350, .F. ) ;
#767 = AXIS2_PLACEMENT_3D ( 'NONE', #286, #750, #833 ) ;
#768 = EDGE_LOOP ( 'NONE', ( #736, #511, #596, #72 ) ) ;
#769 = CARTESIAN_POINT ( 'NONE',  ( 0.000000000000000000, 4.000000000000074607, -2.170000000000028795 ) ) ;
#770 = VERTEX_POINT ( 'NONE', #544 ) ;
#771 = DIRECTION ( 'NONE',  ( 0.7071067811865483499, 8.659560562354922997E-17, 0.7071067811865466846 ) ) ;
#772 = EDGE_CURVE ( 'NONE', #352, #278, #781, .T. ) ;
#773 = DIRECTION ( 'NONE',  ( 0.000000000000000000, 0.000000000000000000, 1.000000000000000000 ) ) ;
#774 = SURFACE_STYLE_USAGE ( .BOTH. , #18 ) ;
#775 = DIRECTION ( 'NONE',  ( 0.000000000000000000, 0.000000000000000000, -1.000000000000000000 ) ) ;
#776 = CARTESIAN_POINT ( 'NONE',  ( 1.734723475976807883E-15, 38.50000000000005684, -154.0200000000000387 ) ) ;
#777 = CARTESIAN_POINT ( 'NONE',  ( 1.734723475976807883E-15, 38.50000000000005684, -0.7200000000000261746 ) ) ;
#778 = DIRECTION ( 'NONE',  ( 1.000000000000000000, -0.000000000000000000, -0.000000000000000000 ) ) ;
#779 = VECTOR ( 'NONE', #778, 1000.000000000000000 ) ;
#780 = AXIS2_PLACEMENT_3D ( 'NONE', #306, #693, #628 ) ;
#781 = CIRCLE ( 'NONE', #877, 1.699999999999994849 ) ;
#782 = CARTESIAN_POINT ( 'NONE',  ( -1.500000000000000000, 0.2999999999999999889, -0.2999999999999999889 ) ) ;
#783 = ADVANCED_FACE ( 'NONE', ( #824 ), #827, .T. ) ;
#784 = CARTESIAN_POINT ( 'NONE',  ( 0.000000000000000000, 38.50000000000005684, -5.570000000000022489 ) ) ;
#785 = APPLICATION_PROTOCOL_DEFINITION ( 'draft international standard', 'automotive_design', 1998, #247 ) ;
#786 = DIRECTION ( 'NONE',  ( 1.000000000000000000, -0.000000000000000000, -0.000000000000000000 ) ) ;
#787 = ORIENTED_EDGE ( 'NONE', *, *, #394, .T. ) ;
#788 = CARTESIAN_POINT ( 'NONE',  ( 0.000000000000000000, 4.000000000000069278, -150.8700000000000330 ) ) ;
#789 = CYLINDRICAL_SURFACE ( 'NONE', #171, 1.700000000000007061 ) ;
#790 = ORIENTED_EDGE ( 'NONE', *, *, #858, .F. ) ;
#791 =( NAMED_UNIT ( * ) SI_UNIT ( $, .STERADIAN. ) SOLID_ANGLE_UNIT ( ) );
#792 = CIRCLE ( 'NONE', #310, 3.149999999999999911 ) ;
#793 = EDGE_CURVE ( 'NONE', #330, #245, #14, .T. ) ;
#794 = VECTOR ( 'NONE', #882, 1000.000000000000000 ) ;
#795 = CARTESIAN_POINT ( 'NONE',  ( -1.500000000000000000, 0.2999999999999999889, -0.2999999999999999889 ) ) ;
#796 = CIRCLE ( 'NONE', #383, 1.700000000000007061 ) ;
#797 = VERTEX_POINT ( 'NONE', #676 ) ;
#798 = DIRECTION ( 'NONE',  ( 0.000000000000000000, 0.000000000000000000, 1.000000000000000000 ) ) ;
#799 = EDGE_CURVE ( 'NONE', #137, #79, #193, .T. ) ;
#800 = DIRECTION ( 'NONE',  ( 1.000000000000000000, -0.000000000000000000, -0.000000000000000000 ) ) ;
#801 = ORIENTED_EDGE ( 'NONE', *, *, #394, .F. ) ;
#802 = CARTESIAN_POINT ( 'NONE',  ( -1.499999999999999556, 4.000000000000074607, -3.870000000000026308 ) ) ;
#803 = ORIENTED_EDGE ( 'NONE', *, *, #215, .F. ) ;
#804 = EDGE_CURVE ( 'NONE', #487, #115, #818, .T. ) ;
#805 = DIRECTION ( 'NONE',  ( -1.000000000000000000, 0.000000000000000000, 0.000000000000000000 ) ) ;
#806 = AXIS2_PLACEMENT_3D ( 'NONE', #61, #133, #555 ) ;
#807 = ORIENTED_EDGE ( 'NONE', *, *, #263, .F. ) ;
#808 = VECTOR ( 'NONE', #374, 1000.000000000000000 ) ;
#809 = AXIS2_PLACEMENT_3D ( 'NONE', #568, #453, #842 ) ;
#810 = PRODUCT_DEFINITION ( 'UNKNOWN', '', #527, #668 ) ;
#811 = CARTESIAN_POINT ( 'NONE',  ( -1.499999999999999556, 4.000000000000069278, -150.8700000000000330 ) ) ;
#812 = ORIENTED_EDGE ( 'NONE', *, *, #294, .T. ) ;
#813 = CARTESIAN_POINT ( 'NONE',  ( 1.734723475976807883E-15, 4.000000000000074607, -3.870000000000026308 ) ) ;
#814 = DIRECTION ( 'NONE',  ( 1.000000000000000000, -0.000000000000000000, -0.000000000000000000 ) ) ;
#815 = ORIENTED_EDGE ( 'NONE', *, *, #872, .T. ) ;
#816 = DIRECTION ( 'NONE',  ( 0.000000000000000000, -0.000000000000000000, 1.000000000000000000 ) ) ;
#817 = EDGE_CURVE ( 'NONE', #641, #797, #131, .T. ) ;
#818 = LINE ( 'NONE', #426, #267 ) ;
#819 = ORIENTED_EDGE ( 'NONE', *, *, #375, .F. ) ;
#820 = FACE_BOUND ( 'NONE', #201, .T. ) ;
#821 = CONICAL_SURFACE ( 'NONE', #566, 3.150000000000013678, 0.7853981633974477239 ) ;
#822 = STYLED_ITEM ( 'NONE', ( #867 ), #726 ) ;
#823 = DIRECTION ( 'NONE',  ( 1.000000000000000000, -0.000000000000000000, -0.000000000000000000 ) ) ;
#824 = FACE_OUTER_BOUND ( 'NONE', #718, .T. ) ;
#825 = VERTEX_POINT ( 'NONE', #754 ) ;
#826 = CARTESIAN_POINT ( 'NONE',  ( 0.000000000000000000, 4.000000000000069278, -152.5700000000000500 ) ) ;
#827 = PLANE ( 'NONE',  #767 ) ;
#828 = ORIENTED_EDGE ( 'NONE', *, *, #113, .T. ) ;
#829 = DIRECTION ( 'NONE',  ( 0.000000000000000000, 0.000000000000000000, 1.000000000000000000 ) ) ;
#830 = ORIENTED_EDGE ( 'NONE', *, *, #67, .T. ) ;
#831 = EDGE_CURVE ( 'NONE', #641, #422, #796, .T. ) ;
#832 = FACE_OUTER_BOUND ( 'NONE', #305, .T. ) ;
#833 = DIRECTION ( 'NONE',  ( -1.000000000000000000, 0.000000000000000000, -0.000000000000000000 ) ) ;
#834 = ORIENTED_EDGE ( 'NONE', *, *, #509, .T. ) ;
#835 = DIRECTION ( 'NONE',  ( 1.000000000000000000, -0.000000000000000000, -0.000000000000000000 ) ) ;
#836 = EDGE_LOOP ( 'NONE', ( #677, #450, #871, #46, #815, #830, #563, #787 ) ) ;
#837 = AXIS2_PLACEMENT_3D ( 'NONE', #344, #398, #816 ) ;
#838 = VECTOR ( 'NONE', #417, 1000.000000000000000 ) ;
#839 = AXIS2_PLACEMENT_3D ( 'NONE', #714, #506, #775 ) ;
#840 = EDGE_CURVE ( 'NONE', #274, #797, #500, .T. ) ;
#841 = CARTESIAN_POINT ( 'NONE',  ( 0.000000000000000000, 4.000000000000074607, -5.570000000000023377 ) ) ;
#842 = DIRECTION ( 'NONE',  ( 0.000000000000000000, 0.000000000000000000, -1.000000000000000000 ) ) ;
#843 = VERTEX_POINT ( 'NONE', #336 ) ;
#844 = DIRECTION ( 'NONE',  ( 1.000000000000000000, -0.000000000000000000, -0.000000000000000000 ) ) ;
#845 = EDGE_LOOP ( 'NONE', ( #742, #148, #287, #540 ) ) ;
#846 = CYLINDRICAL_SURFACE ( 'NONE', #395, 1.000000000000000000 ) ;
#847 = ORIENTED_EDGE ( 'NONE', *, *, #106, .F. ) ;
#848 = FILL_AREA_STYLE ('',( #637 ) ) ;
#849 = EDGE_CURVE ( 'NONE', #666, #728, #372, .T. ) ;
#850 = FACE_OUTER_BOUND ( 'NONE', #768, .T. ) ;
#851 = CARTESIAN_POINT ( 'NONE',  ( 1.734723475976807883E-15, 38.50000000000005684, -154.0200000000000387 ) ) ;
#852 = VECTOR ( 'NONE', #58, 1000.000000000000000 ) ;
#853 = DIRECTION ( 'NONE',  ( 1.000000000000000000, -0.000000000000000000, -0.000000000000000000 ) ) ;
#854 = ORIENTED_EDGE ( 'NONE', *, *, #678, .F. ) ;
#855 = FACE_OUTER_BOUND ( 'NONE', #20, .T. ) ;
#856 = DIRECTION ( 'NONE',  ( 0.000000000000000000, 0.000000000000000000, 1.000000000000000000 ) ) ;
#857 = ORIENTED_EDGE ( 'NONE', *, *, #469, .T. ) ;
#858 = EDGE_CURVE ( 'NONE', #684, #54, #204, .T. ) ;
#859 = CARTESIAN_POINT ( 'NONE',  ( 0.000000000000000000, 42.20000000000000284, -153.4400000000000261 ) ) ;
#860 = ORIENTED_EDGE ( 'NONE', *, *, #687, .T. ) ;
#861 = LINE ( 'NONE', #250, #38 ) ;
#862 = EDGE_CURVE ( 'NONE', #487, #245, #147, .T. ) ;
#863 = VECTOR ( 'NONE', #159, 1000.000000000000000 ) ;
#864 = VECTOR ( 'NONE', #449, 1000.000000000000000 ) ;
#865 = EDGE_LOOP ( 'NONE', ( #371, #692, #404, #34 ) ) ;
#866 = VECTOR ( 'NONE', #68, 1000.000000000000000 ) ;
#867 = PRESENTATION_STYLE_ASSIGNMENT (( #268 ) ) ;
#868 = ORIENTED_EDGE ( 'NONE', *, *, #872, .F. ) ;
#869 = UNCERTAINTY_MEASURE_WITH_UNIT (LENGTH_MEASURE( 1.000000000000000082E-05 ), #187, 'distance_accuracy_value', 'NONE');
#870 = CARTESIAN_POINT ( 'NONE',  ( 1.734723475976807883E-15, 4.000000000000069278, -150.8700000000000330 ) ) ;
#871 = ORIENTED_EDGE ( 'NONE', *, *, #215, .T. ) ;
#872 = EDGE_CURVE ( 'NONE', #355, #843, #340, .T. ) ;
#873 = CARTESIAN_POINT ( 'NONE',  ( -1.500000000000000000, 1.300000000000000044, -153.4400000000000261 ) ) ;
#874 = AXIS2_PLACEMENT_3D ( 'NONE', #538, #272, #206 ) ;
#875 = AXIS2_PLACEMENT_3D ( 'NONE', #719, #320, #541 ) ;
#876 = ORIENTED_EDGE ( 'NONE', *, *, #664, .T. ) ;
#877 = AXIS2_PLACEMENT_3D ( 'NONE', #290, #221, #491 ) ;
#878 = FACE_OUTER_BOUND ( 'NONE', #341, .T. ) ;
#879 = CYLINDRICAL_SURFACE ( 'NONE', #535, 1.000000000000000888 ) ;
#880 = DIRECTION ( 'NONE',  ( 1.000000000000000000, -0.000000000000000000, -0.000000000000000000 ) ) ;
#881 = ORIENTED_EDGE ( 'NONE', *, *, #883, .T. ) ;
#882 = DIRECTION ( 'NONE',  ( 0.7071067811865483499, 8.659560562354922997E-17, 0.7071067811865466846 ) ) ;
#883 = EDGE_CURVE ( 'NONE', #337, #673, #1, .T. ) ;
ENDSEC;
END-ISO-10303-21;
