ISO-10303-21;
HEADER;
FILE_DESCRIPTION (( 'STEP AP214' ),
    '1' );
FILE_NAME ('561-00010-00.step',
    '2026-02-27T00:19:40',
    ( '' ),
    ( '' ),
    'SwSTEP 2.0',
    'SolidWorks 2023',
    '' );
FILE_SCHEMA (( 'AUTOMOTIVE_DESIGN' ));
ENDSEC;

DATA;
#1 = SURFACE_STYLE_USAGE ( .BOTH. , #698 ) ;
#2 = LINE ( 'NONE', #583, #159 ) ;
#3 = DIRECTION ( 'NONE',  ( 0.000000000000000000, -0.000000000000000000, 1.000000000000000000 ) ) ;
#4 = STYLED_ITEM ( 'NONE', ( #890 ), #124 ) ;
#5 = MECHANICAL_DESIGN_GEOMETRIC_PRESENTATION_REPRESENTATION (  '', ( #354 ), #550 ) ;
#6 = DIRECTION ( 'NONE',  ( 1.000000000000000000, 3.543695533435071927E-15, -0.000000000000000000 ) ) ;
#7 = ORIENTED_EDGE ( 'NONE', *, *, #599, .F. ) ;
#8 = CARTESIAN_POINT ( 'NONE',  ( 101.0000000000001279, -23.49714473527931702, 0.05080000000000000487 ) ) ;
#9 = DIRECTION ( 'NONE',  ( -3.816391647148977974E-15, 1.000000000000000000, 0.000000000000000000 ) ) ;
#10 = CARTESIAN_POINT ( 'NONE',  ( 0.000000000000000000, 0.000000000000000000, -258.1868611803085400 ) ) ;
#11 = VERTEX_POINT ( 'NONE', #421 ) ;
#12 = EDGE_CURVE ( 'NONE', #776, #594, #289, .T. ) ;
#13 = SURFACE_SIDE_STYLE ('',( #856 ) ) ;
#14 = SURFACE_STYLE_FILL_AREA ( #374 ) ;
#15 = EDGE_LOOP ( 'NONE', ( #256, #603, #617, #378 ) ) ;
#16 = CARTESIAN_POINT ( 'NONE',  ( 101.0000000000001279, -23.49714473527931702, 0.000000000000000000 ) ) ;
#17 = LINE ( 'NONE', #529, #280 ) ;
#18 = MECHANICAL_DESIGN_GEOMETRIC_PRESENTATION_REPRESENTATION (  '', ( #310 ), #200 ) ;
#19 = AXIS2_PLACEMENT_3D ( 'NONE', #215, #711, #431 ) ;
#20 = ORIENTED_EDGE ( 'NONE', *, *, #91, .F. ) ;
#21 = DIRECTION ( 'NONE',  ( 1.000000000000000000, 3.816391647148977974E-15, 0.000000000000000000 ) ) ;
#22 = CARTESIAN_POINT ( 'NONE',  ( 0.000000000000000000, 9.999999999999994671, 0.05080000000000000487 ) ) ;
#23 = ADVANCED_FACE ( 'NONE', ( #210 ), #192, .F. ) ;
#24 = UNCERTAINTY_MEASURE_WITH_UNIT (LENGTH_MEASURE( 1.000000000000000082E-05 ), #724, 'distance_accuracy_value', 'NONE');
#25 = VERTEX_POINT ( 'NONE', #50 ) ;
#26 = FILL_AREA_STYLE_COLOUR ( '', #533 ) ;
#27 = VERTEX_POINT ( 'NONE', #197 ) ;
#28 = CARTESIAN_POINT ( 'NONE',  ( 0.000000000000000000, 9.999999999999994671, 0.000000000000000000 ) ) ;
#29 = DIRECTION ( 'NONE',  ( 0.000000000000000000, 1.000000000000000000, -0.000000000000000000 ) ) ;
#30 = VECTOR ( 'NONE', #916, 1000.000000000000000 ) ;
#31 = MECHANICAL_DESIGN_GEOMETRIC_PRESENTATION_REPRESENTATION (  '', ( #465 ), #498 ) ;
#32 = ORIENTED_EDGE ( 'NONE', *, *, #262, .F. ) ;
#33 = VECTOR ( 'NONE', #238, 1000.000000000000000 ) ;
#34 = CARTESIAN_POINT ( 'NONE',  ( 111.0000000000001279, -23.49714473527927794, 0.05080000000000000487 ) ) ;
#35 = EDGE_CURVE ( 'NONE', #688, #459, #342, .T. ) ;
#36 = LINE ( 'NONE', #539, #709 ) ;
#37 = ORIENTED_EDGE ( 'NONE', *, *, #706, .T. ) ;
#38 = FACE_OUTER_BOUND ( 'NONE', #463, .T. ) ;
#39 = DIRECTION ( 'NONE',  ( -0.000000000000000000, -0.000000000000000000, -1.000000000000000000 ) ) ;
#40 =( NAMED_UNIT ( * ) SI_UNIT ( $, .STERADIAN. ) SOLID_ANGLE_UNIT ( ) );
#41 = EDGE_LOOP ( 'NONE', ( #449, #316, #753, #588 ) ) ;
#42 = VERTEX_POINT ( 'NONE', #842 ) ;
#43 = STYLED_ITEM ( 'NONE', ( #259 ), #138 ) ;
#44 =( GEOMETRIC_REPRESENTATION_CONTEXT ( 3 ) GLOBAL_UNCERTAINTY_ASSIGNED_CONTEXT ( ( #641 ) ) GLOBAL_UNIT_ASSIGNED_CONTEXT ( ( #605, #878, #258 ) ) REPRESENTATION_CONTEXT ( 'NONE', 'WORKASPACE' ) );
#45 = VECTOR ( 'NONE', #621, 1000.000000000000000 ) ;
#46 = LINE ( 'NONE', #637, #592 ) ;
#47 = STYLED_ITEM ( 'NONE', ( #795 ), #775 ) ;
#48 = DIRECTION ( 'NONE',  ( 0.000000000000000000, 0.000000000000000000, 1.000000000000000000 ) ) ;
#49 = EDGE_CURVE ( 'NONE', #776, #662, #417, .T. ) ;
#50 = CARTESIAN_POINT ( 'NONE',  ( 0.000000000000000000, 0.000000000000000000, -33.94920000000001181 ) ) ;
#51 = SURFACE_SIDE_STYLE ('',( #699 ) ) ;
#52 = DIRECTION ( 'NONE',  ( 0.000000000000000000, 0.000000000000000000, -1.000000000000000000 ) ) ;
#53 = VERTEX_POINT ( 'NONE', #912 ) ;
#54 = FILL_AREA_STYLE ('',( #272 ) ) ;
#55 = DIRECTION ( 'NONE',  ( 1.000000000000000000, 0.000000000000000000, 0.000000000000000000 ) ) ;
#56 = LINE ( 'NONE', #364, #754 ) ;
#57 = UNCERTAINTY_MEASURE_WITH_UNIT (LENGTH_MEASURE( 1.000000000000000082E-05 ), #466, 'distance_accuracy_value', 'NONE');
#58 = SURFACE_SIDE_STYLE ('',( #66 ) ) ;
#59 = COLOUR_RGB ( '',0.9882352941176471006, 0.7372549019607843590, 0.5176470588235293491 ) ;
#60 = VERTEX_POINT ( 'NONE', #279 ) ;
#61 = COLOUR_RGB ( '',0.9882352941176471006, 0.7372549019607843590, 0.5176470588235293491 ) ;
#62 = EDGE_CURVE ( 'NONE', #846, #688, #205, .T. ) ;
#63 = CARTESIAN_POINT ( 'NONE',  ( 101.0000000000000426, 3.579132488769424709E-13, -33.94920000000001181 ) ) ;
#64 = AXIS2_PLACEMENT_3D ( 'NONE', #327, #469, #531 ) ;
#65 = MECHANICAL_DESIGN_GEOMETRIC_PRESENTATION_REPRESENTATION (  '', ( #696 ), #297 ) ;
#66 = SURFACE_STYLE_FILL_AREA ( #704 ) ;
#67 = SURFACE_STYLE_USAGE ( .BOTH. , #206 ) ;
#68 = SURFACE_STYLE_USAGE ( .BOTH. , #429 ) ;
#69 = CARTESIAN_POINT ( 'NONE',  ( 111.0000000000001279, -23.49714473527927794, 0.000000000000000000 ) ) ;
#70 = PRODUCT_CONTEXT ( 'NONE', #518, 'mechanical' ) ;
#71 = CARTESIAN_POINT ( 'NONE',  ( 111.0000000000001279, -23.49714473527927794, 0.05080000000000000487 ) ) ;
#72 = FILL_AREA_STYLE_COLOUR ( '', #756 ) ;
#73 = CARTESIAN_POINT ( 'NONE',  ( 101.0000000000000426, 0.000000000000000000, 0.000000000000000000 ) ) ;
#74 = VERTEX_POINT ( 'NONE', #568 ) ;
#75 = PLANE ( 'NONE',  #499 ) ;
#76 = VECTOR ( 'NONE', #424, 1000.000000000000000 ) ;
#77 = CARTESIAN_POINT ( 'NONE',  ( 0.000000000000000000, 9.999999999999994671, -258.1868611803085400 ) ) ;
#78 = VECTOR ( 'NONE', #236, 1000.000000000000000 ) ;
#79 = AXIS2_PLACEMENT_3D ( 'NONE', #801, #596, #3 ) ;
#80 = COLOUR_RGB ( '',0.9882352941176471006, 0.7372549019607843590, 0.5176470588235293491 ) ;
#81 = EDGE_CURVE ( 'NONE', #122, #60, #476, .T. ) ;
#82 = FACE_OUTER_BOUND ( 'NONE', #452, .T. ) ;
#83 = EDGE_LOOP ( 'NONE', ( #863, #265, #86, #105, #731, #322, #565, #891 ) ) ;
#84 = LINE ( 'NONE', #373, #320 ) ;
#85 = SURFACE_STYLE_USAGE ( .BOTH. , #504 ) ;
#86 = ORIENTED_EDGE ( 'NONE', *, *, #81, .F. ) ;
#87 = FILL_AREA_STYLE_COLOUR ( '', #61 ) ;
#88 = UNCERTAINTY_MEASURE_WITH_UNIT (LENGTH_MEASURE( 1.000000000000000082E-05 ), #832, 'distance_accuracy_value', 'NONE');
#89 = ORIENTED_EDGE ( 'NONE', *, *, #851, .F. ) ;
#90 = DIRECTION ( 'NONE',  ( 3.543695533435072321E-15, -1.000000000000000000, -0.000000000000000000 ) ) ;
#91 = EDGE_CURVE ( 'NONE', #42, #788, #461, .T. ) ;
#92 = DIRECTION ( 'NONE',  ( 0.000000000000000000, -0.000000000000000000, -1.000000000000000000 ) ) ;
#93 = VECTOR ( 'NONE', #433, 1000.000000000000000 ) ;
#94 = MECHANICAL_DESIGN_GEOMETRIC_PRESENTATION_REPRESENTATION (  '', ( #438 ), #897 ) ;
#95 =( GEOMETRIC_REPRESENTATION_CONTEXT ( 3 ) GLOBAL_UNCERTAINTY_ASSIGNED_CONTEXT ( ( #862 ) ) GLOBAL_UNIT_ASSIGNED_CONTEXT ( ( #840, #858, #209 ) ) REPRESENTATION_CONTEXT ( 'NONE', 'WORKASPACE' ) );
#96 = ORIENTED_EDGE ( 'NONE', *, *, #706, .F. ) ;
#97 = PLANE ( 'NONE',  #147 ) ;
#98 = CARTESIAN_POINT ( 'NONE',  ( 0.000000000000000000, 0.000000000000000000, -0.000000000000000000 ) ) ;
#99 = UNCERTAINTY_MEASURE_WITH_UNIT (LENGTH_MEASURE( 1.000000000000000082E-05 ), #831, 'distance_accuracy_value', 'NONE');
#100 = EDGE_LOOP ( 'NONE', ( #656, #684, #765, #142 ) ) ;
#101 = DIRECTION ( 'NONE',  ( -0.000000000000000000, -0.000000000000000000, -1.000000000000000000 ) ) ;
#102 = DIRECTION ( 'NONE',  ( -3.543695533435071927E-15, 1.000000000000000000, 0.000000000000000000 ) ) ;
#103 = SURFACE_STYLE_FILL_AREA ( #682 ) ;
#104 = SURFACE_SIDE_STYLE ('',( #447 ) ) ;
#105 = ORIENTED_EDGE ( 'NONE', *, *, #361, .F. ) ;
#106 = FILL_AREA_STYLE ('',( #743 ) ) ;
#107 = SURFACE_STYLE_USAGE ( .BOTH. , #750 ) ;
#108 = LINE ( 'NONE', #394, #607 ) ;
#109 = SURFACE_STYLE_FILL_AREA ( #902 ) ;
#110 = MECHANICAL_DESIGN_GEOMETRIC_PRESENTATION_REPRESENTATION (  '', ( #158 ), #483 ) ;
#111 =( GEOMETRIC_REPRESENTATION_CONTEXT ( 3 ) GLOBAL_UNCERTAINTY_ASSIGNED_CONTEXT ( ( #389 ) ) GLOBAL_UNIT_ASSIGNED_CONTEXT ( ( #601, #435, #363 ) ) REPRESENTATION_CONTEXT ( 'NONE', 'WORKASPACE' ) );
#112 = EDGE_CURVE ( 'NONE', #719, #846, #108, .T. ) ;
#113 = ORIENTED_EDGE ( 'NONE', *, *, #512, .F. ) ;
#114 = VECTOR ( 'NONE', #649, 1000.000000000000000 ) ;
#115 = CARTESIAN_POINT ( 'NONE',  ( 0.000000000000000000, 9.999999999999994671, 0.05080000000000000487 ) ) ;
#116 = CARTESIAN_POINT ( 'NONE',  ( 0.000000000000000000, 131.0000000000000000, 0.05080000000000000487 ) ) ;
#117 = FILL_AREA_STYLE_COLOUR ( '', #693 ) ;
#118 = CARTESIAN_POINT ( 'NONE',  ( 101.0000000000001279, -23.49714473527931702, -258.1868611803085400 ) ) ;
#119 = ORIENTED_EDGE ( 'NONE', *, *, #875, .T. ) ;
#120 =( NAMED_UNIT ( * ) PLANE_ANGLE_UNIT ( ) SI_UNIT ( $, .RADIAN. ) );
#121 = FILL_AREA_STYLE_COLOUR ( '', #681 ) ;
#122 = VERTEX_POINT ( 'NONE', #187 ) ;
#123 = CARTESIAN_POINT ( 'NONE',  ( 101.0000000000001279, -23.49714473527931702, 0.05080000000000000487 ) ) ;
#124 = ADVANCED_FACE ( 'NONE', ( #471 ), #254, .F. ) ;
#125 = DIRECTION ( 'NONE',  ( 0.000000000000000000, 0.000000000000000000, 1.000000000000000000 ) ) ;
#126 = DIRECTION ( 'NONE',  ( 0.000000000000000000, 0.000000000000000000, -1.000000000000000000 ) ) ;
#127 = COLOUR_RGB ( '',0.5019607843137254832, 1.000000000000000000, 1.000000000000000000 ) ;
#128 = DIRECTION ( 'NONE',  ( -1.000000000000000000, -0.000000000000000000, -0.000000000000000000 ) ) ;
#129 = PRESENTATION_STYLE_ASSIGNMENT (( #645 ) ) ;
#130 = PRESENTATION_LAYER_ASSIGNMENT (  '', '', ( #218 ) ) ;
#131 = CARTESIAN_POINT ( 'NONE',  ( 0.000000000000000000, 0.000000000000000000, -33.94920000000000471 ) ) ;
#132 = LINE ( 'NONE', #700, #841 ) ;
#133 =( NAMED_UNIT ( * ) SI_UNIT ( $, .STERADIAN. ) SOLID_ANGLE_UNIT ( ) );
#134 =( NAMED_UNIT ( * ) PLANE_ANGLE_UNIT ( ) SI_UNIT ( $, .RADIAN. ) );
#135 = SURFACE_STYLE_USAGE ( .BOTH. , #502 ) ;
#136 = CARTESIAN_POINT ( 'NONE',  ( 111.0000000000000000, 9.999999999999994671, 0.05080000000000000487 ) ) ;
#137 = ORIENTED_EDGE ( 'NONE', *, *, #810, .T. ) ;
#138 = ADVANCED_FACE ( 'NONE', ( #905 ), #901, .F. ) ;
#139 = PLANE ( 'NONE',  #535 ) ;
#140 = VERTEX_POINT ( 'NONE', #616 ) ;
#141 = FACE_OUTER_BOUND ( 'NONE', #620, .T. ) ;
#142 = ORIENTED_EDGE ( 'NONE', *, *, #875, .F. ) ;
#143 = LINE ( 'NONE', #413, #396 ) ;
#144 = PRESENTATION_LAYER_ASSIGNMENT (  '', '', ( #198 ) ) ;
#145 = PRESENTATION_LAYER_ASSIGNMENT (  '', '', ( #158 ) ) ;
#146 = CARTESIAN_POINT ( 'NONE',  ( 9.999999999999994671, 0.000000000000000000, 0.000000000000000000 ) ) ;
#147 = AXIS2_PLACEMENT_3D ( 'NONE', #343, #556, #355 ) ;
#148 = STYLED_ITEM ( 'NONE', ( #211 ), #762 ) ;
#149 = LINE ( 'NONE', #716, #805 ) ;
#150 = FILL_AREA_STYLE_COLOUR ( '', #580 ) ;
#151 = FILL_AREA_STYLE ('',( #486 ) ) ;
#152 = DIRECTION ( 'NONE',  ( -0.000000000000000000, -0.000000000000000000, -1.000000000000000000 ) ) ;
#153 = EDGE_LOOP ( 'NONE', ( #446, #528, #742, #701, #584, #606, #397, #156 ) ) ;
#154 = FACE_OUTER_BOUND ( 'NONE', #403, .T. ) ;
#155 = EDGE_CURVE ( 'NONE', #228, #719, #36, .T. ) ;
#156 = ORIENTED_EDGE ( 'NONE', *, *, #262, .T. ) ;
#157 = LINE ( 'NONE', #657, #668 ) ;
#158 = STYLED_ITEM ( 'NONE', ( #239 ), #284 ) ;
#159 = VECTOR ( 'NONE', #799, 1000.000000000000000 ) ;
#160 =( NAMED_UNIT ( * ) PLANE_ANGLE_UNIT ( ) SI_UNIT ( $, .RADIAN. ) );
#161 = ORIENTED_EDGE ( 'NONE', *, *, #653, .T. ) ;
#162 = LINE ( 'NONE', #864, #807 ) ;
#163 = CARTESIAN_POINT ( 'NONE',  ( 9.999999999999994671, 9.999999999999994671, 0.000000000000000000 ) ) ;
#164 = ADVANCED_FACE ( 'NONE', ( #324 ), #758, .T. ) ;
#165 = ORIENTED_EDGE ( 'NONE', *, *, #329, .T. ) ;
#166 = ORIENTED_EDGE ( 'NONE', *, *, #348, .T. ) ;
#167 = AXIS2_PLACEMENT_3D ( 'NONE', #340, #191, #629 ) ;
#168 = COLOUR_RGB ( '',0.5019607843137254832, 1.000000000000000000, 1.000000000000000000 ) ;
#169 = PRESENTATION_LAYER_ASSIGNMENT (  '', '', ( #578 ) ) ;
#170 = VECTOR ( 'NONE', #307, 1000.000000000000000 ) ;
#171 = ORIENTED_EDGE ( 'NONE', *, *, #62, .T. ) ;
#172 = LINE ( 'NONE', #34, #369 ) ;
#173 = FILL_AREA_STYLE_COLOUR ( '', #168 ) ;
#174 =( NAMED_UNIT ( * ) PLANE_ANGLE_UNIT ( ) SI_UNIT ( $, .RADIAN. ) );
#175 = EDGE_LOOP ( 'NONE', ( #161, #569, #516, #806 ) ) ;
#176 =( NAMED_UNIT ( * ) SI_UNIT ( $, .STERADIAN. ) SOLID_ANGLE_UNIT ( ) );
#177 = DIRECTION ( 'NONE',  ( -1.000000000000000000, -0.000000000000000000, -0.000000000000000000 ) ) ;
#178 = EDGE_CURVE ( 'NONE', #712, #828, #298, .T. ) ;
#179 = ORIENTED_EDGE ( 'NONE', *, *, #112, .F. ) ;
#180 = LINE ( 'NONE', #537, #311 ) ;
#181 = SURFACE_STYLE_FILL_AREA ( #893 ) ;
#182 =( GEOMETRIC_REPRESENTATION_CONTEXT ( 3 ) GLOBAL_UNCERTAINTY_ASSIGNED_CONTEXT ( ( #57 ) ) GLOBAL_UNIT_ASSIGNED_CONTEXT ( ( #466, #174, #612 ) ) REPRESENTATION_CONTEXT ( 'NONE', 'WORKASPACE' ) );
#183 = SURFACE_STYLE_USAGE ( .BOTH. , #540 ) ;
#184 = COLOUR_RGB ( '',0.9882352941176471006, 0.7372549019607843590, 0.5176470588235293491 ) ;
#185 = MECHANICAL_DESIGN_GEOMETRIC_PRESENTATION_REPRESENTATION (  '', ( #578 ), #654 ) ;
#186 = VERTEX_POINT ( 'NONE', #571 ) ;
#187 = CARTESIAN_POINT ( 'NONE',  ( 0.000000000000000000, 0.000000000000000000, 0.000000000000000000 ) ) ;
#188 = ORIENTED_EDGE ( 'NONE', *, *, #630, .T. ) ;
#189 = EDGE_CURVE ( 'NONE', #812, #271, #56, .T. ) ;
#190 = SURFACE_STYLE_USAGE ( .BOTH. , #328 ) ;
#191 = DIRECTION ( 'NONE',  ( -3.816391647148978763E-15, 1.000000000000000000, 0.000000000000000000 ) ) ;
#192 = PLANE ( 'NONE',  #334 ) ;
#193 =( NAMED_UNIT ( * ) SI_UNIT ( $, .STERADIAN. ) SOLID_ANGLE_UNIT ( ) );
#194 = FILL_AREA_STYLE ('',( #833 ) ) ;
#195 =( LENGTH_UNIT ( ) NAMED_UNIT ( * ) SI_UNIT ( .MILLI., .METRE. ) );
#196 = DIRECTION ( 'NONE',  ( 0.000000000000000000, 0.000000000000000000, 1.000000000000000000 ) ) ;
#197 = CARTESIAN_POINT ( 'NONE',  ( 101.0000000000001279, -23.49714473527931702, 0.000000000000000000 ) ) ;
#198 = STYLED_ITEM ( 'NONE', ( #772 ), #23 ) ;
#199 = DIRECTION ( 'NONE',  ( 0.000000000000000000, 0.000000000000000000, -1.000000000000000000 ) ) ;
#200 =( GEOMETRIC_REPRESENTATION_CONTEXT ( 3 ) GLOBAL_UNCERTAINTY_ASSIGNED_CONTEXT ( ( #491 ) ) GLOBAL_UNIT_ASSIGNED_CONTEXT ( ( #213, #418, #848 ) ) REPRESENTATION_CONTEXT ( 'NONE', 'WORKASPACE' ) );
#201 = SURFACE_STYLE_FILL_AREA ( #194 ) ;
#202 = COLOUR_RGB ( '',0.9882352941176471006, 0.7372549019607843590, 0.5176470588235293491 ) ;
#203 = LINE ( 'NONE', #787, #93 ) ;
#204 = UNCERTAINTY_MEASURE_WITH_UNIT (LENGTH_MEASURE( 1.000000000000000082E-05 ), #729, 'distance_accuracy_value', 'NONE');
#205 = LINE ( 'NONE', #564, #309 ) ;
#206 = SURFACE_SIDE_STYLE ('',( #391 ) ) ;
#207 = LINE ( 'NONE', #910, #652 ) ;
#208 =( NAMED_UNIT ( * ) SI_UNIT ( $, .STERADIAN. ) SOLID_ANGLE_UNIT ( ) );
#209 =( NAMED_UNIT ( * ) SI_UNIT ( $, .STERADIAN. ) SOLID_ANGLE_UNIT ( ) );
#210 = FACE_OUTER_BOUND ( 'NONE', #876, .T. ) ;
#211 = PRESENTATION_STYLE_ASSIGNMENT (( #1 ) ) ;
#212 = ORIENTED_EDGE ( 'NONE', *, *, #646, .T. ) ;
#213 =( LENGTH_UNIT ( ) NAMED_UNIT ( * ) SI_UNIT ( .MILLI., .METRE. ) );
#214 = DIRECTION ( 'NONE',  ( 1.000000000000000000, 0.000000000000000000, 0.000000000000000000 ) ) ;
#215 = CARTESIAN_POINT ( 'NONE',  ( 9.999999999999994671, 0.000000000000000000, -258.1868611803085400 ) ) ;
#216 = VECTOR ( 'NONE', #125, 1000.000000000000000 ) ;
#217 = STYLED_ITEM ( 'NONE', ( #825 ), #399 ) ;
#218 = STYLED_ITEM ( 'NONE', ( #325 ), #889 ) ;
#219 = FILL_AREA_STYLE ('',( #703 ) ) ;
#220 = DIRECTION ( 'NONE',  ( 1.000000000000000000, 0.000000000000000000, 0.000000000000000000 ) ) ;
#221 =( LENGTH_UNIT ( ) NAMED_UNIT ( * ) SI_UNIT ( .MILLI., .METRE. ) );
#222 = ADVANCED_FACE ( 'NONE', ( #560 ), #490, .F. ) ;
#223 = DIRECTION ( 'NONE',  ( -0.000000000000000000, 1.000000000000000000, 0.000000000000000000 ) ) ;
#224 = ORIENTED_EDGE ( 'NONE', *, *, #653, .F. ) ;
#225 = LINE ( 'NONE', #8, #723 ) ;
#226 = LINE ( 'NONE', #98, #737 ) ;
#227 =( NAMED_UNIT ( * ) SI_UNIT ( $, .STERADIAN. ) SOLID_ANGLE_UNIT ( ) );
#228 = VERTEX_POINT ( 'NONE', #136 ) ;
#229 = COLOUR_RGB ( '',0.5019607843137254832, 1.000000000000000000, 1.000000000000000000 ) ;
#230 = LINE ( 'NONE', #873, #337 ) ;
#231 = COLOUR_RGB ( '',0.5019607843137254832, 1.000000000000000000, 1.000000000000000000 ) ;
#232 =( GEOMETRIC_REPRESENTATION_CONTEXT ( 3 ) GLOBAL_UNCERTAINTY_ASSIGNED_CONTEXT ( ( #817 ) ) GLOBAL_UNIT_ASSIGNED_CONTEXT ( ( #551, #250, #40 ) ) REPRESENTATION_CONTEXT ( 'NONE', 'WORKASPACE' ) );
#233 = EDGE_CURVE ( 'NONE', #667, #271, #203, .T. ) ;
#234 = SURFACE_STYLE_FILL_AREA ( #715 ) ;
#235 = ORIENTED_EDGE ( 'NONE', *, *, #785, .T. ) ;
#236 = DIRECTION ( 'NONE',  ( 0.000000000000000000, 0.000000000000000000, 1.000000000000000000 ) ) ;
#237 = EDGE_LOOP ( 'NONE', ( #614, #37, #246, #326 ) ) ;
#238 = DIRECTION ( 'NONE',  ( 1.000000000000000000, 3.816391647148977974E-15, 0.000000000000000000 ) ) ;
#239 = PRESENTATION_STYLE_ASSIGNMENT (( #671 ) ) ;
#240 = UNCERTAINTY_MEASURE_WITH_UNIT (LENGTH_MEASURE( 1.000000000000000082E-05 ), #740, 'distance_accuracy_value', 'NONE');
#241 = ORIENTED_EDGE ( 'NONE', *, *, #315, .T. ) ;
#242 =( NAMED_UNIT ( * ) PLANE_ANGLE_UNIT ( ) SI_UNIT ( $, .RADIAN. ) );
#243 = COLOUR_RGB ( '',0.5019607843137254832, 1.000000000000000000, 1.000000000000000000 ) ;
#244 = VECTOR ( 'NONE', #728, 1000.000000000000000 ) ;
#245 =( GEOMETRIC_REPRESENTATION_CONTEXT ( 3 ) GLOBAL_UNCERTAINTY_ASSIGNED_CONTEXT ( ( #691 ) ) GLOBAL_UNIT_ASSIGNED_CONTEXT ( ( #494, #134, #227 ) ) REPRESENTATION_CONTEXT ( 'NONE', 'WORKASPACE' ) );
#246 = ORIENTED_EDGE ( 'NONE', *, *, #567, .T. ) ;
#247 = PRESENTATION_STYLE_ASSIGNMENT (( #680 ) ) ;
#248 = EDGE_CURVE ( 'NONE', #27, #788, #779, .T. ) ;
#249 = SURFACE_SIDE_STYLE ('',( #181 ) ) ;
#250 =( NAMED_UNIT ( * ) PLANE_ANGLE_UNIT ( ) SI_UNIT ( $, .RADIAN. ) );
#251 = ORIENTED_EDGE ( 'NONE', *, *, #189, .T. ) ;
#252 = SURFACE_STYLE_USAGE ( .BOTH. , #755 ) ;
#253 = PLANE ( 'NONE',  #640 ) ;
#254 = PLANE ( 'NONE',  #513 ) ;
#255 = SURFACE_STYLE_USAGE ( .BOTH. , #554 ) ;
#256 = ORIENTED_EDGE ( 'NONE', *, *, #35, .T. ) ;
#257 =( NAMED_UNIT ( * ) PLANE_ANGLE_UNIT ( ) SI_UNIT ( $, .RADIAN. ) );
#258 =( NAMED_UNIT ( * ) SI_UNIT ( $, .STERADIAN. ) SOLID_ANGLE_UNIT ( ) );
#259 = PRESENTATION_STYLE_ASSIGNMENT (( #687 ) ) ;
#260 = CLOSED_SHELL ( 'NONE', ( #909, #284, #690, #138, #775, #124, #821, #23, #718, #164 ) ) ;
#261 = CARTESIAN_POINT ( 'NONE',  ( 9.999999999999994671, 9.999999999999994671, 0.000000000000000000 ) ) ;
#262 = EDGE_CURVE ( 'NONE', #887, #667, #149, .T. ) ;
#263 = COLOUR_RGB ( '',0.5019607843137254832, 1.000000000000000000, 1.000000000000000000 ) ;
#264 = PRODUCT_DEFINITION_CONTEXT ( 'detailed design', #813, 'design' ) ;
#265 = ORIENTED_EDGE ( 'NONE', *, *, #785, .F. ) ;
#266 = COLOUR_RGB ( '',0.5019607843137254832, 1.000000000000000000, 1.000000000000000000 ) ;
#267 = FACE_OUTER_BOUND ( 'NONE', #83, .T. ) ;
#268 = SURFACE_SIDE_STYLE ('',( #103 ) ) ;
#269 = CARTESIAN_POINT ( 'NONE',  ( 101.0000000000001279, -23.49714473527931702, 0.05080000000000000487 ) ) ;
#270 = EDGE_CURVE ( 'NONE', #228, #828, #496, .T. ) ;
#271 = VERTEX_POINT ( 'NONE', #73 ) ;
#272 = FILL_AREA_STYLE_COLOUR ( '', #263 ) ;
#273 = CARTESIAN_POINT ( 'NONE',  ( 0.000000000000000000, 131.0000000000000000, 0.000000000000000000 ) ) ;
#274 = FILL_AREA_STYLE_COLOUR ( '', #59 ) ;
#275 = LINE ( 'NONE', #269, #457 ) ;
#276 = CARTESIAN_POINT ( 'NONE',  ( 0.000000000000000000, 0.000000000000000000, -33.94920000000001181 ) ) ;
#277 = DIRECTION ( 'NONE',  ( 0.000000000000000000, -0.000000000000000000, -1.000000000000000000 ) ) ;
#278 = MECHANICAL_DESIGN_GEOMETRIC_PRESENTATION_REPRESENTATION (  '', ( #4 ), #880 ) ;
#279 = CARTESIAN_POINT ( 'NONE',  ( 0.000000000000000000, 131.0000000000000000, 0.000000000000000000 ) ) ;
#280 = VECTOR ( 'NONE', #223, 1000.000000000000000 ) ;
#281 = DIRECTION ( 'NONE',  ( -3.728678705525161973E-15, 1.000000000000000000, 0.000000000000000000 ) ) ;
#282 = STYLED_ITEM ( 'NONE', ( #544 ), #909 ) ;
#283 = SURFACE_STYLE_FILL_AREA ( #151 ) ;
#284 = ADVANCED_FACE ( 'NONE', ( #419 ), #436, .F. ) ;
#285 = SURFACE_SIDE_STYLE ('',( #854 ) ) ;
#286 = UNCERTAINTY_MEASURE_WITH_UNIT (LENGTH_MEASURE( 1.000000000000000082E-05 ), #900, 'distance_accuracy_value', 'NONE');
#287 = DIRECTION ( 'NONE',  ( 0.000000000000000000, 1.000000000000000000, 0.000000000000000000 ) ) ;
#288 = PRESENTATION_STYLE_ASSIGNMENT (( #344 ) ) ;
#289 = LINE ( 'NONE', #492, #30 ) ;
#290 = LINE ( 'NONE', #769, #392 ) ;
#291 = DIRECTION ( 'NONE',  ( 0.000000000000000000, 0.000000000000000000, -1.000000000000000000 ) ) ;
#292 = ADVANCED_FACE ( 'NONE', ( #736 ), #658, .F. ) ;
#293 = LINE ( 'NONE', #163, #170 ) ;
#294 = COLOUR_RGB ( '',0.9882352941176471006, 0.7372549019607843590, 0.5176470588235293491 ) ;
#295 =( LENGTH_UNIT ( ) NAMED_UNIT ( * ) SI_UNIT ( .MILLI., .METRE. ) );
#296 = PRESENTATION_LAYER_ASSIGNMENT (  '', '', ( #784 ) ) ;
#297 =( GEOMETRIC_REPRESENTATION_CONTEXT ( 3 ) GLOBAL_UNCERTAINTY_ASSIGNED_CONTEXT ( ( #24 ) ) GLOBAL_UNIT_ASSIGNED_CONTEXT ( ( #724, #375, #591 ) ) REPRESENTATION_CONTEXT ( 'NONE', 'WORKASPACE' ) );
#298 = LINE ( 'NONE', #69, #665 ) ;
#299 = CARTESIAN_POINT ( 'NONE',  ( 111.0000000000001279, -23.49714473527927794, -33.94920000000001181 ) ) ;
#300 = VERTEX_POINT ( 'NONE', #381 ) ;
#301 = DIRECTION ( 'NONE',  ( 3.728678705525161973E-15, -1.000000000000000000, 0.000000000000000000 ) ) ;
#302 = CARTESIAN_POINT ( 'NONE',  ( 9.999999999999994671, 131.0000000000000000, -258.1868611803085400 ) ) ;
#303 = FILL_AREA_STYLE ('',( #150 ) ) ;
#304 = EDGE_LOOP ( 'NONE', ( #137, #179, #869, #338 ) ) ;
#305 = EDGE_CURVE ( 'NONE', #860, #887, #522, .T. ) ;
#306 = PRESENTATION_STYLE_ASSIGNMENT (( #874 ) ) ;
#307 = DIRECTION ( 'NONE',  ( -1.000000000000000000, -0.000000000000000000, -0.000000000000000000 ) ) ;
#308 = ORIENTED_EDGE ( 'NONE', *, *, #81, .T. ) ;
#309 = VECTOR ( 'NONE', #287, 1000.000000000000000 ) ;
#310 = STYLED_ITEM ( 'NONE', ( #786 ), #515 ) ;
#311 = VECTOR ( 'NONE', #323, 1000.000000000000000 ) ;
#312 = VERTEX_POINT ( 'NONE', #857 ) ;
#313 = DIRECTION ( 'NONE',  ( 0.000000000000000000, 0.000000000000000000, 1.000000000000000000 ) ) ;
#314 = ORIENTED_EDGE ( 'NONE', *, *, #462, .T. ) ;
#315 = EDGE_CURVE ( 'NONE', #25, #822, #17, .T. ) ;
#316 = ORIENTED_EDGE ( 'NONE', *, *, #646, .F. ) ;
#317 = VECTOR ( 'NONE', #635, 1000.000000000000000 ) ;
#318 = VECTOR ( 'NONE', #349, 1000.000000000000000 ) ;
#319 = VECTOR ( 'NONE', #543, 1000.000000000000000 ) ;
#320 = VECTOR ( 'NONE', #660, 1000.000000000000000 ) ;
#321 = MECHANICAL_DESIGN_GEOMETRIC_PRESENTATION_REPRESENTATION (  '', ( #218 ), #232 ) ;
#322 = ORIENTED_EDGE ( 'NONE', *, *, #630, .F. ) ;
#323 = DIRECTION ( 'NONE',  ( -0.000000000000000000, -0.000000000000000000, -1.000000000000000000 ) ) ;
#324 = FACE_OUTER_BOUND ( 'NONE', #372, .T. ) ;
#325 = PRESENTATION_STYLE_ASSIGNMENT (( #183 ) ) ;
#326 = ORIENTED_EDGE ( 'NONE', *, *, #12, .F. ) ;
#327 = CARTESIAN_POINT ( 'NONE',  ( 111.0000000000000426, 4.138833363132931471E-13, -258.1868611803085400 ) ) ;
#328 = SURFACE_SIDE_STYLE ('',( #538 ) ) ;
#329 = EDGE_CURVE ( 'NONE', #74, #53, #598, .T. ) ;
#330 =( NAMED_UNIT ( * ) PLANE_ANGLE_UNIT ( ) SI_UNIT ( $, .RADIAN. ) );
#331 = CARTESIAN_POINT ( 'NONE',  ( 0.000000000000000000, 0.000000000000000000, 0.000000000000000000 ) ) ;
#332 = ORIENTED_EDGE ( 'NONE', *, *, #676, .F. ) ;
#333 = LINE ( 'NONE', #749, #45 ) ;
#334 = AXIS2_PLACEMENT_3D ( 'NONE', #478, #697, #412 ) ;
#335 =( NAMED_UNIT ( * ) SI_UNIT ( $, .STERADIAN. ) SOLID_ANGLE_UNIT ( ) );
#336 = PRESENTATION_LAYER_ASSIGNMENT (  '', '', ( #217 ) ) ;
#337 = VECTOR ( 'NONE', #519, 1000.000000000000000 ) ;
#338 = ORIENTED_EDGE ( 'NONE', *, *, #270, .T. ) ;
#339 =( NAMED_UNIT ( * ) PLANE_ANGLE_UNIT ( ) SI_UNIT ( $, .RADIAN. ) );
#340 = CARTESIAN_POINT ( 'NONE',  ( 8.967430689957204817E-14, -23.49714473527970426, -258.1868611803085400 ) ) ;
#341 = CARTESIAN_POINT ( 'NONE',  ( 0.000000000000000000, 131.0000000000000000, -258.1868611803085400 ) ) ;
#342 = LINE ( 'NONE', #558, #853 ) ;
#343 = CARTESIAN_POINT ( 'NONE',  ( 0.000000000000000000, 0.000000000000000000, 0.000000000000000000 ) ) ;
#344 = SURFACE_STYLE_USAGE ( .BOTH. , #51 ) ;
#345 = CARTESIAN_POINT ( 'NONE',  ( 0.000000000000000000, 0.000000000000000000, 0.000000000000000000 ) ) ;
#346 = CARTESIAN_POINT ( 'NONE',  ( 8.967430689957204817E-14, -23.49714473527970426, -33.94920000000001181 ) ) ;
#347 = SURFACE_STYLE_FILL_AREA ( #54 ) ;
#348 = EDGE_CURVE ( 'NONE', #140, #312, #506, .T. ) ;
#349 = DIRECTION ( 'NONE',  ( 0.000000000000000000, -1.000000000000000000, 0.000000000000000000 ) ) ;
#350 =( NAMED_UNIT ( * ) PLANE_ANGLE_UNIT ( ) SI_UNIT ( $, .RADIAN. ) );
#351 = MECHANICAL_DESIGN_GEOMETRIC_PRESENTATION_REPRESENTATION (  '', ( #198 ), #768 ) ;
#352 = SURFACE_STYLE_USAGE ( .BOTH. , #58 ) ;
#353 = AXIS2_PLACEMENT_3D ( 'NONE', #409, #811, #830 ) ;
#354 = STYLED_ITEM ( 'NONE', ( #247 ), #690 ) ;
#355 = DIRECTION ( 'NONE',  ( 1.000000000000000000, 0.000000000000000000, 0.000000000000000000 ) ) ;
#356 = PRESENTATION_LAYER_ASSIGNMENT (  '', '', ( #696 ) ) ;
#357 = PLANE ( 'NONE',  #79 ) ;
#358 =( NAMED_UNIT ( * ) SI_UNIT ( $, .STERADIAN. ) SOLID_ANGLE_UNIT ( ) );
#359 = FACE_OUTER_BOUND ( 'NONE', #390, .T. ) ;
#360 = PRESENTATION_STYLE_ASSIGNMENT (( #68 ) ) ;
#361 = EDGE_CURVE ( 'NONE', #788, #122, #226, .T. ) ;
#362 = LINE ( 'NONE', #747, #114 ) ;
#363 =( NAMED_UNIT ( * ) SI_UNIT ( $, .STERADIAN. ) SOLID_ANGLE_UNIT ( ) );
#364 = CARTESIAN_POINT ( 'NONE',  ( 0.000000000000000000, 0.000000000000000000, 0.000000000000000000 ) ) ;
#365 = PLANE ( 'NONE',  #485 ) ;
#366 = STYLED_ITEM ( 'NONE', ( #288 ), #222 ) ;
#367 = ORIENTED_EDGE ( 'NONE', *, *, #35, .F. ) ;
#368 = CARTESIAN_POINT ( 'NONE',  ( 9.999999999999994671, 131.0000000000000000, 0.05080000000000000487 ) ) ;
#369 = VECTOR ( 'NONE', #101, 1000.000000000000000 ) ;
#370 = AXIS2_PLACEMENT_3D ( 'NONE', #331, #52, #906 ) ;
#371 = DIRECTION ( 'NONE',  ( 3.728678705525161973E-15, -1.000000000000000000, 0.000000000000000000 ) ) ;
#372 = EDGE_LOOP ( 'NONE', ( #383, #314, #803, #670, #790, #468, #425, #241 ) ) ;
#373 = CARTESIAN_POINT ( 'NONE',  ( 0.000000000000000000, 131.0000000000000000, -33.94920000000001181 ) ) ;
#374 = FILL_AREA_STYLE ('',( #661 ) ) ;
#375 =( NAMED_UNIT ( * ) PLANE_ANGLE_UNIT ( ) SI_UNIT ( $, .RADIAN. ) );
#376 = ORIENTED_EDGE ( 'NONE', *, *, #851, .T. ) ;
#377 = LINE ( 'NONE', #16, #33 ) ;
#378 = ORIENTED_EDGE ( 'NONE', *, *, #676, .T. ) ;
#379 = MECHANICAL_DESIGN_GEOMETRIC_PRESENTATION_REPRESENTATION (  '', ( #366 ), #481 ) ;
#380 = LINE ( 'NONE', #732, #244 ) ;
#381 = CARTESIAN_POINT ( 'NONE',  ( 111.0000000000000000, 9.999999999999994671, -33.94920000000001181 ) ) ;
#382 = PRESENTATION_LAYER_ASSIGNMENT (  '', '', ( #440 ) ) ;
#383 = ORIENTED_EDGE ( 'NONE', *, *, #636, .T. ) ;
#384 = CARTESIAN_POINT ( 'NONE',  ( 101.0000000000000426, 0.000000000000000000, 0.05080000000000000487 ) ) ;
#385 = DIRECTION ( 'NONE',  ( -1.000000000000000000, 0.000000000000000000, 0.000000000000000000 ) ) ;
#386 = EDGE_CURVE ( 'NONE', #860, #459, #587, .T. ) ;
#387 = EDGE_LOOP ( 'NONE', ( #113, #166, #439, #96 ) ) ;
#388 = LINE ( 'NONE', #28, #783 ) ;
#389 = UNCERTAINTY_MEASURE_WITH_UNIT (LENGTH_MEASURE( 1.000000000000000082E-05 ), #601, 'distance_accuracy_value', 'NONE');
#390 = EDGE_LOOP ( 'NONE', ( #672, #659, #434, #530 ) ) ;
#391 = SURFACE_STYLE_FILL_AREA ( #106 ) ;
#392 = VECTOR ( 'NONE', #570, 1000.000000000000000 ) ;
#393 =( GEOMETRIC_REPRESENTATION_CONTEXT ( 3 ) GLOBAL_UNCERTAINTY_ASSIGNED_CONTEXT ( ( #240 ) ) GLOBAL_UNIT_ASSIGNED_CONTEXT ( ( #740, #120, #673 ) ) REPRESENTATION_CONTEXT ( 'NONE', 'WORKASPACE' ) );
#394 = CARTESIAN_POINT ( 'NONE',  ( 9.999999999999994671, 9.999999999999994671, 0.05080000000000000487 ) ) ;
#395 = FACE_OUTER_BOUND ( 'NONE', #692, .T. ) ;
#396 = VECTOR ( 'NONE', #281, 1000.000000000000000 ) ;
#397 = ORIENTED_EDGE ( 'NONE', *, *, #305, .T. ) ;
#398 =( LENGTH_UNIT ( ) NAMED_UNIT ( * ) SI_UNIT ( .MILLI., .METRE. ) );
#399 = ADVANCED_FACE ( 'NONE', ( #400 ), #532, .F. ) ;
#400 = FACE_OUTER_BOUND ( 'NONE', #15, .T. ) ;
#401 = FILL_AREA_STYLE ('',( #117 ) ) ;
#402 = CARTESIAN_POINT ( 'NONE',  ( 0.000000000000000000, 0.000000000000000000, 0.05080000000000000487 ) ) ;
#403 = EDGE_LOOP ( 'NONE', ( #171, #332, #631, #847 ) ) ;
#404 = SURFACE_STYLE_FILL_AREA ( #464 ) ;
#405 =( LENGTH_UNIT ( ) NAMED_UNIT ( * ) SI_UNIT ( .MILLI., .METRE. ) );
#406 = LINE ( 'NONE', #118, #501 ) ;
#407 = ORIENTED_EDGE ( 'NONE', *, *, #636, .F. ) ;
#408 = PRESENTATION_STYLE_ASSIGNMENT (( #628 ) ) ;
#409 = CARTESIAN_POINT ( 'NONE',  ( 0.000000000000000000, 131.0000000000000000, 0.05080000000000000487 ) ) ;
#410 = CARTESIAN_POINT ( 'NONE',  ( 0.000000000000000000, 131.0000000000000000, 0.05080000000000000487 ) ) ;
#411 = VECTOR ( 'NONE', #708, 1000.000000000000000 ) ;
#412 = DIRECTION ( 'NONE',  ( 0.000000000000000000, -0.000000000000000000, -1.000000000000000000 ) ) ;
#413 = CARTESIAN_POINT ( 'NONE',  ( 111.0000000000001279, -23.49714473527927794, 0.05080000000000000487 ) ) ;
#414 = DIRECTION ( 'NONE',  ( -1.000000000000000000, 0.000000000000000000, -0.000000000000000000 ) ) ;
#415 = LINE ( 'NONE', #341, #427 ) ;
#416 = ADVANCED_FACE ( 'NONE', ( #38 ), #253, .F. ) ;
#417 = LINE ( 'NONE', #346, #317 ) ;
#418 =( NAMED_UNIT ( * ) PLANE_ANGLE_UNIT ( ) SI_UNIT ( $, .RADIAN. ) );
#419 = FACE_OUTER_BOUND ( 'NONE', #387, .T. ) ;
#420 = UNCERTAINTY_MEASURE_WITH_UNIT (LENGTH_MEASURE( 1.000000000000000082E-05 ), #405, 'distance_accuracy_value', 'NONE');
#421 = CARTESIAN_POINT ( 'NONE',  ( 101.0000000000001279, -23.49714473527931702, 0.05080000000000000487 ) ) ;
#422 = FILL_AREA_STYLE_COLOUR ( '', #266 ) ;
#423 = EDGE_LOOP ( 'NONE', ( #627, #488, #188, #89 ) ) ;
#424 = DIRECTION ( 'NONE',  ( -3.543695533435071927E-15, 1.000000000000000000, 0.000000000000000000 ) ) ;
#425 = ORIENTED_EDGE ( 'NONE', *, *, #479, .T. ) ;
#426 = PRESENTATION_LAYER_ASSIGNMENT (  '', '', ( #310 ) ) ;
#427 = VECTOR ( 'NONE', #816, 1000.000000000000000 ) ;
#428 = EDGE_CURVE ( 'NONE', #459, #812, #388, .T. ) ;
#429 = SURFACE_SIDE_STYLE ('',( #495 ) ) ;
#430 = CARTESIAN_POINT ( 'NONE',  ( 111.0000000000000000, 9.999999999999994671, 0.05080000000000000487 ) ) ;
#431 = DIRECTION ( 'NONE',  ( 0.000000000000000000, 0.000000000000000000, 1.000000000000000000 ) ) ;
#432 = FACE_OUTER_BOUND ( 'NONE', #473, .T. ) ;
#433 = DIRECTION ( 'NONE',  ( -0.000000000000000000, -0.000000000000000000, -1.000000000000000000 ) ) ;
#434 = ORIENTED_EDGE ( 'NONE', *, *, #746, .F. ) ;
#435 =( NAMED_UNIT ( * ) PLANE_ANGLE_UNIT ( ) SI_UNIT ( $, .RADIAN. ) );
#436 = PLANE ( 'NONE',  #679 ) ;
#437 = FILL_AREA_STYLE_COLOUR ( '', #202 ) ;
#438 = STYLED_ITEM ( 'NONE', ( #306 ), #292 ) ;
#439 = ORIENTED_EDGE ( 'NONE', *, *, #794, .T. ) ;
#440 = STYLED_ITEM ( 'NONE', ( #883 ), #685 ) ;
#441 = CARTESIAN_POINT ( 'NONE',  ( 111.0000000000000000, 9.999999999999994671, 0.000000000000000000 ) ) ;
#442 = STYLED_ITEM ( 'NONE', ( #360 ), #527 ) ;
#443 = PRODUCT_DEFINITION_SHAPE ( 'NONE', 'NONE',  #572 ) ;
#444 = EDGE_CURVE ( 'NONE', #662, #42, #885, .T. ) ;
#445 =( NAMED_UNIT ( * ) SI_UNIT ( $, .STERADIAN. ) SOLID_ANGLE_UNIT ( ) );
#446 = ORIENTED_EDGE ( 'NONE', *, *, #599, .T. ) ;
#447 = SURFACE_STYLE_FILL_AREA ( #303 ) ;
#448 = UNCERTAINTY_MEASURE_WITH_UNIT (LENGTH_MEASURE( 1.000000000000000082E-05 ), #474, 'distance_accuracy_value', 'NONE');
#449 = ORIENTED_EDGE ( 'NONE', *, *, #428, .T. ) ;
#450 = CARTESIAN_POINT ( 'NONE',  ( 111.0000000000000426, 4.138833363132931471E-13, 0.000000000000000000 ) ) ;
#451 =( LENGTH_UNIT ( ) NAMED_UNIT ( * ) SI_UNIT ( .MILLI., .METRE. ) );
#452 = EDGE_LOOP ( 'NONE', ( #800, #119, #308, #509 ) ) ;
#453 = VECTOR ( 'NONE', #827, 1000.000000000000000 ) ;
#454 = FILL_AREA_STYLE ('',( #819 ) ) ;
#455 = EDGE_CURVE ( 'NONE', #300, #776, #290, .T. ) ;
#456 = PRESENTATION_LAYER_ASSIGNMENT (  '', '', ( #354 ) ) ;
#457 = VECTOR ( 'NONE', #895, 1000.000000000000000 ) ;
#458 = ORIENTED_EDGE ( 'NONE', *, *, #62, .F. ) ;
#459 = VERTEX_POINT ( 'NONE', #273 ) ;
#460 = PLANE ( 'NONE',  #64 ) ;
#461 = LINE ( 'NONE', #745, #216 ) ;
#462 = EDGE_CURVE ( 'NONE', #74, #140, #207, .T. ) ;
#463 = EDGE_LOOP ( 'NONE', ( #896, #796, #7, #677 ) ) ;
#464 = FILL_AREA_STYLE ('',( #26 ) ) ;
#465 = STYLED_ITEM ( 'NONE', ( #129 ), #508 ) ;
#466 =( LENGTH_UNIT ( ) NAMED_UNIT ( * ) SI_UNIT ( .MILLI., .METRE. ) );
#467 = MECHANICAL_DESIGN_GEOMETRIC_PRESENTATION_REPRESENTATION (  '', ( #282 ), #826 ) ;
#468 = ORIENTED_EDGE ( 'NONE', *, *, #444, .T. ) ;
#469 = DIRECTION ( 'NONE',  ( -1.000000000000000000, -3.728678705525161973E-15, 0.000000000000000000 ) ) ;
#470 = PRESENTATION_STYLE_ASSIGNMENT (( #107 ) ) ;
#471 = FACE_OUTER_BOUND ( 'NONE', #100, .T. ) ;
#472 = FACE_OUTER_BOUND ( 'NONE', #738, .T. ) ;
#473 = EDGE_LOOP ( 'NONE', ( #541, #376, #761, #20 ) ) ;
#474 =( LENGTH_UNIT ( ) NAMED_UNIT ( * ) SI_UNIT ( .MILLI., .METRE. ) );
#475 = FILL_AREA_STYLE ('',( #173 ) ) ;
#476 = LINE ( 'NONE', #751, #453 ) ;
#477 = CARTESIAN_POINT ( 'NONE',  ( 111.0000000000000000, 9.999999999999994671, 0.000000000000000000 ) ) ;
#478 = CARTESIAN_POINT ( 'NONE',  ( 0.000000000000000000, 131.0000000000000000, -258.1868611803085400 ) ) ;
#479 = EDGE_CURVE ( 'NONE', #42, #25, #904, .T. ) ;
#480 = SURFACE_STYLE_USAGE ( .BOTH. , #285 ) ;
#481 =( GEOMETRIC_REPRESENTATION_CONTEXT ( 3 ) GLOBAL_UNCERTAINTY_ASSIGNED_CONTEXT ( ( #879 ) ) GLOBAL_UNIT_ASSIGNED_CONTEXT ( ( #774, #350, #208 ) ) REPRESENTATION_CONTEXT ( 'NONE', 'WORKASPACE' ) );
#482 = SURFACE_STYLE_FILL_AREA ( #834 ) ;
#483 =( GEOMETRIC_REPRESENTATION_CONTEXT ( 3 ) GLOBAL_UNCERTAINTY_ASSIGNED_CONTEXT ( ( #534 ) ) GLOBAL_UNIT_ASSIGNED_CONTEXT ( ( #451, #602, #721 ) ) REPRESENTATION_CONTEXT ( 'NONE', 'WORKASPACE' ) );
#484 =( GEOMETRIC_REPRESENTATION_CONTEXT ( 3 ) GLOBAL_UNCERTAINTY_ASSIGNED_CONTEXT ( ( #613 ) ) GLOBAL_UNIT_ASSIGNED_CONTEXT ( ( #295, #525, #797 ) ) REPRESENTATION_CONTEXT ( 'NONE', 'WORKASPACE' ) );
#485 = AXIS2_PLACEMENT_3D ( 'NONE', #675, #6, #500 ) ;
#486 = FILL_AREA_STYLE_COLOUR ( '', #231 ) ;
#487 = CARTESIAN_POINT ( 'NONE',  ( 101.0000000000000426, 3.579132488769424709E-13, 0.000000000000000000 ) ) ;
#488 = ORIENTED_EDGE ( 'NONE', *, *, #12, .T. ) ;
#489 =( NAMED_UNIT ( * ) SI_UNIT ( $, .STERADIAN. ) SOLID_ANGLE_UNIT ( ) );
#490 = PLANE ( 'NONE',  #497 ) ;
#491 = UNCERTAINTY_MEASURE_WITH_UNIT (LENGTH_MEASURE( 1.000000000000000082E-05 ), #213, 'distance_accuracy_value', 'NONE');
#492 = CARTESIAN_POINT ( 'NONE',  ( 111.0000000000001279, -23.49714473527927794, -258.1868611803085400 ) ) ;
#493 = EDGE_CURVE ( 'NONE', #53, #312, #559, .T. ) ;
#494 =( LENGTH_UNIT ( ) NAMED_UNIT ( * ) SI_UNIT ( .MILLI., .METRE. ) );
#495 = SURFACE_STYLE_FILL_AREA ( #633 ) ;
#496 = LINE ( 'NONE', #430, #710 ) ;
#497 = AXIS2_PLACEMENT_3D ( 'NONE', #575, #849, #277 ) ;
#498 =( GEOMETRIC_REPRESENTATION_CONTEXT ( 3 ) GLOBAL_UNCERTAINTY_ASSIGNED_CONTEXT ( ( #845 ) ) GLOBAL_UNIT_ASSIGNED_CONTEXT ( ( #557, #844, #714 ) ) REPRESENTATION_CONTEXT ( 'NONE', 'WORKASPACE' ) );
#499 = AXIS2_PLACEMENT_3D ( 'NONE', #589, #505, #586 ) ;
#500 = DIRECTION ( 'NONE',  ( -3.543695533435071927E-15, 1.000000000000000000, 0.000000000000000000 ) ) ;
#501 = VECTOR ( 'NONE', #196, 1000.000000000000000 ) ;
#502 = SURFACE_SIDE_STYLE ('',( #201 ) ) ;
#503 = ADVANCED_BREP_SHAPE_REPRESENTATION ( '561-00010-00', ( #508, #515, #867 ), #95 ) ;
#504 = SURFACE_SIDE_STYLE ('',( #234 ) ) ;
#505 = DIRECTION ( 'NONE',  ( -1.000000000000000000, 0.000000000000000000, 0.000000000000000000 ) ) ;
#506 = LINE ( 'NONE', #802, #609 ) ;
#507 = SURFACE_STYLE_USAGE ( .BOTH. , #104 ) ;
#508 = MANIFOLD_SOLID_BREP ( 'Boss-Extrude1', #622 ) ;
#509 = ORIENTED_EDGE ( 'NONE', *, *, #865, .F. ) ;
#510 = LINE ( 'NONE', #450, #824 ) ;
#511 = SURFACE_SIDE_STYLE ('',( #789 ) ) ;
#512 = EDGE_CURVE ( 'NONE', #140, #300, #46, .T. ) ;
#513 = AXIS2_PLACEMENT_3D ( 'NONE', #618, #29, #624 ) ;
#514 = MECHANICAL_DESIGN_GEOMETRIC_PRESENTATION_REPRESENTATION (  '', ( #217 ), #44 ) ;
#515 = MANIFOLD_SOLID_BREP ( 'Boss-Extrude2', #260 ) ;
#516 = ORIENTED_EDGE ( 'NONE', *, *, #626, .F. ) ;
#517 = COLOUR_RGB ( '',0.9882352941176471006, 0.7372549019607843590, 0.5176470588235293491 ) ;
#518 = APPLICATION_CONTEXT ( 'automotive_design' ) ;
#519 = DIRECTION ( 'NONE',  ( -0.000000000000000000, -0.000000000000000000, -1.000000000000000000 ) ) ;
#520 = MECHANICAL_DESIGN_GEOMETRIC_PRESENTATION_REPRESENTATION (  '', ( #148 ), #245 ) ;
#521 = PRODUCT_DEFINITION_FORMATION_WITH_SPECIFIED_SOURCE ( 'ANY', '', #725, .NOT_KNOWN. ) ;
#522 = LINE ( 'NONE', #22, #549 ) ;
#523 = PRODUCT_RELATED_PRODUCT_CATEGORY ( 'part', '', ( #725 ) ) ;
#524 = VERTEX_POINT ( 'NONE', #566 ) ;
#525 =( NAMED_UNIT ( * ) PLANE_ANGLE_UNIT ( ) SI_UNIT ( $, .RADIAN. ) );
#526 =( NAMED_UNIT ( * ) PLANE_ANGLE_UNIT ( ) SI_UNIT ( $, .RADIAN. ) );
#527 = ADVANCED_FACE ( 'NONE', ( #141 ), #357, .F. ) ;
#528 = ORIENTED_EDGE ( 'NONE', *, *, #626, .T. ) ;
#529 = CARTESIAN_POINT ( 'NONE',  ( 0.000000000000000000, 0.000000000000000000, -33.94920000000001181 ) ) ;
#530 = ORIENTED_EDGE ( 'NONE', *, *, #663, .T. ) ;
#531 = DIRECTION ( 'NONE',  ( 3.728678705525161973E-15, -1.000000000000000000, 0.000000000000000000 ) ) ;
#532 = PLANE ( 'NONE',  #353 ) ;
#533 = COLOUR_RGB ( '',0.5019607843137254832, 1.000000000000000000, 1.000000000000000000 ) ;
#534 = UNCERTAINTY_MEASURE_WITH_UNIT (LENGTH_MEASURE( 1.000000000000000082E-05 ), #451, 'distance_accuracy_value', 'NONE');
#535 = AXIS2_PLACEMENT_3D ( 'NONE', #71, #655, #371 ) ;
#536 = ORIENTED_EDGE ( 'NONE', *, *, #178, .F. ) ;
#537 = CARTESIAN_POINT ( 'NONE',  ( 9.999999999999994671, 131.0000000000000000, 0.05080000000000000487 ) ) ;
#538 = SURFACE_STYLE_FILL_AREA ( #814 ) ;
#539 = CARTESIAN_POINT ( 'NONE',  ( 9.999999999999994671, 9.999999999999994671, 0.05080000000000000487 ) ) ;
#540 = SURFACE_SIDE_STYLE ('',( #109 ) ) ;
#541 = ORIENTED_EDGE ( 'NONE', *, *, #444, .F. ) ;
#542 = DIRECTION ( 'NONE',  ( -0.000000000000000000, 0.000000000000000000, -1.000000000000000000 ) ) ;
#543 = DIRECTION ( 'NONE',  ( -0.000000000000000000, -0.000000000000000000, -1.000000000000000000 ) ) ;
#544 = PRESENTATION_STYLE_ASSIGNMENT (( #255 ) ) ;
#545 = ORIENTED_EDGE ( 'NONE', *, *, #462, .F. ) ;
#546 = DIRECTION ( 'NONE',  ( 1.000000000000000000, 0.000000000000000000, -0.000000000000000000 ) ) ;
#547 = AXIS2_PLACEMENT_3D ( 'NONE', #131, #291, #414 ) ;
#548 = SURFACE_STYLE_FILL_AREA ( #475 ) ;
#549 = VECTOR ( 'NONE', #798, 1000.000000000000000 ) ;
#550 =( GEOMETRIC_REPRESENTATION_CONTEXT ( 3 ) GLOBAL_UNCERTAINTY_ASSIGNED_CONTEXT ( ( #760 ) ) GLOBAL_UNIT_ASSIGNED_CONTEXT ( ( #398, #257, #176 ) ) REPRESENTATION_CONTEXT ( 'NONE', 'WORKASPACE' ) );
#551 =( LENGTH_UNIT ( ) NAMED_UNIT ( * ) SI_UNIT ( .MILLI., .METRE. ) );
#552 = PRESENTATION_LAYER_ASSIGNMENT (  '', '', ( #47 ) ) ;
#553 = VERTEX_POINT ( 'NONE', #441 ) ;
#554 = SURFACE_SIDE_STYLE ('',( #482 ) ) ;
#555 =( NAMED_UNIT ( * ) PLANE_ANGLE_UNIT ( ) SI_UNIT ( $, .RADIAN. ) );
#556 = DIRECTION ( 'NONE',  ( -0.000000000000000000, 0.000000000000000000, 1.000000000000000000 ) ) ;
#557 =( LENGTH_UNIT ( ) NAMED_UNIT ( * ) SI_UNIT ( .MILLI., .METRE. ) );
#558 = CARTESIAN_POINT ( 'NONE',  ( 0.000000000000000000, 131.0000000000000000, 0.000000000000000000 ) ) ;
#559 = LINE ( 'NONE', #146, #318 ) ;
#560 = FACE_OUTER_BOUND ( 'NONE', #304, .T. ) ;
#561 = MECHANICAL_DESIGN_GEOMETRIC_PRESENTATION_REPRESENTATION (  '', ( #722 ), #793 ) ;
#562 = APPLICATION_PROTOCOL_DEFINITION ( 'draft international standard', 'automotive_design', 1998, #813 ) ;
#563 = PRESENTATION_LAYER_ASSIGNMENT (  '', '', ( #739 ) ) ;
#564 = CARTESIAN_POINT ( 'NONE',  ( 9.999999999999994671, 9.999999999999994671, 0.000000000000000000 ) ) ;
#565 = ORIENTED_EDGE ( 'NONE', *, *, #567, .F. ) ;
#566 = CARTESIAN_POINT ( 'NONE',  ( 101.0000000000001279, -23.49714473527931702, 0.000000000000000000 ) ) ;
#567 = EDGE_CURVE ( 'NONE', #553, #594, #510, .T. ) ;
#568 = CARTESIAN_POINT ( 'NONE',  ( 9.999999999999994671, 131.0000000000000000, -33.94920000000001181 ) ) ;
#569 = ORIENTED_EDGE ( 'NONE', *, *, #663, .F. ) ;
#570 = DIRECTION ( 'NONE',  ( 3.728678705525161973E-15, -1.000000000000000000, 0.000000000000000000 ) ) ;
#571 = CARTESIAN_POINT ( 'NONE',  ( 111.0000000000001279, -23.49714473527927794, 0.05080000000000000487 ) ) ;
#572 = PRODUCT_DEFINITION ( 'UNKNOWN', '', #521, #264 ) ;
#573 = DIRECTION ( 'NONE',  ( -1.000000000000000000, 0.000000000000000000, -0.000000000000000000 ) ) ;
#574 = SURFACE_SIDE_STYLE ('',( #283 ) ) ;
#575 = CARTESIAN_POINT ( 'NONE',  ( 9.999999999999994671, 9.999999999999994671, 0.05080000000000000487 ) ) ;
#576 = PRESENTATION_LAYER_ASSIGNMENT (  '', '', ( #651 ) ) ;
#577 = VECTOR ( 'NONE', #778, 1000.000000000000000 ) ;
#578 = STYLED_ITEM ( 'NONE', ( #705 ), #718 ) ;
#579 = PRESENTATION_STYLE_ASSIGNMENT (( #507 ) ) ;
#580 = COLOUR_RGB ( '',0.9882352941176471006, 0.7372549019607843590, 0.5176470588235293491 ) ;
#581 = DIRECTION ( 'NONE',  ( 3.543695533435072321E-15, -1.000000000000000000, -0.000000000000000000 ) ) ;
#582 = DIRECTION ( 'NONE',  ( -1.000000000000000000, -3.816391647148977974E-15, 0.000000000000000000 ) ) ;
#583 = CARTESIAN_POINT ( 'NONE',  ( 0.000000000000000000, 9.999999999999994671, 0.000000000000000000 ) ) ;
#584 = ORIENTED_EDGE ( 'NONE', *, *, #894, .T. ) ;
#585 = ADVANCED_FACE ( 'NONE', ( #154 ), #75, .F. ) ;
#586 = DIRECTION ( 'NONE',  ( 0.000000000000000000, 0.000000000000000000, 1.000000000000000000 ) ) ;
#587 = LINE ( 'NONE', #116, #319 ) ;
#588 = ORIENTED_EDGE ( 'NONE', *, *, #386, .T. ) ;
#589 = CARTESIAN_POINT ( 'NONE',  ( 9.999999999999994671, 9.999999999999994671, 0.05080000000000000487 ) ) ;
#590 = PRESENTATION_LAYER_ASSIGNMENT (  '', '', ( #4 ) ) ;
#591 =( NAMED_UNIT ( * ) SI_UNIT ( $, .STERADIAN. ) SOLID_ANGLE_UNIT ( ) );
#592 = VECTOR ( 'NONE', #55, 1000.000000000000000 ) ;
#593 = UNCERTAINTY_MEASURE_WITH_UNIT (LENGTH_MEASURE( 1.000000000000000082E-05 ), #619, 'distance_accuracy_value', 'NONE');
#594 = VERTEX_POINT ( 'NONE', #650 ) ;
#595 = MECHANICAL_DESIGN_GEOMETRIC_PRESENTATION_REPRESENTATION (  '', ( #440 ), #393 ) ;
#596 = DIRECTION ( 'NONE',  ( 0.000000000000000000, 1.000000000000000000, 0.000000000000000000 ) ) ;
#597 = VECTOR ( 'NONE', #48, 1000.000000000000000 ) ;
#598 = LINE ( 'NONE', #302, #78 ) ;
#599 = EDGE_CURVE ( 'NONE', #667, #11, #225, .T. ) ;
#600 = VERTEX_POINT ( 'NONE', #368 ) ;
#601 =( LENGTH_UNIT ( ) NAMED_UNIT ( * ) SI_UNIT ( .MILLI., .METRE. ) );
#602 =( NAMED_UNIT ( * ) PLANE_ANGLE_UNIT ( ) SI_UNIT ( $, .RADIAN. ) );
#603 = ORIENTED_EDGE ( 'NONE', *, *, #386, .F. ) ;
#604 = FACE_OUTER_BOUND ( 'NONE', #237, .T. ) ;
#605 =( LENGTH_UNIT ( ) NAMED_UNIT ( * ) SI_UNIT ( .MILLI., .METRE. ) );
#606 = ORIENTED_EDGE ( 'NONE', *, *, #735, .T. ) ;
#607 = VECTOR ( 'NONE', #39, 1000.000000000000000 ) ;
#608 = CARTESIAN_POINT ( 'NONE',  ( 101.0000000000001279, -23.49714473527931702, -33.94920000000001181 ) ) ;
#609 = VECTOR ( 'NONE', #313, 1000.000000000000000 ) ;
#610 = DIRECTION ( 'NONE',  ( 0.000000000000000000, -1.000000000000000000, 0.000000000000000000 ) ) ;
#611 = PRESENTATION_LAYER_ASSIGNMENT (  '', '', ( #442 ) ) ;
#612 =( NAMED_UNIT ( * ) SI_UNIT ( $, .STERADIAN. ) SOLID_ANGLE_UNIT ( ) );
#613 = UNCERTAINTY_MEASURE_WITH_UNIT (LENGTH_MEASURE( 1.000000000000000082E-05 ), #295, 'distance_accuracy_value', 'NONE');
#614 = ORIENTED_EDGE ( 'NONE', *, *, #455, .F. ) ;
#615 = EDGE_CURVE ( 'NONE', #271, #524, #162, .T. ) ;
#616 = CARTESIAN_POINT ( 'NONE',  ( 9.999999999999994671, 9.999999999999994671, -33.94920000000001181 ) ) ;
#617 = ORIENTED_EDGE ( 'NONE', *, *, #735, .F. ) ;
#618 = CARTESIAN_POINT ( 'NONE',  ( 0.000000000000000000, 0.000000000000000000, -258.1868611803085400 ) ) ;
#619 =( LENGTH_UNIT ( ) NAMED_UNIT ( * ) SI_UNIT ( .MILLI., .METRE. ) );
#620 = EDGE_LOOP ( 'NONE', ( #251, #748, #32, #212 ) ) ;
#621 = DIRECTION ( 'NONE',  ( 0.000000000000000000, 0.000000000000000000, 1.000000000000000000 ) ) ;
#622 = CLOSED_SHELL ( 'NONE', ( #416, #292, #762, #222, #585, #399, #685, #527, #730, #889 ) ) ;
#623 = PRESENTATION_LAYER_ASSIGNMENT (  '', '', ( #438 ) ) ;
#624 = DIRECTION ( 'NONE',  ( 0.000000000000000000, 0.000000000000000000, 1.000000000000000000 ) ) ;
#625 = PLANE ( 'NONE',  #19 ) ;
#626 = EDGE_CURVE ( 'NONE', #11, #186, #157, .T. ) ;
#627 = ORIENTED_EDGE ( 'NONE', *, *, #49, .F. ) ;
#628 = SURFACE_STYLE_USAGE ( .BOTH. , #777 ) ;
#629 = DIRECTION ( 'NONE',  ( -1.000000000000000000, -3.816391647148978763E-15, 0.000000000000000000 ) ) ;
#630 = EDGE_CURVE ( 'NONE', #594, #27, #380, .T. ) ;
#631 = ORIENTED_EDGE ( 'NONE', *, *, #894, .F. ) ;
#632 = FACE_OUTER_BOUND ( 'NONE', #153, .T. ) ;
#633 = FILL_AREA_STYLE ('',( #837 ) ) ;
#634 = APPLICATION_PROTOCOL_DEFINITION ( 'draft international standard', 'automotive_design', 1998, #518 ) ;
#635 = DIRECTION ( 'NONE',  ( -1.000000000000000000, -3.816391647148978763E-15, 0.000000000000000000 ) ) ;
#636 = EDGE_CURVE ( 'NONE', #822, #74, #84, .T. ) ;
#637 = CARTESIAN_POINT ( 'NONE',  ( 0.000000000000000000, 9.999999999999994671, -33.94920000000001181 ) ) ;
#638 =( GEOMETRIC_REPRESENTATION_CONTEXT ( 3 ) GLOBAL_UNCERTAINTY_ASSIGNED_CONTEXT ( ( #911 ) ) GLOBAL_UNIT_ASSIGNED_CONTEXT ( ( #195, #647, #358 ) ) REPRESENTATION_CONTEXT ( 'NONE', 'WORKASPACE' ) );
#639 = DIRECTION ( 'NONE',  ( -3.728678705525161973E-15, 1.000000000000000000, 0.000000000000000000 ) ) ;
#640 = AXIS2_PLACEMENT_3D ( 'NONE', #123, #744, #102 ) ;
#641 = UNCERTAINTY_MEASURE_WITH_UNIT (LENGTH_MEASURE( 1.000000000000000082E-05 ), #605, 'distance_accuracy_value', 'NONE');
#642 = MECHANICAL_DESIGN_GEOMETRIC_PRESENTATION_REPRESENTATION (  '', ( #442 ), #484 ) ;
#643 = AXIS2_PLACEMENT_3D ( 'NONE', #10, #852, #126 ) ;
#644 = FILL_AREA_STYLE ('',( #422 ) ) ;
#645 = SURFACE_STYLE_USAGE ( .BOTH. , #574 ) ;
#646 = EDGE_CURVE ( 'NONE', #887, #812, #230, .T. ) ;
#647 =( NAMED_UNIT ( * ) PLANE_ANGLE_UNIT ( ) SI_UNIT ( $, .RADIAN. ) );
#648 = ORIENTED_EDGE ( 'NONE', *, *, #810, .F. ) ;
#649 = DIRECTION ( 'NONE',  ( 1.000000000000000000, 0.000000000000000000, 0.000000000000000000 ) ) ;
#650 = CARTESIAN_POINT ( 'NONE',  ( 111.0000000000001279, -23.49714473527927794, 0.000000000000000000 ) ) ;
#651 = STYLED_ITEM ( 'NONE', ( #915 ), #164 ) ;
#652 = VECTOR ( 'NONE', #780, 1000.000000000000000 ) ;
#653 = EDGE_CURVE ( 'NONE', #524, #712, #377, .T. ) ;
#654 =( GEOMETRIC_REPRESENTATION_CONTEXT ( 3 ) GLOBAL_UNCERTAINTY_ASSIGNED_CONTEXT ( ( #448 ) ) GLOBAL_UNIT_ASSIGNED_CONTEXT ( ( #474, #766, #489 ) ) REPRESENTATION_CONTEXT ( 'NONE', 'WORKASPACE' ) );
#655 = DIRECTION ( 'NONE',  ( -1.000000000000000000, -3.728678705525161973E-15, 0.000000000000000000 ) ) ;
#656 = ORIENTED_EDGE ( 'NONE', *, *, #479, .F. ) ;
#657 = CARTESIAN_POINT ( 'NONE',  ( 101.0000000000001279, -23.49714473527931702, 0.05080000000000000487 ) ) ;
#658 = PLANE ( 'NONE',  #836 ) ;
#659 = ORIENTED_EDGE ( 'NONE', *, *, #270, .F. ) ;
#660 = DIRECTION ( 'NONE',  ( 1.000000000000000000, 0.000000000000000000, 0.000000000000000000 ) ) ;
#661 = FILL_AREA_STYLE_COLOUR ( '', #243 ) ;
#662 = VERTEX_POINT ( 'NONE', #608 ) ;
#663 = EDGE_CURVE ( 'NONE', #186, #712, #172, .T. ) ;
#664 = CARTESIAN_POINT ( 'NONE',  ( 101.0000000000001279, -23.49714473527931702, 0.05080000000000000487 ) ) ;
#665 = VECTOR ( 'NONE', #639, 1000.000000000000000 ) ;
#666 = UNCERTAINTY_MEASURE_WITH_UNIT (LENGTH_MEASURE( 1.000000000000000082E-05 ), #221, 'distance_accuracy_value', 'NONE');
#667 = VERTEX_POINT ( 'NONE', #384 ) ;
#668 = VECTOR ( 'NONE', #21, 1000.000000000000000 ) ;
#669 = VECTOR ( 'NONE', #128, 1000.000000000000000 ) ;
#670 = ORIENTED_EDGE ( 'NONE', *, *, #455, .T. ) ;
#671 = SURFACE_STYLE_USAGE ( .BOTH. , #511 ) ;
#672 = ORIENTED_EDGE ( 'NONE', *, *, #178, .T. ) ;
#673 =( NAMED_UNIT ( * ) SI_UNIT ( $, .STERADIAN. ) SOLID_ANGLE_UNIT ( ) );
#674 =( NAMED_UNIT ( * ) SI_UNIT ( $, .STERADIAN. ) SOLID_ANGLE_UNIT ( ) );
#675 = CARTESIAN_POINT ( 'NONE',  ( 101.0000000000000426, 3.579132488769424709E-13, -258.1868611803085400 ) ) ;
#676 = EDGE_CURVE ( 'NONE', #600, #688, #180, .T. ) ;
#677 = ORIENTED_EDGE ( 'NONE', *, *, #233, .T. ) ;
#678 = COLOUR_RGB ( '',0.9882352941176471006, 0.7372549019607843590, 0.5176470588235293491 ) ;
#679 = AXIS2_PLACEMENT_3D ( 'NONE', #77, #741, #92 ) ;
#680 = SURFACE_STYLE_USAGE ( .BOTH. , #877 ) ;
#681 = COLOUR_RGB ( '',0.5019607843137254832, 1.000000000000000000, 1.000000000000000000 ) ;
#682 = FILL_AREA_STYLE ('',( #815 ) ) ;
#683 = FILL_AREA_STYLE_COLOUR ( '', #80 ) ;
#684 = ORIENTED_EDGE ( 'NONE', *, *, #91, .T. ) ;
#685 = ADVANCED_FACE ( 'NONE', ( #808 ), #689, .F. ) ;
#686 = FILL_AREA_STYLE_COLOUR ( '', #127 ) ;
#687 = SURFACE_STYLE_USAGE ( .BOTH. , #249 ) ;
#688 = VERTEX_POINT ( 'NONE', #829 ) ;
#689 = PLANE ( 'NONE',  #913 ) ;
#690 = ADVANCED_FACE ( 'NONE', ( #604 ), #460, .F. ) ;
#691 = UNCERTAINTY_MEASURE_WITH_UNIT (LENGTH_MEASURE( 1.000000000000000082E-05 ), #494, 'distance_accuracy_value', 'NONE');
#692 = EDGE_LOOP ( 'NONE', ( #545, #165, #872, #903 ) ) ;
#693 = COLOUR_RGB ( '',0.9882352941176471006, 0.7372549019607843590, 0.5176470588235293491 ) ;
#694 = PRESENTATION_LAYER_ASSIGNMENT (  '', '', ( #722 ) ) ;
#695 = CARTESIAN_POINT ( 'NONE',  ( 0.000000000000000000, 0.000000000000000000, -258.1868611803085400 ) ) ;
#696 = STYLED_ITEM ( 'NONE', ( #579 ), #821 ) ;
#697 = DIRECTION ( 'NONE',  ( 0.000000000000000000, -1.000000000000000000, 0.000000000000000000 ) ) ;
#698 = SURFACE_SIDE_STYLE ('',( #773 ) ) ;
#699 = SURFACE_STYLE_FILL_AREA ( #219 ) ;
#700 = CARTESIAN_POINT ( 'NONE',  ( 9.999999999999994671, 9.999999999999994671, 0.05080000000000000487 ) ) ;
#701 = ORIENTED_EDGE ( 'NONE', *, *, #155, .T. ) ;
#702 = CARTESIAN_POINT ( 'NONE',  ( 9.999999999999994671, 9.999999999999994671, 0.05080000000000000487 ) ) ;
#703 = FILL_AREA_STYLE_COLOUR ( '', #229 ) ;
#704 = FILL_AREA_STYLE ('',( #767 ) ) ;
#705 = PRESENTATION_STYLE_ASSIGNMENT (( #67 ) ) ;
#706 = EDGE_CURVE ( 'NONE', #300, #553, #333, .T. ) ;
#707 = ORIENTED_EDGE ( 'NONE', *, *, #428, .F. ) ;
#708 = DIRECTION ( 'NONE',  ( -1.000000000000000000, 0.000000000000000000, 0.000000000000000000 ) ) ;
#709 = VECTOR ( 'NONE', #177, 1000.000000000000000 ) ;
#710 = VECTOR ( 'NONE', #152, 1000.000000000000000 ) ;
#711 = DIRECTION ( 'NONE',  ( -1.000000000000000000, 0.000000000000000000, 0.000000000000000000 ) ) ;
#712 = VERTEX_POINT ( 'NONE', #898 ) ;
#713 = CARTESIAN_POINT ( 'NONE',  ( 0.000000000000000000, 131.0000000000000000, 0.05080000000000000487 ) ) ;
#714 =( NAMED_UNIT ( * ) SI_UNIT ( $, .STERADIAN. ) SOLID_ANGLE_UNIT ( ) );
#715 = FILL_AREA_STYLE ('',( #437 ) ) ;
#716 = CARTESIAN_POINT ( 'NONE',  ( 0.000000000000000000, 0.000000000000000000, 0.05080000000000000487 ) ) ;
#717 = DIRECTION ( 'NONE',  ( 0.000000000000000000, 0.000000000000000000, 1.000000000000000000 ) ) ;
#718 = ADVANCED_FACE ( 'NONE', ( #267 ), #97, .T. ) ;
#719 = VERTEX_POINT ( 'NONE', #702 ) ;
#720 = PRESENTATION_STYLE_ASSIGNMENT (( #791 ) ) ;
#721 =( NAMED_UNIT ( * ) SI_UNIT ( $, .STERADIAN. ) SOLID_ANGLE_UNIT ( ) );
#722 = STYLED_ITEM ( 'NONE', ( #470 ), #416 ) ;
#723 = VECTOR ( 'NONE', #90, 1000.000000000000000 ) ;
#724 =( LENGTH_UNIT ( ) NAMED_UNIT ( * ) SI_UNIT ( .MILLI., .METRE. ) );
#725 = PRODUCT ( '561-00010-00', '561-00010-00', '', ( #70 ) ) ;
#726 = ORIENTED_EDGE ( 'NONE', *, *, #865, .T. ) ;
#727 =( GEOMETRIC_REPRESENTATION_CONTEXT ( 3 ) GLOBAL_UNCERTAINTY_ASSIGNED_CONTEXT ( ( #88 ) ) GLOBAL_UNIT_ASSIGNED_CONTEXT ( ( #832, #339, #193 ) ) REPRESENTATION_CONTEXT ( 'NONE', 'WORKASPACE' ) );
#728 = DIRECTION ( 'NONE',  ( -1.000000000000000000, -3.816391647148977974E-15, 0.000000000000000000 ) ) ;
#729 =( LENGTH_UNIT ( ) NAMED_UNIT ( * ) SI_UNIT ( .MILLI., .METRE. ) );
#730 = ADVANCED_FACE ( 'NONE', ( #632 ), #835, .F. ) ;
#731 = ORIENTED_EDGE ( 'NONE', *, *, #248, .F. ) ;
#732 = CARTESIAN_POINT ( 'NONE',  ( 8.967430689957204817E-14, -23.49714473527970426, 0.000000000000000000 ) ) ;
#733 = SURFACE_SIDE_STYLE ('',( #14 ) ) ;
#734 = ORIENTED_EDGE ( 'NONE', *, *, #189, .F. ) ;
#735 = EDGE_CURVE ( 'NONE', #600, #860, #843, .T. ) ;
#736 = FACE_OUTER_BOUND ( 'NONE', #175, .T. ) ;
#737 = VECTOR ( 'NONE', #385, 1000.000000000000000 ) ;
#738 = EDGE_LOOP ( 'NONE', ( #881, #734, #707, #367, #458, #648, #536, #224 ) ) ;
#739 = STYLED_ITEM ( 'NONE', ( #720 ), #585 ) ;
#740 =( LENGTH_UNIT ( ) NAMED_UNIT ( * ) SI_UNIT ( .MILLI., .METRE. ) );
#741 = DIRECTION ( 'NONE',  ( 0.000000000000000000, -1.000000000000000000, 0.000000000000000000 ) ) ;
#742 = ORIENTED_EDGE ( 'NONE', *, *, #746, .T. ) ;
#743 = FILL_AREA_STYLE_COLOUR ( '', #771 ) ;
#744 = DIRECTION ( 'NONE',  ( 1.000000000000000000, 3.543695533435071927E-15, -0.000000000000000000 ) ) ;
#745 = CARTESIAN_POINT ( 'NONE',  ( 101.0000000000000426, 0.000000000000000000, -258.1868611803085400 ) ) ;
#746 = EDGE_CURVE ( 'NONE', #186, #228, #143, .T. ) ;
#747 = CARTESIAN_POINT ( 'NONE',  ( 0.000000000000000000, 131.0000000000000000, 0.000000000000000000 ) ) ;
#748 = ORIENTED_EDGE ( 'NONE', *, *, #233, .F. ) ;
#749 = CARTESIAN_POINT ( 'NONE',  ( 111.0000000000000000, 9.999999999999994671, -258.1868611803085400 ) ) ;
#750 = SURFACE_SIDE_STYLE ('',( #548 ) ) ;
#751 = CARTESIAN_POINT ( 'NONE',  ( 0.000000000000000000, 0.000000000000000000, 0.000000000000000000 ) ) ;
#752 = DIRECTION ( 'NONE',  ( 0.000000000000000000, 1.000000000000000000, 0.000000000000000000 ) ) ;
#753 = ORIENTED_EDGE ( 'NONE', *, *, #305, .F. ) ;
#754 = VECTOR ( 'NONE', #782, 1000.000000000000000 ) ;
#755 = SURFACE_SIDE_STYLE ('',( #404 ) ) ;
#756 = COLOUR_RGB ( '',0.5019607843137254832, 1.000000000000000000, 1.000000000000000000 ) ;
#757 =( GEOMETRIC_REPRESENTATION_CONTEXT ( 3 ) GLOBAL_UNCERTAINTY_ASSIGNED_CONTEXT ( ( #666 ) ) GLOBAL_UNIT_ASSIGNED_CONTEXT ( ( #221, #160, #445 ) ) REPRESENTATION_CONTEXT ( 'NONE', 'WORKASPACE' ) );
#758 = PLANE ( 'NONE',  #547 ) ;
#759 = PLANE ( 'NONE',  #370 ) ;
#760 = UNCERTAINTY_MEASURE_WITH_UNIT (LENGTH_MEASURE( 1.000000000000000082E-05 ), #398, 'distance_accuracy_value', 'NONE');
#761 = ORIENTED_EDGE ( 'NONE', *, *, #248, .T. ) ;
#762 = ADVANCED_FACE ( 'NONE', ( #359 ), #139, .F. ) ;
#763 = SURFACE_STYLE_USAGE ( .BOTH. , #268 ) ;
#764 =( NAMED_UNIT ( * ) PLANE_ANGLE_UNIT ( ) SI_UNIT ( $, .RADIAN. ) );
#765 = ORIENTED_EDGE ( 'NONE', *, *, #361, .T. ) ;
#766 =( NAMED_UNIT ( * ) PLANE_ANGLE_UNIT ( ) SI_UNIT ( $, .RADIAN. ) );
#767 = FILL_AREA_STYLE_COLOUR ( '', #294 ) ;
#768 =( GEOMETRIC_REPRESENTATION_CONTEXT ( 3 ) GLOBAL_UNCERTAINTY_ASSIGNED_CONTEXT ( ( #99 ) ) GLOBAL_UNIT_ASSIGNED_CONTEXT ( ( #831, #555, #133 ) ) REPRESENTATION_CONTEXT ( 'NONE', 'WORKASPACE' ) );
#769 = CARTESIAN_POINT ( 'NONE',  ( 111.0000000000000426, 4.138833363132931471E-13, -33.94920000000001181 ) ) ;
#770 = PRESENTATION_LAYER_ASSIGNMENT (  '', '', ( #465 ) ) ;
#771 = COLOUR_RGB ( '',0.9882352941176471006, 0.7372549019607843590, 0.5176470588235293491 ) ;
#772 = PRESENTATION_STYLE_ASSIGNMENT (( #352 ) ) ;
#773 = SURFACE_STYLE_FILL_AREA ( #644 ) ;
#774 =( LENGTH_UNIT ( ) NAMED_UNIT ( * ) SI_UNIT ( .MILLI., .METRE. ) );
#775 = ADVANCED_FACE ( 'NONE', ( #432 ), #365, .F. ) ;
#776 = VERTEX_POINT ( 'NONE', #299 ) ;
#777 = SURFACE_SIDE_STYLE ('',( #347 ) ) ;
#778 = DIRECTION ( 'NONE',  ( -3.543695533435071927E-15, 1.000000000000000000, 0.000000000000000000 ) ) ;
#779 = LINE ( 'NONE', #487, #76 ) ;
#780 = DIRECTION ( 'NONE',  ( 0.000000000000000000, -1.000000000000000000, 0.000000000000000000 ) ) ;
#781 = MECHANICAL_DESIGN_GEOMETRIC_PRESENTATION_REPRESENTATION (  '', ( #43 ), #182 ) ;
#782 = DIRECTION ( 'NONE',  ( 1.000000000000000000, 0.000000000000000000, 0.000000000000000000 ) ) ;
#783 = VECTOR ( 'NONE', #610, 1000.000000000000000 ) ;
#784 = STYLED_ITEM ( 'NONE', ( #408 ), #730 ) ;
#785 = EDGE_CURVE ( 'NONE', #60, #53, #362, .T. ) ;
#786 = PRESENTATION_STYLE_ASSIGNMENT (( #135 ) ) ;
#787 = CARTESIAN_POINT ( 'NONE',  ( 101.0000000000000426, 0.000000000000000000, 0.05080000000000000487 ) ) ;
#788 = VERTEX_POINT ( 'NONE', #861 ) ;
#789 = SURFACE_STYLE_FILL_AREA ( #804 ) ;
#790 = ORIENTED_EDGE ( 'NONE', *, *, #49, .T. ) ;
#791 = SURFACE_STYLE_USAGE ( .BOTH. , #13 ) ;
#792 = PRESENTATION_LAYER_ASSIGNMENT (  '', '', ( #43 ) ) ;
#793 =( GEOMETRIC_REPRESENTATION_CONTEXT ( 3 ) GLOBAL_UNCERTAINTY_ASSIGNED_CONTEXT ( ( #286 ) ) GLOBAL_UNIT_ASSIGNED_CONTEXT ( ( #900, #242, #888 ) ) REPRESENTATION_CONTEXT ( 'NONE', 'WORKASPACE' ) );
#794 = EDGE_CURVE ( 'NONE', #312, #553, #2, .T. ) ;
#795 = PRESENTATION_STYLE_ASSIGNMENT (( #85 ) ) ;
#796 = ORIENTED_EDGE ( 'NONE', *, *, #838, .F. ) ;
#797 =( NAMED_UNIT ( * ) SI_UNIT ( $, .STERADIAN. ) SOLID_ANGLE_UNIT ( ) );
#798 = DIRECTION ( 'NONE',  ( -0.000000000000000000, -1.000000000000000000, -0.000000000000000000 ) ) ;
#799 = DIRECTION ( 'NONE',  ( 1.000000000000000000, 0.000000000000000000, 0.000000000000000000 ) ) ;
#800 = ORIENTED_EDGE ( 'NONE', *, *, #315, .F. ) ;
#801 = CARTESIAN_POINT ( 'NONE',  ( 0.000000000000000000, 0.000000000000000000, 0.05080000000000000487 ) ) ;
#802 = CARTESIAN_POINT ( 'NONE',  ( 9.999999999999994671, 9.999999999999994671, -258.1868611803085400 ) ) ;
#803 = ORIENTED_EDGE ( 'NONE', *, *, #512, .T. ) ;
#804 = FILL_AREA_STYLE ('',( #87 ) ) ;
#805 = VECTOR ( 'NONE', #214, 1000.000000000000000 ) ;
#806 = ORIENTED_EDGE ( 'NONE', *, *, #838, .T. ) ;
#807 = VECTOR ( 'NONE', #581, 1000.000000000000000 ) ;
#808 = FACE_OUTER_BOUND ( 'NONE', #41, .T. ) ;
#809 = AXIS2_PLACEMENT_3D ( 'NONE', #908, #199, #573 ) ;
#810 = EDGE_CURVE ( 'NONE', #828, #846, #293, .T. ) ;
#811 = DIRECTION ( 'NONE',  ( 0.000000000000000000, -1.000000000000000000, 0.000000000000000000 ) ) ;
#812 = VERTEX_POINT ( 'NONE', #859 ) ;
#813 = APPLICATION_CONTEXT ( 'automotive_design' ) ;
#814 = FILL_AREA_STYLE ('',( #686 ) ) ;
#815 = FILL_AREA_STYLE_COLOUR ( '', #678 ) ;
#816 = DIRECTION ( 'NONE',  ( 0.000000000000000000, 0.000000000000000000, 1.000000000000000000 ) ) ;
#817 = UNCERTAINTY_MEASURE_WITH_UNIT (LENGTH_MEASURE( 1.000000000000000082E-05 ), #551, 'distance_accuracy_value', 'NONE');
#818 = ORIENTED_EDGE ( 'NONE', *, *, #329, .F. ) ;
#819 = FILL_AREA_STYLE_COLOUR ( '', #517 ) ;
#820 = CARTESIAN_POINT ( 'NONE',  ( 0.000000000000000000, 131.0000000000000000, -33.94920000000001181 ) ) ;
#821 = ADVANCED_FACE ( 'NONE', ( #82 ), #855, .F. ) ;
#822 = VERTEX_POINT ( 'NONE', #820 ) ;
#823 = MECHANICAL_DESIGN_GEOMETRIC_PRESENTATION_REPRESENTATION (  '', ( #651 ), #638 ) ;
#824 = VECTOR ( 'NONE', #301, 1000.000000000000000 ) ;
#825 = PRESENTATION_STYLE_ASSIGNMENT (( #190 ) ) ;
#826 =( GEOMETRIC_REPRESENTATION_CONTEXT ( 3 ) GLOBAL_UNCERTAINTY_ASSIGNED_CONTEXT ( ( #593 ) ) GLOBAL_UNIT_ASSIGNED_CONTEXT ( ( #619, #764, #335 ) ) REPRESENTATION_CONTEXT ( 'NONE', 'WORKASPACE' ) );
#827 = DIRECTION ( 'NONE',  ( 0.000000000000000000, 1.000000000000000000, 0.000000000000000000 ) ) ;
#828 = VERTEX_POINT ( 'NONE', #477 ) ;
#829 = CARTESIAN_POINT ( 'NONE',  ( 9.999999999999994671, 131.0000000000000000, 0.000000000000000000 ) ) ;
#830 = DIRECTION ( 'NONE',  ( 0.000000000000000000, -0.000000000000000000, -1.000000000000000000 ) ) ;
#831 =( LENGTH_UNIT ( ) NAMED_UNIT ( * ) SI_UNIT ( .MILLI., .METRE. ) );
#832 =( LENGTH_UNIT ( ) NAMED_UNIT ( * ) SI_UNIT ( .MILLI., .METRE. ) );
#833 = FILL_AREA_STYLE_COLOUR ( '', #184 ) ;
#834 = FILL_AREA_STYLE ('',( #683 ) ) ;
#835 = PLANE ( 'NONE',  #809 ) ;
#836 = AXIS2_PLACEMENT_3D ( 'NONE', #664, #9, #582 ) ;
#837 = FILL_AREA_STYLE_COLOUR ( '', #899 ) ;
#838 = EDGE_CURVE ( 'NONE', #11, #524, #275, .T. ) ;
#839 = MECHANICAL_DESIGN_GEOMETRIC_PRESENTATION_REPRESENTATION (  '', ( #739 ), #111 ) ;
#840 =( LENGTH_UNIT ( ) NAMED_UNIT ( * ) SI_UNIT ( .MILLI., .METRE. ) );
#841 = VECTOR ( 'NONE', #752, 1000.000000000000000 ) ;
#842 = CARTESIAN_POINT ( 'NONE',  ( 101.0000000000000426, 0.000000000000000000, -33.94920000000001181 ) ) ;
#843 = LINE ( 'NONE', #713, #669 ) ;
#844 =( NAMED_UNIT ( * ) PLANE_ANGLE_UNIT ( ) SI_UNIT ( $, .RADIAN. ) );
#845 = UNCERTAINTY_MEASURE_WITH_UNIT (LENGTH_MEASURE( 1.000000000000000082E-05 ), #557, 'distance_accuracy_value', 'NONE');
#846 = VERTEX_POINT ( 'NONE', #261 ) ;
#847 = ORIENTED_EDGE ( 'NONE', *, *, #112, .T. ) ;
#848 =( NAMED_UNIT ( * ) SI_UNIT ( $, .STERADIAN. ) SOLID_ANGLE_UNIT ( ) );
#849 = DIRECTION ( 'NONE',  ( 0.000000000000000000, -1.000000000000000000, 0.000000000000000000 ) ) ;
#850 = SHAPE_DEFINITION_REPRESENTATION ( #443, #503 ) ;
#851 = EDGE_CURVE ( 'NONE', #662, #27, #406, .T. ) ;
#852 = DIRECTION ( 'NONE',  ( 1.000000000000000000, 0.000000000000000000, 0.000000000000000000 ) ) ;
#853 = VECTOR ( 'NONE', #907, 1000.000000000000000 ) ;
#854 = SURFACE_STYLE_FILL_AREA ( #401 ) ;
#855 = PLANE ( 'NONE',  #643 ) ;
#856 = SURFACE_STYLE_FILL_AREA ( #870 ) ;
#857 = CARTESIAN_POINT ( 'NONE',  ( 9.999999999999994671, 9.999999999999994671, 0.000000000000000000 ) ) ;
#858 =( NAMED_UNIT ( * ) PLANE_ANGLE_UNIT ( ) SI_UNIT ( $, .RADIAN. ) );
#859 = CARTESIAN_POINT ( 'NONE',  ( 0.000000000000000000, 0.000000000000000000, 0.000000000000000000 ) ) ;
#860 = VERTEX_POINT ( 'NONE', #410 ) ;
#861 = CARTESIAN_POINT ( 'NONE',  ( 101.0000000000000426, 0.000000000000000000, -0.000000000000000000 ) ) ;
#862 = UNCERTAINTY_MEASURE_WITH_UNIT (LENGTH_MEASURE( 1.000000000000000082E-05 ), #840, 'distance_accuracy_value', 'NONE');
#863 = ORIENTED_EDGE ( 'NONE', *, *, #493, .F. ) ;
#864 = CARTESIAN_POINT ( 'NONE',  ( 101.0000000000001279, -23.49714473527931702, 0.000000000000000000 ) ) ;
#865 = EDGE_CURVE ( 'NONE', #822, #60, #415, .T. ) ;
#866 = PRESENTATION_LAYER_ASSIGNMENT (  '', '', ( #366 ) ) ;
#867 = AXIS2_PLACEMENT_3D ( 'NONE', #345, #717, #220 ) ;
#868 = PRESENTATION_LAYER_ASSIGNMENT (  '', '', ( #282 ) ) ;
#869 = ORIENTED_EDGE ( 'NONE', *, *, #155, .F. ) ;
#870 = FILL_AREA_STYLE ('',( #72 ) ) ;
#871 =( NAMED_UNIT ( * ) SI_UNIT ( $, .STERADIAN. ) SOLID_ANGLE_UNIT ( ) );
#872 = ORIENTED_EDGE ( 'NONE', *, *, #493, .T. ) ;
#873 = CARTESIAN_POINT ( 'NONE',  ( 0.000000000000000000, 0.000000000000000000, 0.05080000000000000487 ) ) ;
#874 = SURFACE_STYLE_USAGE ( .BOTH. , #733 ) ;
#875 = EDGE_CURVE ( 'NONE', #25, #122, #886, .T. ) ;
#876 = EDGE_LOOP ( 'NONE', ( #407, #726, #235, #818 ) ) ;
#877 = SURFACE_SIDE_STYLE ('',( #892 ) ) ;
#878 =( NAMED_UNIT ( * ) PLANE_ANGLE_UNIT ( ) SI_UNIT ( $, .RADIAN. ) );
#879 = UNCERTAINTY_MEASURE_WITH_UNIT (LENGTH_MEASURE( 1.000000000000000082E-05 ), #774, 'distance_accuracy_value', 'NONE');
#880 =( GEOMETRIC_REPRESENTATION_CONTEXT ( 3 ) GLOBAL_UNCERTAINTY_ASSIGNED_CONTEXT ( ( #420 ) ) GLOBAL_UNIT_ASSIGNED_CONTEXT ( ( #405, #330, #674 ) ) REPRESENTATION_CONTEXT ( 'NONE', 'WORKASPACE' ) );
#881 = ORIENTED_EDGE ( 'NONE', *, *, #615, .F. ) ;
#882 = MECHANICAL_DESIGN_GEOMETRIC_PRESENTATION_REPRESENTATION (  '', ( #784 ), #727 ) ;
#883 = PRESENTATION_STYLE_ASSIGNMENT (( #252 ) ) ;
#884 = MECHANICAL_DESIGN_GEOMETRIC_PRESENTATION_REPRESENTATION (  '', ( #47 ), #757 ) ;
#885 = LINE ( 'NONE', #63, #577 ) ;
#886 = LINE ( 'NONE', #695, #597 ) ;
#887 = VERTEX_POINT ( 'NONE', #402 ) ;
#888 =( NAMED_UNIT ( * ) SI_UNIT ( $, .STERADIAN. ) SOLID_ANGLE_UNIT ( ) );
#889 = ADVANCED_FACE ( 'NONE', ( #472 ), #759, .T. ) ;
#890 = PRESENTATION_STYLE_ASSIGNMENT (( #763 ) ) ;
#891 = ORIENTED_EDGE ( 'NONE', *, *, #794, .F. ) ;
#892 = SURFACE_STYLE_FILL_AREA ( #454 ) ;
#893 = FILL_AREA_STYLE ('',( #274 ) ) ;
#894 = EDGE_CURVE ( 'NONE', #719, #600, #132, .T. ) ;
#895 = DIRECTION ( 'NONE',  ( -0.000000000000000000, -0.000000000000000000, -1.000000000000000000 ) ) ;
#896 = ORIENTED_EDGE ( 'NONE', *, *, #615, .T. ) ;
#897 =( GEOMETRIC_REPRESENTATION_CONTEXT ( 3 ) GLOBAL_UNCERTAINTY_ASSIGNED_CONTEXT ( ( #204 ) ) GLOBAL_UNIT_ASSIGNED_CONTEXT ( ( #729, #526, #871 ) ) REPRESENTATION_CONTEXT ( 'NONE', 'WORKASPACE' ) );
#898 = CARTESIAN_POINT ( 'NONE',  ( 111.0000000000001279, -23.49714473527927794, 0.000000000000000000 ) ) ;
#899 = COLOUR_RGB ( '',0.5019607843137254832, 1.000000000000000000, 1.000000000000000000 ) ;
#900 =( LENGTH_UNIT ( ) NAMED_UNIT ( * ) SI_UNIT ( .MILLI., .METRE. ) );
#901 = PLANE ( 'NONE',  #167 ) ;
#902 = FILL_AREA_STYLE ('',( #121 ) ) ;
#903 = ORIENTED_EDGE ( 'NONE', *, *, #348, .F. ) ;
#904 = LINE ( 'NONE', #276, #411 ) ;
#905 = FACE_OUTER_BOUND ( 'NONE', #423, .T. ) ;
#906 = DIRECTION ( 'NONE',  ( -1.000000000000000000, 0.000000000000000000, -0.000000000000000000 ) ) ;
#907 = DIRECTION ( 'NONE',  ( -1.000000000000000000, -0.000000000000000000, -0.000000000000000000 ) ) ;
#908 = CARTESIAN_POINT ( 'NONE',  ( 0.000000000000000000, 0.000000000000000000, 0.05080000000000000487 ) ) ;
#909 = ADVANCED_FACE ( 'NONE', ( #395 ), #625, .F. ) ;
#910 = CARTESIAN_POINT ( 'NONE',  ( 9.999999999999994671, 0.000000000000000000, -33.94920000000001181 ) ) ;
#911 = UNCERTAINTY_MEASURE_WITH_UNIT (LENGTH_MEASURE( 1.000000000000000082E-05 ), #195, 'distance_accuracy_value', 'NONE');
#912 = CARTESIAN_POINT ( 'NONE',  ( 9.999999999999994671, 131.0000000000000000, 0.000000000000000000 ) ) ;
#913 = AXIS2_PLACEMENT_3D ( 'NONE', #115, #546, #542 ) ;
#914 = PRESENTATION_LAYER_ASSIGNMENT (  '', '', ( #148 ) ) ;
#915 = PRESENTATION_STYLE_ASSIGNMENT (( #480 ) ) ;
#916 = DIRECTION ( 'NONE',  ( 0.000000000000000000, 0.000000000000000000, 1.000000000000000000 ) ) ;
ENDSEC;
END-ISO-10303-21;
