ISO-10303-21;
HEADER;
FILE_DESCRIPTION (( 'STEP AP214' ),
    '1' );
FILE_NAME ('561-00011-00.step',
    '2026-02-27T00:19:40',
    ( '' ),
    ( '' ),
    'SwSTEP 2.0',
    'SolidWorks 2023',
    '' );
FILE_SCHEMA (( 'AUTOMOTIVE_DESIGN' ));
ENDSEC;

DATA;
#1 = DIRECTION ( 'NONE',  ( 1.000000000000000000, 0.000000000000000000, 0.000000000000000000 ) ) ;
#2 = PRODUCT ( '561-00011-00', '561-00011-00', '', ( #108 ) ) ;
#3 = VERTEX_POINT ( 'NONE', #295 ) ;
#4 = LINE ( 'NONE', #712, #427 ) ;
#5 = CARTESIAN_POINT ( 'NONE',  ( -70.00000000000000000, 12.21399999999999153, 0.05080000000000000487 ) ) ;
#6 = FILL_AREA_STYLE ('',( #501 ) ) ;
#7 = STYLED_ITEM ( 'NONE', ( #145 ), #216 ) ;
#8 = ORIENTED_EDGE ( 'NONE', *, *, #90, .T. ) ;
#9 = DIRECTION ( 'NONE',  ( 0.000000000000000000, -0.000000000000000000, 1.000000000000000000 ) ) ;
#10 = SURFACE_SIDE_STYLE ('',( #13 ) ) ;
#11 = VERTEX_POINT ( 'NONE', #197 ) ;
#12 = EDGE_CURVE ( 'NONE', #292, #682, #523, .T. ) ;
#13 = SURFACE_STYLE_FILL_AREA ( #620 ) ;
#14 = VERTEX_POINT ( 'NONE', #357 ) ;
#15 = DIRECTION ( 'NONE',  ( 1.234565977428749488E-16, -1.000000000000000000, -0.000000000000000000 ) ) ;
#16 = STYLED_ITEM ( 'NONE', ( #104 ), #220 ) ;
#17 = ORIENTED_EDGE ( 'NONE', *, *, #671, .F. ) ;
#18 = LINE ( 'NONE', #451, #335 ) ;
#19 = FACE_OUTER_BOUND ( 'NONE', #343, .T. ) ;
#20 = EDGE_CURVE ( 'NONE', #236, #188, #526, .T. ) ;
#21 = EDGE_LOOP ( 'NONE', ( #17, #544, #568, #677, #264, #442, #459, #389 ) ) ;
#22 = DIRECTION ( 'NONE',  ( 0.000000000000000000, 1.000000000000000000, 0.000000000000000000 ) ) ;
#23 = CARTESIAN_POINT ( 'NONE',  ( 67.00000000000000000, 2.214000000000008850, 0.05080000000000000487 ) ) ;
#24 = DIRECTION ( 'NONE',  ( -1.000000000000000000, -1.139599363780384048E-16, 0.000000000000000000 ) ) ;
#25 = DIRECTION ( 'NONE',  ( -1.000000000000000000, 0.000000000000000000, 0.000000000000000000 ) ) ;
#26 = COLOUR_RGB ( '',0.9882352941176471006, 0.7372549019607843590, 0.5176470588235293491 ) ;
#27 = PRESENTATION_LAYER_ASSIGNMENT (  '', '', ( #7 ) ) ;
#28 = COLOUR_RGB ( '',0.5019607843137254832, 1.000000000000000000, 1.000000000000000000 ) ;
#29 = ORIENTED_EDGE ( 'NONE', *, *, #565, .T. ) ;
#30 =( GEOMETRIC_REPRESENTATION_CONTEXT ( 3 ) GLOBAL_UNCERTAINTY_ASSIGNED_CONTEXT ( ( #312 ) ) GLOBAL_UNIT_ASSIGNED_CONTEXT ( ( #627, #71, #129 ) ) REPRESENTATION_CONTEXT ( 'NONE', 'WORKASPACE' ) );
#31 = DIRECTION ( 'NONE',  ( 1.000000000000000000, 0.000000000000000000, 0.000000000000000000 ) ) ;
#32 = EDGE_CURVE ( 'NONE', #175, #400, #702, .T. ) ;
#33 = SURFACE_STYLE_FILL_AREA ( #406 ) ;
#34 = FILL_AREA_STYLE_COLOUR ( '', #437 ) ;
#35 = DIRECTION ( 'NONE',  ( 0.000000000000000000, 1.000000000000000000, 0.000000000000000000 ) ) ;
#36 = SURFACE_STYLE_FILL_AREA ( #528 ) ;
#37 = DIRECTION ( 'NONE',  ( 1.000000000000000000, 0.000000000000000000, -0.000000000000000000 ) ) ;
#38 = CARTESIAN_POINT ( 'NONE',  ( -70.00000000000000000, 12.21399999999999153, 0.05080000000000000487 ) ) ;
#39 = SURFACE_SIDE_STYLE ('',( #643 ) ) ;
#40 = ORIENTED_EDGE ( 'NONE', *, *, #684, .F. ) ;
#41 = COLOUR_RGB ( '',0.5019607843137254832, 1.000000000000000000, 1.000000000000000000 ) ;
#42 =( NAMED_UNIT ( * ) PLANE_ANGLE_UNIT ( ) SI_UNIT ( $, .RADIAN. ) );
#43 = VECTOR ( 'NONE', #176, 1000.000000000000000 ) ;
#44 = LINE ( 'NONE', #215, #676 ) ;
#45 = MECHANICAL_DESIGN_GEOMETRIC_PRESENTATION_REPRESENTATION (  '', ( #302 ), #430 ) ;
#46 =( NAMED_UNIT ( * ) PLANE_ANGLE_UNIT ( ) SI_UNIT ( $, .RADIAN. ) );
#47 = DIRECTION ( 'NONE',  ( 1.448669246552541881E-16, 0.000000000000000000, -1.000000000000000000 ) ) ;
#48 = ORIENTED_EDGE ( 'NONE', *, *, #483, .T. ) ;
#49 = DIRECTION ( 'NONE',  ( 1.000000000000000000, 0.000000000000000000, -0.000000000000000000 ) ) ;
#50 = EDGE_LOOP ( 'NONE', ( #114, #61, #386, #554, #467, #489, #256, #78 ) ) ;
#51 = CARTESIAN_POINT ( 'NONE',  ( -70.00000000000000000, 2.213999999999991974, 0.05080000000000000487 ) ) ;
#52 = CARTESIAN_POINT ( 'NONE',  ( -70.00000000000000000, 2.213999999999991974, 34.00000000000000000 ) ) ;
#53 = UNCERTAINTY_MEASURE_WITH_UNIT (LENGTH_MEASURE( 1.000000000000000082E-05 ), #654, 'distance_accuracy_value', 'NONE');
#54 = ORIENTED_EDGE ( 'NONE', *, *, #433, .T. ) ;
#55 = DIRECTION ( 'NONE',  ( -0.000000000000000000, -0.000000000000000000, -1.000000000000000000 ) ) ;
#56 = DIRECTION ( 'NONE',  ( 1.000000000000000000, 1.234565977428749488E-16, 0.000000000000000000 ) ) ;
#57 =( NAMED_UNIT ( * ) PLANE_ANGLE_UNIT ( ) SI_UNIT ( $, .RADIAN. ) );
#58 = VERTEX_POINT ( 'NONE', #91 ) ;
#59 = DIRECTION ( 'NONE',  ( 1.234565977428749488E-16, -1.000000000000000000, -0.000000000000000000 ) ) ;
#60 =( LENGTH_UNIT ( ) NAMED_UNIT ( * ) SI_UNIT ( .MILLI., .METRE. ) );
#61 = ORIENTED_EDGE ( 'NONE', *, *, #453, .T. ) ;
#62 = COLOUR_RGB ( '',0.9882352941176471006, 0.7372549019607843590, 0.5176470588235293491 ) ;
#63 = DIRECTION ( 'NONE',  ( 1.000000000000000000, 0.000000000000000000, -0.000000000000000000 ) ) ;
#64 = MECHANICAL_DESIGN_GEOMETRIC_PRESENTATION_REPRESENTATION (  '', ( #675 ), #346 ) ;
#65 = STYLED_ITEM ( 'NONE', ( #74 ), #519 ) ;
#66 = EDGE_CURVE ( 'NONE', #340, #326, #239, .T. ) ;
#67 = VERTEX_POINT ( 'NONE', #303 ) ;
#68 = CARTESIAN_POINT ( 'NONE',  ( 67.00000000000000000, 2.214000000000008850, 0.000000000000000000 ) ) ;
#69 =( NAMED_UNIT ( * ) SI_UNIT ( $, .STERADIAN. ) SOLID_ANGLE_UNIT ( ) );
#70 = ORIENTED_EDGE ( 'NONE', *, *, #90, .F. ) ;
#71 =( NAMED_UNIT ( * ) PLANE_ANGLE_UNIT ( ) SI_UNIT ( $, .RADIAN. ) );
#72 = CARTESIAN_POINT ( 'NONE',  ( 67.00000000000000000, 12.21400000000000752, 205.3644786689776254 ) ) ;
#73 = ORIENTED_EDGE ( 'NONE', *, *, #543, .F. ) ;
#74 = PRESENTATION_STYLE_ASSIGNMENT (( #441 ) ) ;
#75 = EDGE_CURVE ( 'NONE', #175, #305, #645, .T. ) ;
#76 = PRESENTATION_LAYER_ASSIGNMENT (  '', '', ( #675 ) ) ;
#77 = VECTOR ( 'NONE', #22, 1000.000000000000000 ) ;
#78 = ORIENTED_EDGE ( 'NONE', *, *, #315, .F. ) ;
#79 = LINE ( 'NONE', #709, #537 ) ;
#80 = PLANE ( 'NONE',  #322 ) ;
#81 = UNCERTAINTY_MEASURE_WITH_UNIT (LENGTH_MEASURE( 1.000000000000000082E-05 ), #656, 'distance_accuracy_value', 'NONE');
#82 = ORIENTED_EDGE ( 'NONE', *, *, #714, .F. ) ;
#83 = CARTESIAN_POINT ( 'NONE',  ( 67.00000000000000000, 2.214000000000008850, 0.000000000000000000 ) ) ;
#84 = FILL_AREA_STYLE_COLOUR ( '', #180 ) ;
#85 = CARTESIAN_POINT ( 'NONE',  ( 67.00000000000000000, 12.21400000000000752, 0.05080000000000000487 ) ) ;
#86 = DIRECTION ( 'NONE',  ( 0.000000000000000000, 0.000000000000000000, 1.000000000000000000 ) ) ;
#87 =( GEOMETRIC_REPRESENTATION_CONTEXT ( 3 ) GLOBAL_UNCERTAINTY_ASSIGNED_CONTEXT ( ( #716 ) ) GLOBAL_UNIT_ASSIGNED_CONTEXT ( ( #105, #57, #597 ) ) REPRESENTATION_CONTEXT ( 'NONE', 'WORKASPACE' ) );
#88 = VECTOR ( 'NONE', #126, 1000.000000000000000 ) ;
#89 = VECTOR ( 'NONE', #276, 1000.000000000000000 ) ;
#90 = EDGE_CURVE ( 'NONE', #236, #292, #410, .T. ) ;
#91 = CARTESIAN_POINT ( 'NONE',  ( 16.75000000000000000, 2.214000000000003077, 34.00000000000000000 ) ) ;
#92 = LINE ( 'NONE', #198, #601 ) ;
#93 = PLANE ( 'NONE',  #233 ) ;
#94 = SURFACE_STYLE_USAGE ( .BOTH. , #476 ) ;
#95 =( NAMED_UNIT ( * ) SI_UNIT ( $, .STERADIAN. ) SOLID_ANGLE_UNIT ( ) );
#96 = SURFACE_STYLE_FILL_AREA ( #695 ) ;
#97 = EDGE_CURVE ( 'NONE', #14, #185, #408, .T. ) ;
#98 = PRESENTATION_STYLE_ASSIGNMENT (( #713 ) ) ;
#99 = ADVANCED_BREP_SHAPE_REPRESENTATION ( '561-00011-00', ( #649, #165, #172 ), #162 ) ;
#100 = AXIS2_PLACEMENT_3D ( 'NONE', #717, #313, #606 ) ;
#101 = PRESENTATION_LAYER_ASSIGNMENT (  '', '', ( #405 ) ) ;
#102 = MECHANICAL_DESIGN_GEOMETRIC_PRESENTATION_REPRESENTATION (  '', ( #334 ), #439 ) ;
#103 = CARTESIAN_POINT ( 'NONE',  ( 16.75000000000000000, 2.214000000000003077, 34.00000000000000000 ) ) ;
#104 = PRESENTATION_STYLE_ASSIGNMENT (( #273 ) ) ;
#105 =( LENGTH_UNIT ( ) NAMED_UNIT ( * ) SI_UNIT ( .MILLI., .METRE. ) );
#106 = PRESENTATION_STYLE_ASSIGNMENT (( #219 ) ) ;
#107 = EDGE_CURVE ( 'NONE', #305, #11, #414, .T. ) ;
#108 = PRODUCT_CONTEXT ( 'NONE', #226, 'mechanical' ) ;
#109 = ORIENTED_EDGE ( 'NONE', *, *, #120, .F. ) ;
#110 = DIRECTION ( 'NONE',  ( -1.000000000000000000, -1.139599363780384048E-16, 0.000000000000000000 ) ) ;
#111 = SURFACE_STYLE_USAGE ( .BOTH. , #610 ) ;
#112 =( GEOMETRIC_REPRESENTATION_CONTEXT ( 3 ) GLOBAL_UNCERTAINTY_ASSIGNED_CONTEXT ( ( #486 ) ) GLOBAL_UNIT_ASSIGNED_CONTEXT ( ( #518, #46, #711 ) ) REPRESENTATION_CONTEXT ( 'NONE', 'WORKASPACE' ) );
#113 =( NAMED_UNIT ( * ) SI_UNIT ( $, .STERADIAN. ) SOLID_ANGLE_UNIT ( ) );
#114 = ORIENTED_EDGE ( 'NONE', *, *, #475, .F. ) ;
#115 = DIRECTION ( 'NONE',  ( 1.000000000000000000, 0.000000000000000000, -0.000000000000000000 ) ) ;
#116 =( LENGTH_UNIT ( ) NAMED_UNIT ( * ) SI_UNIT ( .MILLI., .METRE. ) );
#117 = ORIENTED_EDGE ( 'NONE', *, *, #453, .F. ) ;
#118 = DIRECTION ( 'NONE',  ( 1.000000000000000000, 1.234565977428749488E-16, -0.000000000000000000 ) ) ;
#119 =( NAMED_UNIT ( * ) PLANE_ANGLE_UNIT ( ) SI_UNIT ( $, .RADIAN. ) );
#120 = EDGE_CURVE ( 'NONE', #363, #551, #636, .T. ) ;
#121 = ORIENTED_EDGE ( 'NONE', *, *, #661, .T. ) ;
#122 = CARTESIAN_POINT ( 'NONE',  ( -70.00000000000000000, 12.21399999999999153, 0.05080000000000000487 ) ) ;
#123 = MECHANICAL_DESIGN_GEOMETRIC_PRESENTATION_REPRESENTATION (  '', ( #650 ), #206 ) ;
#124 = UNCERTAINTY_MEASURE_WITH_UNIT (LENGTH_MEASURE( 1.000000000000000082E-05 ), #477, 'distance_accuracy_value', 'NONE');
#125 = ORIENTED_EDGE ( 'NONE', *, *, #20, .T. ) ;
#126 = DIRECTION ( 'NONE',  ( 0.000000000000000000, -1.000000000000000000, 0.000000000000000000 ) ) ;
#127 = ADVANCED_FACE ( 'NONE', ( #353 ), #350, .F. ) ;
#128 = ORIENTED_EDGE ( 'NONE', *, *, #315, .T. ) ;
#129 =( NAMED_UNIT ( * ) SI_UNIT ( $, .STERADIAN. ) SOLID_ANGLE_UNIT ( ) );
#130 = UNCERTAINTY_MEASURE_WITH_UNIT (LENGTH_MEASURE( 1.000000000000000082E-05 ), #706, 'distance_accuracy_value', 'NONE');
#131 = EDGE_LOOP ( 'NONE', ( #603, #82, #639, #54 ) ) ;
#132 = LINE ( 'NONE', #68, #291 ) ;
#133 = SURFACE_SIDE_STYLE ('',( #681 ) ) ;
#134 = COLOUR_RGB ( '',0.9882352941176471006, 0.7372549019607843590, 0.5176470588235293491 ) ;
#135 = VECTOR ( 'NONE', #237, 1000.000000000000000 ) ;
#136 = DIRECTION ( 'NONE',  ( -1.448669246552541881E-16, -0.000000000000000000, 1.000000000000000000 ) ) ;
#137 = SURFACE_STYLE_FILL_AREA ( #583 ) ;
#138 =( NAMED_UNIT ( * ) PLANE_ANGLE_UNIT ( ) SI_UNIT ( $, .RADIAN. ) );
#139 = DIRECTION ( 'NONE',  ( 1.000000000000000000, 1.234565977428749488E-16, -0.000000000000000000 ) ) ;
#140 = FILL_AREA_STYLE ('',( #84 ) ) ;
#141 = CARTESIAN_POINT ( 'NONE',  ( 67.00000000000000000, 2.214000000000008850, 0.05080000000000000487 ) ) ;
#142 = EDGE_CURVE ( 'NONE', #287, #682, #657, .T. ) ;
#143 = ORIENTED_EDGE ( 'NONE', *, *, #294, .T. ) ;
#144 = CARTESIAN_POINT ( 'NONE',  ( 67.00000000000000000, 2.214000000000008850, 0.05080000000000000487 ) ) ;
#145 = PRESENTATION_STYLE_ASSIGNMENT (( #251 ) ) ;
#146 = MECHANICAL_DESIGN_GEOMETRIC_PRESENTATION_REPRESENTATION (  '', ( #571 ), #612 ) ;
#147 = FILL_AREA_STYLE_COLOUR ( '', #213 ) ;
#148 =( NAMED_UNIT ( * ) SI_UNIT ( $, .STERADIAN. ) SOLID_ANGLE_UNIT ( ) );
#149 = SURFACE_STYLE_USAGE ( .BOTH. , #243 ) ;
#150 = ORIENTED_EDGE ( 'NONE', *, *, #433, .F. ) ;
#151 = CARTESIAN_POINT ( 'NONE',  ( 0.000000000000000000, 0.000000000000000000, 0.000000000000000000 ) ) ;
#152 = EDGE_CURVE ( 'NONE', #11, #67, #540, .T. ) ;
#153 =( NAMED_UNIT ( * ) PLANE_ANGLE_UNIT ( ) SI_UNIT ( $, .RADIAN. ) );
#154 = SURFACE_SIDE_STYLE ('',( #522 ) ) ;
#155 = DIRECTION ( 'NONE',  ( 1.000000000000000000, 1.234565977428749488E-16, 1.448669246552541881E-16 ) ) ;
#156 =( NAMED_UNIT ( * ) SI_UNIT ( $, .STERADIAN. ) SOLID_ANGLE_UNIT ( ) );
#157 = VECTOR ( 'NONE', #200, 1000.000000000000000 ) ;
#158 = FILL_AREA_STYLE_COLOUR ( '', #26 ) ;
#159 = VECTOR ( 'NONE', #366, 1000.000000000000000 ) ;
#160 =( GEOMETRIC_REPRESENTATION_CONTEXT ( 3 ) GLOBAL_UNCERTAINTY_ASSIGNED_CONTEXT ( ( #696 ) ) GLOBAL_UNIT_ASSIGNED_CONTEXT ( ( #418, #530, #266 ) ) REPRESENTATION_CONTEXT ( 'NONE', 'WORKASPACE' ) );
#161 = AXIS2_PLACEMENT_3D ( 'NONE', #186, #9, #183 ) ;
#162 =( GEOMETRIC_REPRESENTATION_CONTEXT ( 3 ) GLOBAL_UNCERTAINTY_ASSIGNED_CONTEXT ( ( #653 ) ) GLOBAL_UNIT_ASSIGNED_CONTEXT ( ( #532, #42, #95 ) ) REPRESENTATION_CONTEXT ( 'NONE', 'WORKASPACE' ) );
#163 = UNCERTAINTY_MEASURE_WITH_UNIT (LENGTH_MEASURE( 1.000000000000000082E-05 ), #290, 'distance_accuracy_value', 'NONE');
#164 = CARTESIAN_POINT ( 'NONE',  ( 17.25000000000000000, 12.21400000000001818, 34.00000000000000000 ) ) ;
#165 = MANIFOLD_SOLID_BREP ( 'Cut-Extrude1', #520 ) ;
#166 = FACE_OUTER_BOUND ( 'NONE', #21, .T. ) ;
#167 = FILL_AREA_STYLE ('',( #274 ) ) ;
#168 = SURFACE_STYLE_FILL_AREA ( #480 ) ;
#169 = FILL_AREA_STYLE_COLOUR ( '', #134 ) ;
#170 = MECHANICAL_DESIGN_GEOMETRIC_PRESENTATION_REPRESENTATION (  '', ( #359 ), #112 ) ;
#171 = CARTESIAN_POINT ( 'NONE',  ( -70.00000000000000000, 12.21399999999999153, 0.000000000000000000 ) ) ;
#172 = AXIS2_PLACEMENT_3D ( 'NONE', #151, #596, #1 ) ;
#173 = ORIENTED_EDGE ( 'NONE', *, *, #565, .F. ) ;
#174 = ADVANCED_FACE ( 'NONE', ( #375 ), #482, .F. ) ;
#175 = VERTEX_POINT ( 'NONE', #247 ) ;
#176 = DIRECTION ( 'NONE',  ( 1.000000000000000000, 0.000000000000000000, 0.000000000000000000 ) ) ;
#177 =( LENGTH_UNIT ( ) NAMED_UNIT ( * ) SI_UNIT ( .MILLI., .METRE. ) );
#178 = ORIENTED_EDGE ( 'NONE', *, *, #32, .T. ) ;
#179 = PRESENTATION_STYLE_ASSIGNMENT (( #576 ) ) ;
#180 = COLOUR_RGB ( '',0.5019607843137254832, 1.000000000000000000, 1.000000000000000000 ) ;
#181 = VECTOR ( 'NONE', #591, 1000.000000000000000 ) ;
#182 = ORIENTED_EDGE ( 'NONE', *, *, #605, .T. ) ;
#183 = DIRECTION ( 'NONE',  ( 1.000000000000000000, 0.000000000000000000, -0.000000000000000000 ) ) ;
#184 = PRESENTATION_STYLE_ASSIGNMENT (( #348 ) ) ;
#185 = VERTEX_POINT ( 'NONE', #210 ) ;
#186 = CARTESIAN_POINT ( 'NONE',  ( 0.000000000000000000, 0.000000000000000000, 34.00000000000000000 ) ) ;
#187 = DIRECTION ( 'NONE',  ( 0.000000000000000000, -0.000000000000000000, 1.000000000000000000 ) ) ;
#188 = VERTEX_POINT ( 'NONE', #258 ) ;
#189 = CARTESIAN_POINT ( 'NONE',  ( -70.00000000000000000, 12.21399999999999153, 34.00000000000000000 ) ) ;
#190 = STYLED_ITEM ( 'NONE', ( #238 ), #356 ) ;
#191 =( GEOMETRIC_REPRESENTATION_CONTEXT ( 3 ) GLOBAL_UNCERTAINTY_ASSIGNED_CONTEXT ( ( #470 ) ) GLOBAL_UNIT_ASSIGNED_CONTEXT ( ( #351, #694, #464 ) ) REPRESENTATION_CONTEXT ( 'NONE', 'WORKASPACE' ) );
#192 = PRODUCT_DEFINITION_FORMATION_WITH_SPECIFIED_SOURCE ( 'ANY', '', #2, .NOT_KNOWN. ) ;
#193 = ORIENTED_EDGE ( 'NONE', *, *, #75, .T. ) ;
#194 = ADVANCED_FACE ( 'NONE', ( #421 ), #466, .T. ) ;
#195 = SURFACE_STYLE_USAGE ( .BOTH. , #525 ) ;
#196 =( NAMED_UNIT ( * ) SI_UNIT ( $, .STERADIAN. ) SOLID_ANGLE_UNIT ( ) );
#197 = CARTESIAN_POINT ( 'NONE',  ( 67.00000000000000000, 2.214000000000008850, 0.05080000000000000487 ) ) ;
#198 = CARTESIAN_POINT ( 'NONE',  ( 16.75000000000000355, 2.214000000000003077, 10.05079999999999885 ) ) ;
#199 = CARTESIAN_POINT ( 'NONE',  ( -70.00000000000000000, 2.213999999999991974, 0.000000000000000000 ) ) ;
#200 = DIRECTION ( 'NONE',  ( -1.000000000000000000, -1.139599363780384048E-16, 0.000000000000000000 ) ) ;
#201 = DIRECTION ( 'NONE',  ( -1.234565977428749488E-16, 1.000000000000000000, 0.000000000000000000 ) ) ;
#202 = PLANE ( 'NONE',  #344 ) ;
#203 =( GEOMETRIC_REPRESENTATION_CONTEXT ( 3 ) GLOBAL_UNCERTAINTY_ASSIGNED_CONTEXT ( ( #81 ) ) GLOBAL_UNIT_ASSIGNED_CONTEXT ( ( #656, #665, #316 ) ) REPRESENTATION_CONTEXT ( 'NONE', 'WORKASPACE' ) );
#204 = PRESENTATION_LAYER_ASSIGNMENT (  '', '', ( #509 ) ) ;
#205 = ADVANCED_FACE ( 'NONE', ( #362 ), #202, .F. ) ;
#206 =( GEOMETRIC_REPRESENTATION_CONTEXT ( 3 ) GLOBAL_UNCERTAINTY_ASSIGNED_CONTEXT ( ( #298 ) ) GLOBAL_UNIT_ASSIGNED_CONTEXT ( ( #265, #669, #611 ) ) REPRESENTATION_CONTEXT ( 'NONE', 'WORKASPACE' ) );
#207 = CARTESIAN_POINT ( 'NONE',  ( -70.00000000000000000, 2.213999999999991974, 0.05080000000000000487 ) ) ;
#208 = CARTESIAN_POINT ( 'NONE',  ( 67.00000000000000000, 12.21400000000000752, 0.000000000000000000 ) ) ;
#209 = FILL_AREA_STYLE_COLOUR ( '', #686 ) ;
#210 = CARTESIAN_POINT ( 'NONE',  ( 17.25000000000000000, 2.214000000000003077, 34.00000000000000000 ) ) ;
#211 = SURFACE_STYLE_USAGE ( .BOTH. , #416 ) ;
#212 = DIRECTION ( 'NONE',  ( 0.000000000000000000, -0.000000000000000000, 1.000000000000000000 ) ) ;
#213 = COLOUR_RGB ( '',0.9882352941176471006, 0.7372549019607843590, 0.5176470588235293491 ) ;
#214 = VECTOR ( 'NONE', #55, 1000.000000000000000 ) ;
#215 = CARTESIAN_POINT ( 'NONE',  ( 16.75000000000000000, 12.21400000000001818, 34.00000000000000000 ) ) ;
#216 = ADVANCED_FACE ( 'NONE', ( #594 ), #301, .F. ) ;
#217 = CARTESIAN_POINT ( 'NONE',  ( 16.75000000000000355, 12.21400000000001818, 10.05079999999999885 ) ) ;
#218 = UNCERTAINTY_MEASURE_WITH_UNIT (LENGTH_MEASURE( 1.000000000000000082E-05 ), #352, 'distance_accuracy_value', 'NONE');
#219 = SURFACE_STYLE_USAGE ( .BOTH. , #722 ) ;
#220 = ADVANCED_FACE ( 'NONE', ( #434 ), #277, .F. ) ;
#221 = VERTEX_POINT ( 'NONE', #52 ) ;
#222 = FILL_AREA_STYLE_COLOUR ( '', #615 ) ;
#223 = ORIENTED_EDGE ( 'NONE', *, *, #499, .F. ) ;
#224 =( LENGTH_UNIT ( ) NAMED_UNIT ( * ) SI_UNIT ( .MILLI., .METRE. ) );
#225 = FILL_AREA_STYLE_COLOUR ( '', #242 ) ;
#226 = APPLICATION_CONTEXT ( 'automotive_design' ) ;
#227 = EDGE_LOOP ( 'NONE', ( #40, #128, #234, #223 ) ) ;
#228 = ADVANCED_FACE ( 'NONE', ( #166 ), #425, .F. ) ;
#229 = EDGE_LOOP ( 'NONE', ( #618, #687, #500, #505 ) ) ;
#230 =( NAMED_UNIT ( * ) PLANE_ANGLE_UNIT ( ) SI_UNIT ( $, .RADIAN. ) );
#231 = AXIS2_PLACEMENT_3D ( 'NONE', #628, #339, #567 ) ;
#232 = LINE ( 'NONE', #508, #241 ) ;
#233 = AXIS2_PLACEMENT_3D ( 'NONE', #384, #212, #115 ) ;
#234 = ORIENTED_EDGE ( 'NONE', *, *, #278, .T. ) ;
#235 = PLANE ( 'NONE',  #647 ) ;
#236 = VERTEX_POINT ( 'NONE', #321 ) ;
#237 = DIRECTION ( 'NONE',  ( -1.000000000000000000, -1.139599363780384048E-16, 0.000000000000000000 ) ) ;
#238 = PRESENTATION_STYLE_ASSIGNMENT (( #589 ) ) ;
#239 = LINE ( 'NONE', #83, #159 ) ;
#240 = DIRECTION ( 'NONE',  ( 0.000000000000000000, 0.000000000000000000, 1.000000000000000000 ) ) ;
#241 = VECTOR ( 'NONE', #342, 1000.000000000000000 ) ;
#242 = COLOUR_RGB ( '',0.9882352941176471006, 0.7372549019607843590, 0.5176470588235293491 ) ;
#243 = SURFACE_SIDE_STYLE ('',( #580 ) ) ;
#244 = VECTOR ( 'NONE', #401, 1000.000000000000000 ) ;
#245 = PRESENTATION_STYLE_ASSIGNMENT (( #578 ) ) ;
#246 =( NAMED_UNIT ( * ) SI_UNIT ( $, .STERADIAN. ) SOLID_ANGLE_UNIT ( ) );
#247 = CARTESIAN_POINT ( 'NONE',  ( -70.00000000000000000, 12.21399999999999153, 0.05080000000000000487 ) ) ;
#248 = DIRECTION ( 'NONE',  ( -0.000000000000000000, -1.000000000000000000, -0.000000000000000000 ) ) ;
#249 = CARTESIAN_POINT ( 'NONE',  ( 16.75000000000000355, 12.21400000000001818, 10.05079999999999885 ) ) ;
#250 = EDGE_CURVE ( 'NONE', #621, #188, #604, .T. ) ;
#251 = SURFACE_STYLE_USAGE ( .BOTH. , #39 ) ;
#252 = CARTESIAN_POINT ( 'NONE',  ( 67.00000000000000000, 12.21400000000000752, 0.05080000000000000487 ) ) ;
#253 = CARTESIAN_POINT ( 'NONE',  ( 17.25000000000000000, 12.21400000000001818, 34.00000000000000000 ) ) ;
#254 = PRESENTATION_LAYER_ASSIGNMENT (  '', '', ( #571 ) ) ;
#255 =( GEOMETRIC_REPRESENTATION_CONTEXT ( 3 ) GLOBAL_UNCERTAINTY_ASSIGNED_CONTEXT ( ( #124 ) ) GLOBAL_UNIT_ASSIGNED_CONTEXT ( ( #477, #368, #113 ) ) REPRESENTATION_CONTEXT ( 'NONE', 'WORKASPACE' ) );
#256 = ORIENTED_EDGE ( 'NONE', *, *, #120, .T. ) ;
#257 = CARTESIAN_POINT ( 'NONE',  ( -70.00000000000000000, 2.213999999999991974, 34.00000000000000000 ) ) ;
#258 = CARTESIAN_POINT ( 'NONE',  ( 67.00000000000000000, 2.214000000000008850, 0.05080000000000000487 ) ) ;
#259 = SURFACE_STYLE_FILL_AREA ( #724 ) ;
#260 = ORIENTED_EDGE ( 'NONE', *, *, #644, .F. ) ;
#261 = CARTESIAN_POINT ( 'NONE',  ( 67.00000000000000000, 2.214000000000008850, 0.05080000000000000487 ) ) ;
#262 = SURFACE_SIDE_STYLE ('',( #369 ) ) ;
#263 = EDGE_CURVE ( 'NONE', #682, #185, #670, .T. ) ;
#264 = ORIENTED_EDGE ( 'NONE', *, *, #250, .T. ) ;
#265 =( LENGTH_UNIT ( ) NAMED_UNIT ( * ) SI_UNIT ( .MILLI., .METRE. ) );
#266 =( NAMED_UNIT ( * ) SI_UNIT ( $, .STERADIAN. ) SOLID_ANGLE_UNIT ( ) );
#267 = VECTOR ( 'NONE', #517, 1000.000000000000000 ) ;
#268 = COLOUR_RGB ( '',0.9882352941176471006, 0.7372549019607843590, 0.5176470588235293491 ) ;
#269 = PRESENTATION_LAYER_ASSIGNMENT (  '', '', ( #588 ) ) ;
#270 = APPLICATION_PROTOCOL_DEFINITION ( 'draft international standard', 'automotive_design', 1998, #226 ) ;
#271 = ORIENTED_EDGE ( 'NONE', *, *, #263, .F. ) ;
#272 = LINE ( 'NONE', #103, #89 ) ;
#273 = SURFACE_STYLE_USAGE ( .BOTH. , #317 ) ;
#274 = FILL_AREA_STYLE_COLOUR ( '', #62 ) ;
#275 = EDGE_LOOP ( 'NONE', ( #70, #125, #566, #705 ) ) ;
#276 = DIRECTION ( 'NONE',  ( 1.448669246552541881E-16, 0.000000000000000000, -1.000000000000000000 ) ) ;
#277 = PLANE ( 'NONE',  #561 ) ;
#278 = EDGE_CURVE ( 'NONE', #551, #621, #494, .T. ) ;
#279 = CARTESIAN_POINT ( 'NONE',  ( -70.00000000000000000, 2.213999999999991974, 0.000000000000000000 ) ) ;
#280 = MECHANICAL_DESIGN_GEOMETRIC_PRESENTATION_REPRESENTATION (  '', ( #331 ), #674 ) ;
#281 = ORIENTED_EDGE ( 'NONE', *, *, #294, .F. ) ;
#282 = STYLED_ITEM ( 'NONE', ( #179 ), #324 ) ;
#283 = ORIENTED_EDGE ( 'NONE', *, *, #465, .T. ) ;
#284 = SURFACE_STYLE_USAGE ( .BOTH. , #330 ) ;
#285 = ORIENTED_EDGE ( 'NONE', *, *, #75, .F. ) ;
#286 = FILL_AREA_STYLE ('',( #225 ) ) ;
#287 = VERTEX_POINT ( 'NONE', #513 ) ;
#288 = STYLED_ITEM ( 'NONE', ( #367 ), #174 ) ;
#289 = LINE ( 'NONE', #387, #562 ) ;
#290 =( LENGTH_UNIT ( ) NAMED_UNIT ( * ) SI_UNIT ( .MILLI., .METRE. ) );
#291 = VECTOR ( 'NONE', #118, 1000.000000000000000 ) ;
#292 = VERTEX_POINT ( 'NONE', #388 ) ;
#293 = CARTESIAN_POINT ( 'NONE',  ( -70.00000000000000000, 2.213999999999991974, 0.05080000000000000487 ) ) ;
#294 = EDGE_CURVE ( 'NONE', #305, #394, #456, .T. ) ;
#295 = CARTESIAN_POINT ( 'NONE',  ( 16.75000000000000000, 12.21400000000001818, 34.00000000000000000 ) ) ;
#296 = CARTESIAN_POINT ( 'NONE',  ( -70.00000000000000000, 12.21399999999999153, 34.00000000000000000 ) ) ;
#297 =( NAMED_UNIT ( * ) PLANE_ANGLE_UNIT ( ) SI_UNIT ( $, .RADIAN. ) );
#298 = UNCERTAINTY_MEASURE_WITH_UNIT (LENGTH_MEASURE( 1.000000000000000082E-05 ), #265, 'distance_accuracy_value', 'NONE');
#299 = MECHANICAL_DESIGN_GEOMETRIC_PRESENTATION_REPRESENTATION (  '', ( #282 ), #393 ) ;
#300 = VECTOR ( 'NONE', #673, 1000.000000000000000 ) ;
#301 = PLANE ( 'NONE',  #426 ) ;
#302 = STYLED_ITEM ( 'NONE', ( #245 ), #704 ) ;
#303 = CARTESIAN_POINT ( 'NONE',  ( 67.00000000000000000, 12.21400000000000752, 0.05080000000000000487 ) ) ;
#304 = LINE ( 'NONE', #189, #181 ) ;
#305 = VERTEX_POINT ( 'NONE', #516 ) ;
#306 = DIRECTION ( 'NONE',  ( 1.000000000000000000, 1.139599363780384048E-16, 0.000000000000000000 ) ) ;
#307 = FILL_AREA_STYLE_COLOUR ( '', #28 ) ;
#308 = DIRECTION ( 'NONE',  ( 0.000000000000000000, -0.000000000000000000, 1.000000000000000000 ) ) ;
#309 = MECHANICAL_DESIGN_GEOMETRIC_PRESENTATION_REPRESENTATION (  '', ( #288 ), #87 ) ;
#310 = PRESENTATION_LAYER_ASSIGNMENT (  '', '', ( #16 ) ) ;
#311 = MECHANICAL_DESIGN_GEOMETRIC_PRESENTATION_REPRESENTATION (  '', ( #549 ), #255 ) ;
#312 = UNCERTAINTY_MEASURE_WITH_UNIT (LENGTH_MEASURE( 1.000000000000000082E-05 ), #627, 'distance_accuracy_value', 'NONE');
#313 = DIRECTION ( 'NONE',  ( 0.000000000000000000, 0.000000000000000000, 1.000000000000000000 ) ) ;
#314 = DIRECTION ( 'NONE',  ( 1.000000000000000000, 1.234565977428749488E-16, 0.000000000000000000 ) ) ;
#315 = EDGE_CURVE ( 'NONE', #693, #551, #232, .T. ) ;
#316 =( NAMED_UNIT ( * ) SI_UNIT ( $, .STERADIAN. ) SOLID_ANGLE_UNIT ( ) );
#317 = SURFACE_SIDE_STYLE ('',( #432 ) ) ;
#318 = UNCERTAINTY_MEASURE_WITH_UNIT (LENGTH_MEASURE( 1.000000000000000082E-05 ), #177, 'distance_accuracy_value', 'NONE');
#319 = CARTESIAN_POINT ( 'NONE',  ( 67.00000000000000000, 2.214000000000008850, 0.05080000000000000487 ) ) ;
#320 = EDGE_LOOP ( 'NONE', ( #514, #329, #454, #260 ) ) ;
#321 = CARTESIAN_POINT ( 'NONE',  ( 67.00000000000000000, 2.214000000000008850, 34.00000000000000000 ) ) ;
#322 = AXIS2_PLACEMENT_3D ( 'NONE', #420, #25, #240 ) ;
#323 = PRESENTATION_LAYER_ASSIGNMENT (  '', '', ( #650 ) ) ;
#324 = ADVANCED_FACE ( 'NONE', ( #19 ), #235, .T. ) ;
#325 = CARTESIAN_POINT ( 'NONE',  ( -70.00000000000000000, 2.213999999999991974, 34.00000000000000000 ) ) ;
#326 = VERTEX_POINT ( 'NONE', #689 ) ;
#327 = LINE ( 'NONE', #325, #300 ) ;
#328 =( NAMED_UNIT ( * ) SI_UNIT ( $, .STERADIAN. ) SOLID_ANGLE_UNIT ( ) );
#329 = ORIENTED_EDGE ( 'NONE', *, *, #605, .F. ) ;
#330 = SURFACE_SIDE_STYLE ('',( #619 ) ) ;
#331 = STYLED_ITEM ( 'NONE', ( #590 ), #127 ) ;
#332 = VECTOR ( 'NONE', #59, 1000.000000000000000 ) ;
#333 = ORIENTED_EDGE ( 'NONE', *, *, #616, .T. ) ;
#334 = STYLED_ITEM ( 'NONE', ( #558 ), #625 ) ;
#335 = VECTOR ( 'NONE', #633, 1000.000000000000000 ) ;
#336 = EDGE_CURVE ( 'NONE', #292, #363, #444, .T. ) ;
#337 = ORIENTED_EDGE ( 'NONE', *, *, #616, .F. ) ;
#338 = CARTESIAN_POINT ( 'NONE',  ( -70.00000000000000000, 2.213999999999991974, 0.05080000000000000487 ) ) ;
#339 = DIRECTION ( 'NONE',  ( 1.139599363780384048E-16, -1.000000000000000000, 0.000000000000000000 ) ) ;
#340 = VERTEX_POINT ( 'NONE', #502 ) ;
#341 =( NAMED_UNIT ( * ) SI_UNIT ( $, .STERADIAN. ) SOLID_ANGLE_UNIT ( ) );
#342 = DIRECTION ( 'NONE',  ( -0.000000000000000000, -0.000000000000000000, -1.000000000000000000 ) ) ;
#343 = EDGE_LOOP ( 'NONE', ( #337, #641, #479, #492 ) ) ;
#344 = AXIS2_PLACEMENT_3D ( 'NONE', #141, #365, #86 ) ;
#345 = DIRECTION ( 'NONE',  ( -0.000000000000000000, -0.000000000000000000, -1.000000000000000000 ) ) ;
#346 =( GEOMETRIC_REPRESENTATION_CONTEXT ( 3 ) GLOBAL_UNCERTAINTY_ASSIGNED_CONTEXT ( ( #667 ) ) GLOBAL_UNIT_ASSIGNED_CONTEXT ( ( #60, #481, #156 ) ) REPRESENTATION_CONTEXT ( 'NONE', 'WORKASPACE' ) );
#347 = ADVANCED_FACE ( 'NONE', ( #634 ), #631, .F. ) ;
#348 = SURFACE_STYLE_USAGE ( .BOTH. , #133 ) ;
#349 = VECTOR ( 'NONE', #110, 1000.000000000000000 ) ;
#350 = PLANE ( 'NONE',  #623 ) ;
#351 =( LENGTH_UNIT ( ) NAMED_UNIT ( * ) SI_UNIT ( .MILLI., .METRE. ) );
#352 =( LENGTH_UNIT ( ) NAMED_UNIT ( * ) SI_UNIT ( .MILLI., .METRE. ) );
#353 = FACE_OUTER_BOUND ( 'NONE', #373, .T. ) ;
#354 = SURFACE_SIDE_STYLE ('',( #415 ) ) ;
#355 = CARTESIAN_POINT ( 'NONE',  ( 0.000000000000000000, 0.000000000000000000, 0.05080000000000000487 ) ) ;
#356 = ADVANCED_FACE ( 'NONE', ( #570 ), #80, .F. ) ;
#357 = CARTESIAN_POINT ( 'NONE',  ( 17.25000000000000355, 2.214000000000003077, 10.05079999999999885 ) ) ;
#358 = SURFACE_STYLE_USAGE ( .BOTH. , #354 ) ;
#359 = STYLED_ITEM ( 'NONE', ( #98 ), #194 ) ;
#360 = PRESENTATION_LAYER_ASSIGNMENT (  '', '', ( #190 ) ) ;
#361 = VECTOR ( 'NONE', #24, 1000.000000000000000 ) ;
#362 = FACE_OUTER_BOUND ( 'NONE', #131, .T. ) ;
#363 = VERTEX_POINT ( 'NONE', #85 ) ;
#364 = PRESENTATION_STYLE_ASSIGNMENT (( #195 ) ) ;
#365 = DIRECTION ( 'NONE',  ( -1.000000000000000000, 0.000000000000000000, 0.000000000000000000 ) ) ;
#366 = DIRECTION ( 'NONE',  ( 0.000000000000000000, 1.000000000000000000, 0.000000000000000000 ) ) ;
#367 = PRESENTATION_STYLE_ASSIGNMENT (( #111 ) ) ;
#368 =( NAMED_UNIT ( * ) PLANE_ANGLE_UNIT ( ) SI_UNIT ( $, .RADIAN. ) );
#369 = SURFACE_STYLE_FILL_AREA ( #374 ) ;
#370 = PRESENTATION_LAYER_ASSIGNMENT (  '', '', ( #697 ) ) ;
#371 = AXIS2_PLACEMENT_3D ( 'NONE', #51, #484, #719 ) ;
#372 = PRESENTATION_LAYER_ASSIGNMENT (  '', '', ( #302 ) ) ;
#373 = EDGE_LOOP ( 'NONE', ( #463, #271, #449, #29 ) ) ;
#374 = FILL_AREA_STYLE ('',( #169 ) ) ;
#375 = FACE_OUTER_BOUND ( 'NONE', #503, .T. ) ;
#376 = APPLICATION_CONTEXT ( 'automotive_design' ) ;
#377 = ORIENTED_EDGE ( 'NONE', *, *, #592, .F. ) ;
#378 = UNCERTAINTY_MEASURE_WITH_UNIT (LENGTH_MEASURE( 1.000000000000000082E-05 ), #651, 'distance_accuracy_value', 'NONE');
#379 = SURFACE_STYLE_FILL_AREA ( #167 ) ;
#380 = SURFACE_STYLE_USAGE ( .BOTH. , #262 ) ;
#381 =( GEOMETRIC_REPRESENTATION_CONTEXT ( 3 ) GLOBAL_UNCERTAINTY_ASSIGNED_CONTEXT ( ( #407 ) ) GLOBAL_UNIT_ASSIGNED_CONTEXT ( ( #116, #666, #328 ) ) REPRESENTATION_CONTEXT ( 'NONE', 'WORKASPACE' ) );
#382 = PRESENTATION_LAYER_ASSIGNMENT (  '', '', ( #334 ) ) ;
#383 = AXIS2_PLACEMENT_3D ( 'NONE', #472, #468, #306 ) ;
#384 = CARTESIAN_POINT ( 'NONE',  ( 0.000000000000000000, 0.000000000000000000, 0.000000000000000000 ) ) ;
#385 = DIRECTION ( 'NONE',  ( -1.000000000000000000, -1.234565977428749488E-16, 0.000000000000000000 ) ) ;
#386 = ORIENTED_EDGE ( 'NONE', *, *, #543, .T. ) ;
#387 = CARTESIAN_POINT ( 'NONE',  ( 17.25000000000000355, 12.21400000000001818, 10.05079999999999885 ) ) ;
#388 = CARTESIAN_POINT ( 'NONE',  ( 67.00000000000000000, 12.21400000000000752, 34.00000000000000000 ) ) ;
#389 = ORIENTED_EDGE ( 'NONE', *, *, #97, .F. ) ;
#390 = LINE ( 'NONE', #555, #710 ) ;
#391 = ADVANCED_FACE ( 'NONE', ( #579 ), #533, .F. ) ;
#392 = PRESENTATION_LAYER_ASSIGNMENT (  '', '', ( #288 ) ) ;
#393 =( GEOMETRIC_REPRESENTATION_CONTEXT ( 3 ) GLOBAL_UNCERTAINTY_ASSIGNED_CONTEXT ( ( #163 ) ) GLOBAL_UNIT_ASSIGNED_CONTEXT ( ( #290, #119, #452 ) ) REPRESENTATION_CONTEXT ( 'NONE', 'WORKASPACE' ) );
#394 = VERTEX_POINT ( 'NONE', #199 ) ;
#395 = PRESENTATION_LAYER_ASSIGNMENT (  '', '', ( #65 ) ) ;
#396 = PLANE ( 'NONE',  #521 ) ;
#397 = ORIENTED_EDGE ( 'NONE', *, *, #592, .T. ) ;
#398 = FACE_OUTER_BOUND ( 'NONE', #557, .T. ) ;
#399 = ADVANCED_FACE ( 'NONE', ( #642 ), #93, .F. ) ;
#400 = VERTEX_POINT ( 'NONE', #171 ) ;
#401 = DIRECTION ( 'NONE',  ( -0.000000000000000000, -1.000000000000000000, -0.000000000000000000 ) ) ;
#402 = CARTESIAN_POINT ( 'NONE',  ( 67.00000000000000000, 12.21400000000000752, 34.00000000000000000 ) ) ;
#403 = VECTOR ( 'NONE', #139, 1000.000000000000000 ) ;
#404 = LINE ( 'NONE', #144, #77 ) ;
#405 = STYLED_ITEM ( 'NONE', ( #184 ), #347 ) ;
#406 = FILL_AREA_STYLE ('',( #700 ) ) ;
#407 = UNCERTAINTY_MEASURE_WITH_UNIT (LENGTH_MEASURE( 1.000000000000000082E-05 ), #116, 'distance_accuracy_value', 'NONE');
#408 = LINE ( 'NONE', #531, #598 ) ;
#409 =( NAMED_UNIT ( * ) PLANE_ANGLE_UNIT ( ) SI_UNIT ( $, .RADIAN. ) );
#410 = LINE ( 'NONE', #698, #718 ) ;
#411 = LINE ( 'NONE', #699, #361 ) ;
#412 =( NAMED_UNIT ( * ) SI_UNIT ( $, .STERADIAN. ) SOLID_ANGLE_UNIT ( ) );
#413 = FILL_AREA_STYLE ('',( #34 ) ) ;
#414 = LINE ( 'NONE', #23, #403 ) ;
#415 = SURFACE_STYLE_FILL_AREA ( #140 ) ;
#416 = SURFACE_SIDE_STYLE ('',( #36 ) ) ;
#417 = COLOUR_RGB ( '',0.5019607843137254832, 1.000000000000000000, 1.000000000000000000 ) ;
#418 =( LENGTH_UNIT ( ) NAMED_UNIT ( * ) SI_UNIT ( .MILLI., .METRE. ) );
#419 = SURFACE_STYLE_FILL_AREA ( #582 ) ;
#420 = CARTESIAN_POINT ( 'NONE',  ( 67.00000000000000000, 2.214000000000008850, 205.3644786689776254 ) ) ;
#421 = FACE_OUTER_BOUND ( 'NONE', #440, .T. ) ;
#422 = PRESENTATION_STYLE_ASSIGNMENT (( #211 ) ) ;
#423 = EDGE_LOOP ( 'NONE', ( #182, #150, #445, #143 ) ) ;
#424 = LINE ( 'NONE', #490, #349 ) ;
#425 = PLANE ( 'NONE',  #474 ) ;
#426 = AXIS2_PLACEMENT_3D ( 'NONE', #217, #715, #723 ) ;
#427 = VECTOR ( 'NONE', #539, 1000.000000000000000 ) ;
#428 = COLOUR_RGB ( '',0.5019607843137254832, 1.000000000000000000, 1.000000000000000000 ) ;
#429 = PRESENTATION_STYLE_ASSIGNMENT (( #721 ) ) ;
#430 =( GEOMETRIC_REPRESENTATION_CONTEXT ( 3 ) GLOBAL_UNCERTAINTY_ASSIGNED_CONTEXT ( ( #573 ) ) GLOBAL_UNIT_ASSIGNED_CONTEXT ( ( #640, #409, #148 ) ) REPRESENTATION_CONTEXT ( 'NONE', 'WORKASPACE' ) );
#431 = CARTESIAN_POINT ( 'NONE',  ( 16.75000000000000355, 2.214000000000003077, 10.05079999999999885 ) ) ;
#432 = SURFACE_STYLE_FILL_AREA ( #485 ) ;
#433 = EDGE_CURVE ( 'NONE', #11, #340, #609, .T. ) ;
#434 = FACE_OUTER_BOUND ( 'NONE', #227, .T. ) ;
#435 = FACE_OUTER_BOUND ( 'NONE', #608, .T. ) ;
#436 = FILL_AREA_STYLE_COLOUR ( '', #268 ) ;
#437 = COLOUR_RGB ( '',0.9882352941176471006, 0.7372549019607843590, 0.5176470588235293491 ) ;
#438 = MECHANICAL_DESIGN_GEOMETRIC_PRESENTATION_REPRESENTATION (  '', ( #16 ), #381 ) ;
#439 =( GEOMETRIC_REPRESENTATION_CONTEXT ( 3 ) GLOBAL_UNCERTAINTY_ASSIGNED_CONTEXT ( ( #564 ) ) GLOBAL_UNIT_ASSIGNED_CONTEXT ( ( #224, #230, #341 ) ) REPRESENTATION_CONTEXT ( 'NONE', 'WORKASPACE' ) );
#440 = EDGE_LOOP ( 'NONE', ( #495, #121, #193, #563 ) ) ;
#441 = SURFACE_STYLE_USAGE ( .BOTH. , #678 ) ;
#442 = ORIENTED_EDGE ( 'NONE', *, *, #20, .F. ) ;
#443 = EDGE_CURVE ( 'NONE', #221, #58, #327, .T. ) ;
#444 = LINE ( 'NONE', #72, #586 ) ;
#445 = ORIENTED_EDGE ( 'NONE', *, *, #107, .F. ) ;
#446 = PLANE ( 'NONE',  #161 ) ;
#447 = AXIS2_PLACEMENT_3D ( 'NONE', #355, #308, #37 ) ;
#448 = VECTOR ( 'NONE', #692, 1000.000000000000000 ) ;
#449 = ORIENTED_EDGE ( 'NONE', *, *, #142, .F. ) ;
#450 =( GEOMETRIC_REPRESENTATION_CONTEXT ( 3 ) GLOBAL_UNCERTAINTY_ASSIGNED_CONTEXT ( ( #130 ) ) GLOBAL_UNIT_ASSIGNED_CONTEXT ( ( #706, #153, #246 ) ) REPRESENTATION_CONTEXT ( 'NONE', 'WORKASPACE' ) );
#451 = CARTESIAN_POINT ( 'NONE',  ( 16.75000000000000355, 12.21400000000001818, 10.05079999999999885 ) ) ;
#452 =( NAMED_UNIT ( * ) SI_UNIT ( $, .STERADIAN. ) SOLID_ANGLE_UNIT ( ) );
#453 = EDGE_CURVE ( 'NONE', #3, #679, #44, .T. ) ;
#454 = ORIENTED_EDGE ( 'NONE', *, *, #581, .F. ) ;
#455 = FILL_AREA_STYLE ('',( #222 ) ) ;
#456 = LINE ( 'NONE', #293, #448 ) ;
#457 = ORIENTED_EDGE ( 'NONE', *, *, #581, .T. ) ;
#458 = DIRECTION ( 'NONE',  ( -1.448669246552541881E-16, 0.000000000000000000, 1.000000000000000000 ) ) ;
#459 = ORIENTED_EDGE ( 'NONE', *, *, #483, .F. ) ;
#460 = VECTOR ( 'NONE', #707, 1000.000000000000000 ) ;
#461 = VECTOR ( 'NONE', #56, 1000.000000000000000 ) ;
#462 = PRESENTATION_LAYER_ASSIGNMENT (  '', '', ( #549 ) ) ;
#463 = ORIENTED_EDGE ( 'NONE', *, *, #97, .T. ) ;
#464 =( NAMED_UNIT ( * ) SI_UNIT ( $, .STERADIAN. ) SOLID_ANGLE_UNIT ( ) );
#465 = EDGE_CURVE ( 'NONE', #58, #510, #272, .T. ) ;
#466 = PLANE ( 'NONE',  #447 ) ;
#467 = ORIENTED_EDGE ( 'NONE', *, *, #12, .F. ) ;
#468 = DIRECTION ( 'NONE',  ( 1.139599363780384048E-16, -1.000000000000000000, 0.000000000000000000 ) ) ;
#469 = FILL_AREA_STYLE_COLOUR ( '', #41 ) ;
#470 = UNCERTAINTY_MEASURE_WITH_UNIT (LENGTH_MEASURE( 1.000000000000000082E-05 ), #351, 'distance_accuracy_value', 'NONE');
#471 = DIRECTION ( 'NONE',  ( -1.000000000000000000, -1.139599363780384048E-16, 0.000000000000000000 ) ) ;
#472 = CARTESIAN_POINT ( 'NONE',  ( 67.00000000000000000, 12.21400000000000752, 0.05080000000000000487 ) ) ;
#473 = CLOSED_SHELL ( 'NONE', ( #205, #704, #507, #391, #194, #399 ) ) ;
#474 = AXIS2_PLACEMENT_3D ( 'NONE', #664, #602, #385 ) ;
#475 = EDGE_CURVE ( 'NONE', #3, #693, #424, .T. ) ;
#476 = SURFACE_SIDE_STYLE ('',( #419 ) ) ;
#477 =( LENGTH_UNIT ( ) NAMED_UNIT ( * ) SI_UNIT ( .MILLI., .METRE. ) );
#478 = DIRECTION ( 'NONE',  ( 0.000000000000000000, 1.000000000000000000, 0.000000000000000000 ) ) ;
#479 = ORIENTED_EDGE ( 'NONE', *, *, #684, .T. ) ;
#480 = FILL_AREA_STYLE ('',( #493 ) ) ;
#481 =( NAMED_UNIT ( * ) PLANE_ANGLE_UNIT ( ) SI_UNIT ( $, .RADIAN. ) );
#482 = PLANE ( 'NONE',  #100 ) ;
#483 = EDGE_CURVE ( 'NONE', #185, #236, #552, .T. ) ;
#484 = DIRECTION ( 'NONE',  ( 1.000000000000000000, 0.000000000000000000, 0.000000000000000000 ) ) ;
#485 = FILL_AREA_STYLE ('',( #436 ) ) ;
#486 = UNCERTAINTY_MEASURE_WITH_UNIT (LENGTH_MEASURE( 1.000000000000000082E-05 ), #518, 'distance_accuracy_value', 'NONE');
#487 = COLOUR_RGB ( '',0.5019607843137254832, 1.000000000000000000, 1.000000000000000000 ) ;
#488 = CARTESIAN_POINT ( 'NONE',  ( 17.25000000000000000, 12.21400000000001818, 34.00000000000000000 ) ) ;
#489 = ORIENTED_EDGE ( 'NONE', *, *, #336, .T. ) ;
#490 = CARTESIAN_POINT ( 'NONE',  ( 67.00000000000000000, 12.21400000000000752, 34.00000000000000000 ) ) ;
#491 = SHAPE_DEFINITION_REPRESENTATION ( #662, #99 ) ;
#492 = ORIENTED_EDGE ( 'NONE', *, *, #443, .T. ) ;
#493 = FILL_AREA_STYLE_COLOUR ( '', #487 ) ;
#494 = LINE ( 'NONE', #5, #88 ) ;
#495 = ORIENTED_EDGE ( 'NONE', *, *, #152, .T. ) ;
#496 = CARTESIAN_POINT ( 'NONE',  ( 16.75000000000000000, 12.21400000000001818, 34.00000000000000000 ) ) ;
#497 = PRESENTATION_LAYER_ASSIGNMENT (  '', '', ( #359 ) ) ;
#498 =( GEOMETRIC_REPRESENTATION_CONTEXT ( 3 ) GLOBAL_UNCERTAINTY_ASSIGNED_CONTEXT ( ( #318 ) ) GLOBAL_UNIT_ASSIGNED_CONTEXT ( ( #177, #622, #69 ) ) REPRESENTATION_CONTEXT ( 'NONE', 'WORKASPACE' ) );
#499 = EDGE_CURVE ( 'NONE', #221, #621, #4, .T. ) ;
#500 = ORIENTED_EDGE ( 'NONE', *, *, #661, .F. ) ;
#501 = FILL_AREA_STYLE_COLOUR ( '', #720 ) ;
#502 = CARTESIAN_POINT ( 'NONE',  ( 67.00000000000000000, 2.214000000000008850, 0.000000000000000000 ) ) ;
#503 = EDGE_LOOP ( 'NONE', ( #632, #672, #109, #577 ) ) ;
#504 = DIRECTION ( 'NONE',  ( -0.000000000000000000, -0.000000000000000000, -1.000000000000000000 ) ) ;
#505 = ORIENTED_EDGE ( 'NONE', *, *, #714, .T. ) ;
#506 = CARTESIAN_POINT ( 'NONE',  ( 16.75000000000000355, 12.21400000000001818, 10.05079999999999885 ) ) ;
#507 = ADVANCED_FACE ( 'NONE', ( #435 ), #541, .F. ) ;
#508 = CARTESIAN_POINT ( 'NONE',  ( -70.00000000000000000, 12.21399999999999153, 205.3644786689776254 ) ) ;
#509 = STYLED_ITEM ( 'NONE', ( #364 ), #391 ) ;
#510 = VERTEX_POINT ( 'NONE', #431 ) ;
#511 = VECTOR ( 'NONE', #314, 1000.000000000000000 ) ;
#512 = DIRECTION ( 'NONE',  ( 1.234565977428749488E-16, -1.000000000000000000, -0.000000000000000000 ) ) ;
#513 = CARTESIAN_POINT ( 'NONE',  ( 17.25000000000000355, 12.21400000000001818, 10.05079999999999885 ) ) ;
#514 = ORIENTED_EDGE ( 'NONE', *, *, #66, .F. ) ;
#515 = LINE ( 'NONE', #208, #135 ) ;
#516 = CARTESIAN_POINT ( 'NONE',  ( -70.00000000000000000, 2.213999999999991974, 0.05080000000000000487 ) ) ;
#517 = DIRECTION ( 'NONE',  ( -0.000000000000000000, -0.000000000000000000, -1.000000000000000000 ) ) ;
#518 =( LENGTH_UNIT ( ) NAMED_UNIT ( * ) SI_UNIT ( .MILLI., .METRE. ) );
#519 = ADVANCED_FACE ( 'NONE', ( #545 ), #446, .T. ) ;
#520 = CLOSED_SHELL ( 'NONE', ( #324, #228, #356, #347, #220, #174, #519, #625, #127, #216 ) ) ;
#521 = AXIS2_PLACEMENT_3D ( 'NONE', #496, #688, #458 ) ;
#522 = SURFACE_STYLE_FILL_AREA ( #701 ) ;
#523 = LINE ( 'NONE', #402, #157 ) ;
#524 = SURFACE_SIDE_STYLE ('',( #137 ) ) ;
#525 = SURFACE_SIDE_STYLE ('',( #33 ) ) ;
#526 = LINE ( 'NONE', #585, #460 ) ;
#527 = FILL_AREA_STYLE_COLOUR ( '', #428 ) ;
#528 = FILL_AREA_STYLE ('',( #307 ) ) ;
#529 = PRODUCT_RELATED_PRODUCT_CATEGORY ( 'part', '', ( #2 ) ) ;
#530 =( NAMED_UNIT ( * ) PLANE_ANGLE_UNIT ( ) SI_UNIT ( $, .RADIAN. ) );
#531 = CARTESIAN_POINT ( 'NONE',  ( 17.25000000000000000, 2.214000000000003077, 34.00000000000000000 ) ) ;
#532 =( LENGTH_UNIT ( ) NAMED_UNIT ( * ) SI_UNIT ( .MILLI., .METRE. ) );
#533 = PLANE ( 'NONE',  #575 ) ;
#534 = COLOUR_RGB ( '',0.9882352941176471006, 0.7372549019607843590, 0.5176470588235293491 ) ;
#535 = MECHANICAL_DESIGN_GEOMETRIC_PRESENTATION_REPRESENTATION (  '', ( #588 ), #191 ) ;
#536 = PRESENTATION_STYLE_ASSIGNMENT (( #149 ) ) ;
#537 = VECTOR ( 'NONE', #345, 1000.000000000000000 ) ;
#538 =( NAMED_UNIT ( * ) SI_UNIT ( $, .STERADIAN. ) SOLID_ANGLE_UNIT ( ) );
#539 = DIRECTION ( 'NONE',  ( -0.000000000000000000, -0.000000000000000000, -1.000000000000000000 ) ) ;
#540 = LINE ( 'NONE', #319, #658 ) ;
#541 = PLANE ( 'NONE',  #371 ) ;
#542 = CARTESIAN_POINT ( 'NONE',  ( -70.00000000000000000, 12.21399999999999153, 205.3644786689776254 ) ) ;
#543 = EDGE_CURVE ( 'NONE', #679, #287, #680, .T. ) ;
#544 = ORIENTED_EDGE ( 'NONE', *, *, #465, .F. ) ;
#545 = FACE_OUTER_BOUND ( 'NONE', #659, .T. ) ;
#546 = PRESENTATION_LAYER_ASSIGNMENT (  '', '', ( #331 ) ) ;
#547 = CARTESIAN_POINT ( 'NONE',  ( -70.00000000000000000, 2.213999999999991974, 0.05080000000000000487 ) ) ;
#548 =( GEOMETRIC_REPRESENTATION_CONTEXT ( 3 ) GLOBAL_UNCERTAINTY_ASSIGNED_CONTEXT ( ( #378 ) ) GLOBAL_UNIT_ASSIGNED_CONTEXT ( ( #651, #138, #412 ) ) REPRESENTATION_CONTEXT ( 'NONE', 'WORKASPACE' ) );
#549 = STYLED_ITEM ( 'NONE', ( #422 ), #399 ) ;
#550 = SURFACE_SIDE_STYLE ('',( #259 ) ) ;
#551 = VERTEX_POINT ( 'NONE', #122 ) ;
#552 = LINE ( 'NONE', #257, #511 ) ;
#553 = CARTESIAN_POINT ( 'NONE',  ( 17.25000000000000000, 12.21400000000001818, 34.00000000000000000 ) ) ;
#554 = ORIENTED_EDGE ( 'NONE', *, *, #142, .T. ) ;
#555 = CARTESIAN_POINT ( 'NONE',  ( 16.75000000000000000, 12.21400000000001818, 34.00000000000000000 ) ) ;
#556 = PRODUCT_DEFINITION ( 'UNKNOWN', '', #192, #690 ) ;
#557 = EDGE_LOOP ( 'NONE', ( #283, #377, #117, #333 ) ) ;
#558 = PRESENTATION_STYLE_ASSIGNMENT (( #284 ) ) ;
#559 = CARTESIAN_POINT ( 'NONE',  ( 0.000000000000000000, 0.000000000000000000, 34.00000000000000000 ) ) ;
#560 = VECTOR ( 'NONE', #248, 1000.000000000000000 ) ;
#561 = AXIS2_PLACEMENT_3D ( 'NONE', #542, #49, #613 ) ;
#562 = VECTOR ( 'NONE', #512, 1000.000000000000000 ) ;
#563 = ORIENTED_EDGE ( 'NONE', *, *, #107, .T. ) ;
#564 = UNCERTAINTY_MEASURE_WITH_UNIT (LENGTH_MEASURE( 1.000000000000000082E-05 ), #224, 'distance_accuracy_value', 'NONE');
#565 = EDGE_CURVE ( 'NONE', #287, #14, #289, .T. ) ;
#566 = ORIENTED_EDGE ( 'NONE', *, *, #637, .T. ) ;
#567 = DIRECTION ( 'NONE',  ( 1.000000000000000000, 1.139599363780384048E-16, 0.000000000000000000 ) ) ;
#568 = ORIENTED_EDGE ( 'NONE', *, *, #443, .F. ) ;
#569 = SURFACE_STYLE_FILL_AREA ( #455 ) ;
#570 = FACE_OUTER_BOUND ( 'NONE', #275, .T. ) ;
#571 = STYLED_ITEM ( 'NONE', ( #536 ), #205 ) ;
#572 = MECHANICAL_DESIGN_GEOMETRIC_PRESENTATION_REPRESENTATION (  '', ( #7 ), #160 ) ;
#573 = UNCERTAINTY_MEASURE_WITH_UNIT (LENGTH_MEASURE( 1.000000000000000082E-05 ), #640, 'distance_accuracy_value', 'NONE');
#574 = ORIENTED_EDGE ( 'NONE', *, *, #263, .T. ) ;
#575 = AXIS2_PLACEMENT_3D ( 'NONE', #703, #201, #593 ) ;
#576 = SURFACE_STYLE_USAGE ( .BOTH. , #10 ) ;
#577 = ORIENTED_EDGE ( 'NONE', *, *, #637, .F. ) ;
#578 = SURFACE_STYLE_USAGE ( .BOTH. , #524 ) ;
#579 = FACE_OUTER_BOUND ( 'NONE', #423, .T. ) ;
#580 = SURFACE_STYLE_FILL_AREA ( #584 ) ;
#581 = EDGE_CURVE ( 'NONE', #400, #394, #630, .T. ) ;
#582 = FILL_AREA_STYLE ('',( #147 ) ) ;
#583 = FILL_AREA_STYLE ('',( #527 ) ) ;
#584 = FILL_AREA_STYLE ('',( #469 ) ) ;
#585 = CARTESIAN_POINT ( 'NONE',  ( 67.00000000000000000, 2.214000000000008850, 205.3644786689776254 ) ) ;
#586 = VECTOR ( 'NONE', #504, 1000.000000000000000 ) ;
#587 = PRESENTATION_STYLE_ASSIGNMENT (( #358 ) ) ;
#588 = STYLED_ITEM ( 'NONE', ( #587 ), #649 ) ;
#589 = SURFACE_STYLE_USAGE ( .BOTH. , #638 ) ;
#590 = PRESENTATION_STYLE_ASSIGNMENT (( #94 ) ) ;
#591 = DIRECTION ( 'NONE',  ( 0.000000000000000000, -1.000000000000000000, 0.000000000000000000 ) ) ;
#592 = EDGE_CURVE ( 'NONE', #679, #510, #18, .T. ) ;
#593 = DIRECTION ( 'NONE',  ( -1.000000000000000000, -1.234565977428749488E-16, 0.000000000000000000 ) ) ;
#594 = FACE_OUTER_BOUND ( 'NONE', #626, .T. ) ;
#595 =( NAMED_UNIT ( * ) PLANE_ANGLE_UNIT ( ) SI_UNIT ( $, .RADIAN. ) );
#596 = DIRECTION ( 'NONE',  ( 0.000000000000000000, 0.000000000000000000, 1.000000000000000000 ) ) ;
#597 =( NAMED_UNIT ( * ) SI_UNIT ( $, .STERADIAN. ) SOLID_ANGLE_UNIT ( ) );
#598 = VECTOR ( 'NONE', #136, 1000.000000000000000 ) ;
#599 = DIRECTION ( 'NONE',  ( 1.448669246552541881E-16, 0.000000000000000000, -1.000000000000000000 ) ) ;
#600 = MECHANICAL_DESIGN_GEOMETRIC_PRESENTATION_REPRESENTATION (  '', ( #190 ), #548 ) ;
#601 = VECTOR ( 'NONE', #31, 1000.000000000000000 ) ;
#602 = DIRECTION ( 'NONE',  ( -1.234565977428749488E-16, 1.000000000000000000, 0.000000000000000000 ) ) ;
#603 = ORIENTED_EDGE ( 'NONE', *, *, #66, .T. ) ;
#604 = LINE ( 'NONE', #547, #461 ) ;
#605 = EDGE_CURVE ( 'NONE', #394, #340, #132, .T. ) ;
#606 = DIRECTION ( 'NONE',  ( 1.000000000000000000, 0.000000000000000000, -0.000000000000000000 ) ) ;
#607 = APPLICATION_PROTOCOL_DEFINITION ( 'draft international standard', 'automotive_design', 1998, #376 ) ;
#608 = EDGE_LOOP ( 'NONE', ( #457, #281, #285, #178 ) ) ;
#609 = LINE ( 'NONE', #261, #214 ) ;
#610 = SURFACE_SIDE_STYLE ('',( #379 ) ) ;
#611 =( NAMED_UNIT ( * ) SI_UNIT ( $, .STERADIAN. ) SOLID_ANGLE_UNIT ( ) );
#612 =( GEOMETRIC_REPRESENTATION_CONTEXT ( 3 ) GLOBAL_UNCERTAINTY_ASSIGNED_CONTEXT ( ( #218 ) ) GLOBAL_UNIT_ASSIGNED_CONTEXT ( ( #352, #297, #196 ) ) REPRESENTATION_CONTEXT ( 'NONE', 'WORKASPACE' ) );
#613 = DIRECTION ( 'NONE',  ( -0.000000000000000000, 0.000000000000000000, -1.000000000000000000 ) ) ;
#614 = MECHANICAL_DESIGN_GEOMETRIC_PRESENTATION_REPRESENTATION (  '', ( #509 ), #450 ) ;
#615 = COLOUR_RGB ( '',0.9882352941176471006, 0.7372549019607843590, 0.5176470588235293491 ) ;
#616 = EDGE_CURVE ( 'NONE', #3, #58, #390, .T. ) ;
#617 = PRESENTATION_STYLE_ASSIGNMENT (( #380 ) ) ;
#618 = ORIENTED_EDGE ( 'NONE', *, *, #644, .T. ) ;
#619 = SURFACE_STYLE_FILL_AREA ( #6 ) ;
#620 = FILL_AREA_STYLE ('',( #683 ) ) ;
#621 = VERTEX_POINT ( 'NONE', #338 ) ;
#622 =( NAMED_UNIT ( * ) PLANE_ANGLE_UNIT ( ) SI_UNIT ( $, .RADIAN. ) );
#623 = AXIS2_PLACEMENT_3D ( 'NONE', #488, #155, #47 ) ;
#624 = PRESENTATION_LAYER_ASSIGNMENT (  '', '', ( #282 ) ) ;
#625 = ADVANCED_FACE ( 'NONE', ( #398 ), #396, .F. ) ;
#626 = EDGE_LOOP ( 'NONE', ( #691, #173, #73, #397 ) ) ;
#627 =( LENGTH_UNIT ( ) NAMED_UNIT ( * ) SI_UNIT ( .MILLI., .METRE. ) );
#628 = CARTESIAN_POINT ( 'NONE',  ( 67.00000000000000000, 12.21400000000000752, 205.3644786689776254 ) ) ;
#629 = ORIENTED_EDGE ( 'NONE', *, *, #12, .T. ) ;
#630 = LINE ( 'NONE', #279, #244 ) ;
#631 = PLANE ( 'NONE',  #231 ) ;
#632 = ORIENTED_EDGE ( 'NONE', *, *, #250, .F. ) ;
#633 = DIRECTION ( 'NONE',  ( 1.234565977428749488E-16, -1.000000000000000000, -0.000000000000000000 ) ) ;
#634 = FACE_OUTER_BOUND ( 'NONE', #50, .T. ) ;
#635 = MECHANICAL_DESIGN_GEOMETRIC_PRESENTATION_REPRESENTATION (  '', ( #697 ), #203 ) ;
#636 = LINE ( 'NONE', #252, #685 ) ;
#637 = EDGE_CURVE ( 'NONE', #188, #363, #404, .T. ) ;
#638 = SURFACE_SIDE_STYLE ('',( #96 ) ) ;
#639 = ORIENTED_EDGE ( 'NONE', *, *, #152, .F. ) ;
#640 =( LENGTH_UNIT ( ) NAMED_UNIT ( * ) SI_UNIT ( .MILLI., .METRE. ) );
#641 = ORIENTED_EDGE ( 'NONE', *, *, #475, .T. ) ;
#642 = FACE_OUTER_BOUND ( 'NONE', #320, .T. ) ;
#643 = SURFACE_STYLE_FILL_AREA ( #413 ) ;
#644 = EDGE_CURVE ( 'NONE', #326, #400, #515, .T. ) ;
#645 = LINE ( 'NONE', #207, #560 ) ;
#646 = VECTOR ( 'NONE', #668, 1000.000000000000000 ) ;
#647 = AXIS2_PLACEMENT_3D ( 'NONE', #559, #187, #63 ) ;
#648 = FACE_OUTER_BOUND ( 'NONE', #229, .T. ) ;
#649 = MANIFOLD_SOLID_BREP ( 'Boss-Extrude1', #473 ) ;
#650 = STYLED_ITEM ( 'NONE', ( #106 ), #507 ) ;
#651 =( LENGTH_UNIT ( ) NAMED_UNIT ( * ) SI_UNIT ( .MILLI., .METRE. ) );
#652 = FILL_AREA_STYLE_COLOUR ( '', #708 ) ;
#653 = UNCERTAINTY_MEASURE_WITH_UNIT (LENGTH_MEASURE( 1.000000000000000082E-05 ), #532, 'distance_accuracy_value', 'NONE');
#654 =( LENGTH_UNIT ( ) NAMED_UNIT ( * ) SI_UNIT ( .MILLI., .METRE. ) );
#655 = PLANE ( 'NONE',  #383 ) ;
#656 =( LENGTH_UNIT ( ) NAMED_UNIT ( * ) SI_UNIT ( .MILLI., .METRE. ) );
#657 = LINE ( 'NONE', #164, #646 ) ;
#658 = VECTOR ( 'NONE', #478, 1000.000000000000000 ) ;
#659 = EDGE_LOOP ( 'NONE', ( #574, #48, #8, #629 ) ) ;
#660 = MECHANICAL_DESIGN_GEOMETRIC_PRESENTATION_REPRESENTATION (  '', ( #405 ), #498 ) ;
#661 = EDGE_CURVE ( 'NONE', #67, #175, #411, .T. ) ;
#662 = PRODUCT_DEFINITION_SHAPE ( 'NONE', 'NONE',  #556 ) ;
#663 = MECHANICAL_DESIGN_GEOMETRIC_PRESENTATION_REPRESENTATION (  '', ( #65 ), #30 ) ;
#664 = CARTESIAN_POINT ( 'NONE',  ( -70.00000000000000000, 2.213999999999991974, 205.3644786689776254 ) ) ;
#665 =( NAMED_UNIT ( * ) PLANE_ANGLE_UNIT ( ) SI_UNIT ( $, .RADIAN. ) );
#666 =( NAMED_UNIT ( * ) PLANE_ANGLE_UNIT ( ) SI_UNIT ( $, .RADIAN. ) );
#667 = UNCERTAINTY_MEASURE_WITH_UNIT (LENGTH_MEASURE( 1.000000000000000082E-05 ), #60, 'distance_accuracy_value', 'NONE');
#668 = DIRECTION ( 'NONE',  ( -1.448669246552541881E-16, -0.000000000000000000, 1.000000000000000000 ) ) ;
#669 =( NAMED_UNIT ( * ) PLANE_ANGLE_UNIT ( ) SI_UNIT ( $, .RADIAN. ) );
#670 = LINE ( 'NONE', #553, #332 ) ;
#671 = EDGE_CURVE ( 'NONE', #510, #14, #92, .T. ) ;
#672 = ORIENTED_EDGE ( 'NONE', *, *, #278, .F. ) ;
#673 = DIRECTION ( 'NONE',  ( 1.000000000000000000, 1.234565977428749488E-16, 0.000000000000000000 ) ) ;
#674 =( GEOMETRIC_REPRESENTATION_CONTEXT ( 3 ) GLOBAL_UNCERTAINTY_ASSIGNED_CONTEXT ( ( #53 ) ) GLOBAL_UNIT_ASSIGNED_CONTEXT ( ( #654, #595, #538 ) ) REPRESENTATION_CONTEXT ( 'NONE', 'WORKASPACE' ) );
#675 = STYLED_ITEM ( 'NONE', ( #617 ), #228 ) ;
#676 = VECTOR ( 'NONE', #599, 1000.000000000000000 ) ;
#677 = ORIENTED_EDGE ( 'NONE', *, *, #499, .T. ) ;
#678 = SURFACE_SIDE_STYLE ('',( #569 ) ) ;
#679 = VERTEX_POINT ( 'NONE', #249 ) ;
#680 = LINE ( 'NONE', #506, #43 ) ;
#681 = SURFACE_STYLE_FILL_AREA ( #286 ) ;
#682 = VERTEX_POINT ( 'NONE', #253 ) ;
#683 = FILL_AREA_STYLE_COLOUR ( '', #534 ) ;
#684 = EDGE_CURVE ( 'NONE', #693, #221, #304, .T. ) ;
#685 = VECTOR ( 'NONE', #471, 1000.000000000000000 ) ;
#686 = COLOUR_RGB ( '',0.9882352941176471006, 0.7372549019607843590, 0.5176470588235293491 ) ;
#687 = ORIENTED_EDGE ( 'NONE', *, *, #32, .F. ) ;
#688 = DIRECTION ( 'NONE',  ( -1.000000000000000000, -1.234565977428749488E-16, -1.448669246552541881E-16 ) ) ;
#689 = CARTESIAN_POINT ( 'NONE',  ( 67.00000000000000000, 12.21400000000000752, 0.000000000000000000 ) ) ;
#690 = PRODUCT_DEFINITION_CONTEXT ( 'detailed design', #376, 'design' ) ;
#691 = ORIENTED_EDGE ( 'NONE', *, *, #671, .T. ) ;
#692 = DIRECTION ( 'NONE',  ( -0.000000000000000000, -0.000000000000000000, -1.000000000000000000 ) ) ;
#693 = VERTEX_POINT ( 'NONE', #296 ) ;
#694 =( NAMED_UNIT ( * ) PLANE_ANGLE_UNIT ( ) SI_UNIT ( $, .RADIAN. ) );
#695 = FILL_AREA_STYLE ('',( #209 ) ) ;
#696 = UNCERTAINTY_MEASURE_WITH_UNIT (LENGTH_MEASURE( 1.000000000000000082E-05 ), #418, 'distance_accuracy_value', 'NONE');
#697 = STYLED_ITEM ( 'NONE', ( #429 ), #165 ) ;
#698 = CARTESIAN_POINT ( 'NONE',  ( 67.00000000000000000, 2.214000000000008850, 34.00000000000000000 ) ) ;
#699 = CARTESIAN_POINT ( 'NONE',  ( 67.00000000000000000, 12.21400000000000752, 0.05080000000000000487 ) ) ;
#700 = FILL_AREA_STYLE_COLOUR ( '', #417 ) ;
#701 = FILL_AREA_STYLE ('',( #652 ) ) ;
#702 = LINE ( 'NONE', #38, #267 ) ;
#703 = CARTESIAN_POINT ( 'NONE',  ( 67.00000000000000000, 2.214000000000008850, 0.05080000000000000487 ) ) ;
#704 = ADVANCED_FACE ( 'NONE', ( #648 ), #655, .F. ) ;
#705 = ORIENTED_EDGE ( 'NONE', *, *, #336, .F. ) ;
#706 =( LENGTH_UNIT ( ) NAMED_UNIT ( * ) SI_UNIT ( .MILLI., .METRE. ) );
#707 = DIRECTION ( 'NONE',  ( -0.000000000000000000, -0.000000000000000000, -1.000000000000000000 ) ) ;
#708 = COLOUR_RGB ( '',0.5019607843137254832, 1.000000000000000000, 1.000000000000000000 ) ;
#709 = CARTESIAN_POINT ( 'NONE',  ( 67.00000000000000000, 12.21400000000000752, 0.05080000000000000487 ) ) ;
#710 = VECTOR ( 'NONE', #15, 1000.000000000000000 ) ;
#711 =( NAMED_UNIT ( * ) SI_UNIT ( $, .STERADIAN. ) SOLID_ANGLE_UNIT ( ) );
#712 = CARTESIAN_POINT ( 'NONE',  ( -70.00000000000000000, 2.213999999999991974, 205.3644786689776254 ) ) ;
#713 = SURFACE_STYLE_USAGE ( .BOTH. , #154 ) ;
#714 = EDGE_CURVE ( 'NONE', #67, #326, #79, .T. ) ;
#715 = DIRECTION ( 'NONE',  ( 0.000000000000000000, 0.000000000000000000, -1.000000000000000000 ) ) ;
#716 = UNCERTAINTY_MEASURE_WITH_UNIT (LENGTH_MEASURE( 1.000000000000000082E-05 ), #105, 'distance_accuracy_value', 'NONE');
#717 = CARTESIAN_POINT ( 'NONE',  ( 0.000000000000000000, 0.000000000000000000, 0.05080000000000000487 ) ) ;
#718 = VECTOR ( 'NONE', #35, 1000.000000000000000 ) ;
#719 = DIRECTION ( 'NONE',  ( 0.000000000000000000, 0.000000000000000000, -1.000000000000000000 ) ) ;
#720 = COLOUR_RGB ( '',0.9882352941176471006, 0.7372549019607843590, 0.5176470588235293491 ) ;
#721 = SURFACE_STYLE_USAGE ( .BOTH. , #550 ) ;
#722 = SURFACE_SIDE_STYLE ('',( #168 ) ) ;
#723 = DIRECTION ( 'NONE',  ( -1.000000000000000000, 0.000000000000000000, -0.000000000000000000 ) ) ;
#724 = FILL_AREA_STYLE ('',( #158 ) ) ;
ENDSEC;
END-ISO-10303-21;
