ISO-10303-21;
HEADER;
FILE_DESCRIPTION (( 'STEP AP214' ),
    '1' );
FILE_NAME ('561-00012-00.step',
    '2026-02-27T00:28:51',
    ( '' ),
    ( '' ),
    'SwSTEP 2.0',
    'SolidWorks 2023',
    '' );
FILE_SCHEMA (( 'AUTOMOTIVE_DESIGN' ));
ENDSEC;

DATA;
#1 = DIRECTION ( 'NONE',  ( 0.000000000000000000, 0.000000000000000000, 1.000000000000000000 ) ) ;
#2 =( NAMED_UNIT ( * ) PLANE_ANGLE_UNIT ( ) SI_UNIT ( $, .RADIAN. ) );
#3 =( NAMED_UNIT ( * ) PLANE_ANGLE_UNIT ( ) SI_UNIT ( $, .RADIAN. ) );
#4 = SURFACE_STYLE_FILL_AREA ( #256 ) ;
#5 = VERTEX_POINT ( 'NONE', #393 ) ;
#6 = CARTESIAN_POINT ( 'NONE',  ( 0.000000000000000000, 0.000000000000000000, 0.05080000000000000487 ) ) ;
#7 = VECTOR ( 'NONE', #90, 1000.000000000000000 ) ;
#8 = LINE ( 'NONE', #221, #398 ) ;
#9 = AXIS2_PLACEMENT_3D ( 'NONE', #317, #315, #349 ) ;
#10 = ORIENTED_EDGE ( 'NONE', *, *, #392, .T. ) ;
#11 = SURFACE_STYLE_USAGE ( .BOTH. , #333 ) ;
#12 = VERTEX_POINT ( 'NONE', #479 ) ;
#13 = EDGE_CURVE ( 'NONE', #268, #138, #351, .T. ) ;
#14 =( NAMED_UNIT ( * ) PLANE_ANGLE_UNIT ( ) SI_UNIT ( $, .RADIAN. ) );
#15 = SURFACE_STYLE_USAGE ( .BOTH. , #98 ) ;
#16 = ORIENTED_EDGE ( 'NONE', *, *, #484, .T. ) ;
#17 = LINE ( 'NONE', #516, #304 ) ;
#18 = ORIENTED_EDGE ( 'NONE', *, *, #142, .T. ) ;
#19 = COLOUR_RGB ( '',0.5019607843137254832, 1.000000000000000000, 1.000000000000000000 ) ;
#20 = PRODUCT_DEFINITION_FORMATION_WITH_SPECIFIED_SOURCE ( 'ANY', '', #471, .NOT_KNOWN. ) ;
#21 = CARTESIAN_POINT ( 'NONE',  ( -70.00000000000000000, 2.213999999999991974, 0.05080000000000000487 ) ) ;
#22 = CARTESIAN_POINT ( 'NONE',  ( -53.00000000000000711, 7.213999999999994195, 0.05080000000000000487 ) ) ;
#23 = FACE_OUTER_BOUND ( 'NONE', #261, .T. ) ;
#24 = DIRECTION ( 'NONE',  ( 1.000000000000000000, 1.275531967630005245E-16, 0.000000000000000000 ) ) ;
#25 = CARTESIAN_POINT ( 'NONE',  ( -70.00000000000000000, 2.213999999999991974, 0.05080000000000000487 ) ) ;
#26 = PRODUCT_DEFINITION_CONTEXT ( 'detailed design', #371, 'design' ) ;
#27 = CARTESIAN_POINT ( 'NONE',  ( -53.00000000000000711, 7.213999999999994195, 0.05080000000000000487 ) ) ;
#28 = LINE ( 'NONE', #196, #340 ) ;
#29 = SURFACE_STYLE_FILL_AREA ( #487 ) ;
#30 = PRESENTATION_LAYER_ASSIGNMENT (  '', '', ( #111 ) ) ;
#31 = DIRECTION ( 'NONE',  ( -0.000000000000000000, -0.000000000000000000, -1.000000000000000000 ) ) ;
#32 = ORIENTED_EDGE ( 'NONE', *, *, #142, .F. ) ;
#33 = FILL_AREA_STYLE ('',( #301 ) ) ;
#34 = ADVANCED_FACE ( 'NONE', ( #23 ), #198, .F. ) ;
#35 = VERTEX_POINT ( 'NONE', #316 ) ;
#36 =( NAMED_UNIT ( * ) SI_UNIT ( $, .STERADIAN. ) SOLID_ANGLE_UNIT ( ) );
#37 = SURFACE_SIDE_STYLE ('',( #492 ) ) ;
#38 = STYLED_ITEM ( 'NONE', ( #523 ), #41 ) ;
#39 =( GEOMETRIC_REPRESENTATION_CONTEXT ( 3 ) GLOBAL_UNCERTAINTY_ASSIGNED_CONTEXT ( ( #532 ) ) GLOBAL_UNIT_ASSIGNED_CONTEXT ( ( #325, #86, #36 ) ) REPRESENTATION_CONTEXT ( 'NONE', 'WORKASPACE' ) );
#40 = VECTOR ( 'NONE', #105, 1000.000000000000000 ) ;
#41 = MANIFOLD_SOLID_BREP ( 'Boss-Extrude2', #338 ) ;
#42 = PLANE ( 'NONE',  #527 ) ;
#43 = CARTESIAN_POINT ( 'NONE',  ( -53.00000000000000711, 7.213999999999994195, 4.500000000000000888 ) ) ;
#44 = EDGE_CURVE ( 'NONE', #144, #238, #403, .T. ) ;
#45 = PLANE ( 'NONE',  #58 ) ;
#46 = FILL_AREA_STYLE_COLOUR ( '', #135 ) ;
#47 = AXIS2_PLACEMENT_3D ( 'NONE', #247, #249, #362 ) ;
#48 = SURFACE_SIDE_STYLE ('',( #216 ) ) ;
#49 =( LENGTH_UNIT ( ) NAMED_UNIT ( * ) SI_UNIT ( .MILLI., .METRE. ) );
#50 = LINE ( 'NONE', #175, #100 ) ;
#51 = ORIENTED_EDGE ( 'NONE', *, *, #360, .F. ) ;
#52 =( NAMED_UNIT ( * ) PLANE_ANGLE_UNIT ( ) SI_UNIT ( $, .RADIAN. ) );
#53 = UNCERTAINTY_MEASURE_WITH_UNIT (LENGTH_MEASURE( 1.000000000000000082E-05 ), #117, 'distance_accuracy_value', 'NONE');
#54 = EDGE_LOOP ( 'NONE', ( #417, #234, #384, #263 ) ) ;
#55 = SURFACE_STYLE_USAGE ( .BOTH. , #336 ) ;
#56 = VECTOR ( 'NONE', #334, 1000.000000000000000 ) ;
#57 = PRESENTATION_STYLE_ASSIGNMENT (( #15 ) ) ;
#58 = AXIS2_PLACEMENT_3D ( 'NONE', #206, #531, #129 ) ;
#59 = COLOUR_RGB ( '',0.9882352941176471006, 0.7372549019607843590, 0.5176470588235293491 ) ;
#60 =( NAMED_UNIT ( * ) SI_UNIT ( $, .STERADIAN. ) SOLID_ANGLE_UNIT ( ) );
#61 = CARTESIAN_POINT ( 'NONE',  ( -53.00000000000000711, 2.213999999999994195, 0.05080000000000000487 ) ) ;
#62 = VERTEX_POINT ( 'NONE', #318 ) ;
#63 = DIRECTION ( 'NONE',  ( 1.000000000000000000, 0.000000000000000000, -0.000000000000000000 ) ) ;
#64 = ORIENTED_EDGE ( 'NONE', *, *, #448, .F. ) ;
#65 = LINE ( 'NONE', #478, #470 ) ;
#66 = SURFACE_STYLE_USAGE ( .BOTH. , #152 ) ;
#67 = EDGE_LOOP ( 'NONE', ( #517, #51, #379, #113 ) ) ;
#68 =( GEOMETRIC_REPRESENTATION_CONTEXT ( 3 ) GLOBAL_UNCERTAINTY_ASSIGNED_CONTEXT ( ( #53 ) ) GLOBAL_UNIT_ASSIGNED_CONTEXT ( ( #117, #202, #158 ) ) REPRESENTATION_CONTEXT ( 'NONE', 'WORKASPACE' ) );
#69 = CARTESIAN_POINT ( 'NONE',  ( -70.00000000000000000, 7.213999999999992419, 0.05080000000000000487 ) ) ;
#70 = EDGE_CURVE ( 'NONE', #5, #99, #410, .T. ) ;
#71 = ORIENTED_EDGE ( 'NONE', *, *, #441, .T. ) ;
#72 =( NAMED_UNIT ( * ) PLANE_ANGLE_UNIT ( ) SI_UNIT ( $, .RADIAN. ) );
#73 =( LENGTH_UNIT ( ) NAMED_UNIT ( * ) SI_UNIT ( .MILLI., .METRE. ) );
#74 = DIRECTION ( 'NONE',  ( 0.000000000000000000, 1.000000000000000000, 0.000000000000000000 ) ) ;
#75 = VECTOR ( 'NONE', #124, 1000.000000000000000 ) ;
#76 = EDGE_CURVE ( 'NONE', #415, #5, #449, .T. ) ;
#77 = PRODUCT_DEFINITION_SHAPE ( 'NONE', 'NONE',  #376 ) ;
#78 = DIRECTION ( 'NONE',  ( -0.000000000000000000, -0.000000000000000000, -1.000000000000000000 ) ) ;
#79 =( NAMED_UNIT ( * ) PLANE_ANGLE_UNIT ( ) SI_UNIT ( $, .RADIAN. ) );
#80 = FACE_OUTER_BOUND ( 'NONE', #342, .T. ) ;
#81 =( NAMED_UNIT ( * ) SI_UNIT ( $, .STERADIAN. ) SOLID_ANGLE_UNIT ( ) );
#82 = LINE ( 'NONE', #405, #75 ) ;
#83 = UNCERTAINTY_MEASURE_WITH_UNIT (LENGTH_MEASURE( 1.000000000000000082E-05 ), #508, 'distance_accuracy_value', 'NONE');
#84 = STYLED_ITEM ( 'NONE', ( #309 ), #302 ) ;
#85 = FILL_AREA_STYLE_COLOUR ( '', #390 ) ;
#86 =( NAMED_UNIT ( * ) PLANE_ANGLE_UNIT ( ) SI_UNIT ( $, .RADIAN. ) );
#87 =( NAMED_UNIT ( * ) SI_UNIT ( $, .STERADIAN. ) SOLID_ANGLE_UNIT ( ) );
#88 = UNCERTAINTY_MEASURE_WITH_UNIT (LENGTH_MEASURE( 1.000000000000000082E-05 ), #327, 'distance_accuracy_value', 'NONE');
#89 = SURFACE_STYLE_FILL_AREA ( #462 ) ;
#90 = DIRECTION ( 'NONE',  ( -0.000000000000000000, -0.000000000000000000, -1.000000000000000000 ) ) ;
#91 =( GEOMETRIC_REPRESENTATION_CONTEXT ( 3 ) GLOBAL_UNCERTAINTY_ASSIGNED_CONTEXT ( ( #267 ) ) GLOBAL_UNIT_ASSIGNED_CONTEXT ( ( #520, #79, #482 ) ) REPRESENTATION_CONTEXT ( 'NONE', 'WORKASPACE' ) );
#92 =( GEOMETRIC_REPRESENTATION_CONTEXT ( 3 ) GLOBAL_UNCERTAINTY_ASSIGNED_CONTEXT ( ( #408 ) ) GLOBAL_UNIT_ASSIGNED_CONTEXT ( ( #228, #383, #224 ) ) REPRESENTATION_CONTEXT ( 'NONE', 'WORKASPACE' ) );
#93 = UNCERTAINTY_MEASURE_WITH_UNIT (LENGTH_MEASURE( 1.000000000000000082E-05 ), #203, 'distance_accuracy_value', 'NONE');
#94 = EDGE_LOOP ( 'NONE', ( #71, #16, #226, #271 ) ) ;
#95 = SURFACE_SIDE_STYLE ('',( #442 ) ) ;
#96 = LINE ( 'NONE', #413, #56 ) ;
#97 = ORIENTED_EDGE ( 'NONE', *, *, #76, .F. ) ;
#98 = SURFACE_SIDE_STYLE ('',( #386 ) ) ;
#99 = VERTEX_POINT ( 'NONE', #456 ) ;
#100 = VECTOR ( 'NONE', #262, 1000.000000000000000 ) ;
#101 = PRESENTATION_STYLE_ASSIGNMENT (( #473 ) ) ;
#102 = STYLED_ITEM ( 'NONE', ( #250 ), #295 ) ;
#103 = ADVANCED_FACE ( 'NONE', ( #331 ), #252, .F. ) ;
#104 = MECHANICAL_DESIGN_GEOMETRIC_PRESENTATION_REPRESENTATION (  '', ( #111 ), #422 ) ;
#105 = DIRECTION ( 'NONE',  ( -0.000000000000000000, -0.000000000000000000, -1.000000000000000000 ) ) ;
#106 = UNCERTAINTY_MEASURE_WITH_UNIT (LENGTH_MEASURE( 1.000000000000000082E-05 ), #171, 'distance_accuracy_value', 'NONE');
#107 = EDGE_LOOP ( 'NONE', ( #388, #402, #446, #183 ) ) ;
#108 = CARTESIAN_POINT ( 'NONE',  ( -53.00000000000000711, 7.213999999999994195, 0.000000000000000000 ) ) ;
#109 = ORIENTED_EDGE ( 'NONE', *, *, #441, .F. ) ;
#110 =( GEOMETRIC_REPRESENTATION_CONTEXT ( 3 ) GLOBAL_UNCERTAINTY_ASSIGNED_CONTEXT ( ( #137 ) ) GLOBAL_UNIT_ASSIGNED_CONTEXT ( ( #73, #357, #81 ) ) REPRESENTATION_CONTEXT ( 'NONE', 'WORKASPACE' ) );
#111 = STYLED_ITEM ( 'NONE', ( #504 ), #511 ) ;
#112 = DIRECTION ( 'NONE',  ( 0.000000000000000000, 0.000000000000000000, 1.000000000000000000 ) ) ;
#113 = ORIENTED_EDGE ( 'NONE', *, *, #448, .T. ) ;
#114 = CARTESIAN_POINT ( 'NONE',  ( -53.00000000000000711, 7.213999999999994195, 0.05080000000000000487 ) ) ;
#115 = EDGE_CURVE ( 'NONE', #180, #5, #82, .T. ) ;
#116 =( LENGTH_UNIT ( ) NAMED_UNIT ( * ) SI_UNIT ( .MILLI., .METRE. ) );
#117 =( LENGTH_UNIT ( ) NAMED_UNIT ( * ) SI_UNIT ( .MILLI., .METRE. ) );
#118 = PRESENTATION_LAYER_ASSIGNMENT (  '', '', ( #381 ) ) ;
#119 = MECHANICAL_DESIGN_GEOMETRIC_PRESENTATION_REPRESENTATION (  '', ( #102 ), #211 ) ;
#120 = FILL_AREA_STYLE ('',( #488 ) ) ;
#121 = SURFACE_STYLE_FILL_AREA ( #494 ) ;
#122 = DIRECTION ( 'NONE',  ( -0.000000000000000000, -0.000000000000000000, -1.000000000000000000 ) ) ;
#123 = EDGE_CURVE ( 'NONE', #62, #144, #377, .T. ) ;
#124 = DIRECTION ( 'NONE',  ( -0.000000000000000000, -1.000000000000000000, -0.000000000000000000 ) ) ;
#125 = MECHANICAL_DESIGN_GEOMETRIC_PRESENTATION_REPRESENTATION (  '', ( #38 ), #68 ) ;
#126 = COLOUR_RGB ( '',0.5019607843137254832, 1.000000000000000000, 1.000000000000000000 ) ;
#127 = SURFACE_STYLE_USAGE ( .BOTH. , #37 ) ;
#128 = DIRECTION ( 'NONE',  ( 1.000000000000000000, 1.020425574104004122E-16, 0.000000000000000000 ) ) ;
#129 = DIRECTION ( 'NONE',  ( 1.000000000000000000, 1.020425574104004122E-16, 0.000000000000000000 ) ) ;
#130 = SURFACE_STYLE_USAGE ( .BOTH. , #48 ) ;
#131 = UNCERTAINTY_MEASURE_WITH_UNIT (LENGTH_MEASURE( 1.000000000000000082E-05 ), #182, 'distance_accuracy_value', 'NONE');
#132 = ADVANCED_FACE ( 'NONE', ( #80 ), #501, .T. ) ;
#133 = PLANE ( 'NONE',  #178 ) ;
#134 = COLOUR_RGB ( '',0.9882352941176471006, 0.7372549019607843590, 0.5176470588235293491 ) ;
#135 = COLOUR_RGB ( '',0.9882352941176471006, 0.7372549019607843590, 0.5176470588235293491 ) ;
#136 = CARTESIAN_POINT ( 'NONE',  ( -70.00000000000000000, 7.213999999999992419, 26.72004514666934938 ) ) ;
#137 = UNCERTAINTY_MEASURE_WITH_UNIT (LENGTH_MEASURE( 1.000000000000000082E-05 ), #73, 'distance_accuracy_value', 'NONE');
#138 = VERTEX_POINT ( 'NONE', #257 ) ;
#139 = FACE_OUTER_BOUND ( 'NONE', #464, .T. ) ;
#140 = VERTEX_POINT ( 'NONE', #341 ) ;
#141 = PLANE ( 'NONE',  #9 ) ;
#142 = EDGE_CURVE ( 'NONE', #12, #140, #96, .T. ) ;
#143 = LINE ( 'NONE', #400, #264 ) ;
#144 = VERTEX_POINT ( 'NONE', #380 ) ;
#145 = AXIS2_PLACEMENT_3D ( 'NONE', #305, #463, #260 ) ;
#146 = PRESENTATION_LAYER_ASSIGNMENT (  '', '', ( #286 ) ) ;
#147 = ORIENTED_EDGE ( 'NONE', *, *, #44, .T. ) ;
#148 = DIRECTION ( 'NONE',  ( -1.000000000000000000, -1.020425574104004122E-16, 0.000000000000000000 ) ) ;
#149 = ORIENTED_EDGE ( 'NONE', *, *, #392, .F. ) ;
#150 = APPLICATION_PROTOCOL_DEFINITION ( 'draft international standard', 'automotive_design', 1998, #371 ) ;
#151 = CARTESIAN_POINT ( 'NONE',  ( -53.00000000000000711, 2.213999999999994195, 0.05080000000000000487 ) ) ;
#152 = SURFACE_SIDE_STYLE ('',( #430 ) ) ;
#153 = VECTOR ( 'NONE', #122, 1000.000000000000000 ) ;
#154 = VECTOR ( 'NONE', #24, 1000.000000000000000 ) ;
#155 = FILL_AREA_STYLE ('',( #521 ) ) ;
#156 = LINE ( 'NONE', #472, #276 ) ;
#157 = EDGE_CURVE ( 'NONE', #460, #415, #50, .T. ) ;
#158 =( NAMED_UNIT ( * ) SI_UNIT ( $, .STERADIAN. ) SOLID_ANGLE_UNIT ( ) );
#159 = SURFACE_SIDE_STYLE ('',( #361 ) ) ;
#160 = FILL_AREA_STYLE ('',( #85 ) ) ;
#161 = PRESENTATION_STYLE_ASSIGNMENT (( #127 ) ) ;
#162 = CLOSED_SHELL ( 'NONE', ( #34, #295, #207, #321, #280, #302 ) ) ;
#163 = PRESENTATION_LAYER_ASSIGNMENT (  '', '', ( #84 ) ) ;
#164 = SURFACE_STYLE_USAGE ( .BOTH. , #291 ) ;
#165 = CARTESIAN_POINT ( 'NONE',  ( -70.00000000000000000, 7.213999999999992419, 4.500000000000000888 ) ) ;
#166 = STYLED_ITEM ( 'NONE', ( #101 ), #207 ) ;
#167 = MECHANICAL_DESIGN_GEOMETRIC_PRESENTATION_REPRESENTATION (  '', ( #444 ), #433 ) ;
#168 = AXIS2_PLACEMENT_3D ( 'NONE', #425, #230, #513 ) ;
#169 =( NAMED_UNIT ( * ) SI_UNIT ( $, .STERADIAN. ) SOLID_ANGLE_UNIT ( ) );
#170 = EDGE_CURVE ( 'NONE', #144, #12, #8, .T. ) ;
#171 =( LENGTH_UNIT ( ) NAMED_UNIT ( * ) SI_UNIT ( .MILLI., .METRE. ) );
#172 = PLANE ( 'NONE',  #145 ) ;
#173 = APPLICATION_PROTOCOL_DEFINITION ( 'draft international standard', 'automotive_design', 1998, #389 ) ;
#174 = FILL_AREA_STYLE_COLOUR ( '', #19 ) ;
#175 = CARTESIAN_POINT ( 'NONE',  ( -70.00000000000000000, 2.213999999999991974, 0.05080000000000000487 ) ) ;
#176 = VERTEX_POINT ( 'NONE', #266 ) ;
#177 = VECTOR ( 'NONE', #372, 1000.000000000000000 ) ;
#178 = AXIS2_PLACEMENT_3D ( 'NONE', #499, #299, #128 ) ;
#179 = LINE ( 'NONE', #61, #355 ) ;
#180 = VERTEX_POINT ( 'NONE', #427 ) ;
#181 = PRODUCT_RELATED_PRODUCT_CATEGORY ( 'part', '', ( #471 ) ) ;
#182 =( LENGTH_UNIT ( ) NAMED_UNIT ( * ) SI_UNIT ( .MILLI., .METRE. ) );
#183 = ORIENTED_EDGE ( 'NONE', *, *, #44, .F. ) ;
#184 = ORIENTED_EDGE ( 'NONE', *, *, #225, .F. ) ;
#185 = CARTESIAN_POINT ( 'NONE',  ( -53.00000000000000711, 2.213999999999994195, 26.72004514666934938 ) ) ;
#186 = VECTOR ( 'NONE', #406, 1000.000000000000000 ) ;
#187 = DIRECTION ( 'NONE',  ( -0.000000000000000000, -0.000000000000000000, -1.000000000000000000 ) ) ;
#188 = EDGE_CURVE ( 'NONE', #415, #35, #179, .T. ) ;
#189 = MECHANICAL_DESIGN_GEOMETRIC_PRESENTATION_REPRESENTATION (  '', ( #255 ), #110 ) ;
#190 = COLOUR_RGB ( '',0.9882352941176471006, 0.7372549019607843590, 0.5176470588235293491 ) ;
#191 = ORIENTED_EDGE ( 'NONE', *, *, #70, .T. ) ;
#192 = LINE ( 'NONE', #21, #154 ) ;
#193 = SURFACE_SIDE_STYLE ('',( #240 ) ) ;
#194 = FILL_AREA_STYLE ('',( #274 ) ) ;
#195 = PRESENTATION_STYLE_ASSIGNMENT (( #277 ) ) ;
#196 = CARTESIAN_POINT ( 'NONE',  ( -53.00000000000000711, 2.213999999999994195, 0.05080000000000000487 ) ) ;
#197 = STYLED_ITEM ( 'NONE', ( #161 ), #132 ) ;
#198 = PLANE ( 'NONE',  #489 ) ;
#199 =( GEOMETRIC_REPRESENTATION_CONTEXT ( 3 ) GLOBAL_UNCERTAINTY_ASSIGNED_CONTEXT ( ( #503 ) ) GLOBAL_UNIT_ASSIGNED_CONTEXT ( ( #375, #2, #507 ) ) REPRESENTATION_CONTEXT ( 'NONE', 'WORKASPACE' ) );
#200 = EDGE_CURVE ( 'NONE', #62, #138, #270, .T. ) ;
#201 = LINE ( 'NONE', #69, #210 ) ;
#202 =( NAMED_UNIT ( * ) PLANE_ANGLE_UNIT ( ) SI_UNIT ( $, .RADIAN. ) );
#203 =( LENGTH_UNIT ( ) NAMED_UNIT ( * ) SI_UNIT ( .MILLI., .METRE. ) );
#204 = CARTESIAN_POINT ( 'NONE',  ( -70.00000000000000000, 7.213999999999992419, 26.72004514666934938 ) ) ;
#205 = DIRECTION ( 'NONE',  ( 0.000000000000000000, 0.000000000000000000, 1.000000000000000000 ) ) ;
#206 = CARTESIAN_POINT ( 'NONE',  ( -53.00000000000000711, 7.213999999999994195, 0.05080000000000000487 ) ) ;
#207 = ADVANCED_FACE ( 'NONE', ( #139 ), #172, .F. ) ;
#208 = CARTESIAN_POINT ( 'NONE',  ( -70.00000000000000000, 2.213999999999991974, 26.72004514666934938 ) ) ;
#209 = COLOUR_RGB ( '',0.9882352941176471006, 0.7372549019607843590, 0.5176470588235293491 ) ;
#210 = VECTOR ( 'NONE', #281, 1000.000000000000000 ) ;
#211 =( GEOMETRIC_REPRESENTATION_CONTEXT ( 3 ) GLOBAL_UNCERTAINTY_ASSIGNED_CONTEXT ( ( #332 ) ) GLOBAL_UNIT_ASSIGNED_CONTEXT ( ( #212, #529, #169 ) ) REPRESENTATION_CONTEXT ( 'NONE', 'WORKASPACE' ) );
#212 =( LENGTH_UNIT ( ) NAMED_UNIT ( * ) SI_UNIT ( .MILLI., .METRE. ) );
#213 = PRESENTATION_STYLE_ASSIGNMENT (( #130 ) ) ;
#214 =( NAMED_UNIT ( * ) PLANE_ANGLE_UNIT ( ) SI_UNIT ( $, .RADIAN. ) );
#215 = FACE_OUTER_BOUND ( 'NONE', #67, .T. ) ;
#216 = SURFACE_STYLE_FILL_AREA ( #254 ) ;
#217 = COLOUR_RGB ( '',0.5019607843137254832, 1.000000000000000000, 1.000000000000000000 ) ;
#218 = AXIS2_PLACEMENT_3D ( 'NONE', #481, #483, #112 ) ;
#219 = CARTESIAN_POINT ( 'NONE',  ( -70.00000000000000000, 2.213999999999991974, 26.72004514666934938 ) ) ;
#220 = DIRECTION ( 'NONE',  ( 1.000000000000000000, 0.000000000000000000, -0.000000000000000000 ) ) ;
#221 = CARTESIAN_POINT ( 'NONE',  ( -70.00000000000000000, 2.213999999999991974, 4.500000000000000888 ) ) ;
#222 = ORIENTED_EDGE ( 'NONE', *, *, #115, .F. ) ;
#223 = MANIFOLD_SOLID_BREP ( 'Boss-Extrude1', #162 ) ;
#224 =( NAMED_UNIT ( * ) SI_UNIT ( $, .STERADIAN. ) SOLID_ANGLE_UNIT ( ) );
#225 = EDGE_CURVE ( 'NONE', #140, #268, #237, .T. ) ;
#226 = ORIENTED_EDGE ( 'NONE', *, *, #157, .T. ) ;
#227 = PRESENTATION_STYLE_ASSIGNMENT (( #55 ) ) ;
#228 =( LENGTH_UNIT ( ) NAMED_UNIT ( * ) SI_UNIT ( .MILLI., .METRE. ) );
#229 = ORIENTED_EDGE ( 'NONE', *, *, #493, .T. ) ;
#230 = DIRECTION ( 'NONE',  ( 0.000000000000000000, 0.000000000000000000, 1.000000000000000000 ) ) ;
#231 = EDGE_CURVE ( 'NONE', #35, #99, #143, .T. ) ;
#232 = DIRECTION ( 'NONE',  ( 0.000000000000000000, 1.000000000000000000, 0.000000000000000000 ) ) ;
#233 = DIRECTION ( 'NONE',  ( 1.000000000000000000, 1.275531967630005245E-16, 0.000000000000000000 ) ) ;
#234 = ORIENTED_EDGE ( 'NONE', *, *, #225, .T. ) ;
#235 = CARTESIAN_POINT ( 'NONE',  ( -70.00000000000000000, 2.213999999999991974, 0.05080000000000000487 ) ) ;
#236 =( GEOMETRIC_REPRESENTATION_CONTEXT ( 3 ) GLOBAL_UNCERTAINTY_ASSIGNED_CONTEXT ( ( #106 ) ) GLOBAL_UNIT_ASSIGNED_CONTEXT ( ( #171, #366, #87 ) ) REPRESENTATION_CONTEXT ( 'NONE', 'WORKASPACE' ) );
#237 = LINE ( 'NONE', #284, #294 ) ;
#238 = VERTEX_POINT ( 'NONE', #25 ) ;
#239 =( LENGTH_UNIT ( ) NAMED_UNIT ( * ) SI_UNIT ( .MILLI., .METRE. ) );
#240 = SURFACE_STYLE_FILL_AREA ( #155 ) ;
#241 = CARTESIAN_POINT ( 'NONE',  ( -53.00000000000000711, 2.213999999999994195, 0.05080000000000000487 ) ) ;
#242 = DIRECTION ( 'NONE',  ( -1.000000000000000000, -1.020425574104004122E-16, 0.000000000000000000 ) ) ;
#243 = AXIS2_PLACEMENT_3D ( 'NONE', #219, #498, #290 ) ;
#244 = PRESENTATION_LAYER_ASSIGNMENT (  '', '', ( #102 ) ) ;
#245 = SURFACE_SIDE_STYLE ('',( #251 ) ) ;
#246 = DIRECTION ( 'NONE',  ( -1.000000000000000000, 0.000000000000000000, 0.000000000000000000 ) ) ;
#247 = CARTESIAN_POINT ( 'NONE',  ( 0.000000000000000000, 0.000000000000000000, 0.05080000000000000487 ) ) ;
#248 = FILL_AREA_STYLE ('',( #293 ) ) ;
#249 = DIRECTION ( 'NONE',  ( 0.000000000000000000, -0.000000000000000000, 1.000000000000000000 ) ) ;
#250 = PRESENTATION_STYLE_ASSIGNMENT (( #164 ) ) ;
#251 = SURFACE_STYLE_FILL_AREA ( #160 ) ;
#252 = PLANE ( 'NONE',  #243 ) ;
#253 =( NAMED_UNIT ( * ) SI_UNIT ( $, .STERADIAN. ) SOLID_ANGLE_UNIT ( ) );
#254 = FILL_AREA_STYLE ('',( #46 ) ) ;
#255 = STYLED_ITEM ( 'NONE', ( #279 ), #280 ) ;
#256 = FILL_AREA_STYLE ('',( #174 ) ) ;
#257 = CARTESIAN_POINT ( 'NONE',  ( -70.00000000000000000, 7.213999999999992419, 0.05080000000000000487 ) ) ;
#258 = ORIENTED_EDGE ( 'NONE', *, *, #369, .F. ) ;
#259 = PRODUCT_CONTEXT ( 'NONE', #389, 'mechanical' ) ;
#260 = DIRECTION ( 'NONE',  ( 0.000000000000000000, 0.000000000000000000, -1.000000000000000000 ) ) ;
#261 = EDGE_LOOP ( 'NONE', ( #469, #64, #109, #435 ) ) ;
#262 = DIRECTION ( 'NONE',  ( -0.000000000000000000, -1.000000000000000000, -0.000000000000000000 ) ) ;
#263 = ORIENTED_EDGE ( 'NONE', *, *, #200, .F. ) ;
#264 = VECTOR ( 'NONE', #187, 1000.000000000000000 ) ;
#265 = MECHANICAL_DESIGN_GEOMETRIC_PRESENTATION_REPRESENTATION (  '', ( #491 ), #329 ) ;
#266 = CARTESIAN_POINT ( 'NONE',  ( -53.00000000000000711, 7.213999999999994195, 0.05080000000000000487 ) ) ;
#267 = UNCERTAINTY_MEASURE_WITH_UNIT (LENGTH_MEASURE( 1.000000000000000082E-05 ), #520, 'distance_accuracy_value', 'NONE');
#268 = VERTEX_POINT ( 'NONE', #22 ) ;
#269 = FACE_OUTER_BOUND ( 'NONE', #285, .T. ) ;
#270 = LINE ( 'NONE', #136, #526 ) ;
#271 = ORIENTED_EDGE ( 'NONE', *, *, #188, .T. ) ;
#272 = FILL_AREA_STYLE_COLOUR ( '', #126 ) ;
#273 = EDGE_LOOP ( 'NONE', ( #191, #346, #308, #467 ) ) ;
#274 = FILL_AREA_STYLE_COLOUR ( '', #522 ) ;
#275 = PRESENTATION_LAYER_ASSIGNMENT (  '', '', ( #312 ) ) ;
#276 = VECTOR ( 'NONE', #232, 1000.000000000000000 ) ;
#277 = SURFACE_STYLE_USAGE ( .BOTH. , #193 ) ;
#278 = PRESENTATION_STYLE_ASSIGNMENT (( #434 ) ) ;
#279 = PRESENTATION_STYLE_ASSIGNMENT (( #66 ) ) ;
#280 = ADVANCED_FACE ( 'NONE', ( #437 ), #477, .T. ) ;
#281 = DIRECTION ( 'NONE',  ( -0.000000000000000000, -0.000000000000000000, -1.000000000000000000 ) ) ;
#282 = ORIENTED_EDGE ( 'NONE', *, *, #360, .T. ) ;
#283 = FACE_OUTER_BOUND ( 'NONE', #54, .T. ) ;
#284 = CARTESIAN_POINT ( 'NONE',  ( -53.00000000000000711, 7.213999999999994195, 26.72004514666934938 ) ) ;
#285 = EDGE_LOOP ( 'NONE', ( #32, #424, #10, #184 ) ) ;
#286 = STYLED_ITEM ( 'NONE', ( #278 ), #385 ) ;
#287 = PRESENTATION_LAYER_ASSIGNMENT (  '', '', ( #491 ) ) ;
#288 = ADVANCED_FACE ( 'NONE', ( #330 ), #42, .F. ) ;
#289 = SURFACE_STYLE_USAGE ( .BOTH. , #159 ) ;
#290 = DIRECTION ( 'NONE',  ( -1.000000000000000000, -1.275531967630005245E-16, 0.000000000000000000 ) ) ;
#291 = SURFACE_SIDE_STYLE ('',( #121 ) ) ;
#292 = CARTESIAN_POINT ( 'NONE',  ( -53.00000000000000711, 2.213999999999994195, 0.000000000000000000 ) ) ;
#293 = FILL_AREA_STYLE_COLOUR ( '', #209 ) ;
#294 = VECTOR ( 'NONE', #78, 1000.000000000000000 ) ;
#295 = ADVANCED_FACE ( 'NONE', ( #215 ), #45, .F. ) ;
#296 = SURFACE_STYLE_USAGE ( .BOTH. , #95 ) ;
#297 = FACE_OUTER_BOUND ( 'NONE', #485, .T. ) ;
#298 =( NAMED_UNIT ( * ) SI_UNIT ( $, .STERADIAN. ) SOLID_ANGLE_UNIT ( ) );
#299 = DIRECTION ( 'NONE',  ( 1.020425574104004122E-16, -1.000000000000000000, 0.000000000000000000 ) ) ;
#300 = SURFACE_STYLE_FILL_AREA ( #423 ) ;
#301 = FILL_AREA_STYLE_COLOUR ( '', #190 ) ;
#302 = ADVANCED_FACE ( 'NONE', ( #297 ), #455, .F. ) ;
#303 = MECHANICAL_DESIGN_GEOMETRIC_PRESENTATION_REPRESENTATION (  '', ( #286 ), #367 ) ;
#304 = VECTOR ( 'NONE', #148, 1000.000000000000000 ) ;
#305 = CARTESIAN_POINT ( 'NONE',  ( -70.00000000000000000, 2.213999999999991974, 0.05080000000000000487 ) ) ;
#306 = ORIENTED_EDGE ( 'NONE', *, *, #369, .T. ) ;
#307 = FILL_AREA_STYLE_COLOUR ( '', #217 ) ;
#308 = ORIENTED_EDGE ( 'NONE', *, *, #188, .F. ) ;
#309 = PRESENTATION_STYLE_ASSIGNMENT (( #11 ) ) ;
#310 = ORIENTED_EDGE ( 'NONE', *, *, #335, .F. ) ;
#311 =( GEOMETRIC_REPRESENTATION_CONTEXT ( 3 ) GLOBAL_UNCERTAINTY_ASSIGNED_CONTEXT ( ( #83 ) ) GLOBAL_UNIT_ASSIGNED_CONTEXT ( ( #508, #3, #345 ) ) REPRESENTATION_CONTEXT ( 'NONE', 'WORKASPACE' ) );
#312 = STYLED_ITEM ( 'NONE', ( #370 ), #288 ) ;
#313 = FILL_AREA_STYLE_COLOUR ( '', #497 ) ;
#314 = ORIENTED_EDGE ( 'NONE', *, *, #453, .F. ) ;
#315 = DIRECTION ( 'NONE',  ( -1.275531967630005245E-16, 1.000000000000000000, 0.000000000000000000 ) ) ;
#316 = CARTESIAN_POINT ( 'NONE',  ( -53.00000000000000711, 2.213999999999994195, 0.05080000000000000487 ) ) ;
#317 = CARTESIAN_POINT ( 'NONE',  ( -53.00000000000000711, 2.213999999999994195, 0.05080000000000000487 ) ) ;
#318 = CARTESIAN_POINT ( 'NONE',  ( -70.00000000000000000, 7.213999999999992419, 4.500000000000000888 ) ) ;
#319 = MECHANICAL_DESIGN_GEOMETRIC_PRESENTATION_REPRESENTATION (  '', ( #197 ), #236 ) ;
#320 = LINE ( 'NONE', #114, #40 ) ;
#321 = ADVANCED_FACE ( 'NONE', ( #458 ), #141, .F. ) ;
#322 = DIRECTION ( 'NONE',  ( 1.000000000000000000, 0.000000000000000000, -0.000000000000000000 ) ) ;
#323 = CARTESIAN_POINT ( 'NONE',  ( 0.000000000000000000, 0.000000000000000000, 4.500000000000000000 ) ) ;
#324 = PRESENTATION_LAYER_ASSIGNMENT (  '', '', ( #444 ) ) ;
#325 =( LENGTH_UNIT ( ) NAMED_UNIT ( * ) SI_UNIT ( .MILLI., .METRE. ) );
#326 = ADVANCED_BREP_SHAPE_REPRESENTATION ( '561-00012-00', ( #223, #41, #168 ), #445 ) ;
#327 =( LENGTH_UNIT ( ) NAMED_UNIT ( * ) SI_UNIT ( .MILLI., .METRE. ) );
#328 =( NAMED_UNIT ( * ) SI_UNIT ( $, .STERADIAN. ) SOLID_ANGLE_UNIT ( ) );
#329 =( GEOMETRIC_REPRESENTATION_CONTEXT ( 3 ) GLOBAL_UNCERTAINTY_ASSIGNED_CONTEXT ( ( #414 ) ) GLOBAL_UNIT_ASSIGNED_CONTEXT ( ( #49, #525, #253 ) ) REPRESENTATION_CONTEXT ( 'NONE', 'WORKASPACE' ) );
#330 = FACE_OUTER_BOUND ( 'NONE', #107, .T. ) ;
#331 = FACE_OUTER_BOUND ( 'NONE', #509, .T. ) ;
#332 = UNCERTAINTY_MEASURE_WITH_UNIT (LENGTH_MEASURE( 1.000000000000000082E-05 ), #212, 'distance_accuracy_value', 'NONE');
#333 = SURFACE_SIDE_STYLE ('',( #89 ) ) ;
#334 = DIRECTION ( 'NONE',  ( 0.000000000000000000, 1.000000000000000000, 0.000000000000000000 ) ) ;
#335 = EDGE_CURVE ( 'NONE', #138, #238, #65, .T. ) ;
#336 = SURFACE_SIDE_STYLE ('',( #4 ) ) ;
#337 = DIRECTION ( 'NONE',  ( 1.000000000000000000, 1.275531967630005245E-16, -0.000000000000000000 ) ) ;
#338 = CLOSED_SHELL ( 'NONE', ( #103, #385, #511, #288, #530, #132 ) ) ;
#339 = PRESENTATION_LAYER_ASSIGNMENT (  '', '', ( #255 ) ) ;
#340 = VECTOR ( 'NONE', #354, 1000.000000000000000 ) ;
#341 = CARTESIAN_POINT ( 'NONE',  ( -53.00000000000000711, 7.213999999999994195, 4.500000000000000888 ) ) ;
#342 = EDGE_LOOP ( 'NONE', ( #419, #474, #18, #229 ) ) ;
#343 = ORIENTED_EDGE ( 'NONE', *, *, #115, .T. ) ;
#344 = CARTESIAN_POINT ( 'NONE',  ( 0.000000000000000000, 0.000000000000000000, 0.000000000000000000 ) ) ;
#345 =( NAMED_UNIT ( * ) SI_UNIT ( $, .STERADIAN. ) SOLID_ANGLE_UNIT ( ) );
#346 = ORIENTED_EDGE ( 'NONE', *, *, #231, .F. ) ;
#347 = MECHANICAL_DESIGN_GEOMETRIC_PRESENTATION_REPRESENTATION (  '', ( #381 ), #91 ) ;
#348 = MECHANICAL_DESIGN_GEOMETRIC_PRESENTATION_REPRESENTATION (  '', ( #312 ), #39 ) ;
#349 = DIRECTION ( 'NONE',  ( -1.000000000000000000, -1.275531967630005245E-16, 0.000000000000000000 ) ) ;
#350 = VERTEX_POINT ( 'NONE', #108 ) ;
#351 = LINE ( 'NONE', #27, #496 ) ;
#352 = FILL_AREA_STYLE ('',( #272 ) ) ;
#353 = EDGE_LOOP ( 'NONE', ( #258, #310, #438, #149 ) ) ;
#354 = DIRECTION ( 'NONE',  ( 0.000000000000000000, 1.000000000000000000, 0.000000000000000000 ) ) ;
#355 = VECTOR ( 'NONE', #337, 1000.000000000000000 ) ;
#356 = MECHANICAL_DESIGN_GEOMETRIC_PRESENTATION_REPRESENTATION (  '', ( #84 ), #199 ) ;
#357 =( NAMED_UNIT ( * ) PLANE_ANGLE_UNIT ( ) SI_UNIT ( $, .RADIAN. ) );
#358 = SURFACE_SIDE_STYLE ('',( #29 ) ) ;
#359 = LINE ( 'NONE', #395, #515 ) ;
#360 = EDGE_CURVE ( 'NONE', #460, #180, #201, .T. ) ;
#361 = SURFACE_STYLE_FILL_AREA ( #33 ) ;
#362 = DIRECTION ( 'NONE',  ( 1.000000000000000000, 0.000000000000000000, -0.000000000000000000 ) ) ;
#363 = SURFACE_STYLE_USAGE ( .BOTH. , #358 ) ;
#364 = PRESENTATION_LAYER_ASSIGNMENT (  '', '', ( #197 ) ) ;
#365 = PRESENTATION_LAYER_ASSIGNMENT (  '', '', ( #166 ) ) ;
#366 =( NAMED_UNIT ( * ) PLANE_ANGLE_UNIT ( ) SI_UNIT ( $, .RADIAN. ) );
#367 =( GEOMETRIC_REPRESENTATION_CONTEXT ( 3 ) GLOBAL_UNCERTAINTY_ASSIGNED_CONTEXT ( ( #457 ) ) GLOBAL_UNIT_ASSIGNED_CONTEXT ( ( #239, #72, #426 ) ) REPRESENTATION_CONTEXT ( 'NONE', 'WORKASPACE' ) );
#368 = DIRECTION ( 'NONE',  ( 1.000000000000000000, 0.000000000000000000, -0.000000000000000000 ) ) ;
#369 = EDGE_CURVE ( 'NONE', #238, #394, #192, .T. ) ;
#370 = PRESENTATION_STYLE_ASSIGNMENT (( #451 ) ) ;
#371 = APPLICATION_CONTEXT ( 'automotive_design' ) ;
#372 = DIRECTION ( 'NONE',  ( 0.000000000000000000, -1.000000000000000000, 0.000000000000000000 ) ) ;
#373 = COLOUR_RGB ( '',0.5019607843137254832, 1.000000000000000000, 1.000000000000000000 ) ;
#374 = VECTOR ( 'NONE', #242, 1000.000000000000000 ) ;
#375 =( LENGTH_UNIT ( ) NAMED_UNIT ( * ) SI_UNIT ( .MILLI., .METRE. ) );
#376 = PRODUCT_DEFINITION ( 'UNKNOWN', '', #20, #26 ) ;
#377 = LINE ( 'NONE', #165, #177 ) ;
#378 = SURFACE_SIDE_STYLE ('',( #300 ) ) ;
#379 = ORIENTED_EDGE ( 'NONE', *, *, #484, .F. ) ;
#380 = CARTESIAN_POINT ( 'NONE',  ( -70.00000000000000000, 2.213999999999991086, 4.500000000000000888 ) ) ;
#381 = STYLED_ITEM ( 'NONE', ( #195 ), #34 ) ;
#382 = VECTOR ( 'NONE', #31, 1000.000000000000000 ) ;
#383 =( NAMED_UNIT ( * ) PLANE_ANGLE_UNIT ( ) SI_UNIT ( $, .RADIAN. ) );
#384 = ORIENTED_EDGE ( 'NONE', *, *, #13, .T. ) ;
#385 = ADVANCED_FACE ( 'NONE', ( #269 ), #524, .F. ) ;
#386 = SURFACE_STYLE_FILL_AREA ( #416 ) ;
#387 = LINE ( 'NONE', #439, #374 ) ;
#388 = ORIENTED_EDGE ( 'NONE', *, *, #123, .F. ) ;
#389 = APPLICATION_CONTEXT ( 'automotive_design' ) ;
#390 = COLOUR_RGB ( '',0.9882352941176471006, 0.7372549019607843590, 0.5176470588235293491 ) ;
#391 = CARTESIAN_POINT ( 'NONE',  ( -70.00000000000000000, 7.213999999999992419, 0.05080000000000000487 ) ) ;
#392 = EDGE_CURVE ( 'NONE', #394, #268, #156, .T. ) ;
#393 = CARTESIAN_POINT ( 'NONE',  ( -70.00000000000000000, 2.213999999999991974, 0.000000000000000000 ) ) ;
#394 = VERTEX_POINT ( 'NONE', #241 ) ;
#395 = CARTESIAN_POINT ( 'NONE',  ( -53.00000000000000711, 2.213999999999994195, 0.000000000000000000 ) ) ;
#396 = FILL_AREA_STYLE_COLOUR ( '', #134 ) ;
#397 = LINE ( 'NONE', #185, #382 ) ;
#398 = VECTOR ( 'NONE', #233, 1000.000000000000000 ) ;
#399 = MECHANICAL_DESIGN_GEOMETRIC_PRESENTATION_REPRESENTATION (  '', ( #514 ), #92 ) ;
#400 = CARTESIAN_POINT ( 'NONE',  ( -53.00000000000000711, 2.213999999999994195, 0.05080000000000000487 ) ) ;
#401 = AXIS2_PLACEMENT_3D ( 'NONE', #6, #1, #322 ) ;
#402 = ORIENTED_EDGE ( 'NONE', *, *, #200, .T. ) ;
#403 = LINE ( 'NONE', #208, #153 ) ;
#404 = AXIS2_PLACEMENT_3D ( 'NONE', #323, #468, #63 ) ;
#405 = CARTESIAN_POINT ( 'NONE',  ( -70.00000000000000000, 2.213999999999991974, 0.000000000000000000 ) ) ;
#406 = DIRECTION ( 'NONE',  ( 1.000000000000000000, 1.275531967630005245E-16, -0.000000000000000000 ) ) ;
#407 = CARTESIAN_POINT ( 'NONE',  ( -70.00000000000000000, 2.213999999999991974, 0.05080000000000000487 ) ) ;
#408 = UNCERTAINTY_MEASURE_WITH_UNIT (LENGTH_MEASURE( 1.000000000000000082E-05 ), #228, 'distance_accuracy_value', 'NONE');
#409 = EDGE_CURVE ( 'NONE', #99, #350, #359, .T. ) ;
#410 = LINE ( 'NONE', #292, #186 ) ;
#411 = STYLED_ITEM ( 'NONE', ( #213 ), #103 ) ;
#412 = FACE_OUTER_BOUND ( 'NONE', #353, .T. ) ;
#413 = CARTESIAN_POINT ( 'NONE',  ( -53.00000000000000711, 2.213999999999994195, 4.500000000000000888 ) ) ;
#414 = UNCERTAINTY_MEASURE_WITH_UNIT (LENGTH_MEASURE( 1.000000000000000082E-05 ), #49, 'distance_accuracy_value', 'NONE');
#415 = VERTEX_POINT ( 'NONE', #235 ) ;
#416 = FILL_AREA_STYLE ('',( #307 ) ) ;
#417 = ORIENTED_EDGE ( 'NONE', *, *, #493, .F. ) ;
#418 = DIRECTION ( 'NONE',  ( -0.000000000000000000, -0.000000000000000000, -1.000000000000000000 ) ) ;
#419 = ORIENTED_EDGE ( 'NONE', *, *, #123, .T. ) ;
#420 = COLOUR_RGB ( '',0.5019607843137254832, 1.000000000000000000, 1.000000000000000000 ) ;
#421 = PRESENTATION_LAYER_ASSIGNMENT (  '', '', ( #514 ) ) ;
#422 =( GEOMETRIC_REPRESENTATION_CONTEXT ( 3 ) GLOBAL_UNCERTAINTY_ASSIGNED_CONTEXT ( ( #93 ) ) GLOBAL_UNIT_ASSIGNED_CONTEXT ( ( #203, #214, #328 ) ) REPRESENTATION_CONTEXT ( 'NONE', 'WORKASPACE' ) );
#423 = FILL_AREA_STYLE ('',( #505 ) ) ;
#424 = ORIENTED_EDGE ( 'NONE', *, *, #475, .T. ) ;
#425 = CARTESIAN_POINT ( 'NONE',  ( 0.000000000000000000, 0.000000000000000000, 0.000000000000000000 ) ) ;
#426 =( NAMED_UNIT ( * ) SI_UNIT ( $, .STERADIAN. ) SOLID_ANGLE_UNIT ( ) );
#427 = CARTESIAN_POINT ( 'NONE',  ( -70.00000000000000000, 7.213999999999992419, 0.000000000000000000 ) ) ;
#428 = ORIENTED_EDGE ( 'NONE', *, *, #475, .F. ) ;
#429 = DIRECTION ( 'NONE',  ( 0.000000000000000000, -1.000000000000000000, 0.000000000000000000 ) ) ;
#430 = SURFACE_STYLE_FILL_AREA ( #352 ) ;
#431 = DIRECTION ( 'NONE',  ( -1.000000000000000000, -1.020425574104004122E-16, 0.000000000000000000 ) ) ;
#432 = PRESENTATION_LAYER_ASSIGNMENT (  '', '', ( #38 ) ) ;
#433 =( GEOMETRIC_REPRESENTATION_CONTEXT ( 3 ) GLOBAL_UNCERTAINTY_ASSIGNED_CONTEXT ( ( #131 ) ) GLOBAL_UNIT_ASSIGNED_CONTEXT ( ( #182, #14, #60 ) ) REPRESENTATION_CONTEXT ( 'NONE', 'WORKASPACE' ) );
#434 = SURFACE_STYLE_USAGE ( .BOTH. , #518 ) ;
#435 = ORIENTED_EDGE ( 'NONE', *, *, #231, .T. ) ;
#436 = SURFACE_STYLE_FILL_AREA ( #194 ) ;
#437 = FACE_OUTER_BOUND ( 'NONE', #94, .T. ) ;
#438 = ORIENTED_EDGE ( 'NONE', *, *, #13, .F. ) ;
#439 = CARTESIAN_POINT ( 'NONE',  ( -53.00000000000000711, 7.213999999999994195, 0.000000000000000000 ) ) ;
#440 = ORIENTED_EDGE ( 'NONE', *, *, #409, .F. ) ;
#441 = EDGE_CURVE ( 'NONE', #35, #176, #28, .T. ) ;
#442 = SURFACE_STYLE_FILL_AREA ( #120 ) ;
#443 = MECHANICAL_DESIGN_GEOMETRIC_PRESENTATION_REPRESENTATION (  '', ( #411 ), #459 ) ;
#444 = STYLED_ITEM ( 'NONE', ( #227 ), #321 ) ;
#445 =( GEOMETRIC_REPRESENTATION_CONTEXT ( 3 ) GLOBAL_UNCERTAINTY_ASSIGNED_CONTEXT ( ( #519 ) ) GLOBAL_UNIT_ASSIGNED_CONTEXT ( ( #116, #52, #502 ) ) REPRESENTATION_CONTEXT ( 'NONE', 'WORKASPACE' ) );
#446 = ORIENTED_EDGE ( 'NONE', *, *, #335, .T. ) ;
#447 = PRESENTATION_STYLE_ASSIGNMENT (( #289 ) ) ;
#448 = EDGE_CURVE ( 'NONE', #176, #350, #320, .T. ) ;
#449 = LINE ( 'NONE', #407, #7 ) ;
#450 = PRESENTATION_LAYER_ASSIGNMENT (  '', '', ( #411 ) ) ;
#451 = SURFACE_STYLE_USAGE ( .BOTH. , #245 ) ;
#452 = COLOUR_RGB ( '',0.5019607843137254832, 1.000000000000000000, 1.000000000000000000 ) ;
#453 = EDGE_CURVE ( 'NONE', #350, #180, #387, .T. ) ;
#454 = DIRECTION ( 'NONE',  ( -1.000000000000000000, -1.020425574104004122E-16, 0.000000000000000000 ) ) ;
#455 = PLANE ( 'NONE',  #490 ) ;
#456 = CARTESIAN_POINT ( 'NONE',  ( -53.00000000000000711, 2.213999999999994195, 0.000000000000000000 ) ) ;
#457 = UNCERTAINTY_MEASURE_WITH_UNIT (LENGTH_MEASURE( 1.000000000000000082E-05 ), #239, 'distance_accuracy_value', 'NONE');
#458 = FACE_OUTER_BOUND ( 'NONE', #273, .T. ) ;
#459 =( GEOMETRIC_REPRESENTATION_CONTEXT ( 3 ) GLOBAL_UNCERTAINTY_ASSIGNED_CONTEXT ( ( #88 ) ) GLOBAL_UNIT_ASSIGNED_CONTEXT ( ( #327, #495, #298 ) ) REPRESENTATION_CONTEXT ( 'NONE', 'WORKASPACE' ) );
#460 = VERTEX_POINT ( 'NONE', #391 ) ;
#461 = VECTOR ( 'NONE', #454, 1000.000000000000000 ) ;
#462 = FILL_AREA_STYLE ('',( #313 ) ) ;
#463 = DIRECTION ( 'NONE',  ( 1.000000000000000000, 0.000000000000000000, 0.000000000000000000 ) ) ;
#464 = EDGE_LOOP ( 'NONE', ( #343, #97, #506, #282 ) ) ;
#465 = SHAPE_DEFINITION_REPRESENTATION ( #77, #326 ) ;
#466 = DIRECTION ( 'NONE',  ( 0.000000000000000000, -0.000000000000000000, 1.000000000000000000 ) ) ;
#467 = ORIENTED_EDGE ( 'NONE', *, *, #76, .T. ) ;
#468 = DIRECTION ( 'NONE',  ( 0.000000000000000000, -0.000000000000000000, 1.000000000000000000 ) ) ;
#469 = ORIENTED_EDGE ( 'NONE', *, *, #409, .T. ) ;
#470 = VECTOR ( 'NONE', #429, 1000.000000000000000 ) ;
#471 = PRODUCT ( '561-00012-00', '561-00012-00', '', ( #259 ) ) ;
#472 = CARTESIAN_POINT ( 'NONE',  ( -53.00000000000000711, 2.213999999999994195, 0.05080000000000000487 ) ) ;
#473 = SURFACE_STYLE_USAGE ( .BOTH. , #378 ) ;
#474 = ORIENTED_EDGE ( 'NONE', *, *, #170, .T. ) ;
#475 = EDGE_CURVE ( 'NONE', #12, #394, #397, .T. ) ;
#476 = LINE ( 'NONE', #43, #461 ) ;
#477 = PLANE ( 'NONE',  #47 ) ;
#478 = CARTESIAN_POINT ( 'NONE',  ( -70.00000000000000000, 7.213999999999992419, 0.05080000000000000487 ) ) ;
#479 = CARTESIAN_POINT ( 'NONE',  ( -53.00000000000000711, 2.213999999999994195, 4.500000000000000888 ) ) ;
#480 = MECHANICAL_DESIGN_GEOMETRIC_PRESENTATION_REPRESENTATION (  '', ( #166 ), #311 ) ;
#481 = CARTESIAN_POINT ( 'NONE',  ( -53.00000000000000711, 2.213999999999994195, 26.72004514666934938 ) ) ;
#482 =( NAMED_UNIT ( * ) SI_UNIT ( $, .STERADIAN. ) SOLID_ANGLE_UNIT ( ) );
#483 = DIRECTION ( 'NONE',  ( -1.000000000000000000, 0.000000000000000000, 0.000000000000000000 ) ) ;
#484 = EDGE_CURVE ( 'NONE', #176, #460, #17, .T. ) ;
#485 = EDGE_LOOP ( 'NONE', ( #440, #510, #222, #314 ) ) ;
#486 = PLANE ( 'NONE',  #401 ) ;
#487 = FILL_AREA_STYLE ('',( #396 ) ) ;
#488 = FILL_AREA_STYLE_COLOUR ( '', #59 ) ;
#489 = AXIS2_PLACEMENT_3D ( 'NONE', #151, #246, #205 ) ;
#490 = AXIS2_PLACEMENT_3D ( 'NONE', #344, #466, #220 ) ;
#491 = STYLED_ITEM ( 'NONE', ( #447 ), #530 ) ;
#492 = SURFACE_STYLE_FILL_AREA ( #248 ) ;
#493 = EDGE_CURVE ( 'NONE', #140, #62, #476, .T. ) ;
#494 = FILL_AREA_STYLE ('',( #528 ) ) ;
#495 =( NAMED_UNIT ( * ) PLANE_ANGLE_UNIT ( ) SI_UNIT ( $, .RADIAN. ) );
#496 = VECTOR ( 'NONE', #431, 1000.000000000000000 ) ;
#497 = COLOUR_RGB ( '',0.5019607843137254832, 1.000000000000000000, 1.000000000000000000 ) ;
#498 = DIRECTION ( 'NONE',  ( -1.275531967630005245E-16, 1.000000000000000000, 0.000000000000000000 ) ) ;
#499 = CARTESIAN_POINT ( 'NONE',  ( -53.00000000000000711, 7.213999999999994195, 26.72004514666934938 ) ) ;
#500 = DIRECTION ( 'NONE',  ( -0.000000000000000000, 0.000000000000000000, -1.000000000000000000 ) ) ;
#501 = PLANE ( 'NONE',  #404 ) ;
#502 =( NAMED_UNIT ( * ) SI_UNIT ( $, .STERADIAN. ) SOLID_ANGLE_UNIT ( ) );
#503 = UNCERTAINTY_MEASURE_WITH_UNIT (LENGTH_MEASURE( 1.000000000000000082E-05 ), #375, 'distance_accuracy_value', 'NONE');
#504 = PRESENTATION_STYLE_ASSIGNMENT (( #296 ) ) ;
#505 = FILL_AREA_STYLE_COLOUR ( '', #373 ) ;
#506 = ORIENTED_EDGE ( 'NONE', *, *, #157, .F. ) ;
#507 =( NAMED_UNIT ( * ) SI_UNIT ( $, .STERADIAN. ) SOLID_ANGLE_UNIT ( ) );
#508 =( LENGTH_UNIT ( ) NAMED_UNIT ( * ) SI_UNIT ( .MILLI., .METRE. ) );
#509 = EDGE_LOOP ( 'NONE', ( #512, #147, #306, #428 ) ) ;
#510 = ORIENTED_EDGE ( 'NONE', *, *, #70, .F. ) ;
#511 = ADVANCED_FACE ( 'NONE', ( #283 ), #133, .F. ) ;
#512 = ORIENTED_EDGE ( 'NONE', *, *, #170, .F. ) ;
#513 = DIRECTION ( 'NONE',  ( 1.000000000000000000, 0.000000000000000000, 0.000000000000000000 ) ) ;
#514 = STYLED_ITEM ( 'NONE', ( #57 ), #223 ) ;
#515 = VECTOR ( 'NONE', #74, 1000.000000000000000 ) ;
#516 = CARTESIAN_POINT ( 'NONE',  ( -53.00000000000000711, 7.213999999999994195, 0.05080000000000000487 ) ) ;
#517 = ORIENTED_EDGE ( 'NONE', *, *, #453, .T. ) ;
#518 = SURFACE_SIDE_STYLE ('',( #436 ) ) ;
#519 = UNCERTAINTY_MEASURE_WITH_UNIT (LENGTH_MEASURE( 1.000000000000000082E-05 ), #116, 'distance_accuracy_value', 'NONE');
#520 =( LENGTH_UNIT ( ) NAMED_UNIT ( * ) SI_UNIT ( .MILLI., .METRE. ) );
#521 = FILL_AREA_STYLE_COLOUR ( '', #420 ) ;
#522 = COLOUR_RGB ( '',0.9882352941176471006, 0.7372549019607843590, 0.5176470588235293491 ) ;
#523 = PRESENTATION_STYLE_ASSIGNMENT (( #363 ) ) ;
#524 = PLANE ( 'NONE',  #218 ) ;
#525 =( NAMED_UNIT ( * ) PLANE_ANGLE_UNIT ( ) SI_UNIT ( $, .RADIAN. ) );
#526 = VECTOR ( 'NONE', #418, 1000.000000000000000 ) ;
#527 = AXIS2_PLACEMENT_3D ( 'NONE', #204, #368, #500 ) ;
#528 = FILL_AREA_STYLE_COLOUR ( '', #452 ) ;
#529 =( NAMED_UNIT ( * ) PLANE_ANGLE_UNIT ( ) SI_UNIT ( $, .RADIAN. ) );
#530 = ADVANCED_FACE ( 'NONE', ( #412 ), #486, .F. ) ;
#531 = DIRECTION ( 'NONE',  ( 1.020425574104004122E-16, -1.000000000000000000, 0.000000000000000000 ) ) ;
#532 = UNCERTAINTY_MEASURE_WITH_UNIT (LENGTH_MEASURE( 1.000000000000000082E-05 ), #325, 'distance_accuracy_value', 'NONE');
ENDSEC;
END-ISO-10303-21;
