ISO-10303-21;
HEADER;
FILE_DESCRIPTION (( 'STEP AP214' ),
    '1' );
FILE_NAME ('561-00004-00.step',
    '2026-02-27T00:28:51',
    ( '' ),
    ( '' ),
    'SwSTEP 2.0',
    'SolidWorks 2023',
    '' );
FILE_SCHEMA (( 'AUTOMOTIVE_DESIGN' ));
ENDSEC;

DATA;
#1 = SURFACE_STYLE_FILL_AREA ( #75 ) ;
#2 = LINE ( 'NONE', #98, #174 ) ;
#3 = LINE ( 'NONE', #251, #194 ) ;
#4 = CARTESIAN_POINT ( 'NONE',  ( -10.00000000000000888, 2.213999999999999524, 0.05080000000000000487 ) ) ;
#5 = ADVANCED_FACE ( 'NONE', ( #523 ), #234, .F. ) ;
#6 = ORIENTED_EDGE ( 'NONE', *, *, #26, .F. ) ;
#7 =( GEOMETRIC_REPRESENTATION_CONTEXT ( 3 ) GLOBAL_UNCERTAINTY_ASSIGNED_CONTEXT ( ( #82 ) ) GLOBAL_UNIT_ASSIGNED_CONTEXT ( ( #314, #31, #308 ) ) REPRESENTATION_CONTEXT ( 'NONE', 'WORKASPACE' ) );
#8 = CARTESIAN_POINT ( 'NONE',  ( -70.00000000000000000, 7.213999999999992419, 70.20797289396148244 ) ) ;
#9 = MECHANICAL_DESIGN_GEOMETRIC_PRESENTATION_REPRESENTATION (  '', ( #490 ), #373 ) ;
#10 =( GEOMETRIC_REPRESENTATION_CONTEXT ( 3 ) GLOBAL_UNCERTAINTY_ASSIGNED_CONTEXT ( ( #134 ) ) GLOBAL_UNIT_ASSIGNED_CONTEXT ( ( #393, #93, #434 ) ) REPRESENTATION_CONTEXT ( 'NONE', 'WORKASPACE' ) );
#11 = ORIENTED_EDGE ( 'NONE', *, *, #148, .T. ) ;
#12 = DIRECTION ( 'NONE',  ( 1.000000000000000000, 0.000000000000000000, 0.000000000000000000 ) ) ;
#13 = ORIENTED_EDGE ( 'NONE', *, *, #68, .F. ) ;
#14 = ADVANCED_FACE ( 'NONE', ( #317 ), #149, .F. ) ;
#15 = LINE ( 'NONE', #506, #154 ) ;
#16 = DIRECTION ( 'NONE',  ( -1.000000000000000000, -1.156482317317871478E-16, 0.000000000000000000 ) ) ;
#17 = ORIENTED_EDGE ( 'NONE', *, *, #182, .T. ) ;
#18 =( LENGTH_UNIT ( ) NAMED_UNIT ( * ) SI_UNIT ( .MILLI., .METRE. ) );
#19 = EDGE_LOOP ( 'NONE', ( #413, #6, #473, #224 ) ) ;
#20 = MECHANICAL_DESIGN_GEOMETRIC_PRESENTATION_REPRESENTATION (  '', ( #56 ), #474 ) ;
#21 = MECHANICAL_DESIGN_GEOMETRIC_PRESENTATION_REPRESENTATION (  '', ( #144 ), #351 ) ;
#22 = DIRECTION ( 'NONE',  ( -1.228762462150238769E-16, 1.000000000000000000, 0.000000000000000000 ) ) ;
#23 = SURFACE_STYLE_USAGE ( .BOTH. , #280 ) ;
#24 = CARTESIAN_POINT ( 'NONE',  ( -70.00000000000000000, 2.213999999999991974, 70.20797289396148244 ) ) ;
#25 = MANIFOLD_SOLID_BREP ( 'Boss-Extrude2', #342 ) ;
#26 = EDGE_CURVE ( 'NONE', #478, #50, #158, .T. ) ;
#27 = ORIENTED_EDGE ( 'NONE', *, *, #198, .F. ) ;
#28 = CLOSED_SHELL ( 'NONE', ( #240, #508, #49, #258, #347, #14 ) ) ;
#29 = STYLED_ITEM ( 'NONE', ( #360 ), #240 ) ;
#30 = CARTESIAN_POINT ( 'NONE',  ( -70.00000000000000000, 2.213999999999991974, 0.000000000000000000 ) ) ;
#31 =( NAMED_UNIT ( * ) PLANE_ANGLE_UNIT ( ) SI_UNIT ( $, .RADIAN. ) );
#32 = LINE ( 'NONE', #356, #443 ) ;
#33 = PRESENTATION_STYLE_ASSIGNMENT (( #396 ) ) ;
#34 = ORIENTED_EDGE ( 'NONE', *, *, #382, .T. ) ;
#35 = MANIFOLD_SOLID_BREP ( 'Boss-Extrude1', #28 ) ;
#36 = CARTESIAN_POINT ( 'NONE',  ( -70.00000000000000000, 7.213999999999992419, 0.05080000000000000487 ) ) ;
#37 = SURFACE_STYLE_USAGE ( .BOTH. , #401 ) ;
#38 = STYLED_ITEM ( 'NONE', ( #404 ), #35 ) ;
#39 = VECTOR ( 'NONE', #90, 1000.000000000000000 ) ;
#40 = SURFACE_SIDE_STYLE ('',( #488 ) ) ;
#41 = LINE ( 'NONE', #528, #334 ) ;
#42 = LINE ( 'NONE', #163, #295 ) ;
#43 = EDGE_CURVE ( 'NONE', #377, #214, #42, .T. ) ;
#44 = FACE_OUTER_BOUND ( 'NONE', #19, .T. ) ;
#45 = MECHANICAL_DESIGN_GEOMETRIC_PRESENTATION_REPRESENTATION (  '', ( #432 ), #524 ) ;
#46 = PRESENTATION_LAYER_ASSIGNMENT (  '', '', ( #201 ) ) ;
#47 = SURFACE_STYLE_FILL_AREA ( #121 ) ;
#48 = CARTESIAN_POINT ( 'NONE',  ( -10.00000000000000888, 2.213999999999999524, 0.000000000000000000 ) ) ;
#49 = ADVANCED_FACE ( 'NONE', ( #438 ), #527, .F. ) ;
#50 = VERTEX_POINT ( 'NONE', #95 ) ;
#51 = APPLICATION_PROTOCOL_DEFINITION ( 'draft international standard', 'automotive_design', 1998, #70 ) ;
#52 = LINE ( 'NONE', #302, #365 ) ;
#53 = UNCERTAINTY_MEASURE_WITH_UNIT (LENGTH_MEASURE( 1.000000000000000082E-05 ), #436, 'distance_accuracy_value', 'NONE');
#54 = ORIENTED_EDGE ( 'NONE', *, *, #400, .T. ) ;
#55 = PRESENTATION_STYLE_ASSIGNMENT (( #460 ) ) ;
#56 = STYLED_ITEM ( 'NONE', ( #161 ), #25 ) ;
#57 = DIRECTION ( 'NONE',  ( -1.000000000000000000, -1.156482317317871725E-16, 0.000000000000000000 ) ) ;
#58 = VECTOR ( 'NONE', #105, 1000.000000000000000 ) ;
#59 = VECTOR ( 'NONE', #426, 1000.000000000000000 ) ;
#60 = ORIENTED_EDGE ( 'NONE', *, *, #376, .T. ) ;
#61 =( NAMED_UNIT ( * ) PLANE_ANGLE_UNIT ( ) SI_UNIT ( $, .RADIAN. ) );
#62 = ORIENTED_EDGE ( 'NONE', *, *, #85, .T. ) ;
#63 = EDGE_LOOP ( 'NONE', ( #17, #227, #178, #137 ) ) ;
#64 = SURFACE_SIDE_STYLE ('',( #420 ) ) ;
#65 =( NAMED_UNIT ( * ) PLANE_ANGLE_UNIT ( ) SI_UNIT ( $, .RADIAN. ) );
#66 = EDGE_LOOP ( 'NONE', ( #187, #102, #11, #62 ) ) ;
#67 = LINE ( 'NONE', #343, #183 ) ;
#68 = EDGE_CURVE ( 'NONE', #271, #96, #175, .T. ) ;
#69 = FILL_AREA_STYLE_COLOUR ( '', #264 ) ;
#70 = APPLICATION_CONTEXT ( 'automotive_design' ) ;
#71 = CARTESIAN_POINT ( 'NONE',  ( -10.00000000000000888, 2.213999999999999524, 70.20797289396148244 ) ) ;
#72 = VERTEX_POINT ( 'NONE', #507 ) ;
#73 = EDGE_CURVE ( 'NONE', #96, #50, #412, .T. ) ;
#74 = PRODUCT_DEFINITION_FORMATION_WITH_SPECIFIED_SOURCE ( 'ANY', '', #117, .NOT_KNOWN. ) ;
#75 = FILL_AREA_STYLE ('',( #131 ) ) ;
#76 = CARTESIAN_POINT ( 'NONE',  ( -10.00000000000000888, 2.213999999999999524, 5.000000000000004441 ) ) ;
#77 = DIRECTION ( 'NONE',  ( 0.000000000000000000, -0.000000000000000000, 1.000000000000000000 ) ) ;
#78 = DIRECTION ( 'NONE',  ( 1.156482317317871478E-16, -1.000000000000000000, 0.000000000000000000 ) ) ;
#79 =( NAMED_UNIT ( * ) PLANE_ANGLE_UNIT ( ) SI_UNIT ( $, .RADIAN. ) );
#80 = SURFACE_STYLE_FILL_AREA ( #323 ) ;
#81 = FILL_AREA_STYLE_COLOUR ( '', #244 ) ;
#82 = UNCERTAINTY_MEASURE_WITH_UNIT (LENGTH_MEASURE( 1.000000000000000082E-05 ), #314, 'distance_accuracy_value', 'NONE');
#83 = COLOUR_RGB ( '',0.5019607843137254832, 1.000000000000000000, 1.000000000000000000 ) ;
#84 = SURFACE_STYLE_USAGE ( .BOTH. , #530 ) ;
#85 = EDGE_CURVE ( 'NONE', #349, #383, #52, .T. ) ;
#86 = FILL_AREA_STYLE_COLOUR ( '', #211 ) ;
#87 = UNCERTAINTY_MEASURE_WITH_UNIT (LENGTH_MEASURE( 1.000000000000000082E-05 ), #168, 'distance_accuracy_value', 'NONE');
#88 = DIRECTION ( 'NONE',  ( 0.000000000000000000, 0.000000000000000000, 1.000000000000000000 ) ) ;
#89 = COLOUR_RGB ( '',0.9882352941176471006, 0.7372549019607843590, 0.5176470588235293491 ) ;
#90 = DIRECTION ( 'NONE',  ( -0.000000000000000000, -1.000000000000000000, -0.000000000000000000 ) ) ;
#91 = UNCERTAINTY_MEASURE_WITH_UNIT (LENGTH_MEASURE( 1.000000000000000082E-05 ), #516, 'distance_accuracy_value', 'NONE');
#92 = ORIENTED_EDGE ( 'NONE', *, *, #107, .T. ) ;
#93 =( NAMED_UNIT ( * ) PLANE_ANGLE_UNIT ( ) SI_UNIT ( $, .RADIAN. ) );
#94 = DIRECTION ( 'NONE',  ( 1.000000000000000000, 1.228762462150238769E-16, 0.000000000000000000 ) ) ;
#95 = CARTESIAN_POINT ( 'NONE',  ( -70.00000000000000000, 7.213999999999992419, 0.000000000000000000 ) ) ;
#96 = VERTEX_POINT ( 'NONE', #294 ) ;
#97 = PRESENTATION_STYLE_ASSIGNMENT (( #461 ) ) ;
#98 = CARTESIAN_POINT ( 'NONE',  ( -70.00000000000000000, 2.213999999999991974, 5.000000000000004441 ) ) ;
#99 = SURFACE_SIDE_STYLE ('',( #306 ) ) ;
#100 = PRESENTATION_LAYER_ASSIGNMENT (  '', '', ( #144 ) ) ;
#101 = AXIS2_PLACEMENT_3D ( 'NONE', #292, #78, #206 ) ;
#102 = ORIENTED_EDGE ( 'NONE', *, *, #250, .T. ) ;
#103 = PRESENTATION_STYLE_ASSIGNMENT (( #468 ) ) ;
#104 = UNCERTAINTY_MEASURE_WITH_UNIT (LENGTH_MEASURE( 1.000000000000000082E-05 ), #196, 'distance_accuracy_value', 'NONE');
#105 = DIRECTION ( 'NONE',  ( 1.000000000000000000, 1.228762462150238523E-16, -0.000000000000000000 ) ) ;
#106 = FILL_AREA_STYLE ('',( #229 ) ) ;
#107 = EDGE_CURVE ( 'NONE', #371, #341, #216, .T. ) ;
#108 =( GEOMETRIC_REPRESENTATION_CONTEXT ( 3 ) GLOBAL_UNCERTAINTY_ASSIGNED_CONTEXT ( ( #87 ) ) GLOBAL_UNIT_ASSIGNED_CONTEXT ( ( #168, #79, #199 ) ) REPRESENTATION_CONTEXT ( 'NONE', 'WORKASPACE' ) );
#109 = EDGE_LOOP ( 'NONE', ( #522, #505, #260, #429 ) ) ;
#110 =( GEOMETRIC_REPRESENTATION_CONTEXT ( 3 ) GLOBAL_UNCERTAINTY_ASSIGNED_CONTEXT ( ( #104 ) ) GLOBAL_UNIT_ASSIGNED_CONTEXT ( ( #196, #128, #238 ) ) REPRESENTATION_CONTEXT ( 'NONE', 'WORKASPACE' ) );
#111 = MECHANICAL_DESIGN_GEOMETRIC_PRESENTATION_REPRESENTATION (  '', ( #416 ), #344 ) ;
#112 = LINE ( 'NONE', #71, #456 ) ;
#113 = FILL_AREA_STYLE ('',( #153 ) ) ;
#114 = DIRECTION ( 'NONE',  ( -0.000000000000000000, -0.000000000000000000, -1.000000000000000000 ) ) ;
#115 = ADVANCED_FACE ( 'NONE', ( #261 ), #370, .F. ) ;
#116 = SURFACE_STYLE_FILL_AREA ( #113 ) ;
#117 = PRODUCT ( '561-00004-00', '561-00004-00', '', ( #482 ) ) ;
#118 = CARTESIAN_POINT ( 'NONE',  ( 0.000000000000000000, 0.000000000000000000, 0.05080000000000000487 ) ) ;
#119 = VECTOR ( 'NONE', #451, 1000.000000000000000 ) ;
#120 = DIRECTION ( 'NONE',  ( 1.156482317317871725E-16, -1.000000000000000000, 0.000000000000000000 ) ) ;
#121 = FILL_AREA_STYLE ('',( #290 ) ) ;
#122 = SURFACE_STYLE_USAGE ( .BOTH. , #40 ) ;
#123 = EDGE_CURVE ( 'NONE', #478, #371, #503, .T. ) ;
#124 = STYLED_ITEM ( 'NONE', ( #448 ), #49 ) ;
#125 = VECTOR ( 'NONE', #479, 1000.000000000000000 ) ;
#126 = VECTOR ( 'NONE', #190, 1000.000000000000000 ) ;
#127 = SURFACE_STYLE_USAGE ( .BOTH. , #247 ) ;
#128 =( NAMED_UNIT ( * ) PLANE_ANGLE_UNIT ( ) SI_UNIT ( $, .RADIAN. ) );
#129 = UNCERTAINTY_MEASURE_WITH_UNIT (LENGTH_MEASURE( 1.000000000000000082E-05 ), #357, 'distance_accuracy_value', 'NONE');
#130 = CARTESIAN_POINT ( 'NONE',  ( -10.00000000000000888, 2.213999999999999524, 0.05080000000000000487 ) ) ;
#131 = FILL_AREA_STYLE_COLOUR ( '', #352 ) ;
#132 = STYLED_ITEM ( 'NONE', ( #278 ), #14 ) ;
#133 = PLANE ( 'NONE',  #193 ) ;
#134 = UNCERTAINTY_MEASURE_WITH_UNIT (LENGTH_MEASURE( 1.000000000000000082E-05 ), #393, 'distance_accuracy_value', 'NONE');
#135 = ORIENTED_EDGE ( 'NONE', *, *, #123, .T. ) ;
#136 = FILL_AREA_STYLE ('',( #254 ) ) ;
#137 = ORIENTED_EDGE ( 'NONE', *, *, #26, .T. ) ;
#138 = ADVANCED_FACE ( 'NONE', ( #409 ), #133, .F. ) ;
#139 = DIRECTION ( 'NONE',  ( -0.000000000000000000, 0.000000000000000000, -1.000000000000000000 ) ) ;
#140 = ORIENTED_EDGE ( 'NONE', *, *, #382, .F. ) ;
#141 = CARTESIAN_POINT ( 'NONE',  ( -70.00000000000000000, 2.213999999999991974, 0.05080000000000000487 ) ) ;
#142 = AXIS2_PLACEMENT_3D ( 'NONE', #481, #77, #239 ) ;
#143 = CARTESIAN_POINT ( 'NONE',  ( -70.00000000000000000, 2.213999999999991974, 0.05080000000000000487 ) ) ;
#144 = STYLED_ITEM ( 'NONE', ( #97 ), #138 ) ;
#145 = DIRECTION ( 'NONE',  ( 0.000000000000000000, -0.000000000000000000, 1.000000000000000000 ) ) ;
#146 = VERTEX_POINT ( 'NONE', #191 ) ;
#147 = SHAPE_DEFINITION_REPRESENTATION ( #243, #484 ) ;
#148 = EDGE_CURVE ( 'NONE', #146, #349, #281, .T. ) ;
#149 = PLANE ( 'NONE',  #142 ) ;
#150 = CARTESIAN_POINT ( 'NONE',  ( -70.00000000000000000, 7.213999999999992419, 5.000000000000031974 ) ) ;
#151 = SURFACE_STYLE_FILL_AREA ( #480 ) ;
#152 = MECHANICAL_DESIGN_GEOMETRIC_PRESENTATION_REPRESENTATION (  '', ( #287 ), #7 ) ;
#153 = FILL_AREA_STYLE_COLOUR ( '', #319 ) ;
#154 = VECTOR ( 'NONE', #293, 1000.000000000000000 ) ;
#155 = CARTESIAN_POINT ( 'NONE',  ( -10.00000000000000888, 2.213999999999999524, 0.05080000000000000487 ) ) ;
#156 = FACE_OUTER_BOUND ( 'NONE', #454, .T. ) ;
#157 = ORIENTED_EDGE ( 'NONE', *, *, #501, .F. ) ;
#158 = LINE ( 'NONE', #322, #233 ) ;
#159 = COLOUR_RGB ( '',0.5019607843137254832, 1.000000000000000000, 1.000000000000000000 ) ;
#160 = FACE_OUTER_BOUND ( 'NONE', #66, .T. ) ;
#161 = PRESENTATION_STYLE_ASSIGNMENT (( #37 ) ) ;
#162 = ADVANCED_FACE ( 'NONE', ( #472 ), #348, .F. ) ;
#163 = CARTESIAN_POINT ( 'NONE',  ( -10.00000000000000888, 7.213999999999998636, 0.05080000000000000487 ) ) ;
#164 = VECTOR ( 'NONE', #457, 1000.000000000000000 ) ;
#165 = STYLED_ITEM ( 'NONE', ( #514 ), #347 ) ;
#166 = VECTOR ( 'NONE', #388, 1000.000000000000000 ) ;
#167 = ADVANCED_FACE ( 'NONE', ( #160 ), #207, .T. ) ;
#168 =( LENGTH_UNIT ( ) NAMED_UNIT ( * ) SI_UNIT ( .MILLI., .METRE. ) );
#169 = CARTESIAN_POINT ( 'NONE',  ( -10.00000000000000888, 7.213999999999998636, 0.000000000000000000 ) ) ;
#170 = LINE ( 'NONE', #141, #119 ) ;
#171 = FILL_AREA_STYLE_COLOUR ( '', #89 ) ;
#172 = VERTEX_POINT ( 'NONE', #321 ) ;
#173 = CARTESIAN_POINT ( 'NONE',  ( 0.000000000000000000, 0.000000000000000000, 0.000000000000000000 ) ) ;
#174 = VECTOR ( 'NONE', #94, 1000.000000000000000 ) ;
#175 = LINE ( 'NONE', #464, #164 ) ;
#176 = EDGE_LOOP ( 'NONE', ( #368, #337, #223, #27 ) ) ;
#177 = SURFACE_STYLE_USAGE ( .BOTH. , #99 ) ;
#178 = ORIENTED_EDGE ( 'NONE', *, *, #123, .F. ) ;
#179 = ORIENTED_EDGE ( 'NONE', *, *, #354, .F. ) ;
#180 = DIRECTION ( 'NONE',  ( -0.000000000000000000, -0.000000000000000000, -1.000000000000000000 ) ) ;
#181 = PRESENTATION_STYLE_ASSIGNMENT (( #428 ) ) ;
#182 = EDGE_CURVE ( 'NONE', #50, #379, #403, .T. ) ;
#183 = VECTOR ( 'NONE', #114, 1000.000000000000000 ) ;
#184 = ORIENTED_EDGE ( 'NONE', *, *, #437, .F. ) ;
#185 = DIRECTION ( 'NONE',  ( 1.000000000000000000, 0.000000000000000000, 0.000000000000000000 ) ) ;
#186 = CARTESIAN_POINT ( 'NONE',  ( -10.00000000000000888, 2.213999999999999524, 0.05080000000000000487 ) ) ;
#187 = ORIENTED_EDGE ( 'NONE', *, *, #501, .T. ) ;
#188 = FILL_AREA_STYLE ('',( #69 ) ) ;
#189 = SURFACE_STYLE_USAGE ( .BOTH. , #192 ) ;
#190 = DIRECTION ( 'NONE',  ( 0.000000000000000000, 1.000000000000000000, 0.000000000000000000 ) ) ;
#191 = CARTESIAN_POINT ( 'NONE',  ( -10.00000000000000888, 2.213999999999999524, 5.000000000000031974 ) ) ;
#192 = SURFACE_SIDE_STYLE ('',( #483 ) ) ;
#193 = AXIS2_PLACEMENT_3D ( 'NONE', #24, #22, #270 ) ;
#194 = VECTOR ( 'NONE', #485, 1000.000000000000000 ) ;
#195 = FILL_AREA_STYLE ('',( #307 ) ) ;
#196 =( LENGTH_UNIT ( ) NAMED_UNIT ( * ) SI_UNIT ( .MILLI., .METRE. ) );
#197 = PRESENTATION_STYLE_ASSIGNMENT (( #23 ) ) ;
#198 = EDGE_CURVE ( 'NONE', #385, #377, #41, .T. ) ;
#199 =( NAMED_UNIT ( * ) SI_UNIT ( $, .STERADIAN. ) SOLID_ANGLE_UNIT ( ) );
#200 = PRESENTATION_LAYER_ASSIGNMENT (  '', '', ( #56 ) ) ;
#201 = STYLED_ITEM ( 'NONE', ( #33 ), #167 ) ;
#202 = PRESENTATION_LAYER_ASSIGNMENT (  '', '', ( #29 ) ) ;
#203 = DIRECTION ( 'NONE',  ( 0.000000000000000000, -0.000000000000000000, 1.000000000000000000 ) ) ;
#204 = DIRECTION ( 'NONE',  ( -0.000000000000000000, -1.000000000000000000, -0.000000000000000000 ) ) ;
#205 =( NAMED_UNIT ( * ) PLANE_ANGLE_UNIT ( ) SI_UNIT ( $, .RADIAN. ) );
#206 = DIRECTION ( 'NONE',  ( 1.000000000000000000, 1.156482317317871478E-16, 0.000000000000000000 ) ) ;
#207 = PLANE ( 'NONE',  #380 ) ;
#208 =( LENGTH_UNIT ( ) NAMED_UNIT ( * ) SI_UNIT ( .MILLI., .METRE. ) );
#209 = SURFACE_STYLE_USAGE ( .BOTH. , #450 ) ;
#210 = VECTOR ( 'NONE', #495, 1000.000000000000000 ) ;
#211 = COLOUR_RGB ( '',0.9882352941176471006, 0.7372549019607843590, 0.5176470588235293491 ) ;
#212 =( LENGTH_UNIT ( ) NAMED_UNIT ( * ) SI_UNIT ( .MILLI., .METRE. ) );
#213 =( LENGTH_UNIT ( ) NAMED_UNIT ( * ) SI_UNIT ( .MILLI., .METRE. ) );
#214 = VERTEX_POINT ( 'NONE', #36 ) ;
#215 = DIRECTION ( 'NONE',  ( -0.000000000000000000, -0.000000000000000000, -1.000000000000000000 ) ) ;
#216 = LINE ( 'NONE', #336, #210 ) ;
#217 = PRODUCT_DEFINITION ( 'UNKNOWN', '', #74, #440 ) ;
#218 = ORIENTED_EDGE ( 'NONE', *, *, #148, .F. ) ;
#219 = MECHANICAL_DESIGN_GEOMETRIC_PRESENTATION_REPRESENTATION (  '', ( #132 ), #486 ) ;
#220 =( NAMED_UNIT ( * ) PLANE_ANGLE_UNIT ( ) SI_UNIT ( $, .RADIAN. ) );
#221 = COLOUR_RGB ( '',0.9882352941176471006, 0.7372549019607843590, 0.5176470588235293491 ) ;
#222 = ORIENTED_EDGE ( 'NONE', *, *, #73, .F. ) ;
#223 = ORIENTED_EDGE ( 'NONE', *, *, #43, .F. ) ;
#224 = ORIENTED_EDGE ( 'NONE', *, *, #296, .T. ) ;
#225 = CARTESIAN_POINT ( 'NONE',  ( -10.00000000000000888, 7.213999999999998636, 5.000000000000031974 ) ) ;
#226 = COLOUR_RGB ( '',0.9882352941176471006, 0.7372549019607843590, 0.5176470588235293491 ) ;
#227 = ORIENTED_EDGE ( 'NONE', *, *, #340, .F. ) ;
#228 = CARTESIAN_POINT ( 'NONE',  ( -10.00000000000000888, 7.213999999999998636, 0.05080000000000000487 ) ) ;
#229 = FILL_AREA_STYLE_COLOUR ( '', #263 ) ;
#230 = LINE ( 'NONE', #378, #166 ) ;
#231 =( LENGTH_UNIT ( ) NAMED_UNIT ( * ) SI_UNIT ( .MILLI., .METRE. ) );
#232 = SURFACE_SIDE_STYLE ('',( #279 ) ) ;
#233 = VECTOR ( 'NONE', #284, 1000.000000000000000 ) ;
#234 = PLANE ( 'NONE',  #252 ) ;
#235 = MECHANICAL_DESIGN_GEOMETRIC_PRESENTATION_REPRESENTATION (  '', ( #165 ), #392 ) ;
#236 = MECHANICAL_DESIGN_GEOMETRIC_PRESENTATION_REPRESENTATION (  '', ( #519 ), #10 ) ;
#237 = PRESENTATION_STYLE_ASSIGNMENT (( #209 ) ) ;
#238 =( NAMED_UNIT ( * ) SI_UNIT ( $, .STERADIAN. ) SOLID_ANGLE_UNIT ( ) );
#239 = DIRECTION ( 'NONE',  ( 1.000000000000000000, 0.000000000000000000, -0.000000000000000000 ) ) ;
#240 = ADVANCED_FACE ( 'NONE', ( #246 ), #439, .F. ) ;
#241 = DIRECTION ( 'NONE',  ( 1.000000000000000000, 0.000000000000000000, -0.000000000000000000 ) ) ;
#242 =( NAMED_UNIT ( * ) PLANE_ANGLE_UNIT ( ) SI_UNIT ( $, .RADIAN. ) );
#243 = PRODUCT_DEFINITION_SHAPE ( 'NONE', 'NONE',  #217 ) ;
#244 = COLOUR_RGB ( '',0.5019607843137254832, 1.000000000000000000, 1.000000000000000000 ) ;
#245 =( GEOMETRIC_REPRESENTATION_CONTEXT ( 3 ) GLOBAL_UNCERTAINTY_ASSIGNED_CONTEXT ( ( #326 ) ) GLOBAL_UNIT_ASSIGNED_CONTEXT ( ( #424, #65, #289 ) ) REPRESENTATION_CONTEXT ( 'NONE', 'WORKASPACE' ) );
#246 = FACE_OUTER_BOUND ( 'NONE', #419, .T. ) ;
#247 = SURFACE_SIDE_STYLE ('',( #442 ) ) ;
#248 =( NAMED_UNIT ( * ) SI_UNIT ( $, .STERADIAN. ) SOLID_ANGLE_UNIT ( ) );
#249 =( LENGTH_UNIT ( ) NAMED_UNIT ( * ) SI_UNIT ( .MILLI., .METRE. ) );
#250 = EDGE_CURVE ( 'NONE', #72, #146, #2, .T. ) ;
#251 = CARTESIAN_POINT ( 'NONE',  ( -70.00000000000000000, 7.213999999999992419, 5.000000000000004441 ) ) ;
#252 = AXIS2_PLACEMENT_3D ( 'NONE', #515, #355, #275 ) ;
#253 = LINE ( 'NONE', #48, #58 ) ;
#254 = FILL_AREA_STYLE_COLOUR ( '', #226 ) ;
#255 = EDGE_LOOP ( 'NONE', ( #267, #500, #470, #179 ) ) ;
#256 =( NAMED_UNIT ( * ) SI_UNIT ( $, .STERADIAN. ) SOLID_ANGLE_UNIT ( ) );
#257 = SURFACE_SIDE_STYLE ('',( #327 ) ) ;
#258 = ADVANCED_FACE ( 'NONE', ( #411 ), #301, .F. ) ;
#259 = DIRECTION ( 'NONE',  ( 0.000000000000000000, 0.000000000000000000, -1.000000000000000000 ) ) ;
#260 = ORIENTED_EDGE ( 'NONE', *, *, #43, .T. ) ;
#261 = FACE_OUTER_BOUND ( 'NONE', #509, .T. ) ;
#262 = ORIENTED_EDGE ( 'NONE', *, *, #329, .T. ) ;
#263 = COLOUR_RGB ( '',0.5019607843137254832, 1.000000000000000000, 1.000000000000000000 ) ;
#264 = COLOUR_RGB ( '',0.5019607843137254832, 1.000000000000000000, 1.000000000000000000 ) ;
#265 = FILL_AREA_STYLE ('',( #502 ) ) ;
#266 = UNCERTAINTY_MEASURE_WITH_UNIT (LENGTH_MEASURE( 1.000000000000000082E-05 ), #208, 'distance_accuracy_value', 'NONE');
#267 = ORIENTED_EDGE ( 'NONE', *, *, #250, .F. ) ;
#268 = CARTESIAN_POINT ( 'NONE',  ( -70.00000000000000000, 2.213999999999991974, 0.05080000000000000487 ) ) ;
#269 = ORIENTED_EDGE ( 'NONE', *, *, #437, .T. ) ;
#270 = DIRECTION ( 'NONE',  ( -1.000000000000000000, -1.228762462150238769E-16, 0.000000000000000000 ) ) ;
#271 = VERTEX_POINT ( 'NONE', #331 ) ;
#272 = DIRECTION ( 'NONE',  ( 1.000000000000000000, 0.000000000000000000, -0.000000000000000000 ) ) ;
#273 = MECHANICAL_DESIGN_GEOMETRIC_PRESENTATION_REPRESENTATION (  '', ( #29 ), #110 ) ;
#274 = PRESENTATION_LAYER_ASSIGNMENT (  '', '', ( #416 ) ) ;
#275 = DIRECTION ( 'NONE',  ( 0.000000000000000000, 0.000000000000000000, 1.000000000000000000 ) ) ;
#276 = CARTESIAN_POINT ( 'NONE',  ( -70.00000000000000000, 7.213999999999992419, 0.05080000000000000487 ) ) ;
#277 = SURFACE_SIDE_STYLE ('',( #151 ) ) ;
#278 = PRESENTATION_STYLE_ASSIGNMENT (( #189 ) ) ;
#279 = SURFACE_STYLE_FILL_AREA ( #195 ) ;
#280 = SURFACE_SIDE_STYLE ('',( #116 ) ) ;
#281 = LINE ( 'NONE', #76, #407 ) ;
#282 = PRESENTATION_LAYER_ASSIGNMENT (  '', '', ( #425 ) ) ;
#283 = DIRECTION ( 'NONE',  ( -0.000000000000000000, -0.000000000000000000, -1.000000000000000000 ) ) ;
#284 = DIRECTION ( 'NONE',  ( -0.000000000000000000, -0.000000000000000000, -1.000000000000000000 ) ) ;
#285 = DIRECTION ( 'NONE',  ( 0.000000000000000000, 1.000000000000000000, 0.000000000000000000 ) ) ;
#286 = FILL_AREA_STYLE ('',( #493 ) ) ;
#287 = STYLED_ITEM ( 'NONE', ( #197 ), #5 ) ;
#288 = MECHANICAL_DESIGN_GEOMETRIC_PRESENTATION_REPRESENTATION (  '', ( #201 ), #498 ) ;
#289 =( NAMED_UNIT ( * ) SI_UNIT ( $, .STERADIAN. ) SOLID_ANGLE_UNIT ( ) );
#290 = FILL_AREA_STYLE_COLOUR ( '', #466 ) ;
#291 = LINE ( 'NONE', #130, #476 ) ;
#292 = CARTESIAN_POINT ( 'NONE',  ( -10.00000000000000888, 7.213999999999998636, 0.05080000000000000487 ) ) ;
#293 = DIRECTION ( 'NONE',  ( -0.000000000000000000, -0.000000000000000000, -1.000000000000000000 ) ) ;
#294 = CARTESIAN_POINT ( 'NONE',  ( -10.00000000000000888, 7.213999999999998636, 0.000000000000000000 ) ) ;
#295 = VECTOR ( 'NONE', #359, 1000.000000000000000 ) ;
#296 = EDGE_CURVE ( 'NONE', #172, #96, #15, .T. ) ;
#297 =( LENGTH_UNIT ( ) NAMED_UNIT ( * ) SI_UNIT ( .MILLI., .METRE. ) );
#298 = ORIENTED_EDGE ( 'NONE', *, *, #340, .T. ) ;
#299 = SURFACE_SIDE_STYLE ('',( #374 ) ) ;
#300 = ORIENTED_EDGE ( 'NONE', *, *, #487, .F. ) ;
#301 = PLANE ( 'NONE',  #441 ) ;
#302 = CARTESIAN_POINT ( 'NONE',  ( -10.00000000000000888, 7.213999999999998636, 5.000000000000004441 ) ) ;
#303 = EDGE_LOOP ( 'NONE', ( #218, #458, #465, #414 ) ) ;
#304 = VECTOR ( 'NONE', #16, 1000.000000000000000 ) ;
#305 = DIRECTION ( 'NONE',  ( -1.000000000000000000, 0.000000000000000000, 0.000000000000000000 ) ) ;
#306 = SURFACE_STYLE_FILL_AREA ( #332 ) ;
#307 = FILL_AREA_STYLE_COLOUR ( '', #221 ) ;
#308 =( NAMED_UNIT ( * ) SI_UNIT ( $, .STERADIAN. ) SOLID_ANGLE_UNIT ( ) );
#309 =( NAMED_UNIT ( * ) PLANE_ANGLE_UNIT ( ) SI_UNIT ( $, .RADIAN. ) );
#310 = DIRECTION ( 'NONE',  ( 0.000000000000000000, 1.000000000000000000, 0.000000000000000000 ) ) ;
#311 = ORIENTED_EDGE ( 'NONE', *, *, #107, .F. ) ;
#312 = EDGE_CURVE ( 'NONE', #338, #385, #170, .T. ) ;
#313 = PRESENTATION_LAYER_ASSIGNMENT (  '', '', ( #38 ) ) ;
#314 =( LENGTH_UNIT ( ) NAMED_UNIT ( * ) SI_UNIT ( .MILLI., .METRE. ) );
#315 = PLANE ( 'NONE',  #402 ) ;
#316 = EDGE_CURVE ( 'NONE', #379, #271, #253, .T. ) ;
#317 = FACE_OUTER_BOUND ( 'NONE', #345, .T. ) ;
#318 =( NAMED_UNIT ( * ) PLANE_ANGLE_UNIT ( ) SI_UNIT ( $, .RADIAN. ) );
#319 = COLOUR_RGB ( '',0.9882352941176471006, 0.7372549019607843590, 0.5176470588235293491 ) ;
#320 = SURFACE_SIDE_STYLE ('',( #80 ) ) ;
#321 = CARTESIAN_POINT ( 'NONE',  ( -10.00000000000000888, 7.213999999999998636, 0.05080000000000000487 ) ) ;
#322 = CARTESIAN_POINT ( 'NONE',  ( -70.00000000000000000, 7.213999999999992419, 0.05080000000000000487 ) ) ;
#323 = FILL_AREA_STYLE ('',( #86 ) ) ;
#324 =( NAMED_UNIT ( * ) PLANE_ANGLE_UNIT ( ) SI_UNIT ( $, .RADIAN. ) );
#325 = SURFACE_STYLE_FILL_AREA ( #526 ) ;
#326 = UNCERTAINTY_MEASURE_WITH_UNIT (LENGTH_MEASURE( 1.000000000000000082E-05 ), #424, 'distance_accuracy_value', 'NONE');
#327 = SURFACE_STYLE_FILL_AREA ( #265 ) ;
#328 = DIRECTION ( 'NONE',  ( 1.000000000000000000, 0.000000000000000000, -0.000000000000000000 ) ) ;
#329 = EDGE_CURVE ( 'NONE', #172, #478, #521, .T. ) ;
#330 = DIRECTION ( 'NONE',  ( 0.000000000000000000, 0.000000000000000000, 1.000000000000000000 ) ) ;
#331 = CARTESIAN_POINT ( 'NONE',  ( -10.00000000000000888, 2.213999999999999524, 0.000000000000000000 ) ) ;
#332 = FILL_AREA_STYLE ('',( #171 ) ) ;
#333 = ORIENTED_EDGE ( 'NONE', *, *, #68, .T. ) ;
#334 = VECTOR ( 'NONE', #285, 1000.000000000000000 ) ;
#335 = AXIS2_PLACEMENT_3D ( 'NONE', #353, #145, #272 ) ;
#336 = CARTESIAN_POINT ( 'NONE',  ( -10.00000000000000888, 2.213999999999999524, 0.05080000000000000487 ) ) ;
#337 = ORIENTED_EDGE ( 'NONE', *, *, #376, .F. ) ;
#338 = VERTEX_POINT ( 'NONE', #346 ) ;
#339 =( NAMED_UNIT ( * ) SI_UNIT ( $, .STERADIAN. ) SOLID_ANGLE_UNIT ( ) );
#340 = EDGE_CURVE ( 'NONE', #371, #379, #67, .T. ) ;
#341 = VERTEX_POINT ( 'NONE', #186 ) ;
#342 = CLOSED_SHELL ( 'NONE', ( #138, #5, #162, #115, #430, #167 ) ) ;
#343 = CARTESIAN_POINT ( 'NONE',  ( -70.00000000000000000, 2.213999999999991974, 0.05080000000000000487 ) ) ;
#344 =( GEOMETRIC_REPRESENTATION_CONTEXT ( 3 ) GLOBAL_UNCERTAINTY_ASSIGNED_CONTEXT ( ( #410 ) ) GLOBAL_UNIT_ASSIGNED_CONTEXT ( ( #18, #497, #256 ) ) REPRESENTATION_CONTEXT ( 'NONE', 'WORKASPACE' ) );
#345 = EDGE_LOOP ( 'NONE', ( #13, #375, #422, #222 ) ) ;
#346 = CARTESIAN_POINT ( 'NONE',  ( -70.00000000000000000, 2.213999999999991974, 0.05080000000000000487 ) ) ;
#347 = ADVANCED_FACE ( 'NONE', ( #156 ), #427, .T. ) ;
#348 = PLANE ( 'NONE',  #525 ) ;
#349 = VERTEX_POINT ( 'NONE', #225 ) ;
#350 = FACE_OUTER_BOUND ( 'NONE', #176, .T. ) ;
#351 =( GEOMETRIC_REPRESENTATION_CONTEXT ( 3 ) GLOBAL_UNCERTAINTY_ASSIGNED_CONTEXT ( ( #496 ) ) GLOBAL_UNIT_ASSIGNED_CONTEXT ( ( #213, #469, #421 ) ) REPRESENTATION_CONTEXT ( 'NONE', 'WORKASPACE' ) );
#352 = COLOUR_RGB ( '',0.5019607843137254832, 1.000000000000000000, 1.000000000000000000 ) ;
#353 = CARTESIAN_POINT ( 'NONE',  ( 0.000000000000000000, 0.000000000000000000, 0.05080000000000000487 ) ) ;
#354 = EDGE_CURVE ( 'NONE', #146, #385, #112, .T. ) ;
#355 = DIRECTION ( 'NONE',  ( -1.000000000000000000, 0.000000000000000000, 0.000000000000000000 ) ) ;
#356 = CARTESIAN_POINT ( 'NONE',  ( -10.00000000000000888, 7.213999999999998636, 70.20797289396148244 ) ) ;
#357 =( LENGTH_UNIT ( ) NAMED_UNIT ( * ) SI_UNIT ( .MILLI., .METRE. ) );
#358 = MECHANICAL_DESIGN_GEOMETRIC_PRESENTATION_REPRESENTATION (  '', ( #38 ), #108 ) ;
#359 = DIRECTION ( 'NONE',  ( -1.000000000000000000, -1.156482317317871478E-16, 0.000000000000000000 ) ) ;
#360 = PRESENTATION_STYLE_ASSIGNMENT (( #84 ) ) ;
#361 = PLANE ( 'NONE',  #101 ) ;
#362 = CARTESIAN_POINT ( 'NONE',  ( 0.000000000000000000, 0.000000000000000000, 5.000000000000000000 ) ) ;
#363 = APPLICATION_CONTEXT ( 'automotive_design' ) ;
#364 =( NAMED_UNIT ( * ) SI_UNIT ( $, .STERADIAN. ) SOLID_ANGLE_UNIT ( ) );
#365 = VECTOR ( 'NONE', #57, 1000.000000000000000 ) ;
#366 =( NAMED_UNIT ( * ) SI_UNIT ( $, .STERADIAN. ) SOLID_ANGLE_UNIT ( ) );
#367 = CARTESIAN_POINT ( 'NONE',  ( -10.00000000000000888, 2.213999999999999524, 0.05080000000000000487 ) ) ;
#368 = ORIENTED_EDGE ( 'NONE', *, *, #312, .F. ) ;
#369 = LINE ( 'NONE', #494, #512 ) ;
#370 = PLANE ( 'NONE',  #453 ) ;
#371 = VERTEX_POINT ( 'NONE', #268 ) ;
#372 = MECHANICAL_DESIGN_GEOMETRIC_PRESENTATION_REPRESENTATION (  '', ( #124 ), #415 ) ;
#373 =( GEOMETRIC_REPRESENTATION_CONTEXT ( 3 ) GLOBAL_UNCERTAINTY_ASSIGNED_CONTEXT ( ( #449 ) ) GLOBAL_UNIT_ASSIGNED_CONTEXT ( ( #212, #220, #339 ) ) REPRESENTATION_CONTEXT ( 'NONE', 'WORKASPACE' ) );
#374 = SURFACE_STYLE_FILL_AREA ( #136 ) ;
#375 = ORIENTED_EDGE ( 'NONE', *, *, #316, .F. ) ;
#376 = EDGE_CURVE ( 'NONE', #214, #338, #471, .T. ) ;
#377 = VERTEX_POINT ( 'NONE', #228 ) ;
#378 = CARTESIAN_POINT ( 'NONE',  ( -70.00000000000000000, 7.213999999999992419, 70.20797289396148244 ) ) ;
#379 = VERTEX_POINT ( 'NONE', #30 ) ;
#380 = AXIS2_PLACEMENT_3D ( 'NONE', #362, #203, #241 ) ;
#381 =( NAMED_UNIT ( * ) SI_UNIT ( $, .STERADIAN. ) SOLID_ANGLE_UNIT ( ) );
#382 = EDGE_CURVE ( 'NONE', #341, #172, #384, .T. ) ;
#383 = VERTEX_POINT ( 'NONE', #150 ) ;
#384 = LINE ( 'NONE', #423, #126 ) ;
#385 = VERTEX_POINT ( 'NONE', #155 ) ;
#386 = SURFACE_STYLE_USAGE ( .BOTH. , #64 ) ;
#387 =( NAMED_UNIT ( * ) PLANE_ANGLE_UNIT ( ) SI_UNIT ( $, .RADIAN. ) );
#388 = DIRECTION ( 'NONE',  ( -0.000000000000000000, -0.000000000000000000, -1.000000000000000000 ) ) ;
#389 = AXIS2_PLACEMENT_3D ( 'NONE', #143, #12, #259 ) ;
#390 = PRESENTATION_LAYER_ASSIGNMENT (  '', '', ( #490 ) ) ;
#391 = FILL_AREA_STYLE_COLOUR ( '', #433 ) ;
#392 =( GEOMETRIC_REPRESENTATION_CONTEXT ( 3 ) GLOBAL_UNCERTAINTY_ASSIGNED_CONTEXT ( ( #91 ) ) GLOBAL_UNIT_ASSIGNED_CONTEXT ( ( #516, #309, #381 ) ) REPRESENTATION_CONTEXT ( 'NONE', 'WORKASPACE' ) );
#393 =( LENGTH_UNIT ( ) NAMED_UNIT ( * ) SI_UNIT ( .MILLI., .METRE. ) );
#394 = DIRECTION ( 'NONE',  ( 1.000000000000000000, 1.156482317317871725E-16, 0.000000000000000000 ) ) ;
#395 = UNCERTAINTY_MEASURE_WITH_UNIT (LENGTH_MEASURE( 1.000000000000000082E-05 ), #249, 'distance_accuracy_value', 'NONE');
#396 = SURFACE_STYLE_USAGE ( .BOTH. , #320 ) ;
#397 = FILL_AREA_STYLE ('',( #81 ) ) ;
#398 = PRESENTATION_LAYER_ASSIGNMENT (  '', '', ( #287 ) ) ;
#399 = AXIS2_PLACEMENT_3D ( 'NONE', #367, #305, #88 ) ;
#400 = EDGE_CURVE ( 'NONE', #383, #214, #230, .T. ) ;
#401 = SURFACE_SIDE_STYLE ('',( #47 ) ) ;
#402 = AXIS2_PLACEMENT_3D ( 'NONE', #118, #330, #431 ) ;
#403 = LINE ( 'NONE', #435, #531 ) ;
#404 = PRESENTATION_STYLE_ASSIGNMENT (( #122 ) ) ;
#405 = UNCERTAINTY_MEASURE_WITH_UNIT (LENGTH_MEASURE( 1.000000000000000082E-05 ), #297, 'distance_accuracy_value', 'NONE');
#406 = PRODUCT_RELATED_PRODUCT_CATEGORY ( 'part', '', ( #117 ) ) ;
#407 = VECTOR ( 'NONE', #310, 1000.000000000000000 ) ;
#408 = PRESENTATION_LAYER_ASSIGNMENT (  '', '', ( #519 ) ) ;
#409 = FACE_OUTER_BOUND ( 'NONE', #255, .T. ) ;
#410 = UNCERTAINTY_MEASURE_WITH_UNIT (LENGTH_MEASURE( 1.000000000000000082E-05 ), #18, 'distance_accuracy_value', 'NONE');
#411 = FACE_OUTER_BOUND ( 'NONE', #513, .T. ) ;
#412 = LINE ( 'NONE', #169, #304 ) ;
#413 = ORIENTED_EDGE ( 'NONE', *, *, #73, .T. ) ;
#414 = ORIENTED_EDGE ( 'NONE', *, *, #446, .F. ) ;
#415 =( GEOMETRIC_REPRESENTATION_CONTEXT ( 3 ) GLOBAL_UNCERTAINTY_ASSIGNED_CONTEXT ( ( #53 ) ) GLOBAL_UNIT_ASSIGNED_CONTEXT ( ( #436, #242, #364 ) ) REPRESENTATION_CONTEXT ( 'NONE', 'WORKASPACE' ) );
#416 = STYLED_ITEM ( 'NONE', ( #103 ), #430 ) ;
#417 = DIRECTION ( 'NONE',  ( -1.000000000000000000, -1.228762462150238523E-16, 0.000000000000000000 ) ) ;
#418 = PRESENTATION_STYLE_ASSIGNMENT (( #177 ) ) ;
#419 = EDGE_LOOP ( 'NONE', ( #333, #462, #140, #269 ) ) ;
#420 = SURFACE_STYLE_FILL_AREA ( #188 ) ;
#421 =( NAMED_UNIT ( * ) SI_UNIT ( $, .STERADIAN. ) SOLID_ANGLE_UNIT ( ) );
#422 = ORIENTED_EDGE ( 'NONE', *, *, #182, .F. ) ;
#423 = CARTESIAN_POINT ( 'NONE',  ( -10.00000000000000888, 2.213999999999999524, 0.05080000000000000487 ) ) ;
#424 =( LENGTH_UNIT ( ) NAMED_UNIT ( * ) SI_UNIT ( .MILLI., .METRE. ) );
#425 = STYLED_ITEM ( 'NONE', ( #181 ), #162 ) ;
#426 = DIRECTION ( 'NONE',  ( 0.000000000000000000, -1.000000000000000000, 0.000000000000000000 ) ) ;
#427 = PLANE ( 'NONE',  #335 ) ;
#428 = SURFACE_STYLE_USAGE ( .BOTH. , #277 ) ;
#429 = ORIENTED_EDGE ( 'NONE', *, *, #400, .F. ) ;
#430 = ADVANCED_FACE ( 'NONE', ( #350 ), #315, .F. ) ;
#431 = DIRECTION ( 'NONE',  ( 1.000000000000000000, 0.000000000000000000, -0.000000000000000000 ) ) ;
#432 = STYLED_ITEM ( 'NONE', ( #418 ), #115 ) ;
#433 = COLOUR_RGB ( '',0.9882352941176471006, 0.7372549019607843590, 0.5176470588235293491 ) ;
#434 =( NAMED_UNIT ( * ) SI_UNIT ( $, .STERADIAN. ) SOLID_ANGLE_UNIT ( ) );
#435 = CARTESIAN_POINT ( 'NONE',  ( -70.00000000000000000, 2.213999999999991974, 0.000000000000000000 ) ) ;
#436 =( LENGTH_UNIT ( ) NAMED_UNIT ( * ) SI_UNIT ( .MILLI., .METRE. ) );
#437 = EDGE_CURVE ( 'NONE', #341, #271, #291, .T. ) ;
#438 = FACE_OUTER_BOUND ( 'NONE', #63, .T. ) ;
#439 = PLANE ( 'NONE',  #399 ) ;
#440 = PRODUCT_DEFINITION_CONTEXT ( 'detailed design', #363, 'design' ) ;
#441 = AXIS2_PLACEMENT_3D ( 'NONE', #4, #463, #417 ) ;
#442 = SURFACE_STYLE_FILL_AREA ( #286 ) ;
#443 = VECTOR ( 'NONE', #283, 1000.000000000000000 ) ;
#444 = CARTESIAN_POINT ( 'NONE',  ( -10.00000000000000888, 7.213999999999998636, 70.20797289396148244 ) ) ;
#445 =( NAMED_UNIT ( * ) SI_UNIT ( $, .STERADIAN. ) SOLID_ANGLE_UNIT ( ) );
#446 = EDGE_CURVE ( 'NONE', #349, #377, #32, .T. ) ;
#447 = CARTESIAN_POINT ( 'NONE',  ( -70.00000000000000000, 7.213999999999992419, 0.05080000000000000487 ) ) ;
#448 = PRESENTATION_STYLE_ASSIGNMENT (( #127 ) ) ;
#449 = UNCERTAINTY_MEASURE_WITH_UNIT (LENGTH_MEASURE( 1.000000000000000082E-05 ), #212, 'distance_accuracy_value', 'NONE');
#450 = SURFACE_SIDE_STYLE ('',( #1 ) ) ;
#451 = DIRECTION ( 'NONE',  ( 1.000000000000000000, 1.228762462150238523E-16, 0.000000000000000000 ) ) ;
#452 = CARTESIAN_POINT ( 'NONE',  ( -70.00000000000000000, 2.213999999999991974, 0.05080000000000000487 ) ) ;
#453 = AXIS2_PLACEMENT_3D ( 'NONE', #8, #328, #139 ) ;
#454 = EDGE_LOOP ( 'NONE', ( #34, #262, #135, #92 ) ) ;
#455 = DIRECTION ( 'NONE',  ( -0.000000000000000000, -0.000000000000000000, -1.000000000000000000 ) ) ;
#456 = VECTOR ( 'NONE', #180, 1000.000000000000000 ) ;
#457 = DIRECTION ( 'NONE',  ( 0.000000000000000000, 1.000000000000000000, 0.000000000000000000 ) ) ;
#458 = ORIENTED_EDGE ( 'NONE', *, *, #354, .T. ) ;
#459 = APPLICATION_PROTOCOL_DEFINITION ( 'draft international standard', 'automotive_design', 1998, #363 ) ;
#460 = SURFACE_STYLE_USAGE ( .BOTH. , #257 ) ;
#461 = SURFACE_STYLE_USAGE ( .BOTH. , #299 ) ;
#462 = ORIENTED_EDGE ( 'NONE', *, *, #296, .F. ) ;
#463 = DIRECTION ( 'NONE',  ( -1.228762462150238523E-16, 1.000000000000000000, 0.000000000000000000 ) ) ;
#464 = CARTESIAN_POINT ( 'NONE',  ( -10.00000000000000888, 2.213999999999999524, 0.000000000000000000 ) ) ;
#465 = ORIENTED_EDGE ( 'NONE', *, *, #198, .T. ) ;
#466 = COLOUR_RGB ( '',0.9882352941176471006, 0.7372549019607843590, 0.5176470588235293491 ) ;
#467 = PRESENTATION_LAYER_ASSIGNMENT (  '', '', ( #165 ) ) ;
#468 = SURFACE_STYLE_USAGE ( .BOTH. , #232 ) ;
#469 =( NAMED_UNIT ( * ) PLANE_ANGLE_UNIT ( ) SI_UNIT ( $, .RADIAN. ) );
#470 = ORIENTED_EDGE ( 'NONE', *, *, #312, .T. ) ;
#471 = LINE ( 'NONE', #276, #59 ) ;
#472 = FACE_OUTER_BOUND ( 'NONE', #109, .T. ) ;
#473 = ORIENTED_EDGE ( 'NONE', *, *, #329, .F. ) ;
#474 =( GEOMETRIC_REPRESENTATION_CONTEXT ( 3 ) GLOBAL_UNCERTAINTY_ASSIGNED_CONTEXT ( ( #266 ) ) GLOBAL_UNIT_ASSIGNED_CONTEXT ( ( #208, #205, #445 ) ) REPRESENTATION_CONTEXT ( 'NONE', 'WORKASPACE' ) );
#475 = COLOUR_RGB ( '',0.5019607843137254832, 1.000000000000000000, 1.000000000000000000 ) ;
#476 = VECTOR ( 'NONE', #215, 1000.000000000000000 ) ;
#477 = CARTESIAN_POINT ( 'NONE',  ( -10.00000000000000888, 7.213999999999998636, 0.05080000000000000487 ) ) ;
#478 = VERTEX_POINT ( 'NONE', #447 ) ;
#479 = DIRECTION ( 'NONE',  ( -1.000000000000000000, -1.156482317317871478E-16, 0.000000000000000000 ) ) ;
#480 = FILL_AREA_STYLE ('',( #391 ) ) ;
#481 = CARTESIAN_POINT ( 'NONE',  ( 0.000000000000000000, 0.000000000000000000, 0.000000000000000000 ) ) ;
#482 = PRODUCT_CONTEXT ( 'NONE', #70, 'mechanical' ) ;
#483 = SURFACE_STYLE_FILL_AREA ( #106 ) ;
#484 = ADVANCED_BREP_SHAPE_REPRESENTATION ( '561-00004-00', ( #35, #25, #491 ), #499 ) ;
#485 = DIRECTION ( 'NONE',  ( 0.000000000000000000, -1.000000000000000000, 0.000000000000000000 ) ) ;
#486 =( GEOMETRIC_REPRESENTATION_CONTEXT ( 3 ) GLOBAL_UNCERTAINTY_ASSIGNED_CONTEXT ( ( #532 ) ) GLOBAL_UNIT_ASSIGNED_CONTEXT ( ( #231, #387, #520 ) ) REPRESENTATION_CONTEXT ( 'NONE', 'WORKASPACE' ) );
#487 = EDGE_CURVE ( 'NONE', #72, #338, #369, .T. ) ;
#488 = SURFACE_STYLE_FILL_AREA ( #397 ) ;
#489 = PRESENTATION_LAYER_ASSIGNMENT (  '', '', ( #132 ) ) ;
#490 = STYLED_ITEM ( 'NONE', ( #55 ), #258 ) ;
#491 = AXIS2_PLACEMENT_3D ( 'NONE', #173, #510, #185 ) ;
#492 = FILL_AREA_STYLE_COLOUR ( '', #159 ) ;
#493 = FILL_AREA_STYLE_COLOUR ( '', #83 ) ;
#494 = CARTESIAN_POINT ( 'NONE',  ( -70.00000000000000000, 2.213999999999991974, 70.20797289396148244 ) ) ;
#495 = DIRECTION ( 'NONE',  ( 1.000000000000000000, 1.228762462150238523E-16, -0.000000000000000000 ) ) ;
#496 = UNCERTAINTY_MEASURE_WITH_UNIT (LENGTH_MEASURE( 1.000000000000000082E-05 ), #213, 'distance_accuracy_value', 'NONE');
#497 =( NAMED_UNIT ( * ) PLANE_ANGLE_UNIT ( ) SI_UNIT ( $, .RADIAN. ) );
#498 =( GEOMETRIC_REPRESENTATION_CONTEXT ( 3 ) GLOBAL_UNCERTAINTY_ASSIGNED_CONTEXT ( ( #129 ) ) GLOBAL_UNIT_ASSIGNED_CONTEXT ( ( #357, #318, #248 ) ) REPRESENTATION_CONTEXT ( 'NONE', 'WORKASPACE' ) );
#499 =( GEOMETRIC_REPRESENTATION_CONTEXT ( 3 ) GLOBAL_UNCERTAINTY_ASSIGNED_CONTEXT ( ( #395 ) ) GLOBAL_UNIT_ASSIGNED_CONTEXT ( ( #249, #324, #366 ) ) REPRESENTATION_CONTEXT ( 'NONE', 'WORKASPACE' ) );
#500 = ORIENTED_EDGE ( 'NONE', *, *, #487, .T. ) ;
#501 = EDGE_CURVE ( 'NONE', #383, #72, #3, .T. ) ;
#502 = FILL_AREA_STYLE_COLOUR ( '', #475 ) ;
#503 = LINE ( 'NONE', #452, #39 ) ;
#504 =( NAMED_UNIT ( * ) SI_UNIT ( $, .STERADIAN. ) SOLID_ANGLE_UNIT ( ) );
#505 = ORIENTED_EDGE ( 'NONE', *, *, #446, .T. ) ;
#506 = CARTESIAN_POINT ( 'NONE',  ( -10.00000000000000888, 7.213999999999998636, 0.05080000000000000487 ) ) ;
#507 = CARTESIAN_POINT ( 'NONE',  ( -70.00000000000000000, 2.213999999999991086, 5.000000000000004441 ) ) ;
#508 = ADVANCED_FACE ( 'NONE', ( #44 ), #361, .F. ) ;
#509 = EDGE_LOOP ( 'NONE', ( #157, #54, #60, #300 ) ) ;
#510 = DIRECTION ( 'NONE',  ( 0.000000000000000000, 0.000000000000000000, 1.000000000000000000 ) ) ;
#511 = PRESENTATION_LAYER_ASSIGNMENT (  '', '', ( #432 ) ) ;
#512 = VECTOR ( 'NONE', #455, 1000.000000000000000 ) ;
#513 = EDGE_LOOP ( 'NONE', ( #517, #184, #311, #298 ) ) ;
#514 = PRESENTATION_STYLE_ASSIGNMENT (( #386 ) ) ;
#515 = CARTESIAN_POINT ( 'NONE',  ( -10.00000000000000888, 2.213999999999999524, 70.20797289396148244 ) ) ;
#516 =( LENGTH_UNIT ( ) NAMED_UNIT ( * ) SI_UNIT ( .MILLI., .METRE. ) );
#517 = ORIENTED_EDGE ( 'NONE', *, *, #316, .T. ) ;
#518 = MECHANICAL_DESIGN_GEOMETRIC_PRESENTATION_REPRESENTATION (  '', ( #425 ), #245 ) ;
#519 = STYLED_ITEM ( 'NONE', ( #237 ), #508 ) ;
#520 =( NAMED_UNIT ( * ) SI_UNIT ( $, .STERADIAN. ) SOLID_ANGLE_UNIT ( ) );
#521 = LINE ( 'NONE', #477, #125 ) ;
#522 = ORIENTED_EDGE ( 'NONE', *, *, #85, .F. ) ;
#523 = FACE_OUTER_BOUND ( 'NONE', #303, .T. ) ;
#524 =( GEOMETRIC_REPRESENTATION_CONTEXT ( 3 ) GLOBAL_UNCERTAINTY_ASSIGNED_CONTEXT ( ( #405 ) ) GLOBAL_UNIT_ASSIGNED_CONTEXT ( ( #297, #61, #504 ) ) REPRESENTATION_CONTEXT ( 'NONE', 'WORKASPACE' ) );
#525 = AXIS2_PLACEMENT_3D ( 'NONE', #444, #120, #394 ) ;
#526 = FILL_AREA_STYLE ('',( #492 ) ) ;
#527 = PLANE ( 'NONE',  #389 ) ;
#528 = CARTESIAN_POINT ( 'NONE',  ( -10.00000000000000888, 2.213999999999999524, 0.05080000000000000487 ) ) ;
#529 = PRESENTATION_LAYER_ASSIGNMENT (  '', '', ( #124 ) ) ;
#530 = SURFACE_SIDE_STYLE ('',( #325 ) ) ;
#531 = VECTOR ( 'NONE', #204, 1000.000000000000000 ) ;
#532 = UNCERTAINTY_MEASURE_WITH_UNIT (LENGTH_MEASURE( 1.000000000000000082E-05 ), #231, 'distance_accuracy_value', 'NONE');
ENDSEC;
END-ISO-10303-21;
