ISO-10303-21;
HEADER;
FILE_DESCRIPTION (( 'STEP AP214' ),
    '1' );
FILE_NAME ('RIVET_SKK3030PT_COUNTERSUNK_2.0-2.5GRIP.step',
    '2026-02-27T00:28:40',
    ( '' ),
    ( '' ),
    'SwSTEP 2.0',
    'SolidWorks 2023',
    '' );
FILE_SCHEMA (( 'AUTOMOTIVE_DESIGN' ));
ENDSEC;

DATA;
#1 = DIRECTION ( 'NONE',  ( 0.000000000000000000, 0.8660254037844395958, 0.4999999999999983347 ) ) ;
#2 = EDGE_LOOP ( 'NONE', ( #53, #133, #45, #11 ) ) ;
#3 = CONICAL_SURFACE ( 'NONE', #416, 1.399999999999999911, 1.047197551196601406 ) ;
#4 = CIRCLE ( 'NONE', #165, 1.399999999999999911 ) ;
#5 = DIRECTION ( 'NONE',  ( 0.000000000000000000, 0.000000000000000000, 1.000000000000000000 ) ) ;
#6 = VERTEX_POINT ( 'NONE', #59 ) ;
#7 =( NAMED_UNIT ( * ) SI_UNIT ( $, .STERADIAN. ) SOLID_ANGLE_UNIT ( ) );
#8 = ORIENTED_EDGE ( 'NONE', *, *, #385, .T. ) ;
#9 = PRODUCT ( 'RIVET_SKK3030PT_COUNTERSUNK_2.0-2.5GRIP', 'RIVET_SKK3030PT_COUNTERSUNK_2.0-2.5GRIP', '', ( #94 ) ) ;
#10 = LINE ( 'NONE', #180, #309 ) ;
#11 = ORIENTED_EDGE ( 'NONE', *, *, #185, .T. ) ;
#12 =( GEOMETRIC_REPRESENTATION_CONTEXT ( 3 ) GLOBAL_UNCERTAINTY_ASSIGNED_CONTEXT ( ( #290 ) ) GLOBAL_UNIT_ASSIGNED_CONTEXT ( ( #391, #279, #7 ) ) REPRESENTATION_CONTEXT ( 'NONE', 'WORKASPACE' ) );
#13 = AXIS2_PLACEMENT_3D ( 'NONE', #193, #288, #330 ) ;
#14 = FACE_OUTER_BOUND ( 'NONE', #80, .T. ) ;
#15 = VERTEX_POINT ( 'NONE', #126 ) ;
#16 = ADVANCED_FACE ( 'NONE', ( #292 ), #41, .T. ) ;
#17 = CARTESIAN_POINT ( 'NONE',  ( 0.000000000000000000, 0.1100000000000000699, 1.599999999999999867 ) ) ;
#18 = EDGE_LOOP ( 'NONE', ( #316, #141 ) ) ;
#19 = SURFACE_SIDE_STYLE ('',( #239 ) ) ;
#20 = VERTEX_POINT ( 'NONE', #119 ) ;
#21 = ADVANCED_FACE ( 'NONE', ( #263 ), #408, .T. ) ;
#22 = CONICAL_SURFACE ( 'NONE', #301, 1.599999999999999645, 1.047197551196592968 ) ;
#23 = CARTESIAN_POINT ( 'NONE',  ( 0.000000000000000000, -2.500000000000000444, 0.000000000000000000 ) ) ;
#24 = AXIS2_PLACEMENT_3D ( 'NONE', #406, #224, #58 ) ;
#25 = DIRECTION ( 'NONE',  ( 1.060575238724903957E-16, 0.5000000000000041078, -0.8660254037844363761 ) ) ;
#26 = VERTEX_POINT ( 'NONE', #66 ) ;
#27 = CARTESIAN_POINT ( 'NONE',  ( 0.000000000000000000, -2.326794919243112325, 0.000000000000000000 ) ) ;
#28 = AXIS2_PLACEMENT_3D ( 'NONE', #395, #152, #149 ) ;
#29 = CARTESIAN_POINT ( 'NONE',  ( 0.000000000000000000, -0.6639528095680771180, 0.000000000000000000 ) ) ;
#30 = EDGE_CURVE ( 'NONE', #390, #350, #95, .T. ) ;
#31 = CARTESIAN_POINT ( 'NONE',  ( 0.000000000000000000, -2.500000000000000444, 0.000000000000000000 ) ) ;
#32 = CARTESIAN_POINT ( 'NONE',  ( 0.000000000000000000, -1.778312163512974164, 0.000000000000000000 ) ) ;
#33 = DIRECTION ( 'NONE',  ( -0.000000000000000000, 1.000000000000000000, -0.000000000000000000 ) ) ;
#34 = EDGE_CURVE ( 'NONE', #280, #331, #322, .T. ) ;
#35 = CARTESIAN_POINT ( 'NONE',  ( 0.000000000000000000, -1.778312163512974164, -1.399999999999999911 ) ) ;
#36 = DIRECTION ( 'NONE',  ( 0.000000000000000000, 0.000000000000000000, 1.000000000000000000 ) ) ;
#37 = CYLINDRICAL_SURFACE ( 'NONE', #446, 0.8000000000000000444 ) ;
#38 = CARTESIAN_POINT ( 'NONE',  ( 0.000000000000000000, 0.000000000000000000, 0.000000000000000000 ) ) ;
#39 = CARTESIAN_POINT ( 'NONE',  ( 0.000000000000000000, -2.500000000000000444, 2.649999999999999911 ) ) ;
#40 = ORIENTED_EDGE ( 'NONE', *, *, #220, .F. ) ;
#41 = CONICAL_SURFACE ( 'NONE', #235, 2.750000000000000000, 1.047197551196601628 ) ;
#42 = EDGE_CURVE ( 'NONE', #195, #6, #56, .T. ) ;
#43 = CARTESIAN_POINT ( 'NONE',  ( 0.000000000000000000, 0.1100000000000000699, 1.399999999999999911 ) ) ;
#44 = DIRECTION ( 'NONE',  ( 0.000000000000000000, 0.000000000000000000, 1.000000000000000000 ) ) ;
#45 = ORIENTED_EDGE ( 'NONE', *, *, #332, .T. ) ;
#46 = EDGE_CURVE ( 'NONE', #218, #112, #393, .T. ) ;
#47 = CARTESIAN_POINT ( 'NONE',  ( 2.479909768273389807E-16, -1.778312163512974164, 1.399999999999999911 ) ) ;
#48 = ORIENTED_EDGE ( 'NONE', *, *, #409, .F. ) ;
#49 = CONICAL_SURFACE ( 'NONE', #411, 1.399999999999999911, 1.047197551196601406 ) ;
#50 = VECTOR ( 'NONE', #92, 1000.000000000000000 ) ;
#51 = DIRECTION ( 'NONE',  ( -0.000000000000000000, 1.000000000000000000, -0.000000000000000000 ) ) ;
#52 = CARTESIAN_POINT ( 'NONE',  ( 0.000000000000000000, 0.000000000000000000, 0.8000000000000000444 ) ) ;
#53 = ORIENTED_EDGE ( 'NONE', *, *, #442, .F. ) ;
#54 = LINE ( 'NONE', #83, #204 ) ;
#55 = EDGE_LOOP ( 'NONE', ( #369, #267 ) ) ;
#56 = CIRCLE ( 'NONE', #198, 1.399999999999999911 ) ;
#57 = CONICAL_SURFACE ( 'NONE', #138, 2.649999999999999911, 0.5235987755982969283 ) ;
#58 = DIRECTION ( 'NONE',  ( 0.000000000000000000, 0.000000000000000000, 1.000000000000000000 ) ) ;
#59 = CARTESIAN_POINT ( 'NONE',  ( 0.000000000000000000, -1.778312163512974164, -1.399999999999999911 ) ) ;
#60 = CARTESIAN_POINT ( 'NONE',  ( 3.367778697655221012E-16, -2.326794919243112325, 2.750000000000000000 ) ) ;
#61 = FACE_OUTER_BOUND ( 'NONE', #364, .T. ) ;
#62 = ADVANCED_FACE ( 'NONE', ( #61 ), #49, .F. ) ;
#63 = DIRECTION ( 'NONE',  ( -0.000000000000000000, 1.000000000000000000, -0.000000000000000000 ) ) ;
#64 = LINE ( 'NONE', #60, #344 ) ;
#65 = PRESENTATION_LAYER_ASSIGNMENT (  '', '', ( #363 ) ) ;
#66 = CARTESIAN_POINT ( 'NONE',  ( 9.797174393178826150E-17, 0.000000000000000000, -0.8000000000000000444 ) ) ;
#67 = ORIENTED_EDGE ( 'NONE', *, *, #409, .T. ) ;
#68 = EDGE_CURVE ( 'NONE', #112, #218, #191, .T. ) ;
#69 = CARTESIAN_POINT ( 'NONE',  ( 0.000000000000000000, -2.500000000000000444, 0.000000000000000000 ) ) ;
#70 = ORIENTED_EDGE ( 'NONE', *, *, #245, .T. ) ;
#71 =( GEOMETRIC_REPRESENTATION_CONTEXT ( 3 ) GLOBAL_UNCERTAINTY_ASSIGNED_CONTEXT ( ( #358 ) ) GLOBAL_UNIT_ASSIGNED_CONTEXT ( ( #299, #270, #340 ) ) REPRESENTATION_CONTEXT ( 'NONE', 'WORKASPACE' ) );
#72 = ORIENTED_EDGE ( 'NONE', *, *, #220, .T. ) ;
#73 = CARTESIAN_POINT ( 'NONE',  ( 0.000000000000000000, -2.500000000000000444, 2.649999999999999911 ) ) ;
#74 = ADVANCED_FACE ( 'NONE', ( #227 ), #437, .T. ) ;
#75 = VECTOR ( 'NONE', #338, 1000.000000000000000 ) ;
#76 = DIRECTION ( 'NONE',  ( 0.000000000000000000, 1.000000000000000000, 0.000000000000000000 ) ) ;
#77 = ORIENTED_EDGE ( 'NONE', *, *, #116, .F. ) ;
#78 = ADVANCED_FACE ( 'NONE', ( #374 ), #3, .F. ) ;
#79 = CARTESIAN_POINT ( 'NONE',  ( 0.000000000000000000, -0.6639528095680771180, 1.599999999999999645 ) ) ;
#80 = EDGE_LOOP ( 'NONE', ( #398, #121, #108, #328 ) ) ;
#81 = DIRECTION ( 'NONE',  ( 0.000000000000000000, 0.000000000000000000, 1.000000000000000000 ) ) ;
#82 = VERTEX_POINT ( 'NONE', #412 ) ;
#83 = CARTESIAN_POINT ( 'NONE',  ( 0.000000000000000000, -2.500000000000000444, 0.8000000000000000444 ) ) ;
#84 = EDGE_LOOP ( 'NONE', ( #274, #131 ) ) ;
#85 = LINE ( 'NONE', #368, #259 ) ;
#86 = ORIENTED_EDGE ( 'NONE', *, *, #46, .F. ) ;
#87 = DIRECTION ( 'NONE',  ( 0.000000000000000000, 0.000000000000000000, 1.000000000000000000 ) ) ;
#88 = ORIENTED_EDGE ( 'NONE', *, *, #356, .F. ) ;
#89 = ADVANCED_FACE ( 'NONE', ( #99, #415 ), #303, .F. ) ;
#90 = DIRECTION ( 'NONE',  ( -0.000000000000000000, 1.000000000000000000, -0.000000000000000000 ) ) ;
#91 = DIRECTION ( 'NONE',  ( 0.000000000000000000, -1.000000000000000000, 0.000000000000000000 ) ) ;
#92 = DIRECTION ( 'NONE',  ( -0.000000000000000000, 1.000000000000000000, -0.000000000000000000 ) ) ;
#93 = CARTESIAN_POINT ( 'NONE',  ( 0.000000000000000000, -2.326794919243112325, 0.000000000000000000 ) ) ;
#94 = PRODUCT_CONTEXT ( 'NONE', #357, 'mechanical' ) ;
#95 = CIRCLE ( 'NONE', #248, 1.599999999999999645 ) ;
#96 = VECTOR ( 'NONE', #362, 1000.000000000000000 ) ;
#97 = EDGE_LOOP ( 'NONE', ( #323, #277, #197, #40 ) ) ;
#98 = EDGE_CURVE ( 'NONE', #252, #15, #264, .T. ) ;
#99 = FACE_BOUND ( 'NONE', #55, .T. ) ;
#100 = CARTESIAN_POINT ( 'NONE',  ( 1.714505518806294391E-16, 0.1100000000000000699, -1.399999999999999911 ) ) ;
#101 = CARTESIAN_POINT ( 'NONE',  ( 0.000000000000000000, -0.6639528095680771180, 0.000000000000000000 ) ) ;
#102 = CIRCLE ( 'NONE', #242, 2.649999999999999911 ) ;
#103 = ADVANCED_FACE ( 'NONE', ( #376 ), #22, .T. ) ;
#104 = ORIENTED_EDGE ( 'NONE', *, *, #127, .T. ) ;
#105 = FILL_AREA_STYLE ('',( #268 ) ) ;
#106 = CARTESIAN_POINT ( 'NONE',  ( 0.000000000000000000, 0.1100000000000000699, 0.000000000000000000 ) ) ;
#107 = AXIS2_PLACEMENT_3D ( 'NONE', #69, #132, #5 ) ;
#108 = ORIENTED_EDGE ( 'NONE', *, *, #228, .T. ) ;
#109 = EDGE_CURVE ( 'NONE', #319, #112, #205, .T. ) ;
#110 = VECTOR ( 'NONE', #425, 1000.000000000000000 ) ;
#111 = PRESENTATION_STYLE_ASSIGNMENT (( #246 ) ) ;
#112 = VERTEX_POINT ( 'NONE', #206 ) ;
#113 = DIRECTION ( 'NONE',  ( -0.000000000000000000, 1.000000000000000000, -0.000000000000000000 ) ) ;
#114 = ORIENTED_EDGE ( 'NONE', *, *, #300, .T. ) ;
#115 = ORIENTED_EDGE ( 'NONE', *, *, #442, .T. ) ;
#116 = EDGE_CURVE ( 'NONE', #319, #139, #216, .T. ) ;
#117 = DIRECTION ( 'NONE',  ( 0.000000000000000000, 0.000000000000000000, 1.000000000000000000 ) ) ;
#118 = LINE ( 'NONE', #253, #96 ) ;
#119 = CARTESIAN_POINT ( 'NONE',  ( 9.797174393178826150E-17, -1.000000000000000000, -0.8000000000000000444 ) ) ;
#120 = FACE_OUTER_BOUND ( 'NONE', #84, .T. ) ;
#121 = ORIENTED_EDGE ( 'NONE', *, *, #30, .T. ) ;
#122 = EDGE_CURVE ( 'NONE', #20, #225, #145, .T. ) ;
#123 = DIRECTION ( 'NONE',  ( 0.000000000000000000, 0.000000000000000000, 1.000000000000000000 ) ) ;
#124 = DIRECTION ( 'NONE',  ( -0.000000000000000000, 1.000000000000000000, -0.000000000000000000 ) ) ;
#125 = DIRECTION ( 'NONE',  ( 0.000000000000000000, -1.000000000000000000, 0.000000000000000000 ) ) ;
#126 = CARTESIAN_POINT ( 'NONE',  ( 0.000000000000000000, -1.662842109675048974, 1.600000000000000089 ) ) ;
#127 = EDGE_CURVE ( 'NONE', #6, #82, #237, .T. ) ;
#128 = DIRECTION ( 'NONE',  ( -0.000000000000000000, 1.000000000000000000, -0.000000000000000000 ) ) ;
#129 = VECTOR ( 'NONE', #201, 1000.000000000000000 ) ;
#130 = AXIS2_PLACEMENT_3D ( 'NONE', #347, #427, #81 ) ;
#131 = ORIENTED_EDGE ( 'NONE', *, *, #34, .T. ) ;
#132 = DIRECTION ( 'NONE',  ( -0.000000000000000000, 1.000000000000000000, -0.000000000000000000 ) ) ;
#133 = ORIENTED_EDGE ( 'NONE', *, *, #346, .F. ) ;
#134 = CARTESIAN_POINT ( 'NONE',  ( 0.000000000000000000, -0.9999999999999997780, 1.399999999999999911 ) ) ;
#135 = ADVANCED_FACE ( 'NONE', ( #170 ), #166, .F. ) ;
#136 = DIRECTION ( 'NONE',  ( 0.000000000000000000, 0.000000000000000000, -1.000000000000000000 ) ) ;
#137 = CLOSED_SHELL ( 'NONE', ( #365, #394, #62, #233, #16, #21, #103, #449, #199, #203, #74, #381, #78, #135, #89, #151 ) ) ;
#138 = AXIS2_PLACEMENT_3D ( 'NONE', #23, #286, #327 ) ;
#139 = VERTEX_POINT ( 'NONE', #73 ) ;
#140 = DIRECTION ( 'NONE',  ( 0.000000000000000000, 0.000000000000000000, 1.000000000000000000 ) ) ;
#141 = ORIENTED_EDGE ( 'NONE', *, *, #251, .F. ) ;
#142 = PRODUCT_RELATED_PRODUCT_CATEGORY ( 'part', '', ( #9 ) ) ;
#143 = DIRECTION ( 'NONE',  ( 0.000000000000000000, 0.000000000000000000, 1.000000000000000000 ) ) ;
#144 = ORIENTED_EDGE ( 'NONE', *, *, #68, .T. ) ;
#145 = CIRCLE ( 'NONE', #173, 0.8000000000000000444 ) ;
#146 = ORIENTED_EDGE ( 'NONE', *, *, #228, .F. ) ;
#147 = AXIS2_PLACEMENT_3D ( 'NONE', #31, #158, #87 ) ;
#148 = CARTESIAN_POINT ( 'NONE',  ( 3.306546357697853240E-16, -2.500000000000000444, -2.649999999999999911 ) ) ;
#149 = DIRECTION ( 'NONE',  ( 0.000000000000000000, 0.000000000000000000, 1.000000000000000000 ) ) ;
#150 = EDGE_LOOP ( 'NONE', ( #360, #282, #444, #424 ) ) ;
#151 = ADVANCED_FACE ( 'NONE', ( #378 ), #37, .F. ) ;
#152 = DIRECTION ( 'NONE',  ( -0.000000000000000000, 1.000000000000000000, -0.000000000000000000 ) ) ;
#153 = EDGE_LOOP ( 'NONE', ( #426, #211, #434, #70 ) ) ;
#154 = LINE ( 'NONE', #196, #276 ) ;
#155 = ORIENTED_EDGE ( 'NONE', *, *, #192, .T. ) ;
#156 = CARTESIAN_POINT ( 'NONE',  ( 2.663606788145493121E-16, -0.6639528095680771180, -1.599999999999999645 ) ) ;
#157 = DIRECTION ( 'NONE',  ( 0.000000000000000000, 0.000000000000000000, 1.000000000000000000 ) ) ;
#158 = DIRECTION ( 'NONE',  ( -0.000000000000000000, 1.000000000000000000, -0.000000000000000000 ) ) ;
#159 = CONICAL_SURFACE ( 'NONE', #28, 1.599999999999999645, 1.047197551196592968 ) ;
#160 = DIRECTION ( 'NONE',  ( -0.000000000000000000, 1.000000000000000000, -0.000000000000000000 ) ) ;
#161 = DIRECTION ( 'NONE',  ( 0.000000000000000000, 0.000000000000000000, -1.000000000000000000 ) ) ;
#162 = CARTESIAN_POINT ( 'NONE',  ( 0.000000000000000000, 0.000000000000000000, 2.750000000000000000 ) ) ;
#163 = ORIENTED_EDGE ( 'NONE', *, *, #418, .F. ) ;
#164 = MECHANICAL_DESIGN_GEOMETRIC_PRESENTATION_REPRESENTATION (  '', ( #363 ), #12 ) ;
#165 = AXIS2_PLACEMENT_3D ( 'NONE', #423, #213, #354 ) ;
#166 = CYLINDRICAL_SURFACE ( 'NONE', #336, 1.399999999999999911 ) ;
#167 = EDGE_LOOP ( 'NONE', ( #441, #348, #428, #353 ) ) ;
#168 = LINE ( 'NONE', #35, #240 ) ;
#169 = EDGE_CURVE ( 'NONE', #6, #319, #168, .T. ) ;
#170 = FACE_OUTER_BOUND ( 'NONE', #153, .T. ) ;
#171 = SHAPE_DEFINITION_REPRESENTATION ( #312, #361 ) ;
#172 = DIRECTION ( 'NONE',  ( 0.000000000000000000, -1.000000000000000000, 0.000000000000000000 ) ) ;
#173 = AXIS2_PLACEMENT_3D ( 'NONE', #383, #310, #341 ) ;
#174 = CIRCLE ( 'NONE', #236, 1.399999999999999911 ) ;
#175 = EDGE_CURVE ( 'NONE', #139, #218, #305, .T. ) ;
#176 = DIRECTION ( 'NONE',  ( -0.000000000000000000, 1.000000000000000000, -0.000000000000000000 ) ) ;
#177 = LINE ( 'NONE', #43, #447 ) ;
#178 = APPLICATION_CONTEXT ( 'automotive_design' ) ;
#179 = VERTEX_POINT ( 'NONE', #134 ) ;
#180 = CARTESIAN_POINT ( 'NONE',  ( 1.959434878635764984E-16, 0.1100000000000000699, -1.599999999999999867 ) ) ;
#181 = AXIS2_PLACEMENT_3D ( 'NONE', #325, #63, #157 ) ;
#182 = ORIENTED_EDGE ( 'NONE', *, *, #300, .F. ) ;
#183 = AXIS2_PLACEMENT_3D ( 'NONE', #38, #36, #375 ) ;
#184 = LINE ( 'NONE', #17, #50 ) ;
#185 = EDGE_CURVE ( 'NONE', #249, #26, #222, .T. ) ;
#186 = MANIFOLD_SOLID_BREP ( 'Cut-Extrude1', #137 ) ;
#187 = CARTESIAN_POINT ( 'NONE',  ( 1.959434878635765477E-16, -1.662842109675048974, -1.600000000000000311 ) ) ;
#188 = EDGE_LOOP ( 'NONE', ( #392, #343, #72, #144 ) ) ;
#189 = CARTESIAN_POINT ( 'NONE',  ( 0.000000000000000000, -0.6639528095680771180, 1.599999999999999645 ) ) ;
#190 = ORIENTED_EDGE ( 'NONE', *, *, #251, .T. ) ;
#191 = CIRCLE ( 'NONE', #351, 2.750000000000000000 ) ;
#192 = EDGE_CURVE ( 'NONE', #15, #252, #314, .T. ) ;
#193 = CARTESIAN_POINT ( 'NONE',  ( 0.000000000000000000, -0.6639528095680771180, 0.000000000000000000 ) ) ;
#194 = CARTESIAN_POINT ( 'NONE',  ( 0.000000000000000000, -2.326794919243112325, 0.000000000000000000 ) ) ;
#195 = VERTEX_POINT ( 'NONE', #47 ) ;
#196 = CARTESIAN_POINT ( 'NONE',  ( 1.714505518806294391E-16, -1.778312163512974164, 1.399999999999999911 ) ) ;
#197 = ORIENTED_EDGE ( 'NONE', *, *, #46, .T. ) ;
#198 = AXIS2_PLACEMENT_3D ( 'NONE', #32, #128, #257 ) ;
#199 = ADVANCED_FACE ( 'NONE', ( #14 ), #159, .T. ) ;
#200 = APPLICATION_PROTOCOL_DEFINITION ( 'draft international standard', 'automotive_design', 1998, #357 ) ;
#201 = DIRECTION ( 'NONE',  ( 6.123233995736745082E-17, 0.8660254037844395958, -0.4999999999999983347 ) ) ;
#202 = ORIENTED_EDGE ( 'NONE', *, *, #169, .T. ) ;
#203 = ADVANCED_FACE ( 'NONE', ( #243 ), #281, .T. ) ;
#204 = VECTOR ( 'NONE', #324, 1000.000000000000000 ) ;
#205 = LINE ( 'NONE', #266, #129 ) ;
#206 = CARTESIAN_POINT ( 'NONE',  ( 0.000000000000000000, -2.326794919243112325, -2.750000000000000000 ) ) ;
#207 = CARTESIAN_POINT ( 'NONE',  ( 0.000000000000000000, -1.662842109675048974, 0.000000000000000000 ) ) ;
#208 = CARTESIAN_POINT ( 'NONE',  ( 3.367778697655221505E-16, 0.000000000000000000, -2.750000000000000000 ) ) ;
#209 = AXIS2_PLACEMENT_3D ( 'NONE', #238, #413, #384 ) ;
#210 = AXIS2_PLACEMENT_3D ( 'NONE', #402, #160, #399 ) ;
#211 = ORIENTED_EDGE ( 'NONE', *, *, #42, .F. ) ;
#212 = ORIENTED_EDGE ( 'NONE', *, *, #332, .F. ) ;
#213 = DIRECTION ( 'NONE',  ( -0.000000000000000000, 1.000000000000000000, -0.000000000000000000 ) ) ;
#214 = ORIENTED_EDGE ( 'NONE', *, *, #293, .F. ) ;
#215 = LINE ( 'NONE', #250, #372 ) ;
#216 = CIRCLE ( 'NONE', #107, 2.649999999999999911 ) ;
#217 = ORIENTED_EDGE ( 'NONE', *, *, #385, .F. ) ;
#218 = VERTEX_POINT ( 'NONE', #389 ) ;
#219 = ORIENTED_EDGE ( 'NONE', *, *, #109, .T. ) ;
#220 = EDGE_CURVE ( 'NONE', #252, #112, #215, .T. ) ;
#221 = ORIENTED_EDGE ( 'NONE', *, *, #42, .T. ) ;
#222 = CIRCLE ( 'NONE', #386, 0.8000000000000000444 ) ;
#223 = AXIS2_PLACEMENT_3D ( 'NONE', #359, #397, #123 ) ;
#224 = DIRECTION ( 'NONE',  ( -0.000000000000000000, 1.000000000000000000, -0.000000000000000000 ) ) ;
#225 = VERTEX_POINT ( 'NONE', #275 ) ;
#226 = FACE_OUTER_BOUND ( 'NONE', #262, .T. ) ;
#227 = FACE_OUTER_BOUND ( 'NONE', #188, .T. ) ;
#228 = EDGE_CURVE ( 'NONE', #350, #331, #247, .T. ) ;
#229 = CARTESIAN_POINT ( 'NONE',  ( 0.000000000000000000, 0.1100000000000000699, 0.000000000000000000 ) ) ;
#230 = AXIS2_PLACEMENT_3D ( 'NONE', #260, #91, #161 ) ;
#231 = CARTESIAN_POINT ( 'NONE',  ( 0.000000000000000000, -1.778312163512974164, 0.000000000000000000 ) ) ;
#232 = DIRECTION ( 'NONE',  ( 0.000000000000000000, 0.000000000000000000, 1.000000000000000000 ) ) ;
#233 = ADVANCED_FACE ( 'NONE', ( #430 ), #438, .T. ) ;
#234 = CARTESIAN_POINT ( 'NONE',  ( 0.000000000000000000, 0.1100000000000000699, 0.000000000000000000 ) ) ;
#235 = AXIS2_PLACEMENT_3D ( 'NONE', #194, #296, #287 ) ;
#236 = AXIS2_PLACEMENT_3D ( 'NONE', #241, #51, #313 ) ;
#237 = LINE ( 'NONE', #100, #75 ) ;
#238 = CARTESIAN_POINT ( 'NONE',  ( 1.399999999999999911, -1.000000000000000000, 0.000000000000000000 ) ) ;
#239 = SURFACE_STYLE_FILL_AREA ( #105 ) ;
#240 = VECTOR ( 'NONE', #271, 1000.000000000000114 ) ;
#241 = CARTESIAN_POINT ( 'NONE',  ( 0.000000000000000000, -0.9999999999999997780, 0.000000000000000000 ) ) ;
#242 = AXIS2_PLACEMENT_3D ( 'NONE', #432, #90, #291 ) ;
#243 = FACE_OUTER_BOUND ( 'NONE', #150, .T. ) ;
#244 = ORIENTED_EDGE ( 'NONE', *, *, #278, .F. ) ;
#245 = EDGE_CURVE ( 'NONE', #179, #82, #4, .T. ) ;
#246 = SURFACE_STYLE_USAGE ( .BOTH. , #19 ) ;
#247 = LINE ( 'NONE', #79, #110 ) ;
#248 = AXIS2_PLACEMENT_3D ( 'NONE', #29, #367, #298 ) ;
#249 = VERTEX_POINT ( 'NONE', #52 ) ;
#250 = CARTESIAN_POINT ( 'NONE',  ( 0.000000000000000000, -2.326794919243112325, -2.750000000000000000 ) ) ;
#251 = EDGE_CURVE ( 'NONE', #26, #249, #387, .T. ) ;
#252 = VERTEX_POINT ( 'NONE', #187 ) ;
#253 = CARTESIAN_POINT ( 'NONE',  ( 9.797174393178826150E-17, -2.500000000000000444, -0.8000000000000000444 ) ) ;
#254 = DIRECTION ( 'NONE',  ( -0.000000000000000000, 1.000000000000000000, -0.000000000000000000 ) ) ;
#255 = PRODUCT_DEFINITION_CONTEXT ( 'detailed design', #178, 'design' ) ;
#256 = DIRECTION ( 'NONE',  ( 1.060575238724909133E-16, -0.4999999999999965583, 0.8660254037844405950 ) ) ;
#257 = DIRECTION ( 'NONE',  ( 0.000000000000000000, 0.000000000000000000, 1.000000000000000000 ) ) ;
#258 = AXIS2_PLACEMENT_3D ( 'NONE', #93, #371, #407 ) ;
#259 = VECTOR ( 'NONE', #25, 1000.000000000000000 ) ;
#260 = CARTESIAN_POINT ( 'NONE',  ( 0.000000000000000000, -2.326794919243112325, 0.000000000000000000 ) ) ;
#261 = DIRECTION ( 'NONE',  ( 0.000000000000000000, -0.000000000000000000, -1.000000000000000000 ) ) ;
#262 = EDGE_LOOP ( 'NONE', ( #217, #104, #114, #214 ) ) ;
#263 = FACE_OUTER_BOUND ( 'NONE', #304, .T. ) ;
#264 = CIRCLE ( 'NONE', #284, 1.600000000000000089 ) ;
#265 = CARTESIAN_POINT ( 'NONE',  ( 0.000000000000000000, -1.778312163512974164, 0.000000000000000000 ) ) ;
#266 = CARTESIAN_POINT ( 'NONE',  ( 3.245314017740485962E-16, -2.500000000000000444, -2.649999999999999911 ) ) ;
#267 = ORIENTED_EDGE ( 'NONE', *, *, #122, .T. ) ;
#268 = FILL_AREA_STYLE_COLOUR ( '', #403 ) ;
#269 = AXIS2_PLACEMENT_3D ( 'NONE', #229, #254, #289 ) ;
#270 =( NAMED_UNIT ( * ) PLANE_ANGLE_UNIT ( ) SI_UNIT ( $, .RADIAN. ) );
#271 = DIRECTION ( 'NONE',  ( 0.000000000000000000, -0.4999999999999967804, -0.8660254037844404840 ) ) ;
#272 = DIRECTION ( 'NONE',  ( 0.000000000000000000, 0.000000000000000000, 1.000000000000000000 ) ) ;
#273 = DIRECTION ( 'NONE',  ( 0.000000000000000000, -0.4999999999999965583, -0.8660254037844405950 ) ) ;
#274 = ORIENTED_EDGE ( 'NONE', *, *, #278, .T. ) ;
#275 = CARTESIAN_POINT ( 'NONE',  ( 0.000000000000000000, -1.000000000000000000, 0.8000000000000000444 ) ) ;
#276 = VECTOR ( 'NONE', #370, 1000.000000000000114 ) ;
#277 = ORIENTED_EDGE ( 'NONE', *, *, #401, .T. ) ;
#278 = EDGE_CURVE ( 'NONE', #331, #280, #422, .T. ) ;
#279 =( NAMED_UNIT ( * ) PLANE_ANGLE_UNIT ( ) SI_UNIT ( $, .RADIAN. ) );
#280 = VERTEX_POINT ( 'NONE', #208 ) ;
#281 = CYLINDRICAL_SURFACE ( 'NONE', #429, 1.599999999999999867 ) ;
#282 = ORIENTED_EDGE ( 'NONE', *, *, #98, .T. ) ;
#283 = DIRECTION ( 'NONE',  ( 0.000000000000000000, 0.000000000000000000, 1.000000000000000000 ) ) ;
#284 = AXIS2_PLACEMENT_3D ( 'NONE', #207, #33, #232 ) ;
#285 = AXIS2_PLACEMENT_3D ( 'NONE', #420, #76, #44 ) ;
#286 = DIRECTION ( 'NONE',  ( -0.000000000000000000, 1.000000000000000000, -0.000000000000000000 ) ) ;
#287 = DIRECTION ( 'NONE',  ( 0.000000000000000000, 0.000000000000000000, -1.000000000000000000 ) ) ;
#288 = DIRECTION ( 'NONE',  ( -0.000000000000000000, 1.000000000000000000, -0.000000000000000000 ) ) ;
#289 = DIRECTION ( 'NONE',  ( 0.000000000000000000, 0.000000000000000000, 1.000000000000000000 ) ) ;
#290 = UNCERTAINTY_MEASURE_WITH_UNIT (LENGTH_MEASURE( 1.000000000000000082E-05 ), #391, 'distance_accuracy_value', 'NONE');
#291 = DIRECTION ( 'NONE',  ( 0.000000000000000000, 0.000000000000000000, 1.000000000000000000 ) ) ;
#292 = FACE_OUTER_BOUND ( 'NONE', #97, .T. ) ;
#293 = EDGE_CURVE ( 'NONE', #195, #179, #177, .T. ) ;
#294 = CIRCLE ( 'NONE', #13, 1.599999999999999645 ) ;
#295 = PLANE ( 'NONE',  #302 ) ;
#296 = DIRECTION ( 'NONE',  ( 0.000000000000000000, -1.000000000000000000, 0.000000000000000000 ) ) ;
#297 = CYLINDRICAL_SURFACE ( 'NONE', #147, 0.8000000000000000444 ) ;
#298 = DIRECTION ( 'NONE',  ( 0.000000000000000000, 0.000000000000000000, 1.000000000000000000 ) ) ;
#299 =( LENGTH_UNIT ( ) NAMED_UNIT ( * ) SI_UNIT ( .MILLI., .METRE. ) );
#300 = EDGE_CURVE ( 'NONE', #82, #179, #174, .T. ) ;
#301 = AXIS2_PLACEMENT_3D ( 'NONE', #101, #448, #445 ) ;
#302 = AXIS2_PLACEMENT_3D ( 'NONE', #440, #125, #261 ) ;
#303 = PLANE ( 'NONE',  #209 ) ;
#304 = EDGE_LOOP ( 'NONE', ( #155, #311, #48, #317 ) ) ;
#305 = LINE ( 'NONE', #39, #329 ) ;
#306 = DIRECTION ( 'NONE',  ( 0.000000000000000000, 0.000000000000000000, 1.000000000000000000 ) ) ;
#307 = EDGE_LOOP ( 'NONE', ( #388, #219, #86, #339 ) ) ;
#308 = EDGE_CURVE ( 'NONE', #252, #390, #10, .T. ) ;
#309 = VECTOR ( 'NONE', #315, 1000.000000000000000 ) ;
#310 = DIRECTION ( 'NONE',  ( -0.000000000000000000, 1.000000000000000000, -0.000000000000000000 ) ) ;
#311 = ORIENTED_EDGE ( 'NONE', *, *, #308, .T. ) ;
#312 = PRODUCT_DEFINITION_SHAPE ( 'NONE', 'NONE',  #414 ) ;
#313 = DIRECTION ( 'NONE',  ( 0.000000000000000000, 0.000000000000000000, 1.000000000000000000 ) ) ;
#314 = CIRCLE ( 'NONE', #379, 1.600000000000000089 ) ;
#315 = DIRECTION ( 'NONE',  ( -0.000000000000000000, 1.000000000000000000, -0.000000000000000000 ) ) ;
#316 = ORIENTED_EDGE ( 'NONE', *, *, #185, .F. ) ;
#317 = ORIENTED_EDGE ( 'NONE', *, *, #320, .F. ) ;
#318 = DIRECTION ( 'NONE',  ( -0.000000000000000000, 1.000000000000000000, -0.000000000000000000 ) ) ;
#319 = VERTEX_POINT ( 'NONE', #148 ) ;
#320 = EDGE_CURVE ( 'NONE', #15, #350, #184, .T. ) ;
#321 = FACE_OUTER_BOUND ( 'NONE', #335, .T. ) ;
#322 = CIRCLE ( 'NONE', #181, 2.750000000000000000 ) ;
#323 = ORIENTED_EDGE ( 'NONE', *, *, #192, .F. ) ;
#324 = DIRECTION ( 'NONE',  ( -0.000000000000000000, 1.000000000000000000, -0.000000000000000000 ) ) ;
#325 = CARTESIAN_POINT ( 'NONE',  ( 0.000000000000000000, 0.000000000000000000, 0.000000000000000000 ) ) ;
#326 = DIRECTION ( 'NONE',  ( 0.000000000000000000, -1.000000000000000000, 0.000000000000000000 ) ) ;
#327 = DIRECTION ( 'NONE',  ( 0.000000000000000000, 0.000000000000000000, 1.000000000000000000 ) ) ;
#328 = ORIENTED_EDGE ( 'NONE', *, *, #34, .F. ) ;
#329 = VECTOR ( 'NONE', #1, 1000.000000000000000 ) ;
#330 = DIRECTION ( 'NONE',  ( 0.000000000000000000, 0.000000000000000000, 1.000000000000000000 ) ) ;
#331 = VERTEX_POINT ( 'NONE', #162 ) ;
#332 = EDGE_CURVE ( 'NONE', #225, #249, #54, .T. ) ;
#333 = CARTESIAN_POINT ( 'NONE',  ( 0.000000000000000000, 0.000000000000000000, 0.000000000000000000 ) ) ;
#334 = DIRECTION ( 'NONE',  ( -0.000000000000000000, 1.000000000000000000, -0.000000000000000000 ) ) ;
#335 = EDGE_LOOP ( 'NONE', ( #355, #115, #190, #212 ) ) ;
#336 = AXIS2_PLACEMENT_3D ( 'NONE', #234, #334, #140 ) ;
#337 = AXIS2_PLACEMENT_3D ( 'NONE', #352, #318, #117 ) ;
#338 = DIRECTION ( 'NONE',  ( -0.000000000000000000, 1.000000000000000000, -0.000000000000000000 ) ) ;
#339 = ORIENTED_EDGE ( 'NONE', *, *, #175, .F. ) ;
#340 =( NAMED_UNIT ( * ) SI_UNIT ( $, .STERADIAN. ) SOLID_ANGLE_UNIT ( ) );
#341 = DIRECTION ( 'NONE',  ( 0.000000000000000000, 0.000000000000000000, 1.000000000000000000 ) ) ;
#342 = CARTESIAN_POINT ( 'NONE',  ( 0.000000000000000000, -2.500000000000000444, 0.000000000000000000 ) ) ;
#343 = ORIENTED_EDGE ( 'NONE', *, *, #98, .F. ) ;
#344 = VECTOR ( 'NONE', #256, 1000.000000000000114 ) ;
#345 = ORIENTED_EDGE ( 'NONE', *, *, #169, .F. ) ;
#346 = EDGE_CURVE ( 'NONE', #225, #20, #380, .T. ) ;
#347 = CARTESIAN_POINT ( 'NONE',  ( 0.000000000000000000, -2.500000000000000444, 0.000000000000000000 ) ) ;
#348 = ORIENTED_EDGE ( 'NONE', *, *, #116, .T. ) ;
#349 = DIRECTION ( 'NONE',  ( -0.000000000000000000, 1.000000000000000000, -0.000000000000000000 ) ) ;
#350 = VERTEX_POINT ( 'NONE', #189 ) ;
#351 = AXIS2_PLACEMENT_3D ( 'NONE', #27, #124, #410 ) ;
#352 = CARTESIAN_POINT ( 'NONE',  ( 0.000000000000000000, 0.000000000000000000, 0.000000000000000000 ) ) ;
#353 = ORIENTED_EDGE ( 'NONE', *, *, #68, .F. ) ;
#354 = DIRECTION ( 'NONE',  ( 0.000000000000000000, 0.000000000000000000, 1.000000000000000000 ) ) ;
#355 = ORIENTED_EDGE ( 'NONE', *, *, #122, .F. ) ;
#356 = EDGE_CURVE ( 'NONE', #195, #139, #154, .T. ) ;
#357 = APPLICATION_CONTEXT ( 'automotive_design' ) ;
#358 = UNCERTAINTY_MEASURE_WITH_UNIT (LENGTH_MEASURE( 1.000000000000000082E-05 ), #299, 'distance_accuracy_value', 'NONE');
#359 = CARTESIAN_POINT ( 'NONE',  ( 0.000000000000000000, -1.000000000000000000, 0.000000000000000000 ) ) ;
#360 = ORIENTED_EDGE ( 'NONE', *, *, #308, .F. ) ;
#361 = ADVANCED_BREP_SHAPE_REPRESENTATION ( 'RIVET_SKK3030PT_COUNTERSUNK_2.0-2.5GRIP', ( #186, #183 ), #71 ) ;
#362 = DIRECTION ( 'NONE',  ( -0.000000000000000000, 1.000000000000000000, -0.000000000000000000 ) ) ;
#363 = STYLED_ITEM ( 'NONE', ( #111 ), #186 ) ;
#364 = EDGE_LOOP ( 'NONE', ( #8, #436, #77, #345 ) ) ;
#365 = ADVANCED_FACE ( 'NONE', ( #321 ), #297, .F. ) ;
#366 = CYLINDRICAL_SURFACE ( 'NONE', #210, 1.399999999999999911 ) ;
#367 = DIRECTION ( 'NONE',  ( -0.000000000000000000, 1.000000000000000000, -0.000000000000000000 ) ) ;
#368 = CARTESIAN_POINT ( 'NONE',  ( 1.959434878635764737E-16, -0.6639528095680771180, -1.599999999999999645 ) ) ;
#369 = ORIENTED_EDGE ( 'NONE', *, *, #346, .T. ) ;
#370 = DIRECTION ( 'NONE',  ( 1.060575238724909010E-16, -0.4999999999999967804, 0.8660254037844404840 ) ) ;
#371 = DIRECTION ( 'NONE',  ( -0.000000000000000000, 1.000000000000000000, -0.000000000000000000 ) ) ;
#372 = VECTOR ( 'NONE', #273, 1000.000000000000114 ) ;
#373 = CIRCLE ( 'NONE', #24, 1.399999999999999911 ) ;
#374 = FACE_OUTER_BOUND ( 'NONE', #396, .T. ) ;
#375 = DIRECTION ( 'NONE',  ( 1.000000000000000000, 0.000000000000000000, 0.000000000000000000 ) ) ;
#376 = FACE_OUTER_BOUND ( 'NONE', #405, .T. ) ;
#377 = APPLICATION_PROTOCOL_DEFINITION ( 'draft international standard', 'automotive_design', 1998, #178 ) ;
#378 = FACE_OUTER_BOUND ( 'NONE', #2, .T. ) ;
#379 = AXIS2_PLACEMENT_3D ( 'NONE', #419, #113, #143 ) ;
#380 = CIRCLE ( 'NONE', #223, 0.8000000000000000444 ) ;
#381 = ADVANCED_FACE ( 'NONE', ( #443 ), #57, .T. ) ;
#382 = DIRECTION ( 'NONE',  ( -0.000000000000000000, 1.000000000000000000, -0.000000000000000000 ) ) ;
#383 = CARTESIAN_POINT ( 'NONE',  ( 0.000000000000000000, -1.000000000000000000, 0.000000000000000000 ) ) ;
#384 = DIRECTION ( 'NONE',  ( 0.000000000000000000, 0.000000000000000000, 1.000000000000000000 ) ) ;
#385 = EDGE_CURVE ( 'NONE', #6, #195, #373, .T. ) ;
#386 = AXIS2_PLACEMENT_3D ( 'NONE', #333, #417, #272 ) ;
#387 = CIRCLE ( 'NONE', #285, 0.8000000000000000444 ) ;
#388 = ORIENTED_EDGE ( 'NONE', *, *, #418, .T. ) ;
#389 = CARTESIAN_POINT ( 'NONE',  ( 3.367778697655221012E-16, -2.326794919243112325, 2.750000000000000000 ) ) ;
#390 = VERTEX_POINT ( 'NONE', #156 ) ;
#391 =( LENGTH_UNIT ( ) NAMED_UNIT ( * ) SI_UNIT ( .MILLI., .METRE. ) );
#392 = ORIENTED_EDGE ( 'NONE', *, *, #401, .F. ) ;
#393 = CIRCLE ( 'NONE', #258, 2.750000000000000000 ) ;
#394 = ADVANCED_FACE ( 'NONE', ( #226 ), #366, .F. ) ;
#395 = CARTESIAN_POINT ( 'NONE',  ( 0.000000000000000000, -0.6639528095680771180, 0.000000000000000000 ) ) ;
#396 = EDGE_LOOP ( 'NONE', ( #88, #221, #202, #163 ) ) ;
#397 = DIRECTION ( 'NONE',  ( -0.000000000000000000, 1.000000000000000000, -0.000000000000000000 ) ) ;
#398 = ORIENTED_EDGE ( 'NONE', *, *, #433, .F. ) ;
#399 = DIRECTION ( 'NONE',  ( 0.000000000000000000, 0.000000000000000000, 1.000000000000000000 ) ) ;
#400 = EDGE_LOOP ( 'NONE', ( #421, #182 ) ) ;
#401 = EDGE_CURVE ( 'NONE', #15, #218, #64, .T. ) ;
#402 = CARTESIAN_POINT ( 'NONE',  ( 0.000000000000000000, 0.1100000000000000699, 0.000000000000000000 ) ) ;
#403 = COLOUR_RGB ( '',0.7921568627450980005, 0.8196078431372548767, 0.9333333333333333481 ) ;
#404 = PRODUCT_DEFINITION_FORMATION_WITH_SPECIFIED_SOURCE ( 'ANY', '', #9, .NOT_KNOWN. ) ;
#405 = EDGE_LOOP ( 'NONE', ( #67, #431, #244, #146 ) ) ;
#406 = CARTESIAN_POINT ( 'NONE',  ( 0.000000000000000000, -1.778312163512974164, 0.000000000000000000 ) ) ;
#407 = DIRECTION ( 'NONE',  ( 0.000000000000000000, 0.000000000000000000, 1.000000000000000000 ) ) ;
#408 = CYLINDRICAL_SURFACE ( 'NONE', #269, 1.599999999999999867 ) ;
#409 = EDGE_CURVE ( 'NONE', #350, #390, #294, .T. ) ;
#410 = DIRECTION ( 'NONE',  ( 0.000000000000000000, 0.000000000000000000, 1.000000000000000000 ) ) ;
#411 = AXIS2_PLACEMENT_3D ( 'NONE', #231, #326, #439 ) ;
#412 = CARTESIAN_POINT ( 'NONE',  ( 1.714505518806294391E-16, -0.9999999999999997780, -1.399999999999999911 ) ) ;
#413 = DIRECTION ( 'NONE',  ( -0.000000000000000000, 1.000000000000000000, 0.000000000000000000 ) ) ;
#414 = PRODUCT_DEFINITION ( 'UNKNOWN', '', #404, #255 ) ;
#415 = FACE_OUTER_BOUND ( 'NONE', #400, .T. ) ;
#416 = AXIS2_PLACEMENT_3D ( 'NONE', #265, #172, #136 ) ;
#417 = DIRECTION ( 'NONE',  ( 0.000000000000000000, 1.000000000000000000, 0.000000000000000000 ) ) ;
#418 = EDGE_CURVE ( 'NONE', #139, #319, #102, .T. ) ;
#419 = CARTESIAN_POINT ( 'NONE',  ( 0.000000000000000000, -1.662842109675048974, 0.000000000000000000 ) ) ;
#420 = CARTESIAN_POINT ( 'NONE',  ( 0.000000000000000000, 0.000000000000000000, 0.000000000000000000 ) ) ;
#421 = ORIENTED_EDGE ( 'NONE', *, *, #245, .F. ) ;
#422 = CIRCLE ( 'NONE', #337, 2.750000000000000000 ) ;
#423 = CARTESIAN_POINT ( 'NONE',  ( 0.000000000000000000, -0.9999999999999997780, 0.000000000000000000 ) ) ;
#424 = ORIENTED_EDGE ( 'NONE', *, *, #30, .F. ) ;
#425 = DIRECTION ( 'NONE',  ( 0.000000000000000000, 0.5000000000000041078, 0.8660254037844363761 ) ) ;
#426 = ORIENTED_EDGE ( 'NONE', *, *, #127, .F. ) ;
#427 = DIRECTION ( 'NONE',  ( -0.000000000000000000, 1.000000000000000000, -0.000000000000000000 ) ) ;
#428 = ORIENTED_EDGE ( 'NONE', *, *, #175, .T. ) ;
#429 = AXIS2_PLACEMENT_3D ( 'NONE', #106, #349, #283 ) ;
#430 = FACE_OUTER_BOUND ( 'NONE', #307, .T. ) ;
#431 = ORIENTED_EDGE ( 'NONE', *, *, #433, .T. ) ;
#432 = CARTESIAN_POINT ( 'NONE',  ( 0.000000000000000000, -2.500000000000000444, 0.000000000000000000 ) ) ;
#433 = EDGE_CURVE ( 'NONE', #390, #280, #85, .T. ) ;
#434 = ORIENTED_EDGE ( 'NONE', *, *, #293, .T. ) ;
#435 = FACE_BOUND ( 'NONE', #18, .T. ) ;
#436 = ORIENTED_EDGE ( 'NONE', *, *, #356, .T. ) ;
#437 = CONICAL_SURFACE ( 'NONE', #230, 2.750000000000000000, 1.047197551196601628 ) ;
#438 = CONICAL_SURFACE ( 'NONE', #130, 2.649999999999999911, 0.5235987755982969283 ) ;
#439 = DIRECTION ( 'NONE',  ( 0.000000000000000000, 0.000000000000000000, -1.000000000000000000 ) ) ;
#440 = CARTESIAN_POINT ( 'NONE',  ( 0.000000000000000000, 0.000000000000000000, 0.000000000000000000 ) ) ;
#441 = ORIENTED_EDGE ( 'NONE', *, *, #109, .F. ) ;
#442 = EDGE_CURVE ( 'NONE', #20, #26, #118, .T. ) ;
#443 = FACE_OUTER_BOUND ( 'NONE', #167, .T. ) ;
#444 = ORIENTED_EDGE ( 'NONE', *, *, #320, .T. ) ;
#445 = DIRECTION ( 'NONE',  ( 0.000000000000000000, 0.000000000000000000, 1.000000000000000000 ) ) ;
#446 = AXIS2_PLACEMENT_3D ( 'NONE', #342, #382, #306 ) ;
#447 = VECTOR ( 'NONE', #176, 1000.000000000000000 ) ;
#448 = DIRECTION ( 'NONE',  ( -0.000000000000000000, 1.000000000000000000, -0.000000000000000000 ) ) ;
#449 = ADVANCED_FACE ( 'NONE', ( #435, #120 ), #295, .F. ) ;
ENDSEC;
END-ISO-10303-21;
