ISO-10303-21;
HEADER;
FILE_DESCRIPTION (( 'STEP AP214' ),
    '1' );
FILE_NAME ('SCREW_M3X4_FLAT_92010A112.step',
    '2026-02-27T00:29:44',
    ( '' ),
    ( '' ),
    'SwSTEP 2.0',
    'SolidWorks 2023',
    '' );
FILE_SCHEMA (( 'AUTOMOTIVE_DESIGN' ));
ENDSEC;

DATA;
#1 = FACE_OUTER_BOUND ( 'NONE', #682, .T. ) ;
#2 = CARTESIAN_POINT ( 'NONE',  ( 0.5252572366576391261, 0.2175686711582067168, 1.649999999999998579 ) ) ;
#3 = ORIENTED_EDGE ( 'NONE', *, *, #408, .T. ) ;
#4 = CARTESIAN_POINT ( 'NONE',  ( -1.342841092609237119, 0.2794000000000129713, 1.649999999999998579 ) ) ;
#5 =( NAMED_UNIT ( * ) PLANE_ANGLE_UNIT ( ) SI_UNIT ( $, .RADIAN. ) );
#6 = ORIENTED_EDGE ( 'NONE', *, *, #784, .F. ) ;
#7 = ORIENTED_EDGE ( 'NONE', *, *, #546, .T. ) ;
#8 = LINE ( 'NONE', #70, #83 ) ;
#9 = EDGE_CURVE ( 'NONE', #821, #487, #25, .T. ) ;
#10 = DIRECTION ( 'NONE',  ( 0.06666269134683215636, -0.06666269134683268371, 0.9955461672694008168 ) ) ;
#11 = VERTEX_POINT ( 'NONE', #332 ) ;
#12 = VECTOR ( 'NONE', #467, 1000.000000000000000 ) ;
#13 =( BOUNDED_CURVE ( )  B_SPLINE_CURVE ( 3, ( #415, #343, #664, #195 ),
 .UNSPECIFIED., .F., .F. ) 
 B_SPLINE_CURVE_WITH_KNOTS ( ( 4, 4 ),
 ( 4.881819945452527065, 4.917528446445841972 ),
 .UNSPECIFIED. ) 
 CURVE ( )  GEOMETRIC_REPRESENTATION_ITEM ( )  RATIONAL_B_SPLINE_CURVE ( ( 1.000000000000000000, 0.9998937447357327812, 0.9998937447357327812, 1.000000000000000000 ) ) 
 REPRESENTATION_ITEM ( '' )  );
#14 = AXIS2_PLACEMENT_3D ( 'NONE', #1008, #396, #473 ) ;
#15 = ORIENTED_EDGE ( 'NONE', *, *, #851, .F. ) ;
#16 = CARTESIAN_POINT ( 'NONE',  ( 1.349206843930974786, 0.2473742437992223764, 1.283943931589623277 ) ) ;
#17 = VECTOR ( 'NONE', #352, 1000.000000000000000 ) ;
#18 = EDGE_CURVE ( 'NONE', #984, #795, #174, .T. ) ;
#19 = CARTESIAN_POINT ( 'NONE',  ( -0.2781747951757229664, 0.8108768379124984271, 1.635995844776708008 ) ) ;
#20 = EDGE_CURVE ( 'NONE', #318, #465, #986, .T. ) ;
#21 = VERTEX_POINT ( 'NONE', #895 ) ;
#22 = EDGE_LOOP ( 'NONE', ( #346, #188, #440, #919 ) ) ;
#23 = CARTESIAN_POINT ( 'NONE',  ( 1.342841092609237119, 0.2793999999999990935, 1.649999999999998579 ) ) ;
#24 = DIRECTION ( 'NONE',  ( -3.491481338843133355E-15, -1.000000000000000000, 0.000000000000000000 ) ) ;
#25 = LINE ( 'NONE', #964, #509 ) ;
#26 = VERTEX_POINT ( 'NONE', #184 ) ;
#27 = CARTESIAN_POINT ( 'NONE',  ( 0.000000000000000000, -1.104999999999999982, -2.349999999999997868 ) ) ;
#28 = DIRECTION ( 'NONE',  ( 0.000000000000000000, -0.000000000000000000, -1.000000000000000000 ) ) ;
#29 = FACE_OUTER_BOUND ( 'NONE', #495, .T. ) ;
#30 = EDGE_CURVE ( 'NONE', #913, #881, #403, .T. ) ;
#31 = AXIS2_PLACEMENT_3D ( 'NONE', #520, #363, #285 ) ;
#32 = ORIENTED_EDGE ( 'NONE', *, *, #606, .T. ) ;
#33 = FACE_OUTER_BOUND ( 'NONE', #704, .T. ) ;
#34 = CONICAL_SURFACE ( 'NONE', #56, 1.500000000000000000, 0.7853981633974483900 ) ;
#35 = FACE_OUTER_BOUND ( 'NONE', #944, .T. ) ;
#36 = PRODUCT_DEFINITION_FORMATION_WITH_SPECIFIED_SOURCE ( 'ANY', '', #926, .NOT_KNOWN. ) ;
#37 = EDGE_LOOP ( 'NONE', ( #656, #685, #489, #279 ) ) ;
#38 = CARTESIAN_POINT ( 'NONE',  ( 1.351959892270770958, 0.2312812350607415524, 1.100000000000003642 ) ) ;
#39 = ORIENTED_EDGE ( 'NONE', *, *, #655, .T. ) ;
#40 = CARTESIAN_POINT ( 'NONE',  ( 0.000000000000000000, 0.000000000000000000, 1.100000000000003642 ) ) ;
#41 = DIRECTION ( 'NONE',  ( -1.000000000000000000, 0.000000000000000000, 0.000000000000000000 ) ) ;
#42 = VERTEX_POINT ( 'NONE', #815 ) ;
#43 = CARTESIAN_POINT ( 'NONE',  ( -1.342841092609237119, -0.2793999999999990935, 1.649999999999998579 ) ) ;
#44 = ORIENTED_EDGE ( 'NONE', *, *, #707, .T. ) ;
#45 = PLANE ( 'NONE',  #698 ) ;
#46 = DIRECTION ( 'NONE',  ( -0.000000000000000000, -1.554359398917796077E-16, 1.000000000000000000 ) ) ;
#47 = EDGE_CURVE ( 'NONE', #673, #834, #219, .T. ) ;
#48 = ORIENTED_EDGE ( 'NONE', *, *, #267, .F. ) ;
#49 = CARTESIAN_POINT ( 'NONE',  ( 0.000000000000000000, 0.000000000000000000, -2.349999999999997868 ) ) ;
#50 = VERTEX_POINT ( 'NONE', #810 ) ;
#51 = CARTESIAN_POINT ( 'NONE',  ( 0.2312812350607207357, 0.000000000000000000, 1.100000000000003642 ) ) ;
#52 = DIRECTION ( 'NONE',  ( 2.048861642965144420E-32, -2.048861642965151809E-32, 1.000000000000000000 ) ) ;
#53 = AXIS2_PLACEMENT_3D ( 'NONE', #617, #144, #452 ) ;
#54 = ORIENTED_EDGE ( 'NONE', *, *, #298, .T. ) ;
#55 = EDGE_CURVE ( 'NONE', #316, #899, #355, .T. ) ;
#56 = AXIS2_PLACEMENT_3D ( 'NONE', #761, #46, #773 ) ;
#57 = FACE_OUTER_BOUND ( 'NONE', #639, .T. ) ;
#58 = ADVANCED_FACE ( 'NONE', ( #29 ), #493, .T. ) ;
#59 =( LENGTH_UNIT ( ) NAMED_UNIT ( * ) SI_UNIT ( .MILLI., .METRE. ) );
#60 = DIRECTION ( 'NONE',  ( 1.000000000000000000, 0.000000000000000000, 0.000000000000000000 ) ) ;
#61 = PLANE ( 'NONE',  #695 ) ;
#62 = DIRECTION ( 'NONE',  ( -0.3826834323650925573, -0.9238795325112855172, 0.000000000000000000 ) ) ;
#63 = FACE_OUTER_BOUND ( 'NONE', #571, .T. ) ;
#64 = EDGE_CURVE ( 'NONE', #708, #478, #752, .T. ) ;
#65 = LINE ( 'NONE', #278, #712 ) ;
#66 = DIRECTION ( 'NONE',  ( -0.08714264840443967930, -0.01733375049386037120, 0.9960450290638855897 ) ) ;
#67 = VECTOR ( 'NONE', #486, 1000.000000000000000 ) ;
#68 = ORIENTED_EDGE ( 'NONE', *, *, #80, .T. ) ;
#69 = AXIS2_PLACEMENT_3D ( 'NONE', #817, #652, #427 ) ;
#70 = CARTESIAN_POINT ( 'NONE',  ( 0.2781747951757229664, 0.8108768379124984271, 1.635995844776708008 ) ) ;
#71 = PRODUCT_DEFINITION ( 'UNKNOWN', '', #36, #317 ) ;
#72 = DIRECTION ( 'NONE',  ( -0.000000000000000000, -1.554359398917796077E-16, 1.000000000000000000 ) ) ;
#73 = ORIENTED_EDGE ( 'NONE', *, *, #298, .F. ) ;
#74 = FACE_OUTER_BOUND ( 'NONE', #270, .T. ) ;
#75 = ADVANCED_FACE ( 'NONE', ( #514 ), #654, .T. ) ;
#76 = CARTESIAN_POINT ( 'NONE',  ( 0.4345709708595824061, 0.4345709708596032228, 1.641541761640899377 ) ) ;
#77 = VERTEX_POINT ( 'NONE', #38 ) ;
#78 = CARTESIAN_POINT ( 'NONE',  ( 0.2175686711581859001, 0.5252572366576322427, 1.649999999999998579 ) ) ;
#79 = DIRECTION ( 'NONE',  ( 0.000000000000000000, -0.000000000000000000, -1.000000000000000000 ) ) ;
#80 = EDGE_CURVE ( 'NONE', #329, #318, #306, .T. ) ;
#81 = AXIS2_PLACEMENT_3D ( 'NONE', #234, #721, #321 ) ;
#82 = ORIENTED_EDGE ( 'NONE', *, *, #313, .F. ) ;
#83 = VECTOR ( 'NONE', #789, 1000.000000000000227 ) ;
#84 = VECTOR ( 'NONE', #939, 1000.000000000000000 ) ;
#85 = VECTOR ( 'NONE', #741, 1000.000000000000000 ) ;
#86 = CARTESIAN_POINT ( 'NONE',  ( 0.000000000000000000, 0.000000000000000000, 0.3500000000000030864 ) ) ;
#87 = CARTESIAN_POINT ( 'NONE',  ( -1.371600000000000374, 0.000000000000000000, 1.100000000000003642 ) ) ;
#88 = ORIENTED_EDGE ( 'NONE', *, *, #806, .F. ) ;
#89 = ADVANCED_FACE ( 'NONE', ( #666 ), #275, .T. ) ;
#90 = DIRECTION ( 'NONE',  ( 0.08715574274765836016, 0.000000000000000000, -0.9961946980917455452 ) ) ;
#91 = CARTESIAN_POINT ( 'NONE',  ( 0.2312812350607207357, 1.351959892270764074, 1.100000000000003642 ) ) ;
#92 = EDGE_LOOP ( 'NONE', ( #395, #865, #418, #132 ) ) ;
#93 = ADVANCED_FACE ( 'NONE', ( #678 ), #541, .T. ) ;
#94 = ORIENTED_EDGE ( 'NONE', *, *, #632, .T. ) ;
#95 = CARTESIAN_POINT ( 'NONE',  ( 1.595102455889427533E-16, 1.104999999999999982, -2.349999999999997868 ) ) ;
#96 = FILL_AREA_STYLE_COLOUR ( '', #905 ) ;
#97 = ORIENTED_EDGE ( 'NONE', *, *, #18, .F. ) ;
#98 = AXIS2_PLACEMENT_3D ( 'NONE', #970, #594, #280 ) ;
#99 = AXIS2_PLACEMENT_3D ( 'NONE', #147, #131, #150 ) ;
#100 = ORIENTED_EDGE ( 'NONE', *, *, #988, .T. ) ;
#101 = LINE ( 'NONE', #586, #261 ) ;
#102 = CARTESIAN_POINT ( 'NONE',  ( 0.000000000000000000, 0.000000000000000000, 1.100000000000003642 ) ) ;
#103 = CARTESIAN_POINT ( 'NONE',  ( 0.2793999999999852157, 0.000000000000000000, 1.649999999999998579 ) ) ;
#104 = VERTEX_POINT ( 'NONE', #891 ) ;
#105 = LINE ( 'NONE', #496, #792 ) ;
#106 = DIRECTION ( 'NONE',  ( -0.3826834323650900593, 0.9238795325112866275, -0.000000000000000000 ) ) ;
#107 = EDGE_CURVE ( 'NONE', #881, #1007, #908, .T. ) ;
#108 = PLANE ( 'NONE',  #856 ) ;
#109 = ORIENTED_EDGE ( 'NONE', *, *, #107, .F. ) ;
#110 = LINE ( 'NONE', #407, #85 ) ;
#111 = CARTESIAN_POINT ( 'NONE',  ( 0.000000000000000000, 0.000000000000000000, 1.649999999999998579 ) ) ;
#112 = ORIENTED_EDGE ( 'NONE', *, *, #995, .F. ) ;
#113 = DIRECTION ( 'NONE',  ( 0.3812272063696441338, -0.9203638919632282089, 0.08715574274765819363 ) ) ;
#114 = VECTOR ( 'NONE', #66, 1000.000000000000227 ) ;
#115 = ORIENTED_EDGE ( 'NONE', *, *, #606, .F. ) ;
#116 = CARTESIAN_POINT ( 'NONE',  ( -0.2312812350607207357, -1.351959892270764074, 1.100000000000003642 ) ) ;
#117 = VECTOR ( 'NONE', #918, 999.9999999999998863 ) ;
#118 = DIRECTION ( 'NONE',  ( 0.000000000000000000, -1.000000000000000000, 0.000000000000000000 ) ) ;
#119 = VECTOR ( 'NONE', #201, 1000.000000000000000 ) ;
#120 = ORIENTED_EDGE ( 'NONE', *, *, #447, .T. ) ;
#121 = DIRECTION ( 'NONE',  ( 0.000000000000000000, -0.7071067811865477948, 0.7071067811865473507 ) ) ;
#122 = ADVANCED_FACE ( 'NONE', ( #181 ), #108, .T. ) ;
#123 = EDGE_LOOP ( 'NONE', ( #241, #6, #671, #163 ) ) ;
#124 = CARTESIAN_POINT ( 'NONE',  ( -0.2793999999999852157, 0.8111205463046250452, 1.649999999999998579 ) ) ;
#125 = DIRECTION ( 'NONE',  ( -0.000000000000000000, -1.554359398917796077E-16, 1.000000000000000000 ) ) ;
#126 = EDGE_LOOP ( 'NONE', ( #580, #335, #751, #511 ) ) ;
#127 = DIRECTION ( 'NONE',  ( -1.000000000000000000, 3.185624574414748283E-15, 2.048861642965151262E-32 ) ) ;
#128 = ORIENTED_EDGE ( 'NONE', *, *, #546, .F. ) ;
#129 = CARTESIAN_POINT ( 'NONE',  ( 0.2473742437992168253, -1.349206843930975896, 1.283943931589615950 ) ) ;
#130 = ADVANCED_FACE ( 'NONE', ( #345 ), #263, .T. ) ;
#131 = DIRECTION ( 'NONE',  ( -0.000000000000000000, -0.000000000000000000, 1.000000000000000000 ) ) ;
#132 = ORIENTED_EDGE ( 'NONE', *, *, #796, .F. ) ;
#133 = EDGE_CURVE ( 'NONE', #26, #487, #448, .T. ) ;
#134 = FACE_OUTER_BOUND ( 'NONE', #855, .T. ) ;
#135 = CARTESIAN_POINT ( 'NONE',  ( 0.000000000000000000, 1.500000000000000000, -1.954999999999998073 ) ) ;
#136 = DIRECTION ( 'NONE',  ( -3.491481338843133355E-15, -1.000000000000000000, 0.000000000000000000 ) ) ;
#137 = MECHANICAL_DESIGN_GEOMETRIC_PRESENTATION_REPRESENTATION (  '', ( #175 ), #460 ) ;
#138 = ORIENTED_EDGE ( 'NONE', *, *, #333, .T. ) ;
#139 = VECTOR ( 'NONE', #283, 1000.000000000000000 ) ;
#140 = DIRECTION ( 'NONE',  ( -0.000000000000000000, 1.606225440719265381E-16, -1.000000000000000000 ) ) ;
#141 = CIRCLE ( 'NONE', #477, 1.371600000000000374 ) ;
#142 = DIRECTION ( 'NONE',  ( 1.000000000000000000, 0.000000000000000000, 0.000000000000000000 ) ) ;
#143 = CARTESIAN_POINT ( 'NONE',  ( 0.000000000000000000, 0.000000000000000000, 1.649999999999998579 ) ) ;
#144 = DIRECTION ( 'NONE',  ( -0.000000000000000000, 0.000000000000000000, 1.000000000000000000 ) ) ;
#145 = EDGE_CURVE ( 'NONE', #465, #431, #807, .T. ) ;
#146 = DIRECTION ( 'NONE',  ( -0.000000000000000000, 0.000000000000000000, 1.000000000000000000 ) ) ;
#147 = CARTESIAN_POINT ( 'NONE',  ( 0.000000000000000000, 0.000000000000000000, 1.100000000000003642 ) ) ;
#148 = CARTESIAN_POINT ( 'NONE',  ( 0.000000000000000000, 1.500000000000000222, -2.349999999999997424 ) ) ;
#149 = ORIENTED_EDGE ( 'NONE', *, *, #637, .F. ) ;
#150 = DIRECTION ( 'NONE',  ( 1.000000000000000000, 0.000000000000000000, 0.000000000000000000 ) ) ;
#151 = DIRECTION ( 'NONE',  ( -0.9238795325112869605, 0.3826834323650893377, 1.568130811942155449E-32 ) ) ;
#152 = AXIS2_PLACEMENT_3D ( 'NONE', #461, #52, #136 ) ;
#153 = ORIENTED_EDGE ( 'NONE', *, *, #536, .F. ) ;
#154 = ADVANCED_FACE ( 'NONE', ( #768 ), #526, .T. ) ;
#155 = EDGE_LOOP ( 'NONE', ( #513, #254, #575, #3 ) ) ;
#156 = DIRECTION ( 'NONE',  ( 0.3826834323650900593, -0.9238795325112866275, 0.000000000000000000 ) ) ;
#157 = EDGE_CURVE ( 'NONE', #11, #879, #218, .T. ) ;
#158 = CARTESIAN_POINT ( 'NONE',  ( 2.632990618166809728E-16, 1.500000000000000444, 0.3500000000000033085 ) ) ;
#159 = ORIENTED_EDGE ( 'NONE', *, *, #604, .F. ) ;
#160 = CARTESIAN_POINT ( 'NONE',  ( 0.000000000000000000, 0.000000000000000000, 1.649999999999998579 ) ) ;
#161 = DIRECTION ( 'NONE',  ( 1.000000000000000000, 0.000000000000000000, 0.000000000000000000 ) ) ;
#162 = VECTOR ( 'NONE', #121, 999.9999999999998863 ) ;
#163 = ORIENTED_EDGE ( 'NONE', *, *, #842, .T. ) ;
#164 = PRODUCT_CONTEXT ( 'NONE', #921, 'mechanical' ) ;
#165 = DIRECTION ( 'NONE',  ( 0.08715574274765836016, 0.000000000000000000, -0.9961946980917455452 ) ) ;
#166 = SURFACE_STYLE_USAGE ( .BOTH. , #557 ) ;
#167 = ORIENTED_EDGE ( 'NONE', *, *, #702, .F. ) ;
#168 = VERTEX_POINT ( 'NONE', #694 ) ;
#169 = CARTESIAN_POINT ( 'NONE',  ( 0.2793999999999852157, -0.8111205463046250452, 1.649999999999998579 ) ) ;
#170 = ORIENTED_EDGE ( 'NONE', *, *, #55, .F. ) ;
#171 = ORIENTED_EDGE ( 'NONE', *, *, #286, .F. ) ;
#172 = CYLINDRICAL_SURFACE ( 'NONE', #765, 1.371600000000000374 ) ;
#173 = CARTESIAN_POINT ( 'NONE',  ( 1.371600000000000374, 0.000000000000000000, 1.100000000000003642 ) ) ;
#174 = LINE ( 'NONE', #833, #292 ) ;
#175 = STYLED_ITEM ( 'NONE', ( #402 ), #359 ) ;
#176 = VECTOR ( 'NONE', #212, 1000.000000000000000 ) ;
#177 = ORIENTED_EDGE ( 'NONE', *, *, #755, .T. ) ;
#178 = CARTESIAN_POINT ( 'NONE',  ( 1.342841092609237119, -0.2794000000000060324, 1.649999999999998579 ) ) ;
#179 = ADVANCED_FACE ( 'NONE', ( #57 ), #61, .T. ) ;
#180 = LINE ( 'NONE', #497, #745 ) ;
#181 = FACE_OUTER_BOUND ( 'NONE', #980, .T. ) ;
#182 = ORIENTED_EDGE ( 'NONE', *, *, #229, .F. ) ;
#183 = DIRECTION ( 'NONE',  ( 0.3812272063696530155, 0.9203638919632245452, 0.08715574274765852669 ) ) ;
#184 = CARTESIAN_POINT ( 'NONE',  ( 0.8015491288551612747, -0.2312812350607415524, 1.100000000000003642 ) ) ;
#185 = ADVANCED_BREP_SHAPE_REPRESENTATION ( 'SCREW_M3X4_FLAT_92010A112', ( #359, #859 ), #598 ) ;
#186 = VERTEX_POINT ( 'NONE', #686 ) ;
#187 = CARTESIAN_POINT ( 'NONE',  ( 1.342841092609237119, 0.2793999999999990935, 1.649999999999998579 ) ) ;
#188 = ORIENTED_EDGE ( 'NONE', *, *, #439, .T. ) ;
#189 = CARTESIAN_POINT ( 'NONE',  ( 0.2793999999999852157, 0.000000000000000000, 1.649999999999998579 ) ) ;
#190 = EDGE_CURVE ( 'NONE', #899, #837, #611, .T. ) ;
#191 = AXIS2_PLACEMENT_3D ( 'NONE', #204, #993, #844 ) ;
#192 = ORIENTED_EDGE ( 'NONE', *, *, #55, .T. ) ;
#193 = LINE ( 'NONE', #287, #425 ) ;
#194 = VECTOR ( 'NONE', #106, 1000.000000000000227 ) ;
#195 = CARTESIAN_POINT ( 'NONE',  ( -0.2793999999999852157, 1.342841092609250886, 1.649999999999998579 ) ) ;
#196 = CIRCLE ( 'NONE', #909, 1.371600000000000374 ) ;
#197 = EDGE_LOOP ( 'NONE', ( #676, #609, #362, #621, #128, #730, #328, #989, #748, #757, #843, #112, #499, #961, #566, #97, #886, #170, #718, #646, #599, #790, #15 ) ) ;
#198 = CARTESIAN_POINT ( 'NONE',  ( 1.353234713057825625E-16, 1.104999999999999982, -2.349999999999997868 ) ) ;
#199 = ADVANCED_FACE ( 'NONE', ( #464 ), #1009, .T. ) ;
#200 = VERTEX_POINT ( 'NONE', #367 ) ;
#201 = DIRECTION ( 'NONE',  ( 3.695385848462056737E-15, 1.000000000000000000, -0.000000000000000000 ) ) ;
#202 = CARTESIAN_POINT ( 'NONE',  ( 0.000000000000000000, 0.2312812350607415524, 1.100000000000003642 ) ) ;
#203 = VERTEX_POINT ( 'NONE', #920 ) ;
#204 = CARTESIAN_POINT ( 'NONE',  ( 0.000000000000000000, 0.000000000000000000, 1.100000000000003642 ) ) ;
#205 = VERTEX_POINT ( 'NONE', #763 ) ;
#206 = CARTESIAN_POINT ( 'NONE',  ( 0.4808012946005413291, -0.1991544170300840744, 1.100000000000003642 ) ) ;
#207 = DIRECTION ( 'NONE',  ( -0.9203638919632231019, 0.3812272063696562907, 0.08715574274765841567 ) ) ;
#208 = VERTEX_POINT ( 'NONE', #1001 ) ;
#209 = DIRECTION ( 'NONE',  ( 0.3826834323650989966, 0.9238795325112829637, 0.000000000000000000 ) ) ;
#210 = DIRECTION ( 'NONE',  ( 1.000000000000000000, 0.000000000000000000, 0.000000000000000000 ) ) ;
#211 = CLOSED_SHELL ( 'NONE', ( #213, #392, #595, #449, #89, #747, #739, #561, #230, #857, #93, #954, #130, #199, #380, #930, #582, #257, #179, #488, #616, #58, #880, #719, #122, #860, #867, #814, #401, #75, #154, #690 ) ) ;
#212 = DIRECTION ( 'NONE',  ( -1.067834852614832266E-14, -1.000000000000000000, -2.048861642965144967E-32 ) ) ;
#213 = ADVANCED_FACE ( 'NONE', ( #63 ), #289, .F. ) ;
#214 = VECTOR ( 'NONE', #877, 1000.000000000000227 ) ;
#215 = DIRECTION ( 'NONE',  ( 0.3826834323650900593, -0.9238795325112867385, 0.000000000000000000 ) ) ;
#216 = CARTESIAN_POINT ( 'NONE',  ( -0.3983088340601681487, -0.3983088340601612098, 1.100000000000003642 ) ) ;
#217 = DIRECTION ( 'NONE',  ( 0.000000000000000000, -4.097723285930288839E-32, 1.000000000000000000 ) ) ;
#218 = LINE ( 'NONE', #699, #710 ) ;
#219 =( BOUNDED_CURVE ( )  B_SPLINE_CURVE ( 3, ( #434, #577, #498, #43 ),
 .UNSPECIFIED., .F., .F. ) 
 B_SPLINE_CURVE_WITH_KNOTS ( ( 4, 4 ),
 ( 4.881819945452526177, 4.917528446445843748 ),
 .UNSPECIFIED. ) 
 CURVE ( )  GEOMETRIC_REPRESENTATION_ITEM ( )  RATIONAL_B_SPLINE_CURVE ( ( 1.000000000000000000, 0.9998937447357327812, 0.9998937447357327812, 1.000000000000000000 ) ) 
 REPRESENTATION_ITEM ( '' )  );
#220 = UNCERTAINTY_MEASURE_WITH_UNIT (LENGTH_MEASURE( 1.000000000000000082E-05 ), #553, 'distance_accuracy_value', 'NONE');
#221 = DIRECTION ( 'NONE',  ( -0.3826834323650900593, 0.9238795325112867385, 3.785802673765888397E-32 ) ) ;
#222 = CARTESIAN_POINT ( 'NONE',  ( 0.000000000000000000, -0.2793999999999990935, 1.649999999999998579 ) ) ;
#223 = ORIENTED_EDGE ( 'NONE', *, *, #784, .T. ) ;
#224 = EDGE_CURVE ( 'NONE', #753, #902, #535, .T. ) ;
#225 = CARTESIAN_POINT ( 'NONE',  ( -0.2793999999999852157, 0.000000000000000000, 1.649999999999998579 ) ) ;
#226 = VECTOR ( 'NONE', #538, 1000.000000000000114 ) ;
#227 = AXIS2_PLACEMENT_3D ( 'NONE', #904, #570, #968 ) ;
#228 = ORIENTED_EDGE ( 'NONE', *, *, #64, .F. ) ;
#229 = EDGE_CURVE ( 'NONE', #208, #875, #527, .T. ) ;
#230 = ADVANCED_FACE ( 'NONE', ( #134 ), #370, .T. ) ;
#231 = DIRECTION ( 'NONE',  ( 0.000000000000000000, -4.097723285930288839E-32, 1.000000000000000000 ) ) ;
#232 = EDGE_LOOP ( 'NONE', ( #68, #832, #484, #48 ) ) ;
#233 = LINE ( 'NONE', #480, #907 ) ;
#234 = CARTESIAN_POINT ( 'NONE',  ( 0.000000000000000000, 0.000000000000000000, -1.954999999999998295 ) ) ;
#235 = ORIENTED_EDGE ( 'NONE', *, *, #523, .F. ) ;
#236 = CARTESIAN_POINT ( 'NONE',  ( -0.4351373423164273113, 0.4351373423164134335, 1.649999999999998579 ) ) ;
#237 = EDGE_CURVE ( 'NONE', #478, #21, #776, .T. ) ;
#238 = CIRCLE ( 'NONE', #81, 1.500000000000000000 ) ;
#239 = VERTEX_POINT ( 'NONE', #931 ) ;
#240 = AXIS2_PLACEMENT_3D ( 'NONE', #143, #217, #456 ) ;
#241 = ORIENTED_EDGE ( 'NONE', *, *, #567, .F. ) ;
#242 = LINE ( 'NONE', #564, #214 ) ;
#243 = CARTESIAN_POINT ( 'NONE',  ( -0.8015491288551612747, 0.2312812350607484913, 1.100000000000003642 ) ) ;
#244 = ORIENTED_EDGE ( 'NONE', *, *, #454, .T. ) ;
#245 = EDGE_LOOP ( 'NONE', ( #941, #149, #906, #948 ) ) ;
#246 = ORIENTED_EDGE ( 'NONE', *, *, #1014, .T. ) ;
#247 = DIRECTION ( 'NONE',  ( -3.491481338843133355E-15, -1.000000000000000000, 0.000000000000000000 ) ) ;
#248 = DIRECTION ( 'NONE',  ( 8.659560562354934091E-17, 0.7071067811865474617, 0.7071067811865475727 ) ) ;
#249 = ORIENTED_EDGE ( 'NONE', *, *, #190, .T. ) ;
#250 = EDGE_CURVE ( 'NONE', #605, #404, #914, .T. ) ;
#251 = EDGE_LOOP ( 'NONE', ( #390, #839, #562, #138 ) ) ;
#252 = PLANE ( 'NONE',  #845 ) ;
#253 = CARTESIAN_POINT ( 'NONE',  ( 0.000000000000000000, 0.000000000000000000, -2.349999999999997868 ) ) ;
#254 = ORIENTED_EDGE ( 'NONE', *, *, #372, .F. ) ;
#255 = DIRECTION ( 'NONE',  ( 0.000000000000000000, 1.000000000000000000, 0.000000000000000000 ) ) ;
#256 = VECTOR ( 'NONE', #780, 1000.000000000000000 ) ;
#257 = ADVANCED_FACE ( 'NONE', ( #295 ), #848, .T. ) ;
#258 = CIRCLE ( 'NONE', #969, 1.371600000000000374 ) ;
#259 = EDGE_LOOP ( 'NONE', ( #956, #323, #153, #525 ) ) ;
#260 = CARTESIAN_POINT ( 'NONE',  ( 0.000000000000000000, -0.2793999999999990935, 1.649999999999998579 ) ) ;
#261 = VECTOR ( 'NONE', #657, 1000.000000000000227 ) ;
#262 = DIRECTION ( 'NONE',  ( 0.000000000000000000, -0.08715574274765820750, -0.9961946980917455452 ) ) ;
#263 = PLANE ( 'NONE',  #641 ) ;
#264 = ORIENTED_EDGE ( 'NONE', *, *, #372, .T. ) ;
#265 = CARTESIAN_POINT ( 'NONE',  ( 0.000000000000000000, 0.2793999999999990935, 1.649999999999998579 ) ) ;
#266 = CARTESIAN_POINT ( 'NONE',  ( -0.8108768379124775549, -0.2781747951757021498, 1.635995844776708008 ) ) ;
#267 = EDGE_CURVE ( 'NONE', #329, #1007, #850, .T. ) ;
#268 = EDGE_LOOP ( 'NONE', ( #602, #378, #416, #916 ) ) ;
#269 = CARTESIAN_POINT ( 'NONE',  ( 0.000000000000000000, 0.000000000000000000, -2.349999999999997868 ) ) ;
#270 = EDGE_LOOP ( 'NONE', ( #722, #120 ) ) ;
#271 = DIRECTION ( 'NONE',  ( 0.000000000000000000, -0.7071067811865475727, 0.7071067811865474617 ) ) ;
#272 = CARTESIAN_POINT ( 'NONE',  ( -0.2312812350607207357, 0.8015491288551751525, 1.100000000000003642 ) ) ;
#273 = ORIENTED_EDGE ( 'NONE', *, *, #733, .F. ) ;
#274 = EDGE_CURVE ( 'NONE', #239, #896, #878, .T. ) ;
#275 = CYLINDRICAL_SURFACE ( 'NONE', #576, 1.500000000000000222 ) ;
#276 = ORIENTED_EDGE ( 'NONE', *, *, #973, .T. ) ;
#277 = CARTESIAN_POINT ( 'NONE',  ( -0.8111205463046111674, 0.2794000000000060324, 1.649999999999998579 ) ) ;
#278 = CARTESIAN_POINT ( 'NONE',  ( 0.000000000000000000, -0.2312812350607415524, 1.100000000000003642 ) ) ;
#279 = ORIENTED_EDGE ( 'NONE', *, *, #677, .T. ) ;
#280 = DIRECTION ( 'NONE',  ( 0.000000000000000000, -1.000000000000000000, 0.000000000000000000 ) ) ;
#281 = ORIENTED_EDGE ( 'NONE', *, *, #483, .T. ) ;
#282 = LINE ( 'NONE', #206, #681 ) ;
#283 = DIRECTION ( 'NONE',  ( -0.000000000000000000, -0.000000000000000000, 1.000000000000000000 ) ) ;
#284 = ORIENTED_EDGE ( 'NONE', *, *, #274, .T. ) ;
#285 = DIRECTION ( 'NONE',  ( 1.000000000000000000, 0.000000000000000000, 0.000000000000000000 ) ) ;
#286 = EDGE_CURVE ( 'NONE', #404, #902, #549, .T. ) ;
#287 = CARTESIAN_POINT ( 'NONE',  ( 0.000000000000000000, 0.2312812350607415524, 1.100000000000003642 ) ) ;
#288 = CARTESIAN_POINT ( 'NONE',  ( 0.3983088340601681487, -0.3983088340601612098, 1.100000000000003642 ) ) ;
#289 = CYLINDRICAL_SURFACE ( 'NONE', #191, 1.371600000000000374 ) ;
#290 =( BOUNDED_CURVE ( )  B_SPLINE_CURVE ( 3, ( #455, #129, #928, #982 ),
 .UNSPECIFIED., .F., .F. ) 
 B_SPLINE_CURVE_WITH_KNOTS ( ( 4, 4 ),
 ( 4.881819945452527065, 4.917528446445841972 ),
 .UNSPECIFIED. ) 
 CURVE ( )  GEOMETRIC_REPRESENTATION_ITEM ( )  RATIONAL_B_SPLINE_CURVE ( ( 1.000000000000000000, 0.9998937447357327812, 0.9998937447357327812, 1.000000000000000000 ) ) 
 REPRESENTATION_ITEM ( '' )  );
#291 = CARTESIAN_POINT ( 'NONE',  ( 0.000000000000000000, -1.104999999999999982, -2.349999999999997868 ) ) ;
#292 = VECTOR ( 'NONE', #584, 999.9999999999998863 ) ;
#293 = CARTESIAN_POINT ( 'NONE',  ( 0.2793999999999852157, 1.342841092609244003, 1.649999999999998579 ) ) ;
#294 = AXIS2_PLACEMENT_3D ( 'NONE', #111, #125, #492 ) ;
#295 = FACE_OUTER_BOUND ( 'NONE', #197, .T. ) ;
#296 = CARTESIAN_POINT ( 'NONE',  ( 0.5252572366576391261, -0.2175686711582067168, 1.649999999999998579 ) ) ;
#297 = CARTESIAN_POINT ( 'NONE',  ( 0.1991544170300563188, 0.4808012946005274513, 1.100000000000003642 ) ) ;
#298 = EDGE_CURVE ( 'NONE', #635, #429, #397, .T. ) ;
#299 = CARTESIAN_POINT ( 'NONE',  ( 0.000000000000000000, 1.105000000000001759, -2.349999999999997868 ) ) ;
#300 = ORIENTED_EDGE ( 'NONE', *, *, #626, .T. ) ;
#301 = CARTESIAN_POINT ( 'NONE',  ( 0.000000000000000000, 0.000000000000000000, 1.100000000000003642 ) ) ;
#302 = DIRECTION ( 'NONE',  ( -3.491481338843133355E-15, -1.000000000000000000, 0.000000000000000000 ) ) ;
#303 = EDGE_CURVE ( 'NONE', #816, #1007, #238, .T. ) ;
#304 = ORIENTED_EDGE ( 'NONE', *, *, #364, .T. ) ;
#305 = DIRECTION ( 'NONE',  ( -1.000000000000000000, 0.000000000000000000, 0.000000000000000000 ) ) ;
#306 = CIRCLE ( 'NONE', #1015, 1.500000000000000444 ) ;
#307 = CIRCLE ( 'NONE', #444, 1.500000000000000444 ) ;
#308 = ORIENTED_EDGE ( 'NONE', *, *, #333, .F. ) ;
#309 = CIRCLE ( 'NONE', #828, 1.500000000000000000 ) ;
#310 = FACE_OUTER_BOUND ( 'NONE', #22, .T. ) ;
#311 = DIRECTION ( 'NONE',  ( -0.000000000000000000, 1.606225440719265381E-16, -1.000000000000000000 ) ) ;
#312 = VERTEX_POINT ( 'NONE', #91 ) ;
#313 = EDGE_CURVE ( 'NONE', #700, #825, #356, .T. ) ;
#314 = DIRECTION ( 'NONE',  ( 0.9961946980917455452, 3.046928870990532109E-16, 0.08715574274765836016 ) ) ;
#315 = PLANE ( 'NONE',  #596 ) ;
#316 = VERTEX_POINT ( 'NONE', #864 ) ;
#317 = PRODUCT_DEFINITION_CONTEXT ( 'detailed design', #548, 'design' ) ;
#318 = VERTEX_POINT ( 'NONE', #940 ) ;
#319 = CARTESIAN_POINT ( 'NONE',  ( 0.2793999999999852157, 0.000000000000000000, 1.649999999999998579 ) ) ;
#320 =( BOUNDED_CURVE ( )  B_SPLINE_CURVE ( 3, ( #116, #400, #724, #505 ),
 .UNSPECIFIED., .F., .F. ) 
 B_SPLINE_CURVE_WITH_KNOTS ( ( 4, 4 ),
 ( 4.881819945452527065, 4.917528446445841972 ),
 .UNSPECIFIED. ) 
 CURVE ( )  GEOMETRIC_REPRESENTATION_ITEM ( )  RATIONAL_B_SPLINE_CURVE ( ( 1.000000000000000000, 0.9998937447357327812, 0.9998937447357327812, 1.000000000000000000 ) ) 
 REPRESENTATION_ITEM ( '' )  );
#321 = DIRECTION ( 'NONE',  ( 0.000000000000000000, 1.000000000000000000, 2.891205793294678326E-16 ) ) ;
#322 = VECTOR ( 'NONE', #10, 1000.000000000000227 ) ;
#323 = ORIENTED_EDGE ( 'NONE', *, *, #626, .F. ) ;
#324 = AXIS2_PLACEMENT_3D ( 'NONE', #160, #936, #783 ) ;
#325 = VERTEX_POINT ( 'NONE', #243 ) ;
#326 = LINE ( 'NONE', #173, #139 ) ;
#327 = EDGE_CURVE ( 'NONE', #325, #354, #387, .T. ) ;
#328 = ORIENTED_EDGE ( 'NONE', *, *, #502, .F. ) ;
#329 = VERTEX_POINT ( 'NONE', #158 ) ;
#330 = CARTESIAN_POINT ( 'NONE',  ( 1.351959892270770958, 0.2312812350607415524, 1.100000000000003642 ) ) ;
#331 = CARTESIAN_POINT ( 'NONE',  ( 0.000000000000000000, 0.2793999999999990935, 1.649999999999998579 ) ) ;
#332 = CARTESIAN_POINT ( 'NONE',  ( -0.4351373423164273113, -0.4351373423164064946, 1.649999999999998579 ) ) ;
#333 = EDGE_CURVE ( 'NONE', #186, #896, #794, .T. ) ;
#334 = EDGE_CURVE ( 'NONE', #318, #816, #706, .T. ) ;
#335 = ORIENTED_EDGE ( 'NONE', *, *, #632, .F. ) ;
#336 = CARTESIAN_POINT ( 'NONE',  ( -0.8015491288551612747, -0.2312812350607415524, 1.100000000000003642 ) ) ;
#337 = DIRECTION ( 'NONE',  ( 0.000000000000000000, -4.097723285930288839E-32, 1.000000000000000000 ) ) ;
#338 = DIRECTION ( 'NONE',  ( -0.000000000000000000, 1.606225440719265381E-16, -1.000000000000000000 ) ) ;
#339 = VECTOR ( 'NONE', #785, 999.9999999999998863 ) ;
#340 = VECTOR ( 'NONE', #808, 1000.000000000000000 ) ;
#341 = ORIENTED_EDGE ( 'NONE', *, *, #9, .T. ) ;
#342 = CYLINDRICAL_SURFACE ( 'NONE', #579, 1.371600000000000374 ) ;
#343 = CARTESIAN_POINT ( 'NONE',  ( -0.2473742437992074161, 1.349206843930977229, 1.283943931589615950 ) ) ;
#344 = ORIENTED_EDGE ( 'NONE', *, *, #491, .F. ) ;
#345 = FACE_OUTER_BOUND ( 'NONE', #245, .T. ) ;
#346 = ORIENTED_EDGE ( 'NONE', *, *, #80, .F. ) ;
#347 = DIRECTION ( 'NONE',  ( -3.491481338843133355E-15, -1.000000000000000000, 0.000000000000000000 ) ) ;
#348 = LINE ( 'NONE', #831, #340 ) ;
#349 = EDGE_LOOP ( 'NONE', ( #662, #341, #100, #276, #651, #803, #799, #44, #521, #519, #665, #951, #458, #246, #398, #981, #115, #384, #545, #284, #177, #955, #182 ) ) ;
#350 = DIRECTION ( 'NONE',  ( -0.000000000000000000, 1.606225440719265381E-16, -1.000000000000000000 ) ) ;
#351 = ORIENTED_EDGE ( 'NONE', *, *, #133, .T. ) ;
#352 = DIRECTION ( 'NONE',  ( 1.000000000000000000, -2.039045096189232828E-16, 0.000000000000000000 ) ) ;
#353 = CYLINDRICAL_SURFACE ( 'NONE', #99, 1.371600000000000374 ) ;
#354 = VERTEX_POINT ( 'NONE', #714 ) ;
#355 = LINE ( 'NONE', #430, #627 ) ;
#356 = CIRCLE ( 'NONE', #388, 1.371600000000000152 ) ;
#357 = ORIENTED_EDGE ( 'NONE', *, *, #851, .T. ) ;
#358 = CARTESIAN_POINT ( 'NONE',  ( 0.000000000000000000, -0.2312812350607415524, 1.100000000000003642 ) ) ;
#359 = MANIFOLD_SOLID_BREP ( 'Draft2', #211 ) ;
#360 = CIRCLE ( 'NONE', #462, 1.371600000000000152 ) ;
#361 = DIRECTION ( 'NONE',  ( -1.000000000000000000, 3.185624574414748283E-15, -0.000000000000000000 ) ) ;
#362 = ORIENTED_EDGE ( 'NONE', *, *, #670, .T. ) ;
#363 = DIRECTION ( 'NONE',  ( -0.000000000000000000, 0.000000000000000000, 1.000000000000000000 ) ) ;
#364 = EDGE_CURVE ( 'NONE', #168, #200, #475, .T. ) ;
#365 = CARTESIAN_POINT ( 'NONE',  ( 0.000000000000000000, 0.000000000000000000, 1.100000000000003642 ) ) ;
#366 = CARTESIAN_POINT ( 'NONE',  ( 0.000000000000000000, 0.000000000000000000, 0.3500000000000030864 ) ) ;
#367 = CARTESIAN_POINT ( 'NONE',  ( -1.371600000000000374, -1.126873903630819085E-32, 1.649999999999998579 ) ) ;
#368 = DIRECTION ( 'NONE',  ( 1.000000000000000000, -1.016858725210101539E-14, 2.048861642965123619E-32 ) ) ;
#369 = CARTESIAN_POINT ( 'NONE',  ( 0.2473742437992214327, 1.349206843930974786, 1.283943931589622833 ) ) ;
#370 = PLANE ( 'NONE',  #556 ) ;
#371 = CARTESIAN_POINT ( 'NONE',  ( -0.2312812350607207357, -0.8015491288551681581, 1.100000000000003642 ) ) ;
#372 = EDGE_CURVE ( 'NONE', #984, #11, #1012, .T. ) ;
#373 = VECTOR ( 'NONE', #638, 1000.000000000000227 ) ;
#374 = LINE ( 'NONE', #601, #871 ) ;
#375 = AXIS2_PLACEMENT_3D ( 'NONE', #716, #547, #165 ) ;
#376 = VECTOR ( 'NONE', #754, 1000.000000000000114 ) ;
#377 = CARTESIAN_POINT ( 'NONE',  ( 0.000000000000000000, 0.000000000000000000, 1.649999999999998579 ) ) ;
#378 = ORIENTED_EDGE ( 'NONE', *, *, #408, .F. ) ;
#379 = CARTESIAN_POINT ( 'NONE',  ( -0.2793999999999852157, 0.000000000000000000, 1.649999999999998579 ) ) ;
#380 = ADVANCED_FACE ( 'NONE', ( #634 ), #315, .T. ) ;
#381 = CARTESIAN_POINT ( 'NONE',  ( 0.000000000000000000, 0.000000000000000000, 1.649999999999998579 ) ) ;
#382 = ORIENTED_EDGE ( 'NONE', *, *, #922, .T. ) ;
#383 = FACE_OUTER_BOUND ( 'NONE', #585, .T. ) ;
#384 = ORIENTED_EDGE ( 'NONE', *, *, #313, .T. ) ;
#385 = CARTESIAN_POINT ( 'NONE',  ( -0.2793999999999852157, -1.342841092609244003, 1.649999999999998579 ) ) ;
#386 = AXIS2_PLACEMENT_3D ( 'NONE', #457, #441, #215 ) ;
#387 = LINE ( 'NONE', #946, #824 ) ;
#388 = AXIS2_PLACEMENT_3D ( 'NONE', #642, #79, #161 ) ;
#389 = CIRCLE ( 'NONE', #324, 1.371600000000000374 ) ;
#390 = ORIENTED_EDGE ( 'NONE', *, *, #274, .F. ) ;
#391 = AXIS2_PLACEMENT_3D ( 'NONE', #674, #618, #917 ) ;
#392 = ADVANCED_FACE ( 'NONE', ( #409 ), #648, .F. ) ;
#393 = CARTESIAN_POINT ( 'NONE',  ( -1.349206843930972566, 0.2473742437992351162, 1.283943931589615950 ) ) ;
#394 = CARTESIAN_POINT ( 'NONE',  ( -0.4345709708595824061, -0.4345709708596032228, 1.641541761640899377 ) ) ;
#395 = ORIENTED_EDGE ( 'NONE', *, *, #670, .F. ) ;
#396 = DIRECTION ( 'NONE',  ( 0.000000000000000000, 1.554359398917796077E-16, -1.000000000000000000 ) ) ;
#397 = LINE ( 'NONE', #629, #322 ) ;
#398 = ORIENTED_EDGE ( 'NONE', *, *, #567, .T. ) ;
#399 = ORIENTED_EDGE ( 'NONE', *, *, #959, .T. ) ;
#400 = CARTESIAN_POINT ( 'NONE',  ( -0.2473742437992214327, -1.349206843930975008, 1.283943931589622833 ) ) ;
#401 = ADVANCED_FACE ( 'NONE', ( #669 ), #818, .T. ) ;
#402 = PRESENTATION_STYLE_ASSIGNMENT (( #166 ) ) ;
#403 = CIRCLE ( 'NONE', #870, 1.104999999999999982 ) ;
#404 = VERTEX_POINT ( 'NONE', #272 ) ;
#405 = CONICAL_SURFACE ( 'NONE', #985, 1.500000000000000000, 0.7853981633974483900 ) ;
#406 = ORIENTED_EDGE ( 'NONE', *, *, #459, .T. ) ;
#407 = CARTESIAN_POINT ( 'NONE',  ( 0.1991544170300563188, -0.4808012946005274513, 1.100000000000003642 ) ) ;
#408 = EDGE_CURVE ( 'NONE', #795, #879, #501, .T. ) ;
#409 = FACE_OUTER_BOUND ( 'NONE', #1013, .T. ) ;
#410 = ORIENTED_EDGE ( 'NONE', *, *, #411, .T. ) ;
#411 = EDGE_CURVE ( 'NONE', #881, #913, #476, .T. ) ;
#412 = DIRECTION ( 'NONE',  ( 0.08715574274765836016, 0.000000000000000000, 0.9961946980917455452 ) ) ;
#413 = ORIENTED_EDGE ( 'NONE', *, *, #107, .T. ) ;
#414 = DIRECTION ( 'NONE',  ( 0.000000000000000000, -4.097723285930288839E-32, 1.000000000000000000 ) ) ;
#415 = CARTESIAN_POINT ( 'NONE',  ( -0.2312812350607207357, 1.351959892270764074, 1.100000000000003642 ) ) ;
#416 = ORIENTED_EDGE ( 'NONE', *, *, #934, .F. ) ;
#417 = CARTESIAN_POINT ( 'NONE',  ( -0.5252572366576391261, -0.2175686711582067168, 1.649999999999998579 ) ) ;
#418 = ORIENTED_EDGE ( 'NONE', *, *, #229, .T. ) ;
#419 = CYLINDRICAL_SURFACE ( 'NONE', #69, 1.500000000000000222 ) ;
#420 = CARTESIAN_POINT ( 'NONE',  ( -0.4808012946005413291, -0.1991544170300771355, 1.100000000000003642 ) ) ;
#421 = ORIENTED_EDGE ( 'NONE', *, *, #470, .F. ) ;
#422 = DIRECTION ( 'NONE',  ( -0.000000000000000000, 1.606225440719265381E-16, -1.000000000000000000 ) ) ;
#423 = EDGE_CURVE ( 'NONE', #834, #879, #889, .T. ) ;
#424 = AXIS2_PLACEMENT_3D ( 'NONE', #102, #963, #24 ) ;
#425 = VECTOR ( 'NONE', #450, 1000.000000000000000 ) ;
#426 = ORIENTED_EDGE ( 'NONE', *, *, #64, .T. ) ;
#427 = DIRECTION ( 'NONE',  ( 0.000000000000000000, 1.000000000000000000, 2.891205793294677833E-16 ) ) ;
#428 = PLANE ( 'NONE',  #938 ) ;
#429 = VERTEX_POINT ( 'NONE', #756 ) ;
#430 = CARTESIAN_POINT ( 'NONE',  ( -0.2312812350607207357, 0.000000000000000000, 1.100000000000003642 ) ) ;
#431 = VERTEX_POINT ( 'NONE', #592 ) ;
#432 = DIRECTION ( 'NONE',  ( -0.3812272063696506286, 0.9203638919632255444, 0.08715574274765848506 ) ) ;
#433 = ORIENTED_EDGE ( 'NONE', *, *, #988, .F. ) ;
#434 = CARTESIAN_POINT ( 'NONE',  ( -1.351959892270770958, -0.2312812350607415524, 1.100000000000003642 ) ) ;
#435 =( BOUNDED_CURVE ( )  B_SPLINE_CURVE ( 3, ( #793, #393, #628, #4 ),
 .UNSPECIFIED., .F., .F. ) 
 B_SPLINE_CURVE_WITH_KNOTS ( ( 4, 4 ),
 ( 4.881819945452526177, 4.917528446445842860 ),
 .UNSPECIFIED. ) 
 CURVE ( )  GEOMETRIC_REPRESENTATION_ITEM ( )  RATIONAL_B_SPLINE_CURVE ( ( 1.000000000000000000, 0.9998937447357327812, 0.9998937447357327812, 1.000000000000000000 ) ) 
 REPRESENTATION_ITEM ( '' )  );
#436 = ORIENTED_EDGE ( 'NONE', *, *, #303, .F. ) ;
#437 = LINE ( 'NONE', #614, #987 ) ;
#438 = CARTESIAN_POINT ( 'NONE',  ( 0.2312812350607207357, -0.8015491288551681581, 1.100000000000003642 ) ) ;
#439 = EDGE_CURVE ( 'NONE', #329, #431, #180, .T. ) ;
#440 = ORIENTED_EDGE ( 'NONE', *, *, #145, .F. ) ;
#441 = DIRECTION ( 'NONE',  ( -0.9203638919632243232, -0.3812272063696537927, 0.08715574274765830465 ) ) ;
#442 = VECTOR ( 'NONE', #589, 1000.000000000000000 ) ;
#443 = DIRECTION ( 'NONE',  ( -2.031285913993687333E-16, -0.9961946980917455452, 0.08715574274765820750 ) ) ;
#444 = AXIS2_PLACEMENT_3D ( 'NONE', #366, #619, #997 ) ;
#445 = LINE ( 'NONE', #688, #764 ) ;
#446 = ORIENTED_EDGE ( 'NONE', *, *, #515, .F. ) ;
#447 = EDGE_CURVE ( 'NONE', #431, #465, #543, .T. ) ;
#448 = LINE ( 'NONE', #703, #226 ) ;
#449 = ADVANCED_FACE ( 'NONE', ( #35 ), #927, .T. ) ;
#450 = DIRECTION ( 'NONE',  ( 1.000000000000000000, -1.016858725210101539E-14, 0.000000000000000000 ) ) ;
#451 = CARTESIAN_POINT ( 'NONE',  ( 0.2312812350607207357, 1.351959892270764074, 1.100000000000003642 ) ) ;
#452 = DIRECTION ( 'NONE',  ( 1.000000000000000000, 0.000000000000000000, 0.000000000000000000 ) ) ;
#453 = PRODUCT_DEFINITION_SHAPE ( 'NONE', 'NONE',  #71 ) ;
#454 = EDGE_CURVE ( 'NONE', #899, #984, #506, .T. ) ;
#455 = CARTESIAN_POINT ( 'NONE',  ( 0.2312812350607207357, -1.351959892270764074, 1.100000000000003642 ) ) ;
#456 = DIRECTION ( 'NONE',  ( -1.000000000000000000, 0.000000000000000000, 0.000000000000000000 ) ) ;
#457 = CARTESIAN_POINT ( 'NONE',  ( 0.5252572366576391261, 0.2175686711582067168, 1.649999999999998579 ) ) ;
#458 = ORIENTED_EDGE ( 'NONE', *, *, #677, .F. ) ;
#459 = EDGE_CURVE ( 'NONE', #775, #478, #809, .T. ) ;
#460 =( GEOMETRIC_REPRESENTATION_CONTEXT ( 3 ) GLOBAL_UNCERTAINTY_ASSIGNED_CONTEXT ( ( #220 ) ) GLOBAL_UNIT_ASSIGNED_CONTEXT ( ( #553, #5, #544 ) ) REPRESENTATION_CONTEXT ( 'NONE', 'WORKASPACE' ) );
#461 = CARTESIAN_POINT ( 'NONE',  ( 0.000000000000000000, 0.000000000000000000, 1.100000000000003642 ) ) ;
#462 = AXIS2_PLACEMENT_3D ( 'NONE', #883, #28, #737 ) ;
#463 = AXIS2_PLACEMENT_3D ( 'NONE', #260, #581, #485 ) ;
#464 = FACE_OUTER_BOUND ( 'NONE', #251, .T. ) ;
#465 = VERTEX_POINT ( 'NONE', #658 ) ;
#466 = DIRECTION ( 'NONE',  ( -0.000000000000000000, 0.000000000000000000, 1.000000000000000000 ) ) ;
#467 = DIRECTION ( 'NONE',  ( 0.000000000000000000, -4.097723285930288839E-32, 1.000000000000000000 ) ) ;
#468 = ORIENTED_EDGE ( 'NONE', *, *, #470, .T. ) ;
#469 = CARTESIAN_POINT ( 'NONE',  ( 1.342841092609237119, -0.2794000000000060324, 1.649999999999998579 ) ) ;
#470 = EDGE_CURVE ( 'NONE', #605, #700, #13, .T. ) ;
#471 = CARTESIAN_POINT ( 'NONE',  ( 1.836970198721030181E-16, -1.500000000000000222, -2.349999999999998312 ) ) ;
#472 = ORIENTED_EDGE ( 'NONE', *, *, #224, .F. ) ;
#473 = DIRECTION ( 'NONE',  ( 0.000000000000000000, 1.000000000000000000, 1.554359398917796077E-16 ) ) ;
#474 =( BOUNDED_CURVE ( )  B_SPLINE_CURVE ( 3, ( #451, #369, #1000, #293 ),
 .UNSPECIFIED., .F., .F. ) 
 B_SPLINE_CURVE_WITH_KNOTS ( ( 4, 4 ),
 ( 4.881819945452527065, 4.917528446445841972 ),
 .UNSPECIFIED. ) 
 CURVE ( )  GEOMETRIC_REPRESENTATION_ITEM ( )  RATIONAL_B_SPLINE_CURVE ( ( 1.000000000000000000, 0.9998937447357327812, 0.9998937447357327812, 1.000000000000000000 ) ) 
 REPRESENTATION_ITEM ( '' )  );
#475 = LINE ( 'NONE', #87, #12 ) ;
#476 = CIRCLE ( 'NONE', #680, 1.104999999999999982 ) ;
#477 = AXIS2_PLACEMENT_3D ( 'NONE', #365, #760, #210 ) ;
#478 = VERTEX_POINT ( 'NONE', #974 ) ;
#479 = APPLICATION_PROTOCOL_DEFINITION ( 'draft international standard', 'automotive_design', 1998, #548 ) ;
#480 = CARTESIAN_POINT ( 'NONE',  ( 0.4808012946005413291, 0.1991544170300771355, 1.100000000000003642 ) ) ;
#481 = DIRECTION ( 'NONE',  ( -0.3812272063696530155, -0.9203638919632245452, 0.08715574274765823526 ) ) ;
#482 = ORIENTED_EDGE ( 'NONE', *, *, #250, .F. ) ;
#483 = EDGE_CURVE ( 'NONE', #605, #312, #360, .T. ) ;
#484 = ORIENTED_EDGE ( 'NONE', *, *, #959, .F. ) ;
#485 = DIRECTION ( 'NONE',  ( 0.000000000000000000, -0.08715574274765851281, 0.9961946980917455452 ) ) ;
#486 = DIRECTION ( 'NONE',  ( -0.000000000000000000, 1.606225440719265381E-16, -1.000000000000000000 ) ) ;
#487 = VERTEX_POINT ( 'NONE', #512 ) ;
#488 = ADVANCED_FACE ( 'NONE', ( #898 ), #428, .T. ) ;
#489 = ORIENTED_EDGE ( 'NONE', *, *, #702, .T. ) ;
#490 = CARTESIAN_POINT ( 'NONE',  ( 0.000000000000000000, 0.000000000000000000, 1.100000000000003642 ) ) ;
#491 = EDGE_CURVE ( 'NONE', #168, #673, #494, .T. ) ;
#492 = DIRECTION ( 'NONE',  ( 0.000000000000000000, -1.000000000000000000, -1.548860246407863583E-16 ) ) ;
#493 = PLANE ( 'NONE',  #888 ) ;
#494 = CIRCLE ( 'NONE', #578, 1.371600000000000374 ) ;
#495 = EDGE_LOOP ( 'NONE', ( #876, #862, #884, #625 ) ) ;
#496 = CARTESIAN_POINT ( 'NONE',  ( -0.4808012946005413291, 0.1991544170300840744, 1.100000000000003642 ) ) ;
#497 = CARTESIAN_POINT ( 'NONE',  ( 1.836970198721029934E-16, 1.500000000000000000, 0.3500000000000033085 ) ) ;
#498 = CARTESIAN_POINT ( 'NONE',  ( -1.346166921035992114, -0.2634155365841127083, 1.467296747124831713 ) ) ;
#499 = ORIENTED_EDGE ( 'NONE', *, *, #679, .T. ) ;
#500 = CARTESIAN_POINT ( 'NONE',  ( -0.8111205463046111674, -0.2793999999999990935, 1.649999999999998579 ) ) ;
#501 = LINE ( 'NONE', #266, #643 ) ;
#502 = EDGE_CURVE ( 'NONE', #312, #50, #348, .T. ) ;
#503 = DIRECTION ( 'NONE',  ( -3.058567644283850721E-16, 1.000000000000000000, -0.000000000000000000 ) ) ;
#504 = ORIENTED_EDGE ( 'NONE', *, *, #1014, .F. ) ;
#505 = CARTESIAN_POINT ( 'NONE',  ( -0.2793999999999852157, -1.342841092609244003, 1.649999999999998579 ) ) ;
#506 = LINE ( 'NONE', #420, #194 ) ;
#507 = ORIENTED_EDGE ( 'NONE', *, *, #237, .T. ) ;
#508 = DIRECTION ( 'NONE',  ( -0.9961946980917455452, -3.046928870990532109E-16, 0.08715574274765836016 ) ) ;
#509 = VECTOR ( 'NONE', #127, 1000.000000000000000 ) ;
#510 = VECTOR ( 'NONE', #943, 1000.000000000000000 ) ;
#511 = ORIENTED_EDGE ( 'NONE', *, *, #447, .F. ) ;
#512 = CARTESIAN_POINT ( 'NONE',  ( 0.8111205463046111674, -0.2794000000000060324, 1.649999999999998579 ) ) ;
#513 = ORIENTED_EDGE ( 'NONE', *, *, #157, .F. ) ;
#514 = FACE_OUTER_BOUND ( 'NONE', #123, .T. ) ;
#515 = EDGE_CURVE ( 'NONE', #203, #208, #326, .T. ) ;
#516 = ORIENTED_EDGE ( 'NONE', *, *, #303, .T. ) ;
#517 = DIRECTION ( 'NONE',  ( 0.08714264840443959603, -0.01733375049386069733, 0.9960450290638855897 ) ) ;
#518 = LINE ( 'NONE', #524, #696 ) ;
#519 = ORIENTED_EDGE ( 'NONE', *, *, #157, .T. ) ;
#520 = CARTESIAN_POINT ( 'NONE',  ( 0.000000000000000000, 0.000000000000000000, 1.649999999999998579 ) ) ;
#521 = ORIENTED_EDGE ( 'NONE', *, *, #523, .T. ) ;
#522 = LINE ( 'NONE', #358, #17 ) ;
#523 = EDGE_CURVE ( 'NONE', #837, #11, #374, .T. ) ;
#524 = CARTESIAN_POINT ( 'NONE',  ( -0.2175686711581859001, 0.5252572366576322427, 1.649999999999998579 ) ) ;
#525 = ORIENTED_EDGE ( 'NONE', *, *, #796, .T. ) ;
#526 = PLANE ( 'NONE',  #983 ) ;
#527 = CIRCLE ( 'NONE', #31, 1.371600000000000374 ) ;
#528 = AXIS2_PLACEMENT_3D ( 'NONE', #929, #836, #60 ) ;
#529 = LINE ( 'NONE', #766, #728 ) ;
#530 = AXIS2_PLACEMENT_3D ( 'NONE', #225, #314, #90 ) ;
#531 = CARTESIAN_POINT ( 'NONE',  ( 0.5252572366576391261, -0.2175686711582067168, 1.649999999999998579 ) ) ;
#532 = DIRECTION ( 'NONE',  ( -1.067834852614832266E-14, -1.000000000000000000, -0.000000000000000000 ) ) ;
#533 = CARTESIAN_POINT ( 'NONE',  ( 0.000000000000000000, 0.000000000000000000, 1.649999999999998579 ) ) ;
#534 = DIRECTION ( 'NONE',  ( 3.058567644283850721E-16, -1.000000000000000000, 0.000000000000000000 ) ) ;
#535 = LINE ( 'NONE', #1006, #256 ) ;
#536 = EDGE_CURVE ( 'NONE', #77, #104, #912, .T. ) ;
#537 = DIRECTION ( 'NONE',  ( -1.000000000000000000, 2.039045096189232828E-16, -0.000000000000000000 ) ) ;
#538 = DIRECTION ( 'NONE',  ( 0.01733375049385993405, -0.08714264840443987359, 0.9960450290638855897 ) ) ;
#539 = ORIENTED_EDGE ( 'NONE', *, *, #190, .F. ) ;
#540 = CARTESIAN_POINT ( 'NONE',  ( 0.000000000000000000, 0.000000000000000000, 0.000000000000000000 ) ) ;
#541 = CONICAL_SURFACE ( 'NONE', #98, 1.104999999999999982, 0.7853981633974482790 ) ;
#542 = CARTESIAN_POINT ( 'NONE',  ( -1.351959892270770958, -0.2312812350607415524, 1.100000000000003642 ) ) ;
#543 = CIRCLE ( 'NONE', #294, 2.799999999999999822 ) ;
#544 =( NAMED_UNIT ( * ) SI_UNIT ( $, .STERADIAN. ) SOLID_ANGLE_UNIT ( ) );
#545 = ORIENTED_EDGE ( 'NONE', *, *, #631, .T. ) ;
#546 = EDGE_CURVE ( 'NONE', #186, #104, #615, .T. ) ;
#547 = DIRECTION ( 'NONE',  ( 0.9961946980917455452, -1.063771418612476408E-14, 0.08715574274765836016 ) ) ;
#548 = APPLICATION_CONTEXT ( 'automotive_design' ) ;
#549 = LINE ( 'NONE', #19, #612 ) ;
#550 = ORIENTED_EDGE ( 'NONE', *, *, #960, .F. ) ;
#551 = CARTESIAN_POINT ( 'NONE',  ( 0.000000000000000000, 0.000000000000000000, 1.100000000000003642 ) ) ;
#552 = EDGE_CURVE ( 'NONE', #593, #26, #65, .T. ) ;
#553 =( LENGTH_UNIT ( ) NAMED_UNIT ( * ) SI_UNIT ( .MILLI., .METRE. ) );
#554 = VERTEX_POINT ( 'NONE', #438 ) ;
#555 = PLANE ( 'NONE',  #375 ) ;
#556 = AXIS2_PLACEMENT_3D ( 'NONE', #299, #140, #620 ) ;
#557 = SURFACE_SIDE_STYLE ('',( #624 ) ) ;
#558 = AXIS2_PLACEMENT_3D ( 'NONE', #813, #894, #118 ) ;
#559 = ORIENTED_EDGE ( 'NONE', *, *, #806, .T. ) ;
#560 = AXIS2_PLACEMENT_3D ( 'NONE', #887, #801, #247 ) ;
#561 = ADVANCED_FACE ( 'NONE', ( #767 ), #34, .T. ) ;
#562 = ORIENTED_EDGE ( 'NONE', *, *, #709, .T. ) ;
#563 = ORIENTED_EDGE ( 'NONE', *, *, #30, .F. ) ;
#564 = CARTESIAN_POINT ( 'NONE',  ( -0.8108768379124775549, 0.2781747951757160275, 1.635995844776708008 ) ) ;
#565 = FILL_AREA_STYLE ('',( #96 ) ) ;
#566 = ORIENTED_EDGE ( 'NONE', *, *, #934, .T. ) ;
#567 = EDGE_CURVE ( 'NONE', #975, #753, #518, .T. ) ;
#568 = ORIENTED_EDGE ( 'NONE', *, *, #286, .T. ) ;
#569 = FACE_OUTER_BOUND ( 'NONE', #37, .T. ) ;
#570 = DIRECTION ( 'NONE',  ( 2.048861642965144420E-32, -2.048861642965151809E-32, 1.000000000000000000 ) ) ;
#571 = EDGE_LOOP ( 'NONE', ( #344, #304, #39, #744 ) ) ;
#572 = EDGE_LOOP ( 'NONE', ( #109, #563, #977, #516 ) ) ;
#573 = FACE_OUTER_BOUND ( 'NONE', #268, .T. ) ;
#574 = DIRECTION ( 'NONE',  ( -0.01733375049386024630, -0.08714264840443980420, 0.9960450290638855897 ) ) ;
#575 = ORIENTED_EDGE ( 'NONE', *, *, #18, .T. ) ;
#576 = AXIS2_PLACEMENT_3D ( 'NONE', #49, #338, #734 ) ;
#577 = CARTESIAN_POINT ( 'NONE',  ( -1.349206843930975008, -0.2473742437992215437, 1.283943931589617504 ) ) ;
#578 = AXIS2_PLACEMENT_3D ( 'NONE', #750, #337, #41 ) ;
#579 = AXIS2_PLACEMENT_3D ( 'NONE', #40, #663, #347 ) ;
#580 = ORIENTED_EDGE ( 'NONE', *, *, #439, .F. ) ;
#581 = DIRECTION ( 'NONE',  ( 2.031285913993687333E-16, 0.9961946980917455452, 0.08715574274765851281 ) ) ;
#582 = ADVANCED_FACE ( 'NONE', ( #932 ), #853, .F. ) ;
#583 = DIRECTION ( 'NONE',  ( 1.000000000000000000, -2.039045096189232828E-16, -8.355442571716584654E-48 ) ) ;
#584 = DIRECTION ( 'NONE',  ( -0.9238795325112870716, 0.3826834323650893377, -0.000000000000000000 ) ) ;
#585 = EDGE_LOOP ( 'NONE', ( #32, #171, #482, #468 ) ) ;
#586 = CARTESIAN_POINT ( 'NONE',  ( -0.4345709708595824061, 0.4345709708596101617, 1.641541761640899377 ) ) ;
#587 = DIRECTION ( 'NONE',  ( 0.000000000000000000, 1.000000000000000000, 0.000000000000000000 ) ) ;
#588 = ORIENTED_EDGE ( 'NONE', *, *, #820, .F. ) ;
#589 = DIRECTION ( 'NONE',  ( 2.048861642965144420E-32, -2.048861642965151809E-32, 1.000000000000000000 ) ) ;
#590 = EDGE_LOOP ( 'NONE', ( #504, #167, #971, #223 ) ) ;
#591 = PLANE ( 'NONE',  #463 ) ;
#592 = CARTESIAN_POINT ( 'NONE',  ( 3.429011037612583852E-16, 2.799999999999995826, 1.649999999999999023 ) ) ;
#593 = VERTEX_POINT ( 'NONE', #991 ) ;
#594 = DIRECTION ( 'NONE',  ( 0.000000000000000000, -1.606225440719265381E-16, 1.000000000000000000 ) ) ;
#595 = ADVANCED_FACE ( 'NONE', ( #923 ), #353, .F. ) ;
#596 = AXIS2_PLACEMENT_3D ( 'NONE', #873, #481, #798 ) ;
#597 = CIRCLE ( 'NONE', #152, 1.371600000000000374 ) ;
#598 =( GEOMETRIC_REPRESENTATION_CONTEXT ( 3 ) GLOBAL_UNCERTAINTY_ASSIGNED_CONTEXT ( ( #782 ) ) GLOBAL_UNIT_ASSIGNED_CONTEXT ( ( #59, #846, #772 ) ) REPRESENTATION_CONTEXT ( 'NONE', 'WORKASPACE' ) );
#599 = ORIENTED_EDGE ( 'NONE', *, *, #915, .T. ) ;
#600 = LINE ( 'NONE', #607, #953 ) ;
#601 = CARTESIAN_POINT ( 'NONE',  ( -0.5252572366576391261, -0.2175686711582067168, 1.649999999999998579 ) ) ;
#602 = ORIENTED_EDGE ( 'NONE', *, *, #423, .T. ) ;
#603 = CARTESIAN_POINT ( 'NONE',  ( -0.2175686711581859001, 0.5252572366576322427, 1.649999999999998579 ) ) ;
#604 = EDGE_CURVE ( 'NONE', #708, #729, #597, .T. ) ;
#605 = VERTEX_POINT ( 'NONE', #692 ) ;
#606 = EDGE_CURVE ( 'NONE', #700, #902, #770, .T. ) ;
#607 = CARTESIAN_POINT ( 'NONE',  ( 0.2175686711581859001, -0.5252572366576322427, 1.649999999999998579 ) ) ;
#608 = CARTESIAN_POINT ( 'NONE',  ( -0.2793999999999852157, 6.938893903907228378E-15, 1.649999999999998579 ) ) ;
#609 = ORIENTED_EDGE ( 'NONE', *, *, #900, .T. ) ;
#610 = CARTESIAN_POINT ( 'NONE',  ( -0.5252572366576391261, 0.2175686711582067168, 1.649999999999998579 ) ) ;
#611 = LINE ( 'NONE', #933, #114 ) ;
#612 = VECTOR ( 'NONE', #726, 1000.000000000000227 ) ;
#613 = AXIS2_PLACEMENT_3D ( 'NONE', #531, #207, #62 ) ;
#614 = CARTESIAN_POINT ( 'NONE',  ( 0.2781747951757229664, -0.8108768379124984271, 1.635995844776708008 ) ) ;
#615 = LINE ( 'NONE', #297, #117 ) ;
#616 = ADVANCED_FACE ( 'NONE', ( #841 ), #1005, .T. ) ;
#617 = CARTESIAN_POINT ( 'NONE',  ( 0.000000000000000000, 0.000000000000000000, 1.100000000000003642 ) ) ;
#618 = DIRECTION ( 'NONE',  ( -0.000000000000000000, -0.000000000000000000, 1.000000000000000000 ) ) ;
#619 = DIRECTION ( 'NONE',  ( -0.000000000000000000, 1.606225440719265381E-16, -1.000000000000000000 ) ) ;
#620 = DIRECTION ( 'NONE',  ( 0.000000000000000000, 1.000000000000000000, 1.606225440719265381E-16 ) ) ;
#621 = ORIENTED_EDGE ( 'NONE', *, *, #536, .T. ) ;
#622 = DIRECTION ( 'NONE',  ( 0.000000000000000000, 0.000000000000000000, 1.000000000000000000 ) ) ;
#623 = CARTESIAN_POINT ( 'NONE',  ( -4.788915804357242928E-15, -1.371600000000000374, 1.100000000000003642 ) ) ;
#624 = SURFACE_STYLE_FILL_AREA ( #565 ) ;
#625 = ORIENTED_EDGE ( 'NONE', *, *, #960, .T. ) ;
#626 = EDGE_CURVE ( 'NONE', #104, #868, #445, .T. ) ;
#627 = VECTOR ( 'NONE', #503, 1000.000000000000000 ) ;
#628 = CARTESIAN_POINT ( 'NONE',  ( -1.346166921035989450, 0.2634155365841259200, 1.467296747124826384 ) ) ;
#629 = CARTESIAN_POINT ( 'NONE',  ( 0.4345709708595824061, -0.4345709708596032228, 1.641541761640899377 ) ) ;
#630 = EDGE_LOOP ( 'NONE', ( #82, #421, #281, #645 ) ) ;
#631 = EDGE_CURVE ( 'NONE', #825, #239, #675, .T. ) ;
#632 = EDGE_CURVE ( 'NONE', #318, #329, #307, .T. ) ;
#633 = CARTESIAN_POINT ( 'NONE',  ( 0.2312812350607207357, -1.351959892270764074, 1.100000000000003642 ) ) ;
#634 = FACE_OUTER_BOUND ( 'NONE', #735, .T. ) ;
#635 = VERTEX_POINT ( 'NONE', #288 ) ;
#636 = CARTESIAN_POINT ( 'NONE',  ( 1.346166921035991448, -0.2634155365841161500, 1.467296747124825274 ) ) ;
#637 = EDGE_CURVE ( 'NONE', #312, #825, #474, .T. ) ;
#638 = DIRECTION ( 'NONE',  ( 0.06666269134683232289, 0.06666269134683221187, 0.9955461672694008168 ) ) ;
#639 = EDGE_LOOP ( 'NONE', ( #1010, #273, #958, #351 ) ) ;
#640 = EDGE_LOOP ( 'NONE', ( #446, #649, #935, #382 ) ) ;
#641 = AXIS2_PLACEMENT_3D ( 'NONE', #189, #508, #774 ) ;
#642 = CARTESIAN_POINT ( 'NONE',  ( 0.000000000000000000, 0.000000000000000000, 1.649999999999998579 ) ) ;
#643 = VECTOR ( 'NONE', #574, 1000.000000000000227 ) ;
#644 = VECTOR ( 'NONE', #978, 1000.000000000000000 ) ;
#645 = ORIENTED_EDGE ( 'NONE', *, *, #637, .T. ) ;
#646 = ORIENTED_EDGE ( 'NONE', *, *, #604, .T. ) ;
#647 = CARTESIAN_POINT ( 'NONE',  ( 1.836970198721030181E-16, -1.500000000000000000, -1.954999999999998739 ) ) ;
#648 = CYLINDRICAL_SURFACE ( 'NONE', #424, 1.371600000000000374 ) ;
#649 = ORIENTED_EDGE ( 'NONE', *, *, #900, .F. ) ;
#650 =( BOUNDED_CURVE ( )  B_SPLINE_CURVE ( 3, ( #720, #797, #636, #469 ),
 .UNSPECIFIED., .F., .F. ) 
 B_SPLINE_CURVE_WITH_KNOTS ( ( 4, 4 ),
 ( 4.881819945452525289, 4.917528446445842860 ),
 .UNSPECIFIED. ) 
 CURVE ( )  GEOMETRIC_REPRESENTATION_ITEM ( )  RATIONAL_B_SPLINE_CURVE ( ( 1.000000000000000000, 0.9998937447357327812, 0.9998937447357327812, 1.000000000000000000 ) ) 
 REPRESENTATION_ITEM ( '' )  );
#651 = ORIENTED_EDGE ( 'NONE', *, *, #778, .F. ) ;
#652 = DIRECTION ( 'NONE',  ( -0.000000000000000000, 1.606225440719265381E-16, -1.000000000000000000 ) ) ;
#653 = DIRECTION ( 'NONE',  ( -1.012989270762634329E-14, -0.9961946980917455452, 0.08715574274765820750 ) ) ;
#654 = PLANE ( 'NONE',  #925 ) ;
#655 = EDGE_CURVE ( 'NONE', #200, #834, #777, .T. ) ;
#656 = ORIENTED_EDGE ( 'NONE', *, *, #364, .F. ) ;
#657 = DIRECTION ( 'NONE',  ( -0.06666269134683169839, 0.06666269134683283637, 0.9955461672694008168 ) ) ;
#658 = CARTESIAN_POINT ( 'NONE',  ( 0.000000000000000000, -2.799999999999996270, 1.649999999999998357 ) ) ;
#659 = VECTOR ( 'NONE', #717, 1000.000000000000227 ) ;
#660 = VECTOR ( 'NONE', #952, 1000.000000000000000 ) ;
#661 = DIRECTION ( 'NONE',  ( -0.3826834323650900593, 0.9238795325112867385, 0.000000000000000000 ) ) ;
#662 = ORIENTED_EDGE ( 'NONE', *, *, #922, .F. ) ;
#663 = DIRECTION ( 'NONE',  ( 2.048861642965144420E-32, -2.048861642965151809E-32, 1.000000000000000000 ) ) ;
#664 = CARTESIAN_POINT ( 'NONE',  ( -0.2634155365840974983, 1.346166921035995001, 1.467296747124816392 ) ) ;
#665 = ORIENTED_EDGE ( 'NONE', *, *, #423, .F. ) ;
#666 = FACE_OUTER_BOUND ( 'NONE', #232, .T. ) ;
#667 = ORIENTED_EDGE ( 'NONE', *, *, #411, .F. ) ;
#668 = LINE ( 'NONE', #265, #644 ) ;
#669 = FACE_OUTER_BOUND ( 'NONE', #590, .T. ) ;
#670 = EDGE_CURVE ( 'NONE', #203, #77, #258, .T. ) ;
#671 = ORIENTED_EDGE ( 'NONE', *, *, #327, .T. ) ;
#672 = DIRECTION ( 'NONE',  ( 0.9238795325112906243, 0.3826834323650803449, 0.000000000000000000 ) ) ;
#673 = VERTEX_POINT ( 'NONE', #542 ) ;
#674 = CARTESIAN_POINT ( 'NONE',  ( 0.000000000000000000, 0.000000000000000000, 1.100000000000003642 ) ) ;
#675 = LINE ( 'NONE', #849, #890 ) ;
#676 = ORIENTED_EDGE ( 'NONE', *, *, #552, .F. ) ;
#677 = EDGE_CURVE ( 'NONE', #205, #200, #389, .T. ) ;
#678 = FACE_OUTER_BOUND ( 'NONE', #572, .T. ) ;
#679 = EDGE_CURVE ( 'NONE', #42, #168, #826, .T. ) ;
#680 = AXIS2_PLACEMENT_3D ( 'NONE', #253, #742, #587 ) ;
#681 = VECTOR ( 'NONE', #840, 1000.000000000000114 ) ;
#682 = EDGE_LOOP ( 'NONE', ( #804, #88, #192, #249 ) ) ;
#683 = CARTESIAN_POINT ( 'NONE',  ( 0.000000000000000000, 0.2793999999999990935, 1.649999999999998579 ) ) ;
#684 = DIRECTION ( 'NONE',  ( 0.9238795325112906243, 0.3826834323650803449, 2.676966742854003860E-32 ) ) ;
#685 = ORIENTED_EDGE ( 'NONE', *, *, #679, .F. ) ;
#686 = CARTESIAN_POINT ( 'NONE',  ( 0.3983088340601681487, 0.3983088340601612098, 1.100000000000003642 ) ) ;
#687 = FACE_OUTER_BOUND ( 'NONE', #630, .T. ) ;
#688 = CARTESIAN_POINT ( 'NONE',  ( 0.8108768379124775549, 0.2781747951757021498, 1.635995844776708008 ) ) ;
#689 = DIRECTION ( 'NONE',  ( 2.048861642965144420E-32, -2.048861642965151809E-32, 1.000000000000000000 ) ) ;
#690 = ADVANCED_FACE ( 'NONE', ( #383 ), #555, .T. ) ;
#691 = DIRECTION ( 'NONE',  ( 0.000000000000000000, 1.000000000000000000, 2.891205793294678326E-16 ) ) ;
#692 = CARTESIAN_POINT ( 'NONE',  ( -0.2312812350607207357, 1.351959892270764074, 1.100000000000003642 ) ) ;
#693 =( BOUNDED_CURVE ( )  B_SPLINE_CURVE ( 3, ( #330, #16, #962, #23 ),
 .UNSPECIFIED., .F., .F. ) 
 B_SPLINE_CURVE_WITH_KNOTS ( ( 4, 4 ),
 ( 4.881819945452527065, 4.917528446445843748 ),
 .UNSPECIFIED. ) 
 CURVE ( )  GEOMETRIC_REPRESENTATION_ITEM ( )  RATIONAL_B_SPLINE_CURVE ( ( 1.000000000000000000, 0.9998937447357327812, 0.9998937447357327812, 1.000000000000000000 ) ) 
 REPRESENTATION_ITEM ( '' )  );
#694 = CARTESIAN_POINT ( 'NONE',  ( -1.371600000000000374, -1.126873903630819085E-32, 1.100000000000003642 ) ) ;
#695 = AXIS2_PLACEMENT_3D ( 'NONE', #222, #838, #924 ) ;
#696 = VECTOR ( 'NONE', #684, 1000.000000000000000 ) ;
#697 = FACE_OUTER_BOUND ( 'NONE', #259, .T. ) ;
#698 = AXIS2_PLACEMENT_3D ( 'NONE', #683, #443, #999 ) ;
#699 = CARTESIAN_POINT ( 'NONE',  ( -0.2175686711581859001, -0.5252572366576322427, 1.649999999999998579 ) ) ;
#700 = VERTEX_POINT ( 'NONE', #779 ) ;
#701 = PLANE ( 'NONE',  #14 ) ;
#702 = EDGE_CURVE ( 'NONE', #42, #205, #435, .T. ) ;
#703 = CARTESIAN_POINT ( 'NONE',  ( 0.8108768379124775549, -0.2781747951757090886, 1.635995844776708008 ) ) ;
#704 = EDGE_LOOP ( 'NONE', ( #228, #966, #559, #406 ) ) ;
#705 = FACE_BOUND ( 'NONE', #349, .T. ) ;
#706 = LINE ( 'NONE', #471, #67 ) ;
#707 = EDGE_CURVE ( 'NONE', #775, #837, #861, .T. ) ;
#708 = VERTEX_POINT ( 'NONE', #623 ) ;
#709 = EDGE_CURVE ( 'NONE', #50, #186, #233, .T. ) ;
#710 = VECTOR ( 'NONE', #151, 1000.000000000000000 ) ;
#711 = LINE ( 'NONE', #319, #660 ) ;
#712 = VECTOR ( 'NONE', #361, 1000.000000000000000 ) ;
#713 = VECTOR ( 'NONE', #271, 1000.000000000000000 ) ;
#714 = CARTESIAN_POINT ( 'NONE',  ( -0.3983088340601681487, 0.3983088340601612098, 1.100000000000003642 ) ) ;
#715 = VERTEX_POINT ( 'NONE', #169 ) ;
#716 = CARTESIAN_POINT ( 'NONE',  ( -0.2793999999999852157, 6.938893903907228378E-15, 1.649999999999998579 ) ) ;
#717 = DIRECTION ( 'NONE',  ( -0.06666269134683229514, -0.06666269134683253106, 0.9955461672694008168 ) ) ;
#718 = ORIENTED_EDGE ( 'NONE', *, *, #812, .T. ) ;
#719 = ADVANCED_FACE ( 'NONE', ( #1 ), #863, .T. ) ;
#720 = CARTESIAN_POINT ( 'NONE',  ( 1.351959892270770958, -0.2312812350607484913, 1.100000000000003642 ) ) ;
#721 = DIRECTION ( 'NONE',  ( -0.000000000000000000, 1.606225440719265381E-16, -1.000000000000000000 ) ) ;
#722 = ORIENTED_EDGE ( 'NONE', *, *, #145, .T. ) ;
#723 = ORIENTED_EDGE ( 'NONE', *, *, #267, .T. ) ;
#724 = CARTESIAN_POINT ( 'NONE',  ( -0.2634155365841113761, -1.346166921035992337, 1.467296747124823275 ) ) ;
#725 = PRESENTATION_LAYER_ASSIGNMENT (  '', '', ( #175 ) ) ;
#726 = DIRECTION ( 'NONE',  ( -0.08714264840443947113, 0.01733375049386101999, 0.9960450290638855897 ) ) ;
#727 = AXIS2_PLACEMENT_3D ( 'NONE', #331, #653, #262 ) ;
#728 = VECTOR ( 'NONE', #368, 1000.000000000000000 ) ;
#729 = VERTEX_POINT ( 'NONE', #633 ) ;
#730 = ORIENTED_EDGE ( 'NONE', *, *, #709, .F. ) ;
#731 = FACE_OUTER_BOUND ( 'NONE', #740, .T. ) ;
#732 = CARTESIAN_POINT ( 'NONE',  ( 0.2175686711581859001, -0.5252572366576322427, 1.649999999999998579 ) ) ;
#733 = EDGE_CURVE ( 'NONE', #593, #821, #650, .T. ) ;
#734 = DIRECTION ( 'NONE',  ( 0.000000000000000000, 1.000000000000000000, 2.891205793294677833E-16 ) ) ;
#735 = EDGE_LOOP ( 'NONE', ( #992, #308, #7, #300 ) ) ;
#736 = DIRECTION ( 'NONE',  ( -1.000000000000000000, 0.000000000000000000, 0.000000000000000000 ) ) ;
#737 = DIRECTION ( 'NONE',  ( 1.000000000000000000, 2.664535259100375303E-15, 0.000000000000000000 ) ) ;
#738 = DIRECTION ( 'NONE',  ( 0.9203638919632243232, 0.3812272063696537927, 0.08715574274765840179 ) ) ;
#739 = ADVANCED_FACE ( 'NONE', ( #74, #705 ), #701, .F. ) ;
#740 = EDGE_LOOP ( 'NONE', ( #937, #94, #723, #436 ) ) ;
#741 = DIRECTION ( 'NONE',  ( -0.9238795325112879597, -0.3826834323650868397, 0.000000000000000000 ) ) ;
#742 = DIRECTION ( 'NONE',  ( -0.000000000000000000, 1.606225440719265381E-16, -1.000000000000000000 ) ) ;
#743 = VECTOR ( 'NONE', #746, 999.9999999999998863 ) ;
#744 = ORIENTED_EDGE ( 'NONE', *, *, #47, .F. ) ;
#745 = VECTOR ( 'NONE', #248, 1000.000000000000000 ) ;
#746 = DIRECTION ( 'NONE',  ( 8.659560562354932858E-17, 0.7071067811865473507, 0.7071067811865477948 ) ) ;
#747 = ADVANCED_FACE ( 'NONE', ( #310 ), #405, .T. ) ;
#748 = ORIENTED_EDGE ( 'NONE', *, *, #250, .T. ) ;
#749 = DIRECTION ( 'NONE',  ( -0.9238795325112870716, 0.3826834323650893377, 0.000000000000000000 ) ) ;
#750 = CARTESIAN_POINT ( 'NONE',  ( 0.000000000000000000, 0.000000000000000000, 1.100000000000003642 ) ) ;
#751 = ORIENTED_EDGE ( 'NONE', *, *, #20, .T. ) ;
#752 = LINE ( 'NONE', #758, #442 ) ;
#753 = VERTEX_POINT ( 'NONE', #236 ) ;
#754 = DIRECTION ( 'NONE',  ( -0.3826834323650925573, -0.9238795325112855172, -1.108835930911864421E-32 ) ) ;
#755 = EDGE_CURVE ( 'NONE', #896, #868, #1011, .T. ) ;
#756 = CARTESIAN_POINT ( 'NONE',  ( 0.4351373423164273113, -0.4351373423164064946, 1.649999999999998579 ) ) ;
#757 = ORIENTED_EDGE ( 'NONE', *, *, #786, .F. ) ;
#758 = CARTESIAN_POINT ( 'NONE',  ( -4.788915804357242928E-15, -1.371600000000000374, 1.100000000000003642 ) ) ;
#759 = ORIENTED_EDGE ( 'NONE', *, *, #973, .F. ) ;
#760 = DIRECTION ( 'NONE',  ( -0.000000000000000000, 0.000000000000000000, 1.000000000000000000 ) ) ;
#761 = CARTESIAN_POINT ( 'NONE',  ( 0.000000000000000000, 0.000000000000000000, 0.3500000000000030864 ) ) ;
#762 = ORIENTED_EDGE ( 'NONE', *, *, #786, .T. ) ;
#763 = CARTESIAN_POINT ( 'NONE',  ( -1.342841092609237119, 0.2794000000000129713, 1.649999999999998579 ) ) ;
#764 = VECTOR ( 'NONE', #847, 1000.000000000000227 ) ;
#765 = AXIS2_PLACEMENT_3D ( 'NONE', #490, #414, #736 ) ;
#766 = CARTESIAN_POINT ( 'NONE',  ( 0.000000000000000000, 0.2793999999999990935, 1.649999999999998579 ) ) ;
#767 = FACE_OUTER_BOUND ( 'NONE', #126, .T. ) ;
#768 = FACE_OUTER_BOUND ( 'NONE', #781, .T. ) ;
#769 = EDGE_CURVE ( 'NONE', #50, #239, #8, .T. ) ;
#770 = LINE ( 'NONE', #608, #176 ) ;
#771 = DIRECTION ( 'NONE',  ( 0.9203638919632205484, -0.3812272063696627300, 0.08715574274765830465 ) ) ;
#772 =( NAMED_UNIT ( * ) SI_UNIT ( $, .STERADIAN. ) SOLID_ANGLE_UNIT ( ) );
#773 = DIRECTION ( 'NONE',  ( 0.000000000000000000, -1.000000000000000000, -1.445602896647339163E-16 ) ) ;
#774 = DIRECTION ( 'NONE',  ( 0.08715574274765836016, 0.000000000000000000, 0.9961946980917455452 ) ) ;
#775 = VERTEX_POINT ( 'NONE', #385 ) ;
#776 = CIRCLE ( 'NONE', #791, 1.371600000000000374 ) ;
#777 = CIRCLE ( 'NONE', #240, 1.371600000000000374 ) ;
#778 = EDGE_CURVE ( 'NONE', #21, #715, #711, .T. ) ;
#779 = CARTESIAN_POINT ( 'NONE',  ( -0.2793999999999852157, 1.342841092609250886, 1.649999999999998579 ) ) ;
#780 = DIRECTION ( 'NONE',  ( 0.3826834323650989966, 0.9238795325112829637, 2.676966742854014807E-32 ) ) ;
#781 = EDGE_LOOP ( 'NONE', ( #472, #787, #762, #568 ) ) ;
#782 = UNCERTAINTY_MEASURE_WITH_UNIT (LENGTH_MEASURE( 1.000000000000000082E-05 ), #59, 'distance_accuracy_value', 'NONE');
#783 = DIRECTION ( 'NONE',  ( -1.000000000000000000, 0.000000000000000000, 0.000000000000000000 ) ) ;
#784 = EDGE_CURVE ( 'NONE', #325, #975, #242, .T. ) ;
#785 = DIRECTION ( 'NONE',  ( 0.3826834323650900593, -0.9238795325112867385, 0.000000000000000000 ) ) ;
#786 = EDGE_CURVE ( 'NONE', #354, #404, #105, .T. ) ;
#787 = ORIENTED_EDGE ( 'NONE', *, *, #842, .F. ) ;
#788 = DIRECTION ( 'NONE',  ( 1.000000000000000000, 0.000000000000000000, 0.000000000000000000 ) ) ;
#789 = DIRECTION ( 'NONE',  ( 0.08714264840443967930, 0.01733375049386007977, 0.9960450290638855897 ) ) ;
#790 = ORIENTED_EDGE ( 'NONE', *, *, #994, .F. ) ;
#791 = AXIS2_PLACEMENT_3D ( 'NONE', #377, #689, #302 ) ;
#792 = VECTOR ( 'NONE', #822, 1000.000000000000000 ) ;
#793 = CARTESIAN_POINT ( 'NONE',  ( -1.351959892270770958, 0.2312812350607554301, 1.100000000000003642 ) ) ;
#794 = LINE ( 'NONE', #76, #373 ) ;
#795 = VERTEX_POINT ( 'NONE', #336 ) ;
#796 = EDGE_CURVE ( 'NONE', #77, #875, #693, .T. ) ;
#797 = CARTESIAN_POINT ( 'NONE',  ( 1.349206843930974564, -0.2473742437992249021, 1.283943931589610621 ) ) ;
#798 = DIRECTION ( 'NONE',  ( 0.9238795325112870716, -0.3826834323650893377, 0.000000000000000000 ) ) ;
#799 = ORIENTED_EDGE ( 'NONE', *, *, #459, .F. ) ;
#800 = ORIENTED_EDGE ( 'NONE', *, *, #133, .F. ) ;
#801 = DIRECTION ( 'NONE',  ( 2.048861642965144420E-32, -2.048861642965151809E-32, 1.000000000000000000 ) ) ;
#802 = DIRECTION ( 'NONE',  ( 0.9238795325112906243, 0.3826834323650803449, 0.000000000000000000 ) ) ;
#803 = ORIENTED_EDGE ( 'NONE', *, *, #237, .F. ) ;
#804 = ORIENTED_EDGE ( 'NONE', *, *, #707, .F. ) ;
#805 = CARTESIAN_POINT ( 'NONE',  ( -1.342841092609237119, -0.2793999999999990935, 1.649999999999998579 ) ) ;
#806 = EDGE_CURVE ( 'NONE', #316, #775, #320, .T. ) ;
#807 = CIRCLE ( 'NONE', #1002, 2.799999999999999822 ) ;
#808 = DIRECTION ( 'NONE',  ( 3.058567644283850721E-16, -1.000000000000000000, 0.000000000000000000 ) ) ;
#809 = CIRCLE ( 'NONE', #227, 1.371600000000000374 ) ;
#810 = CARTESIAN_POINT ( 'NONE',  ( 0.2312812350607207357, 0.8015491288551681581, 1.100000000000003642 ) ) ;
#811 = ORIENTED_EDGE ( 'NONE', *, *, #942, .T. ) ;
#812 = EDGE_CURVE ( 'NONE', #316, #708, #858, .T. ) ;
#813 = CARTESIAN_POINT ( 'NONE',  ( 0.000000000000000000, 0.000000000000000000, -2.349999999999997868 ) ) ;
#814 = ADVANCED_FACE ( 'NONE', ( #569 ), #172, .F. ) ;
#815 = CARTESIAN_POINT ( 'NONE',  ( -1.351959892270770958, 0.2312812350607554301, 1.100000000000003642 ) ) ;
#816 = VERTEX_POINT ( 'NONE', #647 ) ;
#817 = CARTESIAN_POINT ( 'NONE',  ( 0.000000000000000000, 0.000000000000000000, -2.349999999999997868 ) ) ;
#818 = PLANE ( 'NONE',  #727 ) ;
#819 = DIRECTION ( 'NONE',  ( -0.9961946980917455452, 3.681323789641168217E-15, 0.08715574274765836016 ) ) ;
#820 = EDGE_CURVE ( 'NONE', #913, #816, #972, .T. ) ;
#821 = VERTEX_POINT ( 'NONE', #178 ) ;
#822 = DIRECTION ( 'NONE',  ( 0.3826834323650989966, 0.9238795325112829637, 0.000000000000000000 ) ) ;
#823 = DIRECTION ( 'NONE',  ( -0.9238795325112879597, -0.3826834323650868397, 0.000000000000000000 ) ) ;
#824 = VECTOR ( 'NONE', #802, 1000.000000000000000 ) ;
#825 = VERTEX_POINT ( 'NONE', #957 ) ;
#826 = CIRCLE ( 'NONE', #1016, 1.371600000000000374 ) ;
#827 = DIRECTION ( 'NONE',  ( 0.000000000000000000, 1.000000000000000000, 1.445602896647338917E-16 ) ) ;
#828 = AXIS2_PLACEMENT_3D ( 'NONE', #1004, #990, #691 ) ;
#829 = EDGE_LOOP ( 'NONE', ( #433, #800, #357, #54 ) ) ;
#830 = LINE ( 'NONE', #51, #119 ) ;
#831 = CARTESIAN_POINT ( 'NONE',  ( 0.2312812350607207357, 0.000000000000000000, 1.100000000000003642 ) ) ;
#832 = ORIENTED_EDGE ( 'NONE', *, *, #334, .T. ) ;
#833 = CARTESIAN_POINT ( 'NONE',  ( -0.1991544170300563188, -0.4808012946005274513, 1.100000000000003642 ) ) ;
#834 = VERTEX_POINT ( 'NONE', #805 ) ;
#835 = LINE ( 'NONE', #296, #376 ) ;
#836 = DIRECTION ( 'NONE',  ( -0.000000000000000000, -0.000000000000000000, 1.000000000000000000 ) ) ;
#837 = VERTEX_POINT ( 'NONE', #882 ) ;
#838 = DIRECTION ( 'NONE',  ( 3.173502311142745459E-15, 0.9961946980917455452, 0.08715574274765851281 ) ) ;
#839 = ORIENTED_EDGE ( 'NONE', *, *, #769, .F. ) ;
#840 = DIRECTION ( 'NONE',  ( -0.3826834323650925573, -0.9238795325112855172, 0.000000000000000000 ) ) ;
#841 = FACE_OUTER_BOUND ( 'NONE', #874, .T. ) ;
#842 = EDGE_CURVE ( 'NONE', #354, #753, #101, .T. ) ;
#843 = ORIENTED_EDGE ( 'NONE', *, *, #327, .F. ) ;
#844 = DIRECTION ( 'NONE',  ( -1.000000000000000000, 0.000000000000000000, 0.000000000000000000 ) ) ;
#845 = AXIS2_PLACEMENT_3D ( 'NONE', #897, #183, #749 ) ;
#846 =( NAMED_UNIT ( * ) PLANE_ANGLE_UNIT ( ) SI_UNIT ( $, .RADIAN. ) );
#847 = DIRECTION ( 'NONE',  ( 0.01733375049386025324, 0.08714264840443951277, 0.9960450290638855897 ) ) ;
#848 = PLANE ( 'NONE',  #53 ) ;
#849 = CARTESIAN_POINT ( 'NONE',  ( 0.2793999999999852157, 0.000000000000000000, 1.649999999999998579 ) ) ;
#850 = LINE ( 'NONE', #148, #949 ) ;
#851 = EDGE_CURVE ( 'NONE', #26, #635, #110, .T. ) ;
#852 = SHAPE_DEFINITION_REPRESENTATION ( #453, #185 ) ;
#853 = CYLINDRICAL_SURFACE ( 'NONE', #528, 1.371600000000000374 ) ;
#854 = DIRECTION ( 'NONE',  ( 0.000000000000000000, -1.000000000000000000, -1.548860246407863583E-16 ) ) ;
#855 = EDGE_LOOP ( 'NONE', ( #910, #410 ) ) ;
#856 = AXIS2_PLACEMENT_3D ( 'NONE', #417, #738, #661 ) ;
#857 = ADVANCED_FACE ( 'NONE', ( #731 ), #419, .T. ) ;
#858 = CIRCLE ( 'NONE', #560, 1.371600000000000374 ) ;
#859 = AXIS2_PLACEMENT_3D ( 'NONE', #540, #622, #788 ) ;
#860 = ADVANCED_FACE ( 'NONE', ( #967 ), #252, .T. ) ;
#861 = LINE ( 'NONE', #379, #510 ) ;
#862 = ORIENTED_EDGE ( 'NONE', *, *, #942, .F. ) ;
#863 = PLANE ( 'NONE',  #530 ) ;
#864 = CARTESIAN_POINT ( 'NONE',  ( -0.2312812350607207357, -1.351959892270764074, 1.100000000000003642 ) ) ;
#865 = ORIENTED_EDGE ( 'NONE', *, *, #515, .T. ) ;
#866 = DIRECTION ( 'NONE',  ( 1.000000000000000000, 0.000000000000000000, 0.000000000000000000 ) ) ;
#867 = ADVANCED_FACE ( 'NONE', ( #573 ), #591, .T. ) ;
#868 = VERTEX_POINT ( 'NONE', #893 ) ;
#869 = APPLICATION_PROTOCOL_DEFINITION ( 'draft international standard', 'automotive_design', 1998, #921 ) ;
#870 = AXIS2_PLACEMENT_3D ( 'NONE', #269, #350, #255 ) ;
#871 = VECTOR ( 'NONE', #221, 999.9999999999998863 ) ;
#872 = DIRECTION ( 'NONE',  ( -0.000000000000000000, -1.554359398917796077E-16, 1.000000000000000000 ) ) ;
#873 = CARTESIAN_POINT ( 'NONE',  ( 0.2175686711581859001, 0.5252572366576322427, 1.649999999999998579 ) ) ;
#874 = EDGE_LOOP ( 'NONE', ( #759, #73, #892, #811 ) ) ;
#875 = VERTEX_POINT ( 'NONE', #187 ) ;
#876 = ORIENTED_EDGE ( 'NONE', *, *, #778, .T. ) ;
#877 = DIRECTION ( 'NONE',  ( -0.01733375049385931302, 0.08714264840443969318, 0.9960450290638855897 ) ) ;
#878 = LINE ( 'NONE', #2, #339 ) ;
#879 = VERTEX_POINT ( 'NONE', #500 ) ;
#880 = ADVANCED_FACE ( 'NONE', ( #33 ), #342, .F. ) ;
#881 = VERTEX_POINT ( 'NONE', #95 ) ;
#882 = CARTESIAN_POINT ( 'NONE',  ( -0.2793999999999852157, -0.8111205463046250452, 1.649999999999998579 ) ) ;
#883 = CARTESIAN_POINT ( 'NONE',  ( 0.000000000000000000, 0.000000000000000000, 1.100000000000003642 ) ) ;
#884 = ORIENTED_EDGE ( 'NONE', *, *, #915, .F. ) ;
#885 = EDGE_CURVE ( 'NONE', #875, #868, #668, .T. ) ;
#886 = ORIENTED_EDGE ( 'NONE', *, *, #454, .F. ) ;
#887 = CARTESIAN_POINT ( 'NONE',  ( 0.000000000000000000, 0.000000000000000000, 1.100000000000003642 ) ) ;
#888 = AXIS2_PLACEMENT_3D ( 'NONE', #103, #819, #412 ) ;
#889 = LINE ( 'NONE', #979, #950 ) ;
#890 = VECTOR ( 'NONE', #534, 1000.000000000000000 ) ;
#891 = CARTESIAN_POINT ( 'NONE',  ( 0.8015491288551612747, 0.2312812350607415524, 1.100000000000003642 ) ) ;
#892 = ORIENTED_EDGE ( 'NONE', *, *, #994, .T. ) ;
#893 = CARTESIAN_POINT ( 'NONE',  ( 0.8111205463046111674, 0.2793999999999990935, 1.649999999999998579 ) ) ;
#894 = DIRECTION ( 'NONE',  ( 0.000000000000000000, -1.606225440719265381E-16, 1.000000000000000000 ) ) ;
#895 = CARTESIAN_POINT ( 'NONE',  ( 0.2793999999999852157, -1.342841092609250886, 1.649999999999998579 ) ) ;
#896 = VERTEX_POINT ( 'NONE', #903 ) ;
#897 = CARTESIAN_POINT ( 'NONE',  ( -0.2175686711581859001, -0.5252572366576322427, 1.649999999999998579 ) ) ;
#898 = FACE_OUTER_BOUND ( 'NONE', #829, .T. ) ;
#899 = VERTEX_POINT ( 'NONE', #371 ) ;
#900 = EDGE_CURVE ( 'NONE', #593, #203, #141, .T. ) ;
#901 = CARTESIAN_POINT ( 'NONE',  ( 0.000000000000000000, 0.000000000000000000, 0.3500000000000030864 ) ) ;
#902 = VERTEX_POINT ( 'NONE', #124 ) ;
#903 = CARTESIAN_POINT ( 'NONE',  ( 0.4351373423164273113, 0.4351373423164064946, 1.649999999999998579 ) ) ;
#904 = CARTESIAN_POINT ( 'NONE',  ( 0.000000000000000000, 0.000000000000000000, 1.649999999999998579 ) ) ;
#905 = COLOUR_RGB ( '',0.7529411764705882248, 0.7529411764705882248, 0.7529411764705882248 ) ;
#906 = ORIENTED_EDGE ( 'NONE', *, *, #502, .T. ) ;
#907 = VECTOR ( 'NONE', #156, 1000.000000000000227 ) ;
#908 = LINE ( 'NONE', #198, #743 ) ;
#909 = AXIS2_PLACEMENT_3D ( 'NONE', #533, #146, #142 ) ;
#910 = ORIENTED_EDGE ( 'NONE', *, *, #30, .T. ) ;
#911 = DIRECTION ( 'NONE',  ( -0.9238795325112879597, -0.3826834323650867842, 1.108835930911872085E-32 ) ) ;
#912 = LINE ( 'NONE', #202, #1003 ) ;
#913 = VERTEX_POINT ( 'NONE', #291 ) ;
#914 = LINE ( 'NONE', #998, #965 ) ;
#915 = EDGE_CURVE ( 'NONE', #729, #554, #830, .T. ) ;
#916 = ORIENTED_EDGE ( 'NONE', *, *, #47, .T. ) ;
#917 = DIRECTION ( 'NONE',  ( 1.000000000000000000, 0.000000000000000000, 0.000000000000000000 ) ) ;
#918 = DIRECTION ( 'NONE',  ( 0.9238795325112870716, -0.3826834323650893377, 0.000000000000000000 ) ) ;
#919 = ORIENTED_EDGE ( 'NONE', *, *, #20, .F. ) ;
#920 = CARTESIAN_POINT ( 'NONE',  ( 1.371600000000000374, 0.000000000000000000, 1.100000000000003642 ) ) ;
#921 = APPLICATION_CONTEXT ( 'automotive_design' ) ;
#922 = EDGE_CURVE ( 'NONE', #821, #208, #196, .T. ) ;
#923 = FACE_OUTER_BOUND ( 'NONE', #92, .T. ) ;
#924 = DIRECTION ( 'NONE',  ( 0.000000000000000000, -0.08715574274765851281, 0.9961946980917455452 ) ) ;
#925 = AXIS2_PLACEMENT_3D ( 'NONE', #603, #113, #672 ) ;
#926 = PRODUCT ( 'SCREW_M3X4_FLAT_92010A112', 'SCREW_M3X4_FLAT_92010A112', '', ( #164 ) ) ;
#927 = CONICAL_SURFACE ( 'NONE', #558, 1.104999999999999982, 0.7853981633974482790 ) ;
#928 = CARTESIAN_POINT ( 'NONE',  ( 0.2634155365841068797, -1.346166921035993447, 1.467296747124816392 ) ) ;
#929 = CARTESIAN_POINT ( 'NONE',  ( 0.000000000000000000, 0.000000000000000000, 1.100000000000003642 ) ) ;
#930 = ADVANCED_FACE ( 'NONE', ( #697 ), #45, .T. ) ;
#931 = CARTESIAN_POINT ( 'NONE',  ( 0.2793999999999852157, 0.8111205463046250452, 1.649999999999998579 ) ) ;
#932 = FACE_OUTER_BOUND ( 'NONE', #640, .T. ) ;
#933 = CARTESIAN_POINT ( 'NONE',  ( -0.2781747951757229664, -0.8108768379124984271, 1.635995844776708008 ) ) ;
#934 = EDGE_CURVE ( 'NONE', #673, #795, #522, .T. ) ;
#935 = ORIENTED_EDGE ( 'NONE', *, *, #733, .T. ) ;
#936 = DIRECTION ( 'NONE',  ( 0.000000000000000000, -4.097723285930288839E-32, 1.000000000000000000 ) ) ;
#937 = ORIENTED_EDGE ( 'NONE', *, *, #334, .F. ) ;
#938 = AXIS2_PLACEMENT_3D ( 'NONE', #732, #432, #823 ) ;
#939 = DIRECTION ( 'NONE',  ( 0.9238795325112869605, -0.3826834323650893377, 0.000000000000000000 ) ) ;
#940 = CARTESIAN_POINT ( 'NONE',  ( 0.000000000000000000, -1.500000000000000444, 0.3500000000000028644 ) ) ;
#941 = ORIENTED_EDGE ( 'NONE', *, *, #631, .F. ) ;
#942 = EDGE_CURVE ( 'NONE', #554, #715, #437, .T. ) ;
#943 = DIRECTION ( 'NONE',  ( -3.058567644283850721E-16, 1.000000000000000000, 4.097723285930288839E-32 ) ) ;
#944 = EDGE_LOOP ( 'NONE', ( #667, #413, #399, #588 ) ) ;
#945 = DIRECTION ( 'NONE',  ( 0.000000000000000000, -1.000000000000000000, -1.445602896647339163E-16 ) ) ;
#946 = CARTESIAN_POINT ( 'NONE',  ( -0.1991544170300563188, 0.4808012946005274513, 1.100000000000003642 ) ) ;
#947 = PRODUCT_RELATED_PRODUCT_CATEGORY ( 'part', '', ( #926 ) ) ;
#948 = ORIENTED_EDGE ( 'NONE', *, *, #769, .T. ) ;
#949 = VECTOR ( 'NONE', #311, 1000.000000000000000 ) ;
#950 = VECTOR ( 'NONE', #583, 1000.000000000000000 ) ;
#951 = ORIENTED_EDGE ( 'NONE', *, *, #655, .F. ) ;
#952 = DIRECTION ( 'NONE',  ( 3.695385848462056737E-15, 1.000000000000000000, 2.048861642965143872E-32 ) ) ;
#953 = VECTOR ( 'NONE', #911, 1000.000000000000000 ) ;
#954 = ADVANCED_FACE ( 'NONE', ( #687 ), #996, .F. ) ;
#955 = ORIENTED_EDGE ( 'NONE', *, *, #885, .F. ) ;
#956 = ORIENTED_EDGE ( 'NONE', *, *, #885, .T. ) ;
#957 = CARTESIAN_POINT ( 'NONE',  ( 0.2793999999999852157, 1.342841092609244003, 1.649999999999998579 ) ) ;
#958 = ORIENTED_EDGE ( 'NONE', *, *, #552, .T. ) ;
#959 = EDGE_CURVE ( 'NONE', #1007, #816, #309, .T. ) ;
#960 = EDGE_CURVE ( 'NONE', #729, #21, #290, .T. ) ;
#961 = ORIENTED_EDGE ( 'NONE', *, *, #491, .T. ) ;
#962 = CARTESIAN_POINT ( 'NONE',  ( 1.346166921035991892, 0.2634155365841130969, 1.467296747124833045 ) ) ;
#963 = DIRECTION ( 'NONE',  ( 2.048861642965144420E-32, -2.048861642965151809E-32, 1.000000000000000000 ) ) ;
#964 = CARTESIAN_POINT ( 'NONE',  ( 0.000000000000000000, -0.2793999999999990935, 1.649999999999998579 ) ) ;
#965 = VECTOR ( 'NONE', #532, 1000.000000000000000 ) ;
#966 = ORIENTED_EDGE ( 'NONE', *, *, #812, .F. ) ;
#967 = FACE_OUTER_BOUND ( 'NONE', #155, .T. ) ;
#968 = DIRECTION ( 'NONE',  ( -3.491481338843133355E-15, -1.000000000000000000, 0.000000000000000000 ) ) ;
#969 = AXIS2_PLACEMENT_3D ( 'NONE', #551, #466, #866 ) ;
#970 = CARTESIAN_POINT ( 'NONE',  ( 0.000000000000000000, 0.000000000000000000, -2.349999999999997868 ) ) ;
#971 = ORIENTED_EDGE ( 'NONE', *, *, #995, .T. ) ;
#972 = LINE ( 'NONE', #27, #713 ) ;
#973 = EDGE_CURVE ( 'NONE', #429, #715, #835, .T. ) ;
#974 = CARTESIAN_POINT ( 'NONE',  ( -4.788915804357242928E-15, -1.371600000000000374, 1.649999999999998579 ) ) ;
#975 = VERTEX_POINT ( 'NONE', #277 ) ;
#976 = CARTESIAN_POINT ( 'NONE',  ( 0.000000000000000000, -1.500000000000000000, 0.3500000000000028644 ) ) ;
#977 = ORIENTED_EDGE ( 'NONE', *, *, #820, .T. ) ;
#978 = DIRECTION ( 'NONE',  ( -1.000000000000000000, 2.039045096189232828E-16, 0.000000000000000000 ) ) ;
#979 = CARTESIAN_POINT ( 'NONE',  ( 0.000000000000000000, -0.2793999999999990935, 1.649999999999998579 ) ) ;
#980 = EDGE_LOOP ( 'NONE', ( #235, #539, #244, #264 ) ) ;
#981 = ORIENTED_EDGE ( 'NONE', *, *, #224, .T. ) ;
#982 = CARTESIAN_POINT ( 'NONE',  ( 0.2793999999999852157, -1.342841092609250886, 1.649999999999998579 ) ) ;
#983 = AXIS2_PLACEMENT_3D ( 'NONE', #610, #771, #209 ) ;
#984 = VERTEX_POINT ( 'NONE', #216 ) ;
#985 = AXIS2_PLACEMENT_3D ( 'NONE', #86, #872, #945 ) ;
#986 = LINE ( 'NONE', #976, #162 ) ;
#987 = VECTOR ( 'NONE', #517, 1000.000000000000227 ) ;
#988 = EDGE_CURVE ( 'NONE', #487, #429, #600, .T. ) ;
#989 = ORIENTED_EDGE ( 'NONE', *, *, #483, .F. ) ;
#990 = DIRECTION ( 'NONE',  ( -0.000000000000000000, 1.606225440719265381E-16, -1.000000000000000000 ) ) ;
#991 = CARTESIAN_POINT ( 'NONE',  ( 1.351959892270770958, -0.2312812350607484913, 1.100000000000003642 ) ) ;
#992 = ORIENTED_EDGE ( 'NONE', *, *, #755, .F. ) ;
#993 = DIRECTION ( 'NONE',  ( 0.000000000000000000, -4.097723285930288839E-32, 1.000000000000000000 ) ) ;
#994 = EDGE_CURVE ( 'NONE', #635, #554, #282, .T. ) ;
#995 = EDGE_CURVE ( 'NONE', #42, #325, #193, .T. ) ;
#996 = CYLINDRICAL_SURFACE ( 'NONE', #391, 1.371600000000000152 ) ;
#997 = DIRECTION ( 'NONE',  ( 0.000000000000000000, 1.000000000000000000, 1.445602896647338917E-16 ) ) ;
#998 = CARTESIAN_POINT ( 'NONE',  ( -0.2312812350607207357, 0.000000000000000000, 1.100000000000003642 ) ) ;
#999 = DIRECTION ( 'NONE',  ( 0.000000000000000000, -0.08715574274765820750, -0.9961946980917455452 ) ) ;
#1000 = CARTESIAN_POINT ( 'NONE',  ( 0.2634155365841113761, 1.346166921035992114, 1.467296747124823275 ) ) ;
#1001 = CARTESIAN_POINT ( 'NONE',  ( 1.371600000000000374, 0.000000000000000000, 1.649999999999998579 ) ) ;
#1002 = AXIS2_PLACEMENT_3D ( 'NONE', #381, #72, #854 ) ;
#1003 = VECTOR ( 'NONE', #537, 1000.000000000000000 ) ;
#1004 = CARTESIAN_POINT ( 'NONE',  ( 0.000000000000000000, 0.000000000000000000, -1.954999999999998295 ) ) ;
#1005 = PLANE ( 'NONE',  #613 ) ;
#1006 = CARTESIAN_POINT ( 'NONE',  ( -0.5252572366576391261, 0.2175686711582067168, 1.649999999999998579 ) ) ;
#1007 = VERTEX_POINT ( 'NONE', #135 ) ;
#1008 = CARTESIAN_POINT ( 'NONE',  ( 0.000000000000000000, 0.000000000000000000, 1.649999999999998579 ) ) ;
#1009 = PLANE ( 'NONE',  #386 ) ;
#1010 = ORIENTED_EDGE ( 'NONE', *, *, #9, .F. ) ;
#1011 = LINE ( 'NONE', #78, #84 ) ;
#1012 = LINE ( 'NONE', #394, #659 ) ;
#1013 = EDGE_LOOP ( 'NONE', ( #159, #426, #507, #550 ) ) ;
#1014 = EDGE_CURVE ( 'NONE', #205, #975, #529, .T. ) ;
#1015 = AXIS2_PLACEMENT_3D ( 'NONE', #901, #422, #827 ) ;
#1016 = AXIS2_PLACEMENT_3D ( 'NONE', #301, #231, #305 ) ;
ENDSEC;
END-ISO-10303-21;
